<svg xmlns="http://www.w3.org/2000/svg" viewBox="0 0 464.33 470.18"><g transform="translate(-44.177)"><text xml:space="preserve" x="283.976" y="306.521" style="fill:#000;font-family:&quot;DejaVu Serif&quot;;font-size:10.052px;line-height:1.25;stroke-width:.2513;stroke:#fff"><tspan x="283.976" y="306.521" style="fill:#000;font-family:&quot;Latin Modern Roman&quot;;font-size:10.052px;font-weight:700;stroke-width:.2513;stroke:#fff;text-align:center;text-anchor:middle">VISTA</tspan></text><path d="M491.9 255.2a235.07 235.07 0 0 0-.697-1.384 235.07 235.07 0 0 0-5.684-10.032 235.07 235.07 0 0 0-6.174-9.748 235.07 235.07 0 0 0-6.646-9.433 235.07 235.07 0 0 0-7.097-9.1 235.07 235.07 0 0 0-7.539-8.736 235.07 235.07 0 0 0-7.951-8.354 235.07 235.07 0 0 0-8.354-7.951 235.07 235.07 0 0 0-8.736-7.54 235.07 235.07 0 0 0-9.1-7.097 235.07 235.07 0 0 0-9.434-6.645 235.07 235.07 0 0 0-9.747-6.175 235.07 235.07 0 0 0-10.042-5.683 235.07 235.07 0 0 0-10.297-5.193 235.07 235.07 0 0 0-10.553-4.673 235.07 235.07 0 0 0-10.77-4.152 235.07 235.07 0 0 0-10.954-3.622 235.07 235.07 0 0 0-11.112-3.073 235.07 235.07 0 0 0-11.26-2.532 235.07 235.07 0 0 0-11.366-1.974 235.07 235.07 0 0 0-11.456-1.403 235.07 235.07 0 0 0-11.505-.854 235.07 235.07 0 0 0-11.534-.285 235.07 235.07 0 0 0-33.454 2.395 235.07 235.07 0 0 0-32.767 7.127 235.07 235.07 0 0 0-31.432 11.72 235.07 235.07 0 0 0-29.43 16.08 235.07 235.07 0 0 0-26.857 20.094 235.07 235.07 0 0 0-23.706 23.716 235.07 235.07 0 0 0-20.104 26.848 235.07 235.07 0 0 0-10.081 18.465 212.58 212.58 0 0 0 207.83 170.42 212.58 212.58 0 0 0 208.01-171.23z" style="fill:none;paint-order:markers fill stroke;stroke-linejoin:round;stroke:#000"/><path d="M283.89 1.256a212.58 212.58 0 0 0-212.58 212.58 212.58 212.58 0 0 0 4.751 42.161 235.07 235.07 0 0 1 10.081-18.465 235.07 235.07 0 0 1 20.104-26.848 235.07 235.07 0 0 1 23.706-23.715 235.07 235.07 0 0 1 26.858-20.094 235.07 235.07 0 0 1 29.43-16.08 235.07 235.07 0 0 1 31.431-11.72 235.07 235.07 0 0 1 32.767-7.127 235.07 235.07 0 0 1 33.454-2.395 235.07 235.07 0 0 1 11.534.284 235.07 235.07 0 0 1 11.505.854 235.07 235.07 0 0 1 11.456 1.404 235.07 235.07 0 0 1 11.367 1.973 235.07 235.07 0 0 1 11.26 2.533 235.07 235.07 0 0 1 11.111 3.072 235.07 235.07 0 0 1 10.955 3.622 235.07 235.07 0 0 1 10.77 4.153 235.07 235.07 0 0 1 10.552 4.672 235.07 235.07 0 0 1 10.297 5.193 235.07 235.07 0 0 1 10.042 5.684 235.07 235.07 0 0 1 9.748 6.174 235.07 235.07 0 0 1 9.433 6.646 235.07 235.07 0 0 1 9.1 7.097 235.07 235.07 0 0 1 8.736 7.54 235.07 235.07 0 0 1 8.354 7.95 235.07 235.07 0 0 1 7.951 8.354 235.07 235.07 0 0 1 7.54 8.737 235.07 235.07 0 0 1 7.097 9.1 235.07 235.07 0 0 1 6.645 9.433 235.07 235.07 0 0 1 6.175 9.747 235.07 235.07 0 0 1 5.683 10.032 235.07 235.07 0 0 1 .697 1.384 212.58 212.58 0 0 0 4.575-41.356 212.58 212.58 0 0 0-212.58-212.58z" style="fill:none;paint-order:markers fill stroke;stroke-linejoin:round;stroke:#000"/><circle cx="283.9" cy="213.84" r="139.13" style="fill:none;paint-order:markers fill stroke;stroke-linejoin:round;stroke:#000"/><circle cx="283.9" cy="213.84" r="94.904" style="fill:none;paint-order:markers fill stroke;stroke-linejoin:round;stroke:#000"/><circle cx="283.9" cy="213.84" r="84.411" style="fill:none;paint-order:markers fill stroke;stroke-linejoin:round;stroke:#000"/><circle cx="283.9" cy="213.84" r="115.89" style="fill:none;paint-order:markers fill stroke;stroke-linejoin:round;stroke:#000"/><path d="M198.23 213.84h171.34" style="fill:none;stroke:#000"/><text xml:space="preserve" x="118.041" y="120.397" style="fill:#000;font-family:&quot;DejaVu Serif&quot;;font-size:16.753px;line-height:1.25;stroke-width:.2513;stroke:#fff"><tspan x="118.041" y="120.397" style="fill:#000;font-family:&quot;Latin Modern Roman&quot;;font-size:16.753px;font-weight:700;stroke-width:.2513;stroke:#fff;text-align:center;text-anchor:middle">the Straight Path</tspan></text><text xml:space="preserve" x="169.457" y="154.652" style="fill:#000;font-family:&quot;DejaVu Serif&quot;;font-size:13.403px;line-height:1.25;stroke-width:.2513;stroke:#fff" transform="rotate(-6.41)"><tspan x="169.457" y="154.652" style="fill:#000;font-family:&quot;Latin Modern Roman&quot;;font-size:13.403px;font-weight:700;stroke-width:.2513;stroke:#fff;text-align:center;text-anchor:middle">Valinor</tspan></text><text xml:space="preserve" x="434.693" y="125.211" style="fill:#000;font-family:&quot;DejaVu Serif&quot;;font-size:16.753px;line-height:1.25;stroke-width:.2513;stroke:#fff"><tspan x="434.693" y="125.211" style="fill:#000;font-family:&quot;Latin Modern Roman&quot;;font-size:16.753px;font-weight:700;stroke-width:.2513;stroke:#fff;text-align:center;text-anchor:middle">the Straight Path</tspan></text><text xml:space="preserve" x="283.686" y="176.637" style="fill:#000;font-family:&quot;DejaVu Serif&quot;;font-size:16.753px;line-height:1.25;stroke-width:.2513"><tspan x="283.686" y="176.637" style="fill:#000;font-family:&quot;Latin Modern Roman&quot;;font-size:16.753px;font-weight:700;stroke-width:.2513;text-align:center;text-anchor:middle">Old Lands</tspan></text><text xml:space="preserve" x="283.896" y="262.547" style="fill:#000;font-family:&quot;DejaVu Serif&quot;;font-size:16.753px;line-height:1.25;stroke-width:.2513"><tspan x="283.896" y="262.547" style="fill:#000;font-family:&quot;Latin Modern Roman&quot;;font-size:16.753px;font-weight:700;stroke-width:.2513;text-align:center;text-anchor:middle">New Lands</tspan></text><text xml:space="preserve" x="283.52" y="223.138" style="fill:#000;font-family:&quot;DejaVu Serif&quot;;font-size:26.805px;line-height:1.25;stroke-width:.2513;stroke:#fff"><tspan x="283.52" y="223.138" style="fill:#000;font-family:&quot;Latin Modern Roman&quot;;font-size:26.805px;stroke-width:.2513;stroke:#fff;text-align:center;text-anchor:middle">AMBAR</tspan></text><text xml:space="preserve" x="284.035" y="38.364" style="fill:#000;font-family:&quot;DejaVu Serif&quot;;font-size:20.104px;line-height:1.25;stroke-width:.2513"><tspan x="284.035" y="38.364" style="fill:#000;font-family:&quot;Latin Modern Roman&quot;;font-size:20.104px;stroke-width:.2513;text-align:center;text-anchor:middle">VAIYA</tspan></text><text xml:space="preserve" x="283.956" y="105.184" style="fill:#000;font-family:&quot;DejaVu Serif&quot;;font-size:20.104px;line-height:1.25;stroke-width:.2513;stroke:#fff"><tspan x="283.956" y="105.184" style="fill:#000;font-family:&quot;Latin Modern Roman&quot;;font-size:20.104px;stroke-width:.2513;stroke:#fff;text-align:center;text-anchor:middle">ILMEN</tspan></text><path d="M80.783 150.77c137.78-22.048 270.31-28.847 399.69-18.951" style="fill:none;stroke:#000"/><text xml:space="preserve" x="158.146" y="448.361" style="fill:#000;font-family:&quot;DejaVu Serif&quot;;font-size:16.753px;line-height:1.25;stroke-width:.2513"><tspan x="158.146" y="448.361" style="fill:#000;font-family:&quot;Latin Modern Roman&quot;;font-size:16.753px;font-weight:700;stroke-width:.2513">The World after the Cataclysm and the</tspan><tspan x="158.146" y="470.077" style="fill:#000;font-family:&quot;Latin Modern Roman&quot;;font-size:16.753px;font-weight:700;stroke-width:.2513">ruin of the Numenoreans</tspan></text><text xml:space="preserve" x="187.626" y="167.372" style="fill:#000;font-family:&quot;DejaVu Serif&quot;;font-size:13.403px;line-height:1.25;stroke-width:.2513;stroke:#fff" transform="rotate(-6.141)"><tspan x="187.626" y="167.372" style="fill:#000;font-family:&quot;Latin Modern Roman&quot;;font-size:13.403px;font-weight:700;stroke-width:.2513;stroke:#fff;text-align:center;text-anchor:middle">Eressëa</tspan></text></g></svg>