<svg xmlns="http://www.w3.org/2000/svg" viewBox="0 0 542.01 657.43"><g transform="translate(-186.21 28.984)"><text xml:space="preserve" x="425.052" y="519.394" style="fill:none;font-family:&quot;DejaVu Serif&quot;;font-size:28.406px;line-height:1.25;stroke-width:1.1836;stroke:#000"><tspan x="425.052" y="519.394" style="fill:none;font-family:&quot;Latin Modern Roman&quot;;font-size:28.406px;font-weight:700;stroke-width:1.1836;stroke:#000">ILU</tspan></text><text xml:space="preserve" x="433.19" y="182.625" style="font-family:&quot;DejaVu Serif&quot;;font-size:9.4685px;line-height:1.25;stroke-width:1.1836"><tspan x="433.19" y="182.625" style="font-family:&quot;Latin Modern Roman&quot;;font-size:9.4685px;font-weight:700;stroke-width:1.1836">ENDOR</tspan></text><text xml:space="preserve" x="453.328" y="189.908" style="font-family:&quot;DejaVu Serif&quot;;font-size:12.625px;line-height:1.25;stroke-width:1.1836"><tspan x="453.328" y="189.908" style="font-family:&quot;Latin Modern Roman&quot;;font-size:12.625px;font-weight:700;stroke-width:1.1836;text-align:center;text-anchor:middle">PEL-                            -MAR</tspan></text><text xml:space="preserve" x="141.968" y="206.201" style="font-family:&quot;DejaVu Serif&quot;;font-size:12.625px;line-height:1.25;stroke-width:1.1836" transform="rotate(-41.381)"><tspan x="141.968" y="206.201" style="font-family:&quot;Latin Modern Roman&quot;;font-size:12.625px;font-weight:700;stroke-width:1.1836">Earambar</tspan></text><text xml:space="preserve" x="198.129" y="701.508" style="font-family:&quot;DejaVu Serif&quot;;font-size:12.625px;line-height:1.25;stroke-width:1.1836" transform="rotate(-43.391)"><tspan x="198.129" y="701.508" style="font-family:&quot;Latin Modern Roman&quot;;font-size:12.625px;font-weight:700;stroke-width:1.1836">Earambar</tspan></text><text xml:space="preserve" x="218.253" y="202.484" style="font-family:&quot;DejaVu Serif&quot;;font-size:12.625px;line-height:1.25;stroke-width:1.1836"><tspan x="218.253" y="202.484" style="font-family:&quot;Latin Modern Roman&quot;;font-size:12.625px;font-weight:700;stroke-width:1.1836">Formen</tspan></text><path d="M720.62 192.59a271.93 271.93 0 0 0-.374-2.164 271.93 271.93 0 0 0-2.925-13.022 271.93 271.93 0 0 0-3.56-12.864 271.93 271.93 0 0 0-4.186-12.672 271.93 271.93 0 0 0-4.804-12.453 271.93 271.93 0 0 0-5.409-12.203 271.93 271.93 0 0 0-6.001-11.92 271.93 271.93 0 0 0-6.58-11.615 271.93 271.93 0 0 0-7.14-11.276 271.93 271.93 0 0 0-7.686-10.91 271.93 271.93 0 0 0-8.211-10.524 271.93 271.93 0 0 0-8.717-10.107 271.93 271.93 0 0 0-9.205-9.667 271.93 271.93 0 0 0-9.665-9.203 271.93 271.93 0 0 0-10.107-8.717 271.93 271.93 0 0 0-10.523-8.211 271.93 271.93 0 0 0-10.913-7.686 271.93 271.93 0 0 0-11.276-7.141 271.93 271.93 0 0 0-11.611-6.579 271.93 271.93 0 0 0-11.924-6.001 271.93 271.93 0 0 0-12.201-5.41 271.93 271.93 0 0 0-12.453-4.803 271.93 271.93 0 0 0-12.673-4.186 271.93 271.93 0 0 0-12.864-3.56 271.93 271.93 0 0 0-13.024-2.925 271.93 271.93 0 0 0-13.15-2.281 271.93 271.93 0 0 0-13.247-1.634 271.93 271.93 0 0 0-13.311-.98 271.93 271.93 0 0 0-13.343-.329 271.93 271.93 0 0 0-38.7 2.767 271.93 271.93 0 0 0-37.912 8.248A271.93 271.93 0 0 0 340.574-3.88a271.93 271.93 0 0 0-34.053 18.595 271.93 271.93 0 0 0-31.062 23.251 271.93 271.93 0 0 0-27.435 27.435 271.93 271.93 0 0 0-23.251 31.062 271.93 271.93 0 0 0-18.595 34.053 271.93 271.93 0 0 0-13.558 36.351 271.93 271.93 0 0 0-5.881 27.033 271.93 271.93 0 0 0 266.8 222.35 271.93 271.93 0 0 0 267.08-223.66z" style="fill:none;paint-order:markers fill stroke;stroke-linejoin:round;stroke-width:1.0687;stroke:#000"/><path d="M456.08-13.853a215.41 215.41 0 0 0-15.518 3.375A215.41 215.41 0 0 0 411.766.262a215.41 215.41 0 0 0-26.975 14.73 215.41 215.41 0 0 0-24.605 18.417 215.41 215.41 0 0 0-21.732 21.734 215.41 215.41 0 0 0-18.419 24.603 215.41 215.41 0 0 0-14.728 26.975 215.41 215.41 0 0 0-10.742 28.796 215.41 215.41 0 0 0-6.533 30.033 215.41 215.41 0 0 0-2.191 30.655 215.41 215.41 0 0 0 2.191 30.655 215.41 215.41 0 0 0 6.533 30.033 215.41 215.41 0 0 0 10.742 28.796 215.41 215.41 0 0 0 14.728 26.975 215.41 215.41 0 0 0 18.419 24.605 215.41 215.41 0 0 0 21.732 21.732 215.41 215.41 0 0 0 24.605 18.417 215.41 215.41 0 0 0 26.975 14.73 215.41 215.41 0 0 0 28.796 10.74 215.41 215.41 0 0 0 9.66 2.101 215.41 215.41 0 0 0 169.19-209.83 215.41 215.41 0 0 0-163.33-209.01z" style="fill:none;paint-order:markers fill stroke;stroke-linejoin:round;stroke-width:.84656;stroke:#000"/><circle r="0" style="fill:none;paint-order:markers fill stroke;stroke-dasharray:4.21906,4.21906;stroke-dashoffset:5.1684;stroke-linejoin:round;stroke-width:.52738;stroke:#010000" transform="scale(-1)"/><path d="m106.91 316.5 11.682-8.858 7.293 8.022 7.12-6.29 7.573 7.801 5.927-5.326 8.124 7.634 4.696-6.288 4.362 6.075c68.28 1.653 109.53-5.502 148.49-6.282 38.955-.78 87.643 10.497 140.65 4.772 6.62-.715 10.482-6.79 14.634-11.18l7.43 6.438" style="fill:none;stroke-width:1px;stroke:#000" transform="translate(80.037 -182.35) scale(1.1836)"/><path d="m471.41 316.12 3.481-3.104 7.288-7.3 8.052 8.05 7.291-8.211 8.847 9.749 5.481-7.648 7.911 9.613 4.462-3.763 10.26 7.024M109.13 320.05l-2.216-3.552-2.027-3.46c-2.364 3.932-4.635 9.705-9.822 9.073M191 323.49c-2.127 3.919-5.893 6.641-10.153 9.004M204.95 323.37c-3.284 9.953-12.291 18.841-21.001 27.049M220.43 322.98c-5.157 19.348-18.365 33.101-30.245 47.222M234.11 322.67c-8.168 29.609-16.205 47.501-34.204 68.253M251.41 321.45c-6.668 36.652-22.508 62.15-37.159 89.675M272.41 319.34c-3.682 44.13-19.222 79.106-37.054 112.31M290.02 317.85c-3.295 49.174-14.827 91.208-31.765 128.56M302.15 317.88c.735 48.779-1.515 96.919-14.552 142.75M326.62 317.6c-.8 49.618 3.81 96.585 8.328 143.6M339.49 318.02c3.982 49.161 14.59 91.793 28.562 131.11M354 318.95c-1.616 23.694 24.321 77.435 41.514 113.66M368.4 319.79c13.327 50.517 31.53 77.654 46.197 95.494M385.23 321.24c8.58 23.234 20.814 47.484 44.927 74.552M403.02 322.2c11.488 30.229 23.6 43.125 35.83 52.718M418.21 322.57c5.747 9.753 6.377 19.309 27.577 29.654M437.22 322.66c2.402 6.575 6.736 8.831 11.329 11.558" style="fill:none;stroke-width:1px;stroke:#000" transform="translate(80.037 -182.35) scale(1.1836)"/><path d="M176.82 323.29s9.581.166 14.18.197c4.598.031 8.605.05 13.41-.004s10.464-.205 15.415-.341 9.017-.25 14.289-.47 10.923-.654 17.304-1.23 14.562-1.466 20.994-2.108 12.641-1.322 17.613-1.488 6.033.06 12.133.033c6.1-.026 18.238-.34 24.462-.277 6.224.064 8.31.191 12.875.412s9.696.64 14.514.936 9.18.443 14.395.838 11.062 1.045 16.833 1.45 12.297.768 17.785.964 9.528.375 15.197.37c5.669-.005 13.337.129 19.004.086 5.667-.042 14.994-.407 14.994-.407s-3.495 7.578-3.665 11.966 1.614 10.53 1.614 10.53-3.338 3.14-4.37 7.48.918 12.46.918 12.46-6.444 5.67-7.86 10.233.898 11.183.898 11.183-7.42 4.836-9.587 9.687-.402 11.28-.402 11.28-11.198 2.21-15.161 8.212-4 15.335-4 15.335-7.51-2.134-15.079 1.99-7.69 17.84-7.69 17.84-7.5-4.725-19.775-1.321-15.678 24.584-15.678 24.584-6.537-8.933-17.432-12.51-34.035-4.037-47.342-.57-15.52 8.404-15.52 8.404c-.434-4.11-3.571-19.298-13.825-22.629s-18.008 2.641-18.008 2.641 2.664-11.528-4.894-17.403c-7.558-5.875-19.313-2.682-19.313-2.682s3.64-11.707-1.787-17.843-14.633-5.444-14.633-5.444 3.13-9.687.284-14.749c-2.846-5.061-10.29-6.627-10.29-6.627s2.757-8.092.57-14.102-6.836-7.28-6.836-7.28 2.133-6.866.596-12.496c-1.538-5.63-6.13-8.146-6.13-8.146s3.386-5.991 3.027-9.783-4.027-9.2-4.027-9.2z" style="fill:none;stroke-width:1px;stroke:#000" transform="translate(80.037 -182.35) scale(1.1836)"/><text xml:space="preserve" x="423.014" y="20.314" style="font-family:&quot;DejaVu Serif&quot;;font-size:15.781px;line-height:1.25;stroke-width:1.1836"><tspan x="423.014" y="20.314" style="font-family:&quot;Latin Modern Roman&quot;;font-weight:700;stroke-width:1.1836">ILMEN</tspan></text><text xml:space="preserve" x="410.548" y="353.551" style="font-family:&quot;DejaVu Serif&quot;;font-size:15.781px;line-height:1.25;stroke-width:.3;stroke:#fff"><tspan x="410.548" y="353.551" style="font-family:&quot;Latin Modern Roman&quot;;font-weight:700;stroke-width:.3;stroke:#fff">Martalmar</tspan></text><text xml:space="preserve" x="423.014" y="392.497" style="font-family:&quot;DejaVu Serif&quot;;font-size:15.781px;line-height:1.25;stroke-width:1.1836"><tspan x="423.014" y="392.497" style="font-family:&quot;Latin Modern Roman&quot;;font-weight:700;stroke-width:1.1836">ILMEN</tspan></text><text xml:space="preserve" x="403.313" y="265.642" style="font-family:&quot;DejaVu Serif&quot;;font-size:22.093px;line-height:1.25;stroke-width:.3;stroke:#fff"><tspan x="403.313" y="265.642" style="font-family:&quot;Latin Modern Roman&quot;;font-size:22.093px;font-weight:700;stroke-width:.3;stroke:#fff">AMBAR</tspan></text><text xml:space="preserve" x="646.361" y="23.082" style="font-family:&quot;DejaVu Serif&quot;;font-size:22.093px;line-height:1.25;stroke-width:1.1836"><tspan x="646.361" y="23.082" style="font-family:&quot;Latin Modern Roman&quot;;font-size:22.093px;font-weight:700;stroke-width:1.1836">KÚMA</tspan></text><text xml:space="preserve" x="49.679" y="699.858" style="font-family:&quot;DejaVu Serif&quot;;font-size:22.093px;line-height:1.25;stroke-width:1.1836" transform="rotate(-56.814)"><tspan x="49.679" y="699.858" style="font-family:&quot;Latin Modern Roman&quot;;font-size:22.093px;font-weight:700;stroke-width:1.1836">VAIYA</tspan></text><text xml:space="preserve" x="18.559" y="284.399" style="font-family:&quot;DejaVu Serif&quot;;font-size:22.093px;line-height:1.25;stroke-width:1.1836" transform="rotate(-56.814)"><tspan x="18.559" y="284.399" style="font-family:&quot;Latin Modern Roman&quot;;font-size:22.093px;font-weight:700;stroke-width:1.1836">VAIYA</tspan></text><text xml:space="preserve" x="188.975" y="394.16" style="font-family:&quot;DejaVu Serif&quot;;font-size:22.093px;line-height:1.25;stroke-width:1.1836"><tspan x="188.975" y="394.16" style="font-family:&quot;Latin Modern Roman&quot;;font-size:22.093px;font-weight:700;stroke-width:1.1836">KÚMA</tspan></text><text xml:space="preserve" x="248.409" y="622.303" style="font-family:&quot;DejaVu Serif&quot;;font-size:17.359px;letter-spacing:-1.2428px;line-height:1.25;stroke-width:1.1836"><tspan x="248.409" y="622.303" style="font-family:&quot;Latin Modern Roman&quot;;font-size:17.359px;font-weight:700;stroke-width:1.1836">The World: from Formen (North) to Harmen (South)</tspan></text><text xml:space="preserve" x="427.992" y="131.553" style="font-family:&quot;DejaVu Serif&quot;;font-size:22.093px;line-height:1.25;stroke-width:1.1836"><tspan x="427.992" y="131.553" style="font-family:&quot;Latin Modern Roman&quot;;font-size:22.093px;stroke-width:1.1836">Vista</tspan></text><path d="M432.95 135.31h41.184M221.45 205.94h41.184M393.76 627.3h41.184M546.94 627.85h41.184" style="fill:none;stroke-width:1.1836px;stroke:#000"/><text xml:space="preserve" x="632.25" y="200.284" style="font-family:&quot;DejaVu Serif&quot;;font-size:12.625px;line-height:1.25;stroke-width:1.1836"><tspan x="632.25" y="200.284" style="font-family:&quot;Latin Modern Roman&quot;;font-size:12.625px;font-weight:700;stroke-width:1.1836">Harmen</tspan></text><path d="M635.44 203.74h41.184" style="fill:none;stroke-width:1.1836px;stroke:#000"/></g></svg>