<svg xmlns="http://www.w3.org/2000/svg" xmlns:xlink="http://www.w3.org/1999/xlink" width="234.142" height="298.95"><defs><filter id="a" width="1" height="1" x="0" y="0" style="color-interpolation-filters:sRGB"><feColorMatrix values="9.43051 0 0 -2.38302 -4.21525 0 9.43051 0 -2.38302 -4.21525 0 0 9.43051 -2.38302 -4.21525 0 0 0 1 0"/></filter></defs><g transform="translate(-3.48 -11.557)"><text xml:space="preserve" x="129.287" y="124.098" style="font-size:4px;line-height:1.25;font-family:&quot;DejaVu Serif&quot;;-inkscape-font-specification:&quot;DejaVu Serif, Normal&quot;;letter-spacing:-.09px;fill:#000;fill-opacity:1;stroke:none"><tspan x="129.287" y="124.098" style="font-style:normal;font-variant:normal;font-weight:700;font-stretch:normal;font-size:4px;font-family:&quot;Latin Modern Roman&quot;;-inkscape-font-specification:&quot;Latin Modern Roman, &quot;;fill:#000;fill-opacity:1;stroke:none">Endor</tspan></text><text xml:space="preserve" style="font-size:4.66667px;line-height:1.25;font-family:&quot;DejaVu Serif&quot;;-inkscape-font-specification:&quot;DejaVu Serif, Normal&quot;;letter-spacing:1.14px;fill:#000;fill-opacity:1;stroke:none"><textPath xlink:href="#b" startOffset="50%"><tspan><tspan style="font-style:normal;font-variant:normal;font-weight:400;font-stretch:normal;font-size:4.66667px;font-family:&quot;Latin Modern Roman&quot;;-inkscape-font-specification:&quot;Latin Modern Roman, &quot;;text-align:center;text-anchor:middle;fill:#000;fill-opacity:1;stroke:none">Tinwe-    </tspan></tspan><tspan><tspan style="font-style:normal;font-variant:normal;font-weight:400;font-stretch:normal;font-size:4.66667px;font-family:&quot;Latin Modern Roman&quot;;-inkscape-font-specification:&quot;Latin Modern Roman, &quot;;text-align:center;text-anchor:middle;fill:#000;fill-opacity:1;stroke:none">malle </tspan></tspan></textPath></text><text xml:space="preserve" style="font-size:8px;line-height:1.25;font-family:&quot;DejaVu Serif&quot;;-inkscape-font-specification:&quot;DejaVu Serif, Normal&quot;;text-align:start;letter-spacing:2.5px;text-anchor:start;fill:#000;fill-opacity:1;stroke:none"><textPath xlink:href="#b" startOffset="100%"><tspan style="font-style:normal;font-variant:normal;font-weight:400;font-stretch:normal;font-size:8px;font-family:&quot;Latin Modern Roman&quot;;-inkscape-font-specification:&quot;Latin Modern Roman, &quot;;text-align:end;text-anchor:end;fill:#000;fill-opacity:1;stroke:none">ILMEN       </tspan></textPath></text><text xml:space="preserve" style="font-size:8px;line-height:1.25;font-family:&quot;DejaVu Serif&quot;;-inkscape-font-specification:&quot;DejaVu Serif, Normal&quot;;fill:#000;fill-opacity:1;stroke:none" transform="translate(-.016 -101.153)"><textPath xlink:href="#c" startOffset="50%"><tspan dy="13.9" style="font-style:normal;font-variant:normal;font-weight:400;font-stretch:normal;font-size:8px;font-family:&quot;Latin Modern Roman&quot;;-inkscape-font-specification:&quot;Latin Modern Roman, &quot;;text-align:center;text-anchor:middle;fill:#000;fill-opacity:1;stroke:none">AVA-KÚMA</tspan></textPath></text><text xml:space="preserve" x="12.345" style="font-size:10.6667px;line-height:1.25;font-family:&quot;DejaVu Serif&quot;;-inkscape-font-specification:&quot;DejaVu Serif, Normal&quot;;letter-spacing:4px;fill:#000;fill-opacity:1;stroke:none" transform="translate(.54 -101.96)"><textPath xlink:href="#d" startOffset="50%" style="font-style:normal;font-variant:normal;font-weight:400;font-stretch:normal;font-size:10.6667px;font-family:&quot;Latin Modern Roman&quot;;-inkscape-font-specification:&quot;Latin Modern Roman, &quot;;text-align:center;text-anchor:middle;fill:#000;fill-opacity:1;stroke:none">VAIYA</textPath></text><g style="display:inline;fill:none;stroke:#000;stroke-opacity:1" transform="matrix(.78412 0 0 .7684 40.145 -82.477)"><circle cx="151.66" cy="194.217" r=".762" style="opacity:1;fill:none;fill-opacity:1;fill-rule:evenodd;stroke:#000;stroke-width:.476193;stroke-linejoin:round;stroke-miterlimit:4;stroke-dasharray:none;stroke-opacity:1;paint-order:markers fill stroke"/><path d="M151.66 191.634v1.689" style="fill:none;stroke:#000;stroke-width:.5;stroke-linecap:butt;stroke-linejoin:miter;stroke-miterlimit:4;stroke-dasharray:none;stroke-opacity:1"/><path d="M154.222 194.217h-1.688M151.66 195.15v1.69M150.81 194.217h-1.689" style="display:inline;fill:none;stroke:#000;stroke-width:.5;stroke-linecap:butt;stroke-linejoin:miter;stroke-miterlimit:4;stroke-dasharray:none;stroke-opacity:1"/></g><g style="display:inline;fill:none;stroke:#000;stroke-opacity:1" transform="matrix(.78412 0 0 .7684 8.148 -89.371)"><circle cx="151.66" cy="194.217" r=".762" style="opacity:1;fill:none;fill-opacity:1;fill-rule:evenodd;stroke:#000;stroke-width:.476193;stroke-linejoin:round;stroke-miterlimit:4;stroke-dasharray:none;stroke-opacity:1;paint-order:markers fill stroke"/><path d="M151.66 191.634v1.689" style="fill:none;stroke:#000;stroke-width:.5;stroke-linecap:butt;stroke-linejoin:miter;stroke-miterlimit:4;stroke-dasharray:none;stroke-opacity:1"/><path d="M154.222 194.217h-1.688M151.66 195.15v1.69M150.81 194.217h-1.689" style="display:inline;fill:none;stroke:#000;stroke-width:.5;stroke-linecap:butt;stroke-linejoin:miter;stroke-miterlimit:4;stroke-dasharray:none;stroke-opacity:1"/></g><g style="display:inline;fill:none;stroke:#000;stroke-opacity:1" transform="matrix(.78412 0 0 .7684 -31.371 -80.268)"><circle cx="151.66" cy="194.217" r=".762" style="opacity:1;fill:none;fill-opacity:1;fill-rule:evenodd;stroke:#000;stroke-width:.476193;stroke-linejoin:round;stroke-miterlimit:4;stroke-dasharray:none;stroke-opacity:1;paint-order:markers fill stroke"/><path d="M151.66 191.634v1.689" style="fill:none;stroke:#000;stroke-width:.5;stroke-linecap:butt;stroke-linejoin:miter;stroke-miterlimit:4;stroke-dasharray:none;stroke-opacity:1"/><path d="M154.222 194.217h-1.688M151.66 195.15v1.69M150.81 194.217h-1.689" style="display:inline;fill:none;stroke:#000;stroke-width:.5;stroke-linecap:butt;stroke-linejoin:miter;stroke-miterlimit:4;stroke-dasharray:none;stroke-opacity:1"/></g><g style="display:inline;fill:none;stroke:#000;stroke-opacity:1" transform="matrix(.78412 0 0 .7684 -65.877 -30.063)"><circle cx="151.66" cy="194.217" r=".762" style="opacity:1;fill:none;fill-opacity:1;fill-rule:evenodd;stroke:#000;stroke-width:.476193;stroke-linejoin:round;stroke-miterlimit:4;stroke-dasharray:none;stroke-opacity:1;paint-order:markers fill stroke"/><path d="M151.66 191.634v1.689" style="fill:none;stroke:#000;stroke-width:.5;stroke-linecap:butt;stroke-linejoin:miter;stroke-miterlimit:4;stroke-dasharray:none;stroke-opacity:1"/><path d="M154.222 194.217h-1.688M151.66 195.15v1.69M150.81 194.217h-1.689" style="display:inline;fill:none;stroke:#000;stroke-width:.5;stroke-linecap:butt;stroke-linejoin:miter;stroke-miterlimit:4;stroke-dasharray:none;stroke-opacity:1"/></g><g style="display:inline;fill:none;stroke:#000;stroke-opacity:1" transform="matrix(.78412 0 0 .7684 87.004 -34.643)"><circle cx="151.66" cy="194.217" r=".762" style="opacity:1;fill:none;fill-opacity:1;fill-rule:evenodd;stroke:#000;stroke-width:.476193;stroke-linejoin:round;stroke-miterlimit:4;stroke-dasharray:none;stroke-opacity:1;paint-order:markers fill stroke"/><path d="M151.66 191.634v1.689" style="fill:none;stroke:#000;stroke-width:.5;stroke-linecap:butt;stroke-linejoin:miter;stroke-miterlimit:4;stroke-dasharray:none;stroke-opacity:1"/><path d="M154.222 194.217h-1.688M151.66 195.15v1.69M150.81 194.217h-1.689" style="display:inline;fill:none;stroke:#000;stroke-width:.5;stroke-linecap:butt;stroke-linejoin:miter;stroke-miterlimit:4;stroke-dasharray:none;stroke-opacity:1"/></g><text xml:space="preserve" style="font-size:6.66667px;line-height:1.25;font-family:&quot;DejaVu Serif&quot;;-inkscape-font-specification:&quot;DejaVu Serif, Normal&quot;;fill:#000;fill-opacity:1;stroke:none" transform="rotate(-52.999 25.045 182.84)"><textPath xlink:href="#e" startOffset="50%" style="font-size:6.66667px;fill:#000;fill-opacity:1;stroke:none"><tspan dy="12.96" style="font-style:normal;font-variant:normal;font-weight:400;font-stretch:normal;font-size:6.66667px;font-family:&quot;Latin Modern Roman&quot;;-inkscape-font-specification:&quot;Latin Modern Roman, &quot;;text-align:center;text-anchor:middle;fill:#000;fill-opacity:1;stroke:none">KÚMA</tspan></textPath></text><g style="display:inline"><text xml:space="preserve" style="font-size:6.66667px;line-height:1.25;font-family:&quot;DejaVu Serif&quot;;-inkscape-font-specification:&quot;DejaVu Serif, Normal&quot;;fill:#000;fill-opacity:1;stroke:none" transform="rotate(52.492 230.62 181.932)"><textPath xlink:href="#f" startOffset="50%" style="font-size:6.66667px;fill:#000;fill-opacity:1;stroke:none"><tspan dy="12.96" style="font-style:normal;font-variant:normal;font-weight:400;font-stretch:normal;font-size:6.66667px;font-family:&quot;Latin Modern Roman&quot;;-inkscape-font-specification:&quot;Latin Modern Roman, &quot;;text-align:center;text-anchor:middle;fill:#000;fill-opacity:1;stroke:none">KÚMA</tspan></textPath></text></g><g style="display:inline"><text xml:space="preserve" style="font-size:6.66667px;line-height:1.25;font-family:&quot;DejaVu Serif&quot;;-inkscape-font-specification:&quot;DejaVu Serif, Normal&quot;;fill:#000;fill-opacity:1;stroke:none" transform="rotate(141.288 144.158 182.453)"><textPath xlink:href="#g" startOffset="50%" style="font-size:6.66667px;fill:#000;fill-opacity:1;stroke:none"><tspan dy="-8.14" style="font-style:normal;font-variant:normal;font-weight:400;font-stretch:normal;font-size:6.66667px;font-family:&quot;Latin Modern Roman&quot;;-inkscape-font-specification:&quot;Latin Modern Roman, &quot;;text-align:center;text-anchor:middle;fill:#000;fill-opacity:1;stroke:none">KÚMA</tspan></textPath></text></g><g style="display:inline"><text xml:space="preserve" style="font-size:5.33333px;line-height:1.25;font-family:&quot;DejaVu Serif&quot;;-inkscape-font-specification:&quot;DejaVu Serif, Normal&quot;;fill:#000;fill-opacity:1;stroke:none;stroke-opacity:1" transform="rotate(165.203 132.567 182.572)"><textPath xlink:href="#h" startOffset="50%" style="font-style:normal;font-variant:normal;font-weight:400;font-stretch:normal;font-size:5.33333px;font-family:&quot;Latin Modern Roman&quot;;-inkscape-font-specification:&quot;Latin Modern Roman, &quot;;fill:#000;fill-opacity:1;stroke:none;stroke-opacity:1">Ilurambar</textPath></text></g><g style="display:inline"><text xml:space="preserve" style="font-size:5.33333px;line-height:1.25;font-family:&quot;DejaVu Serif&quot;;-inkscape-font-specification:&quot;DejaVu Serif, Normal&quot;;display:inline;fill:#000;fill-opacity:1;stroke:none;stroke-opacity:1" transform="rotate(28.732 325.524 182.55)"><textPath xlink:href="#i" startOffset="50%" style="font-style:normal;font-variant:normal;font-weight:400;font-stretch:normal;font-size:5.33333px;font-family:&quot;Latin Modern Roman&quot;;-inkscape-font-specification:&quot;Latin Modern Roman, &quot;;fill:#000;fill-opacity:1;stroke:none;stroke-opacity:1">Ilurambar</textPath></text></g><g style="display:inline"><text xml:space="preserve" style="font-size:5.33333px;line-height:1.25;font-family:&quot;DejaVu Serif&quot;;-inkscape-font-specification:&quot;DejaVu Serif, Normal&quot;;display:inline;fill:#000;fill-opacity:1;stroke:none;stroke-opacity:1" transform="rotate(29.194 443.782 52.377)"><textPath xlink:href="#j" startOffset="50%" style="font-style:normal;font-variant:normal;font-weight:400;font-stretch:normal;font-size:5.33333px;font-family:&quot;Latin Modern Roman&quot;;-inkscape-font-specification:&quot;Latin Modern Roman, &quot;;fill:#000;fill-opacity:1;stroke:none;stroke-opacity:1">Ea</textPath></text></g><g style="display:inline"><text xml:space="preserve" style="font-size:6.66667px;line-height:1.25;font-family:&quot;DejaVu Serif&quot;;-inkscape-font-specification:&quot;DejaVu Serif, Normal&quot;;fill:#000;fill-opacity:1;stroke:none" transform="rotate(7.29 916.896 190.924)"><textPath xlink:href="#k" startOffset="50%" style="font-size:6.66667px;fill:#000;fill-opacity:1;stroke:none"><tspan dy="-8.14" style="font-style:normal;font-variant:normal;font-weight:400;font-stretch:normal;font-size:6.66667px;font-family:&quot;Latin Modern Roman&quot;;-inkscape-font-specification:&quot;Latin Modern Roman, &quot;;text-align:center;text-anchor:middle;fill:#000;fill-opacity:1;stroke:none">KÚMA</tspan></textPath></text></g><text xml:space="preserve" x="32.05" y="135.541" style="font-size:4.66667px;line-height:1.25;font-family:&quot;DejaVu Serif&quot;;-inkscape-font-specification:&quot;DejaVu Serif, Normal&quot;;letter-spacing:-.09px;fill:#000;fill-opacity:1;stroke:none"><tspan x="32.05" y="135.541" style="font-style:normal;font-variant:normal;font-weight:700;font-stretch:normal;font-size:4.66667px;font-family:&quot;Latin Modern Roman&quot;;-inkscape-font-specification:&quot;Latin Modern Roman, &quot;;fill:#000;fill-opacity:1;stroke:none">Númen</tspan></text><text xml:space="preserve" x="74.523" y="138.599" style="font-size:4px;line-height:1.25;font-family:&quot;DejaVu Serif&quot;;-inkscape-font-specification:&quot;DejaVu Serif, Normal&quot;;letter-spacing:-.09px;fill:#000;fill-opacity:1;stroke:none"><tspan x="74.523" y="138.599" style="font-style:normal;font-variant:normal;font-weight:700;font-stretch:normal;font-size:4px;font-family:&quot;Latin Modern Roman&quot;;-inkscape-font-specification:&quot;Latin Modern Roman, &quot;;fill:#000;fill-opacity:1;stroke:none">EAR</tspan></text><text xml:space="preserve" x="170.578" y="135.024" style="font-size:4px;line-height:1.25;font-family:&quot;DejaVu Serif&quot;;-inkscape-font-specification:&quot;DejaVu Serif, Normal&quot;;letter-spacing:-.09px;fill:#000;fill-opacity:1;stroke:none"><tspan x="170.578" y="135.024" style="font-style:normal;font-variant:normal;font-weight:700;font-stretch:normal;font-size:4px;font-family:&quot;Latin Modern Roman&quot;;-inkscape-font-specification:&quot;Latin Modern Roman, &quot;;fill:#000;fill-opacity:1;stroke:none">EAR</tspan></text><text xml:space="preserve" x="115.808" y="113.887" style="font-size:4.66667px;line-height:1.25;font-family:&quot;DejaVu Serif&quot;;-inkscape-font-specification:&quot;DejaVu Serif, Normal&quot;;letter-spacing:-.09px;display:inline;fill:#000;fill-opacity:1;stroke:none"><tspan x="115.808" y="113.887" style="font-style:normal;font-variant:normal;font-weight:700;font-stretch:normal;font-size:4.66667px;font-family:&quot;Latin Modern Roman&quot;;-inkscape-font-specification:&quot;Latin Modern Roman, &quot;;fill:#000;fill-opacity:1;stroke:none">Aiwenóre</tspan></text><path id="m" d="M126.546 235.291c-14.29 0-27.904-2.896-40.286-8.133m0 0a103.664 103.664 0 0 1-32.898-22.18 103.664 103.664 0 0 1-22.18-32.898c-5.238-12.383-8.134-25.996-8.134-40.286 0-14.29 2.896-27.904 8.134-40.286a103.664 103.664 0 0 1 22.18-32.898A103.664 103.664 0 0 1 86.26 36.43c12.382-5.238 25.996-8.134 40.286-8.134 14.29 0 27.904 2.896 40.286 8.133a103.664 103.664 0 0 1 32.898 22.18 103.664 103.664 0 0 1 22.18 32.899c5.238 12.382 8.134 25.996 8.134 40.286 0 14.29-2.896 27.903-8.134 40.286a103.663 103.663 0 0 1-22.18 32.897 103.663 103.663 0 0 1-32.898 22.18c-12.382 5.238-25.996 8.134-40.286 8.134" style="display:inline;fill:none;fill-rule:evenodd;stroke:#000;stroke-width:.5;stroke-linejoin:round;stroke-opacity:1;paint-order:markers fill stroke"/><path id="o" d="M126.543 208.176c-45.998-.001-85.981-31.609-96.522-76.383 10.54-44.774 50.524-76.382 96.522-76.383 45.998 0 85.985 31.61 96.527 76.383-10.542 44.774-50.529 76.384-96.527 76.383z" style="fill:none;fill-rule:evenodd;stroke:#000;stroke-width:.5;stroke-linejoin:round;stroke-miterlimit:4;stroke-dasharray:none;stroke-opacity:1;paint-order:markers fill stroke"/><path d="M30.021 131.793c10.54 44.774 50.524 76.382 96.522 76.383 45.998 0 85.985-31.61 96.527-76.383" style="fill:none;fill-rule:evenodd;stroke:#000;stroke-width:.5;stroke-linejoin:round;stroke-miterlimit:4;stroke-dasharray:none;stroke-opacity:1;paint-order:markers fill stroke"/><path d="M194.682-131.25a68.138 68.138 0 0 1-34.845 58.908 68.138 68.138 0 0 1-68.433-1.075 68.138 68.138 0 0 1-32.977-59.973" style="display:inline;opacity:1;fill:none;fill-rule:evenodd;stroke:#000;stroke-width:.5;stroke-linejoin:round;stroke-miterlimit:4;stroke-dasharray:none;stroke-dashoffset:0;stroke-opacity:1;paint-order:markers fill stroke" transform="scale(1 -1)"/><path d="M36.82 144.232c14.366-2.71 19-10.863 21.667-10.863 2.667 0 8.548 7.761 21.385 8.008 12.836.247 30.018-16.278 53.168-16.104 23.15.174 29.238 12.51 44.407 12.51 15.169 0 14.7-6.753 18.827-7.013 4.127-.26 17.783 4.074 24.615 2.935-.015.072-1.301 1.035-1.942 1.535-2.064 1.609-3.062 4.844-2.39 5.637-2.221.936-6.483 3.85-4.536 8.813-4.229 1.664-7.03 4.711-6.055 11.413-6.962 1.207-8.865 5.756-8.926 11.523-6.032.949-11.131 3.245-12.124 11.473-5.083-.186-10.163-.363-13.173 9.02-4.974-1.462-9.83-2.035-13.579 5.663-5.637-2.05-9.783-.372-12.808 4.109-2.788-1.562-5.331-3.551-12.035 1.71-1.03-1.448-5.926-5.988-12.275.498-2.477-3.916-6.05-5.898-12.975-1.973-2.13-4.244-5.752-6.054-12.363-2.992-2.04-4.475-5.253-7.444-12.546-5.178-.706-5.625-3.002-9.835-12.35-7.778.254-4.882-2.39-9.35-10.079-7.852 1.577-3.77-.164-10.474-8.746-9.708 1.584-5.634-.703-9.683-8.616-11.429 2.006-4.33.829-11.558-4.157-12.916-1.126-.307-2.394-1.04-2.394-1.04z" style="fill:none;stroke:#000;stroke-width:.5;stroke-linecap:butt;stroke-linejoin:miter;stroke-miterlimit:4;stroke-dasharray:none;stroke-opacity:1"/><path id="n" d="M39.214 145.273c14.366-2.71 16.633-10.013 19.3-10.013 2.666 0 8.547 7.762 21.384 8.008 12.837.247 30.018-16.278 53.168-16.104 23.15.174 29.13 12.117 44.299 12.117s14.995-6.364 19.32-6.773c4.325-.41 13.485 2.896 22.262 2.732" style="fill:none;stroke:#000;stroke-width:.5;stroke-linecap:butt;stroke-linejoin:miter;stroke-miterlimit:4;stroke-dasharray:none;stroke-opacity:1"/><text xml:space="preserve" style="font-size:12px;line-height:1.25;font-family:&quot;DejaVu Serif&quot;;-inkscape-font-specification:&quot;DejaVu Serif, Normal&quot;;letter-spacing:11.44px;display:inline;fill:#000;fill-opacity:1;stroke:none;stroke-width:.5;stroke-miterlimit:4;stroke-dasharray:none;stroke-opacity:1" transform="translate(-1.31)"><textPath xlink:href="#l" startOffset="50%"><tspan style="text-align:center;text-anchor:middle"> VISTA</tspan></textPath></text><path d="M59.987 133.881h41.494M157.035 131.003h38.225M129.982 127.455c-.492 24.818-.417 50.105-1.705 74.263M120.843 128.538c-.488 28.575.073 61.224-4.841 72.594M43.937 150.786c10.49-2.162 17.536-6.075 22.41-11.092M51.24 162.484c9.95-6.027 16.057-13.088 19.223-20.94M59.445 171.843c6.346-5.268 12.218-12.43 15.731-29.025M69.512 181.775c5.88-6.485 10.571-17.129 12.175-38.573M79.908 187.987c4.842-9.281 7.312-25.453 8.179-46.285M90.855 194.772c4.471-15.476 6.9-33.32 4.9-56.301M103.515 198.864c4.454-14.436 5.554-37.405 3.742-65.696M137.63 127.361l3.163 73.738M152.773 197.929c-3.796-22.504-5.382-45.958-7.03-69.385M164.676 192.477c-11.625-17.897-12.187-39.61-11.9-61.613M178.869 184.502c-16.241-24.222-19.94-38.897-20.418-51.123M165.828 136.795c4.031 18.155 11.148 31.792 21.81 40.239M199.117 164.697c-13.51-6.26-21.432-15.262-26.272-25.776M183.306 138.84c6.871 7.732 13.54 14.502 23.205 15.65M192.052 135.233c5.278 3.805 11.73 6.863 20.93 8.175M121.01 94.313l-9.164.07s-12.85.031-17.913-.154c-5.064-.185-2.672-6.677 1.921-4.236-3.205-4.31-.055-8.889 5.296-9.297 5.351-.407 10.801 5.62 10.696 13.687M154.829 95.148l-4.252.06s-16.454-.41-19.322-.41c-2.867 0-1.934-3.594-.68-4.566 1.252-.973 3.322-.417 4.623.295-.765-1.12-2.277-3.195.274-5.756 2.552-2.56 16.223-1.244 15.105 10.437" style="fill:none;stroke:#000;stroke-width:.5;stroke-linecap:butt;stroke-linejoin:miter;stroke-miterlimit:4;stroke-dasharray:none;stroke-opacity:1"/><text xml:space="preserve" x="115.367" y="78.565" style="font-size:4.66667px;line-height:1.25;font-family:&quot;DejaVu Serif&quot;;-inkscape-font-specification:&quot;DejaVu Serif, Normal&quot;;letter-spacing:-.09px;fill:#000;fill-opacity:1;stroke:none"><tspan x="115.367" y="78.565" style="font-style:normal;font-variant:normal;font-weight:700;font-stretch:normal;font-size:4.66667px;font-family:&quot;Latin Modern Roman&quot;;-inkscape-font-specification:&quot;Latin Modern Roman, &quot;;fill:#000;fill-opacity:1;stroke:none">Fanyamar</tspan></text><text xml:space="preserve" x="176.55" y="260.891" style="font-size:4.66667px;line-height:1.25;font-family:&quot;DejaVu Serif&quot;;-inkscape-font-specification:&quot;DejaVu Serif, Normal&quot;;letter-spacing:-.09px;fill:#000;fill-opacity:1;stroke:none"><tspan x="176.55" y="260.891" style="font-style:normal;font-variant:normal;font-weight:700;font-stretch:normal;font-size:4.66667px;font-family:&quot;Latin Modern Roman&quot;;-inkscape-font-specification:&quot;Latin Modern Roman, &quot;;fill:#000;fill-opacity:1;stroke:none">Alter story of Sun</tspan></text><text xml:space="preserve" x="22.546" y="273.945" style="font-size:4.66667px;line-height:1.25;font-family:&quot;DejaVu Serif&quot;;-inkscape-font-specification:&quot;DejaVu Serif, Normal&quot;;letter-spacing:-.09px;fill:#000;fill-opacity:1;stroke:none"><tspan x="22.546" y="273.945" style="font-style:normal;font-variant:normal;font-weight:700;font-stretch:normal;font-size:4.66667px;font-family:&quot;Latin Modern Roman&quot;;-inkscape-font-specification:&quot;Latin Modern Roman, &quot;;fill:#000;fill-opacity:1;stroke:none">Make world always a globe</tspan><tspan x="22.546" y="279.994" style="font-style:normal;font-variant:normal;font-weight:700;font-stretch:normal;font-size:4.66667px;font-family:&quot;Latin Modern Roman&quot;;-inkscape-font-specification:&quot;Latin Modern Roman, &quot;;fill:#000;fill-opacity:1;stroke:none">but larger than now.</tspan><tspan x="22.546" y="286.043" style="font-style:normal;font-variant:normal;font-weight:700;font-stretch:normal;font-size:4.66667px;font-family:&quot;Latin Modern Roman&quot;;-inkscape-font-specification:&quot;Latin Modern Roman, &quot;;fill:#000;fill-opacity:1;stroke:none">Mountains of East and West</tspan><tspan x="22.546" y="292.092" style="font-style:normal;font-variant:normal;font-weight:700;font-stretch:normal;font-size:4.66667px;font-family:&quot;Latin Modern Roman&quot;;-inkscape-font-specification:&quot;Latin Modern Roman, &quot;;fill:#000;fill-opacity:1;stroke:none">prevent anyone from going to</tspan><tspan x="22.546" y="298.141" style="font-style:normal;font-variant:normal;font-weight:700;font-stretch:normal;font-size:4.66667px;font-family:&quot;Latin Modern Roman&quot;;-inkscape-font-specification:&quot;Latin Modern Roman, &quot;;fill:#000;fill-opacity:1;stroke:none">Hidden Half.</tspan></text><text xml:space="preserve" x="127.102" y="27.489" style="font-size:8px;line-height:1.25;font-family:&quot;DejaVu Serif&quot;;-inkscape-font-specification:&quot;DejaVu Serif, Normal&quot;;fill:#000;fill-opacity:1;stroke:none"><tspan dy="-8.66" style="font-style:normal;font-variant:normal;font-weight:400;font-stretch:normal;font-size:8px;font-family:&quot;Latin Modern Roman&quot;;-inkscape-font-specification:&quot;Latin Modern Roman, &quot;;text-align:center;text-anchor:middle;fill:#000;fill-opacity:1;stroke:none">AVA-KÚMA</tspan></text><text xml:space="preserve" style="font-size:10.6667px;line-height:1.25;font-family:&quot;DejaVu Serif&quot;;-inkscape-font-specification:&quot;DejaVu Serif, Normal&quot;;letter-spacing:4px;fill:#000;fill-opacity:1;stroke:none"><textPath xlink:href="#m" startOffset="50%"><tspan dy="17.68" style="font-style:normal;font-variant:normal;font-weight:400;font-stretch:normal;font-size:10.6667px;font-family:&quot;Latin Modern Roman&quot;;-inkscape-font-specification:&quot;Latin Modern Roman, &quot;;text-align:center;text-anchor:middle;fill:#000;fill-opacity:1;stroke:none">VAIYA</tspan></textPath></text><path d="M33.956 136.289h12.993" style="fill:none;stroke:#000;stroke-width:.5;stroke-linecap:butt;stroke-linejoin:miter;stroke-miterlimit:4;stroke-dasharray:none;stroke-opacity:1"/><text xml:space="preserve" x="202.763" y="129.873" style="font-size:4.66667px;line-height:1.25;font-family:&quot;DejaVu Serif&quot;;-inkscape-font-specification:&quot;DejaVu Serif, Normal&quot;;letter-spacing:-.09px;fill:#000;fill-opacity:1;stroke:none"><tspan x="202.763" y="129.873" style="font-style:normal;font-variant:normal;font-weight:700;font-stretch:normal;font-size:4.66667px;font-family:&quot;Latin Modern Roman&quot;;-inkscape-font-specification:&quot;Latin Modern Roman, &quot;;fill:#000;fill-opacity:1;stroke:none">Rómen</tspan></text><path d="M204.433 130.62h12.993M111.615 310.133h12.993M154.121 309.998h12.993" style="fill:none;stroke:#000;stroke-width:.5;stroke-linecap:butt;stroke-linejoin:miter;stroke-miterlimit:4;stroke-dasharray:none;stroke-opacity:1"/><text xml:space="preserve" style="font-size:4.66667px;line-height:1.25;font-family:&quot;DejaVu Serif&quot;;-inkscape-font-specification:&quot;DejaVu Serif, Normal&quot;;fill:#000;fill-opacity:1;stroke:none"><textPath xlink:href="#n" startOffset="50%"><tspan dy="-2.99" style="text-align:center;text-anchor:middle">     PEL-                  MAR</tspan></textPath></text><text xml:space="preserve" x="3.331" y="143.445" style="font-size:4.66667px;line-height:1.25;font-family:&quot;DejaVu Serif&quot;;-inkscape-font-specification:&quot;DejaVu Serif, Normal&quot;;fill:#000;fill-opacity:1;stroke:none"><tspan x="3.331" y="143.445" style="font-style:normal;font-variant:normal;font-weight:400;font-stretch:normal;font-size:4.66667px;font-family:&quot;Latin Modern Roman&quot;;-inkscape-font-specification:&quot;Latin Modern Roman, &quot;;fill:#000;fill-opacity:1;stroke:none">Ando</tspan><tspan x="3.331" y="149.494" style="font-style:normal;font-variant:normal;font-weight:400;font-stretch:normal;font-size:4.66667px;font-family:&quot;Latin Modern Roman&quot;;-inkscape-font-specification:&quot;Latin Modern Roman, &quot;;fill:#000;fill-opacity:1;stroke:none">Lómen</tspan></text><text xml:space="preserve" style="font-size:8px;line-height:1.25;font-family:&quot;DejaVu Serif&quot;;-inkscape-font-specification:&quot;DejaVu Serif, Normal&quot;;text-align:start;letter-spacing:2.5px;text-anchor:start;fill:#000;fill-opacity:1;stroke:none"><textPath xlink:href="#b"><tspan style="fill:#000;fill-opacity:1;stroke:none"><tspan dy="-1" style="font-style:normal;font-variant:normal;font-weight:400;font-stretch:normal;font-size:8px;font-family:&quot;Latin Modern Roman&quot;;-inkscape-font-specification:&quot;Latin Modern Roman, &quot;;text-align:start;text-anchor:start;fill:#000;fill-opacity:1;stroke:none">     ILMEN</tspan></tspan><tspan style="fill:#000;fill-opacity:1;stroke:none"/></textPath></text><text xml:space="preserve" x="126.59" y="280.927" style="font-size:14.6667px;line-height:1.05;font-family:&quot;DejaVu Serif&quot;;-inkscape-font-specification:&quot;DejaVu Serif, Normal&quot;;fill:#000;fill-opacity:1;stroke:none;stroke-width:.5;stroke-miterlimit:4;stroke-dasharray:none"><tspan x="126.59" y="280.927" style="font-style:normal;font-variant:normal;font-weight:400;font-stretch:normal;font-size:8px;font-family:&quot;Latin Modern Roman&quot;;-inkscape-font-specification:&quot;Latin Modern Roman, &quot;;text-align:center;text-anchor:middle;fill:#000;fill-opacity:1;stroke:none;stroke-width:.5;stroke-miterlimit:4;stroke-dasharray:none;stroke-opacity:1">Arda</tspan><tspan x="128.84" y="297.006" style="font-style:normal;font-variant:normal;font-weight:400;font-stretch:normal;font-size:14.6667px;font-family:&quot;Latin Modern Roman&quot;;-inkscape-font-specification:&quot;Latin Modern Roman, &quot;;text-align:center;letter-spacing:4.5px;text-anchor:middle;fill:#000;fill-opacity:1;stroke:none;stroke-width:.5;stroke-miterlimit:4;stroke-dasharray:none;stroke-opacity:1">ILU</tspan></text><text xml:space="preserve" style="font-size:4.66667px;line-height:1.25;font-family:&quot;DejaVu Serif&quot;;-inkscape-font-specification:&quot;DejaVu Serif, Normal&quot;;letter-spacing:1.14px;fill:#000;fill-opacity:1;stroke:none"><textPath xlink:href="#o" startOffset="50%"><tspan style="text-align:center;text-anchor:middle"><tspan dy="-1" style="font-style:normal;font-variant:normal;font-weight:400;font-stretch:normal;font-size:4.66667px;font-family:&quot;Latin Modern Roman&quot;;-inkscape-font-specification:&quot;Latin Modern Roman, &quot;;text-align:center;text-anchor:middle;fill:#000;fill-opacity:1;stroke:none">Elenarda o</tspan></tspan><tspan style="font-style:normal;font-variant:normal;font-weight:400;font-stretch:normal;font-size:4.66667px;font-family:&quot;Latin Modern Roman&quot;;-inkscape-font-specification:&quot;Latin Modern Roman, &quot;;text-align:center;text-anchor:middle;fill:#000;fill-opacity:1;stroke:none">r</tspan></textPath></text><text xml:space="preserve" x="123.051" y="122.019" style="font-size:9.33333px;line-height:1.25;font-family:&quot;DejaVu Serif&quot;;-inkscape-font-specification:&quot;DejaVu Serif, Normal&quot;;fill:#000;fill-opacity:1;stroke:none"><tspan x="123.051" y="122.019" style="font-style:normal;font-variant:normal;font-weight:400;font-stretch:normal;font-size:9.33333px;font-family:&quot;Latin Modern Roman&quot;;-inkscape-font-specification:&quot;Latin Modern Roman, &quot;;fill:#000;fill-opacity:1;stroke:none">A</tspan></text><text xml:space="preserve" x="126.717" y="309.174" style="font-size:5.33333px;line-height:1.25;font-family:&quot;DejaVu Serif&quot;;-inkscape-font-specification:&quot;DejaVu Serif, Normal&quot;;fill:#000;fill-opacity:1;stroke:none"><tspan x="126.717" y="309.174" style="font-style:normal;font-variant:normal;font-weight:400;font-stretch:normal;font-size:5.33333px;font-family:&quot;Latin Modern Roman&quot;;-inkscape-font-specification:&quot;Latin Modern Roman, &quot;;text-align:center;text-anchor:middle;fill:#000;fill-opacity:1;stroke:none">The World: from Númen (West) to Rómen (East)</tspan></text><path d="M23.674 144.66c-3.356.039-4.81-1.545-2.918-3.494M23.955 146.156c-3.218.09-5.459 2.206-2.554 2.828" style="fill:none;stroke:#000;stroke-width:.5;stroke-linecap:butt;stroke-linejoin:miter;stroke-miterlimit:4;stroke-dasharray:none;stroke-opacity:1"/><text xml:space="preserve" x="12.345" style="font-size:5.33333px;line-height:1.25;font-family:&quot;DejaVu Serif&quot;;-inkscape-font-specification:&quot;DejaVu Serif, Normal&quot;;letter-spacing:2.5px;fill:#000;fill-opacity:1;stroke:#fff;stroke-width:.1;stroke-miterlimit:4;stroke-dasharray:none;stroke-opacity:1" transform="translate(-.016)"><textPath xlink:href="#p" startOffset="50%" style="font-style:normal;font-variant:normal;font-weight:400;font-stretch:normal;font-size:5.33333px;font-family:&quot;Latin Modern Roman&quot;;-inkscape-font-specification:&quot;Latin Modern Roman, &quot;;text-align:center;text-anchor:middle;fill:#000;fill-opacity:1;stroke:#fff;stroke-width:.1;stroke-miterlimit:4;stroke-dasharray:none;stroke-opacity:1">MARTALMAR</textPath></text><text xml:space="preserve" x="115.59" y="137.289" style="font-size:4.66667px;line-height:1.25;font-family:&quot;DejaVu Serif&quot;;-inkscape-font-specification:&quot;DejaVu Serif, Normal&quot;;letter-spacing:-.09px;fill:#000;fill-opacity:1;stroke:#fff;stroke-width:.1;stroke-miterlimit:4;stroke-dasharray:none;stroke-opacity:1"><tspan x="115.59" y="137.289" style="font-style:normal;font-variant:normal;font-weight:700;font-stretch:normal;font-size:4.66667px;font-family:&quot;Latin Modern Roman&quot;;-inkscape-font-specification:&quot;Latin Modern Roman, &quot;;fill:#000;fill-opacity:1;stroke:#fff;stroke-width:.1;stroke-miterlimit:4;stroke-dasharray:none;stroke-opacity:1">Anubarendya</tspan></text><path d="M98.366 102.822c1.197.39 1.938 1.512 2.222 2.303.284.79.475 1.106.478 1.792.002.686.589.301 1.063.056.475-.246.516-.32 1.48-.637.965-.317 2.474.112 2.989.696.514.584 1.085.453.87-.107-.214-.56-.386-.642-.908-.964-.522-.322-1.327-.443-1.97-.35-.643.093-1.16.332-1.542.347.038-.445-.603-1.117-1.424-.532-.62-1.51-1.8-3.023-2.619-3.188-.819-.164-1.836.194-.64.584z" style="opacity:1;fill:#000;fill-opacity:1;stroke:none;stroke-width:0;stroke-linecap:butt;stroke-linejoin:miter;stroke-miterlimit:4;stroke-dasharray:none;stroke-opacity:1"/><path d="M153.412 103.788c.322-.277 1.192.433 1.506.946.314.514.506 1.204.414 1.583.347-.087.776.127.858.537.443-.218.943-.414 1.883-.387.94.028 2.26.336 2 1.134-.259.798-1.128-.421-2.063-.407-.935.013-1.215-.067-1.796.2-.58.268-1.452 1.445-1.72 1.3-.268-.145-.037-1.04.02-1.57.058-.53.316-.996-.105-1.732s-1.32-1.327-.997-1.604z" style="opacity:1;fill:#000;fill-opacity:1;stroke:none;stroke-width:1px;stroke-linecap:butt;stroke-linejoin:miter;stroke-opacity:1"/><text xml:space="preserve" style="font-size:14.6667px;line-height:1.25;font-family:&quot;DejaVu Serif&quot;;-inkscape-font-specification:&quot;DejaVu Serif, Normal&quot;;letter-spacing:21px;display:inline;stroke-width:.1;stroke-miterlimit:4;stroke-dasharray:none"><textPath xlink:href="#q" startOffset="50%" style="font-style:normal;font-variant:normal;font-weight:700;font-stretch:normal;font-size:14.6667px;font-family:&quot;Latin Modern Roman&quot;;-inkscape-font-specification:&quot;Latin Modern Roman, Bold&quot;;text-align:center;text-anchor:middle;stroke:#fff;stroke-width:.1;stroke-miterlimit:4;stroke-dasharray:none;stroke-opacity:1"> AMBAR</textPath></text></g></svg>