<svg xmlns="http://www.w3.org/2000/svg" xmlns:xlink="http://www.w3.org/1999/xlink" viewBox="0 0 234.14 298.95"><defs><filter id="a" width="1" height="1" x="0" y="0" style="color-interpolation-filters:sRGB"><feColorMatrix values="9.43051 0 0 -2.38302 -4.21525 0 9.43051 0 -2.38302 -4.21525 0 0 9.43051 -2.38302 -4.21525 0 0 0 1 0"/></filter></defs><g transform="translate(-3.48 -11.557)"><text xml:space="preserve" x="129.287" y="124.098" style="fill:#000;font-family:&quot;DejaVu Serif&quot;;font-size:4px;letter-spacing:-.09px;line-height:1.25"><tspan x="129.287" y="124.098" style="fill:#000;font-family:&quot;Latin Modern Roman&quot;;font-size:4px;font-weight:700">Endor</tspan></text><text xml:space="preserve" style="fill:#000;font-family:&quot;DejaVu Serif&quot;;font-size:4.6667px;letter-spacing:1.14px;line-height:1.25"><textPath xlink:href="#b" startOffset="50%"><tspan><tspan style="fill:#000;font-family:&quot;Latin Modern Roman&quot;;font-size:4.6667px;text-align:center;text-anchor:middle">Tinwe-    </tspan></tspan><tspan><tspan style="fill:#000;font-family:&quot;Latin Modern Roman&quot;;font-size:4.6667px;text-align:center;text-anchor:middle">malle </tspan></tspan></textPath></text><text xml:space="preserve" style="fill:#000;font-family:&quot;DejaVu Serif&quot;;font-size:8px;letter-spacing:2.5px;line-height:1.25"><textPath xlink:href="#b" startOffset="100%"><tspan style="fill:#000;font-family:&quot;Latin Modern Roman&quot;;font-size:8px;text-align:end;text-anchor:end">ILMEN       </tspan></textPath></text><text xml:space="preserve" style="fill:#000;font-family:&quot;DejaVu Serif&quot;;font-size:8px;line-height:1.25" transform="translate(-.016 -101.15)"><textPath xlink:href="#c" startOffset="50%"><tspan dy="13.9" style="fill:#000;font-family:&quot;Latin Modern Roman&quot;;font-size:8px;text-align:center;text-anchor:middle">AVA-KÚMA</tspan></textPath></text><text xml:space="preserve" x="12.345" style="fill:#000;font-family:&quot;DejaVu Serif&quot;;font-size:10.667px;letter-spacing:4px;line-height:1.25" transform="translate(.54 -101.96)"><textPath xlink:href="#d" startOffset="50%" style="fill:#000;font-family:&quot;Latin Modern Roman&quot;;font-size:10.667px;text-align:center;text-anchor:middle">VAIYA</textPath></text><g style="fill:none;stroke:#000" transform="matrix(.78412 0 0 .7684 40.145 -82.477)"><circle cx="151.66" cy="194.22" r=".762" style="fill:none;paint-order:markers fill stroke;stroke-linejoin:round;stroke-width:.47619;stroke:#000"/><path d="M151.66 191.63v1.689M154.22 194.22h-1.689M151.66 195.15v1.689M150.81 194.22h-1.689" style="fill:none;stroke-width:.5;stroke:#000"/></g><g style="fill:none;stroke:#000" transform="matrix(.78412 0 0 .7684 8.148 -89.371)"><circle cx="151.66" cy="194.22" r=".762" style="fill:none;paint-order:markers fill stroke;stroke-linejoin:round;stroke-width:.47619;stroke:#000"/><path d="M151.66 191.63v1.689M154.22 194.22h-1.689M151.66 195.15v1.689M150.81 194.22h-1.689" style="fill:none;stroke-width:.5;stroke:#000"/></g><g style="fill:none;stroke:#000" transform="matrix(.78412 0 0 .7684 -31.371 -80.268)"><circle cx="151.66" cy="194.22" r=".762" style="fill:none;paint-order:markers fill stroke;stroke-linejoin:round;stroke-width:.47619;stroke:#000"/><path d="M151.66 191.63v1.689M154.22 194.22h-1.689M151.66 195.15v1.689M150.81 194.22h-1.689" style="fill:none;stroke-width:.5;stroke:#000"/></g><g style="fill:none;stroke:#000" transform="matrix(.78412 0 0 .7684 -65.877 -30.063)"><circle cx="151.66" cy="194.22" r=".762" style="fill:none;paint-order:markers fill stroke;stroke-linejoin:round;stroke-width:.47619;stroke:#000"/><path d="M151.66 191.63v1.689M154.22 194.22h-1.689M151.66 195.15v1.689M150.81 194.22h-1.689" style="fill:none;stroke-width:.5;stroke:#000"/></g><g style="fill:none;stroke:#000" transform="matrix(.78412 0 0 .7684 87.004 -34.643)"><circle cx="151.66" cy="194.22" r=".762" style="fill:none;paint-order:markers fill stroke;stroke-linejoin:round;stroke-width:.47619;stroke:#000"/><path d="M151.66 191.63v1.689M154.22 194.22h-1.689M151.66 195.15v1.689M150.81 194.22h-1.689" style="fill:none;stroke-width:.5;stroke:#000"/></g><text xml:space="preserve" style="fill:#000;font-family:&quot;DejaVu Serif&quot;;font-size:6.6667px;line-height:1.25" transform="rotate(-52.999 25.046 182.836)"><textPath xlink:href="#e" startOffset="50%" style="fill:#000;font-size:6.6667px"><tspan dy="12.96" style="fill:#000;font-family:&quot;Latin Modern Roman&quot;;font-size:6.6667px;text-align:center;text-anchor:middle">KÚMA</tspan></textPath></text><text xml:space="preserve" style="fill:#000;font-family:&quot;DejaVu Serif&quot;;font-size:6.6667px;line-height:1.25" transform="rotate(52.492 230.618 181.934)"><textPath xlink:href="#f" startOffset="50%" style="fill:#000;font-size:6.6667px"><tspan dy="12.96" style="fill:#000;font-family:&quot;Latin Modern Roman&quot;;font-size:6.6667px;text-align:center;text-anchor:middle">KÚMA</tspan></textPath></text><text xml:space="preserve" style="fill:#000;font-family:&quot;DejaVu Serif&quot;;font-size:6.6667px;line-height:1.25" transform="rotate(141.29 144.158 182.457)"><textPath xlink:href="#g" startOffset="50%" style="fill:#000;font-size:6.6667px"><tspan dy="-8.14" style="fill:#000;font-family:&quot;Latin Modern Roman&quot;;font-size:6.6667px;text-align:center;text-anchor:middle">KÚMA</tspan></textPath></text><text xml:space="preserve" style="fill:#000;font-family:&quot;DejaVu Serif&quot;;font-size:5.3333px;line-height:1.25" transform="rotate(165.2 132.568 182.569)"><textPath xlink:href="#h" startOffset="50%" style="fill:#000;font-family:&quot;Latin Modern Roman&quot;;font-size:5.3333px">Ilurambar</textPath></text><text xml:space="preserve" style="fill:#000;font-family:&quot;DejaVu Serif&quot;;font-size:5.3333px;line-height:1.25" transform="rotate(28.732 325.528 182.55)"><textPath xlink:href="#i" startOffset="50%" style="fill:#000;font-family:&quot;Latin Modern Roman&quot;;font-size:5.3333px">Ilurambar</textPath></text><text xml:space="preserve" style="fill:#000;font-family:&quot;DejaVu Serif&quot;;font-size:5.3333px;line-height:1.25" transform="rotate(29.194 443.778 52.376)"><textPath xlink:href="#j" startOffset="50%" style="fill:#000;font-family:&quot;Latin Modern Roman&quot;;font-size:5.3333px">Ea</textPath></text><text xml:space="preserve" style="fill:#000;font-family:&quot;DejaVu Serif&quot;;font-size:6.6667px;line-height:1.25" transform="rotate(7.29 916.898 190.928)"><textPath xlink:href="#k" startOffset="50%" style="fill:#000;font-size:6.6667px"><tspan dy="-8.14" style="fill:#000;font-family:&quot;Latin Modern Roman&quot;;font-size:6.6667px;text-align:center;text-anchor:middle">KÚMA</tspan></textPath></text><text xml:space="preserve" x="32.05" y="135.541" style="fill:#000;font-family:&quot;DejaVu Serif&quot;;font-size:4.6667px;letter-spacing:-.09px;line-height:1.25"><tspan x="32.05" y="135.541" style="fill:#000;font-family:&quot;Latin Modern Roman&quot;;font-size:4.6667px;font-weight:700">Númen</tspan></text><text xml:space="preserve" x="74.523" y="138.599" style="fill:#000;font-family:&quot;DejaVu Serif&quot;;font-size:4px;letter-spacing:-.09px;line-height:1.25"><tspan x="74.523" y="138.599" style="fill:#000;font-family:&quot;Latin Modern Roman&quot;;font-size:4px;font-weight:700">EAR</tspan></text><text xml:space="preserve" x="170.578" y="135.024" style="fill:#000;font-family:&quot;DejaVu Serif&quot;;font-size:4px;letter-spacing:-.09px;line-height:1.25"><tspan x="170.578" y="135.024" style="fill:#000;font-family:&quot;Latin Modern Roman&quot;;font-size:4px;font-weight:700">EAR</tspan></text><text xml:space="preserve" x="115.808" y="113.887" style="fill:#000;font-family:&quot;DejaVu Serif&quot;;font-size:4.6667px;letter-spacing:-.09px;line-height:1.25"><tspan x="115.808" y="113.887" style="fill:#000;font-family:&quot;Latin Modern Roman&quot;;font-size:4.6667px;font-weight:700">Aiwenóre</tspan></text><path id="m" d="M126.55 235.29c-14.29 0-27.904-2.896-40.286-8.133-12.382-5.238-23.533-12.816-32.898-22.18s-16.943-20.516-22.18-32.898-8.133-25.996-8.133-40.286c0-14.29 2.896-27.904 8.133-40.286s12.816-23.533 22.18-32.898c9.365-9.365 20.516-16.943 32.898-22.18s25.996-8.134 40.286-8.134 27.904 2.896 40.286 8.134 23.533 12.816 32.898 22.18a103.662 103.662 0 0 1 22.18 32.898c5.237 12.382 8.133 25.996 8.133 40.286 0 14.29-2.896 27.904-8.133 40.286a103.681 103.681 0 0 1-22.18 32.898 103.662 103.662 0 0 1-32.898 22.18c-12.382 5.237-25.996 8.133-40.286 8.133" style="fill:none;paint-order:markers fill stroke;stroke-linejoin:round;stroke-width:.5;stroke:#000"/><path id="o" d="M126.54 208.18c-45.998-.001-85.981-31.609-96.521-76.383 10.54-44.774 50.523-76.382 96.521-76.383 45.998-.001 85.985 31.609 96.527 76.383-10.543 44.774-50.529 76.384-96.527 76.383z" style="fill:none;paint-order:markers fill stroke;stroke-linejoin:round;stroke-width:.5;stroke:#000"/><path d="M30.021 131.79c10.54 44.774 50.523 76.382 96.521 76.383 45.998.001 85.985-31.609 96.527-76.383" style="fill:none;paint-order:markers fill stroke;stroke-linejoin:round;stroke-width:.5;stroke:#000"/><path d="M194.68-131.25a68.138 68.138 0 0 1-34.845 58.908 68.138 68.138 0 0 1-68.433-1.075 68.138 68.138 0 0 1-32.978-59.973" style="fill:none;paint-order:markers fill stroke;stroke-linejoin:round;stroke-width:.5;stroke:#000" transform="scale(1 -1)"/><path d="M36.82 144.23c14.366-2.71 19.001-10.863 21.668-10.863s8.548 7.761 21.385 8.008c12.837.247 30.018-16.278 53.168-16.104s29.239 12.511 44.407 12.511c15.169 0 14.699-6.753 18.826-7.014 4.127-.26 17.784 4.074 24.616 2.935-.015.072-1.301 1.035-1.942 1.535-2.064 1.609-3.063 4.845-2.39 5.637-2.222.936-6.484 3.85-4.536 8.813-4.23 1.665-7.03 4.712-6.056 11.413-6.962 1.207-8.865 5.756-8.925 11.523-6.033.948-11.131 3.245-12.124 11.473-5.083-.186-10.163-.363-13.173 9.02-4.974-1.462-9.83-2.035-13.578 5.663-5.638-2.05-9.784-.372-12.808 4.109-2.789-1.562-5.332-3.551-12.035 1.71-1.03-1.448-5.927-5.988-12.275.498-2.478-3.916-6.052-5.898-12.975-1.973-2.13-4.244-5.752-6.054-12.363-2.992-2.04-4.475-5.254-7.445-12.547-5.178-.705-5.625-3.002-9.835-12.35-7.778.254-4.882-2.39-9.35-10.078-7.852 1.576-3.77-.164-10.474-8.747-9.708 1.584-5.634-.703-9.684-8.616-11.43 2.006-4.33.829-11.557-4.157-12.915-1.125-.307-2.394-1.041-2.394-1.041z" style="fill:none;stroke-width:.5;stroke:#000"/><path id="n" d="M39.214 145.27c14.366-2.71 16.633-10.013 19.3-10.013s8.548 7.761 21.385 8.008c12.837.247 30.018-16.278 53.168-16.104s29.13 12.117 44.299 12.117 14.995-6.364 19.32-6.773c4.325-.41 13.485 2.896 22.262 2.732" style="fill:none;stroke-width:.5;stroke:#000"/><text xml:space="preserve" style="fill:#000;font-family:&quot;DejaVu Serif&quot;;font-size:12px;letter-spacing:11.44px;line-height:1.25;stroke-width:.5" transform="translate(-1.31)"><textPath xlink:href="#l" startOffset="50%"><tspan style="text-align:center;text-anchor:middle"> VISTA</tspan></textPath></text><path d="M59.987 133.88h41.494M157.03 131h38.226M129.98 127.45c-.491 24.818-.417 50.106-1.705 74.264M120.84 128.54c-.488 28.575.073 61.224-4.841 72.594M43.937 150.79c10.49-2.162 17.536-6.075 22.411-11.091M51.239 162.48c9.951-6.027 16.058-13.088 19.224-20.941M59.445 171.84c6.346-5.267 12.218-12.431 15.732-29.025M69.512 181.77c5.88-6.485 10.571-17.128 12.175-38.573M79.908 187.99c4.841-9.282 7.312-25.453 8.178-46.286M90.855 194.77c4.472-15.476 6.901-33.32 4.9-56.301M103.52 198.86c4.454-14.436 5.554-37.404 3.742-65.696M137.63 127.36l3.163 73.738M152.77 197.93c-3.796-22.504-5.382-45.958-7.03-69.385M164.68 192.48c-11.624-17.898-12.186-39.609-11.9-61.613M178.87 184.5c-16.241-24.221-19.939-38.897-20.418-51.122M165.83 136.8c4.032 18.155 11.148 31.792 21.81 40.239M199.12 164.7c-13.51-6.26-21.432-15.262-26.272-25.776M183.31 138.84c6.872 7.732 13.541 14.503 23.205 15.649M192.05 135.23c5.278 3.805 11.73 6.863 20.93 8.175M121.01 94.313l-9.164.07s-12.849.03-17.913-.154c-5.064-.185-2.671-6.677 1.922-4.236-3.206-4.31-.056-8.889 5.295-9.297 5.352-.407 10.801 5.62 10.696 13.686M154.83 95.148l-4.251.06s-16.455-.41-19.322-.41-1.934-3.594-.682-4.567c1.253-.973 3.323-.416 4.624.296-.764-1.12-2.277-3.196.274-5.756s16.223-1.244 15.105 10.437" style="fill:none;stroke-width:.5;stroke:#000"/><text xml:space="preserve" x="115.367" y="78.565" style="fill:#000;font-family:&quot;DejaVu Serif&quot;;font-size:4.6667px;letter-spacing:-.09px;line-height:1.25"><tspan x="115.367" y="78.565" style="fill:#000;font-family:&quot;Latin Modern Roman&quot;;font-size:4.6667px;font-weight:700">Fanyamar</tspan></text><text xml:space="preserve" x="176.55" y="260.891" style="fill:#000;font-family:&quot;DejaVu Serif&quot;;font-size:4.6667px;letter-spacing:-.09px;line-height:1.25"><tspan x="176.55" y="260.891" style="fill:#000;font-family:&quot;Latin Modern Roman&quot;;font-size:4.6667px;font-weight:700">Alter story of Sun</tspan></text><text xml:space="preserve" x="22.546" y="273.945" style="fill:#000;font-family:&quot;DejaVu Serif&quot;;font-size:4.6667px;letter-spacing:-.09px;line-height:1.25"><tspan x="22.546" y="273.945" style="fill:#000;font-family:&quot;Latin Modern Roman&quot;;font-size:4.6667px;font-weight:700">Make world always a globe</tspan><tspan x="22.546" y="279.994" style="fill:#000;font-family:&quot;Latin Modern Roman&quot;;font-size:4.6667px;font-weight:700">but larger than now.</tspan><tspan x="22.546" y="286.043" style="fill:#000;font-family:&quot;Latin Modern Roman&quot;;font-size:4.6667px;font-weight:700">Mountains of East and West</tspan><tspan x="22.546" y="292.092" style="fill:#000;font-family:&quot;Latin Modern Roman&quot;;font-size:4.6667px;font-weight:700">prevent anyone from going to</tspan><tspan x="22.546" y="298.141" style="fill:#000;font-family:&quot;Latin Modern Roman&quot;;font-size:4.6667px;font-weight:700">Hidden Half.</tspan></text><text xml:space="preserve" x="127.102" y="27.489" style="fill:#000;font-family:&quot;DejaVu Serif&quot;;font-size:8px;line-height:1.25"><tspan dy="-8.66" style="fill:#000;font-family:&quot;Latin Modern Roman&quot;;font-size:8px;text-align:center;text-anchor:middle">AVA-KÚMA</tspan></text><text xml:space="preserve" style="fill:#000;font-family:&quot;DejaVu Serif&quot;;font-size:10.667px;letter-spacing:4px;line-height:1.25"><textPath xlink:href="#m" startOffset="50%"><tspan dy="17.68" style="fill:#000;font-family:&quot;Latin Modern Roman&quot;;font-size:10.667px;text-align:center;text-anchor:middle">VAIYA</tspan></textPath></text><path d="M33.956 136.29h12.993" style="fill:none;stroke-width:.5;stroke:#000"/><text xml:space="preserve" x="202.763" y="129.873" style="fill:#000;font-family:&quot;DejaVu Serif&quot;;font-size:4.6667px;letter-spacing:-.09px;line-height:1.25"><tspan x="202.763" y="129.873" style="fill:#000;font-family:&quot;Latin Modern Roman&quot;;font-size:4.6667px;font-weight:700">Rómen</tspan></text><path d="M204.43 130.62h12.993M111.62 310.13h12.993M154.12 310h12.993" style="fill:none;stroke-width:.5;stroke:#000"/><text xml:space="preserve" style="fill:#000;font-family:&quot;DejaVu Serif&quot;;font-size:4.6667px;line-height:1.25"><textPath xlink:href="#n" startOffset="50%"><tspan dy="-2.99" style="text-align:center;text-anchor:middle">     PEL-                  MAR</tspan></textPath></text><text xml:space="preserve" x="3.331" y="143.445" style="fill:#000;font-family:&quot;DejaVu Serif&quot;;font-size:4.6667px;line-height:1.25"><tspan x="3.331" y="143.445" style="fill:#000;font-family:&quot;Latin Modern Roman&quot;;font-size:4.6667px">Ando</tspan><tspan x="3.331" y="149.494" style="fill:#000;font-family:&quot;Latin Modern Roman&quot;;font-size:4.6667px">Lómen</tspan></text><text xml:space="preserve" style="fill:#000;font-family:&quot;DejaVu Serif&quot;;font-size:8px;letter-spacing:2.5px;line-height:1.25"><textPath xlink:href="#b"><tspan style="fill:#000"><tspan dy="-1" style="fill:#000;font-family:&quot;Latin Modern Roman&quot;;font-size:8px">     ILMEN</tspan></tspan><tspan style="fill:#000"/></textPath></text><text xml:space="preserve" x="126.59" y="280.927" style="fill:#000;font-family:&quot;DejaVu Serif&quot;;font-size:14.667px;line-height:1.05;stroke-width:.5"><tspan x="126.59" y="280.927" style="fill:#000;font-family:&quot;Latin Modern Roman&quot;;font-size:8px;stroke-width:.5;text-align:center;text-anchor:middle">Arda</tspan><tspan x="128.84" y="297.006" style="fill:#000;font-family:&quot;Latin Modern Roman&quot;;font-size:14.667px;letter-spacing:4.5px;stroke-width:.5;text-align:center;text-anchor:middle">ILU</tspan></text><text xml:space="preserve" style="fill:#000;font-family:&quot;DejaVu Serif&quot;;font-size:4.6667px;letter-spacing:1.14px;line-height:1.25"><textPath xlink:href="#o" startOffset="50%"><tspan style="text-align:center;text-anchor:middle"><tspan dy="-1" style="fill:#000;font-family:&quot;Latin Modern Roman&quot;;font-size:4.6667px;text-align:center;text-anchor:middle">Elenarda o</tspan></tspan><tspan style="fill:#000;font-family:&quot;Latin Modern Roman&quot;;font-size:4.6667px;text-align:center;text-anchor:middle">r</tspan></textPath></text><text xml:space="preserve" x="123.051" y="122.019" style="fill:#000;font-family:&quot;DejaVu Serif&quot;;font-size:9.3333px;line-height:1.25"><tspan x="123.051" y="122.019" style="fill:#000;font-family:&quot;Latin Modern Roman&quot;;font-size:9.3333px">A</tspan></text><text xml:space="preserve" x="126.717" y="309.174" style="fill:#000;font-family:&quot;DejaVu Serif&quot;;font-size:5.3333px;line-height:1.25"><tspan x="126.717" y="309.174" style="fill:#000;font-family:&quot;Latin Modern Roman&quot;;font-size:5.3333px;text-align:center;text-anchor:middle">The World: from Númen (West) to Rómen (East)</tspan></text><path d="M23.674 144.66c-3.356.039-4.81-1.545-2.918-3.493M23.955 146.16c-3.218.09-5.46 2.206-2.554 2.828" style="fill:none;stroke-width:.5;stroke:#000"/><text xml:space="preserve" x="12.345" style="fill:#000;font-family:&quot;DejaVu Serif&quot;;font-size:5.3333px;letter-spacing:2.5px;line-height:1.25;stroke-width:.1;stroke:#fff" transform="translate(-.016)"><textPath xlink:href="#p" startOffset="50%" style="fill:#000;font-family:&quot;Latin Modern Roman&quot;;font-size:5.3333px;stroke-width:.1;stroke:#fff;text-align:center;text-anchor:middle">MARTALMAR</textPath></text><text xml:space="preserve" x="115.59" y="137.289" style="fill:#000;font-family:&quot;DejaVu Serif&quot;;font-size:4.6667px;letter-spacing:-.09px;line-height:1.25;stroke-width:.1;stroke:#fff"><tspan x="115.59" y="137.289" style="fill:#000;font-family:&quot;Latin Modern Roman&quot;;font-size:4.6667px;font-weight:700;stroke-width:.1;stroke:#fff">Anubarendya</tspan></text><path d="M98.366 102.82c1.197.39 1.938 1.512 2.222 2.303.284.79.476 1.105.478 1.792.002.686.589.301 1.063.055.475-.245.516-.32 1.48-.636s2.474.112 2.989.696 1.085.453.87-.107-.386-.642-.908-.964-1.327-.444-1.97-.35c-.643.093-1.16.331-1.542.347.038-.445-.603-1.117-1.424-.532-.62-1.51-1.8-3.024-2.619-3.188-.819-.164-1.836.194-.64.584zM153.41 103.79c.322-.277 1.193.434 1.507.947.314.513.505 1.204.413 1.582.347-.087.777.127.858.537.443-.217.943-.414 1.883-.386.94.027 2.26.335 2 1.133s-1.128-.42-2.063-.407c-.934.013-1.214-.067-1.795.2-.581.268-1.453 1.445-1.72 1.3-.27-.145-.037-1.039.02-1.57.058-.53.316-.995-.106-1.731-.42-.737-1.32-1.328-.997-1.605z" style="fill:#000"/><g aria-label="AMBAR" style="stroke-width:.1"><path d="m69.095 163.21.359-.589-1.216-.74L69.8 152.1c.06-.41-.09-.501-.302-.63-.351-.214-.462-.145-.687.028l-7.7 5.649c-.189.142-.287.22-1.24-.36l-.263-.16-.358.588 1.488.855c.489.297 1.19.725 1.631 1.044l.359-.588s-1.115-.68-1.016-.842l.142-.12 1.549-1.134 3.357 2.044-.362 2.287-1.19-.725-.359.589c.5.252 1.69.977 2.228 1.305.501.305 1.603.976 2.019 1.28zm-2.228-5.478-2.856-1.74 3.549-2.612zM103.55 176.53l.188-.663-1.524-.432 2.369-8.354 1.524.432.188-.663-3.119-.884c-.31-.088-.465-.132-.72.177l-5.504 6.504-1.27-8.425c-.055-.397-.21-.44-.52-.529l-3.133-.888-.188.663 1.524.432-2.253 7.944c-.088.31-.106.321-.513.251a4.442 4.442 0 0 1-.774-.173l-.353-.1-.188.663c.549.11 1.353.337 1.903.494.593.168 1.327.376 1.893.582l.188-.663-.353-.1a6.9 6.9 0 0 1-.736-.255c-.397-.158-.407-.176-.319-.487l2.2-7.76.015.004 1.433 9.568c.047.319.196.437.352.481.282.08.455-.1.547-.21l6.398-7.562.014.004-2.369 8.353-1.524-.432-.188.663c.52.102 1.832.474 2.411.638.579.164 1.905.54 2.4.727zM135.96 175.75c-.06-1.407-1.36-2.336-3.11-2.394 1.571-.345 2.487-1.264 2.44-2.393-.057-1.348-1.381-2.467-3.74-2.368l-6.36.267.028.69 1.583-.067.364 8.675-1.582.066.029.689 6.799-.286c2.433-.102 3.61-1.443 3.549-2.879zm-2.752-4.7c.048 1.129-.617 2.067-2.039 2.127l-2.286.096-.162-3.869 2.667-.112c1.48-.062 1.792 1.085 1.82 1.759zm.597 4.776c.007.176.086 2.051-2.024 2.14l-2.696.113-.18-4.279 2.843-.12c.293-.011.982-.04 1.507.569.509.595.543 1.416.55 1.577zM169.09 170.38l-.228-.65-1.343.471-6.58-7.405c-.279-.306-.445-.248-.68-.165-.387.136-.404.266-.413.55l-.506 9.535c-.01.237-.013.362-1.065.732l-.29.102.228.65 1.605-.61c.54-.19 1.314-.462 1.841-.6l-.228-.65s-1.232.432-1.295.252l-.003-.185.104-1.918 3.708-1.302 1.54 1.728-1.315.462.229.65c.511-.226 1.826-.687 2.42-.896.554-.195 1.772-.622 2.271-.751zm-5.65-1.746-3.155 1.108.226-4.401zM198.14 152.57c-.178-.269-.35-.156-.472-.075-.256.17-.188.3-.095.468.32.615.143 1.119-.223 1.362-.734.486-1.42-.31-1.82-.783-.114-.118-.77-.897-.823-.95-.738-.743-1.662-.676-2.317-.524 1.175-1.306 1.272-2.514.738-3.321-.818-1.235-2.843-1.371-5.142.151l-4.647 3.077.38.575 1.321-.874 4.794 7.239-1.32.874.38.575c.416-.328 1.615-1.122 2.128-1.462.514-.34 1.712-1.134 2.177-1.389l-.381-.574-1.32.874-2.252-3.4 1.43-.947c.172-.113.71-.47 1.365-.305.674.17.828.401 1.42 1.294.534.807.93 1.406 2.062 1.255.716-.087 1.507-.54 2.008-.872 1.308-.867.739-2.073.609-2.268zm-6.875-2.572c.454.685 1.126 1.7-.892 3.036l-1.418.94-2.252-3.4 1.443-.955c1.969-1.304 2.625-.367 3.12.38z" style="stroke:#fff"/></g></g></svg>