<svg xmlns="http://www.w3.org/2000/svg" width="542.006" height="657.425"><g transform="translate(-186.21 28.984)"><text xml:space="preserve" x="425.052" y="519.394" style="font-size:28.4056px;line-height:1.25;font-family:&quot;DejaVu Serif&quot;;-inkscape-font-specification:&quot;DejaVu Serif, Normal&quot;;fill:none;stroke:#000;stroke-width:1.18357;stroke-opacity:1"><tspan x="425.052" y="519.394" style="font-style:normal;font-variant:normal;font-weight:700;font-stretch:normal;font-size:28.4056px;font-family:&quot;Latin Modern Roman&quot;;-inkscape-font-specification:&quot;Latin Modern Roman, Bold&quot;;fill:none;stroke:#000;stroke-width:1.18357;stroke-opacity:1">ILU</tspan></text><text xml:space="preserve" x="433.19" y="182.625" style="font-size:9.46854px;line-height:1.25;font-family:&quot;DejaVu Serif&quot;;-inkscape-font-specification:&quot;DejaVu Serif, Normal&quot;;stroke-width:1.18357"><tspan x="433.19" y="182.625" style="font-style:normal;font-variant:normal;font-weight:700;font-stretch:normal;font-size:9.46854px;font-family:&quot;Latin Modern Roman&quot;;-inkscape-font-specification:&quot;Latin Modern Roman, Bold&quot;;stroke-width:1.18357">ENDOR</tspan></text><text xml:space="preserve" x="453.328" y="189.908" style="font-size:12.6248px;line-height:1.25;font-family:&quot;DejaVu Serif&quot;;-inkscape-font-specification:&quot;DejaVu Serif, Normal&quot;;stroke-width:1.18357"><tspan x="453.328" y="189.908" style="font-style:normal;font-variant:normal;font-weight:700;font-stretch:normal;font-size:12.6248px;font-family:&quot;Latin Modern Roman&quot;;-inkscape-font-specification:&quot;Latin Modern Roman, Bold&quot;;text-align:center;text-anchor:middle;stroke-width:1.18357">PEL-                            -MAR</tspan></text><text xml:space="preserve" x="141.968" y="206.201" style="font-size:12.6248px;line-height:1.25;font-family:&quot;DejaVu Serif&quot;;-inkscape-font-specification:&quot;DejaVu Serif, Normal&quot;;stroke-width:1.18357" transform="rotate(-41.381)"><tspan x="141.968" y="206.201" style="font-style:normal;font-variant:normal;font-weight:700;font-stretch:normal;font-size:12.6248px;font-family:&quot;Latin Modern Roman&quot;;-inkscape-font-specification:&quot;Latin Modern Roman, Bold&quot;;stroke-width:1.18357">Earambar</tspan></text><text xml:space="preserve" x="198.129" y="701.508" style="font-size:12.6248px;line-height:1.25;font-family:&quot;DejaVu Serif&quot;;-inkscape-font-specification:&quot;DejaVu Serif, Normal&quot;;stroke-width:1.18357" transform="rotate(-43.391)"><tspan x="198.129" y="701.508" style="font-style:normal;font-variant:normal;font-weight:700;font-stretch:normal;font-size:12.6248px;font-family:&quot;Latin Modern Roman&quot;;-inkscape-font-specification:&quot;Latin Modern Roman, Bold&quot;;stroke-width:1.18357">Earambar</tspan></text><text xml:space="preserve" x="218.253" y="202.484" style="font-size:12.6248px;line-height:1.25;font-family:&quot;DejaVu Serif&quot;;-inkscape-font-specification:&quot;DejaVu Serif, Normal&quot;;stroke-width:1.18357"><tspan x="218.253" y="202.484" style="font-style:normal;font-variant:normal;font-weight:700;font-stretch:normal;font-size:12.6248px;font-family:&quot;Latin Modern Roman&quot;;-inkscape-font-specification:&quot;Latin Modern Roman, Bold&quot;;stroke-width:1.18357">Formen</tspan></text><path d="M720.625 192.594a271.932 271.932 0 0 0-.375-2.164 271.932 271.932 0 0 0-2.924-13.022 271.932 271.932 0 0 0-3.56-12.864 271.932 271.932 0 0 0-4.186-12.672 271.932 271.932 0 0 0-4.804-12.453 271.932 271.932 0 0 0-5.41-12.204 271.932 271.932 0 0 0-6-11.92 271.932 271.932 0 0 0-6.58-11.615 271.932 271.932 0 0 0-7.14-11.276 271.932 271.932 0 0 0-7.686-10.91 271.932 271.932 0 0 0-8.211-10.523 271.932 271.932 0 0 0-8.718-10.107 271.932 271.932 0 0 0-9.205-9.667 271.932 271.932 0 0 0-9.665-9.203 271.932 271.932 0 0 0-10.106-8.717 271.932 271.932 0 0 0-10.523-8.211 271.932 271.932 0 0 0-10.913-7.687 271.932 271.932 0 0 0-11.276-7.14 271.932 271.932 0 0 0-11.612-6.58 271.932 271.932 0 0 0-11.923-6 271.932 271.932 0 0 0-12.201-5.41 271.932 271.932 0 0 0-12.453-4.803 271.932 271.932 0 0 0-12.673-4.187 271.932 271.932 0 0 0-12.864-3.56 271.932 271.932 0 0 0-13.024-2.924 271.932 271.932 0 0 0-13.149-2.281 271.932 271.932 0 0 0-13.248-1.635 271.932 271.932 0 0 0-13.31-.98 271.932 271.932 0 0 0-13.343-.328 271.932 271.932 0 0 0-38.7 2.767 271.932 271.932 0 0 0-37.913 8.248 271.932 271.932 0 0 0-36.35 13.558 271.932 271.932 0 0 0-34.054 18.595 271.932 271.932 0 0 0-31.062 23.25 271.932 271.932 0 0 0-27.434 27.435 271.932 271.932 0 0 0-23.251 31.062 271.932 271.932 0 0 0-18.595 34.053 271.932 271.932 0 0 0-13.558 36.35 271.932 271.932 0 0 0-5.88 27.033 271.932 271.932 0 0 0 266.797 222.354 271.932 271.932 0 0 0 267.082-223.662z" style="fill:none;fill-rule:evenodd;stroke:#000;stroke-width:1.06868;stroke-linejoin:round;stroke-miterlimit:4;stroke-dasharray:none;stroke-opacity:1;paint-order:markers fill stroke"/><path d="M456.076-13.853a215.41 215.41 0 0 0-15.518 3.375A215.41 215.41 0 0 0 411.762.262a215.41 215.41 0 0 0-26.975 14.73 215.41 215.41 0 0 0-24.605 18.416 215.41 215.41 0 0 0-21.732 21.735 215.41 215.41 0 0 0-18.42 24.603 215.41 215.41 0 0 0-14.727 26.974 215.41 215.41 0 0 0-10.742 28.797 215.41 215.41 0 0 0-6.533 30.033 215.41 215.41 0 0 0-2.191 30.655 215.41 215.41 0 0 0 2.191 30.654 215.41 215.41 0 0 0 6.533 30.033 215.41 215.41 0 0 0 10.742 28.797 215.41 215.41 0 0 0 14.728 26.974 215.41 215.41 0 0 0 18.419 24.606A215.41 215.41 0 0 0 360.182 359a215.41 215.41 0 0 0 24.605 18.417 215.41 215.41 0 0 0 26.975 14.73 215.41 215.41 0 0 0 28.796 10.74 215.41 215.41 0 0 0 9.66 2.1 215.41 215.41 0 0 0 169.188-209.83 215.41 215.41 0 0 0-163.33-209.011Z" style="fill:none;fill-rule:evenodd;stroke:#000;stroke-width:.846565;stroke-linejoin:round;stroke-miterlimit:4;stroke-dasharray:none;stroke-opacity:1;paint-order:markers fill stroke"/><circle r="0" style="fill:none;fill-rule:evenodd;stroke:#010000;stroke-width:.527383;stroke-linejoin:round;stroke-miterlimit:4;stroke-dasharray:4.21906,4.21906;stroke-dashoffset:5.16835;stroke-opacity:1;paint-order:markers fill stroke" transform="scale(-1)"/><path d="m106.911 316.5 11.682-8.858 7.293 8.023 7.12-6.29 7.573 7.8 5.927-5.325 8.124 7.634 4.696-6.288 4.362 6.075c68.28 1.653 109.533-5.502 148.488-6.282 38.956-.78 87.643 10.496 140.65 4.771 6.62-.715 10.483-6.789 14.634-11.18l7.431 6.438" style="fill:none;stroke:#000;stroke-width:1px;stroke-linecap:butt;stroke-linejoin:miter;stroke-opacity:1" transform="matrix(1.18357 0 0 1.18357 80.037 -182.352)"/><path d="m471.41 316.122 3.481-3.104 7.288-7.3 8.052 8.051 7.291-8.212 8.846 9.75 5.482-7.649 7.91 9.613 4.462-3.763 10.26 7.024M109.127 320.052l-2.216-3.552-2.027-3.461c-2.364 3.933-4.635 9.706-9.822 9.074M190.996 323.49c-2.127 3.918-5.893 6.64-10.153 9.003M204.946 323.373c-3.284 9.953-12.291 18.841-21 27.049M220.43 322.976c-5.156 19.348-18.365 33.1-30.244 47.222M234.11 322.674c-8.168 29.61-16.206 47.501-34.204 68.254M251.414 321.445c-6.668 36.652-22.508 62.15-37.16 89.675M272.408 319.337c-3.682 44.13-19.221 79.106-37.054 112.308M290.021 317.848c-3.295 49.174-14.827 91.208-31.765 128.56M302.154 317.881c.734 48.78-1.515 96.92-14.553 142.751M326.615 317.605c-.8 49.618 3.81 96.585 8.328 143.597M339.49 318.016c3.982 49.16 14.59 91.793 28.562 131.112M354.004 318.953c-1.616 23.693 24.32 77.435 41.514 113.657M368.4 319.79c13.326 50.517 31.529 77.654 46.196 95.495M385.232 321.24c8.58 23.235 20.814 47.484 44.927 74.553M403.017 322.205c11.487 30.229 23.6 43.124 35.83 52.717M418.213 322.575c5.748 9.752 6.377 19.309 27.577 29.654M437.217 322.66c2.403 6.576 6.737 8.832 11.329 11.559" style="fill:none;stroke:#000;stroke-width:1px;stroke-linecap:butt;stroke-linejoin:miter;stroke-opacity:1" transform="matrix(1.18357 0 0 1.18357 80.037 -182.352)"/><path d="M176.816 323.293s9.581.165 14.18.196c4.598.032 8.605.05 13.41-.004 4.804-.053 10.464-.204 15.415-.34 4.95-.137 9.016-.25 14.289-.47 5.272-.22 10.923-.655 17.304-1.23 6.38-.574 14.562-1.466 20.994-2.108 6.433-.643 12.642-1.322 17.613-1.489 4.971-.166 6.033.06 12.133.034 6.099-.026 18.237-.341 24.461-.277s8.31.191 12.875.411c4.566.22 9.696.641 14.514.937 4.818.296 9.18.443 14.395.838 5.216.395 11.062 1.045 16.833 1.45 5.77.406 12.297.768 17.784.964 5.488.196 9.529.375 15.197.37 5.67-.005 13.337.128 19.004.086 5.668-.042 14.994-.408 14.994-.408s-3.495 7.579-3.665 11.966c-.17 4.387 1.614 10.53 1.614 10.53s-3.338 3.14-4.37 7.48c-1.031 4.34.918 12.46.918 12.46s-6.444 5.67-7.861 10.234c-1.417 4.563.899 11.183.899 11.183s-7.42 4.836-9.587 9.687c-2.168 4.85-.402 11.28-.402 11.28s-11.199 2.21-15.161 8.212c-3.963 6.002-4 15.335-4 15.335s-7.51-2.134-15.078 1.99-7.692 17.84-7.692 17.84-7.5-4.725-19.774-1.321c-12.274 3.404-15.677 24.584-15.677 24.584s-6.538-8.933-17.432-12.51c-10.895-3.578-34.036-4.037-47.342-.57-13.306 3.466-15.52 8.404-15.52 8.404-.434-4.11-3.571-19.299-13.825-22.63-10.253-3.33-18.007 2.642-18.007 2.642s2.663-11.528-4.895-17.404c-7.558-5.875-19.313-2.681-19.313-2.681s3.64-11.708-1.786-17.843c-5.426-6.136-14.633-5.445-14.633-5.445s3.13-9.687.284-14.748c-2.846-5.062-10.29-6.628-10.29-6.628s2.757-8.092.57-14.102c-2.187-6.01-6.836-7.28-6.836-7.28s2.133-6.866.595-12.496c-1.537-5.63-6.13-8.146-6.13-8.146s3.386-5.99 3.028-9.782c-.359-3.792-4.027-9.201-4.027-9.201z" style="fill:none;stroke:#000;stroke-width:1px;stroke-linecap:butt;stroke-linejoin:miter;stroke-opacity:1" transform="matrix(1.18357 0 0 1.18357 80.037 -182.352)"/><text xml:space="preserve" x="423.014" y="20.314" style="font-size:15.7809px;line-height:1.25;font-family:&quot;DejaVu Serif&quot;;-inkscape-font-specification:&quot;DejaVu Serif, Normal&quot;;stroke-width:1.18357"><tspan x="423.014" y="20.314" style="font-style:normal;font-variant:normal;font-weight:700;font-stretch:normal;font-family:&quot;Latin Modern Roman&quot;;-inkscape-font-specification:&quot;Latin Modern Roman, Bold&quot;;stroke-width:1.18357">ILMEN</tspan></text><text xml:space="preserve" x="410.548" y="353.551" style="font-size:15.7809px;line-height:1.25;font-family:&quot;DejaVu Serif&quot;;-inkscape-font-specification:&quot;DejaVu Serif, Normal&quot;;stroke:#fff;stroke-width:.3;stroke-miterlimit:4;stroke-dasharray:none;stroke-opacity:1"><tspan x="410.548" y="353.551" style="font-style:normal;font-variant:normal;font-weight:700;font-stretch:normal;font-family:&quot;Latin Modern Roman&quot;;-inkscape-font-specification:&quot;Latin Modern Roman, Bold&quot;;stroke:#fff;stroke-width:.3;stroke-miterlimit:4;stroke-dasharray:none;stroke-opacity:1">Martalmar</tspan></text><text xml:space="preserve" x="423.014" y="392.497" style="font-size:15.7809px;line-height:1.25;font-family:&quot;DejaVu Serif&quot;;-inkscape-font-specification:&quot;DejaVu Serif, Normal&quot;;stroke-width:1.18357"><tspan x="423.014" y="392.497" style="font-style:normal;font-variant:normal;font-weight:700;font-stretch:normal;font-family:&quot;Latin Modern Roman&quot;;-inkscape-font-specification:&quot;Latin Modern Roman, Bold&quot;;stroke-width:1.18357">ILMEN</tspan></text><text xml:space="preserve" x="403.313" y="265.642" style="font-size:22.0933px;line-height:1.25;font-family:&quot;DejaVu Serif&quot;;-inkscape-font-specification:&quot;DejaVu Serif, Normal&quot;;stroke:#fff;stroke-width:.3;stroke-miterlimit:4;stroke-dasharray:none;stroke-opacity:1"><tspan x="403.313" y="265.642" style="font-style:normal;font-variant:normal;font-weight:700;font-stretch:normal;font-size:22.0933px;font-family:&quot;Latin Modern Roman&quot;;-inkscape-font-specification:&quot;Latin Modern Roman, Bold&quot;;stroke:#fff;stroke-width:.3;stroke-miterlimit:4;stroke-dasharray:none;stroke-opacity:1">AMBAR</tspan></text><text xml:space="preserve" x="646.361" y="23.082" style="font-size:22.0933px;line-height:1.25;font-family:&quot;DejaVu Serif&quot;;-inkscape-font-specification:&quot;DejaVu Serif, Normal&quot;;stroke-width:1.18357"><tspan x="646.361" y="23.082" style="font-style:normal;font-variant:normal;font-weight:700;font-stretch:normal;font-size:22.0933px;font-family:&quot;Latin Modern Roman&quot;;-inkscape-font-specification:&quot;Latin Modern Roman, Bold&quot;;stroke-width:1.18357">KÚMA</tspan></text><text xml:space="preserve" x="49.679" y="699.858" style="font-size:22.0933px;line-height:1.25;font-family:&quot;DejaVu Serif&quot;;-inkscape-font-specification:&quot;DejaVu Serif, Normal&quot;;stroke-width:1.18357" transform="rotate(-56.814)"><tspan x="49.679" y="699.858" style="font-style:normal;font-variant:normal;font-weight:700;font-stretch:normal;font-size:22.0933px;font-family:&quot;Latin Modern Roman&quot;;-inkscape-font-specification:&quot;Latin Modern Roman, Bold&quot;;stroke-width:1.18357">VAIYA</tspan></text><text xml:space="preserve" x="18.559" y="284.399" style="font-size:22.0933px;line-height:1.25;font-family:&quot;DejaVu Serif&quot;;-inkscape-font-specification:&quot;DejaVu Serif, Normal&quot;;stroke-width:1.18357" transform="rotate(-56.814)"><tspan x="18.559" y="284.399" style="font-style:normal;font-variant:normal;font-weight:700;font-stretch:normal;font-size:22.0933px;font-family:&quot;Latin Modern Roman&quot;;-inkscape-font-specification:&quot;Latin Modern Roman, Bold&quot;;stroke-width:1.18357">VAIYA</tspan></text><text xml:space="preserve" x="188.975" y="394.16" style="font-size:22.0933px;line-height:1.25;font-family:&quot;DejaVu Serif&quot;;-inkscape-font-specification:&quot;DejaVu Serif, Normal&quot;;stroke-width:1.18357"><tspan x="188.975" y="394.16" style="font-style:normal;font-variant:normal;font-weight:700;font-stretch:normal;font-size:22.0933px;font-family:&quot;Latin Modern Roman&quot;;-inkscape-font-specification:&quot;Latin Modern Roman, Bold&quot;;stroke-width:1.18357">KÚMA</tspan></text><text xml:space="preserve" x="248.409" y="622.303" style="font-size:17.359px;line-height:1.25;font-family:&quot;DejaVu Serif&quot;;-inkscape-font-specification:&quot;DejaVu Serif, Normal&quot;;letter-spacing:-1.24275px;stroke-width:1.18357"><tspan x="248.409" y="622.303" style="font-style:normal;font-variant:normal;font-weight:700;font-stretch:normal;font-size:17.359px;font-family:&quot;Latin Modern Roman&quot;;-inkscape-font-specification:&quot;Latin Modern Roman, Bold&quot;;stroke-width:1.18357">The World: from Formen (North) to Harmen (South)</tspan></text><text xml:space="preserve" x="427.992" y="131.553" style="font-size:22.0933px;line-height:1.25;font-family:&quot;DejaVu Serif&quot;;-inkscape-font-specification:&quot;DejaVu Serif, Normal&quot;;stroke-width:1.18357"><tspan x="427.992" y="131.553" style="font-style:normal;font-variant:normal;font-weight:400;font-stretch:normal;font-size:22.0933px;font-family:&quot;Latin Modern Roman&quot;;-inkscape-font-specification:&quot;Latin Modern Roman, &quot;;stroke-width:1.18357">Vista</tspan></text><path d="M432.95 135.305h41.184M221.447 205.94h41.184M393.76 627.3h41.184M546.938 627.85h41.184" style="fill:none;stroke:#000;stroke-width:1.18357px;stroke-linecap:butt;stroke-linejoin:miter;stroke-opacity:1"/><text xml:space="preserve" x="632.25" y="200.284" style="font-size:12.6248px;line-height:1.25;font-family:&quot;DejaVu Serif&quot;;-inkscape-font-specification:&quot;DejaVu Serif, Normal&quot;;stroke-width:1.18357"><tspan x="632.25" y="200.284" style="font-style:normal;font-variant:normal;font-weight:700;font-stretch:normal;font-size:12.6248px;font-family:&quot;Latin Modern Roman&quot;;-inkscape-font-specification:&quot;Latin Modern Roman, Bold&quot;;stroke-width:1.18357">Harmen</tspan></text><path d="M635.444 203.74h41.184" style="fill:none;stroke:#000;stroke-width:1.18357px;stroke-linecap:butt;stroke-linejoin:miter;stroke-opacity:1"/></g></svg>