<svg xmlns="http://www.w3.org/2000/svg" width="464.331" height="470.178"><g transform="translate(-44.177)"><text xml:space="preserve" x="283.976" y="306.521" style="font-size:10.0519px;line-height:1.25;font-family:&quot;DejaVu Serif&quot;;-inkscape-font-specification:&quot;DejaVu Serif, Normal&quot;;display:inline;fill:#000;fill-opacity:1;stroke:#fff;stroke-width:.251298;stroke-miterlimit:4;stroke-dasharray:none;stroke-opacity:1"><tspan x="283.976" y="306.521" style="font-style:normal;font-variant:normal;font-weight:700;font-stretch:normal;font-size:10.0519px;font-family:&quot;Latin Modern Roman&quot;;-inkscape-font-specification:&quot;Latin Modern Roman, Bold&quot;;text-align:center;text-anchor:middle;fill:#000;fill-opacity:1;stroke:#fff;stroke-width:.251298;stroke-miterlimit:4;stroke-dasharray:none;stroke-opacity:1">VISTA</tspan></text><path d="M491.903 255.195a235.067 235.067 0 0 0-.697-1.384 235.067 235.067 0 0 0-5.684-10.032 235.067 235.067 0 0 0-6.174-9.748 235.067 235.067 0 0 0-6.646-9.433 235.067 235.067 0 0 0-7.097-9.1 235.067 235.067 0 0 0-7.539-8.736 235.067 235.067 0 0 0-7.951-8.354 235.067 235.067 0 0 0-8.354-7.951 235.067 235.067 0 0 0-8.736-7.54 235.067 235.067 0 0 0-9.1-7.096 235.067 235.067 0 0 0-9.434-6.646 235.067 235.067 0 0 0-9.747-6.175 235.067 235.067 0 0 0-10.042-5.683 235.067 235.067 0 0 0-10.298-5.193 235.067 235.067 0 0 0-10.552-4.673 235.067 235.067 0 0 0-10.769-4.152 235.067 235.067 0 0 0-10.955-3.622 235.067 235.067 0 0 0-11.112-3.073 235.067 235.067 0 0 0-11.26-2.532 235.067 235.067 0 0 0-11.367-1.973 235.067 235.067 0 0 0-11.455-1.404 235.067 235.067 0 0 0-11.505-.854 235.067 235.067 0 0 0-11.534-.285 235.067 235.067 0 0 0-33.454 2.395 235.067 235.067 0 0 0-32.767 7.127 235.067 235.067 0 0 0-31.432 11.72 235.067 235.067 0 0 0-29.43 16.08 235.067 235.067 0 0 0-26.857 20.094 235.067 235.067 0 0 0-23.707 23.716 235.067 235.067 0 0 0-20.104 26.848A235.067 235.067 0 0 0 76.063 256a212.582 212.582 0 0 0 207.832 170.422 212.582 212.582 0 0 0 208.008-171.226z" style="display:inline;fill:none;fill-rule:evenodd;stroke:#000;stroke-width:2.51298;stroke-linejoin:round;stroke-miterlimit:4;stroke-dasharray:none;stroke-opacity:1;paint-order:markers fill stroke"/><path d="M283.895 1.257A212.582 212.582 0 0 0 71.312 213.839 212.582 212.582 0 0 0 76.063 256a235.067 235.067 0 0 1 10.081-18.464 235.067 235.067 0 0 1 20.104-26.848 235.067 235.067 0 0 1 23.707-23.716 235.067 235.067 0 0 1 26.857-20.094 235.067 235.067 0 0 1 29.43-16.08 235.067 235.067 0 0 1 31.432-11.72 235.067 235.067 0 0 1 32.767-7.127 235.067 235.067 0 0 1 33.454-2.395 235.067 235.067 0 0 1 11.534.285 235.067 235.067 0 0 1 11.505.854 235.067 235.067 0 0 1 11.455 1.404 235.067 235.067 0 0 1 11.368 1.973 235.067 235.067 0 0 1 11.259 2.532 235.067 235.067 0 0 1 11.112 3.073 235.067 235.067 0 0 1 10.955 3.622 235.067 235.067 0 0 1 10.769 4.152 235.067 235.067 0 0 1 10.552 4.673 235.067 235.067 0 0 1 10.298 5.193A235.067 235.067 0 0 1 404.744 163a235.067 235.067 0 0 1 9.747 6.175 235.067 235.067 0 0 1 9.434 6.646 235.067 235.067 0 0 1 9.1 7.097 235.067 235.067 0 0 1 8.736 7.539 235.067 235.067 0 0 1 8.354 7.95 235.067 235.067 0 0 1 7.951 8.355 235.067 235.067 0 0 1 7.539 8.736 235.067 235.067 0 0 1 7.097 9.1 235.067 235.067 0 0 1 6.646 9.433 235.067 235.067 0 0 1 6.174 9.748 235.067 235.067 0 0 1 5.684 10.032 235.067 235.067 0 0 1 .697 1.384 212.582 212.582 0 0 0 4.574-41.356A212.582 212.582 0 0 0 283.895 1.256Z" style="display:inline;fill:none;fill-rule:evenodd;stroke:#000;stroke-width:2.51298;stroke-linejoin:round;stroke-miterlimit:4;stroke-dasharray:none;stroke-opacity:1;paint-order:markers fill stroke"/><circle cx="283.896" cy="213.837" r="139.127" style="display:inline;fill:none;fill-rule:evenodd;stroke:#000;stroke-width:2.51298;stroke-linejoin:round;stroke-miterlimit:4;stroke-dasharray:none;stroke-opacity:1;paint-order:markers fill stroke"/><circle cx="283.896" cy="213.837" r="94.904" style="display:inline;fill:none;fill-rule:evenodd;stroke:#000;stroke-width:2.51298;stroke-linejoin:round;stroke-miterlimit:4;stroke-dasharray:none;stroke-opacity:1;paint-order:markers fill stroke"/><circle cx="283.896" cy="213.837" r="84.411" style="display:inline;fill:none;fill-rule:evenodd;stroke:#000;stroke-width:2.51298;stroke-linejoin:round;stroke-miterlimit:4;stroke-dasharray:none;stroke-opacity:1;paint-order:markers fill stroke"/><circle cx="283.896" cy="213.837" r="115.892" style="display:inline;fill:none;fill-rule:evenodd;stroke:#000;stroke-width:2.51298;stroke-linejoin:round;stroke-miterlimit:4;stroke-dasharray:none;stroke-opacity:1;paint-order:markers fill stroke"/><path d="M198.228 213.837h171.335" style="display:inline;fill:none;stroke:#000;stroke-width:2.51298;stroke-linecap:butt;stroke-linejoin:miter;stroke-miterlimit:4;stroke-dasharray:none;stroke-opacity:1"/><text xml:space="preserve" x="118.041" y="120.397" style="font-size:16.7532px;line-height:1.25;font-family:&quot;DejaVu Serif&quot;;-inkscape-font-specification:&quot;DejaVu Serif, Normal&quot;;display:inline;fill:#000;fill-opacity:1;stroke:#fff;stroke-width:.251298;stroke-miterlimit:4;stroke-dasharray:none;stroke-opacity:1"><tspan x="118.041" y="120.397" style="font-style:normal;font-variant:normal;font-weight:700;font-stretch:normal;font-size:16.7532px;font-family:&quot;Latin Modern Roman&quot;;-inkscape-font-specification:&quot;Latin Modern Roman, Bold&quot;;text-align:center;text-anchor:middle;fill:#000;fill-opacity:1;stroke:#fff;stroke-width:.251298;stroke-miterlimit:4;stroke-dasharray:none;stroke-opacity:1">the Straight Path</tspan></text><text xml:space="preserve" x="169.457" y="154.652" style="font-size:13.4026px;line-height:1.25;font-family:&quot;DejaVu Serif&quot;;-inkscape-font-specification:&quot;DejaVu Serif, Normal&quot;;display:inline;fill:#000;fill-opacity:1;stroke:#fff;stroke-width:.251299;stroke-miterlimit:4;stroke-dasharray:none;stroke-opacity:1" transform="rotate(-6.41)"><tspan x="169.457" y="154.652" style="font-style:normal;font-variant:normal;font-weight:700;font-stretch:normal;font-size:13.4026px;font-family:&quot;Latin Modern Roman&quot;;-inkscape-font-specification:&quot;Latin Modern Roman, Bold&quot;;text-align:center;text-anchor:middle;fill:#000;fill-opacity:1;stroke:#fff;stroke-width:.251299;stroke-miterlimit:4;stroke-dasharray:none;stroke-opacity:1">Valinor</tspan></text><text xml:space="preserve" x="434.693" y="125.211" style="font-size:16.7532px;line-height:1.25;font-family:&quot;DejaVu Serif&quot;;-inkscape-font-specification:&quot;DejaVu Serif, Normal&quot;;display:inline;fill:#000;fill-opacity:1;stroke:#fff;stroke-width:.251298;stroke-miterlimit:4;stroke-dasharray:none;stroke-opacity:1"><tspan x="434.693" y="125.211" style="font-style:normal;font-variant:normal;font-weight:700;font-stretch:normal;font-size:16.7532px;font-family:&quot;Latin Modern Roman&quot;;-inkscape-font-specification:&quot;Latin Modern Roman, Bold&quot;;text-align:center;text-anchor:middle;fill:#000;fill-opacity:1;stroke:#fff;stroke-width:.251298;stroke-miterlimit:4;stroke-dasharray:none;stroke-opacity:1">the Straight Path</tspan></text><text xml:space="preserve" x="283.686" y="176.637" style="font-size:16.7532px;line-height:1.25;font-family:&quot;DejaVu Serif&quot;;-inkscape-font-specification:&quot;DejaVu Serif, Normal&quot;;display:inline;fill:#000;fill-opacity:1;stroke:none;stroke-width:.251298;stroke-miterlimit:4;stroke-dasharray:none;stroke-opacity:1"><tspan x="283.686" y="176.637" style="font-style:normal;font-variant:normal;font-weight:700;font-stretch:normal;font-size:16.7532px;font-family:&quot;Latin Modern Roman&quot;;-inkscape-font-specification:&quot;Latin Modern Roman, Bold&quot;;text-align:center;text-anchor:middle;fill:#000;fill-opacity:1;stroke:none;stroke-width:.251298;stroke-miterlimit:4;stroke-dasharray:none;stroke-opacity:1">Old Lands</tspan></text><text xml:space="preserve" x="283.896" y="262.547" style="font-size:16.7532px;line-height:1.25;font-family:&quot;DejaVu Serif&quot;;-inkscape-font-specification:&quot;DejaVu Serif, Normal&quot;;display:inline;fill:#000;fill-opacity:1;stroke:none;stroke-width:.251298;stroke-miterlimit:4;stroke-dasharray:none;stroke-opacity:1"><tspan x="283.896" y="262.547" style="font-style:normal;font-variant:normal;font-weight:700;font-stretch:normal;font-size:16.7532px;font-family:&quot;Latin Modern Roman&quot;;-inkscape-font-specification:&quot;Latin Modern Roman, Bold&quot;;text-align:center;text-anchor:middle;fill:#000;fill-opacity:1;stroke:none;stroke-width:.251298;stroke-miterlimit:4;stroke-dasharray:none;stroke-opacity:1">New Lands</tspan></text><text xml:space="preserve" x="283.52" y="223.138" style="font-size:26.8051px;line-height:1.25;font-family:&quot;DejaVu Serif&quot;;-inkscape-font-specification:&quot;DejaVu Serif, Normal&quot;;display:inline;fill:#000;fill-opacity:1;stroke:#fff;stroke-width:.251298;stroke-miterlimit:4;stroke-dasharray:none;stroke-opacity:1"><tspan x="283.52" y="223.138" style="font-style:normal;font-variant:normal;font-weight:400;font-stretch:normal;font-size:26.8051px;font-family:&quot;Latin Modern Roman&quot;;-inkscape-font-specification:&quot;Latin Modern Roman, &quot;;text-align:center;text-anchor:middle;fill:#000;fill-opacity:1;stroke:#fff;stroke-width:.251298;stroke-miterlimit:4;stroke-dasharray:none;stroke-opacity:1">AMBAR</tspan></text><text xml:space="preserve" x="284.035" y="38.364" style="font-size:20.1039px;line-height:1.25;font-family:&quot;DejaVu Serif&quot;;-inkscape-font-specification:&quot;DejaVu Serif, Normal&quot;;display:inline;fill:#000;fill-opacity:1;stroke:none;stroke-width:.251298;stroke-miterlimit:4;stroke-dasharray:none;stroke-opacity:1"><tspan x="284.035" y="38.364" style="font-style:normal;font-variant:normal;font-weight:400;font-stretch:normal;font-size:20.1039px;font-family:&quot;Latin Modern Roman&quot;;-inkscape-font-specification:&quot;Latin Modern Roman, &quot;;text-align:center;text-anchor:middle;fill:#000;fill-opacity:1;stroke:none;stroke-width:.251298;stroke-miterlimit:4;stroke-dasharray:none;stroke-opacity:1">VAIYA</tspan></text><text xml:space="preserve" x="283.956" y="105.184" style="font-size:20.1039px;line-height:1.25;font-family:&quot;DejaVu Serif&quot;;-inkscape-font-specification:&quot;DejaVu Serif, Normal&quot;;display:inline;fill:#000;fill-opacity:1;stroke:#fff;stroke-width:.251298;stroke-miterlimit:4;stroke-dasharray:none;stroke-opacity:1"><tspan x="283.956" y="105.184" style="font-style:normal;font-variant:normal;font-weight:400;font-stretch:normal;font-size:20.1039px;font-family:&quot;Latin Modern Roman&quot;;-inkscape-font-specification:&quot;Latin Modern Roman, &quot;;text-align:center;text-anchor:middle;fill:#000;fill-opacity:1;stroke:#fff;stroke-width:.251298;stroke-miterlimit:4;stroke-dasharray:none;stroke-opacity:1">ILMEN</tspan></text><path d="M80.783 150.77c137.775-22.048 270.31-28.847 399.69-18.951" style="display:inline;fill:none;stroke:#000;stroke-width:2.51298;stroke-linecap:butt;stroke-linejoin:miter;stroke-miterlimit:4;stroke-dasharray:none;stroke-opacity:1"/><text xml:space="preserve" x="158.146" y="448.361" style="font-size:16.7532px;line-height:1.25;font-family:&quot;DejaVu Serif&quot;;-inkscape-font-specification:&quot;DejaVu Serif, Normal&quot;;display:inline;fill:#000;fill-opacity:1;stroke:none;stroke-width:.251298;stroke-miterlimit:4;stroke-dasharray:none;stroke-opacity:1"><tspan x="158.146" y="448.361" style="font-style:normal;font-variant:normal;font-weight:700;font-stretch:normal;font-size:16.7532px;font-family:&quot;Latin Modern Roman&quot;;-inkscape-font-specification:&quot;Latin Modern Roman, Bold&quot;;fill:#000;fill-opacity:1;stroke:none;stroke-width:.251298;stroke-miterlimit:4;stroke-dasharray:none;stroke-opacity:1">The World after the Cataclysm and the</tspan><tspan x="158.146" y="470.077" style="font-style:normal;font-variant:normal;font-weight:700;font-stretch:normal;font-size:16.7532px;font-family:&quot;Latin Modern Roman&quot;;-inkscape-font-specification:&quot;Latin Modern Roman, Bold&quot;;fill:#000;fill-opacity:1;stroke:none;stroke-width:.251298;stroke-miterlimit:4;stroke-dasharray:none;stroke-opacity:1">ruin of the Numenoreans</tspan></text><text xml:space="preserve" x="187.626" y="167.372" style="font-size:13.4026px;line-height:1.25;font-family:&quot;DejaVu Serif&quot;;-inkscape-font-specification:&quot;DejaVu Serif, Normal&quot;;display:inline;fill:#000;fill-opacity:1;stroke:#fff;stroke-width:.251299;stroke-miterlimit:4;stroke-dasharray:none;stroke-opacity:1" transform="rotate(-6.141)"><tspan x="187.626" y="167.372" style="font-style:normal;font-variant:normal;font-weight:700;font-stretch:normal;font-size:13.4026px;font-family:&quot;Latin Modern Roman&quot;;-inkscape-font-specification:&quot;Latin Modern Roman, Bold&quot;;text-align:center;text-anchor:middle;fill:#000;fill-opacity:1;stroke:#fff;stroke-width:.251299;stroke-miterlimit:4;stroke-dasharray:none;stroke-opacity:1">Eressëa</tspan></text></g></svg>