<?xml version="1.0" encoding="UTF-8" standalone="no"?>

<svg
   width="500px"
   height="500px"
   viewBox="0 0 626.61462 685.18536"
   version="1.1"
   id="glasopisnica-govorila"
   xmlns="http://www.w3.org/2000/svg"
   xmlns:svg="http://www.w3.org/2000/svg">
  <defs/>
  <g transform="translate(229.95679,266.38649)">
    <g transform="matrix(11.802201,-14.033272,4.1651489,3.502955,-7484.2039,1661.1415)">
      <path
         style="stroke-linecap:round;stroke-linejoin:round;fill-opacity:1;opacity:0.25"
         d="m 334.38672,819.32227 c -1.74075,-0.10946 -3.40069,0.94057 -5.04102,2.77148 -1.64032,1.83091 -3.33044,4.51944 -5.15429,8.08008 -3.64771,7.12127 -7.80126,17.73656 -12.65039,31.77148 -0.15738,0.45627 0.0848,0.95376 0.54101,1.11133 0.45628,0.15738 0.95377,-0.0848 1.11133,-0.54102 4.83727,-14.00057 8.98131,-24.57256 12.55273,-31.54492 1.78572,-3.48618 3.43423,-6.07029 4.90235,-7.70898 1.46811,-1.63869 2.68521,-2.25465 3.6289,-2.19531 2.82238,0.17746 8.65304,-0.11455 13.40821,6.09179 4.75516,6.20634 8.37327,19.22101 5.46484,46.23828 -0.0506,0.47929 0.29622,0.90914 0.77539,0.96094 0.48001,0.0518 0.91112,-0.29538 0.96289,-0.77539 2.93119,-27.22866 -0.60826,-40.69327 -5.81445,-47.48828 -5.20619,-6.79501 -12.141,-6.61136 -14.6875,-6.77148 z m 0.34375,13 c -0.47849,0.0662 -0.81262,0.50788 -0.7461,0.98632 0.20874,1.50379 0.49808,2.43665 1.25391,2.99805 0.37792,0.2807 0.87073,0.37294 1.26758,0.32227 0.39685,-0.0507 0.7193,-0.19955 1.01172,-0.35938 0.58484,-0.31966 1.08947,-0.71734 1.44726,-0.9082 0.153,-0.0816 0.23838,-0.10027 0.2793,-0.10938 0.7636,0.74303 2.02355,3.02217 3.23828,6.04688 1.22797,3.05766 2.49755,6.89216 3.64258,10.86719 2.29007,7.95005 4.07321,16.55121 4.11719,20.47851 0.13766,12.29558 -0.85891,13.13617 -1.11914,23.28906 -0.0125,0.48274 0.36882,0.88416 0.85156,0.89649 0.48198,0.0114 0.88219,-0.3696 0.89453,-0.85156 0.25735,-10.04023 1.25983,-10.96264 1.12109,-23.35352 -0.0493,-4.40463 -1.87083,-12.90773 -4.18554,-20.94336 -1.15736,-4.01781 -2.4403,-7.89556 -3.70117,-11.03516 -1.26088,-3.13959 -2.40451,-5.50253 -3.69141,-6.71484 -0.33989,-0.32018 -0.84046,-0.47278 -1.24805,-0.44336 -0.40759,0.0294 -0.73061,0.17491 -1.02148,0.33008 -0.58175,0.31033 -1.0815,0.7095 -1.46289,0.91797 -0.1907,0.10423 -0.34272,0.15134 -0.39649,0.1582 -0.0538,0.007 0.0121,0.0183 -0.002,0.008 -0.0282,-0.0209 -0.38034,-0.5076 -0.56445,-1.83398 -0.0662,-0.47849 -0.50789,-0.81262 -0.98633,-0.74609 z m 4.08594,49.13671 c -0.46808,0.11767 -0.75223,0.59242 -0.63477,1.06055 0.49866,1.99768 0.23512,2.69147 -0.2207,3.20117 -0.45583,0.50971 -1.42009,0.88683 -2.50196,1.60157 -1.08186,0.71473 -2.20126,1.89492 -2.63476,3.94335 -0.43351,2.04844 -0.27455,4.92244 0.82422,9.32422 0.56897,2.22978 2.46086,0.48481 3.10939,-1.69727 0.18474,-0.63017 0.24061,-1.48992 0.34375,-2.25977 0.2653,0.22293 0.52044,0.46121 0.84961,0.58985 0.37162,0.14521 0.80244,0.10646 1.21875,0.0391 l -2.13476,16.65039 c -0.0604,0.47824 0.27775,0.91512 0.75586,0.97656 0.47895,0.0616 0.91709,-0.27689 0.97851,-0.75586 l 2.3457,-18.29687 c 0.10621,-0.83973 -0.9237,-1.32527 -1.5039,-0.70899 -0.28543,0.30391 -0.51106,0.4355 -0.65625,0.48242 -0.14519,0.0469 -0.22337,0.0413 -0.36914,-0.0156 -0.29154,-0.11393 -0.81316,-0.6083 -1.32617,-1.41992 -0.44857,-0.70709 -1.53869,-0.43985 -1.60938,0.39453 -0.12473,1.52047 -0.30031,2.91102 -0.57031,3.83203 -0.0113,0.0385 -0.0235,0.0434 -0.0352,0.0801 -0.64288,-3.15769 -0.79905,-5.48656 -0.50976,-6.85352 0.3445,-1.62789 1.02773,-2.27821 1.88671,-2.8457 0.85899,-0.56749 1.97391,-0.92383 2.84375,-1.89648 0.86985,-0.97266 1.18023,-2.51 0.61133,-4.78907 -0.11679,-0.46887 -0.59181,-0.75406 -1.06054,-0.63672 z"
         id="path36617-8-00-7-7-0-8"
         transform="translate(-4.9569942,11.028375)" />
      <path
         style="stroke-linecap:round;stroke-linejoin:round"
         d="m 329.51758,830.36133 c -1.72577,-0.28586 -3.37743,0.77283 -4.9043,2.45508 -1.52687,1.68225 -3.00462,4.09595 -4.35742,7.01953 -2.7056,5.84715 -4.88727,13.73734 -5.44922,21.74023 -6e-5,0.006 -6e-5,0.0117 0,0.0176 -0.16363,3.35387 0.25735,6.56151 1.05859,8.51562 0.20032,0.48853 0.4222,0.90558 0.73047,1.25196 0.30827,0.34638 0.78361,0.66102 1.35157,0.62304 0.0396,-0.003 0.0535,-0.051 0.0918,-0.0566 -0.4771,0.89538 -1.01419,1.60226 -1.45898,2.55274 -0.44814,0.95761 -0.782,1.73032 -1.19141,2.6582 0.50558,-1.68916 0.67727,-4.13685 0.0742,-6.55273 -0.62407,-2.26685 -1.24411,-3.08142 -2.01953,-3.35934 -0.37845,-0.12983 -0.81122,-0.0902 -1.14453,0.0547 -0.66663,0.28977 -1.04543,0.83351 -1.40235,1.4668 -0.35407,0.62824 -0.65506,1.38655 -0.91406,2.21289 -0.96049,2.7313 -1.03078,6.08258 -0.63086,8.84179 0.20027,1.38173 0.51741,2.6083 0.95313,3.56446 0.21786,0.47808 0.46249,0.89234 0.78515,1.23242 0.32266,0.34008 0.76943,0.6294 1.31055,0.64648 0.49152,0.0155 0.80499,-0.23124 1.03516,-0.45117 0.23016,-0.21992 0.41426,-0.47207 0.60547,-0.76953 0.38241,-0.59491 0.77312,-1.37073 1.20117,-2.28711 0.85608,-1.83276 1.84493,-4.21431 2.92187,-6.51562 1.07695,-2.30132 2.25224,-4.52531 3.39063,-5.96485 0.56919,-0.71977 1.13081,-1.23209 1.59179,-1.48047 0.46099,-0.24837 0.75521,-0.27467 1.13282,-0.11718 0.0176,5.3e-4 0.0351,5.3e-4 0.0527,0 0.0127,0.0108 0.0258,0.0212 0.0391,0.0312 0.54981,0.15996 1.38158,0.99329 2.17578,2.52148 0.79421,1.52819 1.56971,3.66072 2.31641,6.13672 1.4934,4.952 2.88339,11.2843 4.35938,17.19726 0.11679,0.46887 0.59181,0.75406 1.06054,0.63672 0.46791,-0.11682 0.75282,-0.5905 0.63672,-1.05859 -1.46735,-5.87841 -2.85732,-12.22089 -4.38281,-17.2793 -0.76274,-2.5292 -1.55533,-4.73629 -2.43945,-6.4375 -0.79123,-1.52245 -1.68611,-2.61591 -2.85743,-3.14062 -0.0798,-0.093 -0.1783,-0.16822 -0.28906,-0.22071 -0.0177,-0.007 -0.0369,-8.1e-4 -0.0547,-0.008 -0.0143,-0.004 -0.0227,-0.0212 -0.0371,-0.0254 -0.009,0.005 -0.0183,0.0102 -0.0273,0.0156 -0.84494,-0.30797 -1.75836,-0.19904 -2.51562,0.20898 -0.72909,0.39283 -1.35447,1.04039 -1.96289,1.78125 0.55172,-2.40899 0.67884,-5.04125 0.34765,-7.32617 -0.20027,-1.38178 -0.51739,-2.6083 -0.95312,-3.56445 -0.19997,-0.4397 -0.71865,-0.63388 -1.15821,-0.4336 -0.4397,0.19997 -0.63387,0.71865 -0.43359,1.15821 0.32939,0.72278 0.63144,1.8291 0.81445,3.09179 0.36602,2.5252 0.26595,5.70366 -0.55273,8.02344 -0.20467,0.57995 -0.40915,0.96626 -0.55078,1.1543 -0.0121,0.016 0.006,-0.003 -0.004,0.01 -0.10142,-0.12718 -0.24094,-0.34627 -0.38086,-0.6875 -0.61382,-1.49702 -1.08285,-4.62626 -0.92969,-7.76562 0.54734,-7.76022 2.68951,-15.48719 5.29102,-21.10938 1.30174,-2.81323 2.72298,-5.10013 4.06445,-6.57812 1.34148,-1.47799 2.52561,-2.03853 3.32422,-1.90625 0.47689,0.0792 0.92753,-0.24368 1.00586,-0.72071 0.078,-0.47619 -0.24457,-0.92553 -0.7207,-1.0039 z m -1.71875,8.14648 c -0.56796,0.038 -1.00325,0.3948 -1.31641,0.81055 -0.31315,0.41575 -0.56351,0.94161 -0.80469,1.625 -0.96471,2.73358 -1.03335,6.09201 -0.63281,8.85547 0.20027,1.38173 0.51741,2.61024 0.95313,3.5664 0.21785,0.47808 0.46249,0.8904 0.78515,1.23047 0.32266,0.34008 0.76943,0.63135 1.31055,0.64844 0.69202,0.0219 1.11007,-0.38849 1.44336,-0.76367 0.33329,-0.37518 0.62114,-0.82175 0.91406,-1.30078 0.58584,-0.95806 1.19209,-2.05428 1.72656,-2.6875 0.26724,-0.31661 0.51373,-0.49087 0.60743,-0.52539 0.0937,-0.0345 0.0147,-0.07 0.17382,0.0547 0.31828,0.24944 1.11504,1.59439 1.83594,4.48243 l 2.82227,11.30859 c 1.15228,4.61617 2.07067,9.6422 2.13281,14.06836 0.0621,4.42616 -0.75794,8.1923 -2.82617,10.41406 -5e-5,0.005 -5e-5,0.0104 0,0.0156 -0.16326,0.1765 -0.24662,0.41245 -0.23047,0.65234 0.31988,3.94455 0.35806,7.98584 -0.31445,12.35547 -0.12145,0.78979 0.79289,1.31516 1.41406,0.8125 l 1.30273,-1.05469 c -0.62351,3.09008 -0.72433,7.12028 0.22657,10.92969 0.48821,1.95584 0.94976,3.14406 1.91601,3.77734 0.48312,0.31664 1.18882,0.35189 1.68555,0.0996 0.49672,-0.25227 0.82718,-0.65899 1.12109,-1.14258 1.17567,-1.93435 1.85742,-5.538 1.86914,-9.75195 0.002,-0.48343 -0.3896,-0.87632 -0.87304,-0.87695 -0.48268,-0.002 -0.87526,0.38841 -0.87696,0.87109 -0.0111,4.00433 -0.82842,7.55826 -1.61328,8.84961 -0.176,0.28958 -0.31643,0.40007 -0.375,0.44141 -0.13327,-0.10326 -0.71753,-0.92601 -1.1582,-2.69141 -0.89686,-3.59292 -0.79486,-7.57999 -0.18555,-10.41601 0.20644,-0.96085 0.50579,-1.51104 0.78711,-2.13086 l 1.92578,-1.55664 c 0.0867,-0.0709 0.15897,-0.15773 0.21289,-0.25586 6.7e-4,0 10e-4,0 0.002,0 0,-6.7e-4 0,-10e-4 0,-0.002 0.0641,-0.12243 0.0982,-0.25831 0.0996,-0.39648 -9.5e-4,-0.0373 -0.004,-0.0745 -0.01,-0.11133 -0.0108,-0.10327 -0.0399,-0.2038 -0.0859,-0.29687 -0.0154,-0.0343 -0.033,-0.0676 -0.0527,-0.0996 -0.0107,-0.0233 -0.0225,-0.0461 -0.0352,-0.0684 -0.013,-0.002 -0.026,-0.003 -0.0391,-0.004 -0.0595,-0.0824 -0.13282,-0.15376 -0.2168,-0.21094 -0.50537,-0.27987 -1.16232,-0.30436 -1.66797,-0.0801 -0.50564,0.22429 -0.87613,0.61123 -1.19531,1.07227 -0.15162,0.21901 -0.20763,0.63723 -0.33984,0.89648 l -1.9336,1.56446 c 0.38602,-3.61325 0.41827,-7.05915 0.16407,-10.34961 2.34251,-2.75792 3.11357,-6.80654 3.05078,-11.2793 -0.0653,-4.64759 -1.01419,-9.77615 -2.18555,-14.46875 l -2.82227,-11.30664 c -0.75244,-3.01437 -1.38791,-4.60225 -2.45117,-5.43555 -0.53163,-0.41664 -1.2893,-0.53036 -1.85937,-0.32031 -0.57007,0.21006 -0.97107,0.60252 -1.33789,1.03711 -0.73365,0.86919 -1.33555,2.00931 -1.88282,2.9043 -0.27363,0.44749 -0.53305,0.83076 -0.72851,1.05078 -0.19546,0.22002 -0.2858,0.1713 -0.082,0.17773 0.0529,0.002 0.0257,0.0265 -0.0977,-0.10351 -0.12339,-0.13006 -0.29819,-0.39249 -0.46289,-0.75391 -0.32939,-0.72284 -0.62949,-1.8272 -0.8125,-3.08984 -0.36602,-2.52528 -0.2679,-5.70363 0.55078,-8.02344 0.20467,-0.57995 0.4111,-0.96626 0.55274,-1.1543 0.009,-0.0122 -0.006,0.002 0.002,-0.008 0.10141,0.12746 0.24321,0.34313 0.38281,0.68359 0.30691,0.74853 0.59056,1.91884 0.76367,3.2793 0.0614,0.47811 0.49832,0.81626 0.97657,0.75586 0.4789,-0.0605 0.81815,-0.49765 0.75781,-0.97656 -0.18668,-1.46705 -0.48025,-2.74365 -0.88086,-3.7207 -0.20031,-0.48853 -0.4222,-0.90558 -0.73047,-1.25196 -0.30827,-0.34638 -0.78361,-0.66297 -1.35156,-0.625 z m -14.27149,31.89063 c 0.0867,0.25485 0.15462,0.27617 0.23828,0.61133 0.54796,2.19517 0.32599,4.75791 -0.0937,5.94726 -0.002,0.007 -0.003,0.007 -0.006,0.0137 -0.0771,-0.19659 -0.14768,-0.32263 -0.22852,-0.64648 -0.54548,-2.18526 -0.32621,-4.72949 0.0898,-5.92578 z m -2.16992,2.63476 c -0.033,1.17997 0.0692,2.45828 0.38281,3.71485 0.16104,0.64512 0.33622,1.139 0.56836,1.54297 0.23215,0.40396 0.55653,0.79878 1.11719,0.89648 0.54893,0.0957 1.01772,-0.227 1.28516,-0.53711 -0.33876,0.76888 -0.75434,1.70883 -1.05274,2.34766 -0.41419,0.88672 -0.79152,1.62098 -1.08789,2.08203 -0.0973,0.1513 -0.1561,0.21423 -0.22461,0.29687 -0.12275,-0.13331 -0.29071,-0.38226 -0.45117,-0.73437 -0.32939,-0.72284 -0.62949,-1.82721 -0.8125,-3.08985 -0.29604,-2.0425 -0.17168,-4.42247 0.27539,-6.51953 z m 36.54102,5.34571 c -0.49051,-0.0929 -0.99538,0.12725 -1.3086,0.42578 -0.31321,0.29852 -0.52031,0.66983 -0.69726,1.11523 -0.35391,0.8908 -0.56614,2.11012 -0.60742,3.7207 -0.0413,1.61059 0.11116,2.93232 0.39453,3.94532 0.28337,1.013 0.59393,1.81283 1.48242,2.16797 0.44425,0.17757 1.04041,0.066 1.40234,-0.2168 0.36193,-0.28283 0.57846,-0.65422 0.75977,-1.09961 0.36262,-0.89079 0.56827,-2.14251 0.61328,-3.89844 0.045,-1.75592 -0.10406,-3.11142 -0.39258,-4.11914 -0.14426,-0.50386 -0.32079,-0.9236 -0.5664,-1.27539 -0.24562,-0.35179 -0.58957,-0.67271 -1.08008,-0.76562 z m -0.26367,1.97851 c 0.0745,0.14144 0.15306,0.27263 0.23046,0.54297 0.21498,0.75085 0.36601,1.96359 0.32422,3.59375 -0.0418,1.63017 -0.26156,2.73783 -0.48437,3.28516 -0.0142,0.0349 -0.0132,0.0189 -0.0274,0.0488 -0.0721,-0.11357 -0.16058,-0.16282 -0.31445,-0.71289 -0.21916,-0.78345 -0.36782,-1.95722 -0.33008,-3.42968 0.0377,-1.47247 0.24993,-2.53394 0.48242,-3.11914 0.049,-0.12343 0.0741,-0.13089 0.11915,-0.20899 z m -11.87305,34.51563 c -0.55127,0.14049 -0.91513,0.51008 -1.2168,0.92773 -0.60332,0.8353 -1.04206,2.04009 -1.44922,3.59375 -0.40715,1.55366 -0.75199,3.44352 -1.01758,5.54688 -0.0603,0.47892 0.27892,0.9161 0.75782,0.97656 0.47891,0.0603 0.91609,-0.27891 0.97656,-0.75781 0.2582,-2.04484 0.59425,-3.87085 0.97461,-5.32227 0.38036,-1.45141 0.83487,-2.54168 1.17578,-3.01367 0.12408,-0.1718 0.14706,-0.17006 0.16797,-0.1875 0.21886,0.21813 0.75502,1.20484 1.20312,3 0.89686,3.59291 0.79486,7.58195 0.18555,10.41797 -0.30465,1.41801 -0.75232,2.55064 -1.16211,3.14258 -0.20489,0.29596 -0.39369,0.43827 -0.4668,0.4707 -0.0731,0.0324 -0.0149,0.0417 -0.11132,-0.0117 -0.42233,-0.2333 -0.95382,-0.0803 -1.1875,0.3418 -0.2333,0.42233 -0.0803,0.95382 0.34179,1.1875 0.50539,0.27985 1.16039,0.30437 1.66602,0.0801 0.50563,-0.22429 0.87613,-0.61121 1.19531,-1.07226 0.63836,-0.92209 1.09858,-2.21219 1.4336,-3.77149 0.67002,-3.11859 0.7772,-7.29536 -0.19922,-11.20703 -0.48392,-1.93862 -0.92742,-3.1356 -1.70703,-3.87695 -0.38981,-0.37068 -1.00928,-0.60534 -1.56055,-0.46484 z"
         id="path44459-3-95-7" />
    </g>
  </g>
</svg>
