<?xml version="1.0" encoding="UTF-8"?>
<!-- Created with Inkscape (http://www.inkscape.org/) -->
<svg width="1e3" height="1e3" version="1.1" viewBox="0 0 264.58 264.58" xmlns="http://www.w3.org/2000/svg">
 <g transform="matrix(1 0 0 -1 82.316 208.81)">
  <path d="m49.982 208.81v-5.1e-4c-23.222 8e-5 -46.035-6.1125-66.146-17.723-28.242-16.323-49.457-42.505-59.572-73.517h251.42c-10.111 31.01-31.323 57.192-59.56 73.517-20.111 11.611-42.924 17.724-66.146 17.723z" fill-rule="evenodd" stroke-width="0" style="paint-order:markers fill stroke"/>
 </g>
 <g stroke-width="0">
  <g transform="matrix(2 0 0 -2 -540.28 222.53)" display="none" fill-opacity=".99981" fill-rule="evenodd">
   <path transform="scale(.26458)" d="m1022.5 197.02 248.46-26.113h-249.99a250 250 0 0 0 1.5234 26.113z" fill="#bfbfbf" style="paint-order:stroke fill markers"/>
   <path transform="scale(.26458)" d="m1026.6 222.85 244.37-51.941-248.46 26.113a250 250 0 0 0 4.0977 25.828z" fill="#808080" style="paint-order:stroke fill markers"/>
   <path transform="scale(.26458)" d="m1033.4 248.1 237.58-77.193-244.37 51.941a250 250 0 0 0 6.791 25.252z" fill="#404040" style="paint-order:stroke fill markers"/>
   <path transform="scale(.26458)" d="m1508.6 248.1-237.58-77.193-237.58 77.193a250 250 0 0 0 112.58 138.93 250 250 0 0 0 250 0 250 250 0 0 0 112.58-138.93z" style="paint-order:stroke fill markers"/>
   <path transform="scale(.26458)" d="m1515.4 222.85-244.37-51.941 237.58 77.193a250 250 0 0 0 6.793-25.252z" fill="#404040" style="paint-order:stroke fill markers"/>
   <path transform="scale(.26458)" d="m1519.5 197.02-248.46-26.113 244.37 51.941a250 250 0 0 0 4.0957-25.828z" fill="#808080" style="paint-order:stroke fill markers"/>
   <path transform="scale(.26458)" d="m1521 170.91h-249.99l248.46 26.113a250 250 0 0 0 1.5234-26.113z" fill="#bfbfbf" style="paint-order:stroke fill markers"/>
   <path transform="scale(.26458)" d="m1021 170.53a250 250 0 0 0 0.012 0.38282h499.98a250 250 0 0 0 0.012-0.38282h-250z" fill="#808080" style="paint-order:stroke fill markers"/>
  </g>
  <g transform="matrix(2 0 0 -2 -540.28 222.53)" fill-rule="evenodd">
   <path d="m270.14 45.22a66.146 66.146 0 0 0 0.40308 6.9091h131.48a66.146 66.146 0 0 0 0.40307-6.9091h-66.143z" fill-opacity=".4" style="paint-order:stroke fill markers"/>
   <path d="m270.14 45.22a66.146 66.146 0 0 1 0.40308-6.9091h131.48a66.146 66.146 0 0 1 0.40307 6.9091h-66.143z" fill-opacity=".2" style="paint-order:stroke fill markers"/>
   <path d="m270.55 52.129c0.24192 2.2953 0.60381 4.5763 1.0842 6.8337h129.31c0.48019-2.2574 0.84191-4.5385 1.0837-6.8337z" fill-opacity=".6" style="paint-order:stroke fill markers"/>
   <path d="m399.14 65.644h-125.72c5.0572 15.506 15.665 28.597 29.786 36.758 20.466 11.816 45.68 11.816 66.146 0 14.121-8.1616 24.729-21.252 29.786-36.758z" display="none" fill-opacity=".99981" style="paint-order:stroke fill markers"/>
   <path d="m271.63 58.963c0.48197 2.2569 1.0817 4.487 1.7968 6.6813h125.72c0.71524-2.1942 1.3152-4.4243 1.7973-6.6813z" fill-opacity=".8" style="paint-order:stroke fill markers"/>
  </g>
  <rect transform="scale(1,-1)" x="-.00013428" y="-264.58" width="264.58" height="264.58" display="none" fill="#333" fill-opacity=".99981" opacity=".5003"/>
 </g>
 <g display="none" fill="none" stroke="#fff" stroke-linecap="round" stroke-linejoin="round" stroke-width=".52917">
  <path d="m6.5807 91.241h251.42"/>
  <path d="m2.981 104.6h258.62"/>
  <path d="m0.81262 118.27h262.96"/>
  <path d="m0.0064597 132.09h264.57"/>
  <path d="m0.81262 145.91h262.96"/>
 </g>
</svg>
