<?xml version="1.0" encoding="UTF-8"?>
<svg display="flex" float="center" position="absolute" version="2.1" viewBox="0 0 1160 1160" viewbox="0 0 1160 1160" xmlns="http://www.w3.org/2000/svg">
 <g transform="rotate(90 580 580)" style="fill:none;stroke:#fff">
  <path id="sonvzhod" d="m544.87 505.08-1.1665-2.4873-1.1665-2.4873-0.98665-2.5714-2.3221-4.9797-0.96473-2.5811-0.95366-2.5857-0.94257-2.5903-1.3578-2.3995-0.93168-2.5953-0.92057-2.5998-0.90943-2.6043-0.89829-2.6088-0.88712-2.6132-0.87596-2.6176-0.61186-2.7335-0.84783-2.628-0.57198-2.747-0.81959-2.6383-0.53194-2.7601-0.79127-2.6483-0.77997-2.6523-0.18036-2.9-0.74571-2.6636-0.42816-2.7916-0.40486-2.7978-0.3815-2.804-0.3581-2.81-0.66532-2.6885 0.0195-2.9489-0.28763-2.8271 0.0854-2.961-0.23425-2.8383-0.21058-2.8433 0.18147-2.9773-0.1569-2.8533 0.24798-2.9868-0.10304-2.8625-0.0792-2.8666 0.34488-2.9992-0.025-2.8746 0.41191-3.006 0.0292-2.8817 0.9052-3.1374 0.09-2.8878 0.11411-2.8907 0.58353-3.0174 0.62062-3.0183 0.65773-3.0188 0.69488-3.0189 0.73205-3.0187 0.29104-2.9017 0.79989-3.019 0.83715-3.0178 0.87441-3.0162 0.91169-3.0143 0.94899-3.0121 0.98628-3.0094 1.0236-3.0064 1.0609-3.0031 1.0982-2.9994 1.1355-2.9953 1.1728-2.9909 1.767-3.0762 0.6905-2.8909 1.2846-2.9754 1.8982-3.0512 0.78274-2.8817 1.3963-2.9567 2.0291-3.0222 1.477-2.9392 1.5141-2.9315 1.5511-2.9234 1.5881-2.9149 1.625-2.9061 2.296-2.9475 1.7051-2.8836 1.7419-2.8736 2.4315-2.9011 1.8215-2.8486 1.1927-2.8077 2.5599-2.8558 1.931-2.8141 1.9673-2.8019 2.0036-2.7894 2.7357-2.7833 2.0819-2.7586 2.1179-2.7449 2.1538-2.7309 2.9094-2.7031 2.2312-2.6968 2.2668-2.6816 2.3022-2.6661 2.3376-2.6502 2.3729-2.634 2.408-2.6174 3.2032-2.5498 2.4836-2.5778 2.5183-2.5601 2.5529-2.542 3.3698-2.4492 2.6272-2.4992 2.6614-2.48 2.6954-2.4605 3.5331-2.3411 1.9594-2.5201 2.7967-2.4 2.8302-2.3792 2.8635-2.358 3.7262-2.206 2.9346-2.3083 2.9674-2.286 3-2.2635 3.0325-2.2406 3.0647-2.2173 3.0968-2.1938 3.9922-1.9913 3.1652-2.1388 2.3239-2.3067 3.2234-2.0963 4.1364-1.8645 3.29-2.0385 2.43-2.2337 3.3469-1.9938 4.2767-1.7316 2.5082-2.1763 3.4375-1.9135 3.4673-1.8862 2.5804-2.1224 4.4426-1.5666 2.6309-2.0815 3.5803-1.7815 2.6763-2.0456 4.5704-1.4305 2.7257-2.003 3.6903-1.6724 2.7701-1.9655 4.694-1.2892 2.8182-1.9211 2.8378-1.9048 3.8208-1.5365 2.8809-1.8654 2.9003-1.8486 4.8681-1.0837 2.9466-1.8018 2.9656-1.7845 2.9845-1.7671 3.0033-1.7496 3.022-1.732 3.0406-1.7142 4.0588-1.2732 3.0811-1.6715 3.0994-1.6533 3.1176-1.6349 3.1356-1.6164 3.1536-1.5978 3.1714-1.5791 3.1892-1.5603 2.179-2.0192 2.1889-2.0119 3.2353-1.5171 2.2128-1.9924 3.2668-1.4856 3.284-1.4661 2.2506-1.9603 2.2602-1.9528 2.2699-1.9452 2.2795-1.9376 3.3566-1.3963 1.2312-2.4559 2.3082-1.9145 3.3977-1.358 1.2472-2.4478 2.3367-1.8912 1.2526-2.4451 2.3515-1.8806 2.5158-4.8847 2.3716-1.8673 2.5264-4.8792 2.3916-1.8538" style="fill:none;stroke-width:2;stroke:#ff7900"/>
  <path id="sonzahod" d="m544.54 654.76-1.1773 2.4822-2.3546 4.9644-0.99244 2.5696-0.98141 2.5744-1.3624 2.3952-0.97057 2.5794-0.9595 2.5841-0.94843 2.5887-0.93734 2.5933-1.1502 2.4949-0.92079 2.6003-0.90966 2.6048-0.89852 2.6093-0.88736 2.6137-0.62379 2.7308-0.85929 2.6243-0.84807 2.6286-0.56699 2.7506-0.81985 2.6389-0.24504 2.8837-0.78575 2.6506-0.4807 2.7774-0.75732 2.6603-0.13444 2.9144-0.41096 2.797-0.70573 2.6766-0.0461 2.9358-0.3408 2.8151-0.31732 2.8209 0.0492 2.9552-0.26406 2.8325-0.5958 2.708 0.13858 2.9726-0.19308 2.8478 0.57949 3.1123-0.1331 2.8579 0.27804 2.9914-0.0792 2.8666 0.34488 2.9992-0.025 2.8746 0.82514 3.1328 0.0355 2.8816 0.48568 3.0106 0.52265 3.0124 0.12041 2.8904 0.59012 3.0161 0.6272 3.0169 0.66431 3.0174 0.70147 3.0174 0.73863 3.0171 0.77584 3.0165 0.81306 3.0155 0.85031 3.0141 0.88756 3.0124 0.92483 3.0103 1.4737 3.1126 0.48784 2.9004 1.5614 3.1022 1.0805 2.9961 1.1178 2.9921 1.1551 2.9878 1.7433 3.0722 1.2361 2.9754 1.2733 2.9699 1.3106 2.9641 1.3477 2.9579 1.9684 3.0249 1.4284 2.9413 1.4655 2.934 1.5026 2.9262 2.1488 2.9775 1.5829 2.9063 1.6198 2.8974 2.2849 2.9356 1.6997 2.8749 1.7364 2.8648 1.7731 2.8545 1.8097 2.8437 2.5057 2.8592 1.8889 2.817 1.9252 2.8052 2.6394 2.8055 2.0038 2.7759 2.0399 2.7629 2.7719 2.7472 2.1178 2.7312 2.8615 2.7038 2.1952 2.6977 2.2308 2.6827 2.9916 2.6381 2.3074 2.6467 2.3427 2.6306 3.1203 2.568 2.4185 2.5922 2.4533 2.575 2.488 2.5574 2.5226 2.5395 2.5571 2.5213 3.3671 2.4221 2.6311 2.4781 2.6651 2.4588 3.4906 2.3393 2.738 2.4131 2.7715 2.3927 3.6119 2.2522 2.8433 2.3447 2.8763 2.3232 2.9092 2.3014 3.7688 2.1325 2.1476 2.4034 3.0069 2.2339 3.8806 2.0443 3.0759 2.1806 3.1077 2.1567 3.9945 1.9439 3.1753 2.1011 2.3422 2.2788 4.1019 1.8485 3.2684 2.0255 3.299 1.9997 3.3294 1.9735 3.3596 1.947 3.3896 1.9203 4.3134 1.6379 2.555 2.1211 3.4784 1.8381 4.4136 1.532 2.6306 2.0598 3.5653 1.7532 2.6757 2.0236 4.5401 1.3957 2.7247 1.9808 3.6743 1.6437 3.702 1.6137 3.7294 1.5834 2.8165 1.8985 3.7802 1.5301 3.8069 1.4991 3.8334 1.4676 2.9058 1.8128 2.9249 1.7957 3.9054 1.3888 3.9311 1.3563 2.989 1.7306 3.0075 1.7128 3.026 1.695 4.0229 1.2503 4.0475 1.2167 3.0879 1.6272 3.1059 1.6088 3.1238 1.5903 3.1416 1.5715 3.1593 1.5528 2.1749 2.0104 3.191 1.5217 3.2084 1.5025 3.2257 1.4833 3.2429 1.464 2.2408 1.9539 3.2739 1.4319 3.2908 1.4122 2.278 1.9212 3.3212 1.3797 2.3011 1.9007 3.3515 1.3468 1.2792 2.4312 3.3785 1.321 2.3429 1.8642 1.295 2.4229 3.4188 1.2817 2.3708 1.8403 1.3109 2.4144 2.3854 1.8294 1.3161 2.4114 2.3999 1.8185 2.4091 1.8103 2.4183 1.8021 0.235 3.0093 1.3266 2.4057 2.434 1.7934 1.3319 2.4028" style="fill:none;stroke-width:2;stroke:#ff7900"/>
  <path id="astsonvzhod" d="m583.25 497.32 0.10786-2.7451 0.10786-2.7451 0.10785-2.7451 0.10786-2.7451 0.10786-2.7451 0.32416-2.7364 0.33613-2.7354 0.11983-2.7446 0.11984-2.7446 0.36005-2.7339 0.37201-2.7328 0.38395-2.7317 0.13779-2.7438 0.40189-2.7302 0.41382-2.729 0.42576-2.7278 0.4377-2.7265 0.44962-2.7252 0.46155-2.7238 0.47348-2.7224 0.48539-2.721 0.80891-2.6974 0.51514-2.7169 0.52705-2.7153 0.53895-2.7137 0.88607-2.6845 0.90973-2.6796 0.93334-2.6746 0.6042-2.7029 0.97469-2.6661 0.63381-2.6977 1.016-2.6572 1.0395-2.6515 1.063-2.6456 1.0864-2.6395 1.1098-2.6333 1.1332-2.627 0.75166-2.6733 1.5847-2.561 1.2031-2.607 1.2263-2.6 1.2495-2.5929 1.7057-2.5185 1.3014-2.5754 1.3244-2.5677 1.3475-2.56 1.8257-2.4723 1.3989-2.5409 1.888-2.4457 1.4501-2.521 1.9498-2.418 1.501-2.5003 2.0113-2.3893 1.5516-2.4788 2.0724-2.3596 2.1053-2.342 1.6297-2.4433 2.6792-2.1868 1.6848-2.416 2.2307-2.2734 1.7343-2.3916 2.8236-2.0975 1.7886-2.3624 2.3539-2.2 2.9334-2.0219 1.8692-2.3168 2.4483-2.138 3.0413-1.9429 2.515-2.0896 1.9748-2.2524 3.1472-1.8605 2.6067-2.0226 2.6369-1.9997 3.2549-1.7675 2.1087-2.1619 2.7263-1.929 3.3564-1.6781 2.789-1.8743 2.818-1.8495 3.459-1.5778 2.8792-1.7927 3.5269-1.5064 2.9393-1.7344 2.9671-1.708 3.6247-1.3999 3.0256-1.6477 3.6892-1.3244 3.083-1.586 3.7522-1.2471 3.1392-1.5229 4.4616-0.84084 3.1973-1.4515 3.8761-1.0794 3.2508-1.3857 3.9343-0.9973 3.3031-1.3186 4.6536-0.53778 3.3568-1.2428 4.0477-0.81973 3.4063-1.1731 4.7713-0.32315 4.1289-0.67565 3.4815-1.0548 4.1791-0.58666 4.2042-0.53708 4.2286-0.48709 4.2526-0.43672 4.276-0.38597 4.2988-0.33485 4.321-0.28335 4.3427-0.23151 4.3638-0.1793 4.3843-0.12673 4.4042-0.0738 5.1049 0.52011 3.761-0.50775 5.1415 0.647 4.4777 0.15084 4.4945 0.2054 5.1891 0.85129 4.5256 0.3253 4.5404 0.38078 5.2292 1.0588 4.5671 0.50255 3.9076-0.0833 5.2644 1.2577 4.6037 0.67234 4.6146 0.72945 5.2896 1.4706 4.6326 0.85447 5.3008 1.6178 5.3032 1.6976 4.6526 1.0489 5.3086 1.8462 4.6626 1.1762 4.6677 1.2351 5.3118 2.065 4.673 1.3636 4.676 1.423 4.6782 1.4825 5.9286 3.1696 4.6737 1.6224 4.6737 1.6824 4.673 1.7425 5.2782 2.6592 4.6654 1.8732 4.6624 1.9336 5.2509 2.8824 4.6499 2.0648 4.6447 2.1254 5.2151 3.1061 4.6274 2.257 4.6199 2.3178 4.6118 2.3786 5.1566 3.4009 4.5879 2.5104 4.0348 1.5898 4.5721 2.6222 4.5603 2.6831 4.548 2.744 4.5348 2.8049 3.4888 0.80701 4.5191 2.9069 3.9975 1.9204 4.4949 3.0188 3.983 2.0138 3.9772 2.0561 3.9712 2.0985 3.4804 1.05 3.9625 2.1746 3.4783 1.1099 3.4782 1.1361 3.4779 1.1623 3.9468 2.3183 3.4741 1.2224 2.5427-1.0402 3.4778 1.2597 3.0132 0.12792 3.4784 1.3047 5.1077-2.0249 3.0212 0.16994" style="fill:none;stroke-width:2;stroke:#ff7900"/>
  <path id="astsonzahod" d="m582.71 662.7 0.0899 2.7458 0.28229 2.7393 0.1918 5.4912 0.30623 2.738 0.20374 5.4907 0.33017 2.7366 0.34214 2.7357 0.35409 2.7347-0.1264 2.7551 0.36607 2.7342 0.11983 2.7446 0.38401 2.7328 0.39595 2.7317 0.68396 2.7164 0.42579 2.7284 0.43773 2.7271 0.44966 2.7258 0.46159 2.7245 0.77928 2.7034 0.49137 2.7206 0.50329 2.7191 0.8387 2.6939 0.53302 2.7149 0.88022 2.6865 0.56273 2.7103 1.2686 2.6479 0.5983 2.7042 0.96888 2.6682 0.99244 2.6628 0.64565 2.6957 1.0337 2.6537 1.4391 2.6048 1.0864 2.6395 0.7164 2.6812 1.1274 2.6294 1.5556 2.5701 1.1798 2.6138 1.2031 2.607 1.2263 2.6 1.6769 2.5285 1.2783 2.5828 1.3014 2.5754 1.7686 2.4939 1.8026 2.4793 1.3816 2.546 1.4044 2.5378 1.8933 2.4416 1.9269 2.4257 1.4838 2.5059 1.9884 2.3973 2.0217 2.3806 1.5624 2.472 2.5801 2.2374 1.618 2.446 2.1482 2.3148 2.1808 2.2964 2.2132 2.2777 1.7227 2.3945 2.8004 2.1036 2.3096 2.2197 1.804 2.3506 2.9103 2.0285 2.4045 2.1588 2.4358 2.1378 2.4669 2.1166 2.4979 2.095 3.0934 1.8889 2.5637 2.0453 2.5941 2.0227 2.6242 1.9998 2.6542 1.9766 3.2702 1.739 2.7178 1.9234 3.3412 1.6719 2.7804 1.8686 3.4109 1.603 2.842 1.8125 2.8704 1.787 3.5114 1.5003 2.9304 1.7287 3.5778 1.4272 2.9892 1.669 3.6427 1.3524 3.0469 1.6079 3.7062 1.276 3.1035 1.5455 4.4061 0.87725 3.162 1.4748 3.8311 1.1099 3.216 1.4096 3.8899 1.0286 4.57 0.62169 3.2988 1.2985 3.9779 0.89071 3.3494 1.2299 4.0323 0.80544 4.72 0.35419 3.4263 1.1134 4.1129 0.66136 4.8033 0.18196 3.4994 0.99383 4.1887 0.51364 4.2129 0.46362 4.2365 0.41322 4.2596 0.36243 4.282 0.31129 4.9748-0.23547 4.3258 0.19846 3.6748 0.66036 5.0381-0.42058 4.386 0.0406 5.0755-0.55698 4.423-0.0759 4.4405-0.12987 4.4575-0.18414 4.4738-0.23872 4.4896-0.29361 5.1714-0.95301 4.5183-0.41409 5.1955-1.0953 4.544-0.5358 4.5564-0.59213 5.2262-1.3054 4.5776-0.71552 4.5879-0.77261 5.2492-1.5181 4.6047-0.89754 5.2589-1.665 5.2605-1.7446 4.6226-1.0917 5.2644-1.8929 4.6313-1.2189 4.6358-1.2776 5.2654-2.1111 4.6398-1.4059 5.2599-2.2612 5.2531-2.3423 4.6378-1.6045 4.6379-1.6642 5.2372-2.5632 5.2262-2.6447 4.6258-1.8642 4.6228-1.9244 4.6191-1.9846 5.1899-2.9371 5.1737-3.0188 4.5943-2.1858 4.5875-2.2463 4.58-2.3068 4.5719-2.3674 5.1045-3.3826 4.5479-2.4985 4.5375-2.5591 4.5263-2.6197 4.5145-2.6804 4.5018-2.741 4.4886-2.8016 4.4745-2.8621 3.9656-1.8893 4.4509-2.9734 4.4348-3.0339 3.9414-2.033 4.4075-3.1451 3.4567-1.0474 3.9221-2.1595 4.3728-3.2973 3.4493-1.1483 3.8992-2.2861 3.4455-1.2081 3.4446-1.2343 3.8835-2.3956 3.4395-1.2942 3.0037-0.17025 3.4394-1.3391 2.5733 0.96211 3.4418-1.3766 3.01-0.22551 2.5795 0.94525 3.0136-0.24334 2.5816 0.93962" style="fill:none;stroke-width:2;stroke:#ff7900"/>
  <path id="pomsonvzhod" d="m570.09 497.85-0.32885-2.7275-0.65772-5.455-0.32885-2.7275-0.11985-2.7525-0.32291-2.7282-0.3229-2.7282-0.096-2.7548-0.084-2.7557-0.072-2.7566-0.30504-2.7303-0.0541-2.758-0.0421-2.7588-0.29313-2.7316-0.0242-2.7601 0.26277-2.7888 6e-3 -2.7614 0.0178-2.762 0.0298-2.7625 0.0418-2.763 0.0538-2.7634 0.37698-2.7907 0.0838-2.764 0.0958-2.7643 0.76661-2.815 0.13186-2.7643 0.48542-2.7879 0.16192-2.7641 0.52758-2.7862 0.19197-2.7637 0.93555-2.8036 0.22805-2.7626 0.61796-2.7801 0.64207-2.7779 1.0562-2.7896 0.30019-2.759 0.71432-2.7704 0.73837-2.7675 1.1766-2.7722 0.79249-2.7597 0.81652-2.7563 0.84052-2.7528 1.3028-2.7487 0.89447-2.7434 0.91842-2.7393 0.94235-2.7351 1.4284-2.7212 1.4641-2.7114 1.0259-2.7172 1.5296-2.6939 1.0794-2.7048 1.5948-2.6754 1.1328-2.6916 1.6598-2.6558 1.6951-2.6437 1.2155-2.669 2.2802-2.5808 1.2742-2.6508 1.8296-2.5959 1.8645-2.5822 1.8993-2.5681 1.3851-2.6144 1.9629-2.5432 2.5572-2.4588 1.4718-2.5821 2.0659-2.4971 2.6762-2.3981 1.5578-2.5475 2.1679-2.4479 2.2016-2.4308 2.2352-2.4134 2.2687-2.3956 2.302-2.3776 2.9482-2.2421 2.3733-2.3352 1.783-2.4436 3.062-2.1691 2.4714-2.2768 2.5038-2.2567 3.1787-2.0856 2.573-2.2098 2.6049-2.1886 3.2931-1.9981 2.6728-2.1395 2.7041-2.1173 2.7352-2.0947 3.4407-1.8777 2.8014-2.0426 3.5149-1.8111 2.8666-1.989 2.8967-1.9648 3.622-1.7118 2.9605-1.9089 2.9899-1.8837 3.7264-1.6086 3.0522-1.8257 3.081-1.7995 3.8279-1.5018 3.1417-1.7394 3.8951-1.4256 3.2013-1.6779 3.2288-1.6501 3.9916-1.3127 3.2868-1.5865 4.0552-1.2324 3.3435-1.5215 4.8639-0.80733 3.4021-1.4478 4.18-1.058 3.4562-1.38 4.2386-0.97285 3.509-1.3109 4.2957-0.88614 3.5605-1.2405 4.3511-0.79793 3.6106-1.1689 4.4047-0.70824 3.6594-1.096 4.4566-0.61709 4.4826-0.56611 4.508-0.5147 3.7549-0.93845 4.5561-0.42066 3.7992-0.86191 4.6024-0.32527 4.6252-0.27204 3.8638-0.74077 4.6686-0.17465 3.9044-0.66141 3.9234-0.6256 4.7302-0.0314 3.9618-0.54471 4.7689 0.069 3.9986-0.46278 4.8056 0.17063 4.823 0.22712 4.0511-0.33363 4.0674-0.29599 4.8731 0.37717 4.0993-0.21118 4.9038 0.48204 3.3401-0.78944 4.9336 0.57717 4.9466 0.63585 3.3836-0.69274 4.9737 0.73232 4.1984 0.0788 4.2111 0.1184 4.2234 0.15815 4.2354 0.19806 4.2471 0.23814 4.2584 0.27838 3.4841-0.44793 5.0654 1.126 3.5066-0.38538 4.3012 0.43151 4.3109 0.4725 3.5379-0.29831 4.3304 0.54544 3.5574-0.2423 3.5666-0.21805 3.5757-0.19371 4.3676 0.68322 3.5938-0.13699 3.6024-0.11242 3.6109-0.0878 2.8354-0.94705 3.6272-0.0462 3.6353-0.0213 2.8573-0.90252 3.6511 0.0206 2.0813-1.7933 3.6665 0.0547 2.8826-0.85305 2.8883-0.84218 2.0968-1.7751 3.6968 0.12337 2.1045-1.7659 2.9091-0.80488 6.3251-5.2839" style="fill:none;stroke-width:2;stroke:#ff7900"/>
  <path id="pomsonzahod" d="m569.56 662.09-0.16164 2.7486-0.34076 2.726-0.34075 2.726-0.34076 2.726-0.34075 2.726-0.12591 2.7527-0.11395 2.7536-0.32886 2.7275-0.32885 2.7275-0.0901 2.756-0.3229 2.7282-0.0722 2.7576-0.0602 2.7584-0.0482 2.7592-0.0363 2.76-0.0243 2.7607 0.26862 2.7906 6e-3 2.762 0.0177 2.7626 0.0297 2.7631 0.34677 2.792 0.0597 2.764 0.0717 2.7644 0.40696 2.7919 0.10176 2.7648 0.44913 2.7911 0.47325 2.79 0.49738 2.7887 0.5215 2.7873 0.18594 2.7642 0.56367 2.7853 0.95961 2.8025 0.61796 2.7801 0.25811 2.7616 0.6601 2.777 1.0802 2.7879 0.71432 2.7704 0.73837 2.7675 1.1766 2.7722 0.79249 2.7597 0.81652 2.7563 0.84052 2.7528 1.3028 2.7487 0.89447 2.7434 1.3686 2.7339 1.4045 2.7246 0.97816 2.7266 1.002 2.7219 1.9737 2.6841 1.0615 2.7077 1.571 2.6797 1.6064 2.6684 1.1445 2.6867 2.1744 2.615 1.2035 2.6698 1.7417 2.6237 1.7768 2.6108 1.8118 2.5975 1.315 2.6356 2.413 2.5182 1.3732 2.6157 1.945 2.5452 2.5334 2.4617 1.46 2.5837 2.6129 2.4219 2.0876 2.479 2.1216 2.4626 2.1554 2.4459 2.1892 2.4289 2.2227 2.4115 2.8527 2.2866 2.2947 2.3708 2.3278 2.3523 2.3608 2.3336 2.3936 2.3144 3.048 2.1607 2.4638 2.2699 2.4961 2.2497 3.1644 2.0772 2.5651 2.2028 3.2423 2.017 2.6333 2.1543 2.6647 2.1324 3.3549 1.9267 2.7316 2.0817 3.4299 1.8618 2.7975 2.0294 2.8279 2.0058 3.5383 1.7649 2.8924 1.9513 3.6104 1.6956 2.9559 1.8953 3.6811 1.6244 3.0184 1.8378 3.0472 1.8118 3.783 1.5186 3.1081 1.7522 3.8504 1.4431 3.1679 1.6912 3.9164 1.366 3.9503 1.3225 3.9837 1.2785 3.2874 1.5578 4.0465 1.1979 3.3435 1.4924 4.1078 1.1157 3.3984 1.4258 4.1675 1.032 3.452 1.3578 4.9734 0.56452 3.5071 1.2808 4.2839 0.85039 4.3123 0.80163 3.5842 1.1704 4.3659 0.71234 3.6329 1.0978 4.4178 0.62162 4.4437 0.57087 3.7045 0.98255 4.4928 0.47799 4.5172 0.4261 4.541 0.37382 4.5642 0.32117 3.8171 0.77883 4.6084 0.22479 4.63 0.17108 3.8791 0.6563 4.6713 0.0728 4.6913 0.018 3.9373 0.53128 4.7296-0.0821 4.7478-0.13782 3.2168 0.99986 4.7835-0.22931 4.8002-0.2859 4.0417 0.28296 4.8324-0.38942 4.8473-0.44687 4.0886 0.15118 4.1032 0.11275 4.8908-0.59957 4.1315 0.0263 4.145-0.0127 4.9299-0.75436 4.1708-0.10029 4.1832-0.13983 4.1953-0.17953 4.9758-0.96018 4.2178-0.26865 4.2288-0.30886 4.2394-0.34924 3.4838 0.38795 5.0255-1.2081 3.5052 0.32507 5.0424-1.3085 3.5256 0.2617 4.297-0.58517 3.5445 0.20559 3.5534 0.18126 4.3238-0.69077 4.3311-0.73249 3.5798 0.0922 2.8277 0.94032 4.3565-0.82987 3.6041 0.0181 3.6119-7e-3 3.6196-0.0317 2.8668 0.85543 3.6347-0.0738 3.6419-0.0989 2.8873 0.8102 3.6563-0.14137 2.135 1.7289 2.9039 0.7773 3.6778-0.19335 2.1463 1.7149 2.9201 0.74421 2.1501 1.7102 2.9292 0.72846 2.1537 1.7055 2.9382 0.71265 2.1575 1.7008" style="fill:none;stroke-width:2;stroke:#ff7900"/>
  <path id="civsonvzhod" d="m556.67 500.61-0.77451-2.6358-0.77452-2.6358-1.549-5.2716-0.5725-2.6949-1.5375-5.275-0.54934-2.7012-0.53769-2.704-0.52603-2.7069-0.51435-2.7096-0.50267-2.7124-0.73995-2.6457-0.4852-2.7167-0.4735-2.7193-0.46178-2.7219-0.45006-2.7245-0.15966-2.8014-0.42063-2.7305-0.11813-2.8084-0.39114-2.7361-0.37937-2.7385-0.0587-2.8181-0.34979-2.7438-0.017-2.8241 7e-3 -2.827-0.30235-2.7516 0.0488-2.8323 0.41855-2.9126-0.24875-2.7592 0.12101-2.8392 0.14513-2.8411 0.53972-2.9196-0.17708-2.7679 0.21756-2.846 0.63083-2.9226 0.27214-2.848 0.29635-2.849 0.72848-2.9222 0.35103-2.8497 0.37528-2.8501 0.82625-2.9194 0.43002-2.8496 0.4543-2.8495 0.9241-2.9144 0.96095-2.9108 0.5396-2.846 1.0283-2.9048 0.5944-2.8429 1.0956-2.8977 1.1324-2.8924 1.1692-2.8869 0.71015-2.8326 1.2365-2.8774 1.2732-2.8708 0.79532-2.8228 1.861-2.8976 0.85612-2.8138 1.4135-2.844 1.45-2.8358 1.4865-2.8271 1.5229-2.8181 1.5593-2.8088 1.5956-2.7991 1.6319-2.789 1.6681-2.7786 1.7042-2.7679 1.7403-2.7568 1.7762-2.7453 1.8122-2.7335 1.848-2.7213 1.8837-2.7088 1.9194-2.6959 1.955-2.6827 1.9905-2.6691 2.661-2.6226 2.0669-2.6364 2.102-2.6217 2.1371-2.6066 2.172-2.5912 2.2069-2.5755 2.2416-2.5594 2.9509-2.4758 2.3162-2.5212 2.3505-2.504 3.0756-2.4024 2.4242-2.4633 2.458-2.445 2.4918-2.4264 2.5254-2.4074 2.5589-2.3881 2.5922-2.3685 3.3528-2.2244 2.6635-2.3224 2.6964-2.3017 2.729-2.2807 3.5086-2.1099 2.7988-2.2316 2.8309-2.2095 3.6241-2.0174 2.8994-2.158 2.931-2.1349 2.9624-2.1114 3.7729-1.8906 3.0291-2.057 3.0599-2.0325 3.8826-1.789 3.1252-1.9758 3.1553-1.9504 3.9897-1.6834 3.2191-1.8915 3.2486-1.865 4.094-1.574 2.4908-2.0754 3.3358-1.7838 4.1921-1.4701 3.3966-1.7208 3.4247-1.6924 4.2907-1.3536 3.4838-1.6273 4.3557-1.2707 2.6938-1.8959 3.5652-1.5387 4.4464-1.1578 3.6215-1.4702 3.6476-1.4395 3.6734-1.4085 3.699-1.3772 3.7244-1.3456 4.6215-0.91294 2.9024-1.6825 4.6764-0.83191 3.8259-1.2083 2.9672-1.6094 4.7562-0.70799 3.897-1.1086 3.0302-1.5344 4.833-0.58126 3.0712-1.4834 3.9859-0.98079 4.008-0.94609 4.0298-0.91114 3.1478-1.3859 4.0708-0.84938 4.0919-0.81375 3.2025-1.3126 4.1315-0.75078 4.1517-0.71448 3.2557-1.2379 3.2713-1.2174 4.208-0.62256 3.3047-1.1689 4.2449-0.55733 3.3374-1.1198 3.3523-1.0987 3.3671-1.0775 4.3149-0.43412 2.4631-1.6568 3.4107-1.0132 3.425-0.99159 3.4392-0.96985 3.4532-0.94799 2.5197-1.591 3.479-0.91158 3.4927-0.88945 1.5953-2.2366 3.516-0.86025 2.568-1.5348 3.541-0.82312 2.5877-1.5109 2.5958-1.5017 2.6039-1.4924 2.612-1.4832 1.639-2.2048 3.6091-0.73367 1.6486-2.1976 2.6408-1.4516 1.6533-2.1941 1.6533-2.194 2.6583-1.435 1.6581-2.1904 0.6436-2.9567" style="fill:none;stroke-width:2;stroke:#ff7900"/>
  <path id="civsonzahod" d="m556.15 659.24-0.79175 2.6307-0.60734 2.686-1.572 5.2648-0.78601 2.6324-0.5785 2.6941-0.56687 2.6971-0.55524 2.7-0.99379 2.5716-0.54373 2.7034-0.76876 2.6375-0.52632 2.7079-0.51466 2.7107-0.50297 2.7134-0.23093 2.7893-0.47365 2.7199-0.46195 2.7225-0.45022 2.7251-0.1542 2.8042-0.42079 2.7311-0.11267 2.8112-0.0888 2.8147-0.37356 2.74-0.0471 2.821-0.34398 2.7452-5e-3 2.827 0.35178 2.9086-0.29051 2.7536 0.0667 2.8349 0.0907 2.8372 0.11482 2.8394 0.13893 2.8414 0.16304 2.8433 0.5637 2.922 0.21756 2.846 0.24173 2.8474 0.66124 2.9232 0.29635 2.849 0.32058 2.8498 0.75893 2.922 0.37528 2.8501 0.82625 2.9194 0.8631 2.9167 0.46052 2.8485 0.93045 2.9124 0.5153 2.8467 1.4561 2.9667 0.5763 2.8427 0.6006 2.8416 1.5791 2.9491 0.66158 2.8361 1.6653 2.9331 0.72251 2.8295 1.249 2.8719 1.2857 2.8652 1.3223 2.8581 1.359 2.8507 1.3955 2.8429 0.89872 2.805 2.0018 2.8559 1.505 2.8173 1.5413 2.8081 1.5776 2.7985 1.6139 2.7886 1.6501 2.7783 1.6862 2.7677 2.3044 2.7573 1.7643 2.7415 1.8001 2.7297 1.8359 2.7176 1.8717 2.7051 2.519 2.6716 1.9487 2.6748 1.9841 2.6612 2.6485 2.6122 1.4256 2.6679 2.0898 2.6183 2.771 2.5545 2.1654 2.5832 2.2002 2.5674 2.8977 2.4867 2.2749 2.5299 2.983 2.437 2.349 2.4906 2.3831 2.473 3.1068 2.3619 2.4562 2.4314 2.4898 2.4126 3.2286 2.2826 2.5619 2.3686 2.5951 2.3488 3.3485 2.1992 2.666 2.3024 3.4288 2.1387 2.7361 2.2543 2.7684 2.2327 3.5449 2.0483 2.8373 2.1824 2.869 2.1597 3.6588 1.9539 2.9366 2.1071 3.7346 1.886 3.0032 2.0529 3.034 2.0285 3.8442 1.7848 3.0992 1.972 3.917 1.7124 2.3714 2.1553 3.1889 1.895 4.0185 1.6135 3.2516 1.835 4.0881 1.5369 3.3133 1.7735 3.3418 1.7459 4.1884 1.4232 3.4019 1.6823 4.2546 1.3422 3.4608 1.6173 3.488 1.5881 4.3497 1.2224 3.5452 1.5211 3.5717 1.4909 3.5979 1.4605 4.4706 1.0606 3.6527 1.3909 3.6781 1.3596 3.7033 1.328 3.7282 1.2962 4.6132 0.85252 3.7799 1.2234 3.804 1.1907 3.8278 1.1578 3.8513 1.1245 3.8746 1.091 3.8976 1.0573 4.7968 0.5511 3.0661 1.4613 4.8456 0.46512 3.1059 1.4093 4.0082 0.88487 4.0296 0.84964 4.0505 0.81417 4.0712 0.77847 4.0916 0.74253 3.2174 1.2558 4.1301 0.67896 4.1497 0.64237 3.2692 1.1802 4.1867 0.57764 3.302 1.1314 4.2228 0.51219 3.3341 1.082 4.258 0.44602 3.3656 1.0321 3.3799 1.0106 3.3941 0.98899 3.4082 0.96735 3.4222 0.9455 4.3567 0.2623 3.4518 0.8941 2.5408 1.5483 3.4769 0.8572 3.4902 0.835 3.5034 0.8126 2.5833 1.4948 2.5913 1.4857 2.5993 1.4763 3.5502 0.7452 2.6184 1.452 3.5739 0.7072 1.6866 2.1686 2.6421 1.4238 3.6068 0.6616 1.7008 2.1575 2.6654 1.3953 1.7055 2.1537 2.6779 1.382 1.7102 2.1501 2.6903 1.3687 1.7149 2.1463 1.7149 2.1462 2.7073 1.3516" style="fill:none;stroke-width:2;stroke:#ff7900"/>
  <circle cx="580" cy="580" r="579.77" style="fill:none;paint-order:markers fill stroke;stroke:none"/>
 </g>
</svg>
