<?xml version="1.0" encoding="UTF-8" standalone="no"?>
<svg
   display="flex"
   float="center"
   position="absolute"
   version="2.1"
   viewBox="0 0 1160 1160"
   viewbox="0 0 1160 1160"
   id="svg14"
   sodipodi:docname="dnevne_crte2.svg"
   inkscape:version="1.1.2 (0a00cf5339, 2022-02-04)"
   xmlns:inkscape="http://www.inkscape.org/namespaces/inkscape"
   xmlns:sodipodi="http://sodipodi.sourceforge.net/DTD/sodipodi-0.dtd"
   xmlns="http://www.w3.org/2000/svg"
   xmlns:svg="http://www.w3.org/2000/svg">
  <sodipodi:namedview
     id="namedview15"
     pagecolor="#505050"
     bordercolor="#eeeeee"
     borderopacity="1"
     inkscape:pageshadow="0"
     inkscape:pageopacity="0"
     inkscape:pagecheckerboard="0"
     showgrid="false"
     inkscape:zoom="0.3762931"
     inkscape:cx="357.43413"
     inkscape:cy="818.51088"
     inkscape:window-width="1920"
     inkscape:window-height="1024"
     inkscape:window-x="0"
     inkscape:window-y="0"
     inkscape:window-maximized="1"
     inkscape:current-layer="svg14" />
  <defs
     id="defs18" />
  <circle
     style="display:none;opacity:1;fill:#ffffff;fill-opacity:1;fill-rule:evenodd;stroke:none;stroke-width:69.701;stroke-linecap:round;stroke-linejoin:round;paint-order:stroke fill markers"
     id="circle19404"
     cx="-580"
     cy="580"
     r="579.77002"
     transform="rotate(-90)" />
  <g
     transform="rotate(90,580,580)"
     style="display:inline;fill:none;stroke:#ffffff"
     id="g12">
    <path
       id="circle19416"
       style="display:inline;fill:#b2b2b2;fill-opacity:1;fill-rule:evenodd;stroke:none;stroke-width:69.701;stroke-linecap:round;stroke-linejoin:round;paint-order:stroke fill markers"
       d="m 411.36523,520.28125 c -1.00166,0.0584 -2.11119,0.51105 -3.11328,0.58008 -1.00209,0.069 -1.88013,-0.15536 -2.85742,-0.13281 -0.97729,0.0226 -2.01404,0.24551 -2.99219,0.27734 -0.97815,0.0318 -1.88505,-0.12073 -2.86523,-0.0781 -0.98018,0.0426 -2.0191,0.29182 -3,0.34375 -0.9809,0.0519 -1.86382,-0.1499 -2.875,-0.0234 -1.01118,0.12647 -2.12184,0.68698 -3.13281,0.82422 -1.01097,0.13724 -1.89597,-0.0498 -2.88086,0.0352 -0.98489,0.085 -2.00787,0.31828 -3.01172,0.48633 -1.00385,0.16805 -2.02564,0.41781 -3.01172,0.52344 -0.98608,0.10563 -1.9031,0.003 -2.89062,0.11914 -0.98753,0.1165 -2.01011,0.38696 -3.01563,0.58984 -1.00552,0.20288 -2.01184,0.41171 -3.01758,0.62695 -1.00574,0.21525 -2.01176,0.43839 -3.01758,0.66602 -1.00582,0.22763 -2.00985,0.46116 -3.01562,0.70117 -1.00577,0.24001 -2.01196,0.48587 -3.01758,0.73828 -1.00562,0.25241 -2.01223,0.51058 -3.01758,0.77539 -1.00535,0.26481 -2.01067,0.53527 -3.01562,0.8125 -1.00495,0.27723 -2.00923,0.56193 -3.01367,0.85157 -1.00444,0.28964 -2.00792,0.58466 -3.01172,0.88672 -1.0038,0.30206 -1.98535,0.52829 -3.00977,0.92578 -1.02442,0.39749 -2.09804,1.15368 -3.11328,1.47265 -1.01524,0.31897 -1.88446,0.15559 -2.90039,0.48828 -1.01593,0.33269 -2.0822,1.12209 -3.10156,1.56055 -1.01936,0.43846 -1.99805,0.71565 -2.9961,1.08203 -0.99805,0.36638 -1.99551,0.73838 -2.99218,1.11719 -0.99667,0.37881 -1.97382,0.67358 -2.98829,1.1543 -1.01447,0.48072 -2.06104,1.24949 -3.07226,1.74414 -1.01122,0.49465 -1.98566,0.8181 -2.97656,1.23633 -0.9909,0.41823 -1.97973,0.84278 -2.96875,1.27343 -0.98902,0.43065 -1.97783,0.8675 -2.96485,1.31055 -0.98702,0.44305 -1.95496,0.79735 -2.95703,1.34766 -1.00207,0.55031 -2.02735,1.40459 -3.02539,1.96875 -0.99804,0.56416 -1.96217,0.94541 -2.94141,1.42773 -0.97924,0.48232 -1.95687,0.97016 -2.93359,1.46484 -0.97672,0.49468 -1.93651,0.89771 -2.92578,1.50391 -0.98927,0.6062 -1.99389,1.52848 -2.97852,2.14844 -0.98463,0.61996 -1.93895,1.04825 -2.90625,1.58203 -0.9673,0.53378 -1.91871,0.97266 -2.89648,1.62109 -0.97777,0.64843 -1.96289,1.6211 -2.93555,2.28321 -0.97266,0.66211 -1.91836,1.12849 -2.875,1.70117 -0.95664,0.57268 -1.91199,1.15141 -2.86523,1.73633 -0.95324,0.58492 -1.90575,1.1763 -2.85547,1.77343 -0.94972,0.59713 -1.88718,1.09166 -2.84375,1.8086 -0.95657,0.71694 -1.90673,1.7754 -2.85742,2.50586 -0.95069,0.73046 -1.88131,1.25299 -2.81836,1.88867 -0.93705,0.63568 -1.8632,1.16725 -2.80469,1.92578 -0.94149,0.75853 -1.86955,1.86675 -2.80469,2.63867 -0.93514,0.77192 -1.85419,1.32996 -2.77734,2.00391 -0.92315,0.67395 -1.83671,1.24122 -2.76172,2.04101 -0.92501,0.79979 -1.82982,1.95844 -2.74805,2.77149 -0.91823,0.81305 -1.81778,1.28942 -2.73047,2.11719 -0.91268,0.82777 -1.79949,2.0204 -2.70507,2.86132 -0.90558,0.84092 -1.80052,1.45765 -2.69727,2.19532 -0.89675,0.73767 -1.7877,1.36208 -2.68164,2.23047 -0.89394,0.86838 -1.75229,2.11082 -2.63867,2.99218 -0.88638,0.88136 -1.76692,1.53162 -2.64649,2.30664 -0.87957,0.77502 -1.75701,1.43516 -2.63086,2.34375 -0.87384,0.90859 -1.70249,2.19969 -2.56835,3.1211 -0.86586,0.92141 -1.73058,1.606 -2.5918,2.41797 -0.86122,0.81197 -1.7188,1.62957 -2.57422,2.45312 -0.85542,0.82355 -1.70909,1.65318 -2.55859,2.48828 -0.8495,0.8351 -1.69558,1.67487 -2.53907,2.52149 -0.84349,0.84662 -1.68961,1.5729 -2.52148,2.55859 -0.83187,0.98569 -1.59887,2.36905 -2.42188,3.36719 -0.82301,0.99814 -1.65568,1.74816 -2.47851,2.63086 -0.82283,0.8827 -1.65107,1.63964 -2.45899,2.66406 -0.80792,1.02442 -1.53928,2.45358 -2.33789,3.49023 -0.79861,1.03665 -1.61308,1.82002 -2.41406,2.73828 -0.80098,0.91827 -1.60992,1.70896 -2.39258,2.77149 -0.78266,1.06253 -1.47902,2.53874 -2.25195,3.61328 -0.77293,1.07454 -1.5677,1.88853 -2.3457,2.8418 -0.778,0.95327 -1.55149,1.91269 -2.32227,2.87695 -0.77078,0.96426 -1.55295,1.79634 -2.30078,2.9082 -0.74783,1.11186 -1.34295,2.78924 -2.13281,3.76954 -0.78986,0.98028 -1.6209,1.29089 -2.4043,2.14843 -0.7834,0.85754 -1.51224,1.85892 -2.23437,3.00586 -0.72213,1.14694 -1.33151,2.72247 -2.04297,3.88086 -0.71146,1.15839 -1.45874,2.04556 -2.18164,3.07617 -0.7229,1.03061 -1.46348,1.9245 -2.15625,3.10742 -0.69277,1.18294 -1.26167,2.80005 -1.94336,3.99415 -0.68169,1.1941 -1.36181,2.25745 -2.10157,3.17578 -0.73976,0.91833 -1.55099,1.27159 -2.27929,2.34179 -0.7283,1.0702 -1.19427,2.8739 -1.84766,4.10157 -0.65339,1.22767 -1.35451,2.17496 -2.02539,3.26953 -0.67088,1.09457 -1.33778,2.19409 -2,3.29883 -0.66222,1.10474 -1.32118,2.21523 -1.97461,3.33007 -0.65343,1.11484 -1.30074,2.23451 -1.94531,3.35938 -0.64457,1.12487 -1.31884,2.10498 -1.92188,3.38867 -0.60304,1.28369 -0.9706,3.17203 -1.63671,4.31445 -0.66612,1.14242 -1.44888,1.54962 -2.1211,2.55469 -0.67222,1.00507 -1.26599,2.16311 -1.83789,3.47852 -0.5719,1.31541 -0.89387,3.23958 -1.5332,4.41211 -0.63933,1.17253 -1.41039,1.59846 -2.0586,2.63086 -0.64821,1.0324 -1.11319,2.52666 -1.7539,3.5664 -0.64071,1.03974 -1.40824,1.47326 -2.02344,2.67578 -0.6152,1.20252 -0.79168,3.32872 -1.39648,4.53907 -0.6048,1.21035 -1.36327,1.65804 -1.98047,2.72461 -0.6172,1.06656 -1.09968,2.44639 -1.64258,3.67578 -0.5429,1.22939 -1.08234,2.46259 -1.61524,3.70117 -0.5329,1.23858 -0.98983,2.63751 -1.58203,3.72851 -0.5922,1.091 -1.31343,1.71654 -1.89843,2.81641 -0.585,1.09987 -1.02635,2.51672 -1.53125,3.78125 -0.5049,1.26453 -1.00355,2.53325 -1.49805,3.80664 -0.4945,1.27339 -0.90975,2.71045 -1.46875,3.83398 -0.559,1.12355 -1.2111,1.93446 -1.8125,2.90626 -0.6014,0.97179 -1.25002,1.78457 -1.79492,2.92382 -0.5449,1.13925 -0.93118,2.60016 -1.38867,3.90625 -0.4575,1.30609 -0.83023,2.77569 -1.35743,3.92969 -0.5272,1.154 -1.15657,1.99081 -1.73047,2.99024 -0.5739,0.99941 -1.14489,2.00222 -1.71289,3.00781 -0.568,1.00559 -1.18971,1.84926 -1.69531,3.02539 -0.5056,1.17613 -0.8388,2.67836 -1.25,4.02344 -0.4112,1.34508 -0.7296,2.85658 -1.2168,4.04687 -0.4872,1.19029 -1.08765,2.05559 -1.62695,3.08789 -0.5393,1.0323 -1.07617,2.06718 -1.60937,3.10547 -0.5332,1.03829 -1.06285,2.08076 -1.58985,3.125 -0.527,1.04424 -1.04961,2.09047 -1.57031,3.14063 -0.5207,1.05015 -0.94143,2.26941 -1.55273,3.16015 -0.6113,0.89074 -1.40432,1.27741 -2.01172,2.17383 -0.6074,0.89642 -1.01749,2.12484 -1.52149,3.19141 -0.504,1.06657 -1.00435,2.13663 -1.50195,3.20898 -0.4976,1.07235 -0.99318,2.14651 -1.48438,3.22461 -0.4912,1.0781 -0.87499,2.32806 -1.46289,3.24414 -0.5879,0.91608 -1.37117,1.31856 -1.95507,2.24023 -0.5839,0.92167 -0.95765,2.17932 -1.43165,3.27344 -0.47399,1.09412 -0.8377,2.3605 -1.4121,3.29102 -0.5744,0.93052 -1.34963,1.34131 -1.91993,2.27734 -0.5703,0.93603 -0.81496,2.38268 -1.38086,3.32227 -0.5659,0.93959 -1.33869,1.35568 -1.90039,2.30078 -0.5617,0.9451 -0.6355,2.5648 -1.3457,3.35156 -0.7102,0.78676 -1.72344,0.48729 -2.43164,1.2793 -0.7082,0.79201 -0.771566,2.4225 -1.322266,3.3789 -0.5507,0.9564 -1.128181,1.72919 -1.863281,2.3418 -0.7351,0.61261 -1.721228,0.49271 -2.423828,1.29492 -0.7026,0.80221 -0.74055,2.45195 -1.28125,3.41992 -0.5407,0.96797 -1.109544,1.75091 -1.839844,2.3711 -0.7303,0.62019 -1.684962,0.6877 -2.414062,1.31054 -0.7291,0.62285 -1.101678,1.76114 -1.830078,2.38477 -0.7284,0.62363 -1.68491,0.69013 -2.41211,1.31641 -0.7272,0.62628 -1.213559,1.59889 -1.818359,2.40039 -0.6048,0.8015 -1.206494,1.60363 -1.808594,2.4082 -0.6021,0.80457 -0.922134,1.93213 -1.802734,2.41797 -0.8806,0.48584 -2.089166,-0.0394 -3.009766,0.23633 -0.9206,0.27565 -1.68315,0.69209 -2.40625,1.32617 -0.276701,0.24264 -0.476718,0.59296 -0.685547,0.93164 A 579.77002,579.77002 0 0 0 580,1159.7695 579.77002,579.77002 0 0 0 1093.6562,845.97266 c -1.2468,-0.59179 -2.7034,-1.15718 -3.4843,-1.80274 -1.0936,-0.90401 -0.7727,-1.47023 -1.8672,-2.37304 -1.0945,-0.90283 -3.7878,-1.61777 -4.8848,-2.51563 -1.097,-0.89786 -1.1375,-1.74451 -1.8808,-2.35156 -0.7434,-0.60705 -1.7009,-0.64759 -2.4453,-1.25196 -0.7445,-0.60437 -1.1456,-1.73238 -1.8907,-2.33593 -0.7451,-0.60355 -1.7293,-0.45951 -2.4492,-1.24805 -0.7199,-0.78854 -0.7904,-2.4446 -1.3574,-3.39844 -0.567,-0.95384 -1.1643,-1.71078 -1.9141,-2.30664 -0.7497,-0.59586 -1.7318,-0.45417 -2.457,-1.23242 -0.7252,-0.77825 -0.8178,-2.41346 -1.3945,-3.35547 -0.5768,-0.94201 -1.2904,-1.52302 -1.9375,-2.28125 -0.6472,-0.75823 -1.2957,-1.51451 -1.9454,-2.26953 -0.6496,-0.75502 -1.3009,-1.50797 -1.9531,-2.25977 -0.6522,-0.7518 -1.3707,-1.32552 -1.9609,-2.25 -0.5903,-0.92448 -0.9749,-2.19335 -1.4668,-3.28515 -0.492,-1.0918 -0.8847,-2.35017 -1.4844,-3.26563 -0.5997,-0.91546 -1.3886,-1.30308 -1.9922,-2.21289 -0.6036,-0.90981 -0.9097,-2.33026 -1.5176,-3.23633 -0.6078,-0.90607 -1.3398,-1.45952 -2.0117,-2.1875 -0.6718,-0.72798 -1.4048,-1.28338 -2.0195,-2.17968 -0.6147,-0.8963 -1.0373,-2.12936 -1.5606,-3.18946 -0.5232,-1.0601 -1.0486,-2.1177 -1.5781,-3.17187 -0.5295,-1.05417 -1.0619,-2.10415 -1.5976,-3.15234 -0.5357,-1.0482 -1.0753,-2.09452 -1.6172,-3.13672 -0.5419,-1.0422 -1.0867,-2.08102 -1.6348,-3.11719 -0.548,-1.03617 -1.1001,-2.06952 -1.6543,-3.09961 -0.5541,-1.03009 -1.1657,-1.88924 -1.6699,-3.08008 -0.5042,-1.19084 -0.7605,-2.87415 -1.2734,-4.05859 -0.513,-1.18444 -1.1405,-2.03058 -1.7149,-3.04102 -0.5744,-1.01044 -1.1521,-2.01922 -1.7324,-3.02344 -0.5803,-1.00422 -1.1639,-2.00398 -1.75,-3.00195 -0.5861,-0.99797 -1.1737,-1.99268 -1.7656,-2.98437 -0.592,-0.99169 -1.1875,-1.98143 -1.7852,-2.9668 -0.5977,-0.98537 -1.2738,-1.64088 -1.8008,-2.94531 -0.5269,-1.30443 -0.5458,-3.57191 -1.084,-4.86914 -0.5381,-1.29723 -1.2306,-1.93685 -1.8496,-2.90039 -0.619,-0.96354 -1.2858,-1.76381 -1.8652,-2.88086 -0.5794,-1.11705 -0.9496,-2.7102 -1.5371,-3.82032 -0.5875,-1.11012 -1.2666,-1.89522 -1.9043,-2.83789 -0.6377,-0.94267 -1.3408,-1.56605 -1.9199,-2.81836 -0.5792,-1.25231 -0.7012,-3.44867 -1.291,-4.69336 -0.5899,-1.24469 -1.3467,-1.69501 -1.9649,-2.77148 -0.6182,-1.07647 -1.0459,-2.62018 -1.6719,-3.68945 -0.6259,-1.06927 -1.3888,-1.51142 -2.0039,-2.72657 -0.615,-1.21515 -0.8043,-3.36309 -1.4297,-4.57031 -0.6253,-1.20722 -1.3956,-1.63356 -2.0449,-2.67578 -0.6493,-1.04222 -1.1264,-2.54527 -1.7832,-3.58008 -0.6567,-1.03481 -1.4307,-1.45388 -2.0801,-2.63086 -0.6493,-1.17698 -0.907,-3.27457 -1.5664,-4.44336 -0.65937,-1.16879 -1.4439,-1.57293 -2.12301,-2.58007 -0.67911,-1.00714 -1.25342,-2.31599 -1.88672,-3.4668 -0.6333,-1.15081 -1.21813,-2.44732 -1.91211,-3.4375 -0.69398,-0.99018 -1.48685,-1.38018 -2.17773,-2.50781 -0.69088,-1.12763 -1.09957,-3.00711 -1.73047,-4.27735 -0.6309,-1.27024 -1.27758,-2.38388 -1.99414,-3.3457 -0.71656,-0.96182 -1.51201,-1.47948 -2.23438,-2.43164 -0.72237,-0.95216 -1.38071,-2.05209 -2.03906,-3.28906 -0.65835,-1.23697 -1.19344,-2.91073 -1.86328,-4.13672 -0.66984,-1.22599 -1.35038,-2.29938 -2.0957,-3.22266 -0.74532,-0.92328 -1.55585,-1.41077 -2.30664,-2.32422 -0.75079,-0.91345 -1.44471,-1.97407 -2.14063,-3.16601 -0.69592,-1.19194 -1.28332,-2.81158 -1.99023,-3.99219 -0.70691,-1.18061 -1.45816,-2.06878 -2.19336,-3.0957 -0.7352,-1.02692 -1.47575,-2.04825 -2.21875,-3.06446 -0.743,-1.01621 -1.48954,-2.02778 -2.24024,-3.0332 -0.7507,-1.00542 -1.5054,-2.00543 -2.26367,-3 -0.75827,-0.99457 -1.51942,-1.98313 -2.28516,-2.9668 -0.76572,-0.98367 -1.54914,-1.8267 -2.30859,-2.93554 -0.75945,-1.10884 -1.43559,-2.6296 -2.20508,-3.72657 -0.76949,-1.09697 -1.56982,-1.91432 -2.35937,-2.86328 -0.78955,-0.94896 -1.58236,-1.89226 -2.37891,-2.83008 -0.79655,-0.93782 -1.57052,-2.00617 -2.40039,-2.79687 -0.82987,-0.7907 -1.67759,-1.05079 -2.51953,-1.95898 -0.84194,-0.9082 -1.53314,-2.49669 -2.3418,-3.53321 -0.80866,-1.03652 -1.63555,-1.80251 -2.45898,-2.69531 -0.82343,-0.8928 -1.65058,-1.78067 -2.48047,-2.66211 -0.82989,-0.88144 -1.6689,-1.62907 -2.5,-2.62695 -0.8311,-0.99788 -1.60932,-2.38378 -2.44922,-3.36914 -0.8399,-0.98536 -1.69064,-1.70754 -2.54101,-2.55274 -0.85037,-0.8452 -1.70421,-1.68588 -2.56055,-2.51953 -0.85634,-0.83365 -1.71749,-1.53637 -2.57813,-2.48242 -0.86064,-0.94605 -1.67995,-2.26986 -2.54882,-3.20313 -0.86887,-0.93327 -1.74194,-1.61138 -2.61719,-2.4082 -0.87525,-0.79682 -1.75405,-1.58796 -2.63477,-2.37305 -0.88072,-0.78509 -1.76432,-1.56459 -2.65039,-2.33789 -0.88607,-0.7733 -1.77471,-1.54123 -2.66601,-2.30273 -0.8913,-0.7615 -1.78522,-1.51596 -2.68164,-2.26563 -0.89642,-0.74967 -1.79182,-1.37756 -2.69727,-2.23242 -0.90545,-0.85486 -1.79045,-2.06649 -2.70312,-2.9082 -0.91269,-0.84171 -1.81782,-1.44235 -2.73047,-2.1543 -0.91265,-0.71195 -1.82687,-1.41722 -2.74414,-2.11719 -0.91727,-0.69997 -1.83099,-1.28107 -2.75977,-2.08203 -0.92878,-0.80096 -1.84779,-1.94871 -2.7832,-2.73632 -0.93541,-0.78762 -1.85717,-1.34209 -2.78907,-2.00391 -0.9319,-0.66182 -1.86671,-1.31708 -2.80273,-1.9668 -0.93602,-0.64972 -1.86272,-1.18517 -2.8125,-1.93164 -0.94978,-0.74647 -1.88893,-1.94292 -2.85742,-2.55859 -0.96849,-0.61567 -1.85846,-0.69332 -2.80664,-1.19336 -0.94818,-0.50004 -1.88677,-1.11547 -2.84961,-1.82227 -0.96284,-0.7068 -1.93198,-1.73845 -2.90039,-2.43164 -0.96841,-0.69319 -1.9135,-1.16573 -2.87305,-1.74023 -0.95955,-0.5745 -1.90862,-1.04027 -2.88477,-1.70508 -0.97614,-0.66481 -1.96599,-1.64579 -2.94726,-2.29688 -0.98127,-0.65109 -1.93606,-1.08948 -2.90625,-1.625 -0.97019,-0.53552 -1.94099,-1.06469 -2.91406,-1.58789 -0.97307,-0.5232 -1.94799,-1.03991 -2.92383,-1.55078 -0.97584,-0.51087 -1.95317,-1.01515 -2.93164,-1.51367 -0.97847,-0.49852 -1.94207,-0.89618 -2.93946,-1.47852 -0.99738,-0.58232 -2.01989,-1.46081 -3.02148,-2.02929 -1.00159,-0.56848 -1.97874,-1.03386 -2.95703,-1.39453 -0.97829,-0.36067 -1.87553,-0.34522 -2.88086,-0.78321 -1.00533,-0.43799 -2.04152,-1.37037 -3.05078,-1.89843 -1.00926,-0.52806 -1.99394,-0.95843 -2.97656,-1.28516 -0.98262,-0.32673 -1.88068,-0.28849 -2.89063,-0.68945 -1.00995,-0.40096 -2.06044,-1.28 -3.07617,-1.76758 -1.01573,-0.48758 -1.99252,-0.78912 -2.99023,-1.17383 -0.99772,-0.38471 -1.99696,-0.76248 -2.9961,-1.13476 -0.99914,-0.37229 -1.99956,-0.73781 -3,-1.09766 -1.00044,-0.35985 -2.00035,-0.71314 -3.00195,-1.06055 -1.0016,-0.34741 -2.00516,-0.68846 -3.00781,-1.02344 -1.00265,-0.33498 -2.00422,-0.66378 -3.00782,-0.98632 -1.0036,-0.32254 -2.00925,-0.63911 -3.01367,-0.94922 -1.00442,-0.31011 -2.00857,-0.61443 -3.01367,-0.91211 -1.0051,-0.29768 -2.00994,-0.58974 -3.01563,-0.875 -1.00569,-0.28526 -2.01142,-0.5631 -3.01757,-0.83594 -1.00615,-0.27284 -2.02914,-0.62109 -3.01954,-0.80078 -0.9904,-0.17969 -1.91289,-0.12225 -2.90234,-0.29102 -0.98945,-0.16877 -2.01129,-0.4946 -3.01758,-0.73242 -1.00629,-0.23782 -2.01323,-0.46988 -3.01953,-0.69531 -1.0063,-0.22543 -2.01333,-0.4432 -3.01953,-0.65625 -1.0062,-0.21305 -2.01161,-0.4204 -3.01758,-0.62109 -1.00597,-0.20069 -2.0298,-0.46965 -3.01758,-0.58399 -0.98778,-0.11434 -1.92753,-0.0793 -2.89062,-0.11328 -0.96309,-0.034 -1.87342,0.0696 -2.88672,-0.0898 -1.0133,-0.15939 -2.12496,-0.75769 -3.13867,-0.90625 -1.01371,-0.14856 -1.89751,0.0428 -2.88086,-0.0293 -0.98335,-0.0721 -2.02306,-0.34938 -3.00586,-0.41211 -0.9828,-0.0627 -1.8941,0.0773 -2.875,0.0254 -0.9809,-0.0519 -2.01982,-0.30115 -3,-0.34375 -0.98018,-0.0426 -1.91037,0.0477 -2.86523,0.0781 -0.95486,0.0304 -1.88665,0.12639 -2.86329,0.10351 -0.97664,-0.0229 -2.01063,-0.23444 -2.98632,-0.24805 -0.97569,-0.0136 -1.88012,0.15914 -2.85352,0.15625 -0.9734,-0.003 -2.00426,-0.18798 -2.97656,-0.18164 -0.9723,0.006 -1.89681,0.1368 -2.84375,0.21094 -0.94694,0.0741 -1.86987,0.20847 -2.83789,0.23438 -0.96802,0.0259 -1.99426,-0.12103 -2.96094,-0.0859 -0.96668,0.0351 -1.86409,0.24334 -2.82813,0.28906 -0.96403,0.0457 -2.00274,-0.13173 -2.94921,-0.0195 -0.94647,0.1122 -1.76966,0.4926 -2.6875,0.66406 -0.91784,0.17146 -1.87488,0.23611 -2.81055,0.35938 -0.93567,0.12327 -1.87105,0.2498 -2.80469,0.38086 -0.93364,0.13106 -1.8653,0.26545 -2.79687,0.40429 -0.93157,0.13884 -1.88028,0.23116 -2.79102,0.42774 -0.91074,0.19658 -1.73203,0.58846 -2.66406,0.74609 -0.93203,0.15763 -1.96964,0.018 -2.90039,0.18164 -0.93075,0.16367 -1.76891,0.51743 -2.65235,0.7793 -0.88344,0.26187 -1.746,0.56983 -2.64843,0.79101 -0.90243,0.22119 -1.85876,0.30523 -2.75977,0.53126 -0.90101,0.22603 -1.74017,0.58778 -2.63867,0.82031 -0.8985,0.23253 -1.84908,0.3349 -2.74609,0.57226 -0.89701,0.23736 -1.73446,0.60383 -2.62891,0.84766 -0.89445,0.24383 -1.83949,0.3627 -2.73242,0.61133 -0.89293,0.24863 -1.74734,0.5831 -2.61914,0.87695 -0.8718,0.29385 -1.74294,0.58915 -2.61328,0.88672 -0.87034,0.29757 -1.73858,0.59715 -2.60743,0.89844 -0.86885,0.30129 -1.73811,0.60515 -2.60546,0.91015 -0.86735,0.305 -1.73376,0.61121 -2.59961,0.91992 -0.86585,0.30872 -1.76022,0.54868 -2.59571,0.93165 -0.83549,0.38297 -1.56392,0.97271 -2.39844,1.35742 -0.83451,0.38471 -1.72717,0.62732 -2.58984,0.94336 -0.86267,0.31604 -1.7248,0.63339 -2.58594,0.95312 -0.86114,0.31973 -1.31398,0.43318 -2.58203,0.96485 -1.26805,0.53167 -3.71298,1.78518 -4.97851,2.32226 -1.26553,0.53708 -1.72862,0.6272 -2.57227,0.98633 -0.84365,0.35913 -1.65723,0.77718 -2.48633,1.16601 -0.8291,0.38883 -2.48828,1.16602 -2.48828,1.16602 l -149.67969,-0.33008 -2.48242,-1.17578 c -1.2411,-0.58865 -3.70161,-1.81284 -4.96484,-2.35547 -1.26323,-0.54263 -1.71102,-0.6632 -2.56836,-0.99219 -0.85734,-0.32898 -1.74547,-0.58868 -2.57617,-0.98046 -0.8307,-0.39178 -1.56286,-0.97325 -2.39453,-1.36328 -0.83167,-0.39004 -1.71949,-0.64903 -2.58008,-0.97071 -0.86059,-0.32168 -1.72185,-0.64099 -2.58399,-0.95898 -0.86214,-0.31799 -1.72422,-0.63492 -2.58789,-0.94922 -0.86367,-0.3143 -1.74498,-0.58919 -2.59375,-0.9375 -0.84877,-0.34831 -1.64408,-0.80478 -2.49414,-1.15039 -0.85006,-0.34561 -1.73209,-0.61484 -2.59961,-0.91992 -0.86752,-0.30508 -1.73645,-0.6088 -2.60547,-0.91016 -0.86902,-0.30136 -1.73887,-0.60079 -2.60937,-0.89844 -0.8705,-0.29765 -1.72145,-0.63419 -2.61328,-0.88672 -0.89183,-0.25253 -1.83709,-0.37727 -2.73047,-0.625 -0.89338,-0.24773 -1.74951,-0.57481 -2.625,-0.85937 -0.87549,-0.28456 -1.73116,-0.61106 -2.62891,-0.84766 -0.89775,-0.2366 -1.85076,-0.33463 -2.75,-0.5664 -0.89924,-0.23177 -1.71327,-0.63947 -2.63867,-0.82032 -0.9254,-0.18085 -1.95799,-0.0693 -2.88476,-0.24414 -0.92677,-0.17486 -1.74431,-0.57516 -2.6504,-0.78711 -0.90608,-0.21195 -1.86989,-0.27339 -2.77734,-0.48046 -0.90745,-0.20709 -1.72527,-0.60334 -2.66016,-0.75586 -0.93488,-0.15252 -1.96105,-0.043 -2.91406,-0.13477 -0.95301,-0.0918 -1.88328,-0.22516 -2.79687,-0.41211 -0.91359,-0.18695 -1.73591,-0.57548 -2.67774,-0.70508 -0.94183,-0.1296 -1.9758,0.0186 -2.93554,-0.0469 -0.95974,-0.0654 -1.87512,-0.23016 -2.81446,-0.33985 -0.93934,-0.10969 -1.85569,-0.27233 -2.82031,-0.31836 -0.96462,-0.046 -1.991,0.0877 -2.95703,0.0508 -0.96603,-0.0369 -1.90696,-0.12131 -2.83203,-0.26563 -0.92507,-0.14432 -1.75239,-0.51437 -2.70703,-0.5957 -0.95464,-0.0813 -2.00102,0.14893 -2.97266,0.13867 -0.97164,-0.0103 -1.846,-0.25172 -2.84766,-0.19336 z"
       transform="rotate(-90,580,580)" />
    <path
       id="circle19419"
       style="display:inline;fill:#808080;fill-opacity:1;fill-rule:evenodd;stroke:none;stroke-width:69.701;stroke-linecap:round;stroke-linejoin:round;paint-order:stroke fill markers"
       d="m 430.16016,543.67969 c -0.95778,0.0569 -1.96041,0.34456 -2.91016,0.35156 -0.94975,0.007 -1.82059,-0.25292 -2.75391,-0.29102 -0.93332,-0.0381 -1.88862,0.0402 -2.83398,0.0664 -0.94536,0.0262 -1.89178,0.0575 -2.83789,0.0918 -0.94611,0.0342 -1.89108,0.0729 -2.83789,0.11523 -0.94681,0.0423 -1.89434,0.0884 -2.8418,0.13867 -0.94746,0.0503 -1.88055,0.0421 -2.84375,0.16211 -0.9632,0.11998 -1.95881,0.43519 -2.92187,0.56446 -0.96306,0.12926 -1.8968,0.14029 -2.84571,0.21679 -0.94891,0.0765 -1.88335,0.0929 -2.84765,0.24219 -0.9643,0.14927 -1.95988,0.50158 -2.92383,0.66016 -0.96395,0.15858 -1.89785,0.19405 -2.84766,0.29687 -0.94981,0.10282 -1.88683,0.1417 -2.85156,0.32031 -0.96473,0.17861 -1.95775,0.57183 -2.92188,0.75977 -0.96412,0.18794 -1.8851,0.17611 -2.8496,0.375 -0.9645,0.19889 -1.94723,0.54461 -2.91993,0.82617 -0.9727,0.28156 -1.95282,0.64385 -2.91601,0.86328 -0.96319,0.21943 -1.88434,0.23055 -2.84766,0.46094 -0.96332,0.23039 -1.95174,0.68995 -2.91406,0.92969 -0.96232,0.23974 -1.86443,0.19297 -2.8457,0.51562 -0.98127,0.32265 -1.98777,1.12371 -2.9668,1.45703 -0.97903,0.33332 -1.89441,0.38003 -2.8418,0.57618 -0.94739,0.19615 -1.86332,0.24249 -2.84179,0.59961 -0.97847,0.35712 -1.9733,1.2123 -2.94922,1.58007 -0.97592,0.36777 -1.86036,0.27865 -2.83594,0.66016 -0.97558,0.38151 -1.9608,1.27387 -2.93359,1.66602 -0.97279,0.39215 -1.87587,0.39568 -2.83008,0.72265 -0.95421,0.32697 -1.9149,0.8256 -2.8711,1.24805 -0.9562,0.42245 -1.91133,0.85244 -2.86523,1.28711 -0.9539,0.43467 -1.90789,0.87538 -2.85938,1.32226 -0.95149,0.44688 -1.90066,0.89835 -2.84961,1.35743 -0.94894,0.45908 -1.8989,1.01559 -2.84374,1.39648 -0.94485,0.38089 -1.8443,0.42177 -2.80469,0.89844 -0.96039,0.47667 -1.90666,1.41894 -2.85547,2.00195 -0.94881,0.58301 -1.88077,0.99814 -2.81836,1.50586 -0.93759,0.50772 -1.87219,1.0212 -2.80664,1.54102 -0.93445,0.51982 -1.86763,1.04425 -2.79883,1.57617 -0.9312,0.53192 -1.86122,1.07123 -2.78906,1.61523 -0.92784,0.544 -1.853,1.09434 -2.77735,1.65039 -0.92435,0.55605 -1.84162,1.02217 -2.76757,1.68555 -0.92595,0.66338 -1.83753,1.62805 -2.75782,2.30469 -0.92029,0.67664 -1.83029,1.1696 -2.74218,1.76367 -0.91189,0.59407 -1.82062,1.19478 -2.72852,1.80078 -0.9079,0.606 -1.81495,1.218 -2.71875,1.83594 -0.9038,0.61794 -1.80338,1.14096 -2.70508,1.87109 -0.9017,0.73013 -1.77658,1.77637 -2.67187,2.51953 -0.89529,0.74316 -1.78448,1.29375 -2.67383,1.94922 -0.88935,0.65547 -1.77735,1.21192 -2.66211,1.98242 -0.88476,0.7705 -1.71068,1.97573 -2.61133,2.64844 -0.90065,0.67271 -1.78051,0.84157 -2.66797,1.42578 -0.88746,0.58421 -1.75087,1.28126 -2.61914,2.08985 -0.86827,0.80859 -1.69369,1.95013 -2.55469,2.77148 -0.86099,0.82135 -1.72358,1.43842 -2.58203,2.16602 -0.85845,0.7276 -1.71959,1.35102 -2.56836,2.19921 -0.84877,0.84819 -1.64526,2.03767 -2.48632,2.89844 -0.84106,0.86077 -1.69487,1.40046 -2.5293,2.27539 -0.83443,0.87493 -1.61111,2.09504 -2.4375,2.98242 -0.82639,0.88738 -1.66295,1.56092 -2.49023,2.34961 -0.82729,0.78869 -1.65996,1.46912 -2.47266,2.38282 -0.8127,0.9137 -1.55903,2.17952 -2.36328,3.10546 -0.80425,0.92595 -1.62234,1.6327 -2.42969,2.45704 -0.80735,0.82434 -1.62437,1.53833 -2.41406,2.49023 -0.78969,0.9519 -1.50045,2.26456 -2.28125,3.22852 -0.7808,0.96396 -1.58289,1.70299 -2.36914,2.5625 -0.78625,0.85951 -1.58418,1.60418 -2.34961,2.59375 -0.76543,0.98957 -1.44311,2.34822 -2.19922,3.34961 -0.75611,1.00139 -1.55495,1.65114 -2.30274,2.66601 -0.74779,1.01487 -1.4005,2.40121 -2.13867,3.42774 -0.73817,1.02653 -1.50605,1.8189 -2.2539,2.73632 -0.74785,0.91742 -1.51106,1.71614 -2.23243,2.76758 -0.72137,1.05144 -1.33747,2.48206 -2.04882,3.54492 -0.71135,1.06286 -1.45794,1.88683 -2.18164,2.83789 -0.7237,0.95106 -1.46644,1.78179 -2.16016,2.86915 -0.69372,1.08736 -1.26984,2.55967 -1.95313,3.6582 -0.68329,1.09853 -1.43361,1.82611 -2.10742,2.9375 -0.67381,1.11139 -1.22363,2.61201 -1.88672,3.73437 -0.66309,1.12236 -1.37248,1.9977 -2.05273,3.00391 -0.68025,1.00621 -1.38326,1.88712 -2.02734,3.0332 -0.64408,1.14608 -1.1522,2.68698 -1.78516,3.84375 -0.63296,1.15677 -1.3499,1.93039 -1.97266,3.09961 -0.62276,1.16922 -1.03505,2.8718 -1.71289,3.91797 -0.67784,1.04617 -1.46896,1.44471 -2.15429,2.37109 -0.68533,0.92638 -1.30087,1.98819 -1.89454,3.18946 -0.59367,1.20127 -1.03135,2.8061 -1.61328,4.01758 -0.58193,1.21148 -1.26488,2.02847 -1.83593,3.25195 -0.57105,1.22348 -0.97807,2.85441 -1.53711,4.08789 -0.55904,1.23348 -1.18686,2.20331 -1.77344,3.3125 -0.58658,1.10919 -1.20863,2.08635 -1.74609,3.3418 -0.53747,1.25545 -0.89679,2.9243 -1.42188,4.18945 -0.52509,1.26515 -1.17009,2.12567 -1.68359,3.40234 -0.5135,1.27667 -0.84092,2.96778 -1.3418,4.25391 -0.50088,1.28613 -1.08294,2.3028 -1.61719,3.46094 -0.53425,1.15814 -1.10985,2.18116 -1.58789,3.48828 -0.47804,1.30712 -0.7576,3.03336 -1.22265,4.34961 -0.46506,1.31625 -1.01947,2.35876 -1.52149,3.54492 -0.50202,1.18616 -0.99831,2.37733 -1.49023,3.57227 -0.49192,1.19494 -1.03089,2.25173 -1.46094,3.59765 -0.43005,1.34592 -0.64393,3.11612 -1.06055,4.4707 -0.41662,1.35458 -0.93219,2.43054 -1.39062,3.65235 -0.45843,1.22181 -0.91143,2.44749 -1.35938,3.67773 -0.44795,1.23024 -0.89074,2.46454 -1.32812,3.70313 -0.43738,1.23859 -0.9286,2.33667 -1.29688,3.72851 -0.36828,1.39184 -0.49727,3.21337 -0.85156,4.61328 -0.35429,1.39991 -0.82225,2.51531 -1.22461,3.7793 -0.40236,1.26399 -0.79802,2.53271 -1.18945,3.80469 -0.39143,1.27198 -0.77781,2.54826 -1.15821,3.82812 -0.3804,1.27986 -0.75574,2.56391 -1.125,3.85157 -0.36926,1.28766 -0.73178,2.57766 -1.08984,3.87304 -0.35806,1.29538 -0.78001,2.44713 -1.05859,3.89844 -0.27858,1.45131 -0.17251,3.47929 -0.55079,4.79688 -0.37827,1.31759 -1.09324,1.73898 -1.46093,3.0664 -0.36772,1.32742 -0.10903,3.51262 -0.46485,4.84571 -0.35582,1.33308 -1.0142,1.91712 -1.41015,3.10546 -0.39595,1.18834 -0.59567,2.66817 -0.88477,4.00782 -0.2891,1.33965 -0.57229,2.68259 -0.84961,4.02929 -0.27732,1.3467 -0.549,2.69715 -0.81445,4.05078 -0.26545,1.35363 -0.52383,2.71179 -0.77734,4.07227 -0.25351,1.36048 -0.39863,2.86909 -0.74414,4.08984 -0.34553,1.22075 -0.91928,1.99082 -1.25586,3.21875 -0.33658,1.22793 -0.45751,2.74893 -0.67774,4.12891 -0.22023,1.37998 -0.3261,2.91102 -0.64258,4.15039 -0.31648,1.23937 -0.87233,2.02319 -1.17968,3.26953 -0.30735,1.24634 -0.28041,2.93435 -0.57813,4.18555 -0.29772,1.2512 -0.84239,2.04468 -1.13086,3.30273 -0.28847,1.25805 -0.23493,2.95989 -0.51367,4.22266 -0.27874,1.26277 -0.81266,2.06448 -1.08203,3.33398 -0.26937,1.2695 -0.18576,2.98372 -0.44531,4.25782 -0.25955,1.2741 -0.69079,2.24292 -1.03125,3.36718 -0.34046,1.12426 -0.67845,2.2499 -1.01172,3.37891 -0.33327,1.12901 -0.66222,2.26081 -0.98828,3.39453 -0.32606,1.13372 -0.648,2.26979 -0.9668,3.4082 -0.3188,1.13841 -0.72881,2.1206 -0.94531,3.42188 -0.2163,1.30128 -0.0573,3.05192 -0.26368,4.35742 -0.2064,1.3055 -0.46963,2.4472 -0.89453,3.45117 -0.4249,1.00397 -1.12687,1.53222 -1.54687,2.54102 -0.42,1.0088 -0.57542,2.31537 -0.85742,3.47656 -0.282,1.16119 -0.56134,2.32463 -0.83594,3.49024 -0.2746,1.16561 -0.4095,2.48379 -0.8125,3.5039 -0.403,1.02011 -0.99734,1.7196 -1.49414,2.58203 -0.4968,0.86243 -0.99263,1.7267 -1.48633,2.5918 -0.4937,0.8651 -1.08626,1.56816 -1.47656,2.59961 -0.3903,1.03145 -0.35884,2.51661 -0.74414,3.55078 -0.3853,1.03417 -1.07293,1.57837 -1.45313,2.61719 -0.3802,1.03882 -0.14803,2.66765 -0.70703,3.57422 -0.559,0.90657 -1.54927,0.95596 -2.16797,1.6875 -0.6187,0.73154 -1.05543,1.59206 -1.42383,2.64062 -0.3684,1.04856 -0.11031,2.69177 -0.66211,3.60742 -0.5518,0.91565 -1.54355,0.963 -2.15625,1.70118 -0.6127,0.73818 -0.78468,1.92716 -1.39648,2.66601 -0.6118,0.73885 -1.54214,0.96381 -2.15234,1.70508 -0.6102,0.74127 -0.77342,1.93579 -1.38282,2.67773 -0.6094,0.74194 -1.54259,0.96465 -2.15039,1.70899 -0.6078,0.74434 -0.76214,1.9464 -1.36914,2.6914 -0.607,0.745 -1.43108,1.14322 -2.14648,1.71485 -0.34538,0.27597 -0.67557,0.57486 -1.03516,0.82812 A 579.77002,579.77002 0 0 0 580,1159.7695 579.77002,579.77002 0 0 0 1041.0918,929.03711 c -0.374,-0.27419 -0.5985,-0.35563 -0.8379,-0.63477 -0.6258,-0.72973 -0.8069,-1.92916 -1.4336,-2.6582 -0.6266,-0.72904 -1.4639,-1.10124 -2.1953,-1.65234 -0.7314,-0.5511 -1.5647,-0.92858 -2.1934,-1.6543 -0.6286,-0.72572 -0.8217,-1.91557 -1.4511,-2.64062 -0.6294,-0.72506 -1.6245,-0.74265 -2.1973,-1.64844 -0.5728,-0.90579 -0.1596,-2.70484 -0.7344,-3.60938 -0.5747,-0.90454 -1.5702,-0.92059 -2.205,-1.63867 -0.6349,-0.71808 -0.9865,-1.74201 -1.4825,-2.61133 -0.4959,-0.86932 -0.9931,-1.73689 -1.4922,-2.60351 -0.499,-0.86662 -0.9998,-1.73179 -1.5019,-2.59571 -0.5021,-0.86392 -1.1034,-1.56078 -1.5117,-2.58789 -0.4084,-1.02711 -0.409,-2.51674 -0.8223,-3.54101 -0.4133,-1.02427 -1.1169,-1.54892 -1.5352,-2.56836 -0.4182,-1.01944 -0.266,-2.63718 -0.8613,-3.51563 -0.5953,-0.87845 -1.6383,-0.7222 -2.2363,-1.5957 -0.598,-0.8735 -0.5885,-2.33023 -0.8887,-3.49219 -0.3002,-1.16196 -0.4755,-2.47513 -0.9121,-3.48047 -0.4366,-1.00534 -1.1484,-1.51911 -1.5898,-2.51953 -0.4415,-1.00042 -0.6296,-2.30438 -0.9493,-3.45312 -0.3196,-1.14874 -0.6418,-2.29542 -0.9687,-3.43946 -0.3269,-1.14404 -0.6581,-2.28453 -0.9922,-3.42382 -0.3341,-1.13929 -0.5499,-2.42623 -1.0137,-3.41016 -0.4637,-0.98393 -1.2431,-1.31955 -1.6562,-2.46484 -0.4131,-1.14529 -0.1665,-3.02993 -0.4336,-4.31446 -0.2671,-1.28453 -0.7154,-2.24727 -1.0781,-3.36718 -0.3627,-1.11991 -0.7299,-2.23661 -1.0996,-3.35157 -0.3698,-1.11496 -0.8264,-2.07102 -1.1192,-3.33789 -0.2928,-1.26687 -0.2541,-2.98211 -0.5566,-4.24414 -0.3025,-1.26203 -0.8582,-2.04963 -1.1699,-3.30469 -0.3117,-1.25506 -0.3018,-2.95889 -0.6231,-4.20898 -0.3213,-1.25009 -0.8076,-2.18364 -1.2168,-3.27148 -0.40921,-1.08784 -0.9,-2.01863 -1.23827,-3.25586 -0.33827,-1.23723 -0.46867,-2.76984 -0.71289,-4.15039 -0.24422,-1.38055 -0.39377,-2.90739 -0.75195,-4.13282 -0.35818,-1.22543 -0.94549,-1.98308 -1.3125,-3.20117 -0.36701,-1.21809 -0.53726,-2.73134 -0.81446,-4.0918 -0.2772,-1.36046 -0.46109,-2.8664 -0.84765,-4.07226 -0.38656,-1.20586 -0.99153,-1.94815 -1.38672,-3.14649 -0.39519,-1.19834 -0.60256,-2.68964 -0.91211,-4.02929 -0.30955,-1.33965 -0.62415,-2.67744 -0.94531,-4.00977 -0.32116,-1.33233 -0.55613,-2.80586 -0.98047,-3.98437 -0.42434,-1.17851 -1.09668,-1.74811 -1.48438,-3.07227 -0.3877,-1.32416 -0.18064,-3.51382 -0.58007,-4.83203 -0.39943,-1.31821 -1.08286,-1.87522 -1.53516,-3.03125 -0.4523,-1.15603 -0.79603,-2.45298 -1.10742,-3.89648 -0.31139,-1.4435 -0.27683,-3.4621 -0.70899,-4.75586 -0.43216,-1.29376 -1.12824,-1.8334 -1.60937,-2.9668 -0.48113,-1.1334 -0.86047,-2.40804 -1.20899,-3.82617 -0.34852,-1.41813 -0.366,-3.40919 -0.83007,-4.67774 -0.46407,-1.26855 -1.20981,-1.64433 -1.6836,-2.90234 -0.47379,-1.25801 -0.52544,-3.22864 -0.91211,-4.62109 -0.38667,-1.39245 -0.89188,-2.48737 -1.3457,-3.72461 -0.45382,-1.23724 -0.91265,-2.47048 -1.37695,-3.69922 -0.4643,-1.22874 -0.93548,-2.4517 -1.41016,-3.67188 -0.47468,-1.22018 -0.95448,-2.4369 -1.43945,-3.64843 -0.48497,-1.21154 -1.0227,-2.27592 -1.46875,-3.6211 -0.44605,-1.34518 -0.6989,-3.11104 -1.15821,-4.44726 -0.45931,-1.33622 -0.95473,-2.5207 -1.53906,-3.56446 -0.58433,-1.04376 -1.33044,-1.51726 -1.89648,-2.69336 -0.56604,-1.1761 -0.77683,-3.04817 -1.26953,-4.35547 -0.4927,-1.3073 -1.12239,-2.18842 -1.62696,-3.48437 -0.50457,-1.29595 -0.83628,-3.00457 -1.35351,-4.29102 -0.51723,-1.28645 -1.12448,-2.28693 -1.69336,-3.42382 -0.56888,-1.13689 -1.18132,-2.1317 -1.72071,-3.39649 -0.53939,-1.26479 -0.91902,-2.9384 -1.4707,-4.19336 -0.55168,-1.25496 -1.12902,-2.36493 -1.7832,-3.33594 -0.65418,-0.97101 -1.4325,-1.39383 -2.07617,-2.49023 -0.64367,-1.0964 -0.99191,-2.86988 -1.57422,-4.09375 -0.58231,-1.22387 -1.23718,-2.17009 -1.86328,-3.24805 -0.6261,-1.07796 -1.28959,-2.01956 -1.89258,-3.2207 -0.60299,-1.20114 -1.06905,-2.79756 -1.6836,-3.98828 -0.61455,-1.19072 -1.29483,-2.10949 -1.94921,-3.15625 -0.65438,-1.04676 -1.34214,-1.95752 -1.97657,-3.125 -0.63443,-1.16748 -1.14346,-2.72605 -1.78906,-3.88281 -0.6456,-1.15676 -1.3516,-2.04571 -2.0332,-3.06055 -0.6816,-1.01484 -1.39196,-1.89431 -2.05664,-3.02734 -0.66468,-1.13303 -1.21519,-2.6514 -1.89063,-3.77344 -0.67544,-1.12204 -1.4036,-1.98065 -2.11133,-2.96289 -0.70773,-0.98224 -1.41926,-1.9599 -2.13476,-2.93164 -0.7155,-0.97174 -1.45585,-1.81201 -2.15821,-2.89844 -0.70235,-1.08643 -1.30497,-2.54991 -2.01757,-3.625 -0.7126,-1.07509 -1.46879,-1.89179 -2.20899,-2.83008 -0.7402,-0.93829 -1.50262,-1.74854 -2.23242,-2.79883 -0.7298,-1.05029 -1.36975,-2.46912 -2.10937,-3.50781 -0.73962,-1.03869 -1.51555,-1.82623 -2.2793,-2.73047 -0.76375,-0.90424 -1.53204,-1.80199 -2.30274,-2.69531 -0.7707,-0.89332 -1.55856,-1.66243 -2.32226,-2.66406 -0.7637,-1.00163 -1.45162,-2.36379 -2.22461,-3.35352 -0.77299,-0.98973 -1.57636,-1.73328 -2.36914,-2.5918 -0.79278,-0.85852 -1.58745,-1.7112 -2.38672,-2.55859 -0.79927,-0.84739 -1.60255,-1.68918 -2.4082,-2.52539 -0.80565,-0.83621 -1.61386,-1.66722 -2.42578,-2.49219 -0.81192,-0.82497 -1.62725,-1.64333 -2.44532,-2.45703 -0.81807,-0.8137 -1.64659,-1.50848 -2.46289,-2.42383 -0.8163,-0.91535 -1.57774,-2.17319 -2.40234,-3.07617 -0.8246,-0.90298 -1.66636,-1.57377 -2.50391,-2.35156 -0.83755,-0.77779 -1.68354,-1.43795 -2.52148,-2.31445 -0.83794,-0.8765 -1.63077,-2.08724 -2.47656,-2.95118 -0.84579,-0.86394 -1.70276,-1.50076 -2.5586,-2.24218 -0.85584,-0.74142 -1.71503,-1.47721 -2.57617,-2.20703 -0.86114,-0.72983 -1.72548,-1.45369 -2.5918,-2.17188 -0.86632,-0.71819 -1.73407,-1.4302 -2.60547,-2.13672 -0.8714,-0.70652 -1.74472,-1.40674 -2.62109,-2.10156 -0.87637,-0.69482 -1.75569,-1.28184 -2.63672,-2.06836 -0.88103,-0.78652 -1.73516,-1.88656 -2.62305,-2.66016 -0.88789,-0.7736 -1.77793,-1.33264 -2.66992,-1.99023 -0.89199,-0.65759 -1.78519,-1.30934 -2.68164,-1.95508 -0.89645,-0.64574 -1.79451,-1.28607 -2.69531,-1.91992 -0.9008,-0.63385 -1.80394,-1.26086 -2.70898,-1.88281 -0.90504,-0.62195 -1.81351,-1.23957 -2.72266,-1.84961 -0.90915,-0.61004 -1.81927,-1.21248 -2.73242,-1.81055 -0.91315,-0.59807 -1.82906,-1.19126 -2.7461,-1.77734 -0.91704,-0.58608 -1.83506,-1.16616 -2.75586,-1.74024 -0.9208,-0.57408 -1.84313,-1.14107 -2.76757,-1.70312 -0.92444,-0.56205 -1.85135,-1.11993 -2.7793,-1.66992 -0.92795,-0.55001 -1.85769,-1.09294 -2.78906,-1.63086 -0.93137,-0.53792 -1.86416,-1.06989 -2.79883,-1.59571 -0.93467,-0.52582 -1.87076,-1.04489 -2.80859,-1.55859 -0.93785,-0.5137 -1.87747,-1.02187 -2.81836,-1.52344 -0.94089,-0.50157 -1.88429,-0.99691 -2.82813,-1.48633 -0.94384,-0.48942 -1.88929,-0.97392 -2.83594,-1.45117 -0.94665,-0.47725 -1.89633,-1.03556 -2.84375,-1.41211 -0.94742,-0.37655 -1.84662,-0.41078 -2.8125,-0.85742 -0.96588,-0.44664 -1.92926,-1.42335 -2.89843,-1.85937 C 814.8531,560.48585 813.9522,560.4683 813,560.125 c -0.9522,-0.3433 -1.91304,-0.85516 -2.87109,-1.27344 -0.95805,-0.41828 -1.92133,-0.91353 -2.87696,-1.23633 -0.95563,-0.3228 -1.87772,-0.39714 -2.83398,-0.70898 -0.95626,-0.31184 -1.92348,-0.78632 -2.88672,-1.16992 -0.96324,-0.3836 -1.92754,-0.76148 -2.89258,-1.13281 -0.96504,-0.37133 -1.93612,-0.8156 -2.89648,-1.09571 -0.96036,-0.28011 -1.88311,-0.3246 -2.84375,-0.59375 -0.96064,-0.26915 -1.94241,-0.76753 -2.9043,-1.02734 -0.96189,-0.25981 -1.88369,-0.29218 -2.8457,-0.54102 -0.96201,-0.24884 -1.94122,-0.64676 -2.91211,-0.96093 -0.97089,-0.31417 -1.95025,-0.69554 -2.91406,-0.92383 -0.96381,-0.22829 -1.89975,-0.30574 -2.84961,-0.45313 -0.94986,-0.14739 -1.88586,-0.22341 -2.84961,-0.43164 -0.96375,-0.20823 -1.95347,-0.62728 -2.91797,-0.82617 -0.9645,-0.19889 -1.90158,-0.25395 -2.85156,-0.375 -0.94998,-0.12105 -1.88558,-0.17271 -2.84961,-0.35156 -0.96403,-0.17885 -1.95733,-0.55899 -2.92188,-0.72852 -0.96455,-0.16953 -1.9001,-0.20022 -2.84961,-0.29492 -0.94951,-0.0947 -1.88403,-0.12393 -2.84765,-0.27344 -0.96362,-0.14951 -1.95799,-0.49066 -2.92188,-0.63086 -0.96389,-0.14016 -1.90774,-0.21079 -2.8457,-0.21679 -0.93796,-0.006 -1.81217,0.23463 -2.76758,0.17773 -0.95541,-0.0569 -1.95756,-0.42799 -2.91992,-0.54102 -0.96236,-0.11303 -1.89507,-0.10013 -2.8418,-0.14453 -0.94673,-0.0443 -1.90474,-0.14319 -2.83984,-0.12109 -0.9351,0.0221 -1.806,0.27315 -2.75782,0.24805 -0.95182,-0.0251 -1.9546,-0.34107 -2.91406,-0.41797 -0.95946,-0.0769 -1.89954,-0.0918 -2.83203,-0.0488 -0.93249,0.043 -1.81881,0.25293 -2.75,0.30273 -0.93119,0.0498 -1.88626,-0.01 -2.82812,-0.008 -0.94186,0.002 -1.89458,-0.0442 -2.82422,0.0176 -0.92964,0.0618 -1.81589,0.28101 -2.74414,0.34961 -0.92825,0.0687 -1.89072,-0.0151 -2.81836,0.0586 -0.92764,0.0737 -1.82584,0.25244 -2.73828,0.38086 -0.91244,0.12842 -1.81113,0.30523 -2.73633,0.39063 -0.9252,0.0853 -1.88211,0.0268 -2.80664,0.11718 -0.92453,0.0904 -1.80746,0.32468 -2.73047,0.42188 -0.92301,0.0972 -1.88049,0.056 -2.80274,0.1582 -0.92225,0.10216 -1.81687,0.2992 -2.72461,0.45118 -0.90774,0.15197 -1.81383,0.30505 -2.7207,0.46093 -0.90687,0.15588 -1.8147,0.31483 -2.7207,0.47461 -0.906,0.15978 -1.82206,0.27986 -2.7168,0.48438 -0.89474,0.20452 -1.75064,0.53284 -2.64453,0.74023 -0.89389,0.20739 -1.80922,0.33245 -2.71289,0.50195 -0.90367,0.1695 -1.80624,0.34223 -2.70899,0.51563 -0.90275,0.1734 -1.80521,0.3481 -2.70703,0.52539 -0.90182,0.17729 -1.8042,0.35594 -2.70507,0.53711 -0.90087,0.18117 -1.36613,0.22107 -2.70118,0.55078 -1.33505,0.32971 -3.94006,1.20165 -5.27343,1.53711 -1.33337,0.33546 -1.36232,0.23536 -2.69532,0.57227 -1.333,0.33691 -3.95358,1.16157 -5.27148,1.54882 -1.3179,0.38725 -1.75812,0.51527 -2.63672,0.77344 l -2.63477,0.77539 -158.63085,-0.51953 c 0,0 -1.74421,-0.55961 -2.63086,-0.79297 -0.88665,-0.23336 -1.35573,-0.25897 -2.68555,-0.60742 -1.32982,-0.34845 -3.94943,-1.17731 -5.26563,-1.57031 -1.3162,-0.393 -1.74244,-0.55946 -2.63085,-0.78711 -0.88842,-0.22765 -1.79678,-0.38723 -2.69532,-0.57813 -0.89854,-0.1909 -1.79774,-0.37938 -2.69726,-0.5664 -0.89952,-0.18702 -1.81758,-0.29758 -2.69922,-0.55664 -0.88164,-0.25906 -1.68991,-0.735 -2.57227,-0.99219 -0.88236,-0.25719 -1.81218,-0.3259 -2.70312,-0.54492 -0.89094,-0.21902 -1.7449,-0.55142 -2.63672,-0.76758 -0.89182,-0.21616 -1.80589,-0.35385 -2.70899,-0.52734 -0.9031,-0.17351 -1.80691,-0.34407 -2.71093,-0.51368 -0.90402,-0.16961 -1.79465,-0.3811 -2.71289,-0.5039 -0.91824,-0.1228 -1.86998,-0.11264 -2.78907,-0.23047 -0.91909,-0.11783 -1.81363,-0.31868 -2.7207,-0.47461 -0.90707,-0.15593 -1.81472,-0.30891 -2.72266,-0.46094 -0.90794,-0.15203 -1.80174,-0.34987 -2.72461,-0.45117 -0.92286,-0.1013 -1.88106,-0.058 -2.80468,-0.1543 -0.92362,-0.0963 -1.80533,-0.33042 -2.73047,-0.41992 -0.92514,-0.0896 -1.87289,-0.0797 -2.81055,-0.11328 -0.93766,-0.0336 -1.88745,-0.0103 -2.81445,-0.0879 -0.927,-0.0776 -1.81181,-0.30225 -2.74024,-0.37305 -0.92843,-0.0708 -1.89324,0.017 -2.82226,-0.0488 -0.92902,-0.0658 -1.81372,-0.28485 -2.74414,-0.34375 -0.93042,-0.0589 -1.86839,-0.0608 -2.82617,-0.004 z"
       transform="rotate(-90,580,580)" />
    <path
       id="circle7743-2"
       style="display:inline;opacity:1;fill:#4d4d4d;fill-opacity:1;fill-rule:evenodd;stroke:none;stroke-width:4;stroke-linecap:round;stroke-linejoin:round;stroke-miterlimit:4;stroke-dasharray:none;stroke-opacity:1;paint-order:stroke fill markers"
       d="m 454.01562,566.48438 c -0.9265,0.0404 -1.86454,0.22207 -2.79101,0.26757 -0.92647,0.0455 -1.84095,0.002 -2.76172,0.006 -0.92077,0.004 -1.84077,0.01 -2.76172,0.0176 -0.92095,0.008 -1.83631,-0.0331 -2.76367,0.0293 -0.92736,0.0624 -1.86378,0.28023 -2.79102,0.34765 -0.92724,0.0674 -1.84422,0.0387 -2.76562,0.0606 -0.9214,0.0219 -1.83594,-0.009 -2.76367,0.0703 -0.92773,0.0794 -1.86351,0.32379 -2.79102,0.40821 -0.92751,0.0844 -1.83783,0.0102 -2.76562,0.10156 -0.92779,0.0914 -1.86083,0.29549 -2.79102,0.44922 -0.93019,0.15373 -1.85927,0.31088 -2.78906,0.47265 -0.92979,0.16177 -1.85972,0.32824 -2.78906,0.49805 -0.92934,0.16981 -1.86017,0.404 -2.78711,0.52149 -0.92694,0.11748 -1.83857,0.0611 -2.76563,0.18554 -0.92706,0.12443 -1.85153,0.30934 -2.78515,0.5625 -0.93362,0.25316 -1.87058,0.69863 -2.80274,0.96094 -0.93216,0.26231 -1.85374,0.47166 -2.7793,0.61719 -0.92556,0.14553 -1.83618,0.10533 -2.76171,0.25781 -0.92553,0.15248 -1.84725,0.37091 -2.77735,0.66016 -0.9301,0.28925 -1.85875,0.78167 -2.78711,1.08007 -0.92836,0.2984 -1.84849,0.47274 -2.77148,0.71485 -0.92299,0.24211 -1.84145,0.41996 -2.76758,0.73828 -0.92613,0.31832 -1.84731,0.85028 -2.77148,1.17773 -0.92417,0.32745 -1.84043,0.52285 -2.75977,0.79102 -0.91934,0.26817 -1.83767,0.54024 -2.75586,0.81641 -0.91819,0.27616 -1.83381,0.48547 -2.75391,0.84179 -0.9201,0.35632 -1.83021,0.93733 -2.74804,1.30274 -0.91783,0.36541 -1.82791,0.51828 -2.74414,0.89453 -0.91623,0.37625 -1.82266,0.90501 -2.73243,1.36718 -0.90976,0.46218 -1.81336,1.00998 -2.7246,1.40626 -0.91124,0.39626 -1.81848,0.64653 -2.72657,0.97656 -0.90809,0.33003 -1.80784,0.51001 -2.72265,1.00195 -0.91481,0.49194 -1.77283,1.47252 -2.6836,1.97461 -0.91077,0.50209 -1.80719,0.62278 -2.70898,1.06055 -0.90179,0.43777 -1.78832,1.04269 -2.67969,1.57226 -0.89137,0.52957 -1.77226,1.14788 -2.66797,1.60547 -0.89571,0.45759 -1.78637,0.59549 -2.68554,1.14453 -0.89917,0.54904 -1.72067,1.6167 -2.61524,2.17578 -0.89457,0.55908 -1.7833,0.71326 -2.66992,1.20313 -0.88662,0.48987 -1.75256,1.15381 -2.625,1.74023 -0.87244,0.58642 -1.74131,1.17925 -2.60938,1.77735 -0.86807,0.5981 -1.72175,1.2923 -2.59765,1.8125 -0.8759,0.5202 -1.76002,0.69722 -2.63672,1.31445 -0.8767,0.61723 -1.6461,1.78696 -2.51758,2.41406 -0.87148,0.6271 -1.7501,0.821 -2.61523,1.37305 -0.86513,0.55205 -1.70549,1.19796 -2.54492,1.94336 -0.83944,0.7454 -1.6051,1.87346 -2.4629,2.53516 -0.8578,0.66169 -1.73008,0.7841 -2.58398,1.45898 -0.8539,0.67488 -1.60121,1.83077 -2.42188,2.61328 -0.82065,0.78251 -1.65489,1.38635 -2.47851,2.08789 -0.82362,0.70154 -1.64479,1.40826 -2.46289,2.12109 -0.8181,0.71285 -1.63282,1.43216 -2.44531,2.15626 -0.81249,0.7241 -1.62294,1.45217 -2.42969,2.1875 -0.80675,0.73532 -1.62147,1.37758 -2.41016,2.22265 -0.78869,0.84507 -1.50656,1.99644 -2.28711,2.85352 -0.78055,0.85708 -1.58389,1.5245 -2.37109,2.29492 -0.7872,0.77042 -1.57056,1.54668 -2.35156,2.32812 -0.781,0.78144 -1.5593,1.56892 -2.33399,2.36133 -0.77469,0.79241 -1.56247,1.48632 -2.31445,2.39258 -0.75198,0.90626 -1.41702,2.13091 -2.16016,3.04883 -0.74314,0.91792 -1.51625,1.63623 -2.26953,2.46289 -0.75328,0.82666 -1.52246,1.55323 -2.25,2.49609 -0.72754,0.94286 -1.35984,2.20977 -2.07812,3.16407 -0.71828,0.95429 -1.49326,1.59897 -2.20313,2.5664 -0.70987,0.96743 -1.3153,2.26349 -2.01562,3.24219 -0.70032,0.9787 -1.43983,1.7498 -2.1543,2.63281 -0.71447,0.88301 -1.44946,1.66112 -2.13281,2.66406 -0.68335,1.00294 -1.25434,2.34152 -1.92774,3.35547 -0.6734,1.01395 -1.41583,1.70572 -2.08007,2.73242 -0.66426,1.0267 -1.20927,2.39217 -1.86329,3.42969 -0.65402,1.03752 -1.35674,1.85931 -2.02929,2.79688 -0.67255,0.93757 -1.37016,1.76715 -2.00586,2.82812 -0.6357,1.06097 -1.13859,2.46559 -1.76367,3.53711 -0.62508,1.07152 -1.33594,1.80872 -1.95118,2.89258 -0.61524,1.08386 -1.09292,2.51712 -1.69726,3.61133 -0.60434,1.09421 -1.30033,1.84873 -1.89453,2.95508 -0.5942,1.10635 -1.04196,2.56513 -1.625,3.68164 -0.58304,1.11651 -1.22961,2.00663 -1.83789,3.01757 -0.60828,1.01094 -1.24767,1.91009 -1.81055,3.04883 -0.56288,1.13874 -0.96818,2.63266 -1.51953,3.78125 -0.55135,1.14859 -1.21143,1.94912 -1.75195,3.10938 -0.54053,1.16026 -0.91462,2.67971 -1.44336,3.84961 -0.52874,1.1699 -1.17376,1.9866 -1.69141,3.16797 -0.51765,1.18137 -0.91713,2.60487 -1.36523,3.91601 -0.44812,1.31114 -0.88874,2.62882 -1.32227,3.95117 -0.43353,1.32235 -0.79996,2.7721 -1.2793,3.98438 -0.47934,1.21228 -1.08895,2.06381 -1.55664,3.28711 -0.46769,1.2233 -0.74409,2.81465 -1.19922,4.04687 -0.45513,1.23222 -1.04896,2.09878 -1.49218,3.3418 -0.44322,1.24302 -0.68478,2.85765 -1.11524,4.10937 -0.43046,1.25172 -1.00748,2.13615 -1.42578,3.39844 -0.4183,1.26229 -0.62595,2.89529 -1.03125,4.16602 -0.4053,1.27073 -1.00864,2.04364 -1.35938,3.45312 -0.35073,1.40948 -0.23015,3.55505 -0.56445,4.97266 -0.3343,1.41761 -0.91519,2.20764 -1.27929,3.50781 -0.36411,1.30017 -0.57621,2.85048 -0.85157,4.2832 -0.27536,1.43272 -0.46483,2.99523 -0.80078,4.3125 -0.33595,1.31727 -0.84704,2.25703 -1.16992,3.58399 -0.32288,1.32696 -0.40381,3.03272 -0.71289,4.36719 -0.30908,1.33447 -0.80189,2.28889 -1.09766,3.63281 -0.29577,1.34392 -0.42427,2.93907 -0.62304,4.41601 -0.19877,1.47694 -0.30388,3.08571 -0.57032,4.44532 -0.26644,1.35961 -0.72965,2.33448 -0.98242,3.70312 -0.25277,1.36864 -0.32781,2.99245 -0.47851,4.49414 -0.1507,1.50169 -0.29245,3.0059 -0.42579,4.51563 -0.13334,1.50973 -0.25719,3.02345 -0.37304,4.54101 -0.11585,1.51756 -0.13118,3.16558 -0.32227,4.56446 -0.19109,1.39888 -0.60051,2.41116 -0.77734,3.81836 -0.17683,1.4072 -0.15861,3.06766 -0.22461,4.60742 -0.066,1.53976 -0.0261,3.21042 -0.17188,4.63086 -0.14577,1.42044 -0.52506,2.45056 -0.65625,3.8789 -0.13119,1.42834 -0.0571,3.11142 -0.0723,4.67188 -0.0151,1.56046 0.08,3.25078 -0.0195,4.6914 -0.0995,1.44062 -0.44661,2.48747 -0.53125,3.93555 -0.0846,1.44808 0.0454,3.15088 0.082,4.73047 0.0366,1.57959 0.32235,3.40751 0.13867,4.74805 -0.18368,1.34054 -0.82816,1.86809 -1,3.21679 -0.17184,1.3487 0.14267,3.1859 0.22852,4.78321 0.0859,1.59731 0.29479,3.32408 0.28711,4.80078 -0.008,1.4767 -0.29101,2.55775 -0.28321,4.04101 0.008,1.48326 0.2493,3.21873 0.38867,4.83203 0.13937,1.61331 0.40623,3.35502 0.44727,4.84766 0.041,1.49264 -0.10639,2.72257 -0.15039,4.08789 -0.044,1.36532 -0.18439,2.59984 -0.11328,4.10352 0.0711,1.50368 0.51238,3.38331 0.59961,4.89062 0.0872,1.50731 -0.0231,2.75338 -0.0254,4.13281 -0.002,1.37943 -0.10605,2.62705 0.0117,4.14454 0.11776,1.51749 0.61983,3.40903 0.7539,4.92968 0.13407,1.52065 0.0616,2.77758 0.10156,4.16993 0.04,1.39235 0.0854,2.78716 0.13868,4.18359 0.0532,1.39643 -1.4e-4,2.66136 0.17968,4.19531 0.17982,1.53395 0.76457,3.44007 0.96094,4.97656 0.19637,1.53649 0.17134,2.80902 0.26758,4.2168 0.0962,1.40778 0.19892,2.81909 0.30859,4.23047 0.10967,1.41138 0.36817,2.94523 0.34961,4.23828 -0.0186,1.29305 -0.47703,2.04154 -0.38672,3.48438 0.0903,1.44284 1.10326,3.58096 1.20703,5.02539 0.10377,1.44443 -0.44151,2.05565 -0.32421,3.50586 0.1173,1.45021 1.17774,3.58944 1.30859,5.04101 0.13085,1.45157 -0.3019,2.21401 -0.26172,3.52539 0.0402,1.31138 0.53312,2.98334 0.58399,4.29688 0.0509,1.31354 -0.1406,2.36193 -0.20508,3.54492 -0.0645,1.18299 -0.25268,2.23382 -0.18164,3.55469 0.071,1.32087 0.4542,2.87976 0.6914,4.32226 0.2372,1.4425 0.63829,3.00644 0.73242,4.33203 0.0941,1.32559 0.0969,2.50299 -0.0918,3.58008 -0.18865,1.07709 -0.85941,1.5931 -0.94141,2.82617 -0.082,1.23307 0.70751,3.02322 0.83008,4.35743 0.12257,1.33421 -0.0158,2.40084 -0.0176,3.60351 -0.002,1.20267 -5.9e-4,2.40802 0.006,3.61328 0.006,1.20526 0.18763,2.52811 0.0332,3.61914 -0.15443,1.09103 -0.70699,1.77269 -0.85546,2.86719 -0.14848,1.0945 0.0454,2.42201 0.0742,3.63481 0.0288,1.2128 0.23371,2.542 0.0977,3.6406 -0.13605,1.0986 -0.68051,1.7867 -0.81055,2.8887 -0.13004,1.102 0.47948,2.643 0.14258,3.6562 -0.3369,1.0132 -1.29329,1.2804 -1.72851,2.1348 -0.43522,0.8544 -0.66105,1.7955 -0.77735,2.9043 -0.1163,1.1088 0.52111,2.6574 0.19336,3.6777 -0.32775,1.0203 -1.28702,1.285 -1.71484,2.1445 -0.42782,0.8595 -0.31922,2.0619 -0.7461,2.9219 -0.42688,0.86 -1.28423,1.2864 -1.70898,2.1484 -0.42475,0.862 -0.3047,2.0673 -0.72852,2.9297 -0.42382,0.8624 -1.28339,1.2899 -1.70507,2.1543 -0.18927,0.388 -0.2536,0.8539 -0.32032,1.3184 A 579.77002,579.77002 0 0 0 580,1159.7695 a 579.77002,579.77002 0 0 0 371.28125,-135.33 c -1.31224,-1.4672 -2.47089,-2.6121 -2.95898,-3.543 -0.8715,-1.6621 -0.35752,-2.0576 -0.80469,-2.9082 -0.44717,-0.8506 -1.41507,-1.09 -1.76563,-2.1055 -0.35056,-1.0155 0.47583,-2.6825 0.12305,-3.6973 -0.35278,-1.0148 -1.32128,-1.2507 -1.77539,-2.0957 -0.45411,-0.845 -0.55926,-1.9268 -0.8418,-2.8886 -0.28254,-0.9618 -0.70228,-1.7809 -0.85351,-2.8828 -0.15123,-1.1019 0.41939,-2.6612 0.0547,-3.6661 -0.36471,-1.00486 -1.4245,-1.08126 -1.79296,-2.08199 -0.36846,-1.00073 0.18526,-2.55492 0.0195,-3.65039 -0.16573,-1.09547 -0.73073,-1.76552 -0.90235,-2.85742 -0.17162,-1.0919 -0.0103,-2.42435 -0.0215,-3.63477 -0.0112,-1.21042 0.13899,-2.53958 -0.0449,-3.62695 -0.18391,-1.08737 -0.75752,-1.7522 -0.94727,-2.83594 -0.18975,-1.08374 -0.0545,-2.4091 -0.0879,-3.61132 -0.0334,-1.20222 -0.0718,-2.4022 -0.11328,-3.60157 -0.0416,-1.19937 -0.21489,-2.25985 -0.13672,-3.59375 0.0782,-1.3339 0.61624,-3.03723 0.68359,-4.36914 0.0674,-1.33191 -0.12472,-2.38383 -0.19335,-3.57422 -0.0686,-1.19039 -0.14202,-2.38102 -0.21876,-3.56836 -0.0767,-1.18734 -0.28003,-2.23547 -0.24218,-3.55664 0.0378,-1.32117 0.51776,-3.01117 0.54492,-4.33007 0.0272,-1.3189 -0.31334,-2.22268 -0.29688,-3.53711 0.0165,-1.31443 0.322,-2.87713 0.47266,-4.3125 0.15066,-1.43537 0.43589,-2.99238 0.42969,-4.30078 -0.006,-1.30841 -0.46411,-2.05524 -0.38477,-3.50586 0.0793,-1.45062 1.06109,-3.6176 1.12696,-5.06641 0.0659,-1.44881 -0.40865,-2.1883 -0.44922,-3.48438 -0.0406,-1.29608 0.19321,-2.84021 0.27929,-4.25781 0.0861,-1.4176 0.16559,-2.83232 0.23829,-4.24609 0.0727,-1.41377 0.1379,-2.82651 0.19726,-4.23633 0.0594,-1.40982 0.11212,-2.81689 0.1582,-4.22266 0.0461,-1.40577 0.0862,-2.80933 0.11914,-4.21093 0.0329,-1.4016 -0.0486,-2.6667 0.0781,-4.19922 0.12669,-1.53252 0.77182,-3.56164 0.73242,-4.97461 -0.0394,-1.41297 -0.64125,-1.97693 -0.69336,-3.38281 -0.0521,-1.40588 0.43457,-3.30054 0.63672,-4.94727 0.20215,-1.64673 0.65706,-3.53603 0.57617,-4.93359 -0.0809,-1.39756 -0.69571,-1.94972 -0.78906,-3.33985 -0.0934,-1.39013 0.44741,-3.39739 0.48242,-4.90234 0.035,-1.50495 -0.23025,-2.601 -0.21094,-4.09961 0.0193,-1.49861 0.37352,-3.37875 0.37696,-4.87305 0.003,-1.4943 -0.19193,-2.71526 -0.29688,-4.06836 -0.10495,-1.3531 -0.30601,-2.56882 -0.33203,-4.05078 -0.026,-1.48196 0.16029,-3.21747 0.22656,-4.82226 0.0663,-1.60479 0.22861,-3.33549 0.16993,-4.80664 -0.0587,-1.47115 -0.38908,-2.53413 -0.4629,-3.99805 -0.0738,-1.46392 0.15953,-3.31084 0.0703,-4.76953 -0.0892,-1.45869 -0.44079,-2.50978 -0.54492,-3.96094 -0.10413,-1.45116 0.0882,-3.28484 -0.0312,-4.73047 -0.11936,-1.44563 -0.41245,-2.61918 -0.62696,-3.92383 -0.21451,-1.30465 -0.5128,-2.47321 -0.66015,-3.90429 -0.14735,-1.43108 -0.0134,-3.24284 -0.17578,-4.66797 -0.16233,-1.42513 -0.56351,-2.44832 -0.74024,-3.86524 -0.17673,-1.41692 -0.17191,-3.08704 -0.27148,-4.625 -0.0996,-1.53796 -0.11869,-3.19855 -0.32618,-4.60156 -0.20749,-1.40301 -0.63976,-2.40445 -0.86132,-3.79883 -0.22156,-1.39438 -0.18388,-3.16893 -0.41993,-4.55664 -0.23605,-1.38771 -0.68955,-2.37508 -0.93945,-3.7539 -0.2499,-1.37882 -0.33351,-3.01131 -0.51367,-4.50977 -0.18016,-1.49846 -0.36919,-2.99253 -0.56641,-4.48242 -0.19722,-1.48989 -0.32232,-3.10027 -0.61718,-4.45508 -0.29486,-1.35481 -0.78749,-2.3148 -1.09571,-3.66016 -0.30822,-1.34536 -0.38689,-3.06645 -0.70898,-4.40429 -0.32209,-1.33784 -0.83275,-2.28319 -1.16797,-3.61133 -0.33522,-1.32814 -0.44997,-3.03119 -0.79883,-4.35156 -0.34886,-1.32037 -0.87849,-2.25014 -1.24023,-3.56055 -0.36174,-1.31041 -0.51154,-2.99255 -0.88672,-4.29492 -0.37518,-1.30237 -0.92274,-2.2176 -1.31055,-3.50977 -0.38781,-1.29217 -0.57163,-2.9544 -0.97265,-4.23828 -0.40103,-1.28388 -0.96746,-2.18161 -1.38086,-3.45508 -0.4134,-1.27347 -0.63026,-2.91671 -1.05664,-4.18164 -0.42639,-1.26493 -1.04711,-2.01979 -1.44922,-3.40039 -0.40211,-1.3806 -0.38867,-3.49352 -0.80664,-4.86523 -0.41797,-1.37171 -1.05568,-2.11014 -1.52149,-3.34375 -0.46581,-1.23361 -0.75411,-2.83012 -1.23242,-4.05469 -0.47831,-1.22457 -1.09605,-2.07367 -1.58594,-3.28711 -0.48989,-1.21344 -0.81035,-2.78608 -1.3125,-3.99023 -0.50215,-1.20415 -1.09571,-2.15878 -1.65039,-3.23047 -0.55468,-1.07169 -1.15398,-2.01824 -1.67773,-3.20117 -0.52375,-1.18294 -0.89015,-2.72121 -1.42578,-3.89454 -0.53563,-1.17333 -1.19368,-1.97893 -1.74024,-3.14062 -0.54656,-1.16169 -0.94376,-2.67626 -1.50195,-3.82813 -0.55819,-1.15187 -1.19461,-2.05982 -1.79883,-3.08203 -0.60422,-1.02221 -1.24764,-1.92303 -1.82617,-3.05273 -0.57853,-1.1297 -1.01763,-2.60503 -1.60742,-3.72461 -0.58979,-1.11958 -1.25265,-1.9985 -1.88477,-2.99024 -0.63212,-0.99174 -1.29882,-1.86405 -1.9082,-2.96093 -0.60938,-1.09688 -1.09262,-2.53659 -1.71289,-3.62305 -0.62027,-1.08646 -1.30587,-1.93592 -1.96485,-2.89648 -0.65898,-0.96056 -1.34922,-1.80199 -1.98828,-2.86524 -0.63906,-1.06325 -1.16101,-2.46306 -1.81055,-3.51562 -0.64954,-1.05256 -1.38402,-1.76085 -2.04296,-2.80078 -0.65894,-1.03994 -1.20976,-2.41236 -1.87891,-3.44141 -0.66915,-1.02905 -1.39173,-1.82782 -2.09375,-2.73438 -0.70202,-0.90656 -1.40771,-1.80891 -2.11719,-2.70507 -0.70948,-0.89616 -1.44382,-1.67813 -2.13867,-2.67188 -0.69485,-0.99375 -1.29548,-2.31043 -2,-3.29297 -0.70452,-0.98254 -1.45442,-1.74248 -2.1875,-2.60547 -0.73308,-0.86299 -1.48806,-1.6143 -2.20898,-2.57226 -0.72092,-0.95796 -1.35575,-2.23319 -2.08594,-3.17969 -0.73019,-0.9465 -1.50221,-1.6747 -2.25781,-2.50391 -0.7556,-0.82921 -1.52963,-1.54921 -2.27539,-2.4707 -0.74576,-0.92149 -1.37683,-2.2582 -2.16993,-3.0625 -0.7931,-0.8043 -1.64153,-1.09131 -2.44336,-1.7832 -0.80183,-0.69189 -1.5685,-1.48694 -2.33593,-2.37305 -0.76743,-0.88611 -1.4663,-2.07498 -2.24219,-2.94922 -0.77589,-0.87424 -1.5814,-1.53899 -2.37695,-2.30078 -0.79555,-0.76179 -1.59497,-1.51888 -2.39649,-2.26953 -0.80152,-0.75065 -1.60472,-1.49491 -2.41211,-2.23438 -0.80739,-0.73947 -1.6185,-1.47292 -2.43164,-2.20117 -0.81314,-0.72825 -1.60898,-1.54796 -2.44726,-2.16797 -0.83828,-0.62001 -1.70624,-0.85678 -2.54883,-1.55859 -0.84259,-0.70181 -1.57532,-1.88639 -2.39649,-2.67578 -0.82117,-0.78939 -1.64612,-1.47778 -2.49804,-2.06641 -0.85192,-0.58863 -1.72465,-0.80316 -2.58203,-1.4707 -0.85738,-0.66754 -1.62029,-1.80626 -2.45899,-2.55859 -0.8387,-0.75233 -1.6783,-1.4059 -2.54297,-1.96289 -0.86467,-0.557 -1.74554,-0.83832 -2.61328,-1.38477 -0.86774,-0.54645 -1.70996,-1.27114 -2.56836,-1.89844 -0.8584,-0.6273 -1.71899,-1.24954 -2.58203,-1.86523 -0.86304,-0.61569 -1.71855,-1.3138 -2.59766,-1.83008 -0.87911,-0.51628 -1.76369,-0.68505 -2.65039,-1.27344 -0.8867,-0.58839 -1.68849,-1.70285 -2.58007,-2.28125 -0.89158,-0.5784 -1.78103,-0.73068 -2.66993,-1.21484 -0.8889,-0.48416 -1.7593,-1.13616 -2.64257,-1.69531 -0.88327,-0.55915 -1.76085,-1.19574 -2.65625,-1.66016 -0.8954,-0.46442 -1.79372,-0.67912 -2.69141,-1.13281 -0.89769,-0.45369 -1.7751,-1.14905 -2.67578,-1.59375 -0.90068,-0.4447 -1.80227,-0.64614 -2.70508,-1.08008 -0.90281,-0.43394 -1.78771,-1.10437 -2.69336,-1.5293 -0.90565,-0.42493 -1.80917,-0.61126 -2.7168,-1.02539 -0.90763,-0.41413 -1.80548,-0.98276 -2.71093,-1.46484 -0.90545,-0.48208 -1.80975,-1.03357 -2.72266,-1.42774 -0.91291,-0.39417 -1.82197,-0.63323 -2.73437,-0.94336 -0.91242,-0.31013 -1.82645,-0.61582 -2.74024,-0.91797 -0.91379,-0.30214 -1.82436,-0.52912 -2.74219,-0.89453 -0.91783,-0.36541 -1.8299,-0.94641 -2.75,-1.30273 -0.9201,-0.35632 -1.83376,-0.56367 -2.75195,-0.83984 -0.91819,-0.27617 -1.83652,-0.54824 -2.75586,-0.81641 -0.91934,-0.26817 -1.83559,-0.46552 -2.75976,-0.79297 -0.92418,-0.32745 -1.84731,-0.85746 -2.77344,-1.17578 -0.92613,-0.31832 -1.84459,-0.49812 -2.76758,-0.74024 -0.92299,-0.24211 -1.84539,-0.54438 -2.76953,-0.71289 -0.92414,-0.16851 -1.82649,-0.0772 -2.75977,-0.30078 -0.93328,-0.22361 -1.8586,-0.77437 -2.78906,-1.05664 -0.93046,-0.28227 -1.851,-0.43062 -2.77734,-0.64062 -0.92634,-0.21 -1.85519,-0.47866 -2.78125,-0.61914 -0.92606,-0.14048 -1.82658,-0.0368 -2.76172,-0.22852 -0.93514,-0.19172 -1.86664,-0.74997 -2.80274,-0.93555 -0.9361,-0.18558 -1.837,-0.0719 -2.76367,-0.1914 -0.92667,-0.1195 -1.86006,-0.41291 -2.78711,-0.52735 -0.92705,-0.11444 -1.83677,-0.0546 -2.76367,-0.16211 -0.9269,-0.10748 -1.86182,-0.38194 -2.78906,-0.48437 -0.92724,-0.10243 -1.8278,0.0151 -2.76367,-0.13281 -0.93587,-0.14793 -1.87789,-0.62383 -2.81446,-0.76563 -0.93657,-0.1418 -1.84423,-0.0677 -2.76562,-0.0976 -0.92139,-0.0299 -1.8366,-0.005 -2.76367,-0.082 -0.92707,-0.0765 -1.86377,-0.30553 -2.79102,-0.37695 -0.92725,-0.0714 -1.84065,-0.0388 -2.76172,-0.0547 -0.92107,-0.0159 -1.84275,-0.0291 -2.76367,-0.041 -0.92092,-0.0119 -1.84097,-0.0233 -2.76172,-0.0312 -0.92075,-0.008 -1.8431,-0.0136 -2.76367,-0.0176 -0.92057,-0.004 -1.83375,0.0386 -2.75977,-0.006 -0.92602,-0.0445 -1.86301,-0.22226 -2.78906,-0.26172 -0.92605,-0.0395 -1.84338,-0.0297 -2.75977,0.0234 -0.91638,0.0531 -1.8164,0.23695 -2.73242,0.29297 -0.91602,0.056 -1.84029,0.027 -2.75976,0.043 -0.91947,0.016 -1.84214,-0.007 -2.75782,0.0527 -0.91566,0.06 -1.81515,0.24367 -2.73046,0.30664 -0.91531,0.063 -1.83714,0.0443 -2.75586,0.0703 -0.91872,0.026 -1.83744,0.054 -2.75586,0.084 -0.91842,0.03 -1.83929,0.0278 -2.75391,0.0977 -0.91462,0.0699 -1.81911,0.21462 -2.72851,0.32226 -0.9094,0.10763 -1.81444,0.24838 -2.72852,0.32227 -0.91408,0.0739 -1.83795,0.0462 -2.75195,0.12109 -0.914,0.0749 -1.36477,0.1637 -2.72852,0.32813 l -5.45508,0.6582 c -1.36375,0.16443 -2.72656,0.32812 -2.72656,0.32812 l -164.24023,-0.52929 c 0,0 -1.83513,-0.0783 -2.74805,-0.16211 -0.91292,-0.0838 -1.81789,-0.22822 -2.72656,-0.3418 -0.90867,-0.11359 -1.8179,-0.22626 -2.72657,-0.33984 -0.90867,-0.11359 -1.81594,-0.22627 -2.7246,-0.33985 -0.90868,-0.11359 -1.81275,-0.2639 -2.72657,-0.34179 -0.91382,-0.0779 -1.83618,-0.085 -2.7539,-0.125 -0.91772,-0.04 -1.83774,-0.0413 -2.75196,-0.11524 -0.91422,-0.0739 -1.81934,-0.2185 -2.72851,-0.32812 -0.90917,-0.10962 -1.81178,-0.25816 -2.72656,-0.32813 -0.91478,-0.07 -1.841,-0.0228 -2.75586,-0.0918 -0.91486,-0.069 -1.81327,-0.25626 -2.72852,-0.32227 -0.91525,-0.066 -1.83847,-0.0502 -2.75781,-0.0723 -0.91934,-0.0221 -1.83821,-0.0424 -2.75781,-0.0605 -0.9196,-0.0181 -1.8399,-0.0328 -2.75977,-0.0469 -0.91987,-0.0141 -1.83965,-0.027 -2.75977,-0.0371 -0.92012,-0.0101 -1.83521,-0.0638 -2.76172,-0.0234 z"
       transform="rotate(-90,580,580)" />
    <g
       id="g7639"
       style="display:inline">
      <g
         id="g4980"
         style="display:inline" />
    </g>
    <circle
       cx="580"
       cy="580"
       r="579.77002"
       style="fill:none;stroke:none;paint-order:markers fill stroke"
       id="circle10" />
    <path
       id="circle19422"
       style="display:inline;fill:#000000;fill-opacity:1;fill-rule:evenodd;stroke:none;stroke-width:69.701;stroke-linecap:round;stroke-linejoin:round;stroke-opacity:1;paint-order:stroke fill markers"
       d="m 497.30078,582.71094 c 0,0 -1.83134,0.0278 -2.74609,0.0898 -0.91475,0.062 -1.36877,0.18675 -2.74024,0.28125 -1.37147,0.0945 -4.11897,0.0909 -5.49023,0.19141 -1.37126,0.10048 -1.36714,0.20467 -2.73828,0.30664 -1.37114,0.10197 -4.11933,0.0952 -5.49024,0.20312 -1.37091,0.10795 -1.82427,0.21803 -2.73632,0.33008 -0.91205,0.11205 -1.82459,0.22771 -2.73633,0.34375 -0.91174,0.11604 -1.81592,0.31542 -2.73438,0.35352 -0.91846,0.0381 -1.8373,-0.16706 -2.75586,-0.12696 -0.91856,0.0401 -1.82031,0.28619 -2.73437,0.36719 -0.91406,0.0809 -1.83018,0.0351 -2.74414,0.11914 -0.91396,0.084 -1.82167,0.25478 -2.73242,0.38477 -0.91076,0.12999 -1.82315,0.21465 -2.73243,0.39453 -0.90928,0.17988 -1.8083,0.49873 -2.71679,0.68359 -0.90849,0.18486 -1.81927,0.28186 -2.72852,0.42578 -0.90925,0.14392 -1.81774,0.29156 -2.72656,0.43946 -0.90882,0.1479 -1.81817,0.29734 -2.72656,0.44922 -0.90839,0.15188 -1.81646,0.25425 -2.72266,0.46093 -0.9062,0.20668 -1.79981,0.56765 -2.70508,0.7793 -0.90527,0.21165 -1.81408,0.32641 -2.7207,0.49219 -0.90662,0.16578 -1.81486,0.27843 -2.71875,0.50195 -0.90389,0.22352 -1.79046,0.61136 -2.69336,0.83984 -0.9029,0.22848 -1.81275,0.29782 -2.71485,0.53321 -0.90209,0.23539 -1.78647,0.63856 -2.6875,0.8789 -0.90102,0.24034 -1.80828,0.26022 -2.70898,0.56446 -0.9007,0.30424 -1.7495,0.9574 -2.64844,1.26757 -0.89894,0.31018 -1.80756,0.33663 -2.70508,0.59766 -0.89751,0.26103 -1.77945,0.64186 -2.66796,0.96875 -0.88851,0.32689 -1.76716,0.7213 -2.66211,0.99414 -0.89495,0.27284 -1.80142,0.36481 -2.69532,0.64453 -0.8939,0.27972 -1.77532,0.62145 -2.65429,1.03321 -0.87897,0.41176 -1.72949,1.01889 -2.60547,1.43945 -0.87598,0.42056 -1.74976,0.78565 -2.63867,1.08594 -0.88891,0.30029 -1.79391,0.40966 -2.68164,0.71679 -0.88773,0.30713 -1.75946,0.68214 -2.62891,1.12891 -0.86945,0.44677 -1.70412,1.09918 -2.57031,1.55469 -0.86619,0.45551 -1.74314,0.78253 -2.61328,1.17969 -0.87014,0.39714 -1.73959,0.79822 -2.60743,1.20312 -0.86784,0.4049 -1.74167,0.7431 -2.59961,1.22656 -0.85793,0.48346 -1.67491,1.18365 -2.52929,1.67578 -0.85438,0.49213 -1.72232,0.84935 -2.58203,1.2793 -0.85971,0.42995 -1.72783,0.78952 -2.57618,1.30078 -0.84834,0.51126 -1.66525,1.17433 -2.49414,1.76953 -0.82889,0.5952 -1.63816,1.27246 -2.47851,1.80274 -0.84035,0.53028 -1.69957,0.91652 -2.54688,1.38086 -0.84731,0.46434 -1.7034,0.85507 -2.53711,1.40429 -0.83371,0.54922 -1.63016,1.25783 -2.4414,1.89454 -0.81124,0.6367 -1.60072,1.35774 -2.42578,1.92578 -0.82506,0.56804 -1.68457,0.90604 -2.50586,1.48437 -0.82129,0.57833 -1.60015,1.31993 -2.39649,1.98828 -0.79634,0.66835 -1.56872,1.42454 -2.38086,2.02149 -0.81214,0.59695 -1.6714,0.87376 -2.47265,1.5625 -0.80125,0.68874 -1.44123,1.88213 -2.23633,2.58008 -0.7951,0.69793 -1.64924,0.98979 -2.44727,1.61718 -0.79803,0.62739 -1.5459,1.42693 -2.31445,2.14844 -0.76855,0.72151 -1.5345,1.4493 -2.29687,2.18164 -0.76237,0.73234 -1.49474,1.55725 -2.27735,2.21289 -0.78261,0.65564 -1.62633,0.97012 -2.39453,1.72266 -0.7682,0.75254 -1.37933,1.94951 -2.10352,2.80078 -0.72417,0.85127 -1.45285,1.62329 -2.21874,2.30859 -0.7659,0.6853 -1.60209,1.02002 -2.35157,1.80469 -0.74948,0.78467 -1.32755,2.0247 -2.02929,2.91016 -0.70174,0.88546 -1.44209,1.59757 -2.15821,2.40429 -0.71612,0.80672 -1.42764,1.61843 -2.13672,2.43555 -0.70908,0.81712 -1.41523,1.63933 -2.11718,2.4668 -0.70195,0.82747 -1.42616,1.5662 -2.09571,2.49804 -0.66955,0.93184 -1.22873,2.15112 -1.88867,3.09375 -0.65994,0.94263 -1.3669,1.70482 -2.04492,2.56446 -0.67802,0.85964 -1.35301,1.72403 -2.02344,2.59375 -0.67043,0.86972 -1.33725,1.7433 -2,2.62304 -0.66275,0.87974 -1.3513,1.66673 -1.97656,2.6543 -0.62526,0.98757 -1.12326,2.27355 -1.73828,3.27149 -0.61502,0.99793 -1.31846,1.70669 -1.92383,2.71679 -0.60537,1.0101 -1.07703,2.32152 -1.67188,3.3418 -0.59485,1.02028 -1.28226,1.74704 -1.86718,2.7793 -0.58492,1.03226 -1.02936,2.36987 -1.60352,3.41211 -0.57416,1.04224 -1.21257,1.88971 -1.8125,2.84179 -0.59993,0.95208 -1.23266,1.80693 -1.78711,2.8711 -0.55445,1.06417 -0.95671,2.43591 -1.5,3.50976 -0.54329,1.07385 -1.1958,1.84628 -1.72851,2.93164 -0.53271,1.08536 -0.90644,2.48332 -1.42774,3.57813 -0.5213,1.09481 -1.15948,1.88218 -1.66992,2.98828 -0.51044,1.1061 -0.85277,2.52724 -1.35156,3.64258 -0.49879,1.11534 -1.11974,1.92043 -1.60742,3.04687 -0.48768,1.12644 -0.80155,2.57157 -1.27735,3.70703 -0.4758,1.13546 -1.11595,1.84819 -1.54492,3.10352 -0.42897,1.25533 -0.46295,3.14205 -0.87695,4.40625 -0.414,1.2642 -1.03651,1.99537 -1.47461,3.16211 -0.4381,1.16674 -0.68365,2.65481 -1.10938,3.83008 -0.42573,1.17527 -0.99632,2.03111 -1.41015,3.21679 -0.41383,1.18568 -0.74779,2.47719 -1.0293,3.88867 -0.28151,1.41148 -0.27801,3.25478 -0.62109,4.57032 -0.34308,1.31554 -0.92631,2.08441 -1.29883,3.29882 -0.37252,1.21442 -0.53107,2.75623 -0.89063,3.97852 -0.35956,1.22229 -0.88346,2.11754 -1.23047,3.34961 -0.34701,1.23207 -0.60477,2.57066 -0.80468,4.03125 -0.19991,1.46059 -0.0849,3.35759 -0.35352,4.7207 -0.26859,1.36311 -0.81148,2.16718 -1.11523,3.42578 -0.30375,1.2586 -0.51288,2.62515 -0.66016,4.11329 -0.14726,1.48814 0.0388,3.41268 -0.18164,4.80273 -0.22046,1.39005 -0.73477,2.2163 -0.99414,3.5 -0.25937,1.2837 -0.35077,2.78916 -0.51367,4.18945 -0.1629,1.40029 -0.31673,2.80463 -0.46289,4.21289 -0.14616,1.40826 -0.28477,2.82029 -0.41407,4.23633 -0.1293,1.41604 -0.25097,2.83614 -0.36328,4.25977 -0.11231,1.42363 -0.29104,2.73576 -0.31054,4.28125 -0.0195,1.54549 0.23532,3.42282 0.23632,4.97461 10e-4,1.55179 -0.0492,2.99056 -0.19921,4.32617 -0.14998,1.33561 -0.59096,2.21058 -0.66016,3.67383 -0.0692,1.46325 0.36172,3.4665 0.41992,5.03906 0.0582,1.57256 -0.12011,2.80667 -0.041,4.38672 0.0791,1.58005 0.45823,3.48912 0.55859,5.07422 0.1004,1.5851 0.0399,2.94655 0.0742,4.42382 0.0343,1.47729 0.0786,2.95643 0.13086,4.43946 0.0523,1.48303 0.11309,2.9704 0.18359,4.45898 0.0705,1.48858 0.14958,2.97873 0.23828,4.47266 0.0887,1.49393 0.0942,2.87639 0.29492,4.49023 0.20077,1.61384 0.73046,3.55452 0.95313,5.17188 0.22267,1.61736 0.16948,2.89475 0.41406,4.51758 0.24458,1.62283 0.82904,3.5695 1.09571,5.19531 0.26666,1.62581 0.34718,3.02816 0.53515,4.54492 0.18797,1.51676 0.28252,2.92011 0.5918,4.55469 0.30928,1.63458 0.97306,3.58983 1.30469,5.22656 0.33163,1.63673 0.46878,3.05052 0.71679,4.57813 0.24801,1.52761 0.39665,2.94395 0.77149,4.58789 0.37484,1.64394 1.1221,3.60471 1.51953,5.25 0.39743,1.64529 0.4763,2.95496 0.89648,4.60351 0.42018,1.64855 1.09777,3.50649 1.66602,5.25977 0.56825,1.75328 1.27658,3.60938 1.74414,5.25976 0.46756,1.65038 0.60122,2.9703 1.0918,4.62305 0.49058,1.65275 1.37907,3.61105 1.89257,5.26367 0.5135,1.65262 0.80268,3.08826 1.21875,4.63281 0.41607,1.54455 0.71935,2.97937 1.27735,4.63477 0.558,1.6554 1.53026,3.61121 2.11133,5.26563 0.58107,1.65441 0.8018,2.98528 1.40625,4.64062 0.60445,1.65534 1.49447,3.50755 2.26171,5.25977 0.76724,1.75222 1.68904,3.5997 2.3418,5.25195 0.65276,1.65225 1.05875,3.09269 1.60352,4.63867 0.54477,1.54598 0.96609,2.9851 1.66406,4.63672 0.69797,1.65162 1.69647,3.49433 2.56445,5.23828 0.86798,1.74395 1.898,3.5805 2.64453,5.22656 0.74653,1.64606 1.23185,3.08353 1.86329,4.625 0.63143,1.54147 1.27429,3.0827 1.92578,4.62305 0.65149,1.54035 1.1705,2.97808 1.98437,4.61914 0.81387,1.64106 1.94485,3.46213 2.9375,5.18945 0.99265,1.72732 2.15497,3.54143 3.01758,5.17383 0.86261,1.6324 1.44687,3.06342 2.18555,4.59375 0.73868,1.53037 1.48724,3.06007 2.24609,4.58797 0.75885,1.5279 1.52761,3.0547 2.30664,4.58 0.77903,1.5253 1.41695,2.9528 2.36914,4.5723 0.95219,1.6195 2.40536,3.49 3.38086,5.1035 0.9755,1.6135 1.65707,3.0345 2.5,4.5488 0.84293,1.5144 1.69546,3.0265 2.55859,4.5372 0.86313,1.5107 1.7358,3.0205 2.61914,4.5273 0.88335,1.5068 1.77809,3.011 2.68165,4.5137 0.90356,1.5027 1.81647,3.0035 2.74023,4.5019 0.92376,1.4984 1.85683,2.9944 2.80078,4.4883 0.94395,1.4939 2.07819,3.0606 2.86328,4.4746 0.78509,1.414 1.08616,2.5528 1.88867,3.9649 0.80251,1.4121 1.97339,2.9701 2.97461,4.4511 1.00122,1.481 2.19543,3.0319 3.03321,4.4356 0.83778,1.4037 1.17798,2.5402 2.0332,3.9414 0.85522,1.4012 2.4807,3.0562 3.14453,4.4062 0.66383,1.35 0.52341,2.2147 1.04688,3.4571 0.52347,1.2424 1.25836,2.5293 2.16015,3.9218 0.90179,1.3925 2.59057,3.0287 3.29688,4.3731 0.70631,1.3444 0.58697,2.2114 1.14843,3.4492 0.56146,1.2378 1.71474,2.6647 2.28711,3.9004 0.57237,1.2357 0.79998,2.2969 1.20704,3.4453 0.40706,1.1484 0.64029,2.2085 1.23437,3.4434 0.59408,1.2349 1.79149,2.6522 2.39648,3.8847 0.605,1.2325 1.06267,2.3497 1.29297,3.4395 0.23035,1.0898 -0.0671,1.9128 0.16993,3.0039 0.23707,1.0911 1.33284,2.3664 1.33984,3.4394 0.007,1.073 -0.97314,1.4967 -0.96094,2.5723 0.0122,1.0756 1.12205,2.3494 1.375,3.4414 0.25291,1.092 0.35897,2.0599 0.22656,3.0117 -0.13241,0.9518 -0.81554,1.6252 -0.94531,2.5782 -0.0497,0.365 0.0271,0.7613 0.0918,1.1543 63.52347,23.7168 130.71492,36.1063 198.51954,36.6054 73.05106,-0.4643 145.35632,-14.7302 213.10938,-42.0468 -0.60359,-1.2276 -1.38048,-2.5634 -1.39063,-3.6524 -0.0143,-1.5348 1.08112,-2.3792 1.30469,-3.4785 0.22362,-1.0993 -0.0899,-1.9158 0.12695,-3.0137 0.21682,-1.0979 1.28167,-2.4024 1.25977,-3.4765 -0.0219,-1.0741 -1.01227,-1.4716 -1.03907,-2.543 -0.0268,-1.0714 0.64286,-2.2259 1.22266,-3.4746 0.5798,-1.2487 1.74955,-2.6965 2.31836,-3.9473 0.56881,-1.2508 0.77905,-2.3171 1.16211,-3.4765 0.38306,-1.1594 0.76043,-2.3192 1.13476,-3.4786 0.37433,-1.1594 0.57424,-2.227 1.11133,-3.4785 0.53709,-1.2515 1.6477,-2.7096 2.17383,-3.9629 0.52613,-1.2533 0.53636,-2.2274 1.05078,-3.4804 0.51442,-1.253 1.40523,-2.6459 2.09766,-3.9707 0.69243,-1.3248 1.37833,-2.6499 2.05664,-3.9766 0.67831,-1.3267 1.18175,-2.5638 2.01367,-3.9844 0.83192,-1.4206 2.20245,-3.0692 3.01758,-4.4941 0.81513,-1.4249 1.12424,-2.5712 1.92187,-3.9981 0.79763,-1.4269 2.32583,-3.1446 2.90625,-4.5195 0.58042,-1.3749 0.24101,-2.1147 0.80664,-3.4883 0.56563,-1.3736 1.87988,-3.0213 2.80469,-4.5351 0.92481,-1.5138 1.83963,-3.0288 2.74414,-4.5469 0.90451,-1.5181 1.79939,-3.0385 2.6836,-4.5606 0.88421,-1.5221 1.9294,-3.129 2.62304,-4.5722 0.69364,-1.4432 0.9136,-2.5913 1.58985,-4.0352 0.67625,-1.4439 1.52928,-2.9591 2.50976,-4.5879 0.98048,-1.6288 2.44336,-3.5214 3.40039,-5.1562 0.95703,-1.6348 1.59618,-3.0727 2.37891,-4.6113 0.78273,-1.5386 1.5559,-3.0799 2.31836,-4.6211 0.76246,-1.5412 1.36687,-2.9821 2.25586,-4.627 0.88899,-1.6449 2.24191,-3.5651 3.10742,-5.21483 0.86551,-1.64973 1.42664,-3.09541 2.125,-4.64454 0.69836,-1.54913 1.24486,-2.99599 2.06445,-4.65039 0.81959,-1.6544 2.08668,-3.59163 2.88282,-5.25 0.79614,-1.65837 1.29913,-3.10744 1.93359,-4.66211 0.63446,-1.55467 1.12266,-3.00468 1.87305,-4.66601 0.75039,-1.66133 1.93122,-3.61488 2.6582,-5.2793 0.72698,-1.66442 1.17333,-3.11405 1.74414,-4.67187 0.57081,-1.55782 1.13085,-3.1159 1.68164,-4.67383 0.55079,-1.55793 0.84322,-2.89201 1.62305,-4.67383 0.77983,-1.78182 2.41506,-4.14157 3.16797,-5.92773 0.75291,-1.78616 0.99818,-3.12063 1.48242,-4.67969 0.48424,-1.55906 0.95941,-3.11758 1.42383,-4.67578 0.46442,-1.5582 0.79701,-3.00424 1.36328,-4.67188 0.56627,-1.66764 1.52326,-3.64411 2.0664,-5.3125 0.54314,-1.66839 0.83251,-3.11289 1.23438,-4.66797 0.40187,-1.55508 0.67724,-2.99695 1.17578,-4.66211 0.49854,-1.66516 1.37012,-3.64354 1.8457,-5.30859 0.47558,-1.66505 0.5963,-2.98989 1.04883,-4.65234 0.45253,-1.66245 1.14667,-3.53536 1.69922,-5.30274 0.55255,-1.76738 1.21215,-3.64066 1.61719,-5.30078 0.40504,-1.66012 0.47124,-2.97618 0.85351,-4.63281 0.38227,-1.65663 1.11107,-3.63596 1.47071,-5.29102 0.35964,-1.65506 0.49685,-3.07687 0.73047,-4.61328 0.23361,-1.53641 0.35544,-2.95611 0.67187,-4.60351 0.31643,-1.6474 1.09252,-3.72094 1.25781,-5.26563 0.16529,-1.54469 -0.14648,-2.49044 -0.084,-3.90625 0.0625,-1.41581 0.24891,-2.93312 0.5039,-4.56836 0.25499,-1.63524 0.82574,-3.59643 1.0586,-5.22851 0.23286,-1.63208 0.2632,-3.02999 0.38086,-4.54102 0.11766,-1.51103 0.13335,-2.90396 0.32422,-4.52539 0.19087,-1.62143 0.68251,-3.57198 0.85156,-5.18945 0.1691,-1.61747 0.14568,-2.99875 0.20508,-4.49414 0.0593,-1.49539 0.0226,-2.87322 0.15039,-4.47852 0.12777,-1.6053 0.65543,-3.64444 0.64843,-5.14062 -0.007,-1.49618 -0.48351,-2.27418 -0.50781,-3.76172 -0.0243,-1.48754 0.45213,-3.51559 0.51953,-5.10352 0.0674,-1.58793 -0.0408,-2.93952 -0.0742,-4.4043 -0.0334,-1.46478 -0.076,-2.92672 -0.12695,-4.38476 -0.051,-1.45804 -0.10923,-2.91217 -0.17773,-4.36328 -0.0685,-1.45111 -0.14662,-2.89977 -0.23242,-4.34375 -0.0858,-1.44398 -0.18016,-2.88366 -0.28321,-4.32032 -0.10305,-1.43666 -0.21382,-2.86966 -0.33398,-4.29882 -0.12016,-1.42916 -0.24958,-2.85393 -0.38672,-4.27539 -0.13714,-1.42146 -0.28351,-2.84035 -0.4375,-4.25391 -0.15399,-1.41356 -0.31561,-2.82303 -0.48633,-4.22852 -0.17072,-1.40549 -0.3498,-2.80588 -0.53711,-4.20312 -0.18731,-1.39724 -0.3042,-2.90071 -0.58594,-4.17969 -0.28174,-1.27898 -0.75978,-2.21261 -1.05468,-3.48242 -0.2949,-1.26981 -0.50444,-2.64442 -0.67578,-4.12891 -0.17134,-1.48449 -0.0471,-3.40176 -0.32422,-4.77148 -0.27715,-1.36972 -0.83342,-2.16274 -1.17188,-3.40625 -0.33846,-1.24351 -0.46868,-2.81104 -0.82031,-4.04688 -0.35163,-1.23584 -0.92173,-2.01788 -1.24219,-3.35742 -0.32046,-1.33954 -0.20266,-3.32065 -0.53906,-4.65234 -0.3364,-1.33169 -0.9263,-2.0956 -1.31836,-3.30274 -0.39206,-1.20714 -0.59327,-2.7366 -0.99805,-3.93554 -0.40478,-1.19894 -0.96796,-2.06139 -1.38476,-3.25 -0.4168,-1.18861 -0.65079,-2.69679 -1.08008,-3.87696 -0.42929,-1.18017 -1.04665,-1.91777 -1.45117,-3.19726 -0.40452,-1.27949 -0.4202,-3.19024 -0.83985,-4.46094 -0.41965,-1.2707 -1.05607,-1.98955 -1.52343,-3.13867 -0.46736,-1.14912 -0.76868,-2.61374 -1.24805,-3.75391 -0.47937,-1.14017 -1.09532,-1.95289 -1.58594,-3.08203 -0.49062,-1.12914 -0.82183,-2.56949 -1.32422,-3.68945 -0.50239,-1.11996 -1.13313,-1.91667 -1.64648,-3.02539 -0.51335,-1.10872 -0.87552,-2.52567 -1.40039,-3.625 -0.52487,-1.09933 -1.13524,-1.98239 -1.70899,-2.9668 -0.57375,-0.98441 -1.18903,-1.86155 -1.73437,-2.93945 -0.54534,-1.0779 -0.94936,-2.45915 -1.50586,-3.52735 -0.5565,-1.0682 -1.22616,-1.82242 -1.79297,-2.8789 -0.56681,-1.05648 -1.00041,-2.41242 -1.57812,-3.45899 -0.57771,-1.04657 -1.22896,-1.88385 -1.84961,-2.81836 -0.62065,-0.93451 -1.27614,-1.76483 -1.87305,-2.78906 -0.59691,-1.02423 -1.0703,-2.34144 -1.67774,-3.35547 -0.60742,-1.01403 -1.24133,-1.92053 -1.92968,-2.72656 -0.68835,-0.80603 -1.486,-1.21566 -2.16211,-2.10937 -0.67611,-0.89371 -1.13372,-2.27183 -1.76758,-3.25391 -0.63386,-0.98208 -1.3296,-1.76278 -2,-2.63672 -0.6704,-0.87394 -1.36991,-1.64864 -2.02148,-2.60742 -0.65157,-0.95878 -1.15359,-2.29322 -1.86133,-3.14649 -0.70774,-0.85327 -1.52345,-1.2265 -2.25196,-1.97461 -0.72851,-0.74811 -1.4136,-1.58985 -2.08984,-2.51562 -0.67624,-0.92577 -1.25773,-2.12621 -1.94336,-3.04102 -0.68563,-0.91481 -1.38867,-1.72976 -2.13672,-2.44921 -0.74805,-0.71945 -1.57726,-1.06996 -2.31836,-1.86915 -0.7411,-0.79919 -1.31261,-2.05259 -2.02148,-2.93359 -0.70887,-0.881 -1.43355,-1.66331 -2.19922,-2.35351 -0.76567,-0.6902 -1.60304,-1.02185 -2.36328,-1.78907 -0.76024,-0.76722 -1.3306,-2.06396 -2.09766,-2.82226 -0.76706,-0.7583 -1.60912,-1.07391 -2.39062,-1.73438 -0.7815,-0.66047 -1.48701,-1.57818 -2.27344,-2.23047 -0.78643,-0.65229 -1.63334,-0.95991 -2.41602,-1.68554 -0.78268,-0.72563 -1.3984,-1.96315 -2.1875,-2.67969 -0.7891,-0.71654 -1.64217,-1.00681 -2.44336,-1.62891 -0.80119,-0.6221 -1.55817,-1.40918 -2.34179,-2.10547 -0.78362,-0.69629 -1.54861,-1.46862 -2.35938,-2.07226 -0.81077,-0.60364 -1.66378,-0.95934 -2.47851,-1.55274 -0.81473,-0.5934 -1.56956,-1.42476 -2.38867,-2.00976 -0.81911,-0.585 -1.67904,-0.92724 -2.50196,-1.50195 -0.82292,-0.57471 -1.59081,-1.38296 -2.41797,-1.94922 -0.82716,-0.56626 -1.68871,-0.89525 -2.51953,-1.45118 -0.83082,-0.55591 -1.61235,-1.3393 -2.44726,-1.88671 -0.83491,-0.54741 -1.70261,-0.86143 -2.54102,-1.39844 -0.83841,-0.53701 -1.62836,-1.29771 -2.4707,-1.82617 -0.84234,-0.52846 -1.70592,-0.90234 -2.56055,-1.34766 -0.85463,-0.44532 -1.71117,-0.88659 -2.56836,-1.32422 -0.85719,-0.43763 -1.72267,-0.80196 -2.57422,-1.30273 -0.85155,-0.50077 -1.66435,-1.21296 -2.51953,-1.70508 -0.85518,-0.49212 -1.7263,-0.83737 -2.59179,-1.25 -0.8655,-0.41263 -1.73373,-0.82166 -2.60157,-1.22656 -0.86784,-0.4049 -1.74186,-0.73693 -2.60547,-1.20117 -0.86361,-0.46424 -1.67928,-1.19775 -2.5625,-1.58594 -0.88322,-0.38819 -1.78621,-0.438 -2.67187,-0.75196 -0.88566,-0.31396 -1.75022,-0.75898 -2.62695,-1.13281 -0.87673,-0.37383 -1.75596,-0.74334 -2.63477,-1.10937 -0.87881,-0.36603 -1.75781,-0.72771 -2.63867,-1.08594 -0.88086,-0.35823 -1.76363,-0.71403 -2.64649,-1.06445 -0.88286,-0.35042 -1.7656,-0.69649 -2.65039,-1.03907 -0.88479,-0.34258 -1.76345,-0.74082 -2.6582,-1.01562 -0.89475,-0.2748 -1.80151,-0.36685 -2.69727,-0.63477 -0.89576,-0.26792 -1.76905,-0.71162 -2.66601,-0.97461 -0.89696,-0.26299 -1.80521,-0.34741 -2.70313,-0.60351 -0.89792,-0.2561 -1.78144,-0.62642 -2.67382,-0.9336 -0.89238,-0.30718 -1.78566,-0.61085 -2.67969,-0.91015 -0.89403,-0.2993 -1.784,-0.64742 -2.68555,-0.88477 -0.90155,-0.23735 -1.80805,-0.36139 -2.71289,-0.53906 -0.90484,-0.17767 -1.80947,-0.35364 -2.71484,-0.52734 -0.90537,-0.1737 -1.81309,-0.29508 -2.7168,-0.51563 -0.90371,-0.22055 -1.7926,-0.593 -2.69727,-0.80859 -0.90467,-0.21559 -1.81346,-0.32457 -2.7207,-0.48438 -0.90724,-0.15981 -1.81496,-0.31877 -2.72265,-0.47461 -0.90771,-0.15584 -1.81644,-0.30907 -2.72461,-0.46093 -0.90817,-0.15186 -1.81599,-0.30133 -2.72461,-0.44922 -0.90862,-0.14789 -1.81752,-0.29555 -2.72657,-0.43946 -0.90905,-0.14391 -1.81904,-0.28585 -2.72851,-0.42578 -0.90947,-0.13993 -1.81865,-0.27616 -2.72852,-0.41211 -0.90987,-0.13595 -1.81708,-0.31234 -2.73047,-0.40234 -0.91339,-0.09 -1.83063,-0.0517 -2.74414,-0.13867 -0.91351,-0.087 -1.81972,-0.25682 -2.73047,-0.38281 -0.91075,-0.126 -1.82325,-0.25104 -2.73437,-0.37305 -0.91112,-0.12201 -1.81846,-0.27938 -2.73242,-0.35938 -0.91396,-0.0799 -1.83123,-0.0792 -2.7461,-0.11914 -0.91487,-0.0399 -1.8301,-0.0451 -2.74414,-0.12109 -0.91404,-0.076 -1.8224,-0.22589 -2.73437,-0.33594 -0.91197,-0.11005 -1.82204,-0.25222 -2.73633,-0.32422 -0.91429,-0.072 -1.83106,-0.0714 -2.74609,-0.10742 -0.91503,-0.036 -1.82911,-0.0715 -2.74414,-0.10742 -0.91503,-0.0359 -1.83107,-0.0735 -2.7461,-0.10938 -0.91503,-0.036 -1.82911,-0.0714 -2.74414,-0.10742 -0.91503,-0.036 -2.74609,-0.10742 -2.74609,-0.10742 z"
       transform="rotate(-90,580,580)" />
  </g>
  <circle
     style="opacity:1;fill:#007cff;fill-opacity:1;fill-rule:evenodd;stroke:none;stroke-width:121.039;stroke-linecap:round;stroke-linejoin:round;paint-order:stroke fill markers"
     id="circle5065"
     cx="580"
     cy="580"
     r="82.712074" />
  <circle
     style="display:none;fill:none;fill-opacity:1;fill-rule:evenodd;stroke:#000000;stroke-width:4;stroke-linecap:round;stroke-linejoin:round;stroke-miterlimit:4;stroke-dasharray:none;stroke-opacity:1;paint-order:stroke fill markers"
     id="circle19404-4"
     cx="-580"
     cy="580"
     r="579.77002"
     transform="rotate(-90)" />
</svg>
