<?xml version="1.0" encoding="UTF-8" standalone="no"?>
<svg
   version="1.1"
   viewBox="0 0 212.99989 110.00023"
   id="svg24"
   width="212.99989"
   height="110.00023"
   xmlns="http://www.w3.org/2000/svg"
   xmlns:svg="http://www.w3.org/2000/svg">
  <defs
     id="defs28" />
  <g
     transform="matrix(0.99961,0,0,0.99911,103.0428,0.01320807)"
     id="g22">
    <g
       transform="matrix(0.28267,0.95182,-0.95182,0.28267,270.73,-97.037)"
       style="stroke:#ffffff"
       id="g6">
      <circle
         cx="78.671997"
         cy="255.25999"
         r="50"
         style="fill:#ffffff;fill-rule:evenodd;stroke:#ffffff;stroke-width:0.71398;stroke-linejoin:round"
         id="circle2" />
      <path
         d="m 78.672,205.26 a 50,50 0 0 0 -0.91416,0.0341 100,100 0 0 0 -13.379,49.966 100,100 0 0 0 13.379,49.966 50,50 0 0 0 0.91416,0.0341 50,50 0 0 0 50,-50 50,50 0 0 0 -50,-50 z"
         style="fill-rule:evenodd;stroke:#ffffff;stroke-width:0.71398;stroke-linejoin:round"
         id="path4" />
    </g>
    <rect
       transform="rotate(73.46)"
       x="47.330002"
       y="-93.764"
       width="1"
       height="120"
       style="fill:#ff0000;fill-rule:evenodd"
       id="rect8" />
    <circle
       cx="-83.083"
       cy="90.084999"
       r="20"
       style="fill:#003f40;fill-rule:evenodd"
       id="circle10" />
    <rect
       transform="rotate(73.311)"
       x="61.973"
       y="-94.601997"
       width="1"
       height="200"
       style="fill:#00fd00;fill-rule:evenodd"
       id="rect12" />
    <rect
       x="-10"
       y="49.5"
       width="120"
       height="1"
       style="fill:#ffff01;fill-rule:evenodd"
       id="rect14" />
    <circle
       cx="50"
       cy="50"
       r="2.5"
       style="fill:#0000ff;fill-rule:evenodd"
       id="circle16" />
    <circle
       cx="-0.051254001"
       cy="50"
       r="2.5"
       style="fill:#0000ff;fill-rule:evenodd"
       id="circle18" />
    <circle
       cx="-83.083"
       cy="90.084999"
       r="2.5"
       style="fill:#0000ff;fill-rule:evenodd"
       id="circle20" />
  </g>
</svg>
