<?xml version="1.0" encoding="UTF-8" standalone="no"?>
<svg
   version="1.1"
   viewBox="0 0 212.99989 110.00023"
   id="svg24"
   width="212.99989"
   height="110.00023"
   xmlns="http://www.w3.org/2000/svg"
   xmlns:svg="http://www.w3.org/2000/svg">
  <defs
     id="defs28" />
  <g
     transform="matrix(0.99961,0,0,0.99911,103.0428,0.01320807)"
     id="g22">
    <circle
       cx="62.166321"
       cy="-33.703197"
       r="49.645332"
       style="fill:#ffffff;fill-rule:evenodd;stroke:#ffffff;stroke-width:0.708916;stroke-linejoin:round"
       id="circle2"
       transform="rotate(73.459717)" />
    <path
       d="m 97.597641,35.865427 a 49.645333,49.645333 0 0 0 -0.290863,-0.860476 99.290666,99.290666 0 0 0 -51.34048,1.389489 99.290666,99.290666 0 0 0 -43.7767959,26.858289 49.645333,49.645333 0 0 0 0.2259486,0.879755 49.645333,49.645333 0 0 0 61.7245003,33.4575 49.645333,49.645333 0 0 0 33.4575,-61.7245 z"
       style="display:inline;opacity:1;fill:#b4b4b4;fill-opacity:1;fill-rule:evenodd;stroke:none;stroke-width:1.00064;stroke-linejoin:round;stroke-miterlimit:4;stroke-dasharray:2.00128, 4.00257;stroke-dashoffset:0;stroke-opacity:1"
       id="path4" />
    <path
       style="opacity:1;fill:#00000d;fill-opacity:1;fill-rule:evenodd;stroke:none;stroke-width:110.264;stroke-linecap:round;stroke-linejoin:round;stroke-opacity:1;paint-order:stroke fill markers"
       id="path1418"
       d="M 99.652004,50.340855 A 49.645363,49.670208 0 0 1 74.829322,93.356517 49.645363,49.670208 0 0 1 25.183959,93.356516 49.645363,49.670208 0 0 1 0.36127853,50.340855 H 50.006641 Z" />
    <rect
       transform="rotate(73.46)"
       x="47.330002"
       y="-93.764"
       width="1"
       height="120"
       style="fill:#ff0000;fill-rule:evenodd"
       id="rect8" />
    <circle
       cx="-83.083"
       cy="90.084999"
       r="20"
       style="fill:#00fffd;fill-rule:evenodd;fill-opacity:1"
       id="circle10" />
    <rect
       transform="rotate(73.311)"
       x="61.862926"
       y="-96.114433"
       height="222.07732"
       style="fill:#00ff00;fill-rule:evenodd;stroke-width:1.11039;fill-opacity:1"
       id="rect12"
       width="1.1102185" />
    <rect
       x="-10"
       y="49.5"
       width="120"
       height="1"
       style="fill:#ffff01;fill-rule:evenodd"
       id="rect14" />
    <circle
       cx="50"
       cy="50"
       r="2.5"
       style="fill:#0000ff;fill-rule:evenodd"
       id="circle16" />
    <circle
       cx="-0.051254001"
       cy="50"
       r="2.5"
       style="fill:#0000ff;fill-rule:evenodd"
       id="circle18" />
    <circle
       cx="-83.083"
       cy="90.084999"
       r="2.5"
       style="fill:#0000ff;fill-rule:evenodd"
       id="circle20" />
    <path
       d="M 97.306778,35.004951 C 80.367597,30.95742 62.661759,31.436614 45.966298,36.39444 29.271037,41.352938 14.173694,50.61558 2.1895021,63.252729"
       style="display:inline;opacity:1;fill:none;fill-opacity:1;fill-rule:evenodd;stroke:#464646;stroke-width:1.00064;stroke-linejoin:round;stroke-miterlimit:4;stroke-dasharray:2.00128, 4.00257;stroke-dashoffset:0;stroke-opacity:1"
       id="path4-8" />
  </g>
</svg>
