<?xml version="1.0" encoding="UTF-8" standalone="no"?>
<!-- Created with Inkscape (http://www.inkscape.org/) -->

<svg
   width="1001"
   height="1000"
   viewBox="0 0 264.84791 264.58334"
   version="1.1"
   id="svg4134"
   xmlns="http://www.w3.org/2000/svg"
   xmlns:svg="http://www.w3.org/2000/svg">
  <defs
     id="defs4131" />
  <g
     id="g1231"
     transform="translate(-185.11058,26.358631)"
     style="display:inline">
    <g
       id="g5784-88"
       transform="matrix(0,0.99999998,0.99999998,0,73.359705,-102.63058)"
       style="display:inline;stroke-linecap:round;stroke-linejoin:round">
      <g
         id="g8982"
         transform="rotate(-30,206.74042,92.300021)"
         style="stroke-linecap:round;stroke-linejoin:round">
        <circle
           style="fill:#ffffff;fill-opacity:1;fill-rule:evenodd;stroke:#000008;stroke-width:0.264583;stroke-linecap:round;stroke-linejoin:round;stroke-miterlimit:4;stroke-dasharray:none;stroke-opacity:1;paint-order:markers fill stroke"
           id="path4750-6"
           cx="132.29167"
           cy="132.29167"
           r="13.229167" />
        <path
           id="path4750-4-8"
           style="fill-rule:evenodd;stroke:#fffff8;stroke-width:1;stroke-linecap:round;stroke-linejoin:round;stroke-miterlimit:4;stroke-dasharray:none;stroke-opacity:1;paint-order:markers fill stroke"
           d="m 368.12695,566.4375 c -8.63249,0 -17.26497,1.11477 -25,3.34766 -15.47006,4.46581 -25,12.72071 -25,21.65234 a 50.000001,50.000001 0 0 0 25,43.30078 50.000001,50.000001 0 0 0 50,0 50.000001,50.000001 0 0 0 25,-43.30078 c 0,-8.93163 -9.52994,-17.18653 -25,-21.65234 -7.73503,-2.23289 -16.36751,-3.34766 -25,-3.34766 z"
           transform="matrix(0,-0.26458333,0.26458333,0,-24.19264,229.69218)" />
      </g>
    </g>
    <g
       id="g5784-88-2"
       transform="rotate(90,332.14564,229.5813)"
       style="display:inline;stroke-linecap:round;stroke-linejoin:round">
      <g
         id="g8982-6"
         transform="rotate(-30,206.74042,92.300021)"
         style="stroke:#00000e;stroke-width:0.264583;stroke-linecap:round;stroke-linejoin:round;stroke-miterlimit:4;stroke-dasharray:none;stroke-opacity:1">
        <circle
           style="fill:#ffffff;fill-opacity:1;fill-rule:evenodd;stroke:#00000e;stroke-width:0.264583;stroke-linecap:round;stroke-linejoin:round;stroke-miterlimit:4;stroke-dasharray:none;stroke-opacity:1;paint-order:markers fill stroke"
           id="path4750-6-5"
           cx="132.29167"
           cy="132.29167"
           r="13.229167" />
        <path
           id="path4750-4-8-2"
           style="fill-rule:evenodd;stroke:#ffffff;stroke-width:1;stroke-linecap:round;stroke-linejoin:round;stroke-miterlimit:4;stroke-dasharray:none;stroke-opacity:1;paint-order:markers fill stroke"
           d="m 368.12695,566.4375 c -8.63249,0 -17.26497,1.11477 -25,3.34766 -15.47006,4.46581 -25,12.72071 -25,21.65234 a 50.000001,50.000001 0 0 0 25,43.30078 50.000001,50.000001 0 0 0 50,0 50.000001,50.000001 0 0 0 25,-43.30078 c 0,-8.93163 -9.52994,-17.18653 -25,-21.65234 -7.73503,-2.23289 -16.36751,-3.34766 -25,-3.34766 z"
           transform="matrix(0,-0.26458333,0.26458333,0,-24.19264,229.69218)" />
      </g>
    </g>
    <g
       id="g5784-88-8"
       transform="matrix(0,-0.99999998,-0.99999998,0,561.9564,314.43061)"
       style="display:inline;stroke-linecap:round;stroke-linejoin:round">
      <g
         id="g8982-9"
         transform="rotate(-30,206.74042,92.300021)"
         style="stroke-linecap:round;stroke-linejoin:round">
        <circle
           style="fill:#000000;fill-opacity:1;fill-rule:evenodd;stroke:#ffffff;stroke-width:0.264583;stroke-linecap:round;stroke-linejoin:round;stroke-miterlimit:4;stroke-dasharray:none;stroke-opacity:1;paint-order:markers fill stroke"
           id="path4750-6-0"
           cx="132.29167"
           cy="132.29167"
           r="13.229167" />
        <path
           id="path4750-4-8-6"
           style="fill:#ffffff;fill-opacity:1;fill-rule:evenodd;stroke:#000015;stroke-width:1;stroke-linecap:round;stroke-linejoin:round;stroke-miterlimit:4;stroke-dasharray:none;stroke-opacity:1;paint-order:markers fill stroke"
           d="m 368.12695,566.4375 c -8.63249,0 -17.26497,1.11477 -25,3.34766 -15.47006,4.46581 -25,12.72071 -25,21.65234 a 50.000001,50.000001 0 0 0 25,43.30078 50.000001,50.000001 0 0 0 50,0 50.000001,50.000001 0 0 0 25,-43.30078 c 0,-8.93163 -9.52994,-17.18653 -25,-21.65234 -7.73503,-2.23289 -16.36751,-3.34766 -25,-3.34766 z"
           transform="matrix(0,-0.26458333,0.26458333,0,-24.19264,229.69218)" />
      </g>
    </g>
    <g
       id="g5784-5"
       transform="matrix(0,0.99999998,0.99999998,0,128.39702,-116.45245)"
       style="display:inline;stroke-linecap:round;stroke-linejoin:round">
      <g
         id="g7970"
         transform="rotate(-60,146.50982,129.01729)"
         style="stroke-linecap:round;stroke-linejoin:round">
        <circle
           style="fill:#ffffff;fill-opacity:1;fill-rule:evenodd;stroke:#000005;stroke-width:0.264583;stroke-linecap:round;stroke-linejoin:round;stroke-miterlimit:4;stroke-dasharray:none;stroke-opacity:1;paint-order:markers fill stroke"
           id="path4750-1"
           cx="132.29167"
           cy="132.29167"
           r="13.229167" />
        <path
           id="path4750-4-7"
           style="fill:#000000;fill-opacity:1;fill-rule:evenodd;stroke:#ffffff;stroke-width:1;stroke-linecap:round;stroke-linejoin:round;stroke-miterlimit:4;stroke-dasharray:none;stroke-opacity:1;paint-order:markers fill stroke"
           d="m 545.00586,649.83984 a 50.000001,43.301272 0 0 0 -25,5.80274 50.000001,43.301272 0 0 0 -25,37.5 50.000001,50.000001 0 0 0 25,43.30078 50.000001,50.000001 0 0 0 50,0 50.000001,50.000001 0 0 0 25,-43.30078 50.000001,43.301272 0 0 0 -25,-37.5 50.000001,43.301272 0 0 0 -25,-5.80274 z"
           transform="matrix(0,-0.26458333,0.26458333,0,-51.10209,276.49123)" />
      </g>
    </g>
    <g
       id="g5784-5-4"
       transform="rotate(90,311.63446,195.17435)"
       style="display:inline;stroke-linecap:round;stroke-linejoin:round">
      <g
         id="g7970-3"
         transform="rotate(-60,146.50982,129.01729)"
         style="stroke-linecap:round;stroke-linejoin:round">
        <circle
           style="fill:#ffffff;fill-opacity:1;fill-rule:evenodd;stroke:#000000;stroke-width:0.264583;stroke-linecap:round;stroke-linejoin:round;stroke-miterlimit:4;stroke-dasharray:none;stroke-opacity:1;paint-order:markers fill stroke"
           id="path4750-1-1"
           cx="132.29167"
           cy="132.29167"
           r="13.229167" />
        <path
           id="path4750-4-7-4"
           style="fill:#000000;fill-opacity:1;fill-rule:evenodd;stroke:#ffffff;stroke-width:1;stroke-linecap:round;stroke-linejoin:round;stroke-miterlimit:4;stroke-dasharray:none;stroke-opacity:1;paint-order:markers fill stroke"
           d="m 545.00586,649.83984 a 50.000001,43.301272 0 0 0 -25,5.80274 50.000001,43.301272 0 0 0 -25,37.5 50.000001,50.000001 0 0 0 25,43.30078 50.000001,50.000001 0 0 0 50,0 50.000001,50.000001 0 0 0 25,-43.30078 50.000001,43.301272 0 0 0 -25,-37.5 50.000001,43.301272 0 0 0 -25,-5.80274 z"
           transform="matrix(0,-0.26458333,0.26458333,0,-51.10209,276.49123)" />
      </g>
    </g>
    <g
       id="g5784-8"
       transform="matrix(0,-0.99999998,-0.99999998,0,449.89235,145.6867)"
       style="fill:#000000;fill-opacity:1;stroke:#ffffff;stroke-width:0.264583;stroke-linecap:round;stroke-linejoin:round;stroke-miterlimit:4;stroke-dasharray:none;stroke-opacity:1">
      <circle
         style="fill:#000000;fill-opacity:1;fill-rule:evenodd;stroke:#ffffff;stroke-width:0.264583;stroke-linecap:round;stroke-linejoin:round;stroke-miterlimit:4;stroke-dasharray:none;stroke-opacity:1;paint-order:markers fill stroke"
         id="path4750-7"
         cx="132.29167"
         cy="132.29167"
         r="13.229167" />
    </g>
    <g
       id="g5784-0-7"
       transform="matrix(0,0.99999998,0.99999998,0,92.837155,-26.424768)"
       style="stroke-linecap:round;stroke-linejoin:round">
      <circle
         style="fill:#ffffff;fill-opacity:1;fill-rule:evenodd;stroke:#000000;stroke-width:0.264583;stroke-linecap:butt;stroke-linejoin:round;stroke-miterlimit:4;stroke-dasharray:none;stroke-opacity:1;paint-order:markers fill stroke"
         id="path4750-0-5"
         cx="132.29167"
         cy="132.29167"
         r="13.229167" />
      <path
         style="fill:#000000;fill-opacity:1;fill-rule:evenodd;stroke:#ffffff;stroke-width:0.264583;stroke-linecap:butt;stroke-linejoin:round;stroke-miterlimit:4;stroke-dasharray:none;stroke-opacity:1;paint-order:markers fill stroke"
         id="path4750-4-4-6"
         transform="rotate(-90)"
         d="m -119.0625,132.29167 a 13.229167,13.229167 0 0 1 -6.61459,11.4568 13.229167,13.229167 0 0 1 -13.22917,0 13.229167,13.229167 0 0 1 -6.61458,-11.4568" />
    </g>
    <g
       id="g5784-6-9"
       transform="matrix(0,0.99999998,0.99999998,0,277.6486,-26.424768)"
       style="stroke-linecap:round;stroke-linejoin:round">
      <circle
         style="fill:#ffffff;fill-opacity:1;fill-rule:evenodd;stroke:#000000;stroke-width:0.264583;stroke-linecap:butt;stroke-linejoin:round;stroke-miterlimit:4;stroke-dasharray:none;stroke-opacity:1;paint-order:markers fill stroke"
         id="path4750-2-8"
         cx="132.29167"
         cy="132.29167"
         r="13.229167" />
      <path
         style="fill:#000000;fill-opacity:1;fill-rule:evenodd;stroke:#fffffc;stroke-width:0.264583;stroke-linecap:butt;stroke-linejoin:round;stroke-miterlimit:4;stroke-dasharray:none;stroke-opacity:1;paint-order:markers fill stroke"
         id="path4750-4-6-7"
         transform="rotate(-90)"
         d="m -119.0625,132.29167 a 13.229167,13.229167 0 0 1 -6.61459,11.4568 13.229167,13.229167 0 0 1 -13.22917,0 13.229167,13.229167 0 0 1 -6.61458,-11.4568" />
    </g>
    <g
       id="g5784-5-2"
       transform="rotate(-90,228.29163,99.894622)"
       style="display:inline;stroke-linecap:round;stroke-linejoin:round">
      <g
         id="g7970-6"
         transform="rotate(-60,146.50982,129.01729)"
         style="display:inline;stroke-linecap:round;stroke-linejoin:round">
        <circle
           style="fill:#000000;fill-opacity:1;fill-rule:evenodd;stroke:#ffffff;stroke-width:0.264583;stroke-linecap:round;stroke-linejoin:round;stroke-miterlimit:4;stroke-dasharray:none;stroke-opacity:1;paint-order:markers fill stroke"
           id="path4750-1-41"
           cx="132.29167"
           cy="132.29167"
           r="13.229167" />
        <path
           id="path4750-4-7-28"
           style="fill:#ffffff;fill-opacity:1;fill-rule:evenodd;stroke:#000008;stroke-width:1;stroke-linecap:round;stroke-linejoin:round;stroke-miterlimit:4;stroke-dasharray:none;stroke-opacity:1;paint-order:markers fill stroke"
           d="m 545.00586,649.83984 a 50.000001,43.301272 0 0 0 -25,5.80274 50.000001,43.301272 0 0 0 -25,37.5 50.000001,50.000001 0 0 0 25,43.30078 50.000001,50.000001 0 0 0 50,0 50.000001,50.000001 0 0 0 25,-43.30078 50.000001,43.301272 0 0 0 -25,-37.5 50.000001,43.301272 0 0 0 -25,-5.80274 z"
           transform="matrix(0,-0.26458333,0.26458333,0,-51.10209,276.49123)" />
      </g>
    </g>
    <g
       id="g5784-5-2-8-2"
       transform="matrix(0,-0.99999998,-0.99999998,0,506.87054,328.30082)"
       style="display:inline;stroke-linecap:round;stroke-linejoin:round">
      <g
         id="g7970-6-9-8"
         transform="rotate(-60,146.50982,129.01729)"
         style="display:inline;stroke-linecap:round;stroke-linejoin:round">
        <circle
           style="fill:#000000;fill-opacity:1;fill-rule:evenodd;stroke:#fffff4;stroke-width:0.264583;stroke-linecap:round;stroke-linejoin:round;stroke-miterlimit:4;stroke-dasharray:none;stroke-opacity:1;paint-order:markers fill stroke"
           id="path4750-1-41-2"
           cx="132.29167"
           cy="132.29167"
           r="13.229167" />
        <path
           id="path4750-4-7-28-8"
           style="fill:#ffffff;fill-opacity:1;fill-rule:evenodd;stroke:#000003;stroke-width:1;stroke-linecap:round;stroke-linejoin:round;stroke-miterlimit:4;stroke-dasharray:none;stroke-opacity:1;paint-order:markers fill stroke"
           d="m 545.00586,649.83984 a 50.000001,43.301272 0 0 0 -25,5.80274 50.000001,43.301272 0 0 0 -25,37.5 50.000001,50.000001 0 0 0 25,43.30078 50.000001,50.000001 0 0 0 50,0 50.000001,50.000001 0 0 0 25,-43.30078 50.000001,43.301272 0 0 0 -25,-37.5 50.000001,43.301272 0 0 0 -25,-5.80274 z"
           transform="matrix(0,-0.26458333,0.26458333,0,-51.10209,276.49123)" />
        <g
           id="g18452-2"
           style="display:none">
          <circle
             style="fill:none;fill-opacity:1;fill-rule:evenodd;stroke:#ff000b;stroke-width:0.529167;stroke-linecap:butt;stroke-linejoin:round;stroke-miterlimit:4;stroke-dasharray:none;stroke-opacity:1;paint-order:markers fill stroke"
             id="path17306-99"
             transform="rotate(150)"
             cx="-107.95338"
             cy="-77.602699"
             r="74.236603" />
          <path
             id="rect17820-6"
             style="fill:#ff0000;fill-opacity:1;fill-rule:evenodd;stroke:none;stroke-width:0;stroke-linecap:butt;stroke-miterlimit:4;stroke-dasharray:none;paint-order:markers fill stroke"
             d="m 174.15752,77.979762 -8.10906,1.481037 5.33714,-6.282137 z" />
          <path
             id="rect17820-9-0"
             style="display:inline;fill:#ff0000;fill-opacity:1;fill-rule:evenodd;stroke:none;stroke-width:0;stroke-linecap:butt;stroke-linejoin:round;stroke-miterlimit:4;stroke-dasharray:none;paint-order:markers fill stroke"
             d="m 93.197821,-46.720218 5.337146,-6.282133 -8.10906,1.48103 z" />
        </g>
      </g>
    </g>
    <g
       id="g8982-9-3"
       transform="rotate(-120,190.62371,111.82097)"
       style="display:inline;stroke-linecap:round;stroke-linejoin:round">
      <circle
         style="fill:#000000;fill-opacity:1;fill-rule:evenodd;stroke:#ffffff;stroke-width:0.264583;stroke-linecap:round;stroke-linejoin:round;stroke-miterlimit:4;stroke-dasharray:none;stroke-opacity:1;paint-order:markers fill stroke"
         id="path4750-6-0-7"
         cx="132.29167"
         cy="132.29167"
         r="13.229167" />
      <path
         id="path4750-4-8-6-3"
         style="fill:#ffffff;fill-opacity:1;fill-rule:evenodd;stroke:#000000;stroke-width:1;stroke-linecap:round;stroke-linejoin:round;stroke-miterlimit:4;stroke-dasharray:none;stroke-opacity:1;paint-order:markers fill stroke"
         d="m 368.12695,566.4375 c -8.63249,0 -17.26497,1.11477 -25,3.34766 -15.47006,4.46581 -25,12.72071 -25,21.65234 a 50.000001,50.000001 0 0 0 25,43.30078 50.000001,50.000001 0 0 0 50,0 50.000001,50.000001 0 0 0 25,-43.30078 c 0,-8.93163 -9.52994,-17.18653 -25,-21.65234 -7.73503,-2.23289 -16.36751,-3.34766 -25,-3.34766 z"
         transform="matrix(0,-0.26458333,0.26458333,0,-24.19264,229.69218)" />
    </g>
    <g
       id="g5784-7"
       transform="matrix(0,-0.99999998,-0.99999998,0,449.89236,330.76271)"
       style="display:inline;stroke:#000005;stroke-width:0.264583;stroke-linecap:round;stroke-linejoin:round;stroke-miterlimit:4;stroke-dasharray:none;stroke-opacity:1">
      <circle
         style="fill:#ffffff;fill-opacity:1;fill-rule:evenodd;stroke:#000005;stroke-width:0.264583;stroke-linecap:round;stroke-linejoin:round;stroke-miterlimit:4;stroke-dasharray:none;stroke-opacity:1;paint-order:markers fill stroke"
         id="path4750-5"
         cx="132.29167"
         cy="132.29167"
         r="13.229167" />
    </g>
    <g
       id="g13494-3"
       style="display:none"
       transform="matrix(0,-1,-1,0,449.82621,238.22477)">
      <path
         style="fill:none;stroke:#ff000d;stroke-width:0.529157;stroke-linecap:round;stroke-linejoin:round;stroke-miterlimit:4;stroke-dasharray:none;stroke-opacity:1"
         d="M 15.951341,191.82292 119.0625,132.29167"
         id="path9645-7-9" />
      <path
         style="fill:none;stroke:#ff000d;stroke-width:0.529157;stroke-linecap:round;stroke-linejoin:round;stroke-miterlimit:4;stroke-dasharray:none;stroke-opacity:1"
         d="M 145.52084,132.29167 248.632,72.760421"
         id="path9645-7-5-1" />
      <path
         style="fill:none;stroke:#ff000d;stroke-width:0.529157;stroke-linecap:round;stroke-linejoin:round;stroke-miterlimit:4;stroke-dasharray:none;stroke-opacity:1"
         d="M 145.52084,132.29167 205.0521,29.18052"
         id="path9645-7-5-9-9" />
      <path
         style="fill:none;stroke:#ff000d;stroke-width:0.529157;stroke-linecap:round;stroke-linejoin:round;stroke-miterlimit:4;stroke-dasharray:none;stroke-opacity:1"
         d="M 59.53124,235.40282 119.0625,132.29167"
         id="path9645-7-5-9-0-6" />
      <path
         style="fill:none;stroke:#ff000d;stroke-width:0.529157;stroke-linecap:round;stroke-linejoin:round;stroke-miterlimit:4;stroke-dasharray:none;stroke-opacity:1"
         d="M 59.531237,29.180521 119.0625,132.29167"
         id="path9645-7-5-9-2-9" />
      <path
         style="fill:none;stroke:#ff000d;stroke-width:0.529157;stroke-linecap:round;stroke-linejoin:round;stroke-miterlimit:4;stroke-dasharray:none;stroke-opacity:1"
         d="M 145.52084,132.29167 205.0521,235.40282"
         id="path9645-7-5-9-01-3" />
      <path
         style="fill:none;stroke:#ff000d;stroke-width:0.529157;stroke-linecap:round;stroke-linejoin:round;stroke-miterlimit:4;stroke-dasharray:none;stroke-opacity:1"
         d="M 15.951345,72.76042 119.0625,132.29167"
         id="path9645-7-3-3" />
      <path
         style="fill:none;stroke:#ff000d;stroke-width:0.529157;stroke-linecap:round;stroke-linejoin:round;stroke-miterlimit:4;stroke-dasharray:none;stroke-opacity:1"
         d="M 145.52084,132.29167 248.632,191.82292"
         id="path9645-7-4-8" />
    </g>
  </g>
  <g
     id="layer1"
     transform="translate(0.1322935)"
     style="display:inline">
    <g
       id="g10386"
       style="stroke-linecap:round;stroke-linejoin:round">
      <g
         id="g10866"
         style="stroke:#808080;stroke-width:0.529167;stroke-linecap:round;stroke-linejoin:round;stroke-miterlimit:4;stroke-dasharray:none;stroke-opacity:1">
        <g
           id="g10687"
           style="stroke:#808080;stroke-width:0.529167;stroke-linecap:round;stroke-linejoin:round;stroke-miterlimit:4;stroke-dasharray:none;stroke-opacity:1">
          <path
             style="fill:none;stroke:#808080;stroke-width:0.529167;stroke-linecap:round;stroke-linejoin:round;stroke-miterlimit:4;stroke-dasharray:none;stroke-opacity:1"
             d="m 13.229168,119.1948 238.125002,1e-5"
             id="path9645" />
          <path
             style="fill:none;stroke:#808080;stroke-width:0.529167;stroke-linecap:round;stroke-linejoin:round;stroke-miterlimit:4;stroke-dasharray:none;stroke-opacity:1"
             d="m 13.229169,145.38854 238.124991,1e-5"
             id="path9645-8" />
          <path
             style="fill:none;stroke:#808080;stroke-width:0.529167;stroke-linecap:round;stroke-linejoin:round;stroke-miterlimit:4;stroke-dasharray:none;stroke-opacity:1"
             d="m 119.19479,251.35417 2e-5,-238.125003"
             id="path9645-6" />
          <path
             style="fill:none;stroke:#808080;stroke-width:0.529167;stroke-linecap:round;stroke-linejoin:round;stroke-miterlimit:4;stroke-dasharray:none;stroke-opacity:1"
             d="m 145.38852,251.35417 2e-5,-238.125005"
             id="path9645-6-7" />
        </g>
        <g
           id="g10687-5"
           style="stroke:#808080;stroke-width:0.529167;stroke-linecap:round;stroke-linejoin:round;stroke-miterlimit:4;stroke-dasharray:none;stroke-opacity:1"
           transform="rotate(-30,132.29166,132.29167)">
          <path
             style="fill:none;stroke:#808080;stroke-width:0.529167;stroke-linecap:round;stroke-linejoin:round;stroke-miterlimit:4;stroke-dasharray:none;stroke-opacity:1"
             d="m 13.229168,119.1948 238.125002,1e-5"
             id="path9645-9" />
          <path
             style="fill:none;stroke:#808080;stroke-width:0.529167;stroke-linecap:round;stroke-linejoin:round;stroke-miterlimit:4;stroke-dasharray:none;stroke-opacity:1"
             d="m 13.229169,145.38854 238.124991,1e-5"
             id="path9645-8-3" />
          <path
             style="fill:none;stroke:#808080;stroke-width:0.529167;stroke-linecap:round;stroke-linejoin:round;stroke-miterlimit:4;stroke-dasharray:none;stroke-opacity:1"
             d="m 119.19479,251.35417 2e-5,-238.125003"
             id="path9645-6-5" />
          <path
             style="fill:none;stroke:#808080;stroke-width:0.529167;stroke-linecap:round;stroke-linejoin:round;stroke-miterlimit:4;stroke-dasharray:none;stroke-opacity:1"
             d="m 145.38852,251.35417 2e-5,-238.125005"
             id="path9645-6-7-7" />
        </g>
        <g
           id="g10687-5-0"
           style="stroke:#808080;stroke-width:0.529167;stroke-linecap:round;stroke-linejoin:round;stroke-miterlimit:4;stroke-dasharray:none;stroke-opacity:1"
           transform="rotate(-60,132.29166,132.29167)">
          <path
             style="fill:none;stroke:#808080;stroke-width:0.529167;stroke-linecap:round;stroke-linejoin:round;stroke-miterlimit:4;stroke-dasharray:none;stroke-opacity:1"
             d="m 13.229168,119.1948 238.125002,1e-5"
             id="path9645-9-8" />
          <path
             style="fill:none;stroke:#808080;stroke-width:0.529167;stroke-linecap:round;stroke-linejoin:round;stroke-miterlimit:4;stroke-dasharray:none;stroke-opacity:1"
             d="m 13.229169,145.38854 238.124991,1e-5"
             id="path9645-8-3-1" />
          <path
             style="fill:none;stroke:#808080;stroke-width:0.529167;stroke-linecap:round;stroke-linejoin:round;stroke-miterlimit:4;stroke-dasharray:none;stroke-opacity:1"
             d="m 119.19479,251.35417 2e-5,-238.125003"
             id="path9645-6-5-9" />
          <path
             style="fill:none;stroke:#808080;stroke-width:0.529167;stroke-linecap:round;stroke-linejoin:round;stroke-miterlimit:4;stroke-dasharray:none;stroke-opacity:1"
             d="m 145.38852,251.35417 2e-5,-238.125005"
             id="path9645-6-7-7-9" />
        </g>
      </g>
    </g>
    <g
       id="g13494"
       style="display:none">
      <path
         style="fill:none;stroke:#ff000d;stroke-width:0.529157;stroke-linecap:round;stroke-linejoin:round;stroke-miterlimit:4;stroke-dasharray:none;stroke-opacity:1"
         d="M 15.951341,191.82292 119.0625,132.29167"
         id="path9645-7" />
      <path
         style="fill:none;stroke:#ff000d;stroke-width:0.529157;stroke-linecap:round;stroke-linejoin:round;stroke-miterlimit:4;stroke-dasharray:none;stroke-opacity:1"
         d="M 145.52084,132.29167 248.632,72.760421"
         id="path9645-7-5" />
      <path
         style="fill:none;stroke:#ff000d;stroke-width:0.529157;stroke-linecap:round;stroke-linejoin:round;stroke-miterlimit:4;stroke-dasharray:none;stroke-opacity:1"
         d="M 145.52084,132.29167 205.0521,29.18052"
         id="path9645-7-5-9" />
      <path
         style="fill:none;stroke:#ff000d;stroke-width:0.529157;stroke-linecap:round;stroke-linejoin:round;stroke-miterlimit:4;stroke-dasharray:none;stroke-opacity:1"
         d="M 59.53124,235.40282 119.0625,132.29167"
         id="path9645-7-5-9-0" />
      <path
         style="fill:none;stroke:#ff000d;stroke-width:0.529157;stroke-linecap:round;stroke-linejoin:round;stroke-miterlimit:4;stroke-dasharray:none;stroke-opacity:1"
         d="M 59.531237,29.180521 119.0625,132.29167"
         id="path9645-7-5-9-2" />
      <path
         style="fill:none;stroke:#ff000d;stroke-width:0.529157;stroke-linecap:round;stroke-linejoin:round;stroke-miterlimit:4;stroke-dasharray:none;stroke-opacity:1"
         d="M 145.52084,132.29167 205.0521,235.40282"
         id="path9645-7-5-9-01" />
      <path
         style="fill:none;stroke:#ff000d;stroke-width:0.529157;stroke-linecap:round;stroke-linejoin:round;stroke-miterlimit:4;stroke-dasharray:none;stroke-opacity:1"
         d="M 15.951345,72.76042 119.0625,132.29167"
         id="path9645-7-3" />
      <path
         style="fill:none;stroke:#ff000d;stroke-width:0.529157;stroke-linecap:round;stroke-linejoin:round;stroke-miterlimit:4;stroke-dasharray:none;stroke-opacity:1"
         d="M 145.52084,132.29167 248.632,191.82292"
         id="path9645-7-4" />
    </g>
    <g
       id="g2503"
       style="display:inline">
      <g
         id="g5784-0-6-54"
         transform="matrix(0,1,1,0,103.11114,59.53124)"
         style="display:inline;stroke-linecap:round;stroke-linejoin:round">
        <circle
           style="fill:#ffffff;fill-opacity:1;fill-rule:evenodd;stroke:none;stroke-width:0;stroke-linecap:round;stroke-linejoin:round;stroke-miterlimit:4;stroke-dasharray:none;paint-order:markers fill stroke"
           id="path4750-0-0-4"
           cx="132.29167"
           cy="132.29167"
           r="13.229167" />
        <path
           style="fill:#000000;fill-opacity:1;fill-rule:evenodd;stroke:none;stroke-width:0;stroke-linecap:round;stroke-linejoin:round;stroke-miterlimit:4;stroke-dasharray:none;paint-order:markers fill stroke"
           id="path4750-4-4-2-99"
           transform="rotate(-90)"
           d="m -119.0625,132.29167 a 13.229167,13.229167 0 0 1 -6.61459,11.4568 13.229167,13.229167 0 0 1 -13.22917,0 13.229167,13.229167 0 0 1 -6.61458,-11.4568" />
      </g>
      <g
         id="g5784-6-7-3"
         transform="matrix(0,1,1,0,-103.11114,-59.531248)"
         style="display:inline;stroke-linecap:round;stroke-linejoin:round">
        <circle
           style="fill:#ffffff;fill-opacity:1;fill-rule:evenodd;stroke:none;stroke-width:0;stroke-linecap:round;stroke-linejoin:round;stroke-miterlimit:4;stroke-dasharray:none;paint-order:markers fill stroke"
           id="path4750-2-6-6"
           cx="132.29167"
           cy="132.29167"
           r="13.229167" />
        <path
           style="fill:#000000;fill-opacity:1;fill-rule:evenodd;stroke:none;stroke-width:0;stroke-linecap:round;stroke-linejoin:round;stroke-miterlimit:4;stroke-dasharray:none;paint-order:markers fill stroke"
           id="path4750-4-6-1-05"
           transform="rotate(-90)"
           d="m -119.0625,132.29167 a 13.229167,13.229167 0 0 1 -6.61459,11.4568 13.229167,13.229167 0 0 1 -13.22917,0 13.229167,13.229167 0 0 1 -6.61458,-11.4568" />
      </g>
      <g
         id="g5784-0"
         transform="rotate(90,72.760422,72.760416)"
         style="stroke-linecap:round;stroke-linejoin:round">
        <circle
           style="fill:#ffffff;fill-opacity:1;fill-rule:evenodd;stroke:#000000;stroke-width:0.264583;stroke-linecap:butt;stroke-linejoin:round;stroke-miterlimit:4;stroke-dasharray:none;stroke-opacity:1;paint-order:markers fill stroke"
           id="path4750-0"
           cx="132.29167"
           cy="132.29167"
           r="13.229167" />
        <path
           style="fill:#000000;fill-opacity:1;fill-rule:evenodd;stroke:#ffffff;stroke-width:0.264583;stroke-linecap:butt;stroke-linejoin:round;stroke-miterlimit:4;stroke-dasharray:none;stroke-opacity:1;paint-order:markers fill stroke"
           id="path4750-4-4"
           transform="rotate(-90)"
           d="m -119.0625,132.29167 a 13.229167,13.229167 0 0 1 -6.61459,11.4568 13.229167,13.229167 0 0 1 -13.22917,0 13.229167,13.229167 0 0 1 -6.61458,-11.4568" />
      </g>
      <g
         id="g5784-6"
         transform="rotate(90,191.82292,191.82291)"
         style="stroke-linecap:round;stroke-linejoin:round">
        <circle
           style="fill:#ffffff;fill-opacity:1;fill-rule:evenodd;stroke:#000000;stroke-width:0.264583;stroke-linecap:butt;stroke-linejoin:round;stroke-miterlimit:4;stroke-dasharray:none;stroke-opacity:1;paint-order:markers fill stroke"
           id="path4750-2"
           cx="132.29167"
           cy="132.29167"
           r="13.229167" />
        <path
           style="fill:#000000;fill-opacity:1;fill-rule:evenodd;stroke:#fffffc;stroke-width:0.264583;stroke-linecap:butt;stroke-linejoin:round;stroke-miterlimit:4;stroke-dasharray:none;stroke-opacity:1;paint-order:markers fill stroke"
           id="path4750-4-6"
           transform="rotate(-90)"
           d="m -119.0625,132.29167 a 13.229167,13.229167 0 0 1 -6.61459,11.4568 13.229167,13.229167 0 0 1 -13.22917,0 13.229167,13.229167 0 0 1 -6.61458,-11.4568" />
      </g>
      <g
         id="g6812"
         transform="translate(-57.401138,-12.062847)"
         style="display:inline">
        <g
           id="g5784-0-6"
           transform="rotate(120,107.18827,86.15261)"
           style="display:none">
          <circle
             style="fill:#ffffff;fill-opacity:1;fill-rule:evenodd;stroke:none;stroke-width:0;stroke-linecap:round;stroke-linejoin:round;stroke-miterlimit:4;stroke-dasharray:none;paint-order:markers fill stroke"
             id="path4750-0-0"
             cx="132.29167"
             cy="132.29167"
             r="13.229167" />
          <path
             style="fill:#000000;fill-opacity:1;fill-rule:evenodd;stroke:none;stroke-width:0;stroke-linecap:round;stroke-linejoin:round;stroke-miterlimit:4;stroke-dasharray:none;paint-order:markers fill stroke"
             id="path4750-4-4-2"
             transform="rotate(-90)"
             d="m -119.0625,132.29167 a 13.229167,13.229167 0 0 1 -6.61459,11.4568 13.229167,13.229167 0 0 1 -13.22917,0 13.229167,13.229167 0 0 1 -6.61458,-11.4568" />
        </g>
        <g
           id="g5784-6-7"
           transform="rotate(90,236.28201,188.81361)">
          <circle
             style="fill:#ffffff;fill-opacity:1;fill-rule:evenodd;stroke:none;stroke-width:0;stroke-linecap:round;stroke-linejoin:round;stroke-miterlimit:4;stroke-dasharray:none;paint-order:markers fill stroke"
             id="path4750-2-6"
             cx="132.29167"
             cy="132.29167"
             r="13.229167" />
          <path
             style="fill:#000000;fill-opacity:1;fill-rule:evenodd;stroke:none;stroke-width:0;stroke-linecap:round;stroke-linejoin:round;stroke-miterlimit:4;stroke-dasharray:none;paint-order:markers fill stroke"
             id="path4750-4-6-1"
             transform="rotate(-90)"
             d="m -119.0625,132.29167 a 13.229167,13.229167 0 0 1 -6.61459,11.4568 13.229167,13.229167 0 0 1 -13.22917,0 13.229167,13.229167 0 0 1 -6.61458,-11.4568" />
        </g>
      </g>
      <g
         id="g6812-9"
         transform="translate(-160.51229,166.53089)"
         style="display:inline">
        <g
           id="g5784-0-6-1"
           transform="rotate(120,107.18827,86.15261)"
           style="display:none">
          <circle
             style="fill:#ffffff;fill-opacity:1;fill-rule:evenodd;stroke:none;stroke-width:0;stroke-linecap:round;stroke-linejoin:round;stroke-miterlimit:4;stroke-dasharray:none;paint-order:markers fill stroke"
             id="path4750-0-0-9"
             cx="132.29167"
             cy="132.29167"
             r="13.229167" />
          <path
             style="fill:#000000;fill-opacity:1;fill-rule:evenodd;stroke:none;stroke-width:0;stroke-linecap:round;stroke-linejoin:round;stroke-miterlimit:4;stroke-dasharray:none;paint-order:markers fill stroke"
             id="path4750-4-4-2-6"
             transform="rotate(-90)"
             d="m -119.0625,132.29167 a 13.229167,13.229167 0 0 1 -6.61459,11.4568 13.229167,13.229167 0 0 1 -13.22917,0 13.229167,13.229167 0 0 1 -6.61458,-11.4568" />
        </g>
        <g
           id="g5784-6-7-9"
           transform="rotate(90,236.28201,188.81361)">
          <circle
             style="fill:#ffffff;fill-opacity:1;fill-rule:evenodd;stroke:none;stroke-width:0;stroke-linecap:round;stroke-linejoin:round;stroke-miterlimit:4;stroke-dasharray:none;paint-order:markers fill stroke"
             id="path4750-2-6-3"
             cx="132.29167"
             cy="132.29167"
             r="13.229167" />
          <path
             style="fill:#000000;fill-opacity:1;fill-rule:evenodd;stroke:none;stroke-width:0;stroke-linecap:round;stroke-linejoin:round;stroke-miterlimit:4;stroke-dasharray:none;paint-order:markers fill stroke"
             id="path4750-4-6-1-38"
             transform="rotate(-90)"
             d="m -119.0625,132.29167 a 13.229167,13.229167 0 0 1 -6.61459,11.4568 13.229167,13.229167 0 0 1 -13.22917,0 13.229167,13.229167 0 0 1 -6.61458,-11.4568" />
        </g>
      </g>
      <g
         id="g6812-0"
         transform="translate(-220.04354,150.57948)"
         style="display:inline">
        <g
           id="g5784-0-6-56"
           transform="rotate(120,107.18827,86.15261)"
           style="display:none">
          <circle
             style="fill:#ffffff;fill-opacity:1;fill-rule:evenodd;stroke:none;stroke-width:0;stroke-linecap:round;stroke-linejoin:round;stroke-miterlimit:4;stroke-dasharray:none;paint-order:markers fill stroke"
             id="path4750-0-0-6"
             cx="132.29167"
             cy="132.29167"
             r="13.229167" />
          <path
             style="fill:#000000;fill-opacity:1;fill-rule:evenodd;stroke:none;stroke-width:0;stroke-linecap:round;stroke-linejoin:round;stroke-miterlimit:4;stroke-dasharray:none;paint-order:markers fill stroke"
             id="path4750-4-4-2-4"
             transform="rotate(-90)"
             d="m -119.0625,132.29167 a 13.229167,13.229167 0 0 1 -6.61459,11.4568 13.229167,13.229167 0 0 1 -13.22917,0 13.229167,13.229167 0 0 1 -6.61458,-11.4568" />
        </g>
        <g
           id="g5784-6-7-00"
           transform="rotate(90,236.28201,188.81361)">
          <circle
             style="fill:#ffffff;fill-opacity:1;fill-rule:evenodd;stroke:none;stroke-width:0;stroke-linecap:round;stroke-linejoin:round;stroke-miterlimit:4;stroke-dasharray:none;paint-order:markers fill stroke"
             id="path4750-2-6-4"
             cx="132.29167"
             cy="132.29167"
             r="13.229167" />
          <path
             style="fill:#000000;fill-opacity:1;fill-rule:evenodd;stroke:none;stroke-width:0;stroke-linecap:round;stroke-linejoin:round;stroke-miterlimit:4;stroke-dasharray:none;paint-order:markers fill stroke"
             id="path4750-4-6-1-6"
             transform="rotate(-90)"
             d="m -119.0625,132.29167 a 13.229167,13.229167 0 0 1 -6.61459,11.4568 13.229167,13.229167 0 0 1 -13.22917,0 13.229167,13.229167 0 0 1 -6.61458,-11.4568" />
        </g>
      </g>
      <g
         id="g6812-2"
         transform="translate(-263.62343,106.99954)"
         style="display:inline">
        <g
           id="g5784-0-6-6"
           transform="rotate(120,107.18827,86.15261)"
           style="display:none">
          <circle
             style="fill:#ffffff;fill-opacity:1;fill-rule:evenodd;stroke:none;stroke-width:0;stroke-linecap:round;stroke-linejoin:round;stroke-miterlimit:4;stroke-dasharray:none;paint-order:markers fill stroke"
             id="path4750-0-0-7"
             cx="132.29167"
             cy="132.29167"
             r="13.229167" />
          <path
             style="fill:#000000;fill-opacity:1;fill-rule:evenodd;stroke:none;stroke-width:0;stroke-linecap:round;stroke-linejoin:round;stroke-miterlimit:4;stroke-dasharray:none;paint-order:markers fill stroke"
             id="path4750-4-4-2-5"
             transform="rotate(-90)"
             d="m -119.0625,132.29167 a 13.229167,13.229167 0 0 1 -6.61459,11.4568 13.229167,13.229167 0 0 1 -13.22917,0 13.229167,13.229167 0 0 1 -6.61458,-11.4568" />
        </g>
        <g
           id="g5784-6-7-6"
           transform="rotate(90,236.28201,188.81361)">
          <circle
             style="fill:#ffffff;fill-opacity:1;fill-rule:evenodd;stroke:none;stroke-width:0;stroke-linecap:round;stroke-linejoin:round;stroke-miterlimit:4;stroke-dasharray:none;paint-order:markers fill stroke"
             id="path4750-2-6-9"
             cx="132.29167"
             cy="132.29167"
             r="13.229167" />
          <path
             style="fill:#000000;fill-opacity:1;fill-rule:evenodd;stroke:none;stroke-width:0;stroke-linecap:round;stroke-linejoin:round;stroke-miterlimit:4;stroke-dasharray:none;paint-order:markers fill stroke"
             id="path4750-4-6-1-8"
             transform="rotate(-90)"
             d="m -119.0625,132.29167 a 13.229167,13.229167 0 0 1 -6.61459,11.4568 13.229167,13.229167 0 0 1 -13.22917,0 13.229167,13.229167 0 0 1 -6.61458,-11.4568" />
        </g>
      </g>
      <g
         id="g5784-0-6-5-0"
         transform="matrix(0,1,1,0,59.531243,103.11114)"
         style="display:inline">
        <circle
           style="fill:#ffffff;fill-opacity:1;fill-rule:evenodd;stroke:none;stroke-width:0;stroke-linecap:round;stroke-linejoin:round;stroke-miterlimit:4;stroke-dasharray:none;paint-order:markers fill stroke"
           id="path4750-0-0-2-4"
           cx="132.29167"
           cy="132.29167"
           r="13.229167" />
        <path
           style="fill:#000000;fill-opacity:1;fill-rule:evenodd;stroke:none;stroke-width:0;stroke-linecap:round;stroke-linejoin:round;stroke-miterlimit:4;stroke-dasharray:none;paint-order:markers fill stroke"
           id="path4750-4-4-2-9-0"
           transform="rotate(-90)"
           d="m -119.0625,132.29167 a 13.229167,13.229167 0 0 1 -6.61459,11.4568 13.229167,13.229167 0 0 1 -13.22917,0 13.229167,13.229167 0 0 1 -6.61458,-11.4568" />
      </g>
      <g
         id="g5784-6-7-0-9"
         transform="matrix(0,1,1,0,-59.531254,-103.11114)"
         style="display:inline">
        <circle
           style="fill:#ffffff;fill-opacity:1;fill-rule:evenodd;stroke:none;stroke-width:0;stroke-linecap:round;stroke-linejoin:round;stroke-miterlimit:4;stroke-dasharray:none;paint-order:markers fill stroke"
           id="path4750-2-6-28-1"
           cx="132.29167"
           cy="132.29167"
           r="13.229167" />
        <path
           style="fill:#000000;fill-opacity:1;fill-rule:evenodd;stroke:none;stroke-width:0;stroke-linecap:round;stroke-linejoin:round;stroke-miterlimit:4;stroke-dasharray:none;paint-order:markers fill stroke"
           id="path4750-4-6-1-3-9"
           transform="rotate(-90)"
           d="m -119.0625,132.29167 a 13.229167,13.229167 0 0 1 -6.61459,11.4568 13.229167,13.229167 0 0 1 -13.22917,0 13.229167,13.229167 0 0 1 -6.61458,-11.4568" />
      </g>
      <g
         id="g6812-76"
         transform="translate(-100.98102,-55.642685)"
         style="display:inline;stroke-linecap:round;stroke-linejoin:round">
        <g
           id="g5784-0-6-13"
           transform="rotate(120,107.18827,86.15261)"
           style="display:none">
          <circle
             style="fill:#ffffff;fill-opacity:1;fill-rule:evenodd;stroke:none;stroke-width:0;stroke-linecap:round;stroke-linejoin:round;stroke-miterlimit:4;stroke-dasharray:none;paint-order:markers fill stroke"
             id="path4750-0-0-21"
             cx="132.29167"
             cy="132.29167"
             r="13.229167" />
          <path
             style="fill:#000000;fill-opacity:1;fill-rule:evenodd;stroke:none;stroke-width:0;stroke-linecap:round;stroke-linejoin:round;stroke-miterlimit:4;stroke-dasharray:none;paint-order:markers fill stroke"
             id="path4750-4-4-2-59"
             transform="rotate(-90)"
             d="m -119.0625,132.29167 a 13.229167,13.229167 0 0 1 -6.61459,11.4568 13.229167,13.229167 0 0 1 -13.22917,0 13.229167,13.229167 0 0 1 -6.61458,-11.4568" />
        </g>
        <g
           id="g5784-6-7-91"
           transform="rotate(90,236.28201,188.81361)">
          <circle
             style="fill:#ffffff;fill-opacity:1;fill-rule:evenodd;stroke:none;stroke-width:0;stroke-linecap:round;stroke-linejoin:round;stroke-miterlimit:4;stroke-dasharray:none;paint-order:markers fill stroke"
             id="path4750-2-6-49"
             cx="132.29167"
             cy="132.29167"
             r="13.229167" />
          <path
             style="fill:#000000;fill-opacity:1;fill-rule:evenodd;stroke:none;stroke-width:0;stroke-linecap:round;stroke-linejoin:round;stroke-miterlimit:4;stroke-dasharray:none;paint-order:markers fill stroke"
             id="path4750-4-6-1-1"
             transform="rotate(-90)"
             d="m -119.0625,132.29167 a 13.229167,13.229167 0 0 1 -6.61459,11.4568 13.229167,13.229167 0 0 1 -13.22917,0 13.229167,13.229167 0 0 1 -6.61458,-11.4568" />
        </g>
      </g>
      <g
         id="g6812-7"
         transform="translate(-160.51228,-71.594101)"
         style="display:inline">
        <g
           id="g5784-0-6-2"
           transform="rotate(120,107.18827,86.15261)"
           style="display:none">
          <circle
             style="fill:#ffffff;fill-opacity:1;fill-rule:evenodd;stroke:none;stroke-width:0;stroke-linecap:round;stroke-linejoin:round;stroke-miterlimit:4;stroke-dasharray:none;paint-order:markers fill stroke"
             id="path4750-0-0-8"
             cx="132.29167"
             cy="132.29167"
             r="13.229167" />
          <path
             style="fill:#000000;fill-opacity:1;fill-rule:evenodd;stroke:none;stroke-width:0;stroke-linecap:round;stroke-linejoin:round;stroke-miterlimit:4;stroke-dasharray:none;paint-order:markers fill stroke"
             id="path4750-4-4-2-2"
             transform="rotate(-90)"
             d="m -119.0625,132.29167 a 13.229167,13.229167 0 0 1 -6.61459,11.4568 13.229167,13.229167 0 0 1 -13.22917,0 13.229167,13.229167 0 0 1 -6.61458,-11.4568" />
        </g>
        <g
           id="g5784-6-7-99"
           transform="rotate(90,236.28201,188.81361)">
          <circle
             style="fill:#ffffff;fill-opacity:1;fill-rule:evenodd;stroke:none;stroke-width:0;stroke-linecap:round;stroke-linejoin:round;stroke-miterlimit:4;stroke-dasharray:none;paint-order:markers fill stroke"
             id="path4750-2-6-60"
             cx="132.29167"
             cy="132.29167"
             r="13.229167" />
          <path
             style="fill:#000000;fill-opacity:1;fill-rule:evenodd;stroke:none;stroke-width:0;stroke-linecap:round;stroke-linejoin:round;stroke-miterlimit:4;stroke-dasharray:none;paint-order:markers fill stroke"
             id="path4750-4-6-1-2"
             transform="rotate(-90)"
             d="m -119.0625,132.29167 a 13.229167,13.229167 0 0 1 -6.61459,11.4568 13.229167,13.229167 0 0 1 -13.22917,0 13.229167,13.229167 0 0 1 -6.61458,-11.4568" />
        </g>
      </g>
    </g>
    <path
       style="fill:none;stroke:#ffff00;stroke-width:1.05833;stroke-linecap:butt;stroke-linejoin:miter;stroke-miterlimit:4;stroke-dasharray:none;stroke-opacity:1"
       d="M 8.9009791e-7,0.5291688 H 264.58333"
       id="path1031" />
  </g>
  <g
     id="g2130"
     style="display:inline">
    <path
       style="fill:none;stroke:#00ffff;stroke-width:0.264583px;stroke-linecap:butt;stroke-linejoin:miter;stroke-opacity:1"
       d="M 0.1322915,132.29166 H 264.71562"
       id="path3788" />
    <path
       style="fill:none;stroke:#00ffff;stroke-width:0.264583px;stroke-linecap:butt;stroke-linejoin:miter;stroke-opacity:1"
       d="M 222.30592,72.76043 16.08363,191.82282"
       id="path3786" />
    <path
       style="fill:none;stroke:#00ffff;stroke-width:0.264583px;stroke-linecap:butt;stroke-linejoin:miter;stroke-opacity:1"
       d="M 42.54197,191.82282 248.76426,72.76043"
       id="path1913" />
    <path
       style="fill:none;stroke:#00ffff;stroke-width:0.264583px;stroke-linecap:butt;stroke-linejoin:miter;stroke-opacity:1"
       d="M 222.30593,191.82292 16.08365,72.76043"
       id="path1728" />
    <path
       style="fill:none;stroke:#00ffff;stroke-width:0.264583px;stroke-linecap:butt;stroke-linejoin:miter;stroke-opacity:1"
       d="M 42.54199,72.76043 248.76427,191.82292"
       id="path1948" />
    <path
       style="fill:none;stroke:#00ffff;stroke-width:0.264583px;stroke-linecap:butt;stroke-linejoin:miter;stroke-opacity:1"
       d="M 178.72604,235.40281 59.66354,29.18053"
       id="path1843" />
    <path
       style="fill:none;stroke:#00ffff;stroke-width:0.264583px;stroke-linecap:butt;stroke-linejoin:miter;stroke-opacity:1"
       d="M 86.12187,235.40275 205.18439,29.18059"
       id="path1878" />
    <path
       style="fill:none;stroke:#00ffff;stroke-width:0.264583px;stroke-linecap:butt;stroke-linejoin:miter;stroke-opacity:1"
       d="M 86.12189,29.18053 205.18438,235.40281"
       id="path1950" />
    <path
       style="fill:none;stroke:#00ffff;stroke-width:0.264583px;stroke-linecap:butt;stroke-linejoin:miter;stroke-opacity:1"
       d="M 178.72605,29.18059 59.66353,235.40275"
       id="path1952" />
  </g>
  <g
     id="g5784-5-2-8"
     transform="rotate(-90,110.1361,61.280929)"
     style="display:inline;stroke-linecap:round;stroke-linejoin:round">
    <g
       id="g7970-6-9"
       transform="matrix(0.5,0.8660254,0.8660254,-0.5,-38.477341,-24.516883)"
       style="display:inline;stroke-linecap:round;stroke-linejoin:round">
      <g
         id="g18452"
         style="display:inline">
        <circle
           style="fill:none;fill-opacity:1;fill-rule:evenodd;stroke:#ff000b;stroke-width:0.529167;stroke-linecap:butt;stroke-linejoin:round;stroke-miterlimit:4;stroke-dasharray:none;stroke-opacity:1;paint-order:markers fill stroke"
           id="path17306"
           transform="rotate(150)"
           cx="-107.95338"
           cy="-77.602699"
           r="74.236603" />
        <path
           id="rect17820"
           style="fill:#ff0000;fill-opacity:1;fill-rule:evenodd;stroke:none;stroke-width:0;stroke-linecap:butt;stroke-miterlimit:4;stroke-dasharray:none;paint-order:markers fill stroke"
           d="m 174.15752,77.979762 -8.10906,1.481037 5.33714,-6.282137 z" />
        <path
           id="rect17820-9"
           style="display:inline;fill:#ff0000;fill-opacity:1;fill-rule:evenodd;stroke:none;stroke-width:0;stroke-linecap:butt;stroke-linejoin:round;stroke-miterlimit:4;stroke-dasharray:none;paint-order:markers fill stroke"
           d="m 93.197821,-46.720218 5.337146,-6.282133 -8.10906,1.48103 z" />
      </g>
    </g>
  </g>
  <g
     id="g5784"
     transform="rotate(90,132.29167,132.29167)"
     style="display:inline;stroke-linecap:round;stroke-linejoin:round">
    <path
       id="path4750"
       style="fill:#00ffff;fill-opacity:1;fill-rule:evenodd;stroke-width:0;stroke-linecap:round;stroke-linejoin:round;paint-order:markers fill stroke"
       d="m 145.52084,132.29167 a 13.229167,13.229167 0 0 1 -13.22917,13.22917 13.229167,13.229167 0 0 1 -13.22917,-13.22917 13.229167,13.229167 0 0 1 13.22917,-13.22917 13.229167,13.229167 0 0 1 13.22917,13.22917 z" />
  </g>
</svg>
