<?xml version="1.0" encoding="UTF-8" standalone="no"?>
<svg
   version="1.1"
   viewBox="0 0 131.81 131.94"
   id="svg4"
   xmlns="http://www.w3.org/2000/svg"
   xmlns:svg="http://www.w3.org/2000/svg">
  <defs
     id="defs8" />
  <path
     d="m65.822 3v-3m-13.304 4.4206-0.6335-2.9324m-12.07 7.1302-1.2384-2.7325m-10.292 9.5182-1.7875-2.4093m-8.0502 11.477-2.256-1.9775m-5.4451 12.918-2.6227-1.4565m-2.5944 13.777-2.8711-0.86988m0.37326 14.014-2.9901-0.24398m3.3241 13.619-2.9742 0.39293m6.125 12.61-2.8241 1.0121m8.6497 11.032-2.5467 1.5857m10.784 8.9569-2.1544 2.0877m12.432 6.4776-1.665 2.4955m13.52 3.7062-1.1005 2.7909m13.998 0.76766-0.48634 2.9603m13.844-2.2055 0.14975 2.9963m13.066-5.0792 0.77909 2.8971m11.699-7.7238 1.3733 2.6672m9.8042-10.02 1.9055 2.3171m7.4672-11.864 2.3519 1.8624m4.7934-13.174 2.6921 1.3238m1.9035-13.889 2.911 0.72548m-1.0723-13.978 2.9985 0.09442m-3.9998-13.436 2.9508-0.5409m-6.7468-12.288 2.7701-1.1518m-9.1896-10.587 2.4644-1.7108m-11.218-8.4074 2.0476-2.1926m-12.74-5.8489 1.5384-2.5755m-13.688-3.0267 0.95981-2.8423m-14.019-0.067971 0.33796-2.9809"
     style="fill:none;stroke-width:0.5px;stroke:#000000;stroke-opacity:1"
     id="path2" />
</svg>
