<?xml version="1.0" encoding="UTF-8" standalone="no"?>
<!-- Generator: Adobe Illustrator 16.0.0, SVG Export Plug-In . SVG Version: 6.00 Build 0)  -->

<svg
   xmlns:dc="http://purl.org/dc/elements/1.1/"
   xmlns:cc="http://creativecommons.org/ns#"
   xmlns:rdf="http://www.w3.org/1999/02/22-rdf-syntax-ns#"
   xmlns:svg="http://www.w3.org/2000/svg"
   xmlns="http://www.w3.org/2000/svg"
   xmlns:sodipodi="http://sodipodi.sourceforge.net/DTD/sodipodi-0.dtd"
   xmlns:inkscape="http://www.inkscape.org/namespaces/inkscape"
   version="1.1"
   id="Layer_1"
   x="0px"
   y="0px"
   width="420px"
   height="380px"
   viewBox="0 0 420 380"
   enable-background="new 0 0 420 380"
   xml:space="preserve"
   sodipodi:docname="Coat_of_arms_of_Croatia_(State_of_Slovenes,_Croats_and_Serbs).svg"
   inkscape:version="0.92.3 (2405546, 2018-03-11)"><metadata
   id="metadata359"><rdf:RDF><cc:Work
       rdf:about=""><dc:format>image/svg+xml</dc:format><dc:type
         rdf:resource="http://purl.org/dc/dcmitype/StillImage" /></cc:Work></rdf:RDF></metadata><defs
   id="defs357" /><sodipodi:namedview
   pagecolor="#ffffff"
   bordercolor="#666666"
   borderopacity="1"
   objecttolerance="10"
   gridtolerance="10"
   guidetolerance="10"
   inkscape:pageopacity="0"
   inkscape:pageshadow="2"
   inkscape:window-width="1920"
   inkscape:window-height="1017"
   id="namedview355"
   showgrid="false"
   inkscape:zoom="1.2421053"
   inkscape:cx="184.20222"
   inkscape:cy="155.05179"
   inkscape:window-x="-4"
   inkscape:window-y="-4"
   inkscape:window-maximized="1"
   inkscape:current-layer="Layer_1" />
<path
   inkscape:connector-curvature="0"
   d="m 5.5,226 1,61.896 77.134746,-0.94287 127.649894,-2.77095 122.43072,2.96255 80.60862,0.57911 L 414.5,226 329.16111,216.23769 211,210.08475 86.980932,213.92257 Z"
   id="path32-9-2"
   style="fill:#dd0000;fill-opacity:1;stroke-width:1.63045931"
   sodipodi:nodetypes="ccccccccccc" /><path
   inkscape:connector-curvature="0"
   d="m 6.5,287.896 -0.500004,15.12 84.39326,-5.42326 L 211.5,294.016 l 123,3.47 80.5,5.53 v -15.50564 l -79.93072,-5.4626 -123.97182,-3.55951 -120.597464,3.81555 z"
   id="path32-9-9"
   style="fill:#ffffff;fill-opacity:1"
   sodipodi:nodetypes="ccccccccccc" /><rect
   x="210.49153"
   y="4.0000057"
   width="202.50847"
   height="206.08475"
   id="rect2-2"
   style="fill:#ffffff;stroke-width:0.58125669;fill-opacity:1" /><rect
   x="-212.03389"
   y="4.5"
   width="206.53389"
   height="206.08475"
   id="rect2-2-4"
   style="fill:#003893;stroke-width:0.58700532;fill-opacity:1"
   transform="scale(-1,1)" /><path
   inkscape:connector-curvature="0"
   d="M 5.5,207.93 V 226 L 89.949682,220.01714 211,217 334,220.47 414.5,226 V 209 L 334,202.47 211,199.057 90,202.47 Z"
   id="path32-9"
   style="fill:#ffffff;fill-opacity:1"
   sodipodi:nodetypes="ccccccccccc" /><g
   id="g352">
	
	<rect
   x="211"
   y="4"
   width="41"
   height="41"
   id="rect4"
   style="fill:#dd0000;fill-opacity:1"
   fill="#4C2E3F" />
	<rect
   x="293"
   y="4"
   width="41"
   height="41"
   id="rect6"
   style="fill:#dd0000;fill-opacity:1"
   fill="#4C2E3F" />
	<rect
   x="375"
   y="4"
   width="41"
   height="41"
   id="rect8"
   style="fill:#dd0000;fill-opacity:1"
   fill="#4C2E3F" />
	<rect
   x="252"
   y="45"
   width="41"
   height="41"
   id="rect10"
   style="fill:#dd0000;fill-opacity:1"
   fill="#4C2E3F" />
	<rect
   x="334"
   y="45"
   width="41"
   height="41"
   id="rect12"
   style="fill:#dd0000;fill-opacity:1"
   fill="#4C2E3F" />
	<rect
   x="211"
   y="86"
   width="41"
   height="41"
   id="rect14"
   style="fill:#dd0000;fill-opacity:1"
   fill="#4C2E3F" />
	<rect
   x="293"
   y="86"
   width="41"
   height="41"
   id="rect16"
   style="fill:#dd0000;fill-opacity:1"
   fill="#4C2E3F" />
	<rect
   x="375"
   y="86"
   width="41"
   height="41"
   id="rect18"
   style="fill:#dd0000;fill-opacity:1"
   fill="#4C2E3F" />
	<rect
   x="252"
   y="127"
   width="41"
   height="41"
   id="rect20"
   style="fill:#dd0000;fill-opacity:1"
   fill="#4C2E3F" />
	<path
   d="M375,168v36.931c12.941,0.881,26.112,1.876,39.5,2.999V209h1.5v-41H375z"
   id="path36"
   style="fill:#dd0000;fill-opacity:1"
   fill="#4C2E3F" /><rect
   x="334"
   y="127"
   width="41"
   height="41"
   id="rect22"
   style="fill:#dd0000;fill-opacity:1"
   fill="#4C2E3F" />
	<path
   d="M211,294.041c-76.377,0-147.115,3.357-205,9.07v19.264v1C6,350.989,29.609,374,56.89,374h310.208   C394.379,374,415,350.989,415,323.375v-1v-19.359C357.301,297.361,286.939,294.041,211,294.041z"
   id="path24"
   fill="#4C2E3F"
   style="fill:#003893;fill-opacity:1" />
	<path
   stroke-miterlimit="10"
   d="M6.5,287.896c0,0,211.5-20.334,409-0.095"
   id="path26"
   stroke-width="2"
   stroke="#4C2E3F"
   fill="none"
   style="stroke:#000000;stroke-opacity:1" />
	<path
   stroke-miterlimit="10"
   d="M5.5,4.5v238.875v79v1   c0,27.614,24.108,51.125,51.39,51.125h310.208c27.281,0,47.402-23.511,47.402-51.125v-1v-79V4.5H5.5z"
   id="path28"
   stroke-width="3"
   stroke="#4C2E3F"
   fill="none"
   style="stroke:#000000;stroke-opacity:1" />
	<path
   d="M252,199.532V168h-41v31.057C224.169,199.102,237.848,199.253,252,199.532z"
   id="path40"
   style="fill:#dd0000;fill-opacity:1"
   fill="#4C2E3F" /><line
   stroke-miterlimit="10"
   x1="211"
   y1="199"
   x2="211"
   y2="5"
   id="line30"
   stroke-width="2"
   stroke="#4C2E3F"
   fill="none"
   style="stroke:#000000;stroke-opacity:1" />
	<path
   d="M145.68,238.375l-3.349-6l-19.256,6c0,0-7.535,7.5-10.885,8.5c-3.349,1,5.442,5.5,13.814,2.5   s20.931-2.5,14.232,4.5c-6.697,7-43.116,4-24.279,9s30.14-9.5,34.745-4.5c0,0-1.257,3.131-12.56,5.564   c-11.303,2.435-10.884,7.936-3.768,7.936c7.117,0,30.559-15.5,47.303-15.5c16.745,0,41.024,3,51.908-1l2.093,5.5   c0,0-31.395,4-19.256,5.5c12.14,1.5,31.813,1.5,36.001-12c0,0,19.256,5.5,28.884,2.5c9.629-3,12.979,8,10.885,15   c0,0,5.86,2,7.534-4.5c1.675-6.5-6.277-10.71-5.44-15.105c0.837-4.395-15.07,2.105-17.582-2.395c-2.513-4.5,3.768-3.5,6.278-3   c2.512,0.5,39.351-1.5,43.117-10s-13.814-2-21.351-1c-7.535,1-37.255,4.5-43.116,4c0,0-5.441-11-27.21-7.5   C212.658,235.875,164.937,242.375,145.68,238.375z"
   id="path32"
   style="fill:#674825;fill-opacity:1"
   fill="#4C2E3F" />
	<polygon
   points="211,310.646 217.555,322 230.664,322 224.109,333.5 230.664,345 217.555,345 211,356.354    204.446,345 191.336,345 197.891,333.5 191.336,322 204.446,322  "
   id="polygon34"
   style="fill:#ffd200;fill-opacity:1"
   fill="#E5DCE1" />
	
	<path
   d="M334,202.47V168h-41v32.671C306.329,201.148,320.005,201.743,334,202.47z"
   id="path38"
   style="fill:#dd0000;fill-opacity:1"
   fill="#4C2E3F" />
	
	<path
   stroke-miterlimit="10"
   d="M5.5,226c0,0,170.5-20,409,0"
   id="path42"
   stroke-width="2"
   stroke="#4C2E3F"
   fill="none"
   style="stroke:#000019;stroke-opacity:1" />
	<path
   stroke-miterlimit="10"
   d="M5.5,207.93c0,0,170.5-20,409,0"
   id="path44"
   stroke-width="2"
   stroke="#4C2E3F"
   fill="none"
   style="stroke:#000019;stroke-opacity:1" />
	<g
   id="g146">
		<path
   stroke-miterlimit="10"
   d="M79.129,31c0.754-2.625-1.297-3-1.297-3l-6.688-9.375L64.862,28    c0,0-1.848,0.375-1.094,3s-4.693,1.563-4.263,10.813L68.384,52.5h2.76h3.572l8.777-10.688C83.925,32.563,78.375,33.625,79.129,31z    "
   id="path46"
   style="fill:#ffd200;fill-opacity:1"
   stroke="#4C2E3F"
   fill="#E5DCE1" />
		<path
   stroke-miterlimit="10"
   d="M46.285,40.125l-2.717-13.75c0,0,2.09,3.375,4.282,3.5    c2.193,0.125,4.178,3.25,4.387,5.25c0.208,2,6.789-0.443,7.833,7.057L46.285,40.125z"
   id="path48"
   style="fill:#ffd200;fill-opacity:1"
   stroke="#4C2E3F"
   fill="#E5DCE1" />
		<path
   stroke-miterlimit="10"
   d="M46.891,34.431c0.197,1.185-0.124,2.26-0.718,2.402    s-1.236-0.704-1.435-1.888c-0.196-1.185,0.124-2.26,0.719-2.402C46.051,32.4,46.693,33.246,46.891,34.431z"
   id="path50"
   style="fill:#ffd200;fill-opacity:1"
   stroke="#4C2E3F"
   fill="#E5DCE1" />
		<path
   stroke-miterlimit="10"
   d="M97.047,40.125l2.681-13.75c0,0-2.11,3.375-4.328,3.5    c-2.216,0.125-4.222,3.25-4.433,5.25s-6.861-0.443-7.916,7.057L97.047,40.125z"
   id="path52"
   style="fill:#ffd200;fill-opacity:1"
   stroke="#4C2E3F"
   fill="#E5DCE1" />
		<path
   stroke-miterlimit="10"
   d="M96.372,34.431c-0.2,1.185,0.125,2.26,0.725,2.402    c0.601,0.142,1.249-0.704,1.449-1.888c0.199-1.185-0.125-2.26-0.727-2.402C97.22,32.4,96.572,33.246,96.372,34.431z"
   id="path54"
   style="fill:#ffd200;fill-opacity:1"
   stroke="#4C2E3F"
   fill="#E5DCE1" />
		<path
   stroke-miterlimit="10"
   d="M99.887,65.302c0,0,3.845-2.249,3.845-12.087    c0,0-5.423-4.217-8.787,0c0,0-3.747-14.337-22.965-11.807C52.274,38.878,48.91,53.215,48.91,53.215c-3.364-4.217-8.893,0-8.893,0    c0,9.838,3.845,12.087,3.845,12.087c0,4.779-3.845,5.06-3.845,5.06c0.48,7.309,4.807,2.249,5.046,5.903    c0.241,3.654-3.124,6.184-3.124,6.184c0.722,3.374,6.97,1.406,6.97,1.406c-6.009,4.498-1.923,10.401-1.923,10.401    c1.202-4.498,7.69-4.498,7.69-4.498c-3.124,2.53-3.364,7.871-3.364,7.871c5.527,0.562,7.931,0,7.931,0    c-1.923,7.027,0,6.465,0,6.465c4.085-1.124,7.449-3.373,7.449-3.373c0.481,2.812,5.287,5.903,5.287,5.903s4.702-3.092,5.184-5.903    c0,0,3.312,2.249,7.396,3.373c0,0,1.896,0.563-0.025-6.465c0,0,2.39,0.562,7.917,0c0,0-0.247-5.341-3.371-7.871    c0,0,6.484,0,7.687,4.498c0,0,4.083-5.903-1.924-10.401c0,0,6.248,1.968,6.968-1.406c0,0-3.365-2.53-3.125-6.184    c0.241-3.655,4.566,1.405,5.046-5.903C103.732,70.362,99.887,70.081,99.887,65.302z"
   id="path56"
   style="fill:#ffd200;fill-opacity:1"
   stroke="#4C2E3F"
   fill="#E5DCE1" />
		<polygon
   stroke-miterlimit="10"
   points="48.782,53.5 94.551,53.5 97.047,39.5 46.285,39.5   "
   id="polygon58"
   style="fill:#ffd200;fill-opacity:1"
   stroke="#4C2E3F"
   fill="#E5DCE1" />
		<line
   stroke-miterlimit="10"
   x1="47"
   y1="42.5"
   x2="96"
   y2="42.5"
   id="line60"
   stroke="#4C2E3F"
   fill="none" />
		<line
   stroke-miterlimit="10"
   x1="48"
   y1="50.5"
   x2="95"
   y2="50.5"
   id="line62"
   stroke="#4C2E3F"
   fill="none" />
		<circle
   stroke-miterlimit="10"
   cx="71.666"
   cy="46.938"
   r="1.567"
   id="circle64"
   stroke="#4C2E3F"
   fill="#E5DCE1" />
		<circle
   stroke-miterlimit="10"
   cx="51.612"
   cy="46.938"
   r="1.567"
   id="circle66"
   style="fill:#ffd200;fill-opacity:1"
   stroke="#4C2E3F"
   fill="#E5DCE1" />
		<circle
   stroke-miterlimit="10"
   cx="61.639"
   cy="46.938"
   r="1.567"
   id="circle68"
   style="fill:#ffd200;fill-opacity:1"
   stroke="#4C2E3F"
   fill="#E5DCE1" />
		<circle
   stroke-miterlimit="10"
   cx="91.72"
   cy="46.938"
   r="1.567"
   id="circle70"
   style="fill:#ffd200;fill-opacity:1"
   stroke="#4C2E3F"
   fill="#E5DCE1" />
		<circle
   stroke-miterlimit="10"
   cx="81.693"
   cy="46.938"
   r="1.567"
   id="circle72"
   style="fill:#ffd200;fill-opacity:1"
   stroke="#4C2E3F"
   fill="#E5DCE1" />
		<polygon
   stroke-miterlimit="10"
   points="71.499,27.5 72.718,30.167 74.946,31.625 72.718,33.083     71.499,35.75 70.28,33.083 68.052,31.625 70.28,30.167   "
   id="polygon74"
   style="fill:#ffd200;fill-opacity:1"
   stroke="#4C2E3F"
   fill="#E5DCE1" />
		<path
   stroke-miterlimit="10"
   d="M40.018,53.215c0,0,1.344,5.16,4.663,4.785    c0,0,0.944,4.25,4.694,7.375L48,58.625"
   id="path76"
   stroke="#4C2E3F"
   fill="none" />
		<path
   stroke-miterlimit="10"
   d="M40.018,70.362c0,0,2.482,3.237,7.982,0"
   id="path78"
   stroke="#4C2E3F"
   fill="none" />
		<path
   stroke-miterlimit="10"
   d="M41.94,82.45c0,0,6.311,0.55,6.061-4.45"
   id="path80"
   stroke="#4C2E3F"
   fill="none" />
		<path
   stroke-miterlimit="10"
   d="M46.987,94.256c0,0-0.486-6.756,3.639-8.256"
   id="path82"
   stroke="#4C2E3F"
   fill="none" />
		<path
   stroke-miterlimit="10"
   d="M51.313,97.63c0,0,2.813-5.255,5.313-5.13"
   id="path84"
   stroke="#4C2E3F"
   fill="none" />
		<path
   stroke-miterlimit="10"
   d="M61.639,103.29c0,0,3.022-2.165,1.567-6.29"
   id="path86"
   stroke="#4C2E3F"
   fill="none" />
		<path
   stroke-miterlimit="10"
   d="M71.979,106.625c0,0,1.721-7.25-1.88-9.625"
   id="path88"
   stroke="#4C2E3F"
   fill="none" />
		<path
   stroke-miterlimit="10"
   d="M68.052,77.375c0,0-4.103,3.125,2.047,4.5    c6.15,1.375,9.9-3.375,4.15-4.5"
   id="path90"
   stroke="#4C2E3F"
   fill="none" />
		<line
   stroke-miterlimit="10"
   x1="71.5"
   y1="82.09"
   x2="71.5"
   y2="92"
   id="line92"
   stroke="#4C2E3F"
   fill="none" />
		<line
   stroke-miterlimit="10"
   x1="66"
   y1="88.5"
   x2="78"
   y2="88.5"
   id="line94"
   stroke="#4C2E3F"
   fill="none" />
		<path
   stroke-miterlimit="10"
   d="M69,69.5c0,0-2.146,0.538-0.948,4.582"
   id="path96"
   stroke="#4C2E3F"
   fill="none" />
		<path
   stroke-miterlimit="10"
   d="M70.1,57.5c0,0,2.525,5.875,0.525,7.875S59.125,59.75,56,62.625"
   id="path98"
   stroke="#4C2E3F"
   fill="none" />
		<path
   stroke-miterlimit="10"
   d="M58.527,62.003c0,0-1.257,4.872,1.545,4.997    c2.803,0.125,4.429,1.875,5.179,2.5c0,0,2.5-2.466,0-5.17"
   id="path100"
   stroke="#4C2E3F"
   fill="none" />
		<ellipse
   stroke-miterlimit="10"
   cx="62.161"
   cy="65.033"
   rx="1.535"
   ry="1.717"
   id="ellipse102"
   stroke="#4C2E3F"
   fill="none" />
		<ellipse
   cx="62.161"
   cy="65.033"
   rx="0.646"
   ry="0.721"
   id="ellipse104"
   fill="#4C2E3F" />
		<path
   stroke-miterlimit="10"
   d="M64.75,59.958c0,0,3.417,1.883,4.25,3.358"
   id="path106"
   stroke="#4C2E3F"
   fill="none" />
		<circle
   stroke-miterlimit="10"
   cx="71.585"
   cy="46.938"
   r="1.567"
   id="circle108"
   style="fill:#ffd200;fill-opacity:1"
   stroke="#4C2E3F"
   fill="#E5DCE1" />
		<path
   stroke-miterlimit="10"
   d="M103.233,53.215c0,0-1.344,5.16-4.663,4.785    c0,0-0.943,4.25-4.693,7.375l1.375-6.75"
   id="path110"
   stroke="#4C2E3F"
   fill="none" />
		<path
   stroke-miterlimit="10"
   d="M103.233,70.362c0,0-2.481,3.237-7.981,0"
   id="path112"
   stroke="#4C2E3F"
   fill="none" />
		<path
   stroke-miterlimit="10"
   d="M101.311,82.45c0,0-6.31,0.55-6.06-4.45"
   id="path114"
   stroke="#4C2E3F"
   fill="none" />
		<path
   stroke-miterlimit="10"
   d="M97.209,93.475c0,0-0.458-5.975-4.583-7.475"
   id="path116"
   stroke="#4C2E3F"
   fill="none" />
		<path
   stroke-miterlimit="10"
   d="M91.938,97.63c0,0-2.812-5.255-5.312-5.13"
   id="path118"
   stroke="#4C2E3F"
   fill="none" />
		<path
   stroke-miterlimit="10"
   d="M82.451,103.29c0,0-3.108-2.165-1.612-6.29"
   id="path120"
   stroke="#4C2E3F"
   fill="none" />
		<path
   stroke-miterlimit="10"
   d="M73.151,57.5c0,0-2.524,5.875-0.524,7.875s11.5-5.625,14.625-2.75"
   id="path122"
   stroke="#4C2E3F"
   fill="none" />
		<path
   stroke-miterlimit="10"
   d="M84.724,62.003c0,0,1.257,4.872-1.545,4.997s-4.428,1.875-5.178,2.5    c0,0-2.5-2.466,0-5.17"
   id="path124"
   stroke="#4C2E3F"
   fill="none" />
		<ellipse
   stroke-miterlimit="10"
   cx="81.09"
   cy="65.033"
   rx="1.536"
   ry="1.717"
   id="ellipse126"
   stroke="#4C2E3F"
   fill="none" />
		<ellipse
   cx="81.09"
   cy="65.033"
   rx="0.646"
   ry="0.721"
   id="ellipse128"
   fill="#4C2E3F" />
		<path
   stroke-miterlimit="10"
   d="M78.501,59.958c0,0-3.417,1.883-4.25,3.358"
   id="path130"
   stroke="#4C2E3F"
   fill="none" />
		<line
   stroke-miterlimit="10"
   x1="52.5"
   y1="54"
   x2="52.5"
   y2="56"
   id="line132"
   stroke="#4C2E3F"
   fill="none" />
		<line
   stroke-miterlimit="10"
   x1="60.5"
   y1="54"
   x2="60.5"
   y2="56"
   id="line134"
   stroke="#4C2E3F"
   fill="none" />
		<line
   stroke-miterlimit="10"
   x1="68.5"
   y1="54"
   x2="68.5"
   y2="56"
   id="line136"
   stroke="#4C2E3F"
   fill="none" />
		<line
   stroke-miterlimit="10"
   x1="76.5"
   y1="54"
   x2="76.5"
   y2="56"
   id="line138"
   stroke="#4C2E3F"
   fill="none" />
		<line
   stroke-miterlimit="10"
   x1="84.5"
   y1="54"
   x2="84.5"
   y2="56"
   id="line140"
   stroke="#4C2E3F"
   fill="none" />
		<line
   stroke-miterlimit="10"
   x1="92.5"
   y1="54"
   x2="92.5"
   y2="56"
   id="line142"
   stroke="#4C2E3F"
   fill="none" />
		<path
   stroke-miterlimit="10"
   d="M67.875,88.5c0,0,1.669,5.229,3.147,6.364s4.27-3.073,4.437-6.364"
   id="path144"
   stroke="#4C2E3F"
   fill="none" />
	</g>
	<g
   id="g248">
		<path
   stroke-miterlimit="10"
   d="M150.129,31c0.754-2.625-1.297-3-1.297-3l-6.688-9.375    L135.862,28c0,0-1.848,0.375-1.094,3s-4.693,1.563-4.263,10.813l8.879,10.687h2.76h3.572l8.777-10.688    C154.925,32.563,149.375,33.625,150.129,31z"
   id="path148"
   style="fill:#ffd200;fill-opacity:1"
   stroke="#4C2E3F"
   fill="#E5DCE1" />
		<path
   stroke-miterlimit="10"
   d="M117.285,40.125l-2.717-13.75c0,0,2.09,3.375,4.282,3.5    c2.193,0.125,4.178,3.25,4.387,5.25c0.208,2,6.789-0.443,7.833,7.057L117.285,40.125z"
   id="path150"
   style="fill:#ffd200;fill-opacity:1"
   stroke="#4C2E3F"
   fill="#E5DCE1" />
		<path
   stroke-miterlimit="10"
   d="M117.891,34.431c0.197,1.185-0.124,2.26-0.718,2.402    s-1.236-0.704-1.435-1.888c-0.196-1.185,0.124-2.26,0.719-2.402C117.051,32.4,117.693,33.246,117.891,34.431z"
   id="path152"
   style="fill:#ffd200;fill-opacity:1"
   stroke="#4C2E3F"
   fill="#E5DCE1" />
		<path
   stroke-miterlimit="10"
   d="M168.047,40.125l2.681-13.75c0,0-2.11,3.375-4.328,3.5    c-2.216,0.125-4.222,3.25-4.433,5.25s-6.861-0.443-7.916,7.057L168.047,40.125z"
   id="path154"
   style="fill:#ffd200;fill-opacity:1"
   stroke="#4C2E3F"
   fill="#E5DCE1" />
		<path
   stroke-miterlimit="10"
   d="M167.372,34.431c-0.2,1.185,0.125,2.26,0.725,2.402    c0.601,0.142,1.249-0.704,1.449-1.888c0.199-1.185-0.125-2.26-0.727-2.402C168.22,32.4,167.572,33.246,167.372,34.431z"
   id="path156"
   style="fill:#ffd200;fill-opacity:1"
   stroke="#4C2E3F"
   fill="#E5DCE1" />
		<path
   stroke-miterlimit="10"
   d="M170.887,65.302c0,0,3.845-2.249,3.845-12.087    c0,0-5.423-4.217-8.787,0c0,0-3.747-14.337-22.965-11.807c-19.706-2.53-23.069,11.807-23.069,11.807c-3.364-4.217-8.893,0-8.893,0    c0,9.838,3.845,12.087,3.845,12.087c0,4.779-3.845,5.06-3.845,5.06c0.48,7.309,4.807,2.249,5.046,5.903    c0.241,3.654-3.124,6.184-3.124,6.184c0.722,3.374,6.97,1.406,6.97,1.406c-6.009,4.498-1.923,10.401-1.923,10.401    c1.202-4.498,7.69-4.498,7.69-4.498c-3.124,2.53-3.364,7.871-3.364,7.871c5.527,0.562,7.931,0,7.931,0    c-1.923,7.027,0,6.465,0,6.465c4.085-1.124,7.449-3.373,7.449-3.373c0.481,2.812,5.287,5.903,5.287,5.903s4.702-3.092,5.184-5.903    c0,0,3.312,2.249,7.396,3.373c0,0,1.896,0.563-0.025-6.465c0,0,2.39,0.562,7.917,0c0,0-0.247-5.341-3.371-7.871    c0,0,6.484,0,7.687,4.498c0,0,4.083-5.903-1.924-10.401c0,0,6.248,1.968,6.968-1.406c0,0-3.365-2.53-3.125-6.184    c0.241-3.655,4.566,1.405,5.046-5.903C174.732,70.362,170.887,70.081,170.887,65.302z"
   id="path158"
   style="fill:#ffd200;fill-opacity:1"
   stroke="#4C2E3F"
   fill="#E5DCE1" />
		<polygon
   stroke-miterlimit="10"
   points="119.782,53.5 165.551,53.5 168.047,39.5 117.285,39.5       "
   id="polygon160"
   style="fill:#ffd200;fill-opacity:1"
   stroke="#4C2E3F"
   fill="#E5DCE1" />
		<line
   stroke-miterlimit="10"
   x1="118"
   y1="42.5"
   x2="167"
   y2="42.5"
   id="line162"
   stroke="#4C2E3F"
   fill="none" />
		<line
   stroke-miterlimit="10"
   x1="119"
   y1="50.5"
   x2="166"
   y2="50.5"
   id="line164"
   stroke="#4C2E3F"
   fill="none" />
		<circle
   stroke-miterlimit="10"
   cx="142.666"
   cy="46.938"
   r="1.567"
   id="circle166"
   stroke="#4C2E3F"
   fill="#E5DCE1" />
		<circle
   stroke-miterlimit="10"
   cx="122.612"
   cy="46.938"
   r="1.567"
   id="circle168"
   style="fill:#ffd200;fill-opacity:1"
   stroke="#4C2E3F"
   fill="#E5DCE1" />
		<circle
   stroke-miterlimit="10"
   cx="132.639"
   cy="46.938"
   r="1.567"
   id="circle170"
   style="fill:#ffd200;fill-opacity:1"
   stroke="#4C2E3F"
   fill="#E5DCE1" />
		<circle
   stroke-miterlimit="10"
   cx="162.72"
   cy="46.938"
   r="1.567"
   id="circle172"
   style="fill:#ffd200;fill-opacity:1"
   stroke="#4C2E3F"
   fill="#E5DCE1" />
		<circle
   stroke-miterlimit="10"
   cx="152.693"
   cy="46.938"
   r="1.567"
   id="circle174"
   style="fill:#ffd200;fill-opacity:1"
   stroke="#4C2E3F"
   fill="#E5DCE1" />
		<polygon
   stroke-miterlimit="10"
   points="142.499,27.5 143.718,30.167 145.946,31.625     143.718,33.083 142.499,35.75 141.28,33.083 139.052,31.625 141.28,30.167   "
   id="polygon176"
   style="fill:#ffd200;fill-opacity:1"
   stroke="#4C2E3F"
   fill="#E5DCE1" />
		<path
   stroke-miterlimit="10"
   d="M111.018,53.215c0,0,1.344,5.16,4.663,4.785    c0,0,0.944,4.25,4.694,7.375L119,58.625"
   id="path178"
   stroke="#4C2E3F"
   fill="none" />
		<path
   stroke-miterlimit="10"
   d="M111.018,70.362c0,0,2.482,3.237,7.982,0"
   id="path180"
   stroke="#4C2E3F"
   fill="none" />
		<path
   stroke-miterlimit="10"
   d="M112.94,82.45c0,0,6.311,0.55,6.061-4.45"
   id="path182"
   stroke="#4C2E3F"
   fill="none" />
		<path
   stroke-miterlimit="10"
   d="M117.987,94.256c0,0-0.486-6.756,3.639-8.256"
   id="path184"
   stroke="#4C2E3F"
   fill="none" />
		<path
   stroke-miterlimit="10"
   d="M122.313,97.63c0,0,2.813-5.255,5.313-5.13"
   id="path186"
   stroke="#4C2E3F"
   fill="none" />
		<path
   stroke-miterlimit="10"
   d="M132.639,103.29c0,0,3.022-2.165,1.567-6.29"
   id="path188"
   stroke="#4C2E3F"
   fill="none" />
		<path
   stroke-miterlimit="10"
   d="M142.979,106.625c0,0,1.721-7.25-1.88-9.625"
   id="path190"
   stroke="#4C2E3F"
   fill="none" />
		<path
   stroke-miterlimit="10"
   d="M139.052,77.375c0,0-4.103,3.125,2.047,4.5    c6.15,1.375,9.9-3.375,4.15-4.5"
   id="path192"
   stroke="#4C2E3F"
   fill="none" />
		<line
   stroke-miterlimit="10"
   x1="142.5"
   y1="82.09"
   x2="142.5"
   y2="92"
   id="line194"
   stroke="#4C2E3F"
   fill="none" />
		<line
   stroke-miterlimit="10"
   x1="137"
   y1="88.5"
   x2="149"
   y2="88.5"
   id="line196"
   stroke="#4C2E3F"
   fill="none" />
		<path
   stroke-miterlimit="10"
   d="M140,69.5c0,0-2.146,0.538-0.948,4.582"
   id="path198"
   stroke="#4C2E3F"
   fill="none" />
		<path
   stroke-miterlimit="10"
   d="M141.1,57.5c0,0,2.525,5.875,0.525,7.875s-11.5-5.625-14.625-2.75"
   id="path200"
   stroke="#4C2E3F"
   fill="none" />
		<path
   stroke-miterlimit="10"
   d="M129.527,62.003c0,0-1.257,4.872,1.545,4.997    c2.803,0.125,4.429,1.875,5.179,2.5c0,0,2.5-2.466,0-5.17"
   id="path202"
   stroke="#4C2E3F"
   fill="none" />
		<ellipse
   stroke-miterlimit="10"
   cx="133.161"
   cy="65.033"
   rx="1.535"
   ry="1.717"
   id="ellipse204"
   stroke="#4C2E3F"
   fill="none" />
		<ellipse
   cx="133.161"
   cy="65.033"
   rx="0.646"
   ry="0.721"
   id="ellipse206"
   fill="#4C2E3F" />
		<path
   stroke-miterlimit="10"
   d="M135.75,59.958c0,0,3.417,1.883,4.25,3.358"
   id="path208"
   stroke="#4C2E3F"
   fill="none" />
		<circle
   stroke-miterlimit="10"
   cx="142.585"
   cy="46.938"
   r="1.567"
   id="circle210"
   style="fill:#ffd200;fill-opacity:1"
   stroke="#4C2E3F"
   fill="#E5DCE1" />
		<path
   stroke-miterlimit="10"
   d="M174.233,53.215c0,0-1.344,5.16-4.663,4.785    c0,0-0.943,4.25-4.693,7.375l1.375-6.75"
   id="path212"
   stroke="#4C2E3F"
   fill="none" />
		<path
   stroke-miterlimit="10"
   d="M174.233,70.362c0,0-2.481,3.237-7.981,0"
   id="path214"
   stroke="#4C2E3F"
   fill="none" />
		<path
   stroke-miterlimit="10"
   d="M172.311,82.45c0,0-6.31,0.55-6.06-4.45"
   id="path216"
   stroke="#4C2E3F"
   fill="none" />
		<path
   stroke-miterlimit="10"
   d="M168.209,93.475c0,0-0.458-5.975-4.583-7.475"
   id="path218"
   stroke="#4C2E3F"
   fill="none" />
		<path
   stroke-miterlimit="10"
   d="M162.938,97.63c0,0-2.812-5.255-5.312-5.13"
   id="path220"
   stroke="#4C2E3F"
   fill="none" />
		<path
   stroke-miterlimit="10"
   d="M153.451,103.29c0,0-3.108-2.165-1.612-6.29"
   id="path222"
   stroke="#4C2E3F"
   fill="none" />
		<path
   stroke-miterlimit="10"
   d="M144.151,57.5c0,0-2.524,5.875-0.524,7.875s11.5-5.625,14.625-2.75"
   id="path224"
   stroke="#4C2E3F"
   fill="none" />
		<path
   stroke-miterlimit="10"
   d="M155.724,62.003c0,0,1.257,4.872-1.545,4.997    s-4.428,1.875-5.178,2.5c0,0-2.5-2.466,0-5.17"
   id="path226"
   stroke="#4C2E3F"
   fill="none" />
		<ellipse
   stroke-miterlimit="10"
   cx="152.09"
   cy="65.033"
   rx="1.536"
   ry="1.717"
   id="ellipse228"
   stroke="#4C2E3F"
   fill="none" />
		<ellipse
   cx="152.09"
   cy="65.033"
   rx="0.646"
   ry="0.721"
   id="ellipse230"
   fill="#4C2E3F" />
		<path
   stroke-miterlimit="10"
   d="M149.501,59.958c0,0-3.417,1.883-4.25,3.358"
   id="path232"
   stroke="#4C2E3F"
   fill="none" />
		<line
   stroke-miterlimit="10"
   x1="123.5"
   y1="54"
   x2="123.5"
   y2="56"
   id="line234"
   stroke="#4C2E3F"
   fill="none" />
		<line
   stroke-miterlimit="10"
   x1="131.5"
   y1="54"
   x2="131.5"
   y2="56"
   id="line236"
   stroke="#4C2E3F"
   fill="none" />
		<line
   stroke-miterlimit="10"
   x1="139.5"
   y1="54"
   x2="139.5"
   y2="56"
   id="line238"
   stroke="#4C2E3F"
   fill="none" />
		<line
   stroke-miterlimit="10"
   x1="147.5"
   y1="54"
   x2="147.5"
   y2="56"
   id="line240"
   stroke="#4C2E3F"
   fill="none" />
		<line
   stroke-miterlimit="10"
   x1="155.5"
   y1="54"
   x2="155.5"
   y2="56"
   id="line242"
   stroke="#4C2E3F"
   fill="none" />
		<line
   stroke-miterlimit="10"
   x1="163.5"
   y1="54"
   x2="163.5"
   y2="56"
   id="line244"
   stroke="#4C2E3F"
   fill="none" />
		<path
   stroke-miterlimit="10"
   d="M138.875,88.5c0,0,1.669,5.229,3.147,6.364s4.27-3.073,4.437-6.364"
   id="path246"
   stroke="#4C2E3F"
   fill="none" />
	</g>
	<g
   id="g350">
		<path
   stroke-miterlimit="10"
   d="M115.129,120.378c0.754-2.625-1.297-3-1.297-3l-6.688-9.375    l-6.282,9.375c0,0-1.848,0.375-1.094,3s-4.693,1.563-4.263,10.813l8.879,10.687h2.76h3.572l8.777-10.688    C119.925,121.941,114.375,123.003,115.129,120.378z"
   id="path250"
   style="fill:#ffd200;fill-opacity:1"
   stroke="#4C2E3F"
   fill="#E5DCE1" />
		<path
   stroke-miterlimit="10"
   d="M82.285,129.503l-2.717-13.75c0,0,2.09,3.375,4.282,3.5    c2.193,0.125,4.178,3.25,4.387,5.25c0.208,2,6.789-0.443,7.833,7.057L82.285,129.503z"
   id="path252"
   style="fill:#ffd200;fill-opacity:1"
   stroke="#4C2E3F"
   fill="#E5DCE1" />
		<path
   stroke-miterlimit="10"
   d="M82.891,123.809c0.197,1.185-0.124,2.26-0.718,2.402    s-1.236-0.704-1.435-1.888c-0.196-1.185,0.124-2.26,0.719-2.402C82.051,121.778,82.693,122.624,82.891,123.809z"
   id="path254"
   style="fill:#ffd200;fill-opacity:1"
   stroke="#4C2E3F"
   fill="#E5DCE1" />
		<path
   stroke-miterlimit="10"
   d="M133.047,129.503l2.681-13.75c0,0-2.11,3.375-4.328,3.5    c-2.216,0.125-4.222,3.25-4.433,5.25s-6.861-0.443-7.916,7.057L133.047,129.503z"
   id="path256"
   style="fill:#ffd200;fill-opacity:1"
   stroke="#4C2E3F"
   fill="#E5DCE1" />
		<path
   stroke-miterlimit="10"
   d="M132.372,123.809c-0.2,1.185,0.125,2.26,0.725,2.402    c0.601,0.142,1.249-0.704,1.449-1.888c0.199-1.185-0.125-2.26-0.727-2.402C133.22,121.778,132.572,122.624,132.372,123.809z"
   id="path258"
   style="fill:#ffd200;fill-opacity:1"
   stroke="#4C2E3F"
   fill="#E5DCE1" />
		<path
   stroke-miterlimit="10"
   d="M135.887,154.68c0,0,3.845-2.249,3.845-12.087    c0,0-5.423-4.217-8.787,0c0,0-3.747-14.337-22.965-11.807c-19.706-2.53-23.069,11.807-23.069,11.807c-3.364-4.217-8.893,0-8.893,0    c0,9.838,3.845,12.087,3.845,12.087c0,4.779-3.845,5.06-3.845,5.06c0.48,7.309,4.807,2.249,5.046,5.903    c0.241,3.654-3.124,6.184-3.124,6.184c0.722,3.374,6.97,1.406,6.97,1.406c-6.009,4.498-1.923,10.401-1.923,10.401    c1.202-4.498,7.69-4.498,7.69-4.498c-3.124,2.53-3.364,7.871-3.364,7.871c5.527,0.562,7.931,0,7.931,0    c-1.923,7.027,0,6.465,0,6.465c4.085-1.124,7.449-3.373,7.449-3.373c0.481,2.812,5.287,5.903,5.287,5.903s4.702-3.092,5.184-5.903    c0,0,3.312,2.249,7.396,3.373c0,0,1.896,0.563-0.025-6.465c0,0,2.39,0.562,7.917,0c0,0-0.247-5.341-3.371-7.871    c0,0,6.484,0,7.687,4.498c0,0,4.083-5.903-1.924-10.401c0,0,6.248,1.968,6.968-1.406c0,0-3.365-2.53-3.125-6.184    c0.241-3.655,4.566,1.405,5.046-5.903C139.732,159.74,135.887,159.459,135.887,154.68z"
   id="path260"
   style="fill:#ffd200;fill-opacity:1"
   stroke="#4C2E3F"
   fill="#E5DCE1" />
		<polygon
   stroke-miterlimit="10"
   points="84.782,142.878 130.551,142.878 133.047,128.878     82.285,128.878   "
   id="polygon262"
   style="fill:#ffd200;fill-opacity:1"
   stroke="#4C2E3F"
   fill="#E5DCE1" />
		<line
   stroke-miterlimit="10"
   x1="83"
   y1="131.878"
   x2="132"
   y2="131.878"
   id="line264"
   stroke="#4C2E3F"
   fill="none" />
		<line
   stroke-miterlimit="10"
   x1="84"
   y1="139.878"
   x2="131"
   y2="139.878"
   id="line266"
   stroke="#4C2E3F"
   fill="none" />
		<circle
   stroke-miterlimit="10"
   cx="107.666"
   cy="136.316"
   r="1.567"
   id="circle268"
   stroke="#4C2E3F"
   fill="#E5DCE1" />
		<circle
   stroke-miterlimit="10"
   cx="87.612"
   cy="136.316"
   r="1.567"
   id="circle270"
   style="fill:#ffd200;fill-opacity:1"
   stroke="#4C2E3F"
   fill="#E5DCE1" />
		<circle
   stroke-miterlimit="10"
   cx="97.639"
   cy="136.316"
   r="1.567"
   id="circle272"
   style="fill:#ffd200;fill-opacity:1"
   stroke="#4C2E3F"
   fill="#E5DCE1" />
		<circle
   stroke-miterlimit="10"
   cx="127.72"
   cy="136.316"
   r="1.567"
   id="circle274"
   style="fill:#ffd200;fill-opacity:1"
   stroke="#4C2E3F"
   fill="#E5DCE1" />
		<circle
   stroke-miterlimit="10"
   cx="117.693"
   cy="136.316"
   r="1.567"
   id="circle276"
   style="fill:#ffd200;fill-opacity:1"
   stroke="#4C2E3F"
   fill="#E5DCE1" />
		<polygon
   stroke-miterlimit="10"
   points="107.499,116.878 108.718,119.545 110.946,121.003     108.718,122.461 107.499,125.128 106.28,122.461 104.052,121.003 106.28,119.545   "
   id="polygon278"
   style="fill:#ffd200;fill-opacity:1"
   stroke="#4C2E3F"
   fill="#E5DCE1" />
		<path
   stroke-miterlimit="10"
   d="M76.018,142.593c0,0,1.344,5.16,4.663,4.785    c0,0,0.944,4.25,4.694,7.375L84,148.003"
   id="path280"
   stroke="#4C2E3F"
   fill="none" />
		<path
   stroke-miterlimit="10"
   d="M76.018,159.74c0,0,2.482,3.237,7.982,0"
   id="path282"
   stroke="#4C2E3F"
   fill="none" />
		<path
   stroke-miterlimit="10"
   d="M77.94,171.828c0,0,6.311,0.55,6.061-4.45"
   id="path284"
   stroke="#4C2E3F"
   fill="none" />
		<path
   stroke-miterlimit="10"
   d="M82.987,183.634c0,0-0.486-6.756,3.639-8.256"
   id="path286"
   stroke="#4C2E3F"
   fill="none" />
		<path
   stroke-miterlimit="10"
   d="M87.313,187.008c0,0,2.813-5.255,5.313-5.13"
   id="path288"
   stroke="#4C2E3F"
   fill="none" />
		<path
   stroke-miterlimit="10"
   d="M97.639,192.668c0,0,3.022-2.165,1.567-6.29"
   id="path290"
   stroke="#4C2E3F"
   fill="none" />
		<path
   stroke-miterlimit="10"
   d="M107.979,196.003c0,0,1.721-7.25-1.88-9.625"
   id="path292"
   stroke="#4C2E3F"
   fill="none" />
		<path
   stroke-miterlimit="10"
   d="M104.052,166.753c0,0-4.103,3.125,2.047,4.5    c6.15,1.375,9.9-3.375,4.15-4.5"
   id="path294"
   stroke="#4C2E3F"
   fill="none" />
		<line
   stroke-miterlimit="10"
   x1="107.5"
   y1="171.468"
   x2="107.5"
   y2="181.378"
   id="line296"
   stroke="#4C2E3F"
   fill="none" />
		<line
   stroke-miterlimit="10"
   x1="102"
   y1="177.878"
   x2="114"
   y2="177.878"
   id="line298"
   stroke="#4C2E3F"
   fill="none" />
		<path
   stroke-miterlimit="10"
   d="M105,158.878c0,0-2.146,0.538-0.948,4.582"
   id="path300"
   stroke="#4C2E3F"
   fill="none" />
		<path
   stroke-miterlimit="10"
   d="M106.1,146.878c0,0,2.525,5.875,0.525,7.875    s-11.5-5.625-14.625-2.75"
   id="path302"
   stroke="#4C2E3F"
   fill="none" />
		<path
   stroke-miterlimit="10"
   d="M94.527,151.381c0,0-1.257,4.872,1.545,4.997    c2.803,0.125,4.429,1.875,5.179,2.5c0,0,2.5-2.466,0-5.17"
   id="path304"
   stroke="#4C2E3F"
   fill="none" />
		<ellipse
   stroke-miterlimit="10"
   cx="98.161"
   cy="154.411"
   rx="1.535"
   ry="1.717"
   id="ellipse306"
   stroke="#4C2E3F"
   fill="none" />
		<ellipse
   cx="98.161"
   cy="154.411"
   rx="0.646"
   ry="0.721"
   id="ellipse308"
   fill="#4C2E3F" />
		<path
   stroke-miterlimit="10"
   d="M100.75,149.336c0,0,3.417,1.883,4.25,3.358"
   id="path310"
   stroke="#4C2E3F"
   fill="none" />
		<circle
   stroke-miterlimit="10"
   cx="107.585"
   cy="136.316"
   r="1.567"
   id="circle312"
   style="fill:#ffd200;fill-opacity:1"
   stroke="#4C2E3F"
   fill="#E5DCE1" />
		<path
   stroke-miterlimit="10"
   d="M139.233,142.593c0,0-1.344,5.16-4.663,4.785    c0,0-0.943,4.25-4.693,7.375l1.375-6.75"
   id="path314"
   stroke="#4C2E3F"
   fill="none" />
		<path
   stroke-miterlimit="10"
   d="M139.233,159.74c0,0-2.481,3.237-7.981,0"
   id="path316"
   stroke="#4C2E3F"
   fill="none" />
		<path
   stroke-miterlimit="10"
   d="M137.311,171.828c0,0-6.31,0.55-6.06-4.45"
   id="path318"
   stroke="#4C2E3F"
   fill="none" />
		<path
   stroke-miterlimit="10"
   d="M133.209,182.853c0,0-0.458-5.975-4.583-7.475"
   id="path320"
   stroke="#4C2E3F"
   fill="none" />
		<path
   stroke-miterlimit="10"
   d="M127.938,187.008c0,0-2.812-5.255-5.312-5.13"
   id="path322"
   stroke="#4C2E3F"
   fill="none" />
		<path
   stroke-miterlimit="10"
   d="M118.451,192.668c0,0-3.108-2.165-1.612-6.29"
   id="path324"
   stroke="#4C2E3F"
   fill="none" />
		<path
   stroke-miterlimit="10"
   d="M109.151,146.878c0,0-2.524,5.875-0.524,7.875    s11.5-5.625,14.625-2.75"
   id="path326"
   stroke="#4C2E3F"
   fill="none" />
		<path
   stroke-miterlimit="10"
   d="M120.724,151.381c0,0,1.257,4.872-1.545,4.997    s-4.428,1.875-5.178,2.5c0,0-2.5-2.466,0-5.17"
   id="path328"
   stroke="#4C2E3F"
   fill="none" />
		<ellipse
   stroke-miterlimit="10"
   cx="117.09"
   cy="154.411"
   rx="1.536"
   ry="1.717"
   id="ellipse330"
   stroke="#4C2E3F"
   fill="none" />
		<ellipse
   cx="117.09"
   cy="154.411"
   rx="0.646"
   ry="0.721"
   id="ellipse332"
   fill="#4C2E3F" />
		<path
   stroke-miterlimit="10"
   d="M114.501,149.336c0,0-3.417,1.883-4.25,3.358"
   id="path334"
   stroke="#4C2E3F"
   fill="none" />
		<line
   stroke-miterlimit="10"
   x1="88.5"
   y1="143.378"
   x2="88.5"
   y2="145.378"
   id="line336"
   stroke="#4C2E3F"
   fill="none" />
		<line
   stroke-miterlimit="10"
   x1="96.5"
   y1="143.378"
   x2="96.5"
   y2="145.378"
   id="line338"
   stroke="#4C2E3F"
   fill="none" />
		<line
   stroke-miterlimit="10"
   x1="104.5"
   y1="143.378"
   x2="104.5"
   y2="145.378"
   id="line340"
   stroke="#4C2E3F"
   fill="none" />
		<line
   stroke-miterlimit="10"
   x1="112.5"
   y1="143.378"
   x2="112.5"
   y2="145.378"
   id="line342"
   stroke="#4C2E3F"
   fill="none" />
		<line
   stroke-miterlimit="10"
   x1="120.5"
   y1="143.378"
   x2="120.5"
   y2="145.378"
   id="line344"
   stroke="#4C2E3F"
   fill="none" />
		<line
   stroke-miterlimit="10"
   x1="128.5"
   y1="143.378"
   x2="128.5"
   y2="145.378"
   id="line346"
   stroke="#4C2E3F"
   fill="none" />
		<path
   stroke-miterlimit="10"
   d="M103.875,177.878c0,0,1.669,5.229,3.147,6.364    s4.27-3.073,4.437-6.364"
   id="path348"
   stroke="#4C2E3F"
   fill="none" />
	</g>
</g>
<g
   id="g1558"
   transform="translate(670.86029,-139.96934)">
	<g
   id="g1234">
		<circle
   id="circle1166"
   r="5.7490001"
   cy="78.595001"
   cx="227.276"
   stroke-miterlimit="10"
   style="fill:#ffffff;stroke:#444444;stroke-width:0.85089999;stroke-miterlimit:10" />
		<circle
   id="circle1168"
   r="5.7490001"
   cy="94.762001"
   cx="224.72301"
   stroke-miterlimit="10"
   style="fill:#ffffff;stroke:#444444;stroke-width:0.85089999;stroke-miterlimit:10" />
		<circle
   id="circle1170"
   r="5.7480001"
   cy="47.960999"
   cx="48.154999"
   stroke-miterlimit="10"
   style="fill:#ffffff;stroke:#444444;stroke-width:0.85089999;stroke-miterlimit:10" />
		<circle
   id="circle1172"
   r="5.7480001"
   cy="94.762001"
   cx="13.266"
   stroke-miterlimit="10"
   style="fill:#ffffff;stroke:#444444;stroke-width:0.85089999;stroke-miterlimit:10" />
		<circle
   id="circle1174"
   r="5.7480001"
   cy="78.595001"
   cx="10.714"
   stroke-miterlimit="10"
   style="fill:#ffffff;stroke:#444444;stroke-width:0.85089999;stroke-miterlimit:10" />
		<circle
   id="circle1176"
   r="5.7480001"
   cy="64.128998"
   cx="16.67"
   stroke-miterlimit="10"
   style="fill:#ffffff;stroke:#444444;stroke-width:0.85089999;stroke-miterlimit:10" />
		<circle
   id="circle1178"
   r="5.7490001"
   cy="55.619999"
   cx="29.434"
   stroke-miterlimit="10"
   style="fill:#ffffff;stroke:#444444;stroke-width:0.85089999;stroke-miterlimit:10" />
		<circle
   id="circle1180"
   r="5.7480001"
   cy="37.75"
   cx="60.068001"
   stroke-miterlimit="10"
   style="fill:#ffffff;stroke:#444444;stroke-width:0.85089999;stroke-miterlimit:10" />
		<circle
   id="circle1182"
   r="5.7480001"
   cy="36.048"
   cx="74.532997"
   stroke-miterlimit="10"
   style="fill:#ffffff;stroke:#444444;stroke-width:0.85089999;stroke-miterlimit:10" />
		<circle
   id="circle1184"
   r="5.7480001"
   cy="39.452"
   cx="88.999001"
   stroke-miterlimit="10"
   style="fill:#ffffff;stroke:#444444;stroke-width:0.85089999;stroke-miterlimit:10" />
		<circle
   id="circle1186"
   r="5.7480001"
   cy="43.707001"
   cx="102.614"
   stroke-miterlimit="10"
   style="fill:#ffffff;stroke:#444444;stroke-width:0.85089999;stroke-miterlimit:10" />
		<circle
   id="circle1188"
   r="5.7490001"
   cy="47.960999"
   cx="189.834"
   stroke-miterlimit="10"
   style="fill:#ffffff;stroke:#444444;stroke-width:0.85089999;stroke-miterlimit:10" />
		<circle
   id="circle1190"
   r="5.7490001"
   cy="64.128998"
   cx="221.319"
   stroke-miterlimit="10"
   style="fill:#ffffff;stroke:#444444;stroke-width:0.85089999;stroke-miterlimit:10" />
		<circle
   id="circle1192"
   r="5.7490001"
   cy="55.619999"
   cx="208.55499"
   stroke-miterlimit="10"
   style="fill:#ffffff;stroke:#444444;stroke-width:0.85089999;stroke-miterlimit:10" />
		<circle
   id="circle1194"
   r="5.7490001"
   cy="37.75"
   cx="177.92101"
   stroke-miterlimit="10"
   style="fill:#ffffff;stroke:#444444;stroke-width:0.85089999;stroke-miterlimit:10" />
		<circle
   id="circle1196"
   r="5.7490001"
   cy="36.048"
   cx="163.45599"
   stroke-miterlimit="10"
   style="fill:#ffffff;stroke:#444444;stroke-width:0.85089999;stroke-miterlimit:10" />
		<circle
   id="circle1198"
   r="5.7490001"
   cy="39.452"
   cx="148.99001"
   stroke-miterlimit="10"
   style="fill:#ffffff;stroke:#444444;stroke-width:0.85089999;stroke-miterlimit:10" />
		<circle
   id="circle1200"
   r="5.7480001"
   cy="43.707001"
   cx="135.375"
   stroke-miterlimit="10"
   style="fill:#ffffff;stroke:#444444;stroke-width:0.85089999;stroke-miterlimit:10" />
		<path
   id="path1202"
   d="m 215.996,102.953 c -0.093,0.003 -0.183,0.013 -0.274,0.018 0.116,-2.578 0.273,-5.534 1.995,-6.25 3.111,-1.294 19.869,-37.809 -29.94,-41.178 -0.563,-4.028 -2.648,-7.959 -7.127,-11.197 -15.888,-11.487 -35.413,2.979 -44.942,3.616 -5.332,0.357 -8.567,-1.189 -10.385,-2.622 1.613,-1.617 2.586,-3.848 2.586,-6.313 0,-4.047 -2.408,-7.46 -6.408,-8.56 V 19.5 h 11 v -5 h -11 v -11 h -5 v 11 h -12 v 5 h 12 v 10.966 c -4,1.1 -6.409,4.513 -6.409,8.56 0,2.463 0.983,4.692 2.595,6.308 -1.816,1.434 -5.059,2.984 -10.396,2.626 -9.53,-0.638 -29.06,-15.104 -44.947,-3.616 -4.478,3.238 -6.566,7.169 -7.129,11.197 -49.811,3.37 -33.053,39.885 -29.942,41.179 1.722,0.716 1.879,3.672 1.996,6.25 -0.092,-0.005 -0.182,-0.015 -0.275,-0.018 -7.233,-0.213 -8.722,9.296 -3.191,7.807 14.677,-4.042 38.078,21.741 38.078,21.741 h 62.118 62.109 c 0,0 23.4,-25.783 38.079,-21.741 5.532,1.49 4.042,-8.019 -3.191,-7.806 z m -180.388,5.478 c -1.905,2.423 -4.936,-2.583 -9.896,-4.647 0.765,-2.064 1.575,-4.585 2.865,-6.021 1.053,-1.173 2.846,-1.344 4.563,-1.155 0.024,1.046 0.531,2.115 1.404,3.075 2.127,2.339 3.404,5.769 1.064,8.748 z m 29.783,-3.457 c -4.893,4.467 -6.808,3.617 -10.637,-1.276 -3.829,-4.893 -7.446,-7.871 -4.68,-2.339 2.766,5.531 0.851,10.425 -3.829,10.851 -4.68,0.425 -7.233,-6.591 -6.382,-9.995 0.851,-3.404 0.639,-11.269 -3.403,-9.566 -0.143,0.06 -0.27,0.126 -0.404,0.189 C 30.926,82 22.262,99.708 21.951,81.261 21.664,64.281 42.756,60.328 50.118,59.466 c 0.38,4.57 2.361,9.014 4.685,12.469 -0.012,5.09 4.379,10.452 0.377,14.105 -4.893,4.467 3.404,7.233 7.446,8.083 4.041,0.852 7.657,6.384 2.765,10.851 z m 49.354,-47.015 c -5.744,7.871 3.404,14.679 -4.467,14.679 -7.871,0 -8.297,7.02 -3.191,9.36 5.106,2.34 5.318,11.275 0.639,14.253 -4.68,2.979 -6.808,-1.489 -9.148,-5.957 -2.34,-4.467 -8.722,-13.402 -6.595,-3.829 2.127,9.573 -5.744,17.019 -12.125,11.488 -6.382,-5.531 1.063,-6.169 0,-15.743 -1.064,-9.573 -9.147,0.851 -11.275,-4.467 -1.273,-3.184 -4.528,-7.964 -7.62,-10.015 -3.415,-5.397 -8.605,-17.159 7.257,-21.682 20.326,-5.798 29.515,15.398 47.377,1.239 0.084,0.035 0.173,0.062 0.259,0.095 1.532,1.453 3.339,4.481 -1.111,10.579 z m 43.388,24.252 c -1.063,9.573 6.382,10.211 0,15.743 -6.382,5.531 -14.253,-1.915 -12.126,-11.488 2.128,-9.573 -4.254,-0.638 -6.595,3.829 -2.34,4.467 -4.467,8.935 -9.147,5.957 -4.68,-2.978 -4.467,-11.913 0.639,-14.253 5.105,-2.34 4.68,-9.36 -3.191,-9.36 -7.871,0 1.276,-6.808 -4.467,-14.679 -4.445,-6.09 -2.649,-9.118 -1.116,-10.573 0.089,-0.034 0.181,-0.063 0.269,-0.099 17.86,14.155 27.048,-7.039 47.373,-1.241 15.862,4.523 10.672,16.285 7.258,21.682 -3.093,2.051 -6.348,6.831 -7.62,10.015 -2.13,5.318 -10.214,-5.106 -11.277,4.467 z m 44.249,26.22 c -2.341,-2.979 -1.064,-6.409 1.063,-8.749 0.873,-0.96 1.379,-2.029 1.403,-3.075 1.717,-0.188 3.511,-0.018 4.563,1.155 1.29,1.437 2.101,3.957 2.865,6.021 -4.959,2.064 -7.991,7.071 -9.894,4.648 z m -0.447,-15.593 c -0.134,-0.063 -0.261,-0.129 -0.404,-0.189 -4.042,-1.702 -4.255,6.163 -3.403,9.566 0.851,3.404 -1.702,10.42 -6.382,9.995 -4.681,-0.426 -6.595,-5.32 -3.829,-10.851 2.765,-5.531 -0.852,-2.554 -4.681,2.339 -3.829,4.893 -5.744,5.743 -10.637,1.276 -4.893,-4.467 -1.276,-9.999 2.766,-10.85 4.042,-0.851 12.339,-3.616 7.445,-8.083 -4.001,-3.654 0.39,-9.015 0.377,-14.105 2.324,-3.456 4.306,-7.899 4.685,-12.469 7.362,0.863 28.453,4.815 28.168,21.795 -0.312,18.446 -8.977,0.738 -14.105,11.576 z"
   stroke-miterlimit="10"
   inkscape:connector-curvature="0"
   style="fill:#ffd200;stroke:#444444;stroke-miterlimit:10" />
		
			<ellipse
   id="ellipse1204"
   ry="4.5009999"
   rx="3.131"
   cy="113.827"
   cx="30.076"
   stroke-miterlimit="10"
   transform="matrix(0.3989,-0.917,0.917,0.3989,-86.2997,95.9986)"
   style="fill:#dd0000;stroke:#444444;stroke-width:0.85089999;stroke-miterlimit:10" />
		<circle
   id="circle1206"
   r="5.5359998"
   cy="82.25"
   cx="92.403"
   stroke-miterlimit="10"
   style="fill:#ffffff;stroke:#444444;stroke-width:0.85089999;stroke-miterlimit:10" />
		<circle
   id="circle1208"
   r="4.0669999"
   cy="96.714996"
   cx="48.154999"
   stroke-miterlimit="10"
   style="fill:#ffffff;stroke:#444444;stroke-width:0.85089999;stroke-miterlimit:10" />
		
			<ellipse
   id="ellipse1210"
   ry="5.1989999"
   rx="3.6170001"
   cy="87.447998"
   cx="65.816002"
   stroke-miterlimit="10"
   transform="matrix(0.953,-0.303,0.303,0.953,-23.4052,24.0562)"
   style="fill:#003893;stroke:#444444;stroke-width:0.85089999;stroke-miterlimit:10" />
		<path
   id="path1212"
   d="m 126.5,105.046 c 0,-1.333 -0.923,-1.546 -2.254,-1.546 h -11.345 c -1.331,0 -2.401,0.213 -2.401,1.546 v 6.237 c 0,1.333 1.07,3.217 2.401,3.217 h 11.345 c 1.331,0 2.254,-1.884 2.254,-3.217 z"
   stroke-miterlimit="10"
   inkscape:connector-curvature="0"
   style="fill:#003893;stroke:#444444;stroke-miterlimit:10" />
		<path
   id="path1214"
   d="m 85.567,109.492 c -0.281,-1.094 -1.396,-1.754 -2.491,-1.473 l -8.776,2.254 c -1.095,0.281 -1.755,1.396 -1.473,2.49 l 1.319,5.137 c 0.281,1.095 1.396,1.754 2.49,1.473 l 8.777,-2.253 c 1.095,-0.281 1.754,-1.396 1.474,-2.491 z"
   stroke-miterlimit="10"
   inkscape:connector-curvature="0"
   style="fill:#dd0000;stroke:#444444;stroke-width:0.85089999;stroke-miterlimit:10" />
		<path
   id="path1216"
   d="m 53.875,120.146 c -0.505,-0.711 -1.492,-0.877 -2.203,-0.371 l -5.7,4.056 c -0.711,0.506 -0.878,1.493 -0.372,2.203 l 2.374,3.336 c 0.506,0.711 1.493,0.877 2.203,0.371 l 5.7,-4.057 c 0.711,-0.505 0.877,-1.492 0.372,-2.203 z"
   stroke-miterlimit="10"
   inkscape:connector-curvature="0"
   style="fill:#003893;stroke:#444444;stroke-width:0.85089999;stroke-miterlimit:10" />
		
			<ellipse
   id="ellipse1218"
   ry="4.5"
   rx="3.131"
   cy="113.827"
   cx="207.91299"
   stroke-miterlimit="10"
   transform="matrix(-0.3991,-0.9169,0.9169,-0.3991,186.509,349.8911)"
   style="fill:#dd0000;stroke:#444444;stroke-width:0.85089999;stroke-miterlimit:10" />
		<circle
   id="circle1220"
   r="5.5359998"
   cy="82.25"
   cx="145.586"
   stroke-miterlimit="10"
   style="fill:#ffffff;stroke:#444444;stroke-width:0.85089999;stroke-miterlimit:10" />
		<circle
   id="circle1222"
   r="4.0669999"
   cy="96.714996"
   cx="189.83501"
   stroke-miterlimit="10"
   style="fill:#ffffff;stroke:#444444;stroke-width:0.85089999;stroke-miterlimit:10" />
		
			<ellipse
   id="ellipse1224"
   ry="5.1989999"
   rx="3.6159999"
   cy="87.447998"
   cx="172.173"
   stroke-miterlimit="10"
   transform="matrix(-0.953,-0.3031,0.3031,-0.953,309.7429,222.9679)"
   style="fill:#003893;stroke:#444444;stroke-width:0.85089999;stroke-miterlimit:10" />
		<path
   id="path1226"
   d="m 152.422,109.492 c 0.28,-1.094 1.396,-1.754 2.491,-1.473 l 8.776,2.254 c 1.095,0.281 1.755,1.396 1.473,2.49 l -1.318,5.137 c -0.281,1.095 -1.397,1.754 -2.491,1.473 l -8.776,-2.253 c -1.095,-0.281 -1.754,-1.396 -1.473,-2.491 z"
   stroke-miterlimit="10"
   inkscape:connector-curvature="0"
   style="fill:#dd0000;stroke:#444444;stroke-width:0.85089999;stroke-miterlimit:10" />
		<path
   id="path1228"
   d="m 184.115,120.146 c 0.506,-0.711 1.492,-0.877 2.202,-0.371 l 5.7,4.056 c 0.711,0.506 0.877,1.493 0.371,2.203 l -2.374,3.336 c -0.506,0.711 -1.492,0.877 -2.203,0.371 l -5.699,-4.057 c -0.712,-0.505 -0.878,-1.492 -0.372,-2.203 z"
   stroke-miterlimit="10"
   inkscape:connector-curvature="0"
   style="fill:#003893;stroke:#444444;stroke-width:0.85089999;stroke-miterlimit:10" />
		
			<ellipse
   id="ellipse1230"
   ry="7.5760002"
   rx="5.105"
   cy="78.595001"
   cx="118.999"
   stroke-miterlimit="10"
   style="fill:#dd0000;stroke:#444444;stroke-width:0.85089999;stroke-miterlimit:10" />
		
			<ellipse
   id="ellipse1232"
   ry="8.0839996"
   rx="62.449001"
   cy="132.416"
   cx="118.999"
   stroke-miterlimit="10"
   style="fill:#003893;stroke:#444444;stroke-width:0.85089999;stroke-miterlimit:10" />
	</g>
	<g
   id="g1556">
		<path
   id="path1236"
   d="m 230.86,171.5 c 0,0 -31.062,-0.5 -30.543,-35.5 H 119.992 40.185 C 40.703,171 9.609,171.5 9.609,171.5 55.213,234 6.5,270 6.5,270 c 8.81,57 56.487,52.5 56.487,52.5 -0.518,9 4.664,29.5 27.984,29.5 23.32,0 29.021,21 29.021,21 0,0 5.959,-21 29.279,-21 23.32,0 28.633,-20.5 28.114,-29.5 0,0 47.742,4.5 56.552,-52.5 10e-4,0 -48.68,-36 -3.077,-98.5 z"
   inkscape:connector-curvature="0"
   style="fill:#003893" />
		<path
   id="path1238"
   d="m 233.655,271.684 c -5.2,0.973 -12.967,0.527 -21.567,-2.848 -13.162,-5.164 -31.289,-2.088 -38.38,-0.768 -7.091,1.321 -22.979,4.098 -29.636,2.266 -6.656,-1.834 -24.072,-6.621 -44.443,-1.764 -20.371,4.855 -23.68,2.802 -34.072,-0.764 -10.393,-3.566 -29.155,-0.844 -37.267,0.85 -4.626,0.967 -14.226,1.792 -21.625,2.323 9.206,55.958 56.322,51.521 56.322,51.521 -0.061,1.063 -0.04,2.291 0.079,3.623 13.677,0.678 32.669,0.398 43.752,-1.623 17.818,-3.25 30.682,0.75 41.682,1.5 7.731,0.527 21.381,0.189 28.816,-0.057 0.107,-1.262 0.128,-2.429 0.069,-3.443 0.001,0 46.785,4.4 56.27,-50.816 z"
   inkscape:connector-curvature="0"
   style="fill:#ffffff" />
		<path
   id="path1240"
   d="m 232.037,279.249 c -5.688,0.985 -12.803,1.273 -20.037,-1.999 -10.5,-4.75 -26.25,-3.25 -38.25,0 -12,3.25 -20.5,2 -32.87,-0.5 -12.37,-2.5 -30.38,-2.5 -41.395,0.75 -11.015,3.25 -14.485,2.25 -37.81,-2.25 -16.215,-3.129 -39.932,2.023 -52.884,5.455 5.634,20.214 16.883,30.726 27.684,36.158 10.625,-3.196 26.84,-3.066 31.656,-1.613 6.631,2 22.369,3.5 32.426,1.283 22.307,-5.968 39.693,-1.283 45.443,-0.533 5.75,0.75 10.5,1 26.25,-1.25 11.11,-1.587 26.438,-0.313 34.513,0.574 10.159,-5.949 20.247,-16.707 25.274,-36.075 z"
   inkscape:connector-curvature="0"
   style="fill:#dd0000" />
		<path
   id="path1242"
   d="M 200.317,136 H 120 v 93 h 91.676 c -1.559,-15.309 2.495,-34.627 19.185,-57.5 -10e-4,0 -31.062,-0.5 -30.544,-35.5 z"
   inkscape:connector-curvature="0"
   style="fill:#ffffff" />
		<rect
   id="rect1244"
   height="19"
   width="19"
   y="154"
   x="120"
   style="fill:#dd0000" />
		<rect
   id="rect1246"
   height="19"
   width="19"
   y="192"
   x="120"
   style="fill:#dd0000" />
		<rect
   id="rect1248"
   height="18"
   width="19"
   y="136"
   x="139"
   style="fill:#dd0000" />
		<rect
   id="rect1250"
   height="19"
   width="19"
   y="173"
   x="139"
   style="fill:#dd0000" />
		<rect
   id="rect1252"
   height="18"
   width="19"
   y="211"
   x="139"
   style="fill:#dd0000" />
		<rect
   id="rect1254"
   height="19"
   width="19"
   y="154"
   x="158"
   style="fill:#dd0000" />
		<rect
   id="rect1256"
   height="19"
   width="19"
   y="192"
   x="158"
   style="fill:#dd0000" />
		<rect
   id="rect1258"
   height="18"
   width="19"
   y="136"
   x="177"
   style="fill:#dd0000" />
		<rect
   id="rect1260"
   height="19"
   width="19"
   y="173"
   x="177"
   style="fill:#dd0000" />
		<rect
   id="rect1262"
   height="18"
   width="19"
   y="211"
   x="177"
   style="fill:#dd0000" />
		<path
   id="path1264"
   d="m 215,166.63 c -4.282,-2.588 -8.496,-6.555 -11.307,-12.63 H 196 v 19 h 19 z"
   inkscape:connector-curvature="0"
   style="fill:#dd0000" />
		<path
   id="path1266"
   d="m 215,192 h -19 v 19 h 16.494 c 0.582,-3.132 1.401,-6.376 2.506,-9.734 z"
   inkscape:connector-curvature="0"
   style="fill:#dd0000" />
		<path
   id="path1268"
   d="m 215,173 v 19 h 3.651 c 2.76,-6.021 6.417,-12.359 11.135,-19 z"
   inkscape:connector-curvature="0"
   style="fill:#dd0000" />
		<polygon
   id="polygon1270"
   points="128.329,249.5 132.494,256.5 124.165,256.5 120,263.713 115.835,256.5 107.506,256.5 111.671,249.5 107.506,242.5 115.835,242.5 120,235.287 124.165,242.5 132.494,242.5 "
   stroke-miterlimit="10"
   style="fill:#ffd200;stroke:#d69f18;stroke-miterlimit:10" />
		<g
   id="g1354">
			<path
   id="path1272"
   d="m 91.093,204.381 c -0.243,-0.729 -0.632,-0.777 -0.924,-1.264 -0.292,-0.486 0.778,-2.383 1.507,-2.869 0.729,-0.486 -1.078,-2.675 -2.8,-1.119 -1.723,1.557 -1.217,-1.069 -2.044,-2.285 l -8.782,-1.07 -8.607,1.07 c -0.827,1.216 -0.146,3.842 -1.868,2.285 -1.723,-1.556 -3.53,0.633 -2.8,1.119 0.73,0.486 1.799,2.383 1.507,2.869 -0.292,0.486 -0.681,0.535 -0.924,1.264 -0.486,1.994 -2.237,0.535 -1.604,1.459 0.632,0.924 2.966,-1.069 2.237,0.924 -0.729,1.994 0.486,1.994 0.632,2.627 0.146,0.632 0.292,1.118 -1.362,2.285 -1.653,1.168 -0.243,2.627 0,2.092 0.243,-0.535 1.41,-1.557 1.556,-0.486 0.146,1.069 3.745,-0.341 2.772,1.652 -0.973,1.994 0.097,2.627 0.681,4.135 0.583,1.507 -0.681,1.069 0,1.264 0.681,0.195 0.924,-0.875 0.924,-0.875 0.194,1.313 0.875,0.826 1.604,1.167 0.729,0.341 0.34,1.945 0.973,1.556 0.632,-0.389 0.875,0.292 1.265,-0.777 0.389,-1.07 0.681,0.777 1.41,0.438 0.729,-0.339 0.389,-1.459 0.632,-0.535 0.243,0.924 0.973,1.702 0.973,1.702 0,0 0.904,-0.778 1.147,-1.702 0.243,-0.924 -0.009,0.195 0.72,0.535 0.729,0.34 1.065,-1.508 1.455,-0.438 0.389,1.069 0.653,0.389 1.286,0.777 0.632,0.39 0.254,-1.215 0.983,-1.556 0.729,-0.341 1.416,0.146 1.611,-1.167 0,0 0.246,1.07 0.927,0.875 0.681,-0.194 -0.583,0.243 10e-4,-1.264 0.583,-1.508 1.654,-2.141 0.682,-4.135 -0.973,-1.993 2.626,-0.583 2.771,-1.652 0.146,-1.07 1.314,-0.049 1.557,0.486 0.243,0.535 1.653,-0.924 0,-2.092 -1.653,-1.167 -1.507,-1.653 -1.362,-2.285 0.146,-0.633 1.362,-0.633 0.632,-2.627 -0.729,-1.993 1.605,0 2.237,-0.924 0.632,-0.924 -1.119,0.535 -1.605,-1.459 z"
   stroke-miterlimit="10"
   inkscape:connector-curvature="0"
   style="fill:#ffd200;stroke:#444444;stroke-width:0.389;stroke-miterlimit:10" />
			<path
   id="path1274"
   d="m 78.05,196.455 c 4.605,0 8.408,0.609 9.076,1.404 l 4.93,-5.441 c 0,0 -2.383,-2.042 -5.398,1.41 0,0 0.34,-2.431 -0.729,-3.792 0,0 -1.799,-0.243 -4.037,3.015 0,0 0.049,-2.821 -3.842,-5.058 -3.939,2.237 -3.696,5.058 -3.696,5.058 -2.237,-3.258 -3.89,-3.015 -3.89,-3.015 -1.07,1.362 -0.729,3.792 -0.729,3.792 -3.015,-3.452 -5.398,-1.41 -5.398,-1.41 l 4.797,5.295 c 0.985,-0.722 4.597,-1.258 8.916,-1.258 z"
   stroke-miterlimit="10"
   inkscape:connector-curvature="0"
   style="fill:#ffd200;stroke:#444444;stroke-width:0.389;stroke-miterlimit:10" />
			<path
   id="path1276"
   d="m 67.574,195.992 c 0,0 9.837,-3.526 21.244,0"
   stroke-miterlimit="10"
   inkscape:connector-curvature="0"
   style="fill:none;stroke:#444444;stroke-width:0.389;stroke-miterlimit:10" />
			<path
   id="path1278"
   d="m 81.81,207.922 c -0.486,-1.459 -1.172,-2.811 -1.221,-5.145 l -2.393,-1.168 -2.334,1.168 c -0.049,2.334 -0.778,3.686 -1.265,5.145 -0.487,1.459 0.583,2.813 0.583,2.555 0,-0.256 1.216,-1.317 1.508,-0.49 0.292,0.826 1.361,0.839 1.361,0.839 0,0 1.245,-0.013 1.537,-0.839 0.292,-0.827 1.596,0.234 1.596,0.49 0,0.257 1.114,-1.096 0.628,-2.555 z"
   inkscape:connector-curvature="0"
   style="fill:#ffd200" />
			<path
   id="path1280"
   d="m 75.862,202.777 c -0.049,2.334 -0.778,3.686 -1.265,5.145 -0.487,1.459 0.583,2.813 0.583,2.555 0,-0.256 1.216,-1.317 1.508,-0.49 0.292,0.826 1.361,0.839 1.361,0.839 0,0 1.245,-0.013 1.537,-0.839 0.292,-0.827 1.596,0.234 1.596,0.49 0,0.258 1.114,-1.096 0.627,-2.555 -0.487,-1.459 -1.172,-2.811 -1.221,-5.145"
   stroke-miterlimit="10"
   inkscape:connector-curvature="0"
   style="fill:none;stroke:#444444;stroke-width:0.389;stroke-miterlimit:10" />
			<path
   id="path1282"
   d="m 70.505,202.255 c 0,0 0.931,-0.572 1.879,-0.548 0.948,0.023 1.831,0.85 2.65,1.07 10e-4,0 -1.909,2.725 -4.529,-0.522 z"
   inkscape:connector-curvature="0"
   style="fill:#ffffff" />
			<path
   id="path1284"
   d="m 75.035,202.777 c 0,0 -1.911,2.725 -4.53,-0.522"
   stroke-miterlimit="10"
   inkscape:connector-curvature="0"
   style="fill:none;stroke:#444444;stroke-width:0.389;stroke-miterlimit:10" />
			<path
   id="path1286"
   d="m 73.605,202.091 c -0.395,-0.203 -0.801,-0.374 -1.22,-0.384 -0.149,-0.004 -0.296,0.01 -0.442,0.031 -0.008,0.075 -0.015,0.15 -0.015,0.229 0,0.699 0.377,1.264 0.843,1.264 0.437,-0.001 0.792,-0.501 0.834,-1.14 z"
   inkscape:connector-curvature="0"
   style="fill:#444444" />
			<path
   id="path1288"
   d="m 78.225,200.978 c 0,0 -0.953,2.188 -2.947,1.8 -1.994,-0.39 -2.528,-1.945 -4.912,-0.438 -2.383,1.508 -2.917,0 -3.161,-1.118 -0.243,-1.119 -0.924,-1.168 -1.216,-1.168"
   stroke-miterlimit="10"
   inkscape:connector-curvature="0"
   style="fill:none;stroke:#444444;stroke-width:0.389;stroke-miterlimit:10" />
			<path
   id="path1290"
   d="m 67.983,204.479 c 0,0 2.573,6.249 4.787,8.121 2.213,1.873 0.951,4.183 2.556,4.377"
   stroke-miterlimit="10"
   inkscape:connector-curvature="0"
   style="fill:none;stroke:#444444;stroke-width:0.389;stroke-miterlimit:10" />
			<path
   id="path1292"
   d="m 86.158,202.255 c 0,0 -0.931,-0.572 -1.879,-0.548 -0.948,0.023 -1.832,0.85 -2.65,1.07 0,0 1.91,2.725 4.529,-0.522 z"
   inkscape:connector-curvature="0"
   style="fill:#ffffff" />
			<path
   id="path1294"
   d="m 81.629,202.777 c 0,0 1.91,2.725 4.529,-0.522"
   stroke-miterlimit="10"
   inkscape:connector-curvature="0"
   style="fill:none;stroke:#444444;stroke-width:0.389;stroke-miterlimit:10" />
			<path
   id="path1296"
   d="m 83.059,202.091 c 0.394,-0.203 0.801,-0.374 1.22,-0.384 0.149,-0.004 0.296,0.01 0.442,0.031 0.009,0.075 0.016,0.15 0.016,0.229 0,0.699 -0.378,1.264 -0.844,1.264 -0.437,-0.001 -0.791,-0.501 -0.834,-1.14 z"
   inkscape:connector-curvature="0"
   style="fill:#444444" />
			<path
   id="path1298"
   d="m 78.439,200.978 c 0,0 0.953,2.188 2.947,1.8 1.994,-0.39 2.529,-1.945 4.912,-0.438 2.383,1.508 2.918,0 3.161,-1.118 0.243,-1.119 0.924,-1.168 1.215,-1.168"
   stroke-miterlimit="10"
   inkscape:connector-curvature="0"
   style="fill:none;stroke:#444444;stroke-width:0.389;stroke-miterlimit:10" />
			<path
   id="path1300"
   d="m 88.68,204.479 c 0,0 -2.573,6.249 -4.787,8.121 -2.212,1.873 -0.951,4.183 -2.556,4.377"
   stroke-miterlimit="10"
   inkscape:connector-curvature="0"
   style="fill:none;stroke:#444444;stroke-width:0.389;stroke-miterlimit:10" />
			<path
   id="path1302"
   d="m 79.266,217.269 c 0,0 -0.652,1.167 0,2.869"
   stroke-miterlimit="10"
   inkscape:connector-curvature="0"
   style="fill:none;stroke:#444444;stroke-width:0.389;stroke-miterlimit:10" />
			<path
   id="path1304"
   d="m 76.883,216.977 c 0,0 -1.216,0.146 -0.243,1.727"
   stroke-miterlimit="10"
   inkscape:connector-curvature="0"
   style="fill:none;stroke:#444444;stroke-width:0.389;stroke-miterlimit:10" />
			<path
   id="path1306"
   d="m 71.047,211.773 c 0,0 -0.973,1.508 0,3.016"
   stroke-miterlimit="10"
   inkscape:connector-curvature="0"
   style="fill:none;stroke:#444444;stroke-width:0.389;stroke-miterlimit:10" />
			<path
   id="path1308"
   d="m 72.312,214.205 c 0,0 -0.973,2.967 0,4.498"
   stroke-miterlimit="10"
   inkscape:connector-curvature="0"
   style="fill:none;stroke:#444444;stroke-width:0.389;stroke-miterlimit:10" />
			<path
   id="path1310"
   d="m 68.616,208.516 c 0,0 0.056,2.188 -1.042,2.723"
   stroke-miterlimit="10"
   inkscape:connector-curvature="0"
   style="fill:none;stroke:#444444;stroke-width:0.389;stroke-miterlimit:10" />
			<path
   id="path1312"
   d="m 67.574,205.792 c 0,0 -1.293,0.486 -0.417,1.944"
   stroke-miterlimit="10"
   inkscape:connector-curvature="0"
   style="fill:none;stroke:#444444;stroke-width:0.389;stroke-miterlimit:10" />
			<path
   id="path1314"
   d="m 77.223,200.539 c 0,0 0.924,1.07 2.529,0"
   stroke-miterlimit="10"
   inkscape:connector-curvature="0"
   style="fill:none;stroke:#444444;stroke-width:0.389;stroke-miterlimit:10" />
			<path
   id="path1316"
   d="m 78.184,212.313 c 0,0 -0.94,0.56 -1.669,0.505 -0.729,-0.054 -1.921,-2.479 -2.467,-1.957 -0.545,0.521 0.02,1.123 0.602,1.962 0.582,0.839 0.826,2.366 1.474,2.168 0.649,-0.196 1.368,-1.368 2.061,-1.24 0.692,0.13 1.385,1.474 1.943,1.513 0.558,0.037 1.181,-1.311 1.607,-2.02 0.425,-0.709 1.522,-2.882 0.168,-2.457 -0.634,0.201 -1.929,3.207 -3.719,1.526 z"
   stroke-miterlimit="10"
   inkscape:connector-curvature="0"
   style="fill:#9e1e1e;stroke:#444444;stroke-width:0.33829999;stroke-miterlimit:10" />
			<path
   id="path1318"
   d="m 80.676,216.247 c 0,0 1.225,0.341 0.661,2.091"
   stroke-miterlimit="10"
   inkscape:connector-curvature="0"
   style="fill:none;stroke:#444444;stroke-width:0.33829999;stroke-miterlimit:10" />
			<path
   id="path1320"
   d="m 75.619,216.247 c 0,0 -0.535,0.486 -0.292,2.286"
   stroke-miterlimit="10"
   inkscape:connector-curvature="0"
   style="fill:none;stroke:#444444;stroke-width:0.33829999;stroke-miterlimit:10" />
			<path
   id="path1322"
   d="m 85.326,219.688 c 0,0 0.066,-1.593 -0.589,-2.712"
   stroke-miterlimit="10"
   inkscape:connector-curvature="0"
   style="fill:none;stroke:#444444;stroke-width:0.33829999;stroke-miterlimit:10" />
			<path
   id="path1324"
   d="m 71.193,219.457 c 0,0 -0.184,-1.799 0.686,-2.066"
   stroke-miterlimit="10"
   inkscape:connector-curvature="0"
   style="fill:none;stroke:#444444;stroke-width:0.33829999;stroke-miterlimit:10" />
			<path
   id="path1326"
   d="m 74.26,222.043 c 0,0 -0.484,-1.577 0,-3.711"
   stroke-miterlimit="10"
   inkscape:connector-curvature="0"
   style="fill:none;stroke:#444444;stroke-width:0.33829999;stroke-miterlimit:10" />
			<path
   id="path1328"
   d="m 82.417,215.264 c 0,0 0.933,1.859 0.447,3.439"
   stroke-miterlimit="10"
   inkscape:connector-curvature="0"
   style="fill:none;stroke:#444444;stroke-width:0.33829999;stroke-miterlimit:10" />
			<path
   id="path1330"
   d="m 85.328,212.746 c 0,0 0.591,0.243 0,2.236"
   stroke-miterlimit="10"
   inkscape:connector-curvature="0"
   style="fill:none;stroke:#444444;stroke-width:0.33829999;stroke-miterlimit:10" />
			<path
   id="path1332"
   d="m 87.192,210.728 c 0,0 -0.34,1.289 0.583,1.483"
   stroke-miterlimit="10"
   inkscape:connector-curvature="0"
   style="fill:none;stroke:#444444;stroke-width:0.33829999;stroke-miterlimit:10" />
			<path
   id="path1334"
   d="m 88.116,208.223 c 0,0 -0.639,1.945 0.702,2.821"
   stroke-miterlimit="10"
   inkscape:connector-curvature="0"
   style="fill:none;stroke:#444444;stroke-width:0.33829999;stroke-miterlimit:10" />
			<path
   id="path1336"
   d="m 87.964,206.098 c 0,0 0.583,-0.014 0.854,1.299"
   stroke-miterlimit="10"
   inkscape:connector-curvature="0"
   style="fill:none;stroke:#444444;stroke-width:0.33829999;stroke-miterlimit:10" />
			<path
   id="path1338"
   d="m 70.388,209.391 c 0,0 -1.432,1.459 -1.432,3.063"
   stroke-miterlimit="10"
   inkscape:connector-curvature="0"
   style="fill:none;stroke:#444444;stroke-width:0.389;stroke-miterlimit:10" />
			<path
   id="path1340"
   d="m 67.213,203.847 c 0,0 0.382,0.729 1.743,0.875"
   stroke-miterlimit="10"
   inkscape:connector-curvature="0"
   style="fill:none;stroke:#444444;stroke-width:0.389;stroke-miterlimit:10" />
			<path
   id="path1342"
   d="m 89.332,203.847 c 0,0 -0.548,0.778 -1.878,1.313"
   stroke-miterlimit="10"
   inkscape:connector-curvature="0"
   style="fill:none;stroke:#444444;stroke-width:0.389;stroke-miterlimit:10" />
			<path
   id="path1344"
   d="m 76.263,198.691 c 0,0 1.058,3.286 -1.471,2.324"
   stroke-miterlimit="10"
   inkscape:connector-curvature="0"
   style="fill:none;stroke:#444444;stroke-width:0.389;stroke-miterlimit:10" />
			<path
   id="path1346"
   d="m 80.044,198.691 c 0,0 0.058,3.188 1.585,2.324"
   stroke-miterlimit="10"
   inkscape:connector-curvature="0"
   style="fill:none;stroke:#444444;stroke-width:0.389;stroke-miterlimit:10" />
			<path
   id="path1348"
   d="m 73.605,204.722 c 0,0 -2.979,0.194 -2.429,2.675"
   stroke-miterlimit="10"
   inkscape:connector-curvature="0"
   style="fill:none;stroke:#444444;stroke-width:0.389;stroke-miterlimit:10" />
			<path
   id="path1350"
   d="m 84.557,204.722 c 0,0 0.794,0.56 1.034,2.079"
   stroke-miterlimit="10"
   inkscape:connector-curvature="0"
   style="fill:none;stroke:#444444;stroke-width:0.389;stroke-miterlimit:10" />
			<path
   id="path1352"
   d="m 74.48,208.516 c 0,0 2.677,-3.016 7.452,0"
   stroke-miterlimit="10"
   inkscape:connector-curvature="0"
   style="fill:none;stroke:#444444;stroke-width:0.389;stroke-miterlimit:10" />
		</g>
		<g
   id="g1438">
			<path
   id="path1356"
   d="m 72.093,168.381 c -0.243,-0.729 -0.632,-0.778 -0.924,-1.264 -0.292,-0.486 0.778,-2.383 1.507,-2.869 0.729,-0.486 -1.078,-2.675 -2.8,-1.119 -1.723,1.556 -1.217,-1.07 -2.044,-2.286 l -8.782,-1.07 -8.607,1.07 c -0.827,1.216 -0.146,3.842 -1.868,2.286 -1.723,-1.556 -3.53,0.632 -2.8,1.119 0.73,0.487 1.799,2.383 1.507,2.869 -0.292,0.486 -0.681,0.535 -0.924,1.264 -0.486,1.994 -2.237,0.535 -1.604,1.459 0.632,0.924 2.966,-1.07 2.237,0.924 -0.729,1.994 0.486,1.994 0.632,2.626 0.146,0.632 0.292,1.118 -1.362,2.285 -1.653,1.167 -0.243,2.626 0,2.091 0.243,-0.535 1.41,-1.556 1.556,-0.486 0.146,1.07 3.745,-0.34 2.772,1.653 -0.973,1.994 0.097,2.626 0.681,4.134 0.583,1.507 -0.681,1.07 0,1.264 0.681,0.195 0.924,-0.875 0.924,-0.875 0.194,1.313 0.875,0.827 1.604,1.167 0.729,0.34 0.34,1.945 0.973,1.556 0.633,-0.389 0.875,0.292 1.265,-0.778 0.389,-1.07 0.681,0.778 1.41,0.438 0.729,-0.34 0.389,-1.459 0.632,-0.535 0.243,0.924 0.973,1.702 0.973,1.702 0,0 0.904,-0.778 1.147,-1.702 0.243,-0.924 -0.009,0.195 0.72,0.535 0.729,0.34 1.065,-1.508 1.455,-0.438 0.39,1.07 0.653,0.389 1.286,0.778 0.633,0.389 0.254,-1.216 0.983,-1.556 0.729,-0.34 1.416,0.146 1.611,-1.167 0,0 0.246,1.07 0.927,0.875 0.681,-0.194 -0.583,0.243 10e-4,-1.264 0.583,-1.508 1.654,-2.14 0.682,-4.134 -0.973,-1.994 2.626,-0.583 2.771,-1.653 0.146,-1.07 1.314,-0.048 1.557,0.486 0.243,0.535 1.653,-0.924 0,-2.091 -1.653,-1.167 -1.507,-1.653 -1.362,-2.285 0.146,-0.632 1.362,-0.632 0.632,-2.626 -0.729,-1.994 1.605,0 2.237,-0.924 0.632,-0.923 -1.119,0.535 -1.605,-1.459 z"
   stroke-miterlimit="10"
   inkscape:connector-curvature="0"
   style="fill:#ffd200;stroke:#444444;stroke-width:0.389;stroke-miterlimit:10" />
			<path
   id="path1358"
   d="m 59.05,160.455 c 4.605,0 8.408,0.61 9.076,1.405 l 4.93,-5.441 c 0,0 -2.383,-2.042 -5.398,1.41 0,0 0.34,-2.431 -0.729,-3.793 0,0 -1.799,-0.243 -4.037,3.015 0,0 0.049,-2.821 -3.842,-5.058 -3.939,2.237 -3.696,5.058 -3.696,5.058 -2.237,-3.258 -3.89,-3.015 -3.89,-3.015 -1.07,1.362 -0.729,3.793 -0.729,3.793 -3.015,-3.453 -5.398,-1.41 -5.398,-1.41 l 4.797,5.294 c 0.985,-0.722 4.597,-1.258 8.916,-1.258 z"
   stroke-miterlimit="10"
   inkscape:connector-curvature="0"
   style="fill:#ffd200;stroke:#444444;stroke-width:0.389;stroke-miterlimit:10" />
			<path
   id="path1360"
   d="m 48.574,159.992 c 0,0 9.837,-3.526 21.244,0"
   stroke-miterlimit="10"
   inkscape:connector-curvature="0"
   style="fill:none;stroke:#444444;stroke-width:0.389;stroke-miterlimit:10" />
			<path
   id="path1362"
   d="m 62.81,171.922 c -0.486,-1.459 -1.172,-2.812 -1.221,-5.146 l -2.393,-1.167 -2.334,1.167 c -0.049,2.334 -0.778,3.687 -1.265,5.146 -0.487,1.459 0.583,2.812 0.583,2.555 0,-0.257 1.216,-1.318 1.508,-0.491 0.292,0.827 1.361,0.839 1.361,0.839 0,0 1.245,-0.012 1.537,-0.839 0.292,-0.827 1.596,0.234 1.596,0.491 0,0.257 1.114,-1.096 0.628,-2.555 z"
   inkscape:connector-curvature="0"
   style="fill:#ffd200" />
			<path
   id="path1364"
   d="m 56.862,166.777 c -0.049,2.334 -0.778,3.687 -1.265,5.146 -0.487,1.459 0.583,2.812 0.583,2.555 0,-0.257 1.216,-1.318 1.508,-0.491 0.292,0.827 1.361,0.839 1.361,0.839 0,0 1.245,-0.012 1.537,-0.839 0.292,-0.827 1.596,0.234 1.596,0.491 0,0.257 1.114,-1.096 0.627,-2.555 -0.487,-1.459 -1.172,-2.812 -1.221,-5.146"
   stroke-miterlimit="10"
   inkscape:connector-curvature="0"
   style="fill:none;stroke:#444444;stroke-width:0.389;stroke-miterlimit:10" />
			<path
   id="path1366"
   d="m 51.505,166.255 c 0,0 0.931,-0.572 1.879,-0.548 0.948,0.024 1.831,0.85 2.65,1.07 10e-4,0 -1.909,2.724 -4.529,-0.522 z"
   inkscape:connector-curvature="0"
   style="fill:#ffffff" />
			<path
   id="path1368"
   d="m 56.035,166.777 c 0,0 -1.911,2.725 -4.53,-0.522"
   stroke-miterlimit="10"
   inkscape:connector-curvature="0"
   style="fill:none;stroke:#444444;stroke-width:0.389;stroke-miterlimit:10" />
			<path
   id="path1370"
   d="m 54.605,166.091 c -0.395,-0.203 -0.801,-0.374 -1.22,-0.384 -0.149,-0.004 -0.296,0.01 -0.442,0.032 -0.008,0.075 -0.015,0.15 -0.015,0.228 0,0.699 0.377,1.264 0.843,1.264 0.437,0 0.792,-0.501 0.834,-1.14 z"
   inkscape:connector-curvature="0"
   style="fill:#444444" />
			<path
   id="path1372"
   d="m 59.225,164.978 c 0,0 -0.953,2.188 -2.947,1.799 -1.994,-0.389 -2.528,-1.945 -4.912,-0.438 -2.383,1.508 -2.917,0 -3.161,-1.118 -0.243,-1.119 -0.924,-1.167 -1.216,-1.167"
   stroke-miterlimit="10"
   inkscape:connector-curvature="0"
   style="fill:none;stroke:#444444;stroke-width:0.389;stroke-miterlimit:10" />
			<path
   id="path1374"
   d="m 48.983,168.479 c 0,0 2.573,6.249 4.787,8.122 2.213,1.872 0.951,4.182 2.556,4.376"
   stroke-miterlimit="10"
   inkscape:connector-curvature="0"
   style="fill:none;stroke:#444444;stroke-width:0.389;stroke-miterlimit:10" />
			<path
   id="path1376"
   d="m 67.158,166.255 c 0,0 -0.931,-0.572 -1.879,-0.548 -0.948,0.024 -1.832,0.85 -2.65,1.07 0,0 1.91,2.724 4.529,-0.522 z"
   inkscape:connector-curvature="0"
   style="fill:#ffffff" />
			<path
   id="path1378"
   d="m 62.629,166.777 c 0,0 1.91,2.725 4.529,-0.522"
   stroke-miterlimit="10"
   inkscape:connector-curvature="0"
   style="fill:none;stroke:#444444;stroke-width:0.389;stroke-miterlimit:10" />
			<path
   id="path1380"
   d="m 64.059,166.091 c 0.394,-0.203 0.801,-0.374 1.22,-0.384 0.149,-0.004 0.296,0.01 0.442,0.032 0.009,0.075 0.016,0.15 0.016,0.228 0,0.699 -0.378,1.264 -0.844,1.264 -0.437,0 -0.791,-0.501 -0.834,-1.14 z"
   inkscape:connector-curvature="0"
   style="fill:#444444" />
			<path
   id="path1382"
   d="m 59.439,164.978 c 0,0 0.953,2.188 2.947,1.799 1.994,-0.389 2.529,-1.945 4.912,-0.438 2.383,1.508 2.918,0 3.161,-1.118 0.243,-1.119 0.924,-1.167 1.215,-1.167"
   stroke-miterlimit="10"
   inkscape:connector-curvature="0"
   style="fill:none;stroke:#444444;stroke-width:0.389;stroke-miterlimit:10" />
			<path
   id="path1384"
   d="m 69.68,168.479 c 0,0 -2.573,6.249 -4.787,8.122 -2.212,1.872 -0.951,4.182 -2.556,4.376"
   stroke-miterlimit="10"
   inkscape:connector-curvature="0"
   style="fill:none;stroke:#444444;stroke-width:0.389;stroke-miterlimit:10" />
			<path
   id="path1386"
   d="m 60.266,181.269 c 0,0 -0.652,1.167 0,2.869"
   stroke-miterlimit="10"
   inkscape:connector-curvature="0"
   style="fill:none;stroke:#444444;stroke-width:0.389;stroke-miterlimit:10" />
			<path
   id="path1388"
   d="m 57.883,180.977 c 0,0 -1.216,0.146 -0.243,1.727"
   stroke-miterlimit="10"
   inkscape:connector-curvature="0"
   style="fill:none;stroke:#444444;stroke-width:0.389;stroke-miterlimit:10" />
			<path
   id="path1390"
   d="m 52.047,175.773 c 0,0 -0.973,1.507 0,3.015"
   stroke-miterlimit="10"
   inkscape:connector-curvature="0"
   style="fill:none;stroke:#444444;stroke-width:0.389;stroke-miterlimit:10" />
			<path
   id="path1392"
   d="m 53.312,178.205 c 0,0 -0.973,2.967 0,4.499"
   stroke-miterlimit="10"
   inkscape:connector-curvature="0"
   style="fill:none;stroke:#444444;stroke-width:0.389;stroke-miterlimit:10" />
			<path
   id="path1394"
   d="m 49.616,172.515 c 0,0 0.056,2.188 -1.042,2.723"
   stroke-miterlimit="10"
   inkscape:connector-curvature="0"
   style="fill:none;stroke:#444444;stroke-width:0.389;stroke-miterlimit:10" />
			<path
   id="path1396"
   d="m 48.574,169.792 c 0,0 -1.293,0.486 -0.417,1.945"
   stroke-miterlimit="10"
   inkscape:connector-curvature="0"
   style="fill:none;stroke:#444444;stroke-width:0.389;stroke-miterlimit:10" />
			<path
   id="path1398"
   d="m 58.223,164.54 c 0,0 0.924,1.07 2.529,0"
   stroke-miterlimit="10"
   inkscape:connector-curvature="0"
   style="fill:none;stroke:#444444;stroke-width:0.389;stroke-miterlimit:10" />
			<path
   id="path1400"
   d="m 59.184,176.313 c 0,0 -0.94,0.56 -1.669,0.505 -0.729,-0.054 -1.921,-2.479 -2.467,-1.958 -0.545,0.522 0.02,1.123 0.602,1.962 0.582,0.838 0.826,2.366 1.474,2.168 0.649,-0.197 1.368,-1.369 2.061,-1.24 0.692,0.129 1.385,1.474 1.943,1.512 0.558,0.038 1.181,-1.31 1.607,-2.019 0.425,-0.709 1.522,-2.882 0.168,-2.457 -0.634,0.202 -1.929,3.208 -3.719,1.527 z"
   stroke-miterlimit="10"
   inkscape:connector-curvature="0"
   style="fill:#9e1e1e;stroke:#444444;stroke-width:0.33829999;stroke-miterlimit:10" />
			<path
   id="path1402"
   d="m 61.676,180.247 c 0,0 1.225,0.341 0.661,2.091"
   stroke-miterlimit="10"
   inkscape:connector-curvature="0"
   style="fill:none;stroke:#444444;stroke-width:0.33829999;stroke-miterlimit:10" />
			<path
   id="path1404"
   d="m 56.619,180.247 c 0,0 -0.535,0.486 -0.292,2.286"
   stroke-miterlimit="10"
   inkscape:connector-curvature="0"
   style="fill:none;stroke:#444444;stroke-width:0.33829999;stroke-miterlimit:10" />
			<path
   id="path1406"
   d="m 66.326,183.688 c 0,0 0.066,-1.593 -0.589,-2.712"
   stroke-miterlimit="10"
   inkscape:connector-curvature="0"
   style="fill:none;stroke:#444444;stroke-width:0.33829999;stroke-miterlimit:10" />
			<path
   id="path1408"
   d="m 52.193,183.457 c 0,0 -0.184,-1.799 0.686,-2.067"
   stroke-miterlimit="10"
   inkscape:connector-curvature="0"
   style="fill:none;stroke:#444444;stroke-width:0.33829999;stroke-miterlimit:10" />
			<path
   id="path1410"
   d="m 55.26,186.042 c 0,0 -0.484,-1.577 0,-3.71"
   stroke-miterlimit="10"
   inkscape:connector-curvature="0"
   style="fill:none;stroke:#444444;stroke-width:0.33829999;stroke-miterlimit:10" />
			<path
   id="path1412"
   d="m 63.417,179.264 c 0,0 0.933,1.858 0.447,3.439"
   stroke-miterlimit="10"
   inkscape:connector-curvature="0"
   style="fill:none;stroke:#444444;stroke-width:0.33829999;stroke-miterlimit:10" />
			<path
   id="path1414"
   d="m 66.328,176.746 c 0,0 0.591,0.243 0,2.237"
   stroke-miterlimit="10"
   inkscape:connector-curvature="0"
   style="fill:none;stroke:#444444;stroke-width:0.33829999;stroke-miterlimit:10" />
			<path
   id="path1416"
   d="m 68.192,174.728 c 0,0 -0.34,1.289 0.583,1.483"
   stroke-miterlimit="10"
   inkscape:connector-curvature="0"
   style="fill:none;stroke:#444444;stroke-width:0.33829999;stroke-miterlimit:10" />
			<path
   id="path1418"
   d="m 69.116,172.223 c 0,0 -0.639,1.945 0.702,2.821"
   stroke-miterlimit="10"
   inkscape:connector-curvature="0"
   style="fill:none;stroke:#444444;stroke-width:0.33829999;stroke-miterlimit:10" />
			<path
   id="path1420"
   d="m 68.964,170.097 c 0,0 0.583,-0.014 0.854,1.299"
   stroke-miterlimit="10"
   inkscape:connector-curvature="0"
   style="fill:none;stroke:#444444;stroke-width:0.33829999;stroke-miterlimit:10" />
			<path
   id="path1422"
   d="m 51.388,173.391 c 0,0 -1.432,1.458 -1.432,3.063"
   stroke-miterlimit="10"
   inkscape:connector-curvature="0"
   style="fill:none;stroke:#444444;stroke-width:0.389;stroke-miterlimit:10" />
			<path
   id="path1424"
   d="m 48.213,167.847 c 0,0 0.382,0.729 1.743,0.875"
   stroke-miterlimit="10"
   inkscape:connector-curvature="0"
   style="fill:none;stroke:#444444;stroke-width:0.389;stroke-miterlimit:10" />
			<path
   id="path1426"
   d="m 70.332,167.847 c 0,0 -0.548,0.778 -1.878,1.313"
   stroke-miterlimit="10"
   inkscape:connector-curvature="0"
   style="fill:none;stroke:#444444;stroke-width:0.389;stroke-miterlimit:10" />
			<path
   id="path1428"
   d="m 57.263,162.692 c 0,0 1.058,3.286 -1.471,2.324"
   stroke-miterlimit="10"
   inkscape:connector-curvature="0"
   style="fill:none;stroke:#444444;stroke-width:0.389;stroke-miterlimit:10" />
			<path
   id="path1430"
   d="m 61.044,162.692 c 0,0 0.058,3.188 1.585,2.324"
   stroke-miterlimit="10"
   inkscape:connector-curvature="0"
   style="fill:none;stroke:#444444;stroke-width:0.389;stroke-miterlimit:10" />
			<path
   id="path1432"
   d="m 54.605,168.722 c 0,0 -2.979,0.195 -2.429,2.675"
   stroke-miterlimit="10"
   inkscape:connector-curvature="0"
   style="fill:none;stroke:#444444;stroke-width:0.389;stroke-miterlimit:10" />
			<path
   id="path1434"
   d="m 65.557,168.722 c 0,0 0.794,0.56 1.034,2.079"
   stroke-miterlimit="10"
   inkscape:connector-curvature="0"
   style="fill:none;stroke:#444444;stroke-width:0.389;stroke-miterlimit:10" />
			<path
   id="path1436"
   d="m 55.48,172.515 c 0,0 2.677,-3.015 7.452,0"
   stroke-miterlimit="10"
   inkscape:connector-curvature="0"
   style="fill:none;stroke:#444444;stroke-width:0.389;stroke-miterlimit:10" />
		</g>
		<g
   id="g1522">
			<path
   id="path1440"
   d="m 109.093,168.381 c -0.243,-0.729 -0.632,-0.778 -0.924,-1.264 -0.292,-0.486 0.778,-2.383 1.507,-2.869 0.729,-0.486 -1.078,-2.675 -2.8,-1.119 -1.723,1.556 -1.217,-1.07 -2.044,-2.286 l -8.782,-1.07 -8.607,1.07 c -0.827,1.216 -0.146,3.842 -1.868,2.286 -1.723,-1.556 -3.53,0.632 -2.8,1.119 0.73,0.487 1.799,2.383 1.507,2.869 -0.292,0.486 -0.681,0.535 -0.924,1.264 -0.486,1.994 -2.237,0.535 -1.604,1.459 0.632,0.924 2.966,-1.07 2.237,0.924 -0.729,1.994 0.486,1.994 0.632,2.626 0.146,0.632 0.292,1.118 -1.362,2.285 -1.653,1.167 -0.243,2.626 0,2.091 0.243,-0.535 1.41,-1.556 1.556,-0.486 0.146,1.07 3.745,-0.34 2.772,1.653 -0.973,1.994 0.097,2.626 0.681,4.134 0.583,1.507 -0.681,1.07 0,1.264 0.681,0.195 0.924,-0.875 0.924,-0.875 0.194,1.313 0.875,0.827 1.604,1.167 0.729,0.34 0.34,1.945 0.973,1.556 0.633,-0.389 0.875,0.292 1.265,-0.778 0.389,-1.07 0.681,0.778 1.41,0.438 0.729,-0.34 0.389,-1.459 0.632,-0.535 0.243,0.924 0.973,1.702 0.973,1.702 0,0 0.904,-0.778 1.147,-1.702 0.243,-0.924 -0.009,0.195 0.72,0.535 0.729,0.34 1.065,-1.508 1.455,-0.438 0.39,1.07 0.653,0.389 1.286,0.778 0.633,0.389 0.254,-1.216 0.983,-1.556 0.729,-0.34 1.416,0.146 1.611,-1.167 0,0 0.246,1.07 0.927,0.875 0.681,-0.194 -0.583,0.243 10e-4,-1.264 0.583,-1.508 1.654,-2.14 0.682,-4.134 -0.973,-1.994 2.626,-0.583 2.771,-1.653 0.146,-1.07 1.314,-0.048 1.557,0.486 0.243,0.535 1.653,-0.924 0,-2.091 -1.653,-1.167 -1.507,-1.653 -1.362,-2.285 0.146,-0.632 1.362,-0.632 0.632,-2.626 -0.729,-1.994 1.605,0 2.237,-0.924 0.632,-0.923 -1.119,0.535 -1.605,-1.459 z"
   stroke-miterlimit="10"
   inkscape:connector-curvature="0"
   style="fill:#ffd200;stroke:#444444;stroke-width:0.389;stroke-miterlimit:10" />
			<path
   id="path1442"
   d="m 96.05,160.455 c 4.605,0 8.408,0.61 9.076,1.405 l 4.93,-5.441 c 0,0 -2.383,-2.042 -5.398,1.41 0,0 0.34,-2.431 -0.729,-3.793 0,0 -1.799,-0.243 -4.037,3.015 0,0 0.049,-2.821 -3.842,-5.058 -3.939,2.237 -3.696,5.058 -3.696,5.058 -2.237,-3.258 -3.89,-3.015 -3.89,-3.015 -1.07,1.362 -0.729,3.793 -0.729,3.793 -3.015,-3.453 -5.398,-1.41 -5.398,-1.41 l 4.797,5.294 c 0.985,-0.722 4.597,-1.258 8.916,-1.258 z"
   stroke-miterlimit="10"
   inkscape:connector-curvature="0"
   style="fill:#ffd200;stroke:#444444;stroke-width:0.389;stroke-miterlimit:10" />
			<path
   id="path1444"
   d="m 85.574,159.992 c 0,0 9.837,-3.526 21.244,0"
   stroke-miterlimit="10"
   inkscape:connector-curvature="0"
   style="fill:none;stroke:#444444;stroke-width:0.389;stroke-miterlimit:10" />
			<path
   id="path1446"
   d="m 99.81,171.922 c -0.486,-1.459 -1.172,-2.812 -1.221,-5.146 l -2.393,-1.167 -2.334,1.167 c -0.049,2.334 -0.778,3.687 -1.265,5.146 -0.487,1.459 0.583,2.812 0.583,2.555 0,-0.257 1.216,-1.318 1.508,-0.491 0.292,0.827 1.361,0.839 1.361,0.839 0,0 1.245,-0.012 1.537,-0.839 0.292,-0.827 1.596,0.234 1.596,0.491 0,0.257 1.114,-1.096 0.628,-2.555 z"
   inkscape:connector-curvature="0"
   style="fill:#ffd200" />
			<path
   id="path1448"
   d="m 93.862,166.777 c -0.049,2.334 -0.778,3.687 -1.265,5.146 -0.487,1.459 0.583,2.812 0.583,2.555 0,-0.257 1.216,-1.318 1.508,-0.491 0.292,0.827 1.361,0.839 1.361,0.839 0,0 1.245,-0.012 1.537,-0.839 0.292,-0.827 1.596,0.234 1.596,0.491 0,0.257 1.114,-1.096 0.627,-2.555 -0.487,-1.459 -1.172,-2.812 -1.221,-5.146"
   stroke-miterlimit="10"
   inkscape:connector-curvature="0"
   style="fill:none;stroke:#444444;stroke-width:0.389;stroke-miterlimit:10" />
			<path
   id="path1450"
   d="m 88.505,166.255 c 0,0 0.931,-0.572 1.879,-0.548 0.948,0.024 1.831,0.85 2.65,1.07 10e-4,0 -1.909,2.724 -4.529,-0.522 z"
   inkscape:connector-curvature="0"
   style="fill:#ffffff" />
			<path
   id="path1452"
   d="m 93.035,166.777 c 0,0 -1.911,2.725 -4.53,-0.522"
   stroke-miterlimit="10"
   inkscape:connector-curvature="0"
   style="fill:none;stroke:#444444;stroke-width:0.389;stroke-miterlimit:10" />
			<path
   id="path1454"
   d="m 91.605,166.091 c -0.395,-0.203 -0.801,-0.374 -1.22,-0.384 -0.149,-0.004 -0.296,0.01 -0.442,0.032 -0.008,0.075 -0.015,0.15 -0.015,0.228 0,0.699 0.377,1.264 0.843,1.264 0.437,0 0.792,-0.501 0.834,-1.14 z"
   inkscape:connector-curvature="0"
   style="fill:#444444" />
			<path
   id="path1456"
   d="m 96.225,164.978 c 0,0 -0.953,2.188 -2.947,1.799 -1.994,-0.389 -2.528,-1.945 -4.912,-0.438 -2.383,1.508 -2.917,0 -3.161,-1.118 -0.243,-1.119 -0.924,-1.167 -1.216,-1.167"
   stroke-miterlimit="10"
   inkscape:connector-curvature="0"
   style="fill:none;stroke:#444444;stroke-width:0.389;stroke-miterlimit:10" />
			<path
   id="path1458"
   d="m 85.983,168.479 c 0,0 2.573,6.249 4.787,8.122 2.213,1.872 0.951,4.182 2.556,4.376"
   stroke-miterlimit="10"
   inkscape:connector-curvature="0"
   style="fill:none;stroke:#444444;stroke-width:0.389;stroke-miterlimit:10" />
			<path
   id="path1460"
   d="m 104.158,166.255 c 0,0 -0.931,-0.572 -1.879,-0.548 -0.948,0.024 -1.832,0.85 -2.65,1.07 0,0 1.91,2.724 4.529,-0.522 z"
   inkscape:connector-curvature="0"
   style="fill:#ffffff" />
			<path
   id="path1462"
   d="m 99.629,166.777 c 0,0 1.91,2.725 4.529,-0.522"
   stroke-miterlimit="10"
   inkscape:connector-curvature="0"
   style="fill:none;stroke:#444444;stroke-width:0.389;stroke-miterlimit:10" />
			<path
   id="path1464"
   d="m 101.059,166.091 c 0.394,-0.203 0.801,-0.374 1.22,-0.384 0.149,-0.004 0.296,0.01 0.442,0.032 0.009,0.075 0.016,0.15 0.016,0.228 0,0.699 -0.378,1.264 -0.844,1.264 -0.437,0 -0.791,-0.501 -0.834,-1.14 z"
   inkscape:connector-curvature="0"
   style="fill:#444444" />
			<path
   id="path1466"
   d="m 96.439,164.978 c 0,0 0.953,2.188 2.947,1.799 1.994,-0.389 2.529,-1.945 4.912,-0.438 2.383,1.508 2.918,0 3.161,-1.118 0.243,-1.119 0.924,-1.167 1.215,-1.167"
   stroke-miterlimit="10"
   inkscape:connector-curvature="0"
   style="fill:none;stroke:#444444;stroke-width:0.389;stroke-miterlimit:10" />
			<path
   id="path1468"
   d="m 106.68,168.479 c 0,0 -2.573,6.249 -4.787,8.122 -2.212,1.872 -0.951,4.182 -2.556,4.376"
   stroke-miterlimit="10"
   inkscape:connector-curvature="0"
   style="fill:none;stroke:#444444;stroke-width:0.389;stroke-miterlimit:10" />
			<path
   id="path1470"
   d="m 97.266,181.269 c 0,0 -0.652,1.167 0,2.869"
   stroke-miterlimit="10"
   inkscape:connector-curvature="0"
   style="fill:none;stroke:#444444;stroke-width:0.389;stroke-miterlimit:10" />
			<path
   id="path1472"
   d="m 94.883,180.977 c 0,0 -1.216,0.146 -0.243,1.727"
   stroke-miterlimit="10"
   inkscape:connector-curvature="0"
   style="fill:none;stroke:#444444;stroke-width:0.389;stroke-miterlimit:10" />
			<path
   id="path1474"
   d="m 89.047,175.773 c 0,0 -0.973,1.507 0,3.015"
   stroke-miterlimit="10"
   inkscape:connector-curvature="0"
   style="fill:none;stroke:#444444;stroke-width:0.389;stroke-miterlimit:10" />
			<path
   id="path1476"
   d="m 90.312,178.205 c 0,0 -0.973,2.967 0,4.499"
   stroke-miterlimit="10"
   inkscape:connector-curvature="0"
   style="fill:none;stroke:#444444;stroke-width:0.389;stroke-miterlimit:10" />
			<path
   id="path1478"
   d="m 86.616,172.515 c 0,0 0.056,2.188 -1.042,2.723"
   stroke-miterlimit="10"
   inkscape:connector-curvature="0"
   style="fill:none;stroke:#444444;stroke-width:0.389;stroke-miterlimit:10" />
			<path
   id="path1480"
   d="m 85.574,169.792 c 0,0 -1.293,0.486 -0.417,1.945"
   stroke-miterlimit="10"
   inkscape:connector-curvature="0"
   style="fill:none;stroke:#444444;stroke-width:0.389;stroke-miterlimit:10" />
			<path
   id="path1482"
   d="m 95.223,164.54 c 0,0 0.924,1.07 2.529,0"
   stroke-miterlimit="10"
   inkscape:connector-curvature="0"
   style="fill:none;stroke:#444444;stroke-width:0.389;stroke-miterlimit:10" />
			<path
   id="path1484"
   d="m 96.184,176.313 c 0,0 -0.94,0.56 -1.669,0.505 -0.729,-0.054 -1.921,-2.479 -2.467,-1.958 -0.545,0.522 0.02,1.123 0.602,1.962 0.582,0.838 0.826,2.366 1.474,2.168 0.649,-0.197 1.368,-1.369 2.061,-1.24 0.692,0.129 1.385,1.474 1.943,1.512 0.558,0.038 1.181,-1.31 1.607,-2.019 0.425,-0.709 1.522,-2.882 0.168,-2.457 -0.634,0.202 -1.929,3.208 -3.719,1.527 z"
   stroke-miterlimit="10"
   inkscape:connector-curvature="0"
   style="fill:#9e1e1e;stroke:#444444;stroke-width:0.33829999;stroke-miterlimit:10" />
			<path
   id="path1486"
   d="m 98.676,180.247 c 0,0 1.225,0.341 0.661,2.091"
   stroke-miterlimit="10"
   inkscape:connector-curvature="0"
   style="fill:none;stroke:#444444;stroke-width:0.33829999;stroke-miterlimit:10" />
			<path
   id="path1488"
   d="m 93.619,180.247 c 0,0 -0.535,0.486 -0.292,2.286"
   stroke-miterlimit="10"
   inkscape:connector-curvature="0"
   style="fill:none;stroke:#444444;stroke-width:0.33829999;stroke-miterlimit:10" />
			<path
   id="path1490"
   d="m 103.326,183.688 c 0,0 0.066,-1.593 -0.589,-2.712"
   stroke-miterlimit="10"
   inkscape:connector-curvature="0"
   style="fill:none;stroke:#444444;stroke-width:0.33829999;stroke-miterlimit:10" />
			<path
   id="path1492"
   d="m 89.193,183.457 c 0,0 -0.184,-1.799 0.686,-2.067"
   stroke-miterlimit="10"
   inkscape:connector-curvature="0"
   style="fill:none;stroke:#444444;stroke-width:0.33829999;stroke-miterlimit:10" />
			<path
   id="path1494"
   d="m 92.26,186.042 c 0,0 -0.484,-1.577 0,-3.71"
   stroke-miterlimit="10"
   inkscape:connector-curvature="0"
   style="fill:none;stroke:#444444;stroke-width:0.33829999;stroke-miterlimit:10" />
			<path
   id="path1496"
   d="m 100.417,179.264 c 0,0 0.933,1.858 0.447,3.439"
   stroke-miterlimit="10"
   inkscape:connector-curvature="0"
   style="fill:none;stroke:#444444;stroke-width:0.33829999;stroke-miterlimit:10" />
			<path
   id="path1498"
   d="m 103.328,176.746 c 0,0 0.591,0.243 0,2.237"
   stroke-miterlimit="10"
   inkscape:connector-curvature="0"
   style="fill:none;stroke:#444444;stroke-width:0.33829999;stroke-miterlimit:10" />
			<path
   id="path1500"
   d="m 105.192,174.728 c 0,0 -0.34,1.289 0.583,1.483"
   stroke-miterlimit="10"
   inkscape:connector-curvature="0"
   style="fill:none;stroke:#444444;stroke-width:0.33829999;stroke-miterlimit:10" />
			<path
   id="path1502"
   d="m 106.116,172.223 c 0,0 -0.639,1.945 0.702,2.821"
   stroke-miterlimit="10"
   inkscape:connector-curvature="0"
   style="fill:none;stroke:#444444;stroke-width:0.33829999;stroke-miterlimit:10" />
			<path
   id="path1504"
   d="m 105.964,170.097 c 0,0 0.583,-0.014 0.854,1.299"
   stroke-miterlimit="10"
   inkscape:connector-curvature="0"
   style="fill:none;stroke:#444444;stroke-width:0.33829999;stroke-miterlimit:10" />
			<path
   id="path1506"
   d="m 88.388,173.391 c 0,0 -1.432,1.458 -1.432,3.063"
   stroke-miterlimit="10"
   inkscape:connector-curvature="0"
   style="fill:none;stroke:#444444;stroke-width:0.389;stroke-miterlimit:10" />
			<path
   id="path1508"
   d="m 85.213,167.847 c 0,0 0.382,0.729 1.743,0.875"
   stroke-miterlimit="10"
   inkscape:connector-curvature="0"
   style="fill:none;stroke:#444444;stroke-width:0.389;stroke-miterlimit:10" />
			<path
   id="path1510"
   d="m 107.332,167.847 c 0,0 -0.548,0.778 -1.878,1.313"
   stroke-miterlimit="10"
   inkscape:connector-curvature="0"
   style="fill:none;stroke:#444444;stroke-width:0.389;stroke-miterlimit:10" />
			<path
   id="path1512"
   d="m 94.263,162.692 c 0,0 1.058,3.286 -1.471,2.324"
   stroke-miterlimit="10"
   inkscape:connector-curvature="0"
   style="fill:none;stroke:#444444;stroke-width:0.389;stroke-miterlimit:10" />
			<path
   id="path1514"
   d="m 98.044,162.692 c 0,0 0.058,3.188 1.585,2.324"
   stroke-miterlimit="10"
   inkscape:connector-curvature="0"
   style="fill:none;stroke:#444444;stroke-width:0.389;stroke-miterlimit:10" />
			<path
   id="path1516"
   d="m 91.605,168.722 c 0,0 -2.979,0.195 -2.429,2.675"
   stroke-miterlimit="10"
   inkscape:connector-curvature="0"
   style="fill:none;stroke:#444444;stroke-width:0.389;stroke-miterlimit:10" />
			<path
   id="path1518"
   d="m 102.557,168.722 c 0,0 0.794,0.56 1.034,2.079"
   stroke-miterlimit="10"
   inkscape:connector-curvature="0"
   style="fill:none;stroke:#444444;stroke-width:0.389;stroke-miterlimit:10" />
			<path
   id="path1520"
   d="m 92.48,172.515 c 0,0 2.677,-3.015 7.452,0"
   stroke-miterlimit="10"
   inkscape:connector-curvature="0"
   style="fill:none;stroke:#444444;stroke-width:0.389;stroke-miterlimit:10" />
		</g>
		<g
   id="g1548">
			<path
   id="path1524"
   d="m 84.583,285 c 0,0 -4.333,-3.833 -3.75,2 z"
   stroke-miterlimit="10"
   inkscape:connector-curvature="0"
   style="fill:#67483b;stroke:#444444;stroke-width:0.5;stroke-miterlimit:10" />
			<path
   id="path1526"
   d="m 132.084,286.833 c 0,0 10.332,-1.666 14.332,-0.583 4,1.083 14.505,3.166 18.42,0.583 3.914,-2.583 -0.17,5.333 -6.336,5.75 -6.166,0.417 -14.666,-1.249 -17.166,0.667 z"
   stroke-miterlimit="10"
   inkscape:connector-curvature="0"
   style="fill:#67483b;stroke:#444444;stroke-width:0.5;stroke-miterlimit:10" />
			<path
   id="path1528"
   d="m 95.25,295.833 c 0,0 -4.667,1.584 -6.917,1.917 -2.25,0.333 -4.167,1.25 -4.75,1.833 -0.583,0.583 -5.25,-0.249 -5.833,0.917 -0.583,1.166 -2.917,-0.417 -3.5,2.333 -0.583,2.75 1.667,-0.666 1.583,0.917 -0.084,1.583 1.083,-0.083 1.583,0.75 0.5,0.833 3.333,0.249 3.833,-0.334 0.5,-0.583 0.833,-1.834 2.083,-2.25 1.25,-0.416 4.25,-0.749 5.667,-1.166 1.417,-0.417 6.5,-0.918 7.834,0.916 0.001,0 0.5,-4.5 -1.583,-5.833 z"
   stroke-miterlimit="10"
   inkscape:connector-curvature="0"
   style="fill:#67483b;stroke:#444444;stroke-width:0.5;stroke-miterlimit:10" />
			<path
   id="path1530"
   d="m 127.084,298.833 c 0,0 4.25,4.584 6.25,4.584 2,0 9.333,0.166 11,0.416 1.666,0.25 8.842,4.506 10.213,1.628 1.37,-2.878 -8.547,-5.296 -10.88,-5.087 -2.333,0.209 -13.083,-6.541 -16.583,-1.541 z"
   stroke-miterlimit="10"
   inkscape:connector-curvature="0"
   style="fill:#67483b;stroke:#444444;stroke-width:0.5;stroke-miterlimit:10" />
			<path
   id="path1532"
   d="m 80.5,286.5 c 0,0 -3.916,1.167 -5.083,4.167 -1.167,3 -2.75,1.499 -2.25,3.916 0.5,2.417 1.405,1.584 3.619,0.417 2.214,-1.167 4.131,-1.501 4.131,-0.917 0,0.584 -4.761,1 -3.922,1.75 0.839,0.75 4.005,0.666 5.505,-0.25 1.5,-0.916 4.333,-1.333 5.583,-0.833 1.25,0.5 7,1.5 7.417,3.25 0.417,1.75 0.834,4.666 -1.167,5.083 -2,0.417 -3.667,1.25 -4.75,1.167 -1.083,-0.083 -3.917,-0.417 -4.583,1.083 -0.666,1.5 1.417,0.5 1.167,1.417 -0.25,0.917 -0.75,2.083 1.167,1.583 1.917,-0.5 2.166,0.834 2.166,1.667 0,0.833 1.334,-0.501 2.667,-2.417 1.333,-1.916 1.692,-1.333 3.679,-1.833 1.988,-0.5 4.071,-0.251 6.238,-0.667 2.166,-0.416 6.75,0.501 6.75,-2.916 0,-3.417 4.582,2.5 9.332,1.333 4.75,-1.167 13.251,-6.829 15.418,-5.123 2.166,1.706 4.999,5.707 12.916,4.54 7.917,-1.167 6.666,1.499 7.25,2.166 0.584,0.667 4.084,0.75 5.667,1.5 1.583,0.75 2.833,2.334 4.75,0.167 1.917,-2.167 -1,-0.5 0,-1.75 1,-1.25 0.333,-1.917 -0.667,-2 -1,-0.083 -0.417,-1.999 -1.75,-1.333 -1.333,0.666 -2.75,1.166 -3.666,0.833 -0.917,-0.333 -4.501,-1.416 -4.834,-3.583 -0.333,-2.167 -2.583,-2.583 -3.416,-1.75 -0.834,0.833 -5.417,-0.334 -5.667,-2.084 -0.25,-1.75 -4.333,-10.084 -13.083,-9 -8.75,1.084 -8.927,2.583 -12.131,2.75 -3.203,0.167 -11.286,-0.5 -13.119,-1.5 C 104,286.333 90.833,279.5 80.5,286.5 Z"
   inkscape:connector-curvature="0"
   style="fill:#67483b" />
			<path
   id="path1534"
   d="m 100.625,298.625 c -1.041,-0.5 -5.5,-5.542 -7.333,-6.458 -1.833,-0.916 -6.709,0.333 -7.772,0.833 -1.063,0.5 -0.436,-0.167 -4.186,0.625 -0.283,0.06 -0.546,0.124 -0.8,0.189 0.241,0.027 0.384,0.113 0.384,0.269 0,0.584 -4.761,1 -3.922,1.75 0.839,0.75 4.005,0.666 5.505,-0.25 1.5,-0.916 4.333,-1.333 5.583,-0.833 1.25,0.5 7,1.5 7.417,3.25 0.309,1.295 0.613,3.225 -0.056,4.312 0.681,-0.244 1.25,-0.585 1.442,-0.937 0.384,-0.708 4.779,-2.25 3.738,-2.75 z"
   inkscape:connector-curvature="0"
   style="fill:#ffffff" />
			<path
   id="path1536"
   d="m 132.656,298.081 c -1.367,-1.528 -8.055,0.456 -11.656,1.669 -3.959,1.333 -10.333,-1.625 -12,-1.042 -1.667,0.583 -2.208,1.459 -1.083,1.666 0.499,0.092 0.853,0.522 1.099,0.972 0.881,-1.316 4.947,3.188 9.15,2.154 4.236,-1.041 11.441,-5.641 14.49,-5.419 z"
   inkscape:connector-curvature="0"
   style="fill:#ffffff" />
			
				<ellipse
   id="ellipse1538"
   ry="0.708"
   rx="1.187"
   cy="290.5"
   cx="80.603996"
   transform="rotate(-23.765857,80.606864,290.50512)"
   style="fill:#ffffff" />
			<path
   id="path1540"
   d="m 80.5,286.5 c 0,0 -3.916,1.167 -5.083,4.167 -1.167,3 -2.75,1.499 -2.25,3.916 0.5,2.417 1.405,1.584 3.619,0.417 2.214,-1.167 4.131,-1.501 4.131,-0.917 0,0.584 -4.761,1 -3.922,1.75 0.839,0.75 4.005,0.666 5.505,-0.25 1.5,-0.916 4.333,-1.333 5.583,-0.833 1.25,0.5 7,1.5 7.417,3.25 0.417,1.75 0.834,4.666 -1.167,5.083 -2,0.417 -3.667,1.25 -4.75,1.167 -1.083,-0.083 -3.917,-0.417 -4.583,1.083 -0.666,1.5 1.417,0.5 1.167,1.417 -0.25,0.917 -0.75,2.083 1.167,1.583 1.917,-0.5 2.166,0.834 2.166,1.667 0,0.833 1.334,-0.501 2.667,-2.417 1.333,-1.916 1.692,-1.333 3.679,-1.833 1.988,-0.5 4.071,-0.251 6.238,-0.667 2.166,-0.416 6.75,0.501 6.75,-2.916 0,-3.417 4.582,2.5 9.332,1.333 4.75,-1.167 13.251,-6.829 15.418,-5.123 2.166,1.706 4.999,5.707 12.916,4.54 7.917,-1.167 6.666,1.499 7.25,2.166 0.584,0.667 4.084,0.75 5.667,1.5 1.583,0.75 2.833,2.334 4.75,0.167 1.917,-2.167 -1,-0.5 0,-1.75 1,-1.25 0.333,-1.917 -0.667,-2 -1,-0.083 -0.417,-1.999 -1.75,-1.333 -1.333,0.666 -2.75,1.166 -3.666,0.833 -0.917,-0.333 -4.501,-1.416 -4.834,-3.583 -0.333,-2.167 -2.583,-2.583 -3.416,-1.75 -0.834,0.833 -5.417,-0.334 -5.667,-2.084 -0.25,-1.75 -4.333,-10.084 -13.083,-9 -8.75,1.084 -8.927,2.583 -12.131,2.75 -3.203,0.167 -11.286,-0.5 -13.119,-1.5 C 104,286.333 90.833,279.5 80.5,286.5 Z"
   stroke-miterlimit="10"
   inkscape:connector-curvature="0"
   style="fill:none;stroke:#444444;stroke-width:0.5;stroke-miterlimit:10" />
			<path
   id="path1542"
   d="m 85,287.293 c 0,0 2.167,-3.376 3.417,0.416"
   stroke-miterlimit="10"
   inkscape:connector-curvature="0"
   style="fill:none;stroke:#444444;stroke-width:0.5;stroke-miterlimit:10" />
			<path
   id="path1544"
   d="m 79.518,290.979 c 0.128,0.292 0.565,0.384 1.047,0.269 0.024,-0.106 0.04,-0.216 0.04,-0.329 0,-0.388 -0.152,-0.737 -0.396,-1.001 -0.527,0.273 -0.839,0.727 -0.691,1.061 z"
   inkscape:connector-curvature="0"
   style="fill:#444444" />
			
				<ellipse
   id="ellipse1546"
   ry="0.708"
   rx="1.187"
   cy="290.5"
   cx="80.603996"
   stroke-miterlimit="10"
   transform="rotate(-23.765857,80.606864,290.50512)"
   style="fill:none;stroke:#444444;stroke-width:0.5;stroke-miterlimit:10" />
		</g>
		<path
   id="path1550"
   d="m 230.86,172 c 0,0 -31.062,0 -30.543,-35 H 119.992 40.185 C 40.703,172 9.609,172 9.609,172 55.213,234.5 6.5,270.25 6.5,270.25 c 8.81,57 56.487,52.375 56.487,52.375 -0.518,9 4.664,29.438 27.984,29.438 23.32,0 29.021,20.969 29.021,20.969 0,0 5.959,-21.016 29.279,-21.016 23.32,0 28.633,-20.508 28.114,-29.508 0,0 47.742,4.746 56.552,-52.254 10e-4,0 -48.68,-35.754 -3.077,-98.254 z"
   stroke-miterlimit="10"
   inkscape:connector-curvature="0"
   style="fill:none;stroke:#ffd200;stroke-width:2;stroke-miterlimit:10" />
		<line
   id="line1552"
   y2="229"
   x2="29"
   y1="229"
   x1="212"
   stroke-miterlimit="10"
   style="fill:none;stroke:#ffd200;stroke-width:2;stroke-miterlimit:10" />
		<path
   id="path1554"
   d="m 135,249.75 c 0,-0.594 -5.16,-1.088 -11.952,-1.188 3.837,-5.091 6.445,-9.271 6.044,-9.782 -0.432,-0.552 -4.201,3.347 -8.605,8.858 -4.404,-5.512 -8.173,-9.41 -8.605,-8.858 -0.401,0.511 2.207,4.691 6.044,9.782 -6.792,0.1 -11.952,0.594 -11.952,1.188 0,0.594 5.16,1.088 11.952,1.188 -3.837,5.091 -6.445,9.271 -6.044,9.782 0.432,0.552 4.201,-3.347 8.605,-8.858 4.404,5.512 8.174,9.41 8.605,8.858 0.402,-0.513 -2.207,-4.691 -6.044,-9.782 6.792,-0.1 11.952,-0.594 11.952,-1.188 z"
   stroke-miterlimit="10"
   inkscape:connector-curvature="0"
   style="fill:#ffd200;stroke:#d69f18;stroke-width:0.5;stroke-miterlimit:10" />
	</g>
</g><a
   id="a1779" /><path
   inkscape:connector-curvature="0"
   stroke-miterlimit="10"
   d="m 6.5,303.896 c 0,0 211.5,-20.334 409,-0.095"
   id="path26-7"
   style="fill:none;stroke:#000000;stroke-width:2;stroke-miterlimit:10;stroke-opacity:1" /></svg>