<?xml version="1.0" standalone="no"?>
<!DOCTYPE svg PUBLIC "-//W3C//DTD SVG 1.1//EN" "http://www.w3.org/Graphics/SVG/1.1/DTD/svg11.dtd" >
<svg xmlns="http://www.w3.org/2000/svg" xmlns:xlink="http://www.w3.org/1999/xlink" version="1.1">
<metadata>
Created by FontForge 20201107 at Fri Nov  3 11:56:49 2023
 By Janez Pavel Žebovec
Janez Pavel Zebovec
</metadata>
<defs>
<font id="Metel_ica" horiz-adv-x="563" >
  <font-face 
    font-family="Metel_ica"
    font-weight="400"
    font-stretch="normal"
    units-per-em="1024"
    panose-1="0 0 0 0 0 0 0 0 0 0"
    ascent="819"
    descent="-205"
    x-height="520"
    cap-height="705"
    bbox="-25 -217 827 742"
    underline-thickness="1"
    underline-position="-2"
    unicode-range="U+000D-0259"
  />
<missing-glyph horiz-adv-x="553" 
d="M92 51h369v635h-369v-635zM41 737h471v-737h-471v737z" />
    <glyph glyph-name=".notdef" horiz-adv-x="553" 
d="M92 51h369v635h-369v-635zM41 737h471v-737h-471v737z" />
    <glyph glyph-name=".null" horiz-adv-x="0" 
 />
    <glyph glyph-name="nonmarkingreturn" unicode="&#xd;" horiz-adv-x="0" 
 />
    <glyph glyph-name="space" unicode=" " horiz-adv-x="358" 
 />
    <glyph glyph-name="exclam" unicode="!" horiz-adv-x="276" 
d="M180 199h-75q-3 126 -11 506h97q-3 -127 -11 -506zM92 0v100h2h96v-100h-98z" />
    <glyph glyph-name="quotedbl" unicode="&#x22;" horiz-adv-x="358" 
d="M309 483h-71q-2 55 -10 222h92q-3 -56 -11 -222zM124 483h-70q-3 55 -10 222h91q-2 -56 -11 -222z" />
    <glyph glyph-name="quotesingle" unicode="'" horiz-adv-x="195" 
d="M133 483h-70q-3 55 -11 222h92q-3 -56 -11 -222z" />
    <glyph glyph-name="parenleft" unicode="(" horiz-adv-x="338" 
d="M63 266q0 144 46 260q45 115 139 216h87q-94 -104 -137 -221q-44 -117 -44 -256q0 -138 43 -255q44 -116 138 -222h-87q-95 102 -140 217q-45 116 -45 259v2z" />
    <glyph glyph-name="parenright" unicode=")" horiz-adv-x="338" 
d="M278 264q0 -145 -46 -260q-45 -115 -139 -216h-87q94 105 138 221q43 117 43 256t-44 256q-43 117 -137 221h87q95 -102 140 -217q45 -116 45 -259v-2z" />
    <glyph glyph-name="asterisk" unicode="*" horiz-adv-x="389" 
d="M228 557l132 52q6 -17 23 -66q-36 -10 -142 -37q24 -31 93 -125l-60 -36q-18 32 -75 129q-19 -32 -78 -128q-14 9 -59 36q24 31 94 124q-35 9 -139 37q5 16 22 66q33 -13 133 -53q-1 37 -5 149h67q-1 -37 -6 -148z" />
    <glyph glyph-name="plus" unicode="+" horiz-adv-x="594" 
d="M335 304v-214h-73v214h-212v73h212v214h73v-214h213v-73h-213z" />
    <glyph glyph-name="comma" unicode="," horiz-adv-x="276" 
d="M193 110v-85q0 -53 -10 -88q-9 -35 -30 -68h-61q47 68 47 131h-44v110h98z" />
    <glyph glyph-name="hyphen" unicode="-" horiz-adv-x="338" 
d="M46 232v80h249v-80h-249z" />
    <glyph glyph-name="period" unicode="." horiz-adv-x="276" 
d="M94 0v110h97v-110h-97z" />
    <glyph glyph-name="slash" unicode="/" horiz-adv-x="276" 
d="M0 -10q51 188 206 752h78q-50 -188 -203 -752h-81z" />
    <glyph glyph-name="zero" unicode="0" 
d="M529 353q0 -177 -62 -270t-183 -93q-122 0 -183 92q-61 93 -61 271q0 181 59 272q60 90 188 90q124 0 183 -92q59 -91 59 -270zM438 353q0 152 -35 221q-36 68 -116 68q-83 0 -120 -68q-36 -67 -36 -221q0 -151 37 -220q36 -70 116 -70t117 71q37 72 37 219z" />
    <glyph glyph-name="one" unicode="1" 
d="M78 0v76h179v542q-39 -28 -159 -113v85q42 29 167 115h83v-629h171v-76h-441z" />
    <glyph glyph-name="two" unicode="2" 
d="M52 0v63q25 59 62 104t77 80q40 37 80 68t72 62t52 65t20 77q0 58 -34 90q-35 32 -95 32q-58 0 -95 -31q-37 -32 -43 -88q-31 3 -93 8q10 85 72 135t159 50q107 0 164 -50t57 -143q0 -41 -19 -81q-18 -41 -55 -82q-37 -40 -142 -125q-58 -47 -92 -85q-33 -38 -48 -73h367
v-76h-466z" />
    <glyph glyph-name="three" unicode="3" 
d="M524 194q0 -97 -62 -150q-61 -54 -176 -54q-108 0 -171 48q-64 49 -76 143l93 9q18 -125 154 -125q67 0 106 33q39 34 39 100q0 57 -44 89t-128 32h-51v79h49q74 0 115 32q40 32 40 89q0 56 -33 89t-98 33q-60 0 -97 -31q-36 -30 -42 -86q-31 3 -91 8q10 86 72 134
q62 49 158 49q107 0 165 -49q59 -49 59 -137q0 -68 -38 -110q-37 -42 -109 -58v-2q78 -8 122 -53q44 -44 44 -112z" />
    <glyph glyph-name="four" unicode="4" 
d="M441 159v-159h-85v159h-333v71q81 118 323 475h95v-474h99v-72h-99zM356 603q-2 -3 -14 -26q-13 -24 -20 -34q-60 -88 -180 -265q-7 -10 -28 -37q-2 -3 -8 -10h250v372z" />
    <glyph glyph-name="five" unicode="5" 
d="M527 230q0 -112 -67 -176q-66 -64 -184 -64q-98 0 -158 43q-61 43 -77 125q30 3 91 10q29 -105 147 -105q72 0 113 44t41 121q0 66 -41 107t-111 41q-37 0 -69 -11q-31 -12 -62 -39h-88q5 94 23 379h401v-77h-319q-3 -56 -14 -224q59 45 146 45q104 0 166 -61t62 -158z
" />
    <glyph glyph-name="six" unicode="6" 
d="M524 231q0 -112 -60 -177q-60 -64 -167 -64q-119 0 -182 88q-63 89 -63 258q0 183 66 281q65 98 186 98q159 0 201 -143q-29 -6 -86 -16q-26 86 -116 86q-77 0 -119 -72t-42 -208q24 46 68 70q45 23 103 23q97 0 154 -61q57 -60 57 -163zM433 226q0 77 -37 118
q-38 42 -105 42q-63 0 -102 -37q-38 -36 -38 -101q0 -81 40 -133t103 -52q65 0 102 43q37 44 37 120z" />
    <glyph glyph-name="seven" unicode="7" 
d="M518 631q-108 -165 -152 -258q-45 -94 -68 -185q-22 -91 -22 -188h-93q0 135 57 284t191 344h-379v77h466v-74z" />
    <glyph glyph-name="eight" unicode="8" 
d="M525 196q0 -97 -62 -151q-62 -55 -178 -55q-113 0 -177 54q-64 53 -64 152q0 69 40 116t101 57v1q-58 14 -91 59t-33 106q0 80 60 130q61 50 162 50q104 0 164 -49q61 -49 61 -132q0 -61 -34 -106q-33 -45 -91 -56v-3q67 -10 104 -57q38 -46 38 -116zM414 529
q0 119 -131 119q-63 0 -97 -30q-33 -30 -33 -89q0 -61 34 -93q35 -32 97 -32q64 0 97 30q33 29 33 95zM431 205q0 66 -39 99t-109 33q-68 0 -107 -36t-39 -98q0 -146 149 -146q73 0 109 36q36 35 36 112z" />
    <glyph glyph-name="nine" unicode="9" 
d="M521 367q0 -182 -66 -279q-67 -98 -189 -98q-83 0 -132 35q-50 35 -71 112q28 5 85 14q27 -88 120 -88q77 0 120 72q42 72 44 205q-20 -45 -68 -72q-49 -27 -107 -27q-95 0 -152 65q-57 64 -57 172q0 110 62 174q62 63 172 63q118 0 179 -87q60 -87 60 -261zM423 454
q0 84 -39 136t-105 52q-64 0 -102 -44q-37 -45 -37 -120q0 -77 37 -122q38 -45 102 -45q39 0 72 18q34 18 53 51q19 32 19 74z" />
    <glyph glyph-name="colon" unicode=":" horiz-adv-x="276" 
d="M94 438v103h97v-103h-97zM94 0v103h97v-103h-97z" />
    <glyph glyph-name="semicolon" unicode=";" horiz-adv-x="276" 
d="M193 103v-78q0 -53 -10 -88q-9 -35 -30 -68h-61q47 68 47 131h-44v103h98zM95 438v103h98v-103h-40h-58z" />
    <glyph glyph-name="less" unicode="&#x3c;" horiz-adv-x="594" 
d="M50 286v102q125 52 498 209v-77q-107 -46 -429 -183q107 -46 429 -184v-76q-124 52 -498 209z" />
    <glyph glyph-name="equal" unicode="=" horiz-adv-x="594" 
d="M50 428v74h498v-74h-498zM50 172v74h498v-74h-498z" />
    <glyph glyph-name="greater" unicode="&#x3e;" horiz-adv-x="594" 
d="M50 77v76q108 46 429 184q-107 46 -429 183v77q125 -52 498 -209v-102q-124 -53 -498 -209z" />
    <glyph glyph-name="question" unicode="?" 
d="M532 516q0 -37 -11 -67q-11 -29 -32 -55q-21 -25 -67 -59q-13 -9 -40 -29q-36 -26 -54 -55q-17 -28 -17 -63h-88q1 35 11 61t25 46t35 36q19 15 40 30q19 14 39 28q19 15 34 32q15 18 24 40q10 21 10 51q0 57 -39 90t-109 33t-111 -35t-48 -96q-31 2 -92 6q13 99 78 152
t172 53q112 0 176 -53t64 -146zM219 0v100h73h24v-100h-97z" />
    <glyph glyph-name="A" unicode="A" horiz-adv-x="676" 
d="M583 0q-20 52 -80 206h-321q-20 -51 -81 -206h-99q72 176 287 705h109q71 -177 283 -705h-98zM343 633q-2 -4 -5 -15q-12 -41 -37 -106l-90 -231h263q-22 58 -90 232q-14 35 -28 78q-5 14 -13 42z" />
    <glyph glyph-name="B" unicode="B" horiz-adv-x="676" 
d="M629 199q0 -94 -68 -147q-69 -52 -191 -52h-286v705h256q248 0 248 -171q0 -63 -35 -106q-35 -42 -99 -56q84 -11 129 -57q46 -46 46 -116zM492 522q0 57 -39 81q-39 25 -113 25h-160v-223h160q77 0 114 29q38 29 38 88zM532 206q0 124 -174 124h-178v-254h185
q87 0 127 33t40 97z" />
    <glyph glyph-name="C" unicode="C" horiz-adv-x="717" 
d="M534 -210v682q0 63 -16 100t-49 54t-93 17q-56 0 -113 -25q-58 -24 -99 -65v-369h-95v523h94v-75q37 39 102 62t140 23q117 0 170 -59q54 -59 54 -186v-682h-95z" />
    <glyph glyph-name="D" unicode="D" horiz-adv-x="737" 
d="M690 359q0 -109 -42 -190q-42 -82 -121 -125q-78 -44 -179 -44h-264v705h233q179 0 276 -90t97 -256zM594 359q0 131 -71 200q-72 69 -208 69h-135v-552h157q77 0 136 34q59 35 90 99t31 150z" />
    <glyph glyph-name="E" unicode="E" horiz-adv-x="676" 
d="M84 0v705h534v-79h-438v-225h408v-77h-408v-246h459v-78h-555z" />
    <glyph glyph-name="F" unicode="F" horiz-adv-x="625" 
d="M180 626v-262h392v-78h-392v-286h-96v705h501v-79h-405z" />
    <glyph glyph-name="G" unicode="G" horiz-adv-x="788" 
d="M52 356q0 171 92 265t258 94q117 0 190 -39q73 -40 113 -127q-31 -9 -91 -27q-31 60 -83 88q-53 27 -132 27q-121 0 -186 -74t-65 -207q0 -134 69 -211t190 -77q69 0 128 21q60 21 97 56v128h-210v80h298v-243q-56 -58 -137 -89t-176 -31q-111 0 -191 44t-122 127
t-42 195z" />
    <glyph glyph-name="H" unicode="H" horiz-adv-x="737" 
d="M561 0v327h-381v-327h-96v705h96v-298h381v298h95v-705h-95z" />
    <glyph glyph-name="I" unicode="I" horiz-adv-x="276" 
d="M95 0v705h95v-705h-95z" />
    <glyph glyph-name="J" unicode="J" horiz-adv-x="512" 
d="M246 0q-179 0 -213 185q31 5 94 16q9 -59 40 -91q32 -32 79 -32q52 0 82 35q30 36 30 105v418v0v78h95v-494q0 -102 -55 -161q-56 -59 -152 -59z" />
    <glyph glyph-name="K" unicode="K" horiz-adv-x="676" 
d="M553 0q-70 85 -282 340q-23 -18 -91 -70v-270h-96v705h96v-354q84 89 339 354h112q-75 -77 -299 -306q85 -100 339 -399h-118z" />
    <glyph glyph-name="L" unicode="L" 
d="M84 0v705h96v-627h355v-78h-451z" />
    <glyph glyph-name="M" unicode="M" horiz-adv-x="850" 
d="M683 0v470q0 78 4 150q-24 -90 -43 -140q-61 -160 -182 -480h-68l-184 480q-7 21 -28 85q-4 14 -16 55q0 -14 1 -56q0 -23 2 -94v-470h-85v705h125q47 -123 188 -489q10 -30 19 -63q9 -34 12 -49q5 20 17 61q13 41 18 51q61 163 184 489h122v-705h-86z" />
    <glyph glyph-name="N" unicode="N" horiz-adv-x="737" 
d="M541 0q-94 150 -377 600q1 -12 3 -49q0 -20 2 -83v-468h-85v705h111q95 -151 381 -605q-6 99 -6 142v463h86v-705h-115z" />
    <glyph glyph-name="O" unicode="O" horiz-adv-x="788" 
d="M748 356q0 -111 -43 -194q-42 -83 -121 -128q-79 -44 -186 -44q-109 0 -188 44q-78 44 -120 127q-41 83 -41 195q0 168 92 264q92 95 258 95q107 0 186 -43q79 -42 120 -124q43 -82 43 -192zM650 356q0 131 -66 206q-65 75 -185 75q-121 0 -188 -74q-66 -74 -66 -207
t67 -211q67 -77 186 -77q121 0 187 75q65 75 65 213z" />
    <glyph glyph-name="P" unicode="P" horiz-adv-x="676" 
d="M629 492q0 -99 -65 -158q-66 -60 -178 -60h-206v-274h-96v705h296q119 0 184 -56t65 -157zM533 492q0 136 -164 136h-189v-278h193q160 0 160 142z" />
    <glyph glyph-name="R" unicode="R" horiz-adv-x="737" 
d="M582 0q-46 73 -183 292h-219v-292h-96v705h331q120 0 184 -54q65 -53 65 -148q0 -78 -46 -132q-46 -53 -126 -68q67 -101 200 -303h-110zM568 502q0 62 -42 94t-120 32h-226v-260h230q76 0 117 35q41 36 41 99z" />
    <glyph glyph-name="S" unicode="S" horiz-adv-x="676" 
d="M636 194q0 -97 -76 -150q-76 -54 -215 -54q-258 0 -298 179q30 6 92 19q16 -64 68 -94q52 -29 141 -29q93 0 143 31q51 32 51 94q0 34 -16 56q-16 21 -45 35q-28 14 -67 23q-40 10 -88 21q-84 18 -127 37q-43 18 -68 41t-38 53q-14 31 -14 71q0 90 70 139q69 49 198 49
q120 0 183 -37q64 -37 90 -125q-32 -5 -94 -16q-16 56 -60 81q-43 25 -120 25q-84 0 -129 -28t-45 -83q0 -33 18 -54q17 -21 49 -37q33 -14 130 -35q32 -8 65 -16q32 -7 61 -18q30 -11 56 -25q26 -15 45 -36t29 -49q11 -29 11 -68z" />
    <glyph glyph-name="T" unicode="T" horiz-adv-x="625" 
d="M360 626v-626h-95v626h-242v79h579v-79h-242z" />
    <glyph glyph-name="U" unicode="U" horiz-adv-x="737" 
d="M366 -10q-87 0 -152 32q-64 31 -100 91q-35 60 -35 143v449h96v-441q0 -97 49 -146q49 -50 141 -50q95 0 148 51q53 52 53 152v434h94v-440q0 -85 -36 -147q-36 -63 -103 -95q-66 -33 -155 -33z" />
    <glyph glyph-name="V" unicode="V" horiz-adv-x="676" 
d="M391 0h-99q-72 176 -288 705h101q49 -124 195 -496q11 -32 42 -125q11 31 42 125q48 124 194 496h101q-72 -177 -288 -705z" />
    <glyph glyph-name="X" unicode="X" horiz-adv-x="840" 
d="M123 742v-193q0 -15 -1 -31q0 -16 -1 -32t-1 -26q-1 -9 -1 -11q14 26 33 45q18 20 38 32q21 13 46 19q26 6 57 6q43 0 74 -10q32 -10 53 -30q21 20 52 30q32 10 74 10q31 0 57 -6t46 -19q21 -12 38 -32q17 -19 32 -45v11q0 10 -1 26t-1 32q-1 16 -1 31v193h90v-742h-90
v319q0 37 -9 67q-10 29 -29 52q-19 21 -44 32q-26 11 -58 11q-21 0 -37 -3q-17 -3 -29 -10q-12 -6 -21 -16q-8 -10 -14 -24q-5 -14 -7 -35q-3 -22 -3 -50v-100h-91v100q0 28 -2 50q-3 21 -8 35t-14 24t-21 16q-12 7 -28 10q-17 3 -38 3q-32 0 -57 -11q-26 -11 -45 -32
q-19 -23 -29 -52q-9 -30 -9 -67v-319h-90v742h90z" />
    <glyph glyph-name="Z" unicode="Z" 
d="M524 194q0 -97 -62 -150q-61 -54 -176 -54q-108 0 -171 48q-64 49 -76 143l93 9q18 -125 154 -125q67 0 106 33q39 34 39 100q0 57 -44 89t-128 32h-51v79h49q74 0 115 32q40 32 40 89q0 56 -33 89t-98 33q-60 0 -97 -31q-36 -30 -42 -86q-31 3 -91 8q10 86 72 134
q62 49 158 49q107 0 165 -49q59 -49 59 -137q0 -68 -38 -110q-37 -42 -109 -58v-2q78 -8 122 -53q44 -44 44 -112z" />
    <glyph glyph-name="a" unicode="a" 
d="M207 -10q-81 0 -122 43t-41 118q0 84 55 129t178 48q41 1 122 2v29q0 66 -28 95q-28 28 -89 28q-60 0 -88 -20q-27 -21 -33 -66l-93 9q22 146 216 146q102 0 154 -47q51 -47 51 -135v-233q0 -40 11 -60q11 -21 40 -21q13 0 29 4v-56q-34 -8 -69 -8q-50 0 -73 26t-26 82
h-2q-35 -62 -81 -87q-45 -26 -111 -26zM228 57q49 0 87 23q39 23 61 62q23 39 23 81v44q-25 0 -99 -2q-64 -1 -96 -13q-33 -12 -51 -37q-17 -25 -17 -65q0 -45 24 -69q23 -24 68 -24z" />
    <glyph glyph-name="b" unicode="b" 
d="M527 273q0 -283 -200 -283q-61 0 -102 22q-40 22 -66 72h-1q0 -16 -2 -47q-2 -32 -3 -37h-87q3 27 3 111v631h90v-212q0 -32 -2 -76h2q25 52 66 74q41 23 102 23q103 0 151 -69q49 -69 49 -209zM432 270q0 113 -30 162t-97 49q-77 0 -111 -52q-35 -52 -35 -164
q0 -107 34 -158q34 -50 110 -50q69 0 99 50t30 163z" />
    <glyph glyph-name="c" unicode="c" 
d="M412 -213v556q0 53 -10 83q-11 29 -33 42q-24 13 -68 13q-65 0 -102 -44q-38 -44 -38 -124v-313h-90v425q0 95 -3 116h85q0 -3 1 -14q0 -11 1 -25t2 -53h2q31 56 71 79q41 23 102 23q88 0 130 -44q41 -44 41 -146v-574h-91z" />
    <glyph glyph-name="d" unicode="d" 
d="M410 87q-25 -52 -66 -74q-41 -23 -102 -23q-102 0 -151 69q-48 69 -48 209q0 283 199 283q61 0 102 -23q41 -22 66 -71h2q-1 15 -2 61v224h90v-631q0 -84 3 -111h-86q-1 8 -3 37t-2 50h-2zM137 271q0 -113 30 -162q31 -49 98 -49q77 0 111 53t34 164q0 108 -34 157
q-34 50 -110 50q-68 0 -98 -50q-31 -50 -31 -163z" />
    <glyph glyph-name="e" unicode="e" 
d="M138 252q0 -93 38 -144q39 -51 113 -51q59 0 94 24t48 59q26 -7 79 -22q-49 -128 -221 -128q-120 0 -183 72q-62 71 -62 212q0 134 62 205q63 72 180 72q238 0 238 -288v-11h-386zM431 321q-8 85 -44 124t-103 39q-66 0 -104 -43q-38 -44 -41 -120h292z" />
    <glyph glyph-name="f" unicode="f" horiz-adv-x="276" 
d="M180 476v-476h-90v476h-75v65h75v61q0 74 33 106q33 33 100 33q37 0 63 -6v-69q-23 5 -40 5q-34 0 -50 -18q-16 -17 -16 -63v-49h106v-65h-106z" />
    <glyph glyph-name="g" unicode="g" 
d="M274 -212q-89 0 -141 34q-52 35 -68 99q31 4 91 13q9 -37 40 -58q30 -20 80 -20q135 0 135 158v86h-1q-25 -51 -70 -78q-45 -26 -104 -26q-99 0 -146 66t-47 208q0 143 50 211q50 69 153 69q57 0 100 -27q42 -26 65 -74h1q0 14 2 51t4 41h85q-3 -27 -3 -112v-414
q0 -227 -226 -227zM411 271q0 66 -18 113q-18 48 -51 73q-32 25 -74 25q-69 0 -101 -49q-31 -50 -31 -162t30 -160q29 -48 100 -48q43 0 76 25t51 71q18 47 18 112z" />
    <glyph glyph-name="h" unicode="h" 
d="M159 449q29 53 69 77q41 25 104 25q88 0 129 -44q42 -44 42 -146v-361h-91v343q0 57 -10 85q-11 27 -35 40t-66 13q-63 0 -102 -44q-38 -44 -38 -118v-319h-90v742h90v-193q0 -30 -2 -63q-1 -32 -2 -37h2z" />
    <glyph glyph-name="i" unicode="i" horiz-adv-x="225" 
d="M68 656v86h91v-86h-91zM68 0v541h91v-541h-91z" />
    <glyph glyph-name="j" unicode="j" horiz-adv-x="225" 
d="M68 656v86h91v-86h-91zM159 -67q0 -76 -30 -111q-31 -34 -90 -34q-39 0 -64 4v70q8 -1 31 -4q35 0 48 19q14 18 14 69v595h91v-608z" />
    <glyph glyph-name="k" unicode="k" horiz-adv-x="512" 
d="M408 0q-46 62 -183 247q-16 -14 -66 -54v-193h-90v742h90v-463q59 65 237 262h106q-55 -58 -220 -233q58 -77 231 -308h-105z" />
    <glyph glyph-name="l" unicode="l" horiz-adv-x="225" 
d="M69 0v742h90v-742h-90z" />
    <glyph glyph-name="m" unicode="m" horiz-adv-x="850" 
d="M384 0v343q0 79 -22 108q-21 30 -77 30q-57 0 -91 -44q-33 -44 -33 -124v-313h-90v425q0 95 -3 116h85q0 -3 1 -14q0 -11 1 -25t2 -53h2q29 57 66 79q38 23 91 23q62 0 98 -25q35 -24 49 -77h2q28 54 68 78q39 24 96 24q82 0 119 -45q37 -44 37 -145v-361h-88v343
q0 79 -22 108q-21 30 -77 30q-60 0 -92 -43q-33 -44 -33 -125v-313h-89z" />
    <glyph glyph-name="n" unicode="n" 
d="M412 0v343q0 53 -10 83q-11 29 -33 42q-24 13 -68 13q-65 0 -102 -44q-38 -44 -38 -124v-313h-90v425q0 95 -3 116h85q0 -3 1 -14q0 -11 1 -25t2 -53h2q31 56 71 79q41 23 102 23q88 0 130 -44q41 -44 41 -146v-361h-91z" />
    <glyph glyph-name="o" unicode="o" 
d="M527 271q0 -142 -63 -211q-63 -70 -182 -70q-118 0 -179 72q-60 73 -60 209q0 280 243 280q123 0 182 -68t59 -212zM432 271q0 112 -33 163q-33 50 -112 50t-114 -51q-36 -52 -36 -162q0 -107 35 -161q35 -53 109 -53q81 0 116 52t35 162z" />
    <glyph glyph-name="p" unicode="p" 
d="M527 273q0 -283 -200 -283q-125 0 -168 94h-2q2 -4 2 -85v-211h-90v643q0 83 -3 110h87q0 -2 1 -14q2 -13 2 -38q2 -26 2 -35h2q24 50 63 73q40 24 104 24q101 0 150 -67q50 -67 50 -211zM432 271q0 113 -30 162q-31 48 -97 48q-54 0 -84 -23q-30 -22 -46 -70t-16 -124
q0 -106 34 -157q34 -50 110 -50q67 0 98 49t31 165z" />
    <glyph glyph-name="r" unicode="r" horiz-adv-x="338" 
d="M71 0v415q0 57 -3 126h85q4 -92 4 -110h2q21 69 49 94q28 26 79 26q18 0 37 -5v-83q-18 5 -48 5q-56 0 -85 -48q-30 -48 -30 -138v-282h-90z" />
    <glyph glyph-name="s" unicode="s" horiz-adv-x="512" 
d="M475 150q0 -77 -58 -118q-58 -42 -162 -42q-101 0 -155 33q-55 34 -72 104q27 5 80 16q11 -44 47 -64q36 -21 100 -21q69 0 101 21t32 64q0 32 -22 52q-23 20 -71 33q-22 5 -65 16q-77 21 -110 40t-52 46q-18 28 -18 68q0 74 53 113t154 39q89 0 142 -32q53 -31 66 -101
q-27 -3 -80 -10q-8 36 -41 55t-87 19q-61 0 -91 -18q-29 -19 -29 -56q0 -23 12 -38t36 -26q24 -10 99 -29q72 -17 103 -33q31 -15 49 -34q19 -18 29 -42q10 -25 10 -55z" />
    <glyph glyph-name="t" unicode="t" horiz-adv-x="276" 
d="M277 4q-44 -12 -91 -12q-108 0 -108 122v362h-63v65h66q7 30 27 121h60v-121h100v-65h-100v-342q0 -39 13 -55q12 -16 44 -16q18 0 52 8v-67z" />
    <glyph glyph-name="u" unicode="u" 
d="M157 541v-343q0 -53 10 -83q11 -29 34 -42t67 -13q66 0 103 44q38 44 38 124v313h89v-425q0 -95 4 -116h-85q-1 2 -2 14q0 11 -1 25q0 14 -2 53h-1q-31 -56 -72 -79t-101 -23q-89 0 -130 44q-42 45 -42 146v361h91z" />
    <glyph glyph-name="v" unicode="v" horiz-adv-x="512" 
d="M306 0h-106q-49 135 -196 541h96q29 -88 118 -352q7 -20 35 -118q6 19 18 58q4 15 19 59q31 88 123 353h95q-50 -135 -202 -541z" />
    <glyph glyph-name="x" unicode="x" horiz-adv-x="881" 
d="M143 742v-193v-31q-1 -16 -1 -32q-1 -16 -2 -26q0 -9 -1 -11q15 26 33 45q18 20 39 32q20 13 46 19t57 6q44 0 76 -11q33 -11 54 -33q12 -12 20 -30q9 -17 14 -40q2 5 3 8l2 4q14 26 32 45q17 20 38 32q20 13 46 19t57 6q44 0 76 -11q33 -11 54 -33q20 -22 31 -58
q10 -37 10 -88v-361h-90v343q0 29 -3 50q-2 21 -8 35q-5 14 -14 24q-8 10 -20 16q-12 7 -29 10q-16 4 -38 4q-31 0 -57 -11q-25 -12 -44 -33q-20 -22 -29 -52q-10 -30 -10 -67v-94h-90v118q0 29 -3 50q-2 21 -8 35q-5 14 -14 24q-8 10 -20 16q-12 7 -29 10q-16 4 -38 4
q-31 0 -57 -11q-25 -12 -44 -33q-20 -22 -29 -52q-10 -30 -10 -67v-319h-90v742h90z" />
    <glyph glyph-name="z" unicode="z" horiz-adv-x="533" 
d="M505 0q0 -98 -62 -151q-62 -54 -177 -54q-107 0 -171 48q-63 49 -75 143l93 9q18 -125 153 -125q68 0 107 33q39 34 39 100q0 57 -45 89q-44 33 -127 33h-51v78h49q74 0 114 32q41 32 41 89t-33 89q-33 33 -99 33q-59 0 -96 -30q-37 -31 -43 -86q-30 2 -90 7
q10 86 71 135q62 48 159 48q106 0 165 -49t59 -137q0 -68 -38 -110t-110 -57v-2q79 -9 123 -53q44 -45 44 -112z" />
    <glyph glyph-name="Eacute" unicode="&#xc9;" horiz-adv-x="738" 
d="M707 249q-1 -66 -35 -122q-35 -56 -96 -91q-39 -22 -86 -33q-46 -11 -100 -11t-101 11t-86 33q-40 22 -70 54q-30 31 -51 73q-20 42 -31 90q-10 49 -10 104q0 85 23 151t69 114q47 47 111 71t147 24q54 0 100 -11q47 -11 86 -32q59 -32 95 -80q36 -49 36 -101
q-28 0 -83 -1q-3 27 -15 48q-13 22 -31 38q-35 31 -87 46q-51 14 -101 15q-61 0 -107 -19q-47 -18 -80 -55q-26 -34 -44 -64q-17 -29 -19 -85q29 0 57 2q27 1 48 1q12 10 26 24q14 13 30 27q28 27 54 51q27 24 36 33q4 -1 26 -22l23 -22q-28 -28 -67 -63q-40 -35 -76 -71
q47 -41 82 -73q34 -31 71 -64q-16 -17 -48 -49q-35 31 -83 73q-48 43 -71 63q-14 -0.5 -29.5 -0.5t-32.5 0.5t-29.75 0.5t-21.25 -0.5q5 -47 23 -96q18 -50 46 -83q33 -39 79 -58q47 -20 106 -20q61 0 108 19t79 57q20 22 42 44t42 37q14 10 -13 16l-26 5q21 1 85 2z" />
    <glyph glyph-name="Ocircumflex" unicode="&#xd4;" horiz-adv-x="778" 
d="M577 682q39 -21 69 -52t51 -72t32 -89q10 -48 10 -104q0 -55 -10 -103q-11 -49 -32 -90q-21 -42 -52 -73q-30 -32 -69 -55q-40 -22 -87 -33q-46 -11 -100 -11t-101 11t-86 33t-70 54q-30 31 -50 73q-21 42 -32 90q-10 49 -10 104q0 85 23 151t70 114q46 47 110 71
q65 24 147 24q54 0 100 -11q47 -10 87 -32zM437 81q44 6 79 24t60 48q33 37 49 91q17 53 17 121q0 66 -17 118q-16 51 -49 89q-26 30 -61 48q-34 18 -78 24v-563zM203 573q-33 -37 -49 -89q-17 -52 -17 -119q0 -66 17 -118q16 -53 50 -92q26 -31 61 -49q34 -19 77 -25v563
q-43 -6 -78 -24t-61 -47z" />
    <glyph glyph-name="eacute" unicode="&#xe9;" horiz-adv-x="594" 
d="M471 184q8 0.5 16.25 0.5t16.75 -0.5h28q0 -50 -24 -92q-25 -43 -72 -69q-30 -18 -66 -26q-36 -9 -77 -9t-77 9q-36 8 -66 25q-31 17 -54 41q-23 25 -39 56q-15 32 -23 70q-8 37 -8 80q0 64 17 115q18 51 54 87q35 37 84 55q50 18 113 18q41 0 77 -8t66 -25
q45 -24 72 -61q28 -37 28 -77q-43 -1 -64 -1q-6 58 -63 85t-116 27q-46 0 -82 -14t-61 -42q-20 -26 -34 -49q-13 -23 -15 -65q23 0 44 1t37 1q25 22 63 58q38 35 49 45q3 -1 20 -17l17 -16q-21 -22 -51 -49q-31 -26 -58 -54q36 -32 62 -56q27 -24 55 -49l-37 -37
q-27 23 -64 55q-36 33 -54 48q-21 0 -47 1h-39q3 -36 17 -74t35 -64q26 -29 61 -44q36 -15 81 -15q47 0 83 14q36 15 61 43q25 29 29 54z" />
    <glyph glyph-name="ocircumflex" unicode="&#xf4;" horiz-adv-x="573" 
d="M472 493q29 -34 44 -87t15 -125q0 -71 -16 -124t-47 -87q-31 -35 -76 -53q-46 -17 -105 -17q-60 0 -104 18q-45 18 -75 54q-31 36 -46 89q-15 52 -15 120q0 140 61 210q60 70 182 70q62 0 107 -17q46 -17 75 -51zM334 72q22 6 39 17q17 12 28 29q18 26 27 67q8 41 8 96
q0 56 -8 97q-8 40 -25 66q-12 18 -29 29q-17 12 -40 17v-418zM177 443q-18 -26 -26 -67q-9 -40 -9 -95q0 -54 8 -94q9 -40 26 -67q13 -18 29 -31q17 -12 39 -18v418q-22 -6 -38 -17q-17 -12 -29 -29z" />
    <glyph glyph-name="Cacute" unicode="&#x106;" horiz-adv-x="676" 
d="M141 705v-304q0 -33 13 -58q12 -25 36 -42q19 -13 44 -21q24 -8 55 -12v433h95v-432q30 4 53 12q24 8 43 21q26 18 39 44t13 60v299h95q1 -235 1 -705h-96v254q-10 -5 -21 -10t-23 -9q-33 -11 -72 -16q-39 -6 -84 -6q-43 0 -81 5q-37 6 -70 17q-32 10 -57 26t-42 37
q-18 20 -27 45q-9 24 -9 53v309h95z" />
    <glyph glyph-name="cacute" unicode="&#x107;" horiz-adv-x="492" 
d="M136 549v-302q0 -62 12 -108q11 -46 52 -63v473h95v-474q47 17 55 65q9 48 9 107v302h90h5v-705h-95v177q-18 -9 -45 -15t-68 -6q-80 0 -109 20q-30 20 -50 42q-21 22 -31 69t-10 98v320h90z" />
    <glyph glyph-name="Ccaron" unicode="&#x10c;" horiz-adv-x="574" 
d="M140 704v-284q0 -27 3 -47q3 -21 9 -36t16 -25q9 -11 22 -17q13 -7 32 -10t44 -3q37 0 66 11t50 33t32 53q10 31 10 71v254h6h96v-366v-338h-96v267q0 8 -1 20v28q-18 -28 -39 -48t-44 -32q-23 -11 -52 -17q-28 -6 -62 -6q-50 0 -87 11t-60 33q-23 23 -35 59
q-12 37 -12 88v301h102z" />
    <glyph glyph-name="ccaron" unicode="&#x10d;" horiz-adv-x="512" 
d="M124 551v-343q0 -27 2 -47q3 -21 8 -36q6 -15 14 -25q8 -11 20 -18q11 -6 28 -9t39 -3q33 0 58 11q26 11 45 33t28 53t9 71v313h90h6v-704h-96v251q-15 -26 -32 -45t-37 -30t-46 -17q-25 -6 -55 -6q-45 0 -77 11q-33 11 -53 33q-21 22 -31 59q-11 37 -11 88v360h91z" />
    <glyph glyph-name="Scaron" unicode="&#x160;" horiz-adv-x="656" 
d="M137 714v-440q0 -48 12 -85t37 -62q18 -18 43 -30q24 -12 55 -16v628h96v-627q29 5 53 17q23 12 42 30q26 26 39 64q14 38 14 88v433h95v-439q0 -43 -9 -80t-28 -68q-18 -31 -43 -54q-26 -24 -59 -41q-33 -16 -72 -24t-84 -8q-44 0 -81 8q-38 8 -70 23q-33 16 -58 39
t-42 53q-18 30 -27 66q-9 35 -9 77v448h96z" />
    <glyph glyph-name="scaron" unicode="&#x161;" horiz-adv-x="492" 
d="M136 549v-302q0 -62 12 -108q11 -46 52 -63v473h95v-474q47 17 55 65q9 48 9 107v302h90v-320q0 -51 -10 -98t-31 -69q-20 -22 -51 -42t-111 -20t-109 20q-30 20 -50 42q-21 22 -31 69t-10 98v320h90z" />
    <glyph glyph-name="Zcaron" unicode="&#x17d;" horiz-adv-x="676" 
d="M49 647q1 26 1 78q81 0 145 -23q64 -22 107 -72q16 -19 24 -34q9 -15 12 -27q9 16 20 32q11 15 24 29q46 47 109 71t143 24q1 -26 1 -78q-58 0 -104 -19q-45 -19 -78 -56q-26 -31 -42 -72q-16 -40 -21 -90h148v-95h-147q6 -48 22 -87t43 -71q34 -39 80 -59
q46 -19 103 -19q-1 -27 -4 -79q-53 0 -99 11q-47 11 -85 33q-35 20 -62 47q-27 26 -47 60q-20 -34 -47 -60q-27 -27 -61 -47q-39 -22 -85 -33t-99 -11q-2 26 -5 79q58 0 104 19q46 20 79 59q27 32 44 71q16 39 21 87h-147v95h147v3q0 1 1 2q-6 48 -21 87q-16 40 -42 70
q-32 37 -78 56q-45 19 -104 19q1 26 1 78q0 -26 -1 -78zM293 340q0 6 1 13q1 6 2 13q-2 -6 -2 -13q-1 -6 -1 -13zM296 294q-1 5 -1 10q-1 5 -1 11q-1 -6 0 -11q0 -5 2 -10z" />
    <glyph glyph-name="zcaron" unicode="&#x17e;" horiz-adv-x="450" 
d="M44 496q-1 24 -2 71q56 0 99 -18t73 -54q3 -4 7 -9q3 -4 6 -9q2 3 5 6q2 3 5 6q30 36 73 54t99 18q-1 -24 -3 -71q-36 0 -62 -11q-25 -12 -41 -36q-13 -19 -21 -47q-7 -29 -10 -67q26 0 77 -1v-90h-77q3 -37 11 -66t22 -49q17 -26 42 -39q26 -13 60 -13q1 -24 3 -71
q-57 0 -100 18q-44 18 -74 54l-6 8q-4 5 -7 10q-2 -4 -4 -6q-3 -3 -5 -6q-30 -36 -73 -54q-44 -18 -100 -18q1 24 2 71q34 0 60 13t43 39q12 19 20 47q8 27 12 62h-76v90h77q-3 41 -11 71q-7 31 -20 50q-16 24 -42 36q-26 11 -62 11q-1 24 -2 71q1 -24 2 -71z" />
    <glyph glyph-name="uni018f" unicode="&#x18f;" horiz-adv-x="676" 
d="M49 191q0 45 16 80q15 34 45 60t78 45q47 18 125 33q80 15 118 30q39 16 58 38q21 23 21 55q0 111 -170 111q-78 0 -123 -30t-60 -94q-31 5 -94 16q26 96 89 138t186 42q130 0 197 -49t67 -139q0 -39 -12 -68q-13 -29 -36 -51q-24 -21 -64 -38q-41 -17 -134 -37
q-94 -20 -135 -39q-40 -18 -59 -44q-19 -25 -19 -64q0 -121 187 -121q64 0 107 16q42 16 68 49q25 32 40 95l93 -18q-26 -113 -101 -165t-203 -52q-138 0 -212 52q-73 52 -73 149z" />
    <glyph glyph-name="uni01c7" unicode="&#x1c7;" horiz-adv-x="860" 
d="M368 705h95v-495v-132h356v-78h-451v17q-24 -13 -52 -20t-60 -7q-90 0 -143 46t-70 139q31 5 94 16q4 -30 14 -52q10 -23 26 -39t36 -24q19 -8 43 -8q26 0 47 8q20 9 35 27q13 16 21 38q7 22 9 50v435v0v79v0z" />
    <glyph glyph-name="uni01c9" unicode="&#x1c9;" horiz-adv-x="266" 
d="M225 737v-86v-115v-541v-67q0 -38 -7 -66q-8 -27 -23 -45q-15 -17 -37 -26q-23 -8 -53 -8q-19 0 -35 1t-28 3v70q6 -1 15 -2q10 -1 16 -1q17 0 29 4q12 5 19 14t11 26q3 18 3 44v53v541v115v86h90z" />
    <glyph glyph-name="uni01ca" unicode="&#x1ca;" horiz-adv-x="656" 
d="M149 705q122 -132 366 -394v394h95v-495v-2q0 -51 -14 -90q-14 -40 -42 -69q-27 -30 -65 -44q-38 -15 -87 -15q-89 0 -142 46q-53 47 -70 139q31 5 93 16q5 -30 15 -52q10 -23 26 -39t35 -24q20 -8 44 -8q26 0 46 8q21 9 36 27q11 14 18 32t10 41l-393 426q0 -140 1 -296
q2 -156 2 -306h-85v705h111z" />
    <glyph glyph-name="uni01cc" unicode="&#x1cc;" horiz-adv-x="532" 
d="M444 507q21 -22 31 -59q10 -36 10 -87v-62v-87v-66q0 -39 -7 -66q-8 -28 -23 -46q-15 -17 -37 -25q-23 -9 -53 -9q-19 0 -35 1t-28 4v69q6 -1 15 -2q10 0 16 -1q17 0 29 5q12 4 19 13t11 26q3 18 3 44v53v131q0 27 -3 48q-2 20 -8 35q-5 15 -13 25q-9 11 -20 18
q-12 6 -29 9q-16 4 -39 4q-32 0 -58 -12q-25 -11 -44 -33t-28 -53q-10 -31 -10 -70v-314h-90v426v76q-1 29 -3 39h85q1 -1 1 -5v-9q1 -5 1 -11v-14q1 -7 1 -20q1 -14 1 -33q16 28 35 47q18 20 39 32q20 11 45 17q26 6 56 6q44 0 77 -11q32 -11 53 -33z" />
    <glyph glyph-name="uni0259" unicode="&#x259;" horiz-adv-x="512" 
d="M39 150q0 45 21 76q20 31 56 50q37 21 114 38q75 18 98 29q23 10 36 26q12 15 12 38q0 74 -107 74q-55 0 -88 -21t-43 -69q-27 3 -81 10q16 75 69 112q52 37 144 37q91 0 142 -40q51 -39 51 -112q0 -41 -19 -69q-19 -29 -53 -48q-35 -19 -107 -37q-82 -19 -106 -31
q-25 -12 -38 -28q-13 -17 -13 -42q0 -85 122 -85q124 0 153 104q26 -5 79 -15q-37 -157 -232 -157q-97 0 -153 42q-57 41 -57 118z" />
    <glyph glyph-name=".notdef_2" horiz-adv-x="553" 
d="M92 51h369v635h-369v-635zM41 737h471v-737h-471v737z" />
  </font>
</defs>
</svg>
