<?xml version="1.0" encoding="UTF-8"?>
<!-- Created with Inkscape (http://www.inkscape.org/) -->
<svg id="svg3217" width="1e3" height="1e3" version="1.1" viewBox="0 0 264.583 264.583" xmlns="http://www.w3.org/2000/svg" xmlns:xlink="http://www.w3.org/1999/xlink">
    <path id="path846" d="m264.583 132.292a132.292 132.292 0 0 1-132.292 132.292 132.292 132.292 0 0 1-132.292-132.292 132.292 132.292 0 0 1 132.292-132.292 132.292 132.292 0 0 1 132.292 132.292z" style="display:none;fill-rule:evenodd;fill:#fff;paint-order:markers fill stroke"/>
    <ellipse id="path1880" cx="132.292" cy="94.3617" rx="91.6981" ry="84.1314" style="fill:none;paint-order:markers fill stroke;stroke-width:.529167;stroke:#f00"/>
    <path id="path1880-8" d="m264.583 132.292c0 43.3632-25.2146 83.4324-66.1458 105.114s-91.3605 21.6816-132.292-1e-5c-40.9312-21.6816-66.1458-61.7508-66.1458-105.114" style="fill:none;paint-order:markers fill stroke;stroke-width:.529167;stroke:#000"/>
    <ellipse id="path1880-8-1" cx="132.292" cy="132.292" rx="132.292" ry="121.375" style="display:none;fill:none;paint-order:markers fill stroke;stroke-width:.529167;stroke:#000"/>
    <ellipse id="path1880-0" transform="scale(-1,1)" cx="-132.292" cy="94.3617" rx="52.4712" ry="48.1289" style="fill:none;paint-order:markers fill stroke;stroke-width:.529167;stroke:#000"/>
    <ellipse id="path1880-0-4" transform="matrix(0,-1,-1,0,0,0)" cx="-111.623" cy="-132.292" rx="111.358" ry="121.374" style="fill:none;paint-order:markers fill stroke;stroke-width:.529166;stroke:#000"/>
    <ellipse id="path4877" cx="132.292" cy="94.3617" rx="2.36504" ry="2.36503" style="fill-rule:evenodd;fill:#000006;paint-order:markers fill stroke;stroke-width:0"/>
    <ellipse id="path4877-3" cx="132.292" cy="132.292" rx="2.36504" ry="2.36503" style="fill-rule:evenodd;fill:#ff0006;paint-order:markers fill stroke;stroke-width:0"/>
    <ellipse id="path4877-1" transform="scale(1,-1)" cx="132.292" cy="-170.222" rx="2.36504" ry="2.36503" style="fill-rule:evenodd;fill:#000006;opacity:.3;paint-order:markers fill stroke"/>
    <text id="text5941" style="fill:#000000;font-family:'Latin Modern Roman';font-size:4.23333px;line-height:1.25;stroke-width:0" xml:space="preserve"><textPath id="textPath53224" startOffset="50%" xlink:href="#path958"><tspan id="tspan52216" dy="-0.80000001" style="text-align:center;text-anchor:middle">S. POVRATNIK</tspan></textPath></text>
    <path id="path958" d="m102.823 219.506s12.858 3.5004 29.4687 3.5004 29.4687-3.5004 29.4687-3.5004" style="fill:none"/>
    <text id="text5941-9" transform="translate(.629695)" style="fill:#000000;font-family:'Latin Modern Roman';font-size:4.23333px;line-height:1.25;stroke-width:0" xml:space="preserve"><textPath id="textPath1765-3" startOffset="50%" style="font-size:4.23333px" xlink:href="#path958-8"><tspan id="tspan25018-3" dy="-1.4" style="fill:#000000;font-size:4.23333px;stroke-width:0;text-align:center;text-anchor:middle">EKVATOR </tspan></textPath></text>
    <path id="path958-8" d="m102.823 250.35s12.858 3.5004 29.4687 3.5004 29.4687-3.5004 29.4687-3.5004" style="fill:none"/>
    <text id="text5941-9-0" style="fill:#000000;font-family:'Latin Modern Roman';font-size:4.23333px;line-height:1.25;stroke-width:0" xml:space="preserve"><textPath id="textPath65229" startOffset="50%" xlink:href="#path958-8-6"><tspan id="tspan63757"><tspan id="tspan25018-3-6" dy="-0.99000007" style="fill:#000000;font-size:4.23333px;stroke-width:0;text-align:center;text-anchor:middle">SLOVENIJA</tspan></tspan><tspan id="tspan63759"><tspan id="tspan63761" style="fill:#000000;font-size:4.23333px;stroke-width:0;text-align:center;text-anchor:middle"/></tspan></textPath></text>
    <path id="path958-8-6" d="m102.823 175.039s12.858 3.5004 29.4687 3.5004 29.4687-3.5004 29.4687-3.5004" style="fill:none"/>
    <text id="text5941-3" style="fill:#000000;font-family:'Latin Modern Roman';font-size:4.23333px;line-height:1.25;stroke-width:0" xml:space="preserve"><textPath id="textPath27516" startOffset="50%" xlink:href="#path20307"><tspan id="tspan21882" dy="-0.89000005" style="text-align:center;text-anchor:middle">S. TEČAJNIK</tspan></textPath></text>
    <path id="path20307" d="m103.457 54.3537s11.7001-8.10558 28.835-8.10558 28.835 8.10558 28.835 8.10558" style="fill:none"/>
</svg>
