<?xml version="2.0" encoding="UTF-8" standalone="no"?>
<svg
    version="2.1"
    id="svg5"
    display="flex"
    float="center"
    position="absolute"
    viewbox="0 0 1160 1160"
    xmlns:xlink="http://www.w3.org/1999/xlink"
    xmlns="http://www.w3.org/2000/svg"
    xmlns:svg="http://www.w3.org/2000/svg">
  <path
     d="M 544.8659706599585,505.081992688334 L 543.6995022223742,502.5946750485045 L 542.5330337847898,500.10735740867494 L 541.5463823383188,497.535950805896 L 540.3853431577124,495.04609424810303 L 539.2243039771062,492.55623769031007 L 538.2595691625318,489.97510346780336 L 537.3059080840952,487.3893554604752 L 536.3633362555253,484.7990297132644 L 535.0055798558676,482.39955780209567 L 534.0738995428036,479.80422539601705 L 533.1533347856468,477.20437511416634 L 532.24390083692,474.6000431162639 L 531.3456128442497,471.99126560702183 L 530.4584858502424,469.37807883585776 L 529.5825347923624,466.76051909660947 L 528.9706666585578,464.0270180851953 L 528.1228433631319,461.3989655512103 L 527.550864787649,458.65195872447816 L 526.7312686110022,456.0136696634234 L 526.1993292310923,453.253562486164 L 525.4080573785976,450.6052940137099 L 524.6280897788157,447.9529817487254 L 524.4477270248453,445.0529860747478 L 523.7020242551822,442.3894173696959 L 523.2738587113047,439.597873451315 L 522.8690016674395,436.8000216835924 L 522.487499806341,433.99601240897465 L 522.1293989421738,431.18599625627405 L 521.4640777272346,428.49746905728296 L 521.4835791087289,425.5485472353763 L 521.1959474104982,422.7214170141152 L 521.2813398080185,419.760399714866 L 521.0470922752188,416.92210049282266 L 520.8365133601271,414.07875553924237 L 521.017981265075,411.1014367912689 L 520.8610813936615,408.2481092894867 L 521.1090556617304,405.26135059647777 L 521.0060248630602,402.39887422334857 L 520.9268690931378,399.53222160468994 L 521.2717454729557,396.5329849698169 L 521.2467130199343,393.65838039226946 L 521.6586170207099,390.6523826358309 L 521.6878692284444,387.7706666243431 L 522.593072352254,384.6333071010466 L 522.6830590587839,381.7455121725052 L 522.7971680315267,378.85483326941227 L 523.3807044968264,375.8374160674478 L 524.0013196494652,372.8191342990186 L 524.659049060381,369.8003442668374 L 525.3539252235655,366.78140269733456 L 526.085977552074,363.7626667156351 L 526.3770179180624,360.86095941465646 L 527.1769139371626,357.84195516769387 L 528.0140585400936,354.82414876446705 L 528.8884695621916,351.80789863594305 L 529.8001617414474,348.79356349295085 L 530.7491467156387,345.78150230098424 L 531.735433019661,342.7720742549794 L 532.759026083054,339.7656387540684 L 533.8199282277276,336.7625553763106 L 534.9181386658838,333.7631838534031 L 536.0536534981384,330.76788404537194 L 537.2264657118387,327.7770159152455 L 538.9934434498291,324.70086957968886 L 539.6839386579301,321.8100149037593 L 540.9685697863237,318.8346022353092 L 542.8667814141716,315.78342077972167 L 543.649523960281,312.9017531549426 L 545.0457986921301,309.9450368890256 L 547.0749176672174,306.92279159080607 L 548.5518984170035,303.98355481863587 L 550.0659563326484,301.05207074918144 L 551.6170524356118,298.1286988955109 L 553.2051446290964,295.21379858755614 L 554.8301876988082,292.30772894669155 L 557.1261559378053,289.3602542424188 L 558.8312477853083,286.47663540643646 L 560.5731144715301,283.60300335011596 L 563.0046236842974,280.70192557357717 L 564.8260806274398,277.8533074734465 L 566.0187634780599,275.0456051851744 L 568.5786237625689,272.18984566877106 L 570.5095697409474,269.37571484766767 L 572.4768666827624,266.57379193559365 L 574.4804367333513,263.7844322351545 L 577.2161392800242,261.0011579499682 L 579.2980329675892,258.2425239693092 L 581.415917837127,255.49759455293088 L 583.5697029087555,252.76672264940157 L 586.4791185120074,250.06361064091863 L 588.7103076347518,247.36677142571563 L 590.9770725115255,244.6851224653468 L 593.2793091105948,242.01901389572032 L 595.6169103411015,239.36879513664366 L 597.9897660580141,236.73481486677946 L 600.3977630672746,234.1174209986363 L 603.6010022240142,231.5676208049303 L 606.0845597907543,228.98985243146677 L 608.6028622927548,226.42978519453402 L 611.1557836437507,223.8877634184123 L 614.5255359078345,221.4386001925701 L 617.1527632344461,218.93942446600954 L 619.8141713744327,216.45939630726593 L 622.5096214642566,213.9988560012286 L 626.0426787911802,211.65771570396083 L 628.0020770987414,209.13759504977975 L 630.7987899976179,206.73754986349098 L 633.6289595697559,204.35834339920535 L 636.4924320778886,202.00031068431355 L 640.218673740212,199.79425746101452 L 643.153321992979,197.48596971478537 L 646.1207458434709,195.19992551281865 L 649.1207790774858,192.93645487630414 L 652.1532525657371,190.69588659857936 L 655.2179942728377,188.47854822111407 L 658.3148292664744,186.28476600956031 L 662.3070726036893,184.29348925293414 L 665.4722314908119,182.15469315759742 L 667.7961013875284,179.84799938854803 L 671.0195025973289,177.75167814632437 L 675.1559425170199,175.88716060839846 L 678.4459577597685,173.84866536744875 L 680.8759879889454,171.61499056502407 L 684.2229272572209,169.62124229668962 L 688.4995994660479,167.88965372436581 L 691.0077728610042,165.71335164766663 L 694.4452697015502,163.7998321436205 L 697.9125382765536,161.9136758570035 L 700.4929012571454,159.79131577553488 L 704.935541192286,158.2246814640245 L 707.5664360488036,156.14313831628652 L 711.1467693927136,154.36167877039532 L 713.8231093065194,152.3160668777778 L 718.3934582987181,150.8855253608312 L 721.1191460552817,148.88252938898154 L 724.8094767088294,147.21009449765427 L 727.5795698941329,145.24460648015923 L 732.2736024219225,143.95536783397012 L 735.0918022901521,142.0342610617879 L 737.9296485349614,140.1294952873248 L 741.7504367683816,138.59303926606378 L 744.6313840003062,136.72764021071185 L 747.5316711431977,134.8790273620104 L 752.3997764907633,133.7953198960438 L 755.346356974826,131.99351820065476 L 758.3119242750905,130.208983801332 L 761.2963835927569,128.44184800142932 L 764.2996393450404,126.69224160484606 L 767.3215951677279,124.9602949116873 L 770.3621539177587,123.24613771393649 L 774.420939538399,121.97296962278574 L 777.5020635294032,120.30149672440291 L 780.6014546747008,118.64823950163759 L 783.7190124637107,117.01332545199836 L 786.8546356214069,115.39688154176298 L 790.008222111045,113.79903420173702 L 793.1796691369107,112.21990932302543 L 796.3688731470907,110.65963225281791 L 798.5479036539864,108.64040885467807 L 800.736769016873,106.62847123239584 L 803.9720262911173,105.11135329879448 L 806.1848490335047,103.11890992353142 L 809.4516052925321,101.6333202374941 L 812.7356093393108,100.16720631808448 L 814.9862037403427,98.20688375303985 L 817.2464536622095,96.25410916949681 L 819.5163368570592,94.30891535460569 L 821.7958309799637,92.37133503431232 L 825.152383042544,90.97507618787671 L 826.3835621458111,88.51914547367357 L 828.6917540149695,86.60460137679149 L 832.0894500202121,85.24659706331624 L 833.3366766678482,82.79877694191958 L 835.6733616997147,80.9075613729641 L 836.9259256900132,78.4624681012267 L 839.2773939118327,76.58183185978021 L 840.5352892830332,74.13947707547874 L 841.7931846542336,71.69712229117732 L 844.1647263698254,69.829870965618 L 845.427947134792,67.39026629349485 L 846.6911678997587,64.95066162137175 L 849.0827358225697,63.096873808339524"
     id="sonvzhod" />
  <path
     d="M 544.5394146736978,654.7639935098024 L 543.3621044039003,657.2461978095967 L 542.1847941341027,659.7284021093908 L 541.0074838643052,662.2106064091851 L 540.0150400949512,664.7802460519314 L 539.0336284720366,667.3545955108137 L 537.6712558097784,669.7497798181641 L 536.700691596868,672.3292307904728 L 535.7411864352871,674.9133319830689 L 534.7927559700511,677.5020474069638 L 533.8554157417537,680.095341027094 L 532.7052516276399,682.5902398562839 L 531.7844628300818,685.1905789212303 L 530.8748004853378,687.795412088452 L 529.9762797940388,690.4047031745117 L 529.0889158518678,693.0184159510941 L 528.465126432264,695.7492211716394 L 527.6058442014825,698.3735493732017 L 526.7577727582351,701.0021658660104 L 526.1907849845932,703.7527221258167 L 525.370933980818,706.3916007632824 L 525.1258920649129,709.2752970013428 L 524.340139878179,711.9259013303099 L 523.8594402836367,714.7033375784792 L 523.1021226384652,717.3636271964583 L 522.9676840293139,720.2780352725179 L 522.5567239881124,723.0749971214983 L 521.8509867292256,725.7516529122096 L 521.8048751291863,728.6873956268727 L 521.4640777272344,731.502530942717 L 521.1467578365811,734.3234222724507 L 521.1959474104981,737.2785829858847 L 520.9318912482036,740.1111148008372 L 520.3360941513542,742.8191173534716 L 520.4746704440291,745.7917749951606 L 520.2815860623539,748.6395986261612 L 520.8610813936614,751.7518907105132 L 520.7279755188235,754.6097535486579 L 521.0060248630602,757.6011257766514 L 520.9268690931378,760.46777839531 L 521.2717454729558,763.4670150301832 L 521.2467130199343,766.3416196077305 L 522.0718479543854,769.4744478023465 L 522.1073870165806,772.3560931374946 L 522.5930723522541,775.3666928989534 L 523.1157193160082,778.3790620848531 L 523.2361344952487,781.2694851616803 L 523.8262525497481,784.2856221046587 L 524.453451089536,787.3025427189616 L 525.1177649081338,790.3198906251203 L 525.8192257212008,793.3373090266625 L 526.5578621625962,796.354440735144 L 527.3336997806402,799.3709281952121 L 528.1467610345683,802.3864135097032 L 528.997065291185,805.4005384647695 L 529.8846288217113,808.4129445550348 L 530.8094647988311,811.4232730087784 L 532.2831471252026,814.5358249081502 L 532.770991274557,817.4362607393755 L 534.3323568980812,820.5384050694984 L 535.4128913144145,823.5344805874814 L 536.5307089312893,826.5266001496494 L 537.6858034941428,829.5144039292052 L 539.4291272210805,832.5866449717316 L 540.66523871375,835.5620477066639 L 541.9385778402776,838.5319735532028 L 543.2491250981277,841.4960625479114 L 544.5968578668619,844.4539547530144 L 546.5652187463692,847.4788701533997 L 547.9936625384045,850.4201798169569 L 549.4591893064443,853.354132365617 L 550.9617631713596,856.2803682957137 L 553.1105267929522,859.2578565309238 L 554.6934190211048,862.164134960379 L 556.3132127303004,865.0615387913926 L 558.5981195347792,867.9970864221372 L 560.2978417557239,870.8719641298048 L 562.034286936885,873.7368121070066 L 563.8073958321393,876.5912727554044 L 565.617106087228,879.4349888275765 L 568.1228271665146,882.2942348099682 L 570.0116909803412,885.1112773636642 L 571.9369246036298,887.9164265831305 L 574.5763290764131,890.72189911014 L 576.5801335128679,893.4978308533437 L 578.6200435031316,896.2607256609092 L 581.391943610288,899.0079522562959 L 583.5097683401063,901.7390987516965 L 586.3712410809047,904.4429429828064 L 588.5664782484446,907.1406059095834 L 590.7972973311861,909.8233138672007 L 593.7889463900107,912.4614250831178 L 596.09639850282,915.1081454877532 L 598.4390808837126,917.7387856238013 L 601.5593660425112,920.3067724144039 L 603.9778296562224,922.8989394739265 L 606.4311397374682,925.4739093578004 L 608.9191740081083,928.0313370261413 L 611.4418071665636,930.5708783080271 L 613.9989108939872,933.0921899262917 L 617.3660539571072,935.5142555640653 L 619.9971144440573,937.992347540748 L 622.662200417938,940.4511113540793 L 626.1527658553891,942.7903815971529 L 628.8907477645846,945.2035050604848 L 631.6622785761649,947.5962127702225 L 635.2742226455015,949.8484596725938 L 638.1175182004272,952.1931324263721 L 640.9938548384627,954.5163135969759 L 643.9030722741513,956.8176712400241 L 647.6719086384663,958.9501393427352 L 649.8194937606506,961.3535941023678 L 652.8263626306626,963.5875014416195 L 656.7069419971107,965.6318388222812 L 659.7828215757361,967.8124365572816 L 662.8905070644869,969.9691753255215 L 666.8850450237244,971.9131114295733 L 670.0603870687276,974.0142427999751 L 672.4025716501412,976.2930169520841 L 676.504478182597,978.1415134131346 L 679.7728433170932,980.1670176608588 L 683.0718275114175,982.1666802843087 L 686.4012317610568,984.1401874384316 L 689.7608542661787,986.0872267810328 L 693.1504904428051,988.0074874959147 L 697.4639193250905,989.6453688844836 L 700.0189716223031,991.7664375459649 L 703.4973936396807,993.6045130858038 L 707.9109744410057,995.1365121689187 L 710.5415225162664,997.1963428053457 L 714.106790001003,998.9494929639609 L 716.7824674002513,1000.9731480919647 L 721.3226123527295,1002.3687664341458 L 724.0472680776146,1004.3495679209935 L 727.7216073342448,1005.9933196322638 L 731.4235950458249,1007.6070412339025 L 735.1529947915183,1009.1904414786488 L 737.9694541417247,1011.0888924605857 L 741.7496289487411,1012.6190342209906 L 745.5565587937026,1014.1180501449912 L 749.3899974528113,1015.585655830741 L 752.295851420499,1017.3985006403409 L 755.2207311653655,1019.1942314294383 L 759.1261709151884,1020.582972902364 L 763.0572506687073,1021.9392972551243 L 766.0462186863737,1023.6698740629931 L 769.0537537075023,1025.3827329396809 L 772.0797578098388,1027.0777448944311 L 776.1026982206906,1028.328019015671 L 780.150185460817,1029.5446768487436 L 783.2381311338999,1031.1719211239154 L 786.3440662359835,1032.7807290691194 L 789.4678884624079,1034.3709747720434 L 792.6094947526285,1035.9425328630532 L 795.7687812930124,1037.4952785193907 L 797.943677144922,1039.5056599779089 L 801.1346974784905,1041.0273738473365 L 804.3431239417464,1042.5299420655267 L 807.5688500047668,1044.0132418062117 L 810.8117683975908,1045.4771508091608 L 813.052550078123,1047.4311011752118 L 816.3264122282269,1048.8630100679575 L 819.6171835438512,1050.2752017227174 L 821.8951578064322,1052.1964126379246 L 825.2164148953257,1053.5760589525357 L 827.5175533363183,1055.4767960706995 L 830.8690102367052,1056.8235589539886 L 832.1481710068291,1059.2548436722936 L 835.5266648877489,1060.575761256073 L 837.8695555955842,1062.4400059259463 L 839.1646015758754,1064.862866542288 L 842.5833465056801,1066.1446225512268 L 844.954199515583,1067.9849308000998 L 846.2650752305819,1070.3992635271932 L 848.650465791035,1072.2286637405168 L 849.9666056391195,1074.6401308370312 L 852.3664973891871,1076.4585683693174 L 854.7756022194055,1078.2688772542663 L 857.1938960595262,1080.0710259611294 L 857.4289008117137,1083.0802800859988 L 858.7555501078677,1085.4859815018654 L 861.1895797428756,1087.2794301408494 L 862.5214743039919,1089.6822315340896"
     id="sonzahod" />
  <path
     style="stroke:red"
     d="M 583.2486418974262,497.3165423857951 L 583.3564985341269,494.5714076708481 L 583.4643551708277,491.826272955901 L 583.5722118075284,489.08113824095403 L 583.6800684442292,486.33600352600695 L 583.7879250809299,483.5908688110599 L 584.1120933256867,480.85446933617726 L 584.4482188434101,478.1190385024215 L 584.568052325183,475.3744005310428 L 584.6878858069559,472.6297625596641 L 585.0479410480583,469.89587545022675 L 585.4199468263672,467.1630613948869 L 585.8039001450439,464.431359523988 L 585.9416945454486,461.6875646408919 L 586.3435779929634,458.95732122700053 L 586.7574019612825,456.22828129186234 L 587.1831630835796,453.50048393927216 L 587.6208578792418,450.7739682640005 L 588.0704827538937,448.04877335148285 L 588.5320339994212,445.32493827750955 L 589.0055077939966,442.60250210791537 L 589.4909002021052,439.88150389826967 L 590.299807369583,437.1841134931242 L 590.8149532944495,434.4672257349322 L 591.3420019234998,431.7519190101161 L 591.8809487816451,429.038232320412 L 592.7670236417168,426.35369230721324 L 593.6767473234787,423.6740627609877 L 594.6100936173543,420.999498926815 L 595.2142897572784,418.29657868321476 L 596.1889848258604,415.63047866062504 L 596.8227866091487,412.9327586936931 L 597.8387586213919,410.2755490651727 L 598.8782339029011,407.62407673463514 L 599.9411815021929,404.978496192355 L 601.0275695671825,402.338961766745 L 602.137365346012,399.705627619439 L 603.2705351879035,397.07864774037785 L 604.0221972668694,394.40532599758296 L 605.6068579684609,391.8443658588426 L 606.8099391190103,389.23737093362934 L 608.0362507582765,386.6373444213875 L 609.2857547545811,384.04443938005096 L 610.991488701978,381.5259492195425 L 612.2928811251451,378.9505785512807 L 613.6173295642899,376.3828376202854 L 614.9647919889909,373.8228785595843 L 616.790515004598,371.35062112005085 L 618.1894224516938,368.8097271974499 L 620.0773707972954,366.36404686659716 L 621.5274648645242,363.8430353050968 L 623.4772717635943,361.42499465299437 L 624.9782823470886,358.92467927620186 L 626.9895652547763,356.5353359878077 L 628.5412105928104,354.0565270619571 L 630.6135712593718,351.6969337196464 L 632.7188725826456,349.3549035485736 L 634.3485825152599,346.91164166307334 L 637.0277267801131,344.7248513816697 L 638.7125656320195,342.3088294093192 L 640.9432273839914,340.03546817919585 L 642.6775438720899,337.6439203537001 L 645.5011275682534,335.54646396222813 L 647.2897436547435,333.18407803588167 L 649.6436425221913,330.9840432227071 L 652.5770423632652,328.96210220778346 L 654.4462207973737,326.64535184231784 L 656.8945647285241,324.5073336226276 L 659.93587729836,322.5644039831342 L 662.4508942494396,320.4748002073622 L 664.4257436319015,318.2223909281405 L 667.572970725886,316.3619225112302 L 670.1796653757112,314.3392724614281 L 672.8165497703347,312.3395617811416 L 676.0714633334929,310.5720528188696 L 678.180127693742,308.4101901743586 L 680.9064343325921,306.481141296445 L 684.262791182185,304.8030668638309 L 687.0518253743471,302.928727240755 L 689.8698182971301,301.0792169829711 L 693.3287858982425,299.5014119096302 L 696.207992714593,297.70873141238667 L 699.7349101469413,296.20237802850454 L 702.6742445994184,294.4679623844963 L 705.641364927831,292.7599734444848 L 709.2660722783341,291.3600280050758 L 712.291701475941,289.7123550159775 L 715.9809088326119,288.3879999512845 L 719.0638890684863,286.8020281083048 L 722.8161229368366,285.55490220796537 L 725.9552677722704,284.03199529421283 L 730.4169136069349,283.191162005226 L 733.6141827309966,281.73963374110406 L 737.4902740176586,280.660225482281 L 740.741107073744,279.27454029967635 L 744.6754177923493,278.27723688412 L 747.9785420479891,276.95868828455883 L 752.6321758168535,276.4209130222344 L 755.989010989011,275.17809139323555 L 760.036685234852,274.35835935107195 L 763.4430336328232,273.1852980882699 L 768.2143181471297,272.86214738981164 L 772.3432230507996,272.18649872476095 L 775.8247630361943,271.13174174524096 L 780.0038873420374,270.54507537685333 L 784.2080500285249,270.0080017577237 L 788.436702277366,269.5209122098698 L 792.6892903560332,269.0841922401195 L 796.9652556775764,268.69822148422 L 801.2640348610377,268.3633736515493 L 805.58505979246,268.0800164704358 L 809.9277576864858,267.8485116340919 L 814.2915511485364,267.6692147471691 L 818.675858237569,267.5424752729392 L 823.0800925294034,267.46863648110775 L 828.1849562331081,267.9887480153233 L 831.9459749929695,267.4810027469919 L 837.0874389210567,268.1279980549413 L 841.5651119416764,268.2788381462005 L 846.0595960631786,268.48423738934997 L 851.248688373878,269.3355325393421 L 855.7742538932772,269.66082869374833 L 860.314659662735,270.0416079516385 L 865.5438740549562,271.10037734947207 L 870.1109957942265,271.60292890583645 L 874.0186488805923,271.5196364399397 L 879.2830950287997,272.777309320173 L 883.8867953475872,273.44965324744345 L 888.5014054767964,274.17909826654477 L 893.7910136180835,275.6497456489379 L 898.423645005395,276.50421571196216 L 903.7244736397823,278.12204457892926 L 909.0276575766782,279.81962727235816 L 913.680276176715,280.86851632436066 L 918.9888714380488,282.7147385323536 L 923.6514566524568,283.89096064108594 L 928.3191700007519,285.1260563233814 L 933.6309890403999,287.1910089579941 L 938.3039713307342,288.55457566813226 L 942.9799232612878,289.97753374862253 L 947.65816299008,291.4600374483287 L 953.586721850857,294.629591520313 L 958.2604472116327,296.2520279785669 L 962.9341387890165,297.9344287791637 L 967.6071048541801,299.67691542204443 L 972.8853547799814,302.33608329857054 L 977.5507107427854,304.2092587130195 L 982.213121882988,306.14283298530074 L 987.4640328376465,309.0251989065542 L 992.1139592826327,311.08998198759247 L 996.7587036730151,313.21539911338084 L 1001.973821911681,316.3214913793459 L 1006.6011723411189,318.5784653679434 L 1011.2210881993703,320.89623000678813 L 1015.8328599464114,323.27482585625046 L 1020.9894935520663,326.67577191299745 L 1025.57737765437,329.18613597304835 L 1029.6121967030872,330.77588972391595 L 1034.1842726207938,333.3980604944024 L 1038.7446394546162,336.0811484778361 L 1043.2925813292404,338.8251473949323 L 1047.8273816013211,341.6300431037852 L 1051.3162489234824,342.4370535930989 L 1055.8353402329471,345.34397842007274 L 1059.8327936819155,347.2643906606891 L 1064.3277029758515,350.2832201571026 L 1068.3106681143622,352.29699589948905 L 1072.2879135079042,354.3531175941535 L 1076.2590551469582,356.45159593466457 L 1079.7394822137217,357.5016473372161 L 1083.7020164238497,359.67621845988856 L 1087.1803420892134,360.78615806508617 L 1090.6585234842782,361.9222777957854 L 1094.1363982772937,363.08459731495986 L 1098.0832147697906,365.40290600449964 L 1101.5573301760528,366.62526266117845 L 1104.1000238684087,365.58501920691344 L 1107.5778020820687,366.84473179037445 L 1110.5910263885644,366.97265496090466 L 1114.0693692224927,368.27736994999486 L 1116.6232587080633,367.264924320452 L 1119.177148193634,366.25247869090913 L 1122.198281649305,366.4224169979177"
     id="astsonvzhod" />
  <path
     style="stroke:red"
     d="M 582.7074142159117,662.7029488318356 L 582.7973018060815,665.4487306655618 L 583.079592950781,668.1880037468499 L 583.1754706889749,670.9335829419573 L 583.2713484271686,673.6791621370646 L 583.5775841371618,676.4171657163107 L 583.6794515670354,679.1625292048161 L 583.781318996909,681.9078926933216 L 584.1114949910321,684.6445353337812 L 584.4536293161923,687.3802092903861 L 584.8077192887287,690.1148754117146 L 584.6813199765293,692.8699950414283 L 585.0473862522746,695.6041513544722 L 585.1672197340474,698.3487893258508 L 585.551225300108,701.0816045647058 L 585.9471790079203,703.8132945005522 L 586.6311381921004,706.529654238684 L 587.0569321900628,709.2580537572572 L 587.4946619163454,711.9851845802737 L 587.9443238333691,714.7110076161352 L 588.4059142897995,717.4354837827032 L 589.1851867204531,720.1388685603225 L 589.6765594392356,722.8594682476953 L 590.1798458387033,725.578577884071 L 591.0185480477335,728.2724725757807 L 591.5515732820271,730.9873286061049 L 592.4317892802773,733.6737953445071 L 592.9945187172996,736.384125007341 L 594.2631738410918,739.0319969346124 L 594.8614716906054,741.7362288961923 L 595.8303479162525,744.4044490270187 L 596.8227866091486,747.0672413063069 L 597.4684351508007,749.7629651239138 L 598.5021233478576,752.4166989258879 L 599.9411815021928,755.0215038076451 L 601.0275695671825,757.661038233255 L 601.7439716724291,760.3422395127437 L 602.8714076410894,762.9716853311882 L 604.4270445440382,765.5418240570988 L 605.6068579684609,768.1556341411574 L 606.8099391190104,770.7626290663707 L 608.0362507582765,773.3626555786125 L 609.7131934355981,775.8912027256015 L 610.9914887019781,778.4740507804574 L 612.2928811251452,781.0494214487193 L 614.061472945753,783.543336229332 L 615.8640736976546,786.0225965812938 L 617.2456294190588,788.5686179425617 L 618.6500769032172,791.1064538780964 L 620.543356398382,793.5480095275889 L 622.4702292440049,795.9737098633757 L 623.9540246053537,798.4796325597445 L 625.9424741858006,800.8769620891044 L 627.9641633912793,803.2575067832872 L 629.5266097687693,805.7295218041534 L 632.1067166074639,807.966913724401 L 633.7247466278029,810.4128721301208 L 635.8729673052924,812.7276578710043 L 638.0537621576925,815.0240793587387 L 640.266982073472,817.30180954139 L 641.9896867180942,819.6963333815249 L 644.790086235554,821.799893657857 L 647.0996578723702,824.0195994331064 L 648.903697319023,826.3702283797442 L 651.8140372921628,828.3987272939803 L 654.2185153522997,830.5575087380839 L 656.6542944442277,832.6953436004943 L 659.1212026418336,834.8119148507747 L 661.6190652114102,836.9069068165218 L 664.7125106407433,838.795807212719 L 667.2762148331807,840.8411108770458 L 669.8702832574281,842.8638303208737 L 672.4945293797686,844.8636559409647 L 675.1487639161526,846.8402796131211 L 678.4189777718788,848.5793171553147 L 681.1368129615253,850.5026937741527 L 684.4780406751299,852.174601263415 L 687.2584613930069,854.0432522290193 L 690.6694048896167,855.6462702918103 L 693.5113657293887,857.4587357098815 L 696.3817476650213,859.2456990614107 L 699.8931154330711,860.745968383005 L 702.8234769447762,862.4746580770884 L 706.4012336943257,863.9018191443159 L 709.3904567068063,865.5708233516609 L 713.0331782394612,866.9232029010652 L 716.0801155971355,868.5311304674758 L 719.7863421626519,869.80708183918 L 722.8898180021425,871.3525628436621 L 727.2959513636793,872.2298124701501 L 730.4579865146468,873.7046038010953 L 734.2891346763879,874.8145130953624 L 737.505129800585,876.2240660437697 L 741.3950180306675,877.2526453597285 L 745.9650083732988,877.8743386243848 L 749.2638347256752,879.1728150439567 L 753.241758241758,880.0635272672897 L 756.5911134720038,881.2933932568596 L 760.6234358210675,882.0988288420755 L 765.3434469124268,882.4530165423087 L 768.7697492489723,883.5664501654902 L 772.8826842646167,884.2278096631912 L 777.6860145774322,884.4097676839272 L 781.1854323549235,885.4036027679974 L 785.3741588997966,885.9172440083182 L 789.5870544990313,886.3808630726012 L 793.8235635884139,886.7940782766287 L 798.08312579173,887.1565138362532 L 802.3651759815483,887.467799922234 L 807.3399617935347,887.2323254095254 L 811.665717154025,887.4307902962271 L 815.3405332202747,888.0911535039326 L 820.3785958057214,887.6705722598552 L 824.7645461416926,887.7112071668064 L 829.8400818148275,887.1542252449763 L 834.2630491863085,887.0783217421184 L 838.7035846697861,886.9484537152558 L 843.161081843533,886.7643099370396 L 847.6349302020967,886.5255856666179 L 852.1245152234351,886.2319826971165 L 857.2958932200338,885.2789705997893 L 861.8141996289512,884.8648835876943 L 867.0096590526633,883.7695982706543 L 871.5536729477685,883.2337987009641 L 876.1100473881509,882.6416745525364 L 881.3362744441133,881.3362744441133 L 885.913901433931,880.6207536881668 L 890.501839091233,879.8481405673563 L 895.7510444291077,878.330050548298 L 900.355705663182,877.4325123453473 L 905.6146334428338,875.7675088088987 L 910.8751143519276,874.0229472424882 L 915.4977582248989,872.9312374045638 L 920.762145902959,871.0383671528009 L 925.3934450678205,869.8195123674584 L 930.0292615631328,868.5418564073198 L 935.2946607149582,866.4307785781009 L 939.9344289179703,865.0248910608045 L 945.1943163126784,862.7636514269 L 950.4474422143961,860.4213761076594 L 955.0852714045616,858.8169183853922 L 959.7231409810008,857.1527466626587 L 964.9603379656307,854.5895404861733 L 970.1865327009256,851.9448672379237 L 974.8122844745508,850.0806537105636 L 979.4350415354656,848.1562981399672 L 984.0541054649918,846.1717123373579 L 989.2440383962996,843.2346109030199 L 994.4176984511938,840.215779871949 L 999.0119817625423,838.029983456318 L 1003.5994975807928,835.7837094240849 L 1008.179539307728,833.4769109906958 L 1012.7513990268642,831.1095491065372 L 1017.8558654959188,827.7269294674367 L 1022.4037925233667,825.2284265927354 L 1026.941274439514,822.6693123606005 L 1031.4675988541303,820.0495804003021 L 1035.9820524843649,817.3692321663173 L 1040.483921237131,814.628276953307 L 1044.9724902916896,811.8267319102391 L 1049.447044182411,808.9646220536799 L 1053.4125923581719,807.0753459170915 L 1057.8634649640526,804.1019162287105 L 1062.2983048734093,801.0680089804034 L 1066.2396920307265,799.0350100805723 L 1070.6471862796334,795.8899289154858 L 1074.1039060121168,794.8424928506026 L 1078.0259655116806,792.6829635904157 L 1082.3988185438316,789.3856869541767 L 1085.848068764989,788.2373605951205 L 1089.7473433403998,785.9512952593197 L 1093.192794707696,784.743164373567 L 1096.6373594519969,783.5088679821839 L 1100.5208742402688,781.1132701631279 L 1103.9603618471829,779.819091656638 L 1106.9641049747106,779.6488398738776 L 1110.403493538131,778.3097401791249 L 1112.9767687833191,779.2718483693982 L 1116.4186286598554,777.8952799971646 L 1119.4286093307664,777.6697717216222 L 1122.008126399104,778.6150173782864 L 1125.0217200558268,778.3716831288878 L 1127.6032931898542,779.311298907255"
     id="astsonzahod" />
  <path
     style="stroke:red"
     d="M 570.0948513797102,497.8477275540859 L 569.7659951838175,495.1202284688962 L 569.4371389879248,492.39272938370647 L 569.108282792032,489.66523029851675 L 568.7794265961393,486.937731213327 L 568.6595785749471,484.1852631641291 L 568.3366736368762,481.4570531175496 L 568.0137686988052,478.72884307097013 L 567.9177842960225,475.974026176311 L 567.8337644983502,473.21832144486785 L 567.7617126945121,470.46176797334647 L 567.4566706380442,467.73150296769705 L 567.4025473385584,464.97348086284586 L 567.3603998929084,462.2147012407433 L 567.06727373087,459.4831312324117 L 567.043065212537,456.72300022248214 L 567.305842303437,453.93420862161526 L 567.3116273287668,451.1727903274892 L 567.329402166832,448.41081025981146 L 567.3591692679718,445.6483075933611 L 567.4009309686546,442.8853215108735 L 567.4546894914554,440.1218912027291 L 567.8316728443635,437.3311691895222 L 567.9154615850322,434.56714425087614 L 568.011253815955,431.8028188873001 L 568.7778571989825,428.98782911350645 L 568.9097239144091,426.22356963227423 L 569.3951443751126,423.4356710224797 L 569.5570607943519,420.671536762012 L 570.0846437986244,417.8853591134594 L 570.27661341893,415.1216250431178 L 571.2121603143717,412.31802976868255 L 571.440211846863,409.555461862064 L 572.0581745026561,406.7753653643647 L 572.7002374295948,403.9974688215859 L 573.7564416888273,401.2078828146057 L 574.0566325379784,398.4489051540184 L 574.7709466532149,395.67855273594256 L 575.5093249073763,392.9110296762411 L 576.6859606237774,390.1388112933798 L 577.4784548311465,387.37914107283143 L 578.29496921801,384.6228242628465 L 579.1354893801761,381.870017940716 L 580.4382499095789,379.1213571775605 L 581.3327219839015,376.3779877116889 L 582.2511423984697,373.6386518252438 L 583.1934927550244,370.9035062744644 L 584.6218789391905,368.182287009883 L 586.0860197772773,365.47092580053385 L 587.1119061342279,362.7537413155768 L 588.641473732463,360.0598066384431 L 589.7208920414178,357.3549677617574 L 591.31567616123,354.6795642001401 L 592.4484763081074,351.9879153585904 L 594.1082504001984,349.3321449361334 L 595.8033142645381,346.6884509354599 L 597.0187914556502,344.0194906758991 L 599.2989572718773,341.43868406248305 L 600.573157884779,338.78784783155595 L 602.4028138881386,336.1919364135883 L 604.2673205673077,333.60975942940007 L 606.1665757498588,331.04166179682124 L 607.5516937125357,328.4272805575822 L 609.5145835874707,325.88408493017005 L 612.0717653036255,323.42528272688565 L 613.5436201412892,320.8431387094846 L 615.6095368623909,318.34607127245295 L 618.2857237576466,315.94795964855393 L 619.8435698352677,313.40044913991403 L 622.0114381857229,310.95257230088964 L 624.2130375501513,308.521768626345 L 626.4482365465943,306.10837467085076 L 628.7169008333707,303.7127259955861 L 631.0188931164844,301.3351571440181 L 633.9670449537477,299.09307084331857 L 636.3403699185038,296.75783330772646 L 638.1234208800905,294.314259191312 L 641.1854404406548,292.1451346411943 L 643.6568835972342,289.8683321746903 L 646.1607255756763,287.6116647970085 L 649.3394149680665,285.5260331272951 L 651.9124035384267,283.31622203280904 L 654.5172608094362,281.1275911261958 L 657.8104012599956,279.1295025286496 L 660.4831637283955,276.99002360844656 L 663.1872346384672,274.8727562660083 L 665.9224369918918,272.7780184766335 L 669.3631539275191,270.9003512465896 L 672.1645398802949,268.85772779496983 L 675.6794435894847,267.0466414002287 L 678.546051311299,265.0576627841998 L 681.4427579622876,263.0929141406761 L 685.0647363950426,261.3811612863373 L 688.0252244774696,259.4722509749455 L 691.0151629978634,257.5885560346506 L 694.7415226025535,255.9799358091941 L 697.7937376782226,254.15423501512663 L 700.874726087063,252.3547180701479 L 704.7026587589763,250.85295861271481 L 707.844355275025,249.11355217652869 L 711.7394253161184,247.68790013757285 L 714.9407047491604,246.01003568462318 L 718.1695464133553,244.35994955187653 L 722.1611776557332,243.04727580408962 L 725.4479286215877,241.46077718359828 L 729.5031119058037,240.22833225653932 L 732.8465753867864,238.70680170301353 L 737.7105033272861,237.8994725414969 L 741.1126205991541,236.45168758674293 L 745.2926021556393,235.39368015451623 L 748.7488051870482,234.01367646307887 L 752.9874598518029,233.04083211736878 L 756.4964643478995,231.7299202789194 L 760.7921558820267,230.84377932574233 L 764.3526501902611,229.60324639787473 L 768.7037090710562,228.80531887811662 L 772.3143546021266,227.6364278573178 L 776.7190785681573,226.9281928905936 L 780.3785102267186,225.83218219061013 L 784.835164835165,225.21508732874867 L 789.3177446364311,224.64898471021473 L 793.8256974736468,224.1342788953209 L 797.5805585943069,223.19583278101965 L 802.1366738779791,222.77517023255558 L 805.9359043761375,221.91326406314192 L 810.5383516445144,221.58798985978973 L 815.1635686611235,221.3159487611203 L 819.0274014585797,220.57518055551867 L 823.6960429532782,220.40052868901984 L 827.6004407128555,219.73912325951886 L 831.5238686583662,219.11351885355708 L 836.2540346234214,219.082136017378 L 840.2158126185188,218.5374341863523 L 844.9846973655702,218.6064729447479 L 848.9832626699422,218.14369419870303 L 853.7888932290487,218.3143232116775 L 858.6119036324285,218.54143528790365 L 862.6630377923736,218.20781004737535 L 866.7304014189948,217.91182270410962 L 871.6034991158706,218.2889897657492 L 875.7028310303715,218.07781150752362 L 880.6065989530705,218.55985081205938 L 883.9467125803494,217.77041332516905 L 888.8803465025313,218.34758031682043 L 893.826917933591,218.98342827365644 L 897.2105470888024,218.2906948194547 L 902.184283011173,219.02300852783924 L 906.3826749899004,219.10182487769015 L 910.5937576387402,219.22022188840856 L 914.817192127316,219.37836853702095 L 919.0526379603951,219.5764310570936 L 923.2997529993094,219.8145729241998 L 927.5581934834961,220.09295484155183 L 931.0422774895837,219.6450223079047 L 936.1076677660244,220.77106769296893 L 939.6143058605869,220.38569413941298 L 943.9155304879134,220.8172045668449 L 948.2264276198388,221.2896954791891 L 951.7642946145799,220.9913938166303 L 956.0946773883355,221.53683034877764 L 959.6520906075257,221.2945281416491 L 963.2187405879405,221.07648142139794 L 966.7944832328468,220.88276601440407 L 971.1620859471734,221.56598655292225 L 974.7558871091865,221.42899818896223 L 978.3582921624977,221.31658265730658 L 981.9691549370893,221.22881226350654 L 984.80450931636,220.2817567003521 L 988.4317550452124,220.23557673639027 L 992.0670714146429,220.21423641748873 L 994.9243988851131,219.31172285280138 L 998.5754660970332,219.33230380411334 L 1000.6566885816046,217.53900778086415 L 1004.3232410238414,217.59371544827775 L 1007.2057933639787,216.74067074090402 L 1010.0940774774514,215.89848707592103 L 1012.190869976854,214.123421197781 L 1015.8877062055021,214.24678648825267 L 1017.9922239063783,212.48088646164138 L 1020.9013485365788,211.67600665225592 L 1023.0097138222357,209.91470216991206 L 1025.1180791078928,208.1533976875682 L 1027.2264443935496,206.39209320522434"
     id="pomsonvzhod" />
  <path
     style="stroke:red"
     d="M 569.5573820044747,662.0856842976731 L 569.3957359089585,664.83430940862 L 569.0549819214572,667.5603476286914 L 568.7142279339558,670.2863858487627 L 568.3734739464545,673.0124240688341 L 568.0327199589532,675.7384622889053 L 567.9068113082585,678.4911181244081 L 567.792858008461,681.2447660422421 L 567.4640018125682,683.9722651274318 L 567.1351456166755,686.6997642126215 L 567.0450538845921,689.4557870687682 L 566.7221489465211,692.1839971153477 L 566.6499757226775,694.9416059143174 L 566.5897731382634,697.7000505955342 L 566.5415444686408,700.4592920492511 L 566.5052928754927,703.2192911554699 L 566.4810214067933,705.9800087842514 L 566.7496351528375,708.7706200360402 L 566.7553584484255,711.5326513687744 L 566.7730716126703,714.2952576212591 L 566.8027771529846,717.0583996213269 L 567.1495528954035,719.8504063121338 L 567.2092804439486,722.6143785311768 L 567.2810080913307,725.3787427544877 L 567.6879665094491,728.1706730636781 L 567.7897322678389,730.9354882286035 L 568.2388553594456,733.726576222326 L 568.7121067354071,736.5165663329383 L 569.2094851379823,739.3053011234853 L 569.7309883948335,742.0926231480789 L 569.9169280306714,744.8567694536337 L 570.4805956706768,747.6420299573218 L 571.440211846863,750.444538137936 L 572.0581745026561,753.2246346356353 L 572.3162771487216,755.9861867248042 L 572.9763758180479,758.7631726373513 L 574.0566325379785,761.5510948459817 L 574.7709466532148,764.3214472640575 L 575.5093249073763,767.0889703237589 L 576.6859606237774,769.8611887066202 L 577.4784548311465,772.6208589271686 L 578.2949692180099,775.3771757371535 L 579.1354893801761,778.129982059284 L 580.4382499095788,780.8786428224395 L 581.3327219839014,783.6220122883111 L 582.7013473058225,786.355945844394 L 584.1058150277554,789.0805690810296 L 585.08398213657,791.8071255338855 L 586.0860197772774,794.5290741994661 L 588.0597510516013,797.2131592105497 L 589.1212878531014,799.920817186752 L 590.6922686418994,802.6004975595033 L 592.2987111937172,805.2689171168498 L 593.4432450535351,807.955597578444 L 595.6176550274076,810.5705769185752 L 596.8211742766481,813.2403733588885 L 598.5629047364891,815.8640680799367 L 600.3396903645249,818.4748376862783 L 602.1514358148872,821.0723357634043 L 603.4664106170393,823.7079923035246 L 605.8794096419807,826.2261351939253 L 607.2526088915135,828.8417954363125 L 609.1976314441346,831.3870070471728 L 611.7310113161241,833.848679053043 L 613.1909748496439,836.4323358354006 L 615.8038844527164,838.8542737994316 L 617.8915132576707,841.3332178601833 L 620.0131079654088,843.7958071091296 L 622.1685431586468,846.2417032395465 L 624.3576904474495,848.6705688908055 L 626.5804184762757,851.0820676727877 L 629.4331080173487,853.3686685329476 L 631.7277692848811,855.739427881485 L 634.0555593495311,858.0917449371514 L 636.4163343430649,860.425287748035 L 638.8099474721303,862.7397254603832 L 641.8579521133024,864.900453345658 L 644.3217474212641,867.1703230511957 L 646.8178791089524,869.4200313312626 L 649.9823024833966,871.4972684444904 L 652.5474385928859,873.7000864614652 L 655.7897132945257,875.7170560692985 L 658.4229956945155,877.8714029423938 L 661.0876948445019,880.0038342050054 L 664.4425465855552,881.9305247282689 L 667.1741000045412,884.0122154846683 L 670.6040160082953,885.8740319035566 L 673.4014873627543,887.9034398927371 L 676.2293704288858,889.9092193386894 L 679.7676793961994,891.6741419052399 L 682.6600764544601,893.6254273849052 L 686.2704287582122,895.3209954671428 L 689.2263269843627,897.2162869565619 L 692.9074189803898,898.8407153386511 L 695.9257748225577,900.6785311601845 L 698.9729840152086,902.4903844797286 L 702.7560047040436,904.00893583956 L 705.8641143321031,905.7611930554499 L 709.7145340570326,907.2043208912862 L 712.8824267633587,908.8955475320429 L 716.7988137894108,910.2615515669468 L 720.7490812294328,911.5840560018792 L 724.7327664461636,912.8625742520951 L 728.0201617126202,914.4203500118974 L 732.0666671356191,915.6182862594179 L 735.4101750990586,917.1107298001235 L 739.517958448864,918.2264681298038 L 742.9163427801989,919.6522324411496 L 747.0838271457492,920.6841854043907 L 750.5358235160345,922.0419461155873 L 755.5092663206152,922.6064692358432 L 759.0163854388129,923.8872768629415 L 763.3002706129969,924.7376700470074 L 767.6125323306458,925.5392999015949 L 771.1966965617071,926.7096880546775 L 775.5625829980185,927.422034414368 L 779.1954821896195,928.5198098163556 L 783.6132623707083,929.1414272683262 L 788.0569557959698,929.712301295591 L 791.7614187725933,930.6948538710184 L 796.2542491986512,931.1728377746363 L 800.7714386607286,931.5989366154524 L 805.3124222011573,931.9727626179164 L 809.8766299579044,932.2939339289678 L 813.6937587260838,933.0727552115162 L 818.3022065559949,933.2975501503795 L 822.9322574414969,933.4686279331569 L 826.8113305246222,934.124930787716 L 831.48267101946,934.1976952143259 L 836.173955996119,934.2157277992027 L 840.1112661977386,934.7470055915089 L 844.8408231976499,934.6648744527025 L 849.5886300591046,934.5270457442662 L 852.8053964283035,935.5269144733688 L 857.5889047539752,935.2975958294925 L 862.389057147263,935.0117001633807 L 866.4307785781007,935.2946607149584 L 871.2632023335943,934.9052389175293 L 876.1105095716464,934.4583718246445 L 880.1991413110384,934.6095474989597 L 884.302360272035,934.7222974883714 L 889.193149177578,934.1227262980801 L 893.3246227991558,934.1490622587995 L 897.4696079814044,934.1363990418888 L 902.3994972818714,933.3820363758402 L 906.570292741013,933.2817523416959 L 910.7535061326046,933.1419244053375 L 914.9487979309829,932.9623862464184 L 919.9245850169136,932.0022121876939 L 924.1424324433273,931.733563105699 L 928.3712422225519,931.4246974100722 L 932.6106680538713,931.0754606374048 L 936.0944359147796,931.4634144868161 L 941.1199749481109,930.2552700902874 L 944.6251764421468,930.5803439337981 L 949.6675521421475,929.2718122786553 L 953.1931351937394,929.5335144299363 L 957.490186718696,928.9483392970444 L 961.0346500019797,929.1539281776317 L 964.5880556876638,929.3351940166058 L 968.9118079126841,928.6444193012052 L 973.2429048274564,927.911933008219 L 976.8227027825852,928.0041703214981 L 979.6504260325221,928.9444890671687 L 984.0069087050324,928.1146240331418 L 987.6110219996647,928.1327010719383 L 991.2229449828285,928.125920020819 L 994.8425291967392,928.0942132456335 L 997.7093303943525,928.9496440419618 L 1001.3439596560819,928.8758155593839 L 1004.9858569421731,928.7768791945844 L 1007.8732103785969,929.5870760453108 L 1011.5295102463815,929.4457072499813 L 1013.6645266240107,931.1746094231953 L 1016.5684212926635,931.9519053898504 L 1020.2462266991209,931.7585636085772 L 1022.3925129057275,933.4734552018328 L 1025.3126413386592,934.2176690669885 L 1027.4626637475944,935.9278741126961 L 1030.3918607906053,936.6563261048076 L 1032.545609168525,938.3618364629981 L 1035.483819910832,939.074490599704 L 1037.6412840066582,940.7752981527528"
     id="pomsonzahod" />
  <path
     style="stroke:red"
     d="M 556.6716586515096,500.6092176185041 L 555.8971453265265,497.97340147038005 L 555.1226320015435,495.337585322256 L 554.3481186765604,492.701769174132 L 553.5736053515773,490.06595302600795 L 553.0011127121746,487.37101404935765 L 552.2323516846169,484.7335144493963 L 551.4635906570593,482.09601484943494 L 550.9142466895746,479.3948206072404 L 550.3765567045027,476.6907759749807 L 549.8505304969108,473.9839189538731 L 549.3361777515059,471.2742875742473 L 548.8335080425553,468.5619198952446 L 548.0935628393871,465.9161914976958 L 547.6083594709542,463.19951759460315 L 547.1348614502676,460.4801961960295 L 546.6730779923028,457.7582654533383 L 546.2230182012647,455.0337635454398 L 546.0633557780372,452.2323864006173 L 545.6427261102871,449.5019326388657 L 545.5245994417346,446.69351720947594 L 545.1334580308122,443.9573802532169 L 544.7540944157387,441.218914796934 L 544.6953541366639,438.40079950609635 L 544.3455559694245,435.65702252729295 L 544.3285485687718,432.8328847952523 L 544.3355198526656,430.00590139570477 L 544.0331694244827,427.2543317492835 L 544.0819909932268,424.422010534841 L 544.5005441790034,421.50943335710707 L 544.2517868407728,418.7502309119495 L 544.3728040598846,415.9110845412117 L 544.5179279296725,413.0699753912527 L 545.0576485022173,410.15042328965023 L 544.880571552663,407.38249433986925 L 545.0981270063454,404.53643554983967 L 545.7289568541894,401.61384790780085 L 546.0010979788364,398.7658597786401 L 546.2974495820897,395.91690171305777 L 547.0259284606093,392.9947475598796 L 547.376958214578,390.14508005177913 L 547.75223700876,387.29496708426404 L 548.5784864173575,384.37554944843987 L 549.008511298022,381.5259492195425 L 549.462813402017,378.67642892371623 L 550.3869072418204,375.76205445633616 L 551.3478586570566,372.8512686962497 L 551.8874555054817,370.0052616294022 L 552.9157597008489,367.1004761841227 L 553.5101581038042,364.257550775106 L 554.6057942759003,361.35988922471245 L 555.7382393187049,358.4674446247402 L 556.907471111015,355.5805747589215 L 557.61762443903,352.7479272500192 L 558.854076478117,349.87057552862484 L 560.127244675983,346.9997912780532 L 560.9225642762389,344.1769911783865 L 562.7835913653479,341.27935471068656 L 563.6397080240708,338.46553449756493 L 565.0531707600372,335.6215021006682 L 566.5031678911618,332.7857426866718 L 567.9896509042175,329.95861270189914 L 569.5125681848764,327.14046830699465 L 571.0718650194042,324.33166535159836 L 572.6674835965522,321.5325593490303 L 574.2993630096498,318.74350545098633 L 575.9674392588946,315.964858422248 L 577.6716452538404,313.19697261540574 L 579.4119108160849,310.44020194559954 L 581.188162682154,307.6948998652769 L 583.0003245065866,304.9614193389698 L 584.8483168652145,302.2401128180926 L 586.7320572586427,299.5313322157626 L 588.6514601159256,296.83542888164334 L 590.6064367984421,294.1527535768145 L 592.5968956039674,291.4836564486679 L 595.2579441662122,288.86108179078195 L 597.3248365030641,286.22469185992645 L 599.4268855284699,283.60300335011596 L 601.5639865726956,280.9963634760114 L 603.736031927336,278.40511870689 L 605.9429108506201,275.8296147417442 L 608.184509572914,273.27019648442007 L 611.1353668394453,270.79439894356284 L 613.4515576118113,268.27323064920273 L 615.8020713433007,265.7692526772287 L 618.877659769796,263.3668705258508 L 621.3018165574831,260.9035786969601 L 623.7598678130005,258.4585719798392 L 626.2516772657785,256.032188428275 L 628.7771056727715,253.62476509056745 L 631.3360108258148,251.23663798510643 L 633.9282475591738,248.8681420760014 L 637.2810739392635,246.64378573837763 L 639.9445996303629,244.32135815572155 L 642.6409586526855,242.01963177362092 L 645.3699933688691,239.73893675335512 L 648.8786440807763,237.62905706367468 L 651.6774207584604,235.39751116833827 L 654.5083346617178,233.18805009795426 L 658.1324288130595,231.1706270031592 L 661.0318193559549,229.01262941032957 L 663.9627782798615,226.87775645760007 L 666.925126336429,224.76632875400725 L 670.6980210468367,222.87568788497282 L 673.7270930941982,220.81871055022447 L 676.7869462070197,218.7861992459671 L 680.6695772743149,216.99723147261983 L 683.7947339921905,215.02140792395198 L 686.9500341538231,213.07105565337804 L 690.9397282718369,211.38763990117968 L 694.1588458962482,209.49617633899697 L 697.407440180075,207.63117296610437 L 701.501407238853,206.0571191973561 L 703.9922192045001,203.9817635488613 L 707.3279773892981,202.197961837915 L 711.520114938337,200.72785848972472 L 714.9166624463527,199.00709843549095 L 718.3413290905354,197.31466294355027 L 722.6320705445368,195.96110683372848 L 726.1158533632339,194.33379758773611 L 730.4715284215192,193.06310657687777 L 733.1652928826927,191.16725153454513 L 736.730477956882,189.6285894646503 L 741.1768883834872,188.47074950753267 L 744.7983636513835,187.00050899582288 L 748.445942957263,185.5610098636181 L 752.1193783228974,184.15253052914642 L 755.8184192457893,182.77534747685377 L 759.5428127138914,181.42973523630127 L 764.1642779519038,180.51679947013184 L 767.0666327792899,178.83431140839275 L 771.7430192707714,178.00240027802363 L 775.5688882929549,176.79412061923523 L 778.5360390324383,175.18470526666238 L 783.2922935314627,174.47672047078248 L 787.1892907053118,173.36812143359435 L 790.2194744350161,171.83366844753778 L 795.0525086732356,171.25241315855334 L 798.1237107097523,169.76896454862162 L 802.1095808847765,168.78817030422266 L 806.1175773007847,167.84208121794302 L 810.1474157364821,166.93094453730953 L 813.2951651641192,165.54504825099656 L 817.3659824723277,164.69566599217188 L 821.457853281006,163.88191852852827 L 824.6603752728863,162.56928555382223 L 828.7918445218886,161.8185065792931 L 832.9435616401174,161.1040278198377 L 836.1992483264019,159.86614230696972 L 839.4705260169271,158.64873741028856 L 843.6785086206542,158.0261780883191 L 846.9831748311846,156.85727777822092 L 851.2280486029186,156.29994549965284 L 854.565431981926,155.18013181021644 L 857.9177229480621,154.08141948190632 L 861.284800705366,153.00391716361406 L 865.5997307764505,152.56979710425207 L 868.0628300941676,150.91297388275575 L 871.4735368285099,149.89974693693034 L 874.898540566577,148.9081580272134 L 878.3377172277787,147.93831249928053 L 881.7909420849694,146.9903150271383 L 884.3106631541593,145.39933298601625 L 887.789627170406,144.48775085718376 L 891.2823096657104,143.5982968635027 L 892.877647456125,141.36171576911715 L 896.3936650836569,140.50147438202418 L 898.9616903088936,138.96669185785572 L 902.5026584587924,138.14357274347293 L 905.0903484354948,136.63270822525106 L 907.6861580633931,135.13104209076357 L 910.2900595004976,133.63860256057154 L 912.9020248203672,132.15541777748325 L 914.5409674396088,129.95059017693922 L 918.1500349816197,129.21692463368515 L 919.7985823440495,127.0192692350584 L 922.4393615254183,125.56761856869423 L 924.0926995011107,123.37356496966322 L 925.7460374768032,121.17951137063227 L 928.4043256134187,119.74446216834832 L 930.0624463330714,117.5540208118299 L 930.7060514038806,114.59735057353907"
     id="civsonvzhod" />
  <path
     style="stroke:red"
     d="M 556.1525505598935,659.2363994160467 L 555.3608025705141,661.8670899677082 L 554.7534605161243,664.5530611018077 L 553.9674536828778,667.1854727176797 L 553.1814468496315,669.8178843335515 L 552.395440016385,672.4502959494235 L 551.8169388716876,675.144419844613 L 551.2500653766281,677.8414954183642 L 550.6948296295017,680.5414847505264 L 549.7010387266619,683.1131277146122 L 549.1573075743862,685.8164839504491 L 548.3885465468286,688.4539835504104 L 547.8622264051646,691.1618613857039 L 547.3475747724477,693.8725393650009 L 546.8446013340903,696.5859794555114 L 546.6136724330507,699.3752652974018 L 546.1400167452495,702.0951552252244 L 545.6780733939852,704.8176674477635 L 545.2278515392369,707.5427637984683 L 545.0736497378136,710.3469137014259 L 544.6528551869333,713.0779882294485 L 544.5401939092998,715.8891912127925 L 544.4514051753898,718.7038603521584 L 544.0778491052193,721.4438074824802 L 544.030733544357,724.2648480935629 L 543.6867524950974,727.010068704649 L 543.6813887097146,729.83705561122 L 544.0331694244827,732.7456682507166 L 543.742658220995,735.4992583395567 L 543.8093387472595,738.334162821741 L 543.9000797706647,741.1713949013993 L 544.014902650176,744.0107985338783 L 544.1538278408775,746.8522175334192 L 544.3168748931488,749.6954955780748 L 544.8805715526629,752.6175056601307 L 545.0981270063455,755.4635644501604 L 545.3398605101727,758.3109598064823 L 546.0010979788364,761.2341402213599 L 546.2974495820897,764.0830982869422 L 546.6180250849928,766.9328691933333 L 547.3769582145779,769.8549199482209 L 547.7522370087598,772.705032915736 L 548.5784864173573,775.6244505515601 L 549.4415879170144,778.5411913335238 L 549.9021056238277,781.3897137153441 L 550.8325554381692,784.3020651886163 L 551.3478586570566,787.1487313037503 L 552.803995108324,790.1154030984499 L 553.3802984963959,792.9581057519729 L 553.9808977809653,795.79972762021 L 555.5600304358002,798.7488322526292 L 556.2216057354527,801.5849590758559 L 557.8869022970783,804.5180487756066 L 558.6094085821214,807.3475707011364 L 559.8584036265574,810.2195000095539 L 561.1440858243549,813.0847017057099 L 562.4664198471764,815.9428185185926 L 563.8253672612011,818.7934933564701 L 565.2208865279902,821.6363693322388 L 566.1196120119554,824.4413892309641 L 568.1214589496058,827.2972983242411 L 569.6264135150448,830.1146388174842 L 571.1677427575979,832.9227554532943 L 572.7453896356876,835.7212927477508 L 574.3592940124919,838.5098955735193 L 576.0093926581985,841.2882091851411 L 577.6956192524625,844.055879244308 L 580.0,846.8131868131868 L 581.7642563553753,849.5546660244077 L 583.5643975632738,852.2843630470758 L 585.400344200984,855.0019255963306 L 587.2720137716817,857.7070019272758 L 589.7910346243389,860.3785474043682 L 591.7397304469773,863.0533533237376 L 593.7238536858305,865.7145439582778 L 596.372378650171,868.326737387331 L 597.797997295162,870.9946835399135 L 599.8878174814064,873.6129362757699 L 602.6588552839761,876.1674522658212 L 604.8242626476147,878.7506253641641 L 607.0244443114423,881.3180230977205 L 609.9221555863206,883.8047440324574 L 612.1970640153002,886.3346013975022 L 615.1800756632571,888.7715613025703 L 617.5290690752809,891.26219560185 L 619.9121574915295,893.7351917778263 L 623.0189286356721,896.0971099026506 L 625.4751212337809,898.528459463402 L 627.9649660511801,900.9410818140375 L 631.193608449429,903.2237228892659 L 633.7555062202142,905.5922995880101 L 636.3505821598732,907.9410710799846 L 639.6990817946856,910.1402472433105 L 642.3650896431117,912.4426004775602 L 645.7938698672723,914.5813388447602 L 648.5299888853838,916.8356567092258 L 651.2984115728146,919.068376145545 L 654.8433503781024,921.1167000920585 L 657.680646634491,923.2990607240401 L 660.5496897884568,925.4587790227729 L 664.2084408605118,927.4126456901628 L 667.1450520632651,929.5197132673314 L 670.8796871859143,931.4056765020758 L 673.8829193438835,933.4585353771784 L 676.9168859425923,935.487021626155 L 680.7610812795846,937.2718449165297 L 683.8602502784659,939.243888219896 L 687.7772569747518,940.9562807683644 L 690.1486802812814,943.1115361849799 L 693.3375382159379,945.0065238266039 L 697.3560043401233,946.6200534231214 L 700.6076422681768,948.4550475570913 L 704.6957838104121,949.9919078252174 L 708.0091051261214,951.7654355488303 L 711.3509449381677,953.5113302577737 L 715.5393848070378,954.9344863194167 L 718.9412757696794,956.6168077060258 L 723.1958722808348,957.9590440906761 L 726.656644232781,959.5763681196761 L 730.1446783767229,961.1644718062624 L 734.4943456142767,962.3869237570498 L 738.0395235693782,963.907995940966 L 741.6111853961347,965.3989335453549 L 745.2090877889834,966.8594553528235 L 749.6796982358685,967.9200218431125 L 753.3323848184561,969.31091041077 L 757.0104986073134,970.6704954579506 L 760.7137856095626,971.9985040422987 L 764.4419893508415,973.2946652098481 L 769.0551959100437,974.1471938888255 L 772.8351319337007,975.3706117951172 L 776.6391292524314,976.5613289888535 L 780.466921046673,977.7190832577295 L 784.318238097479,978.8436144858031 L 788.192808802565,979.9346646736533 L 792.0903591925072,980.991977958422 L 796.8871595143373,981.5430822305582 L 799.9532914119036,983.0043811694845 L 804.79888178955,983.4694957261651 L 807.9047962832475,984.8788207011985 L 811.9130538605119,985.7636876947608 L 815.9425985235592,986.6133285826763 L 819.99314019999,987.4275030087787 L 824.0643865855698,988.2059729093046 L 828.1560431618409,988.9485025317952 L 831.3734853105958,990.2042461035403 L 835.5035985069859,990.8832093693985 L 839.6533051070687,991.5255818137578 L 842.9225446119128,992.7057261763495 L 847.1092775179372,993.2833738331199 L 850.4113021683498,994.4147294885429 L 854.6341395047248,994.9269233318835 L 857.9682715316756,996.0089170124713 L 862.2262799494329,996.4549404658909 L 865.5918329955716,997.4870079109483 L 868.9717361511426,998.4975909906509 L 872.3658658174812,999.4865842554084 L 875.7740977494775,1000.4538829260157 L 879.1963070590741,1001.3993828972868 L 883.553013091625,1001.6617348055584 L 887.0047586973762,1002.5557993696842 L 889.5455408027542,1004.1040597492339 L 893.0223980068567,1004.9613374777371 L 896.5125986279504,1005.7963062170759 L 900.0160139948908,1006.6088659814208 L 902.5993058171092,1008.1037382429333 L 905.1906355382819,1009.5893588403935 L 907.7899750632287,1011.065699834134 L 911.3401492176035,1011.8108895013722 L 913.9585977082179,1013.2628786748892 L 917.532529260229,1013.9701392409154 L 919.2191799161366,1016.13868880738 L 921.8612565736867,1017.562454722502 L 925.4680301753117,1018.2241071442223 L 927.1688377283607,1020.3815712400485 L 929.8342846720452,1021.7768672789258 L 931.5397950302358,1023.9306156568457 L 934.2176690669883,1025.3126413386594 L 935.9278741126959,1027.4626637475944 L 938.6181299815987,1028.8313715255472 L 940.3330215748542,1030.9776577321538 L 942.0479131681099,1033.1239439387602 L 944.7551838452816,1034.4755399825883"
     id="civsonzahod" />
</svg>
