<?xml version="1.0" encoding="UTF-8" standalone="no"?>
<svg xmlns="http://www.w3.org/2000/svg" xml:space="preserve" id="svg3131" width="685.25287" height="738.4306" style="fill-rule:evenodd" version="1.1" viewBox="0 0 193.39371 208.4017">
  <defs id="defs3133">
    <style id="style3135" type="text/css">
      .fil1{fill:#008dd2}.fil6{fill:#034061}.fil5{fill:#a86326}.fil2{fill:#fecc00}.fil3{fill:#a86326;fill-rule:nonzero}
    </style>
  </defs>
  <g id="Ebene_x0020_1" transform="translate(-2.8196147 -9.7525)">
    <g id="_530363704">
      <path id="path3930" d="M599.98563 397.34854c0 170.87609-90.64909 309.39853-202.4704 309.39853-111.82131 0-202.4704-138.52244-202.4704-309.39853s90.64909-309.398528 202.4704-309.398528c111.82131 0 202.4704 138.522438 202.4704 309.398528z" style="fill:#fff;fill-opacity:1;stroke:none" transform="matrix(.33121 0 0 .27726 -31.881397 1.3621531)"/>
      <path id="path3936" d="M87.5931 74.1703c-11.7122-.3175-17.974 6.7203-17.9917 15.875-5.4328 6.1031-3.7605 7.8959-5.715 12.8588-1.8183 4.617-11.9921 13.3646-7.62 24.9237 6.0776 16.0678 27.4946 25.0817 44.6617 25.7175 15.604.5779 32.5669-9.4419 41.0633-22.5425 5.7847-8.9194-.0379-21.7238-4.1407-26.5913-5.9623-7.0736-6.7135-8.2633-7.8713-12.6199-1.079-4.06 2.1911-14.6358-12.118-20.4788 2.4296 3.7746 3.462 7.5495 2.6459 11.3242-2.9281-2.6811-5.8561-5.3623-8.7842-8.0434 1.5416 2.8651 2.2339 7.0467.9525 14.2875-3.2555-2.3289-4.4349-5.8906-3.175-10.9008-4.2546 1.4377-4.9767 4.9687-5.3975 8.6783-1.6689-1.0086-2.228-6.0484-.3462-11.2546 2.1366-5.9112-3.0033-11.5917-6.533-12.6637 1.5601 1.7891 2.3572 7.5917-1.7991 12.5942-3.5412 4.2622-4.8866 9.7939-3.0692 16.9333-3.5454-.8115-4.7626-7.814-3.175-13.5467-4.7624 1.9403-6.8263 3.9864-7.9375 9.9484-2.8575-7.3202 1.4816-12.5766 6.35-14.4992z" style="fill:#cd0000;fill-opacity:1;stroke:none"/>
      <path id="_31578696" d="m42.9774 114.779-.1058 6.046-11.774-2.038-5.6885-.82-9.1414-.516-.4102-.344.2117-5.582.3176-4.234 1.4816-10.4242 3.175-13.6658 3.0427-7.8714 3.4264-7.2231 4.8287-7.5539 5.1064-6.5352 7.3158-7.0909 7.3819-6.0589 6.0589-3.9026 1.5479.2249 1.4287 1.4684 14.7109-7.3157 7.3762-2.0936 5.9401 4.8328-2.3248 10.4895-10.9915 4.6704-8.6651 6.1515-8.0699 7.8053-1.27 1.6933 1.4817 1.6272-.3175 1.3494-2.6326 2.9236-3.3073 4.8419-5.2785 10.3188-2.7119 9.9086-1.5082 9.1017z" class="fil2" style="fill:#fecc00"/>
      <path id="_276220968" d="m156.476 114.745.106 6.045 11.774-2.037 5.688-.82 9.142-.516.41-.344-.212-5.583-.317-4.233-1.482-10.4246-3.175-13.6658-3.043-7.8714-3.426-7.2231-4.829-7.5539-5.106-6.5352-7.316-7.0909-7.382-6.0589-6.058-3.9026-1.548.2249-1.429 1.4684-14.711-7.3157-7.376-2.0936-5.94 4.8328 2.325 10.4895 10.991 4.6704 8.665 6.1515 8.07 7.8053 1.27 1.6933-1.482 1.6272.318 1.3494 2.632 2.9236 3.308 4.8419 5.278 10.3188 2.712 9.9086 1.508 9.1021z" class="fil2" style="fill:#fecc00"/>
      <path id="_276217128" d="m181.619 148.196-10.704 2.342-.686-1.085 1.177-1.614 6.324-1.746 1.045-3.348 1.971.953 1.429 2.302z" style="fill:#4c7ec2;fill-opacity:1"/>
      <path id="_530364016" d="m29.235374 149.75442.2776 2.88403L18.5819 148.9109l-.0397-.0398c-.0462-.0463-.0071.0257-.0397-.0397l-.7541-1.3626 2.8575-4.0217 2.2568 4.2155z" class="fil1" style="fill:#4c7ec2;fill-opacity:1"/>
      <path id="_530363728" d="M159.306 152.201c-5.8706 11.0899-13.8363 20.3299-24.678 27.0304l1.5875-5.6621-2.4342-5.715-1.5875-.3175c10.0721-8.4244 19.1468-22.8499 21.9605-32.438l11.6946-2.54 8.943-1.3758 5.027-2.2755 3.228 1.5346-5.8209 15.9809-7.1437 1.905-3.5455 2.1696-7.2308 1.7034z" class="fil2" style="fill:#fecc00"/>
      <path id="_530364664" d="m138.657 153.077-.881-.965-1.64.37-.662-.741.821-1.693-1.297-1.826-3.034-.426-1.492.355-2.459-3.236 8.652-7.091 2.733 3.157-.643 3.961 1.138 2.566 1.323-.635.899.714-.643 2.008.934 1.035 1.35-.423.846.767-.595 1.849.648.665-2.781 3.973-1.664-1.962-1.455.37-.926-.847z" class="fil2" style="fill:#fecc00"/>
      <path id="_276217200" d="m122.748 163.383.423-1.217.821-.37-.715-1.667-1.402-.053-.741-.9 1.232-1.666-1.576-2.329-3.568-.66-1.465-3.849 9.981-4.513 1.81 3.451-1.44 4.724.371 1.852 1.508-.158.608.899-.979 1.985.556 1.111 1.376-.185.582.926-.915 1.58 2.132 4.823-5.318-.715-1.006-2.593-1.455.291z" class="fil2" style="fill:#fecc00"/>
      <path id="_532355744" d="m140.109 155.9.7845-.6193 1.384 1.8859-.8068.5889-1.3617-1.8555zm-1.8441-2.513.7845-.6192-.5855-.798-.7845.6193.5855.7979zm-2.4294-3.3103.7855-.6179-.1615-.2198c-.6548-.8924-1.6288-1.5392-2.7581-1.8186-.9408-.2329-1.9908-.2108-3.0525.1372l-1.9421-2.579 7.9592-6.4327 2.2518 2.6234c-.4289 1.0201-.6217 2.2125-.5474 3.3667.067 1.039.3318 2.0227.8542 2.8634l.7899-.6227c-.408-.6837-.5942-1.4488-.6495-2.3049-.0708-1.1004.1365-2.2371.5869-3.168l.1419-.2934-.2133-.2485-2.7744-3.2323-.3155-.3676-.3752.3033-8.7095 7.0391-.375.303.2897.3849 2.4536 3.2582.229.3041.3519-.1398c.9776-.3884 1.9493-.4362 2.8063-.2241.9016.2231 1.6755.7342 2.1913 1.4372l.1828.2488zm7.778 3.0566.7871-.6213.7233.9359-.7925.6143-.7179-.9289zm-1.1182-3.0861-.7855.6235-.6022-.7881.7826-.6178.6051.7824z" class="fil3" style="fill:#a86326;fill-rule:nonzero"/>
      <path id="_530364280" d="m105.338 162.219 1.006-.079-1.164-3.493-2.987-1.367-.321-3.951 11.06-1.429.631 4.041-2.198 2.416-.894 3.333 1.535.264.317 1.244-1.281 1.112-5.889.264-.582-1.297z" class="fil2" style="fill:#fecc00"/>
      <path id="_276220584" d="m93.4056 161.796 1.6933.74-.1322.979-.8202 1.013-5.3446.178.1587-1.217-1.4023-.476-.0529-1.297 1.561-.502-.3538-3.455-2.6329-2.045.632-4.264 11.1389 1.323-.3676 4.136-3.3101 1.685z" class="fil2" style="fill:#fecc00"/>
      <path id="_532358744" d="m111.119 161.168.002.0006c.4257-.0465.8309.0848 1.1408.3337.2851.2289.4907.558.5591.9402l.005.01.0105.0967c.0464.4255-.085.8309-.3338 1.1407-.2501.3118-.6187.5287-1.0443.5752l-5.7338.6264-.002-.0006c-.4256.0464-.831-.085-1.1408-.3338-.3118-.2501-.5287-.6187-.5751-1.0443l-.0119-.1089.003-.0107c-.0124-.3821.1168-.7419.3426-1.0232.2496-.3108.6178-.5271 1.0445-.5742v-.0009l1.5547-.167c.5525-.0594.6971.9346.1058.9966l-1.5513.1628-.002-.0007c-.1511.0165-.2825.0943-.3723.206-.0902.1124-.138.2586-.1213.4109l.0004.004c.0176.1509.0947.2814.2049.3698.1125.0903.2588.1383.4109.1222v-.0008l5.7338-.6264c.1528-.0168.2849-.0942.3741-.2054.0896-.1116.1375-.2564.1226-.4073l-.0006-.006c-.0165-.151-.0943-.2826-.2059-.3721-.1125-.0903-.2586-.1384-.4109-.1222v.0007l-1.5.1668c-.5627.0624-.7273-.9288-.1378-.9931l1.5286-.166z" class="fil3" style="fill:#a86326;fill-rule:nonzero"/>
      <path id="_532356488" d="m88.5565 160.797-.0019.0006c-.4257-.0465-.8309.0849-1.1408.3338-.2851.2288-.4908.5579-.5591.9402l-.0049.009-.0105.0967c-.0464.4255.085.831.3338 1.1408.2501.3118.6186.5286 1.0443.5751l5.7339.6264.0019-.0006c.4255.0464.8309-.0849 1.1408-.3337.3118-.2502.5286-.6187.5751-1.0444l.0118-.1088-.0034-.0108c.0123-.3821-.1169-.7419-.3427-1.0232-.2495-.3107-.6178-.527-1.0445-.5742l.0001-.0009-1.5548-.167c-.5525-.0593-.6971.9346-.1058.9966l1.5514.1628.0019-.0006c.151.0165.2824.0942.3722.2059.0902.1125.138.2587.1214.4109l-.0005.004c-.0176.1509-.0946.2815-.2049.3698-.1125.0903-.2588.1383-.4109.1222l.0001-.0007-5.7339-.6265c-.1528-.0167-.2849-.0941-.3741-.2053-.0896-.1116-.1376-.2565-.1226-.4074l.0006-.006c.0165-.1511.0943-.2826.2059-.3722.1125-.0903.2586-.1383.4109-.1222v.0008l1.5.1667c.5627.0624.7273-.9288.1378-.993l-1.5286-.1661z" class="fil3" style="fill:#a86326;fill-rule:nonzero"/>
      <path id="_276220896" d="m73.7618 166.505-5.2255 1.1248 1.7462-4.1276.0265-.0397v-.0794l.6085-1.4817-1.0583-1.1377.2249-.6879 1.733-.291.7276-1.7199-1.1774-1.0318.463-1.0187 1.6537.1323.3372-2.3148-.8734-3.0785-.596-.9876 1.9533-3.7101 9.8813 4.6007-1.3627 3.7257-3.3998.5605-2.0373 2.9369 1.3758 1.1113-.3704 1.2435h-1.7727l-.6879 1.5611 1.1377.7937-.1323 1.3759-1.2965.1322-.926.344-.9525 2.0638z" class="fil2" style="fill:#fecc00"/>
      <path id="_274842368" d="m55.0276 151.411.5292-1.085 1.7198.37 1.1377-1.349-1.0054-1.243.6879-1.191 1.6404.609.9942-1.959.117-2.592-.7753-1.856 2.7953-3.207 8.6957 6.968-2.4606 3.304-2.32-.372-2.2208.757-1.3595 1.602.8732 1.244-.3705 1.005-1.1377.08-.7408-.371-1.0583 1.455.926 1.006-.3704 1.164-1.2171.106-.8202-.45-1.5878 2.176-2.9808-3.631.85-1.1.279-.382z" class="fil2" style="fill:#fecc00"/>
      <path id="_530478016" d="m30.4479 150.538-1.1059-.8959-6.5936-2.0146-3.2279-7.8581c-.0772-.3241-.1043-.609-.1851-.926l-2.2225-8.2021 2.7516-.8467 6.1913 1.7463 19.103 3.3337c4.6941 13.761 12.8187 23.8836 22.1721 32.7026l-4.1275 6.2442 1.3758 5.9266c-9.2896-5.7794-17.7557-13.6723-24.0119-27.2386l-10.1194-1.9714z" class="fil2" style="fill:#fecc00"/>
      <path id="_276231384" d="m118.83088 177.11869 4.27692 5.62532-2.7818 11.18499-.476 4.604 1.323 4.869 10.16-.741-7.779 14.446-23.918-7.408-21.3255 7.567-2.0108-5.133-2.7517-1.323-4.6037-9.419 3.9158-.424 7.7259 3.017-1.0055-9.261.0529-2.328-3.789141-9.09402 6.904598-2.52185L99.7947 186.997z" style="fill:#fecc00"/>
      <path id="_530364760" d="M171.83614 151.17929c-2.7776 18.5079-16.20064 36.55021-47.76654 52.23591l-3.3866-.7408-.3175-2.3284 1.4286-3.1749 11.8006-8.7049.0264-3.0295 1.7333-5.9533c9.8065-6.9804 17.9397-16.0204 24.0771-27.5167l11.51329-3.53161z" class="fil1" style="fill:#4c7ec2;fill-opacity:1"/>
      <path id="_276218352" d="m29.1372 153.885-.1696-4.3827 4.5881 1.7104 7.0116 1.2965c4.5509 12.1532 17.2579 23.3462 24.1301 27.8872l2.3548 8.0699 12.409 10.2659.6615 4.445-11.3774-4.4188c-22.6572-11.818-31.7675-26.7054-42.5714-42.7567l2.9633-2.1167z" class="fil1" style="fill:#4c7ec2;fill-opacity:1"/>
      <path id="_275388000" d="m59.4668 155.929-.7845-.6193-1.4286 1.9467.8068.5889 1.4063-1.9163zm1.8441-2.513-.7845-.6192.5855-.798.7845.6193-.5855.7979zm2.4294-3.3103-.7855-.6179.1615-.2198c.6548-.8925 1.6288-1.5392 2.7581-1.8187.9409-.2328 1.9908-.2107 3.0526.1373l1.9421-2.579-7.9593-6.4328-2.2518 2.6234c.429 1.0202.6217 2.2126.5474 3.3667-.067 1.039-.3318 2.0228-.8542 2.8634l-.7899-.6226c.408-.6837.5942-1.4488.6495-2.305.0708-1.1004-.1365-2.237-.5869-3.1679l-.1419-.2935.2133-.2484 2.7744-3.2323.3155-.3677.3752.3033 8.7096 7.0391.375.303-.2897.3849-2.4536 3.2582-.229.3042-.3519-.1398c-.9776-.3884-1.9494-.4362-2.8064-.2242-.9016.2232-1.6754.7343-2.1913 1.4373l-.1828.2488zm-7.778 3.0566-.7871-.6214-.8527 1.1033.7925.6143.8473-1.0962zm1.1182-3.0861.7855.6235.6022-.7881-.7826-.6178-.6051.7824z" class="fil3" style="fill:#a86326;fill-rule:nonzero"/>
      <path id="_276220080" d="M73.2925 107.948c-.6121 5.6523-4.661 8.8774-5.9458 11.6827-2.5449 5.5566-2.8467 9.269-1.3567 14.4052-6.7645-5.1817-7.4706-18.2805-.4233-27.2521 3.0102-3.832.9824-10.7237 4.1804-14.0229 1.1737 6.4395 2.0949 10.5393-.5292 16.51 3.6878-4.0203 3.203-8.9436 2.4342-18.6267-.4401-5.5429 2.6598-10.0527 6.35-12.9116-2.2254 12.9084 2.56 16.2089 4.1805 22.9658 1.4145 5.8975 1.1775 12.722-4.7866 18.4303-4.7531 4.5493-7.7469 11.7794-7.4372 18.0822-2.491-4.7012-4.6623-11.0005-.5292-18.7325 1.8771-3.5116 3.8521-4.6606 3.8629-10.5304zm15.1859 8.6519c-11.2277 11.6485-9.2183 23.5924-2.1167 32.0675-5.5775.1272-17.6323-9.3777-8.3608-25.9292 3.3262-5.9379 8.814-15.2882 5.3975-25.7175-2.4778-7.5637.8817-11.6964 3.81-13.335-.5918 7.7226 1.6814 11.242 3.2808 12.5942 5.6175 4.749 2.9221 15.2022-2.0108 20.32zm11.5359 5.08c-13.4586 12.0477-9.7234 19.9183-6.3501 28.2575-8.4014-5.7044-13.8966-12.61-1.0583-27.0934-4.9887 2.5655-7.6063 6.7117-9.2075 11.5359-.7051-4.2337-.2304-9.409 7.7258-18.7325 4.9993-5.8585 6.1725-15.0606 2.9634-22.1192-2.8871-6.3503-.7994-13.3218 6.2441-21.3783-3.5169 12.2146-2.3008 16.9309 3.175 22.3308 6.8521 6.7571 2.8684 21.5052-3.4924 27.1992zm1.6933-19.4734c4.0487 7.5603.2776 11.8871-5.08 15.5575 5.1747-4.4655 7.0353-9.9269 5.08-15.5575zm20.8449 9.7101c3.7658 7.2776-.1629 17.9026-5.2388 21.8546 5.4483-6.5199 7.5557-18.0099 5.2388-21.8546zm-20.5276 15.0813c-7.0311 5.591-6.7272 13.9528-1.0583 24.3417-15.2444-9.7889-3.8692-24.2732-2.2602-25.8884 11.2991-11.3425 12.6638-19.7698 9.0335-29.3566-1.3089-3.4568-2.9382-8.0309-.3175-13.8642.2931 5.0746 2.2469 9.3189 5.9267 12.7-.9641 6.5852 3.6208 12.0484 5.5034 17.78 2.7661 8.4215-9.2076 13.6525-6.3501 25.8234 1.0606 4.5175 1.0573 8.7367-1.1641 11.9591.2662-1.559-1.0881-5.5943-3.1147-9.8279-2.1749-4.5433-2.3107-10.5226 1.4213-14.3021 2.8157-2.8516 4.3276-6.6263 4.5509-11.8005-1.0131 4.1919-1.5101 7.8412-5.2175 11.1262-4.0394 3.5793-5.263 8.7988-2.1909 14.5385 1.4082 2.6311 1.3982 6.0892-.2116 10.16-5.914-4.6557-8.516-11.6771-4.5509-23.3892zm19.156 15.8221c-.252 2.111-1.3582 3.9864-2.7517 4.8684-.2645-2.9986-1.2125-6.077-2.2225-8.9959-1.6296-4.7096.1628-9.9641 2.6459-15.7691 2.4081-5.6296 1.9527-12.7219-1.1642-18.0976-4.7352-8.1668-2.5441-15.7248-2.3283-23.3891 2.4469 1.8646 3.5996 5.3648 3.5983 10.5833-.001 5.6406 2.9519 11.1149 6.1383 15.7692 5.242 7.657 5.5264 16.3191.1059 23.7067-3.5766 4.8746-3.7097 8.7103-4.0217 11.3241zm14.1551-33.7871c7.1814 11.6743 2.8311 22.2515-9.3134 30.9033 8.7232-11.3974 10.5962-23.1627 1.3759-33.3375-6.0811-6.7106-6.6326-12.5204-5.5034-17.145.7255-2.9713 1.2523-5.8826 1.1642-9.1017 2.0698 2.6693 2.3503 6.8043 2.9633 12.065.841 7.2174 6.417 11.9074 9.3134 16.6159z" class="fil2" style="fill:#e4272c;fill-opacity:1"/>
      <path id="_275454624" d="m161.562 56.0169-1.7991.635c-14.5696-14.3432-29.4247-23.2755-44.4177-26.7532l1.608-1.3985c20.0104 5.9296 33.7725 15.8004 44.6088 27.5167z" class="fil5" style="fill:#a86326"/>
      <path id="_275454504" d="m37.8918 56.0513 1.7991.635c14.5696-14.3432 29.4295-23.2717 44.4225-26.7494l-1.6128-1.4023C62.4902 34.4642 48.7281 44.335 37.8918 56.0513z" class="fil5" style="fill:#a86326"/>
      <path id="_270288448" d="m164.155 63.7957-2.752.1058-1.746-2.54-.106-3.3866 3.228.3175 1.905 2.5929z" class="fil5" style="fill:#a86326"/>
      <path id="_270288544" d="m35.2988 63.8301 2.7517.1058 1.7463-2.54.1058-3.3866-3.2279.3175-1.905 2.5929z" class="fil5" style="fill:#a86326"/>
      <path id="_270288496" d="m167.33 69.352-2.646-.4763-2.011-3.5454 2.54.3175.635-3.1221 2.223 3.8629z" class="fil5" style="fill:#a86326"/>
      <path id="_270288472" d="m32.1238 69.3864 2.6459-.4763 2.0108-3.5454-2.54.3175-.635-3.1221-2.2225 3.8629z" class="fil5" style="fill:#a86326"/>
      <path id="_276345504" d="m167.489 74.0616-1.588-3.3338 2.329.7937 1.164-4.1275 1.958 5.1859-.9 2.6987z" class="fil5" style="fill:#a86326"/>
      <path id="_276345408" d="m31.9651 74.096 1.5875-3.3338-2.3284.7937-1.1641-4.1275-1.9579 5.1859.8995 2.6987z" class="fil5" style="fill:#a86326"/>
      <path id="_276345360" d="m173.363 81.5228-2.752-.5821-2.064-4.3921 2.911.688 1.111-2.593 1.852 3.863z" class="fil5" style="fill:#a86326"/>
      <path id="_276346104" d="m26.0913 81.5572 2.7517-.5821 2.0637-4.3921-2.9104.688-1.1112-2.593-1.8521 3.863z" class="fil5" style="fill:#a86326"/>
      <path id="_276345912" d="M157.62 60.5943c-14.08-15.003-29.5742-24.5078-45.4886-28.0807l1.7885-1.455c16.4098 4.8386 31.1003 13.8668 43.2768 25.6199l.4233 3.9158z" class="fil5" style="fill:#a86326"/>
      <path id="_532355144" d="M41.8341 60.6287c14.08-15.003 29.5679-24.513 45.4823-28.0859l-1.7661-1.4369c-16.4098 4.8386-31.1164 13.8539-43.2929 25.607l-.4233 3.9158z" class="fil5" style="fill:#a86326"/>
      <path id="_532358000" d="m177.608 139.93-3.069 1.323-3.07-3.705 1.218-2.804 2.698 3.81 3.387-2.329z" class="fil5" style="fill:#a86326"/>
      <path id="_532357688" d="m21.8461 139.964 3.0692 1.323 3.0692-3.704-1.2171-2.805-2.6988 3.81-3.3867-2.328z" class="fil5" style="fill:#a86326"/>
      <path id="_532355528" d="M73.0625 155.492h-.002c-.3905-.1756-.8165-.1758-1.1881-.0347-.3418.1297-.639.3792-.822.7217l-.0076.007-.0398.0887c-.1755.3904-.1757.8166-.0347 1.1881.1417.3738.4253.6938.8158.8694l5.2605 2.3658h.002c.3904.1755.8166.1757 1.1881.0347.3738-.1417.6938-.4253.8694-.8158l.0449-.0999v-.0113c.1297-.3596.1179-.7417-.0101-1.079-.1414-.3726-.4249-.692-.8162-.8686l.0003-.0008-1.4273-.6388c-.5072-.227-.9515.6738-.4082.9153l1.4253.6337h.002c.1386.0623.2396.1768.2905.3108.0511.1348.0514.2886-.0114.4283l-.0018.004c-.0633.1381-.1769.2385-.309.2885-.1349.0512-.2889.0517-.4286-.0106l.0003-.0007-5.2605-2.3658c-.1402-.0631-.2419-.1775-.2924-.3108-.0508-.1338-.0517-.2864.0091-.4253l.0023-.005c.0623-.1386.1769-.2397.3107-.2904.1349-.0512.2887-.0518.4286.0106l-.0003.0007 1.3753.6216c.516.2331.9785-.6589.4376-.902l-1.4027-.6298z" class="fil3" style="fill:#a86326;fill-rule:nonzero"/>
      <path id="_532358336" d="m71.5279 159.302 5.2605 2.3658-.0003.0008c.3913.1766.6748.496.8162.8686.128.3373.1398.7194.0101 1.079v.0113l-.0449.0999c-.1756.3905-.4956.6741-.8694.8158-.3715.141-.7977.1408-1.1881-.0347h-.002l-5.2605-2.3658c-.3905-.1756-.6741-.4956-.8158-.8694-.141-.3715-.1408-.7977.0347-1.1881l.0398-.0887.0076-.007c.183-.3425.4802-.592.822-.7217.3716-.1411.7976-.1409 1.1881.0347h.002zm4.8503 3.276-5.2605-2.3658.0003-.0007c-.1399-.0624-.2937-.0618-.4286-.0106-.1338.0507-.2484.1518-.3107.2904l-.0023.005c-.0608.1389-.0599.2915-.0091.4253.0505.1333.1522.2477.2924.3108l5.2605 2.3658-.0003.0007c.1397.0623.2937.0618.4286.0106.1321-.05.2457-.1504.309-.2885l.0018-.004c.0628-.1397.0625-.2935.0114-.4283-.0509-.134-.1519-.2485-.2905-.3108h-.002z" class="fil3" style="fill:#a86326;fill-rule:nonzero"/>
      <path id="_532356608" d="M78.4423 156.028c1.1531-1.0843 2.2153-1.6622 4.3108-1.4782l.1411-.3355-10.4663-4.5759-.1523.2547c.9226.9511 1.4906 2.2594 1.5514 4.0795l4.6153 2.0554z" class="fil5" style="fill:#a86326"/>
      <path id="_532357328" d="m75.2902 164.41-.9115-.4099-.7664 1.8782 1.1504-.1755.5275-1.2928zm1.1776-2.886-.9115-.4099.3738-.9164.9116.4099-.3739.9164zm1.5514-3.8018-.9122-.4083.1032-.2525c.4181-1.0249 1.2056-1.8891 2.233-2.4348.856-.4547 1.8798-.6886 2.9943-.6093l1.2566-2.9739-9.2848-4.3039-1.5462 3.0923c.6642.8852 1.1412 1.9949 1.3498 3.1325.1877 1.0241.1701 2.0427-.1322 2.9852l-.9176-.4119c.2295-.7624.224-1.5498.0694-2.3937-.1989-1.0846-.6764-2.1367-1.3397-2.9301l-.209-.2501.1465-.2929 1.905-3.81.2166-.4333.4377.2029 10.16 4.7096.4374.2027-.1874.4438-1.5875 3.7571-.1482.3507-.3753-.05c-1.0427-.139-1.9969.051-2.7766.4651-.8203.4357-1.4466 1.1197-1.776 1.927l-.1168.2858zm-6.8011 4.8565-.9146-.4113-2.0233 4.6255 1.1901-.2185 1.7478-3.9957zm.3341-3.2654.9135.4137.3925-.9109-.9094-.4089-.3966.9061z" class="fil3" style="fill:#a86326;fill-rule:nonzero"/>
      <path id="_532357856" d="M126.913 155.464h.002c.3905-.1756.8165-.1758 1.1881-.0347.3418.1297.639.3792.822.7217l.008.007.0398.0887c.1755.3904.1757.8166.0347 1.1881-.1417.3738-.4253.6938-.8158.8694l-5.2605 2.3658h-.002c-.3904.1755-.8166.1757-1.1881.0347-.3738-.1417-.6938-.4253-.8694-.8158l-.0449-.0999v-.0113c-.1297-.3596-.1179-.7417.0101-1.079.1414-.3726.4249-.692.8162-.8686l-.0003-.0008 1.4273-.6388c.5072-.227.9515.6738.4082.9153l-1.4253.6337h-.002c-.1386.0623-.2396.1768-.2905.3108-.0511.1348-.0514.2886.0114.4283l.002.004c.0633.1381.1769.2385.309.2885.1349.0512.2889.0517.4286-.0106l-.0003-.0007 5.2605-2.3658c.1402-.0631.2419-.1775.2924-.3108.0508-.1338.0517-.2864-.009-.4253l-.002-.005c-.0623-.1386-.1769-.2397-.3107-.2904-.1349-.0512-.2887-.0518-.4286.0106l.0003.0007-1.3753.6216c-.516.2331-.9785-.6589-.4376-.902l1.4027-.6298z" class="fil3" style="fill:#a86326;fill-rule:nonzero"/>
      <path id="_532355408" d="m128.448 159.274-5.2605 2.3658.0003.0008c-.3913.1766-.6748.496-.8162.8686-.128.3373-.1398.7194-.0101 1.079v.0113l.0449.0999c.1756.3905.4956.6741.8694.8158.3715.141.7977.1408 1.1881-.0347h.002l5.2605-2.3658c.3905-.1756.6741-.4956.8158-.8694.141-.3715.1408-.7977-.0347-1.1881l-.0398-.0887-.008-.007c-.183-.3425-.4802-.592-.822-.7217-.3716-.1411-.7976-.1409-1.1881.0347h-.002zm-4.8503 3.276 5.2605-2.3658-.0003-.0007c.1399-.0624.2937-.0618.4286-.0106.1338.0507.2484.1518.3107.2904l.002.005c.0608.1389.0599.2915.009.4253-.0505.1333-.1522.2477-.2924.3108l-5.2605 2.3658.0003.0007c-.1397.0623-.2937.0618-.4286.0106-.1321-.05-.2457-.1504-.309-.2885l-.002-.004c-.0628-.1397-.0625-.2935-.0114-.4283.0509-.134.1519-.2485.2905-.3108h.002z" class="fil3" style="fill:#a86326;fill-rule:nonzero"/>
      <path id="_532355168" d="M121.533 156c-1.1531-1.0843-2.2153-1.6622-4.3108-1.4782l-.1411-.3355 10.4663-4.5759.1523.2547c-.9226.9511-1.4906 2.2594-1.5514 4.0795L121.533 156z" class="fil5" style="fill:#a86326"/>
      <path id="_532358504" d="m124.685 164.381.9115-.4099.7445 1.8246-1.1486-.1711-.5074-1.2436zm-1.1776-2.886.9115-.4099-.3738-.9164-.9116.4099.3739.9164zm-1.5514-3.8018.9122-.4083-.1032-.2525c-.4181-1.0249-1.2056-1.8891-2.233-2.4348-.856-.4547-1.8798-.6886-2.9943-.6093l-1.2565-2.9739 9.2847-4.3039 1.5462 3.0923c-.6642.8852-1.1412 1.9949-1.3498 3.1325-.1877 1.0241-.1701 2.0427.1322 2.9852l.9176-.4119c-.2295-.7624-.224-1.5498-.0694-2.3937.1989-1.0846.6764-2.1367 1.3397-2.9301l.209-.2501-.1465-.2929-1.905-3.8099-.2166-.4333-.4377.2029-10.1599 4.7095-.4374.2027.1874.4438 1.5875 3.7571.1481.3507.3753-.05c1.0427-.139 1.9969.051 2.7766.4651.8203.4357 1.4466 1.1197 1.776 1.927l.1168.2858zm6.8011 4.8565.9146-.4113 1.99 4.5493-1.1878-.2133-1.7168-3.9247zm-.3341-3.2654-.9135.4137-.3925-.9109.9094-.4089.3966.9061z" class="fil3" style="fill:#a86326;fill-rule:nonzero"/>
      <path id="_532358984" d="m59.4747 146.737-.0019-.0004c-.3361-.2653-.7493-.3691-1.144-.3227-.3631.0427-.712.2125-.9728.5002l-.0092.005-.0602.0764c-.2652.3359-.369.7493-.3226 1.1439.0465.3971.2438.7764.5798 1.0417l4.5272 3.5742.002.0005c.336.2651.7493.369 1.144.3226.397-.0466.7764-.2438 1.0417-.5799l.0678-.086.0028-.0109c.2132-.3173.2947-.6908.2526-1.0491-.0466-.3958-.2439-.7746-.5805-1.041l.0005-.0007-1.2291-.9668c-.4367-.3435-1.0868.4222-.6185.7886l1.2284.9613.0019.0005c.1193.0941.1894.2297.2062.3721.0168.1432-.0203.2924-.1152.4127l-.0027.003c-.095.1186-.2296.1883-.3699.2047-.1433.0168-.2928-.0201-.4132-.1145l.0005-.0006-4.5272-3.5742c-.1207-.0953-.1915-.231-.2081-.3725-.0167-.1422.0196-.2904.1123-.4104l.0035-.004c.0941-.1192.2299-.1894.372-.2061.1433-.0168.2926.02.4131.1145l-.0004.0007 1.1828.9374c.4438.3516 1.1094-.4012.6438-.7685l-1.2074-.9521z" class="fil3" style="fill:#a86326;fill-rule:nonzero"/>
      <path id="_532357616" d="m57.0596 150.059 4.5272 3.5742-.0005.0007c.3366.2664.5339.6452.5804 1.041.0422.3583-.0393.7318-.2526 1.0491l-.0027.0109-.0679.086c-.2653.3361-.6446.5333-1.0417.5799-.3946.0464-.808-.0575-1.144-.3226l-.0019-.0005-4.5272-3.5742c-.3361-.2653-.5333-.6446-.5799-1.0417-.0464-.3946.0575-.808.3227-1.144l.0601-.0763.0092-.005c.2608-.2878.6098-.4575.9729-.5002.3947-.0465.8079.0573 1.144.3226l.0019.0005zm3.9079 4.3573-4.5272-3.5742.0005-.0006c-.1205-.0945-.2698-.1313-.4131-.1145-.1422.0167-.2779.0868-.372.2061l-.0035.004c-.0928.12-.129.2682-.1123.4103.0166.1416.0874.2773.2081.3726l4.5271 3.5742-.0004.0006c.1203.0944.2698.1313.4131.1145.1403-.0164.2749-.0862.3699-.2047l.0027-.004c.0949-.1202.132-.2694.1153-.4126-.0168-.1424-.0869-.278-.2062-.3721l-.002-.0005z" class="fil3" style="fill:#a86326;fill-rule:nonzero"/>
      <path id="_275388096" d="M64.5626 148.565c1.3822-.7713 2.5531-1.0735 4.5409-.3854l.2185-.2911-9.0392-6.9839-.2097.21c.6636 1.1469.8964 2.5541.5127 4.3343l3.9768 3.1161z" class="fil5" style="fill:#a86326"/>
      <path id="_532357664" d="m140.101 146.708.002-.0005c.3361-.2653.7492-.3691 1.144-.3226.3631.0427.712.2124.9728.5001l.009.005.0602.0764c.2652.336.369.7493.3226 1.144-.0465.397-.2438.7764-.5799 1.0417l-4.5271 3.5741-.002.0005c-.336.2652-.7494.369-1.144.3226-.3971-.0466-.7764-.2438-1.0417-.5799l-.0679-.086-.003-.0109c-.2133-.3173-.2948-.6908-.2526-1.0491.0465-.3958.2438-.7745.5804-1.041l-.0005-.0007 1.2291-.9667c.4368-.3436 1.0868.4221.6185.7885l-1.2283.9613-.002.0005c-.1193.0941-.1894.2298-.2062.3721-.0167.1432.0204.2924.1153.4127l.003.003c.095.1186.2296.1883.3699.2047.1433.0169.2928-.0201.4131-.1145l-.0005-.0006 4.5272-3.5741c.1207-.0953.1915-.231.208-.3726.0168-.1421-.0195-.2904-.1122-.4103l-.004-.004c-.0941-.1193-.2299-.1895-.372-.2061-.1433-.0169-.2926.0199-.4131.1145l.0004.0006-1.1828.9374c-.4438.3516-1.1094-.4011-.6438-.7685l1.2074-.952z" class="fil3" style="fill:#a86326;fill-rule:nonzero"/>
      <path id="_532357352" d="m142.516 150.031-4.5272 3.5741.0005.0007c-.3366.2664-.5339.6452-.5804 1.041-.0422.3583.0393.7318.2526 1.049l.003.011.0679.086c.2653.3361.6446.5333 1.0417.5799.3946.0464.808-.0575 1.144-.3227l.002-.0004 4.5272-3.5742c.336-.2652.5333-.6446.5798-1.0416.0464-.3947-.0574-.808-.3226-1.144l-.0602-.0764-.009-.005c-.2608-.2877-.6097-.4575-.9728-.5001-.3947-.0465-.8079.0573-1.144.3226l-.002.0005zm-3.9079 4.3572 4.5271-3.5741-.0004-.0006c.1205-.0946.2698-.1314.4131-.1146.1421.0167.2779.0869.372.2062l.003.004c.0927.12.129.2682.1122.4104-.0165.1415-.0873.2772-.208.3725l-4.5271 3.5742.0004.0006c-.1203.0944-.2698.1313-.4131.1145-.1403-.0164-.2749-.0861-.3699-.2047l-.003-.004c-.0949-.1202-.132-.2694-.1153-.4126.0168-.1424.0869-.278.2062-.3721l.002-.0005z" class="fil3" style="fill:#a86326;fill-rule:nonzero"/>
      <path id="_532355216" d="M135.013 148.537c-1.3822-.7713-2.553-1.0736-4.5408-.3855l-.2185-.2911 9.0391-6.9839.2097.21c-.6636 1.147-.8964 2.5541-.5127 4.3343l-3.9768 3.1162z" class="fil5" style="fill:#a86326"/>
      <path id="_532357568" d="M93.839 159.646c.7621-1.3873 1.594-2.2649 3.644-2.7367l.0306-.3627-11.3677-1.1216-.0662.2892c1.1711.6199 2.1152 1.689 2.7349 3.4014l5.0244.5304z" class="fil5" style="fill:#a86326"/>
      <path id="_532356512" d="m93.9594 161.387-.9937-.1068.0202-.2721c.0813-1.1039.5636-2.1689 1.3724-3.0051.6738-.6968 1.5754-1.2353 2.66-1.5039l.2772-3.2165-10.1599-1.2277-.5161 3.4186c.905.6369 1.7012 1.5452 2.2508 2.5629.4947.9161.7923 1.8904.7957 2.8802l-.9999-.1086c-.017-.796-.2653-1.5432-.6729-2.2982-.524-.9702-1.3029-1.8235-2.1787-2.3734l-.276-.1734.0489-.3238.6359-4.212.0722-.479.479.0579 11.1176 1.3433.4786.0578-.0412.48-.3502 4.0636-.0327.3794-.3725.0683c-1.0346.1896-1.8836.6649-2.4974 1.2994-.6457.6677-1.0303 1.5116-1.0944 2.3812l-.0229.3079zm-5.5936 2.7976.924.0123.0983-.1763-.9912-.1083-.0311.2723z" class="fil3" style="fill:#a86326;fill-rule:nonzero"/>
      <path id="_532358024" d="M105.837 160.017c-.7621-1.3872-1.594-2.2648-3.6439-2.7366l-.0307-.3627 11.3676-1.1216.0663.2892c-1.1712.6199-2.1153 1.689-2.7349 3.4014l-5.0244.5303z" class="fil5" style="fill:#a86326"/>
      <path id="_532356752" d="m105.716 161.759.9937-.1068-.0202-.272c-.0813-1.1039-.5636-2.169-1.3724-3.0052-.6738-.6967-1.5754-1.2352-2.6599-1.5038l-.2773-3.2165 10.1599-1.2277.5161 3.4186c-.905.6369-1.7012 1.5452-2.2508 2.5628-.4947.9162-.7924 1.8905-.7957 2.8803l.9999-.1086c.017-.796.2653-1.5432.6729-2.2982.5239-.9702 1.3029-1.8235 2.1787-2.3734l.276-.1734-.0489-.3238-.6359-4.212-.0723-.479-.4789.0579-11.1176 1.3433-.4786.0578.0413.48.3502 4.0636.0327.3794.3724.0682c1.0347.1897 1.8836.665 2.4974 1.2995.6458.6677 1.0303 1.5116 1.0944 2.3811l.0229.3079z" class="fil3" style="fill:#a86326;fill-rule:nonzero"/>
      <path id="_532358168" d="m93.4766 22.9145 6.3578-13.162 5.939 13.5096 14.1166 1.6045-11.0998 9.327 3.0499 13.8524-12.0057-7.3573-12.4098 7.099 3.3462-13.879-10.4096-9.0421 13.1154-1.9521zm.8537 1.171 5.4042-11.1876 5.0481 11.4831 11.9991 1.3638-9.4347 7.928 2.5924 11.7745-10.2049-6.2536-10.5483 6.0341 2.8442-11.7972-8.8481-7.6858 11.148-1.6593z" class="fil5" style="fill:#a86326"/>
      <path id="_276230640" d="m94.3303 24.0855 5.4042-11.1876 5.0481 11.4831 11.9991 1.3638-9.4347 7.928 2.5924 11.7745-10.2049-6.2536-10.5483 6.0341 2.8442-11.7972-8.8481-7.6858 11.148-1.6593zm.8538 1.1712 4.4505-9.2134 4.1573 9.4567 9.8816 1.1231-7.7699 6.5289 2.135 9.6967-8.404-5.1501-8.6869 4.9693 2.3423-9.7153-7.2867-6.3295 9.1808-1.3664z" class="fil2" style="fill:#fecc00"/>
      <path id="_532355552" d="m103.792 25.5 9.882 1.1231-7.77 6.5289 2.135 9.6967-8.4044-5.1501-8.6869 4.9693 2.3423-9.7153-7.2867-6.3295 9.1808-1.3664 4.4505-9.2134z" style="fill:#e31e24"/>
      <path id="_532355120" d="m162.329 68.6153-1.0054 3.5454-3.81-1.5346-2.0638-3.175.2646-2.1166c-11.6568-14.9986-26.6343-25.1197-45.2054-30.0994l-.2633-1.1877.4921-.4003c26.2309 8.4466 36.9974 19.2068 45.9291 30.2057l3.3338.4762 2.3283 4.2863zm-6.046-1.2439.2117-2.4606 1.9844.2381 2.2225 3.7042-.2911 1.3758-2.831-.9525-1.2965-1.905z" class="fil5" style="fill:#a86326"/>
      <path id="_532358720" d="m37.1247 68.6497 1.0054 3.5454 3.81-1.5346 2.0638-3.175-.2646-2.1166c11.6568-14.9986 26.6344-25.1197 45.2055-30.0994l.2632-1.1877-.4928-.401c-26.2309 8.4466-36.9967 19.2075-45.9284 30.2064l-3.3338.4762-2.3283 4.2863zm6.046-1.2439-.2117-2.4606-1.9844.2381-2.2225 3.7042.2911 1.3758 2.831-.9525 1.2965-1.905z" class="fil5" style="fill:#a86326"/>
      <path id="_532358432" d="m156.468 71.4195 4.9213 2.2755 1.9166-3.8571 2.4755 5.0212-2.1167 5.0271-6.8792-3.8629c-2.1833-5.1705-6.3058-11.5318-9.9645-15.4913-10.0953-10.9256-21.6069-17.8328-35.5423-21.8229l-.3128-1.4116c16.476 4.4315 26.5703 11.6984 34.6486 19.9549 4.7582 4.8633 7.926 9.2644 10.8535 14.1671zm1.0716 3.2412-.979-2.4077 4.4186 2.0373-.8467 1.7462-2.5929-1.3758zm3.7041 1.9579 1.9844-4.101 1.3229 2.5664-1.1641 2.6723-2.1432-1.1377z" class="fil5" style="fill:#a86326"/>
      <path id="_532356632" d="m42.9855 71.4539-4.9213 2.2755-1.9166-3.8571-2.4755 5.0212 2.1167 5.0271 6.8792-3.8629c2.1833-5.1705 6.3058-11.5318 9.9645-15.4913 10.0953-10.9256 21.5973-17.7892 35.5327-21.7793l.3174-1.4318c-16.476 4.4315-26.5653 11.675-34.6436 19.9315-4.7582 4.8633-7.926 9.2644-10.8535 14.1671zm-1.0716 3.2412.979-2.4077-4.4186 2.0373.8467 1.7462 2.5929-1.3758zm-3.7041 1.9579-1.9844-4.101-1.3229 2.5664 1.1641 2.6723 2.1432-1.1377z" class="fil5" style="fill:#a86326"/>
      <path id="_532358360" d="m155.555 75.8514-1.3229 3.9687-3.228-.9525c-9.3926-15.3554-21.0134-28.0053-38.3117-33.7609l-.3175-1.4817c12.6118 3.708 25.2237 13.137 37.8355 30.9564l.6879-2.2755c-10.467-16.0351-23.9517-24.9182-38.9352-30.5088l-.3512-1.5845c16.3363 5.6723 30.6953 14.7766 40.3977 31.4583l1.905.8467 1.6404 3.3338zm-3.5189 2.0109-1.3494-2.0638.8467-2.5665 1.3758.5027 1.27 2.3548-.7408 2.0109-1.4023-.2381z" class="fil5" style="fill:#a86326"/>
      <path id="_276251976" d="m43.8985 75.8858 1.3229 3.9687 3.228-.9525c9.3926-15.3554 21.0134-28.0053 38.3117-33.7609l.3175-1.4817c-12.6118 3.708-25.2237 13.137-37.8355 30.9564l-.6879-2.2755c10.467-16.0351 23.9518-24.9182 38.9353-30.5088l.3493-1.5762c-16.3363 5.6723-30.6935 14.7683-40.3959 31.45l-1.905.8467-1.6404 3.3338zm3.5189 2.0109 1.3494-2.0638-.8467-2.5665-1.3758.5027-1.27 2.3548.7408 2.0109 1.4023-.2381z" style="fill:#a86326"/>
      <path id="_276252768" d="m139.649 38.2179-1.046-.6049 1.0248-.9464c.6376-.5889 1.8506-.2113 2.5929.2381 30.3345 18.3631 40.64259 47.353034 42.12709 79.60903l-1.48649.43687c-.4964-30.5344-9.5675-58.4656-41.1698-79.2257-.3866-.254-1.0515-.5151-1.3758-.1852z" class="fil5" style="fill:#a86326"/>
      <path id="_276252264" d="m59.8054 38.2523 1.046-.6049-1.0248-.9464c-.6376-.5889-1.8506-.2113-2.5929.2381-30.3345 18.3631-40.6739 47.332057-42.1584 79.58806l1.588451 1.30565C17.160151 87.298407 26.1606 58.5194 57.7629 37.7593c.3866-.254 1.0515-.5151 1.3758-.1852z" class="fil5" style="fill:#a86326"/>
      <path id="_276253200" d="m140.836 64.6793.6733.7948-.5993.6802c-.3161.3587-.1993 1.0842.1323 1.4287 12.1707 12.6457 16.4302 31.153187 16.1326 52.66179l-1.1429.26854c.0814-18.8585-3.1434-37.14113-16.101-52.63923-.3936-.4708-.6315-1.3546-.2381-1.8257z" class="fil5" style="fill:#a86326"/>
      <path id="_276253248" d="m58.6179 64.7137-.6733.7948.5993.6802c.3161.3587.1993 1.0842-.1323 1.4287-12.1707 12.6457-16.4302 31.466331-16.1326 52.97493l1.080271.1746c-.0814-18.8585 3.206029-37.36033 16.163629-52.85843.3936-.4708.6315-1.3546.2381-1.8257z" class="fil5" style="fill:#a86326"/>
      <path id="_276251592" d="m175.12 88.1138-2.858-1.2171-1.164-4.2333 2.593 1.3758 1.694-3.2808 1.111 4.8683z" class="fil5" style="fill:#a86326"/>
      <path id="_276251952" d="m24.334 88.1482 2.8575-1.2171 1.1642-4.2333-2.5929 1.3758-1.6934-3.2808-1.1112 4.8683z" class="fil5" style="fill:#a86326"/>
      <path id="_276251352" d="m176.602 94.0405-2.964-1.3229-1.005-4.0746 2.857 1.3758 1.588-3.0162 1.111 4.0216z" class="fil5" style="fill:#a86326"/>
      <path id="_276251616" d="m22.8523 94.0749 2.9634-1.3229 1.0054-4.0746-2.8575 1.3758-1.5875-3.0162-1.1113 4.0216z" class="fil5" style="fill:#a86326"/>
      <path id="_276252936" d="m177.607 99.7026-2.805-1.5875-.793-3.5454 3.069 1.852 1.852-3.122.317 4.1275z" class="fil5" style="fill:#a86326"/>
      <path id="_276862304" d="m21.8469 99.737 2.8046-1.5875.7938-3.5454-3.0692 1.852-1.8521-3.122-.3175 4.1275z" class="fil5" style="fill:#a86326"/>
      <path id="_276862376" d="m177.925 105.841-2.329-1.588-.423-4.021 2.381 1.746 2.117-2.9104.37 3.9684z" class="fil5" style="fill:#a86326"/>
      <path id="_276862784" d="m21.5294 105.875 2.3284-1.587.4233-4.022-2.3813 1.746-2.1166-2.91-.3704 3.969z" class="fil5" style="fill:#a86326"/>
      <path id="_275658712" d="m178.983 112.826-3.016-1.323-.371-5.292 2.381 1.958 2.54-3.386.424 5.397z" class="fil5" style="fill:#a86326"/>
      <path id="_275658472" d="m20.4711 112.86 3.0162-1.323.3705-5.291-2.3813 1.958-2.54-3.387-.4233 5.398z" class="fil5" style="fill:#a86326"/>
      <path id="_275658736" d="m181.152 111.979.27463 5.74521-4.974.0593-.48563-4.9045 3.016 1.852z" style="fill:#a86326"/>
      <path id="_275658280" d="m18.3015 112.014-.282351 5.34654 5.009526.42402.458625-4.87156-3.0162 1.852z" style="fill:#a86326"/>
      <path id="_276142864" d="m168.003 118.403-1.9209.2934.002-1.8625 1.9184 1.5691zm1.2936-.1975-3.331-2.9459-.4763-6.0854 5.08 3.6512 3.5455-4.7625.7937 7.1967-1.8693 2.3745-3.7426.5714zm2.1591-.6308-2.2754-1.5081 3.6512-4.9213.5027 4.1276-1.8785 2.3018zm-2.1431-4.5508-1.4288 2.3812-.8467-.582-.3968-3.863 2.6723 2.0638zm1.0451-2.368-4.7625-3.175-1.0055-7.2496 5.3976 3.4395 3.0691-4.1275.8996 6.35-3.5983 4.7626zm-.2514-1.5214-2.1166-1.5875 4.101-5.2123.3704 3.8365-2.3548 2.9633zm-3.81-2.5929-.2646-4.6302 2.6988 1.7198-1.905 3.2543-.5292-.3439zm4.0085-5.0403-5.9267-3.4396-1.1113-5.6092 5.2917 3.175 2.9105-4.7625 1.1112 5.8737-2.2754 4.7626zm-.3572-1.786-2.3548-1.27 2.9633-4.6831.6879 3.5189-1.2964 2.4342zm-2.3019-3.9158-1.3758 2.1431-.5292-.2381-1.0848-3.5984 2.9898 1.6934zm-4.5376-4.9874-1.3759-4.7096 4.9213 2.0637 2.54-4.8154 1.7992 5.08-2.4871 5.3446-5.3975-2.9633zm5.0138 1.1774-2.2489-1.1907 2.7517-4.8948 1.0054 2.9634-1.5082 3.1221zm-2.249-3.4131-1.0583 1.9579-.7408-.4234-1.2964-2.8046 3.0955 1.2701zm.1456-2.4739-5.08-1.5875-1.4817-4.8684 4.7096 2.0109 2.4871-5.3976 1.8521 5.133-2.4871 4.7096zm-.4896-1.1377-1.9578-.5954 2.5929-5.2387 1.0054 2.4871-1.6405 3.347zm-1.8784-2.8443-.7541 2.0241-.8863-.2514-.9261-2.8046 2.5665 1.0319z" class="fil5" style="fill:#a86326"/>
      <path id="_276142744" d="m31.4512 118.438 1.9209.2934-.0025-1.8625-1.9184 1.5691zm-1.2936-.1975 3.331-2.9459.4763-6.0854-5.08 3.6512-3.5455-4.7625-.7937 7.1967 1.8693 2.3745 3.7426.5714zm-2.1591-.6308 2.2754-1.5081-3.6512-4.9213-.5027 4.1276 1.8785 2.3018zm2.1431-4.5508 1.4288 2.3812.8467-.582.3968-3.863-2.6723 2.0638zm-1.0451-2.368 4.7625-3.175 1.0055-7.2496-5.3976 3.4395-3.0691-4.1275-.8996 6.35 3.5983 4.7626zm.2514-1.5214 2.1166-1.5875-4.101-5.2123-.3704 3.8365 2.3548 2.9633zm3.81-2.5929.2646-4.6302-2.6988 1.7198 1.905 3.2543.5292-.3439zm-4.0085-5.0403 5.9267-3.4396 1.1113-5.6092-5.2917 3.175L27.9852 90.9l-1.1112 5.8737 2.2754 4.7626zm.3572-1.786 2.3548-1.27-2.9633-4.6831-.6879 3.5189 1.2964 2.4342zm2.3019-3.9158 1.3758 2.1431.5292-.2381 1.0848-3.5984-2.9898 1.6934zm4.5376-4.9874 1.3759-4.7096-4.9213 2.0637-2.54-4.8154-1.7992 5.08 2.4871 5.3446 5.3975-2.9633zm-5.0138 1.1774 2.2489-1.1907-2.7517-4.8948-1.0054 2.9634 1.5082 3.1221zm2.249-3.4131 1.0583 1.9579.7408-.4234 1.2964-2.8046-3.0955 1.2701zm-.1456-2.4739 5.08-1.5875 1.4817-4.8684-4.7096 2.0109-2.4871-5.3976-1.8521 5.133 2.4871 4.7096zm.4896-1.1377 1.9578-.5954-2.5929-5.2387-1.0054 2.4871 1.6405 3.347zm1.8784-2.8443.7541 2.0241.8863-.2514.9261-2.8046-2.5665 1.0319z" class="fil5" style="fill:#a86326"/>
      <path id="_276143560" d="m159.265 110.451-.3969-.2381-.1323-2.5135 1.6933 1.3493-1.1641 1.4023zm2.2754 2.9369-3.0163-2.0637-.3439-4.9478 2.6988 2.249 2.7781-3.4925.3704 5.1065-2.4871 3.1485zm1.561-3.5454-1.852 2.3283-1.5082-.8996 3.175-4.101.1852 2.6723zm-1.9843-3.2544-3.0427-2.0637-1.1907-5.9796 3.2279 2.0108 2.593-3.2015.8202 5.8473-2.4077 3.3867zm-.344 8.1757-1.9844 3.0162-.1323-4.8419 2.1167 1.8257zm-2.5482 5.1325 6.173-7.7519.1008 6.7939-6.2738.958zm4.0563-1.0315-2.0637-.0265 3.3866-4.392.053 2.8575-1.3759 1.561zm-3.5189-14.5521 2.8839-4.4715 1.0584 2.9369-2.0902 2.6988-1.8521-1.1642zm-.6086-1.5346-.3704-2.884 1.9315 1.1113-1.2171 2.0108-.344-.2381zm1.2965-5.3711-1.5611-.9789 2.5136-4.2598.8202 2.3283-1.7727 2.9104zm.635 1.0584-3.8629-2.249-.8996-4.789 3.7042 1.8786 2.0902-3.6777 1.1377 4.9477-2.1696 3.8894zm-1.905-4.4186-.9261 1.958-.582-.2911-.6086-2.8575 2.1167 1.1906zm1.5346-6.2971-1.5081 2.9105-.8467-2.7782 1.6669-2.8046.6879 2.6723zm-1.3494 4.2069-3.2808-2.4871-1.0055-3.3602 2.9369 1.1377 2.2225-3.9687 1.3494 4.3127-2.2225 4.3656zm-2.884-2.8046-.582-1.9314 1.7462.6614.9525 2.8311-2.1167-1.5611zm-2.2489-4.6302-1.2171-3.9158 3.0162.8202 1.2965-3.9159 2.1696 4.1275-2.0373 4.3657-3.2279-1.4817zm3.0427.0264-.7806-2.6061.7806-2.6326 1.27 2.2225-1.27 3.0162zm-3.4396-2.7516 1.9401.5525.9174 2.5167-2.0108-.688-.8467-2.3812zm6.3301 34.7599-.1191-2.5665 1.0584.8599-.9393 1.7066z" class="fil5" style="fill:#a86326"/>
      <path id="_276091168" d="m40.1892 110.486.3969-.2381.1323-2.5135-1.6933 1.3493 1.1641 1.4023zm-2.2754 2.9369 3.0163-2.0637.3439-4.9478-2.6988 2.249-2.7781-3.4925-.3704 5.1065 2.4871 3.1485zm-1.561-3.5454 1.852 2.3283 1.5082-.8996-3.175-4.101-.1852 2.6723zm1.9843-3.2544 3.0427-2.0637 1.1907-5.9796-3.2279 2.0108-2.593-3.2015-.8202 5.8473 2.4077 3.3867zm.344 8.1757 1.9844 3.0162.1323-4.8419-2.1167 1.8257zm2.5482 5.1325-6.173-7.7519-.1008 6.7939 6.2738.958zm-4.0563-1.0315 2.0637-.0265-3.3866-4.392-.053 2.8575 1.3759 1.561zm3.5189-14.5521-2.8839-4.4715-1.0584 2.9369 2.0902 2.6988 1.8521-1.1642zm.6086-1.5346.3704-2.884-1.9315 1.1113 1.2171 2.0108.344-.2381zM40.004 97.442l1.5611-.9789-2.5136-4.2598-.8202 2.3283 1.7727 2.9104zm-.635 1.0584 3.8629-2.249.8996-4.789-3.7042 1.8786-2.0902-3.6777-1.1377 4.9477 2.1696 3.8894zm1.905-4.4186.9261 1.958.582-.2911.6086-2.8575-2.1167 1.1906zm-1.5346-6.2971 1.5081 2.9105.8467-2.7782-1.6669-2.8046-.6879 2.6723zm1.3494 4.2069 3.2808-2.4871 1.0055-3.3602-2.9369 1.1377-2.2225-3.9687-1.3494 4.3127 2.2225 4.3656zm2.884-2.8046.582-1.9314-1.7462.6614-.9525 2.8311 2.1167-1.5611zm2.2489-4.6302 1.2171-3.9158-3.0162.8202-1.2965-3.9159-2.1696 4.1275 2.0373 4.3657 3.2279-1.4817zm-3.0427.0264.7806-2.6061-.7806-2.6326-1.27 2.2225 1.27 3.0162zm3.4396-2.7516-1.9401.5525-.9174 2.5167 2.0108-.688.8467-2.3812zm-6.3301 34.7599.1191-2.5665-1.0584.8599.9393 1.7066z" class="fil5" style="fill:#a86326"/>
      <path id="_275993064" d="m155.84 143.213-1.0054-2.6988 1.4287-3.4925 1.3759 2.9633 4.0216-.7408-1.4816 3.7042-2.8046.7937c-4.1464 9.7654-10.5006 19.1444-20.2917 27.9222l-.9363-1.4901c7.2844-5.9111 13.9612-14.4176 19.6934-26.9612zm-.2513-2.5533.7408-1.7727 1.0319 1.8786 2.1167-.3705-.7938 1.6934-2.3018.3704-.7938-1.7992z" class="fil5" style="fill:#a86326"/>
      <path id="_275993232" d="M134.678 167.838c7.8546-7.0044 14.3171-15.9576 19.3492-26.9132l.5556 1.4288c-4.7492 10.4575-11.1595 19.3259-19.1543 26.6789l-.7505-1.1945z" class="fil5" style="fill:#a86326"/>
      <path id="_275995536" d="M138.025 173.164c8.8607-7.7992 15.829-17.2879 20.7386-28.6148l1.8521-.5821c-5.1299 13.1436-13.1229 23.4244-23.3328 31.4881l.7421-2.2912z" class="fil5" style="fill:#a86326"/>
      <path id="_275993208" d="m135.813 180.438.9489-3.1202c9.106-6.6831 16.5295-15.1137 22.1074-25.8889l1.7089-.4053 3.4241-7.9556-1.5346-2.8045 1.4816-3.9688 2.2755 2.9104 3.5454-1.27-1.7992 4.8154-2.2225.635-3.2808 7.27493 4.5773-1.59622 3.8364-10.33531 2.0109 3.0691-2.4642 6.15579 2.2589-.71039 1.687-4.6516 2.54-1.0054-1.6934 4.8683 1.4377-.386 5.2234-14.7243 1.0319.2646-4.0946 12.6232c.7192.4288 2.4053 1.4618.7515 1.9372l-8.2388 2.50629-2.06691.68729-9.41679 3.15072c-5.5592 11.6191-14.3727 19.9836-24.035 27.9243zm27.5601-40.7502.8202-1.6933 1.6669 2.2754 2.3284-.8202-.979 2.3813-1.9579.6085z" class="fil6" style="fill:#356db9;fill-opacity:1"/>
      <path id="_275995752" d="m170.66007 149.91644 10.31693-2.86754c1.69021-.46979-.3152-2.904-1.844-3.7841v.0002l.3866-1.1917c1.6293 1.2245 3.7918 3.4145 2.9829 5.2608l-6.5617 14.9755-4.9213 2.3812c-8.3448 16.8204-21.8699 27.8246-38.2588 35.613l-1.4094 3.7069-7.3748 1.3202-4.6567-1.4817-.5026-3.6513.0003-.003 3.2328-2.326-.2434 4.181c11.0895-5.1409 15.2638-7.7215 24.5812-14.3947 12.2083-8.7436 19.67374-21.736 23.9435-36.67z" class="fil6" style="fill:#356db9;fill-opacity:1"/>
      <path id="_275994048" d="m39.4236 143.173-1.3229-3.3337 3.81.5821 1.6404-3.5455 1.7463 3.3867-1.1113 3.6513c5.2853 11.1085 11.9302 19.8003 19.7554 26.3932l-1.0916 1.3316c-9.0016-8.6046-15.6417-17.6386-19.9867-27.0898l-3.4396-1.3759zm1.1903-1.0588-.5556-1.5082 2.5136.3704.9525-2.1431 1.0318 1.614-1.0583 2.6987-2.884-1.0318z" class="fil5" style="fill:#a86326"/>
      <path id="_275995560" d="M64.5588 169.553c-7.9194-7.8129-14.3053-16.5749-19.2614-26.2221l.4762-1.6933c5.1087 10.263 11.4137 19.1655 19.6269 26.8887l-.8417 1.0267z" class="fil5" style="fill:#a86326"/>
      <path id="_275993568" d="M61.9415 175.513c-11.0661-9.9647-18.4542-20.3473-23.3116-31.0172l1.7992.3704c5.9876 12.0923 13.1658 21.3839 21.5524 27.8319l-.6859.8367.6459 1.9782z" class="fil5" style="fill:#a86326"/>
      <path id="_275996496" d="M20.2149 143.331c-1.3808-3.0195-2.6465-6.7638-3.6747-11.6883l1.5284-.392c.9336 5.571 3.0643 11.0423 5.6917 16.4724l1.3229.3704-1.7463-4.5508 1.958.9525 1.4816 3.8629 1.7992.6879-1.7992-5.2917 1.958-4.4979 4.7625 11.3242 4.2862.7937-3.5454-7.0908-2.8575-1.3229-1.6933-3.9688 3.4925 1.2171 2.3283-3.2808 1.7462 3.5454-1.5875 3.7042 3.4396 7.4612 1.905.4234c6.0543 12.7762 13.8828 19.9515 21.9221 26.4881l.7406 2.2683c-13.7447-11.0865-19.967-19.6475-23.8267-27.9098l-10.404355-2.51946c1.0942 7.807 4.828455 13.79206 9.292655 20.32036 8.8751 12.9788 23.979 24.4786 39.8995 30.7238l3.509 1.8561 42.5815 13.0664-.7408 1.6933-23.8221-7.5978-25.2317-7.0601c-14.3316-4.0102-35.2779-22.6837-45.2438-37.9942l-5.4505-2.3813-6.6368-14.4625c-.8813-1.9205 1.4116-3.9468 2.6152-5.2225zm9.224973 7.06528.276771 1.56817L19.2354 148.5956c-1.1595-.3535-1.18-1.384-.7409-1.905l1.9844-2.3548.7409 1.7728c-.9262.141-1.1053.9015.0793 1.2964zM34.555 143.1717l-2.8311-.9525-.926-2.1696 2.4606.8996 1.6934-2.0638.926 1.5876z" class="fil6" style="fill:#356db9;fill-opacity:1"/>
      <path id="_274843520" d="m37.7832 151.375-3.5454-7.0908-2.8575-1.3229-1.6933-3.9688 3.4925 1.2171 2.3283-3.2808 1.7462 3.5454-1.5875 3.7042 3.4396 7.4612-1.3229-.2646zm-3.2282-8.2026-2.8311-.9525-.926-2.1696 2.4606.8996 1.6934-2.0638.926 1.5876-1.3229 2.6987z" class="fil5" style="fill:#a86326"/>
      <path id="_276971344" d="m82.1439 203.29-3.509-1.8561-.2908-1.985-12.0214-10.5156.9546-1.4862 11.8605 9.6206-.2645-5.08-1.2578-3.5173-.162999-1.98486c12.7844 5.6182 28.267099 11.40096 41.615799 15.53746l.2513 1.8257c-13.5351-4.4986-27.0701-9.4615-40.6051-15.0889l1.1113 2.6458c15.6082 6.4152 31.25664 12.63852 47.28814 17.92472l1.28936-2.42012-4.427-1.5798 2.4346-.436 2.6274.9575.6217-.9526-1.2368-.365 2.9279-.5241-6.6257 12.3462-1.7018-.5222.84836-1.63215c-14.0936-4.2329-28.938449-9.38987-43.032049-14.61037zm42.3893 9.60944c-15.4414-4.8717-29.584781-9.60911-44.320581-15.89191l-.715066-3.7545c15.1869 6.286 31.041837 12.03296 46.652037 17.33136z" class="fil5" style="fill:#a86326"/>
      <path id="_276971536" d="m76.716262 183.54511 2.750377-.5595c12.2721 5.932 30.540481 13.12961 40.761181 15.44701l-.66983 1.93222c-13.9213-3.8327-32.730628-12.07013-42.841728-16.81973z" class="fil5" style="fill:#a86326"/>
      <path id="_276971440" d="M120.20106 197.05329c-10.5112-2.8289-27.288873-9.26046-37.728973-14.34786l2.142873-.69656c9.4318 4.8223 24.81974 10.87573 35.59214 13.36953z" class="fil5" style="fill:#a86326"/>
      <path id="_530362504" d="m133.614 186.252-.173 2.517-13.505 10.079-.086-.315.589-5.033 3.022-10.796 8.89.847z" class="fil1" style="fill:#4c7ec2;fill-opacity:1"/>
      <path id="_276971752" d="M120.95109 194.79252c-9.8934-2.9392-25.459272-8.51307-34.717672-12.86327l3.280636-.0449 10.155046 4.33582 10.23826-5.55117 2.03109.82312-10.89345 5.31005 2.9404 1.10377 10.91288-6.84934 2.14464.7072-11.17022 6.75467 2.68099.93988 10.43919-7.45503 3.23343.54185-11.41354 7.67578 3.00368 1.16371 8.73343-5.84079-.69769 1.70804.12846 1.21511-5.5219 3.69247 2.13684.80631 2.60459-1.82472z" class="fil5" style="fill:#a86326"/>
      <path id="_276233064" d="m100.162 210.452-22.4648 7.7022-2.3283-5.5034-2.3283-.9525c-1.2675-3.4287-3.0349-7.1576-5.7134-11.433l4.9972 2.266-2.1414.6475 1.4817 2.4342 4.0351-2.0058 1.8059.5053-5.2589 2.1355.8996 1.5875 6.1867-3.2117 1.7077.4778-7.230313 3.8073 1.461134.93413 8.435284-3.50331-1.321505-.86182zm-23.56869.90073-.192243-.35183 8.687111-3.5057 3.293483.86069-10.643609 4.44166zm1.52729 3.20317 13.036958-5.35535 4.919799 1.30355-16.845557 6.1155-.7781-2.1825" class="fil5" style="fill:#a86326"/>
      <path id="_276232416" d="m28.076 135.665-1.411301-4.16413 1.539271.35924.94353 2.94489 3.347 1.442 2.024176-3.52446 1.062675.21893L32.6798 137.57z" style="fill:#a86326"/>
      <path id="_531105400" d="m171.378 135.63 1.13714-4.12243-1.379.31188-.83014 2.95055-3.347 1.442-.81086-3.66885-1.36372.34386 1.98958 4.64799z" style="fill:#a86326"/>
      <path id="_276219120" d="m38.5932 136.922 1.958.529.876826-3.33738 1.024227.0937-1.411653 4.52671-3.6512-1.058-1.808049-4.6992 2.089445.51561z" style="fill:#a86326"/>
      <path id="_531105424" d="m160.861 136.887-1.958.529-.92243-3.20813-1.11271.17428 1.54514 4.31685 3.652-1.058 1.61229-4.66543-1.66215.38016z" style="fill:#a86326"/>
      <path id="_276217728" d="m19.6093 133.918-1.0054-2.804 6.649246.43894L23.631 136.194z" style="fill:#a86326"/>
      <path id="_276220392" d="m179.845 133.884 1.005-3.29214-7.71971.97672 2.69271 4.59042z" style="fill:#a86326"/>
      <path id="_275718344" d="m23.3369 143.543 1.958.952 1.4816 3.863-1.6933-.264z" class="fil5" style="fill:#a86326"/>
      <path id="_530363800" d="m28.5757 149.046-1.7992-5.291 1.958-4.498 4.7625 11.324z" class="fil5" style="fill:#a86326"/>
      <path id="_530365312" d="M17.880713 130.74997c1.0218 5.4358 3.149587 11.43043 5.879587 16.97343l-2.057-.6845-.4835-.93-.7409-1.7728-.264-1.0048c-1.6155-3.4954-2.8673-7.92746-3.6747-12.25196l1.165213-.22164z" class="fil5" style="fill:#a86326"/>
      <path id="_276232200" d="m162.42772 150.70071-1.84922.32289 3.4241-7.9556-1.5346-2.8045 1.4816-3.9688 2.2755 2.9104 3.5454-1.27-1.7992 4.8154-2.2225.635zm4.78218-8.86971-1.9579.6085-1.8786-2.7517.8202-1.6933 1.6669 2.2754 2.3284-.8202z" class="fil5" style="fill:#a86326"/>
      <path id="_276233040" d="m172.892 141.798-2.34285 6.1147-3.75815 1.28017 4.091-10.46387z" style="fill:#a86326"/>
      <path id="_276217944" d="m176.914 141.586-1.69128 4.90714-2.53572.74986 1.687-4.652z" style="fill:#a86326"/>
      <path id="_530362480" d="m178.819 144.232-.481 1.555-1.68.281 5.26829-14.94543 1.011.328z" style="fill:#a86326"/>
      <path id="_31578216" d="m124.725 216.356-.74 1.694-23.823-7.598-17.9305-5.017-.0876-2.145z" class="fil5" style="fill:#a86326"/>
      <path id="_276230208" d="m43.806631 134.84741 1.429555.23021C51.543133 148.44637 60.5322 161.6029 67.6293 166.8783l-.946.0845-.3876.4722c-8.2391-7.2759-17.930971-20.88784-22.489069-32.58759z" class="fil5" style="fill:#a86326"/>
      <path id="_531105256" d="M153.174 139.546c-4.3656 10.5983-10.9678 19.7255-19.633 27.4961l-1.5809-.2994c6.7169-5.1792 13.77791-14.32575 20.68591-28.11585z" class="fil5" style="fill:#a86326"/>
      <path id="_532357448" d="m46.634698 139.04207 2.1696-1.5345.1588-12.9117-5.9796-4.3921-17.6742-2.6988-9.1546-.5821-8.5196004-4.69666 3.2626264 9.61435-8.0781264 1.23355 11.2184004 7.28966 2.0638 1.2171 2.0637-.5292c8.613482.61198 17.462586 2.11985 25.635604 3.84745l2.039896 4.61925z" class="fil6" style="fill:#356db9;fill-opacity:1;stroke:none"/>
      <path id="_276217992" d="m42.83326 121.05622-6.244099-1.1113-4.5243-.8202-6.7998-.9525.9261 12.3826 17.674 2.8311 2.347899 1.159c1.112001.5489 1.5523 1.7092.1392 2.3335l.3439 1.0583 1.455201-.926.0528-12.1709-3.571802-2.6194" class="fil1" style="fill:#4c7ec2;fill-opacity:1;fill-rule:evenodd"/>
      <path id="path3960" d="m152.39824 139.01076-2.1696-1.5345-.1588-12.9117 5.9796-4.3921 17.6742-2.6988 9.1546-.5821 8.5196-4.69666-3.26262 9.61435 8.07812 1.23355-11.2184 7.28966-2.0638 1.2171-2.0637-.5292c-8.61348.61198-17.46258 2.11985-25.6356 3.84745l-2.0399 4.61925z" class="fil6" style="fill:#356db9;fill-opacity:1;stroke:none"/>
      <path id="path3962" d="m156.49678 121.02491 6.2441-1.1113 4.5243-.8202 6.7998-.9525-.9261 12.3826-17.674 2.8311-2.3479 1.159c-1.112.5489-1.5523 1.7092-.1392 2.3335l-.3439 1.0583-1.4552-.926-.0528-12.1709 3.5718-2.6194" class="fil1" style="fill:#4c7ec2;fill-opacity:1;fill-rule:evenodd"/>
      <path id="_275993520" d="m122.47857 182.6172 1.93438.28113c-1.372 3.084-2.49813 11.0877-2.88143 14.3835l11.76368-9.30083.3764 1.5225-14.72964 12.44771c.3983-4.2733 1.92381-15.06051 3.53661-19.33401z" class="fil6" style="fill:#356db9;fill-opacity:1"/>
      <path id="_276217440" d="m79.6204 192.967-.1592 5.7647-11.7173-9.6936-.0571-.1957c-.1385-.1661-.1532-.195-.1588-.2117l-1.1993-2.6443 2.0989-2.1182 8.3608-.7409 1.4817 6.0326 1.3503 3.8071z" class="fil1" style="fill:#4c7ec2;fill-opacity:1"/>
      <path id="_275454672" d="M99.9252 181.2606c-9.29225.40639-23.305978 2.46648-24.5005 2.5929-1.194522.12642-4.6363.699-6.7463 1.4129l-2.3554 3.6671-5.0271-15.3988 5.2917-6.4558c22.3502-4.3784 44.9073-4.4059 67.6806.1058l3.7571 5.9796-3.4355 11.6686c-.448 1.522-.6455 3.119-.9176 4.6706l-.99211-.82615c-.1315-1.3912-.56479-3.75801-2.05349-4.23091-1.9659-.6245-3.34717-.89865-6.21498-1.18041 0 0-15.19417-2.41182-24.48642-2.00543z" style="fill:#356db9;fill-opacity:1;stroke:none"/>
      <path id="_272468608" d="M130.9349 182.46031c-19.6489-4.135-39.864997-3.9439-60.642597.5291l-3.0692-14.2875c22.3821-4.2847 44.557797-4.447 66.516397-.2646z" class="fil1" style="fill:#4c7ec2;fill-opacity:1"/>
      <path id="_275454552" d="m77.7419 176.879.0553 1.4518-4.9766 1.2998 2.54-5.2917c1.2639-2.6331-1.3847-3.7306-2.4342-.9525l-1.2171-1.0583c1.0848-1.7199 2.182-2.6955 4.0243-2.0187 1.6993.6243 1.8893 2.7486 1.4234 3.7371l-1.5847 3.3616 2.1696-.5291z" class="fil2" style="fill:#fff"/>
      <ellipse id="_276090976" cx="87.826103" cy="172.674" class="fil2" rx="1.2038" ry="1.1774" style="fill:#fff"/>
      <ellipse id="_275992776" cx="102.486" cy="171.867" class="fil2" rx="1.2038" ry="1.1774" style="fill:#fff"/>
      <path id="_275995824" d="m99.4165 168.666.0529 8.096h-1.6669l.0529-8.07z" class="fil2" style="fill:#fff"/>
      <path id="_275995320" d="m96.7177 176.498-1.2842.94-2.5787-3.295-3.1486 3.678-1.2435-1.032 3.3867-3.81-2.3019-3.334 1.2965-1.058 2.0108 2.857 2.1167-2.884 1.4023.82-2.6459 3.625z" class="fil2" style="fill:#fff"/>
      <path id="_275995776" d="m104.576 170.862 2.513-2.54 1.35.291-.291 8.493-1.852-.079.449-6.218-1.084 1.006z" class="fil2" style="fill:#fff"/>
      <path id="_275995392" d="M82.1833 170.363c.8798 0 1.5925.7342 1.5925 1.64 0 .9058-.7127 1.6401-1.5925 1.6401-.8794 0-1.5921-.7343-1.5921-1.6401 0-.9058.7127-1.64 1.5921-1.64zm3.0274 1.4759c.3642 2.9468-1.9954 5.6219-5.9043 6.6698l-.1913-1.5582c1.2754-.1458 2.1413-.7013 2.7608-1.5034-1.3394.0273-3.8981-1.9206-2.8927-4.6994 1.0128-2.7989 5.6888-3.2671 6.2275 1.0912z" class="fil2" style="fill:#fff"/>
      <path id="_275992632" d="M113.191 169.957c.8215.0949 1.408.8574 1.3103 1.7033-.0976.846-.8424 1.4548-1.664 1.36-.8213-.0948-1.4077-.8574-1.3101-1.7034.0977-.8458.8425-1.4547 1.6638-1.3599zm2.6681 1.7048c.0224 2.7913-2.4696 5.0351-6.2332 5.5923l-.0107-1.4758c1.2068.001 2.0755-.4241 2.7405-1.1064-1.2538-.1189-3.4334-2.2139-2.1948-4.7006 1.2476-2.5048 5.665-2.4379 5.6982 1.6905z" class="fil2" style="fill:#fff"/>
      <path id="_275992608" d="m120.279 178.561.1588-2.2754-4.1804-.2646-.2117-1.5346 4.9213-5.9266 1.6933.2116-.5821 6.0854 1.1642.053-.1059 1.905h-.8995l-.1588 2.0637-1.7992-.3175zm.3175-6.8792.2117 3.0692-2.4871-.2117 2.2754-2.8575z" class="fil2" style="fill:#fff"/>
      <path id="_275995152" d="M127.529 174.249c1.6434 2.4603-.7878 6.2267-3.9687 3.122l.8466-1.0847c2.5265 1.9611 3.3191-1.6987.4234-1.5875v-1.7463c2.6987 1.2965 3.2335-2.2663.1587-1.5345l-.0529-1.7463c3.329-.2411 4.6348 2.1462 2.5929 4.5773z" class="fil2" style="fill:#fff"/>
      <path id="_276218088" d="M77.094164 183.3232c2.584427 6.87478 2.944475 10.45296 4.372036 17.3958l.6777 2.571-3.509-1.856-.2908-1.985-12.0214-10.516.911873-1.71388L79.1378 197.068l-1.016047-5.08-3.136667-8.52831z" style="fill:#356db9;fill-opacity:1"/>
    </g>
  </g>
</svg>