<?xml version="1.0" encoding="UTF-8" standalone="no"?>
<svg
   width="160"
   height="160"
   viewBox="0 0 200.286 184.946"
   version="1.1"
   id="svg6"
   sodipodi:docname="JPZzozadjem.svg"
   inkscape:version="1.1.2 (0a00cf5339, 2022-02-04)"
   xmlns:inkscape="http://www.inkscape.org/namespaces/inkscape"
   xmlns:sodipodi="http://sodipodi.sourceforge.net/DTD/sodipodi-0.dtd"
   xmlns="http://www.w3.org/2000/svg"
   xmlns:svg="http://www.w3.org/2000/svg">
  <defs
     id="defs10" />
  <sodipodi:namedview
     id="namedview8"
     pagecolor="#505050"
     bordercolor="#eeeeee"
     borderopacity="1"
     inkscape:pageshadow="0"
     inkscape:pageopacity="0"
     inkscape:pagecheckerboard="0"
     showgrid="false"
     inkscape:zoom="1.8101934"
     inkscape:cx="12.982039"
     inkscape:cy="94.741261"
     inkscape:window-width="1920"
     inkscape:window-height="1022"
     inkscape:window-x="0"
     inkscape:window-y="0"
     inkscape:window-maximized="1"
     inkscape:current-layer="layer1" />
  <g
     inkscape:groupmode="layer"
     id="layer1"
     inkscape:label="Layer 1">
    <circle
       style="fill:#000000;fill-opacity:1;fill-rule:evenodd;stroke:#fffdfd;stroke-width:0;stroke-linejoin:round;stroke-miterlimit:4;stroke-dasharray:none"
       id="path1853"
       cx="100.13146"
       cy="92.461464"
       r="100.13146"
       inkscape:export-filename="/home/janezpavel/Pisarna/spletna_mesta/MOJE-SPLETNO-MESTO/images/favicon.png"
       inkscape:export-xdpi="960.1106"
       inkscape:export-ydpi="960.1106" />
  </g>
  <g
     inkscape:groupmode="layer"
     id="layer2"
     inkscape:label="Layer 2">
    <g
       style="display:inline;fill:#ffffff;fill-opacity:1;stroke-width:1.00018;stroke-miterlimit:4;stroke-dasharray:none"
       id="g4"
       transform="matrix(0.94106798,0,0,0.94106798,5.8903221,5.4376177)">
      <path
         style="fill:#ffffff;fill-opacity:1;stroke-width:1.00018;stroke-miterlimit:4;stroke-dasharray:none"
         d="m 104.674,210.28 -9.097,-9.097 -6.06,6.059 -6.059,6.06 -3.037,-3.039 -3.038,-3.038 9.08,-9.08 9.08,-9.08 H 45.535 l 26.54,-26.546 26.54,-26.545 -1.536,-1.497 -1.536,-1.496 -26.527,26.523 -26.527,26.522 -1.482,-1.516 c -3.775,-3.864 -5.546,-5.696 -7.092,-7.336 C 17.227,159.47 7.704,145.89 5.217,136.25 c -1.21,-4.691 -0.863,-10.232 0.99,-15.79 1.699,-5.097 4.565,-10.096 8.84,-15.423 3.371,-4.2 7.977,-8.867 12.227,-12.39 7.033,-5.829 14.255,-9.477 20.998,-10.607 4.438,-0.744 8.947,-0.517 13.093,0.659 11.322,3.209 25.58,12.759 42.257,28.304 0.478,0.444 0.891,0.809 0.92,0.81 0.028,0 7.213,-7.173 15.966,-15.94 L 136.424,79.933 81.899,79.915 27.374,79.898 34.952,72.32 42.53,64.742 h 53.013 l -7.578,-7.578 -7.577,-7.579 7.577,-7.578 7.578,-7.578 9.097,9.097 9.098,9.097 6.059,-6.059 6.06,-6.059 3.037,3.038 3.037,3.038 -9.08,9.08 -9.08,9.08 h 50.009 l -26.54,26.545 -26.54,26.544 1.535,1.495 1.536,1.495 26.528,-26.52 26.529,-26.52 1.601,1.635 c 6.117,6.25 9.362,9.693 13.283,14.098 13.381,15.03 20.977,26.846 22.66,35.248 0.485,2.426 0.556,5.402 0.196,8.275 -0.764,6.103 -3.472,12.418 -8.059,18.795 -3.846,5.346 -9.652,11.442 -15.036,15.786 -3.795,3.062 -6.921,5.088 -10.666,6.912 -4.634,2.257 -9.022,3.433 -13.549,3.632 -5.12,0.225 -9.614,-0.74 -15.578,-3.344 -9.785,-4.273 -21.875,-12.95 -35.046,-25.152 a 173.773,173.773 0 0 0 -1.525,-1.4 l -0.33,-0.295 -15.969,15.97 -15.968,15.968 H 181.94 l -7.578,7.578 -7.578,7.578 -26.532,0.017 -26.532,0.018 7.565,7.6 7.565,7.6 -7.54,7.539 -7.54,7.54 z m -32.637,-65.878 17.354,-17.355 -0.496,-0.461 c -8.602,-7.999 -17.792,-15.358 -25.3,-20.257 -3.967,-2.589 -6.638,-4.163 -9.11,-5.37 -3.704,-1.807 -7.106,-2.842 -10.411,-3.167 -1.054,-0.104 -3.329,-0.086 -4.339,0.034 -3.886,0.46 -7.383,2.025 -10.692,4.783 -0.834,0.695 -2.495,2.348 -3.246,3.23 -2.748,3.226 -4.266,6.306 -4.772,9.681 -0.15,1 -0.15,2.947 -0.002,4.006 0.422,3 1.703,6.037 3.815,9.045 0.582,0.828 2.105,2.79 3.522,4.534 5.168,6.363 11.203,13.127 18.443,20.67 2.292,2.389 7.783,7.982 7.835,7.982 0.023,0 7.854,-7.81 17.399,-17.355 z m 97.251,11.61 c 4.751,-0.494 8.898,-2.598 12.753,-6.47 6.556,-6.586 8.053,-13.493 4.506,-20.802 -0.88,-1.813 -1.786,-3.207 -3.58,-5.508 -5.066,-6.5 -12.265,-14.668 -20.39,-23.131 -1.632,-1.702 -7.416,-7.615 -7.739,-7.913 l -0.177,-0.165 -17.357,17.357 c -9.546,9.546 -17.35,17.376 -17.34,17.4 0.028,0.069 2.703,2.513 4.557,4.161 9.126,8.119 17.582,14.485 25.825,19.443 5.566,3.349 10.079,5.089 14.502,5.591 0.956,0.109 3.55,0.13 4.44,0.038 z"
         transform="translate(-4.509,-34.43)"
         id="path2" />
    </g>
  </g>
</svg>
