<?xml version="1.0" encoding="UTF-8"?>
<!-- Created with Inkscape (http://www.inkscape.org/) -->
<svg width="125.51mm" height="25.506mm" version="1.1" viewBox="0 0 125.51 25.506" xmlns="http://www.w3.org/2000/svg">
  <g transform="translate(-98.674 -95.972)">
    <path d="m99.749 121c-1.4097-0.85964-1.4295-2.1076-0.0764-4.8188 1.7469-3.5002 6.1378-8.3117 9.3672-10.265 1.7481-1.0571 3.4759-1.2248 4.3615-0.42336 0.98103 0.88783 1.4192 3.7452 0.66973 4.3673-0.6998 0.58078-1.194 0.11694-1.194-1.1207 0-1.5251-0.62439-2.416-1.5334-2.1879-2.0425 0.51264-5.436 3.4018-8.0138 6.8228-2.6239 3.4822-3.4237 5.5043-2.4853 6.2831 0.65741 0.54559 3.8634 0.0991 6.8577-0.95507 3.2862-1.1569 3.9556-1.2343 4.0647-0.46971 0.0678 0.47542-0.22486 0.69155-1.8521 1.3678-4.3536 1.8093-8.5467 2.3864-10.166 1.399zm16.842-2.6526c-0.59492-1.1116-0.18577-2.5214 0.68385-2.3562 0.38056 0.0723 0.51704 0.36757 0.58077 1.2566 0.0538 0.75058-0.0399 1.2402-0.26458 1.3827-0.52071 0.3302-0.69882 0.27978-1-0.28306zm25.284-1.6859c-0.60113-0.43956-0.45556-1.3742 0.21404-1.3742 0.75558 0 1.1714 0.81932 0.67015 1.3205-0.34008 0.34007-0.48077 0.34861-0.88419 0.0536zm14.46 0.0404c-0.1814-0.18139-0.32981-0.65064-0.32981-1.0428 0-1.3195 1.0664-4.1991 1.9116-5.1617 0.74323-0.8465 0.9409-0.93321 1.9062-0.83622 0.59235 0.0595 1.2425 0.1591 1.4448 0.2213 0.228 0.0701 1.0489-0.84252 2.1593-2.4004l1.7914-2.5135-1.9039-0.16219c-2.6876-0.22896-5.1928-1.5675-5.1928-2.7746 0-1.0113 0.71567-1.0787 1.6711-0.15719 0.46335 0.44688 1.1776 0.93888 1.5873 1.0933 0.78198 0.29482 3.637 0.37588 4.5546 0.12932 0.2953-0.0793 1.0097-0.92191 1.5875-1.8724 1.4035-2.3085 2.6286-3.3821 4.3237-3.7887 1.1839-0.28402 1.4538-0.27031 2.0231 0.1027 1.7717 1.1609-0.0843 3.706-4.1979 5.7564-2.1464 1.0699-2.1676 1.0906-4.4694 4.3652l-2.3128 3.2902 0.89959 0.37587c1.7831 0.74504 3.1866 0.91123 5.4743 0.64822 1.2212-0.1404 2.2902-0.25618 2.3756-0.25729 0.0854-1e-3 0.6466-0.99372 1.2472-2.2058 1.4294-2.8846 3.2546-4.6754 4.7653-4.6754 1.4117 0 2.4312 0.94326 2.4312 2.2495 0 1.8915-1.1525 3.1979-4.1025 4.6502-0.9451 0.46526-1.7184 0.89323-1.7184 0.95102 0 0.18457 2.7309-0.20923 4.101-0.59137 1.6598-0.46294 3.0369-1.3811 5.7127-3.8091 1.1652-1.0573 2.2659-1.8528 2.4603-1.7782 0.19348 0.0742 0.48759 0.67434 0.65358 1.3335 0.16599 0.65921 0.58396 1.5266 0.92883 1.9275l0.62702 0.72896 0.76191-0.49283c0.41904-0.27105 1.6062-1.3664 2.638-2.4342 1.5345-1.5878 2.0249-1.9413 2.6931-1.9413 0.91213 0 1.5882 0.53902 1.7654 1.4076 0.0647 0.31725 0.21373 1.033 0.33112 1.5905l0.21345 1.0137 1.8521-1.5446c4.6854-3.9075 5.1375-4.1456 7.6097-4.0059 2.3657 0.13367 2.6869 0.48817 2.473 2.7293-0.0833 0.87313-0.23254 1.8765-0.33159 2.2297-0.15506 0.55298 0.0557 0.45067 1.5167-0.7363 1.969-1.5997 3.882-2.5965 5.4483-2.839 0.95895-0.14848 1.196-0.0809 1.7859 0.50905 1.212 1.212 0.73997 3.0345-1.2624 4.8745-1.417 1.3021-2.8519 2.061-3.4572 1.8288-0.79625-0.30555-0.4171-0.92816 1.3201-2.1678 1.9418-1.3856 2.9128-2.663 2.449-3.2218-0.69284-0.83482-2.5731-0.10849-4.587 1.7719-1.3383 1.2496-2.8145 2.1167-3.6038 2.1167-0.98008 0-1.1932-0.80058-0.83777-3.1464 0.14572-0.96159 0.20966-1.8972 0.14211-2.0791-0.1982-0.53367-2.7079-0.41196-3.6758 0.17825-0.45731 0.27886-1.7529 1.3469-2.879 2.3735-3.4693 3.1625-5.2052 3.6046-5.551 1.4138-0.0858-0.54393-0.21464-1.3718-0.28621-1.8396-0.0716-0.46784-0.22937-0.91195-0.35065-0.9869-0.12128-0.075-0.97309 0.7105-1.8929 1.7455-1.9804 2.2283-2.9376 2.8678-4.2942 2.8692-1.1433 1e-3 -2.1546-0.81697-2.6042-2.1066l-0.27168-0.77935-1.667 1.4142c-3.1069 2.6357-5.7932 3.7892-9.1215 3.9169-1.4396 0.0552-1.9185-0.0282-2.3383-0.40742-0.4799-0.43349-0.73142-0.44979-2.7649-0.17918-2.5251 0.33603-4.7826 0.0605-6.8134-0.83163l-1.1852-0.52063-0.5247 0.73957c-1.0231 1.4421-3.4645 3.7646-4.1174 3.917-0.37689 0.0879-0.80452 0.0124-0.99218-0.17528zm2.9677-3.6784c0.69239-0.8813 1.1918-1.6695 1.1097-1.7516-0.0821-0.0821-0.4439-0.0752-0.80409 0.0152-0.4968 0.12469-0.78718 0.51797-1.203 1.6292-0.83768 2.2389-0.7826 2.2455 0.89735 0.10721zm17.713-3.7006c1.4393-1.0336 1.9655-1.9161 1.4865-2.4932-0.46719-0.56293-1.1303-0.50717-1.9875 0.16713-0.75098 0.59073-2.5179 3.1529-2.5179 3.6512 0 0.39333 1.6102-0.31344 3.0189-1.325zm-4.4049-9.7145c0.97123-1.4823-1.1947-0.97907-2.3093 0.53653-0.44144 0.60026-0.80261 1.1944-0.80261 1.3204 0 0.39176 2.6904-1.2136 3.1119-1.8569zm-38.916 16.498c-0.17043-0.44414 0.22702-0.9629 1.1979-1.5636 0.97161-0.60112 1.1578-1.8113 0.6334-4.1169-0.52453-2.3062-0.53213-3.2878-0.0329-4.2531 0.43151-0.83445 2.2988-1.866 3.3777-1.866 1.4267 0 3.3175 2.4218 2.5824 3.3075-0.49665 0.59844-0.7251 0.49455-1.455-0.66169-0.83061-1.3158-1.8981-1.4555-2.7589-0.3612-0.65647 0.83457-0.68272 1.6011-0.1356 3.9602 0.65085 2.8064 0.0897 4.5851-1.7459 5.5344-0.94943 0.49097-1.48 0.49749-1.6631 0.0204zm88.549-5.3272c-0.19777-0.51537 0.62603-1.4454 1.2803-1.4454 0.7074 0 0.89097 0.72245 0.33864 1.3328-0.56147 0.62042-1.4017 0.67885-1.619 0.11258zm-8.0047-12.396c-0.17791-0.21437-0.28602-0.84455-0.24025-1.4004 0.0724-0.87945 0.16909-1.0106 0.74468-1.0106 0.61712 0 0.66146 0.0884 0.66146 1.3193 0 1.4056-0.50948 1.8827-1.1659 1.0918z" style="stroke-width:.26458"/>
  </g>
</svg>
