<?xml version="1.0" encoding="UTF-8" standalone="no"?>
<!-- Created with Inkscape (http://www.inkscape.org/) -->

<svg
   width="922.95905"
   height="701.99689"
   id="svg2700"
   version="1.0"
   xmlns="http://www.w3.org/2000/svg"
   xmlns:svg="http://www.w3.org/2000/svg"
   xmlns:rdf="http://www.w3.org/1999/02/22-rdf-syntax-ns#"
   xmlns:cc="http://creativecommons.org/ns#"
   xmlns:dc="http://purl.org/dc/elements/1.1/">
  <defs
     id="defs2702">
    <marker
       style="overflow:visible"
       id="Arrow1Mend"
       refX="0"
       refY="0"
       orient="auto">
      <path
         transform="matrix(-0.4,0,0,-0.4,-4,0)"
         style="fill-rule:evenodd;stroke:#000000;stroke-width:1.00000003pt;marker-start:none"
         d="M 0,0 5,-5 -12.5,0 5,5 Z"
         id="path3248" />
    </marker>
  </defs>
  <metadata
     id="metadata1">
    <rdf:RDF>
      <cc:Work
         rdf:about="">
        <dc:format>image/svg+xml</dc:format>
        <dc:type
           rdf:resource="http://purl.org/dc/dcmitype/StillImage" />
      </cc:Work>
    </rdf:RDF>
  </metadata>
  <g
     id="g1023"
     style="display:inline"
     transform="matrix(-1,0,0,1,917.76269,0)">
    <g
       transform="translate(15.837321,29.077859)"
       id="trapezium"
       style="display:inline">
      <path
         style="fill:none;stroke:#000000;stroke-width:4;stroke-linecap:butt;stroke-linejoin:miter;stroke-miterlimit:4;stroke-dasharray:none;stroke-opacity:1"
         d="M 5.300362,2.93975 881.30673,2.010793 882.51985,660 442.83907,658.78333 Z"
         id="path1" />
      <path
         style="fill:none;stroke:#000000;stroke-width:4;stroke-linecap:butt;stroke-linejoin:miter;stroke-miterlimit:4;stroke-dasharray:none;stroke-opacity:1"
         d="M 443.76802,2.93975 661.14394,658.78333"
         id="path2" />
      <path
         style="fill:none;stroke:#000000;stroke-width:4;stroke-linecap:butt;stroke-linejoin:miter;stroke-miterlimit:4;stroke-dasharray:none;stroke-opacity:1"
         d="m 152.07555,222.17358 729.23118,-0.92896"
         id="path3" />
      <path
         style="fill:none;stroke:#000000;stroke-width:4;stroke-linecap:butt;stroke-linejoin:miter;stroke-miterlimit:4;stroke-dasharray:none;stroke-opacity:1"
         d="m 299.7797,441.40741 579.66911,-1.85791 h 0.92896 v -0.92896"
         id="path4" />
    </g>
    <g
       id="g1329">
      <g
         aria-label="ə"
         transform="matrix(-1,0,0,1,789.74243,22.809859)"
         style="font-style:normal;font-weight:normal;font-size:40px;line-height:1.25;font-family:sans-serif;letter-spacing:0px;word-spacing:0px;opacity:1;fill:#000000;fill-opacity:1;stroke:none"
         id="flowRoot915">
        <path
           d="m 261.98828,295.43945 h 23.23242 v -0.23437 q 0,-6.29883 -2.37304,-9.52149 -2.37305,-3.19336 -7.00196,-3.19336 -3.54492,0 -5.83008,1.84571 -2.25585,1.875 -3.16406,5.53711 h -4.33594 q 1.28907,-5.12696 4.7461,-7.70508 3.48633,-2.57813 9.14062,-2.57813 6.82618,0 10.95703,4.51172 4.16016,4.48242 4.16016,11.92383 0,7.38281 -4.07226,11.89453 -4.07227,4.51172 -10.69336,4.51172 -7.06055,0 -10.83985,-4.36523 -3.77929,-4.33594 -3.92578,-12.62696 z m 6.35742,3.10547 q 0.17578,5.44922 2.31446,8.23242 2.10937,2.75391 6.09375,2.75391 3.7207,0 5.85937,-2.7832 2.13867,-2.78321 2.60742,-8.20313 z"
           style="font-style:normal;font-variant:normal;font-weight:normal;font-stretch:normal;font-size:60px;font-family:'DejaVu Serif';-inkscape-font-specification:'DejaVu Serif';fill:#000000;fill-opacity:1"
           id="path1890" />
      </g>
      <g
         id="g4528"
         transform="translate(79.995577,16.651983)"
         style="opacity:1;fill:#000000;fill-opacity:1">
        <path
           style="font-size:59.9768px;fill:#000000;fill-opacity:1;stroke:none;stroke-width:1.00039"
           d="m 493,303 a 18,18 0 0 1 -18,18 18,18 0 0 1 -18,-18 18,18 0 0 1 18,-18 18,18 0 0 1 18,18 z"
           id="ellipse4526" />
      </g>
    </g>
    <g
       id="g1321">
      <g
         style="opacity:1;fill:#000000;fill-opacity:1"
         transform="translate(-29.788591,94.67269)"
         id="g4532">
        <path
           transform="matrix(0.972973,0,0,1.0285714,387.97297,-57.514286)"
           style="font-size:59.9768px;fill:#000000;fill-opacity:1;stroke:none"
           d="M 110,350.5 A 18.5,17.5 0 0 1 91.5,368 18.5,17.5 0 0 1 73,350.5 18.5,17.5 0 0 1 91.5,333 18.5,17.5 0 0 1 110,350.5 Z"
           id="ellipse4530" />
      </g>
      <g
         aria-label="œ"
         transform="matrix(-1,0,0,1,789.58712,102.10373)"
         style="font-style:normal;font-weight:normal;font-size:40px;line-height:1.25;font-family:sans-serif;letter-spacing:0px;word-spacing:0px;display:inline;opacity:1;fill:#000000;fill-opacity:1;stroke:none"
         id="flowRoot933">
        <path
           d="m 277.04687,309.53125 q 4.33594,0 6.53321,-3.42773 2.22656,-3.42774 2.22656,-10.10743 0,-6.67968 -2.22656,-10.07812 -2.19727,-3.42774 -6.53321,-3.42774 -4.33593,0 -6.5625,3.42774 -2.19726,3.39844 -2.19726,10.07812 0,6.67969 2.22656,10.10743 2.22656,3.42773 6.5332,3.42773 z m 38.29102,-12.94922 h -23.23242 v 0.23438 q 0,6.29882 2.37305,9.52148 2.37304,3.19336 7.00195,3.19336 3.54492,0 5.80078,-1.8457 2.28516,-1.875 3.19336,-5.53711 h 4.33594 q -1.28907,5.12695 -4.77539,7.70508 -3.45704,2.57812 -9.08204,2.57812 -3.80859,0 -6.85546,-1.43555 -3.01758,-1.43554 -5.15625,-4.27734 -2.02149,2.8125 -5.06836,4.27734 -3.01758,1.43555 -6.82618,1.43555 -6.79687,0 -10.92773,-4.48242 -4.13086,-4.51172 -4.13086,-11.95313 0,-7.4414 4.10156,-11.92382 4.13086,-4.48243 10.95703,-4.48243 3.86719,0 6.88477,1.46485 3.01758,1.43554 5.06836,4.24804 2.13867,-2.8125 5.06836,-4.24804 2.92969,-1.46485 6.50391,-1.46485 7.08984,0 10.83984,4.36524 3.7793,4.33594 3.92578,12.62695 z m -6.35742,-3.10547 q -0.17578,-5.44922 -2.31445,-8.20312 -2.10938,-2.78321 -6.09375,-2.78321 -3.72071,0 -5.85938,2.78321 -2.13867,2.7832 -2.60742,8.20312 z"
           style="font-style:normal;font-variant:normal;font-weight:normal;font-stretch:normal;font-size:60px;font-family:'DejaVu Serif';-inkscape-font-specification:'DejaVu Serif';fill:#000000;fill-opacity:1"
           id="path1895" />
      </g>
    </g>
    <g
       id="g1313">
      <g
         aria-label="ɐ"
         transform="matrix(-1,0,0,1,855.92779,221.00076)"
         style="font-style:normal;font-weight:normal;font-size:40px;line-height:1.25;font-family:sans-serif;letter-spacing:0px;word-spacing:0px;opacity:1;fill:#000000;fill-opacity:1;stroke:none"
         id="flowRoot859">
        <path
           d="m 272.18359,290.22461 v 6.5918 h 6.94336 q 4.01367,0 5.97657,-1.72852 1.96289,-1.72852 1.96289,-5.30273 0,-3.25196 -1.99219,-5.15625 -1.99219,-1.9043 -5.39063,-1.9043 -3.36914,0 -5.44922,2.08008 -2.05078,2.08008 -2.05078,5.41992 z m -5.39062,9.66797 v -16.34766 h -4.80469 v -3.10547 h 10.19531 v 3.36914 q 1.78711,-2.16797 4.13086,-3.19336 2.34375,-1.02539 5.47852,-1.02539 5.18555,0 8.23242,2.75391 3.04688,2.75391 3.04688,7.44141 0,4.83398 -3.48633,7.5 -3.48633,2.66601 -9.84375,2.66601 h -7.5586 v 2.13867 q 0,3.54493 2.16797,5.50782 2.13867,1.93359 6.03516,1.93359 3.22265,0 5.12695,-1.46484 1.9043,-1.46485 2.37305,-4.33594 h 2.7832 v 6.29883 q -2.8125,1.20117 -5.47851,1.78711 -2.63672,0.61523 -5.15625,0.61523 -6.47461,0 -9.84375,-3.19336 -3.39844,-3.22266 -3.39844,-9.3457 z"
           style="font-style:normal;font-variant:normal;font-weight:normal;font-stretch:normal;font-size:60px;font-family:'DejaVu Serif';-inkscape-font-specification:'DejaVu Serif';fill:#000000;fill-opacity:1"
           id="path1898" />
      </g>
      <g
         style="opacity:1;fill:#000000;fill-opacity:1"
         transform="translate(146.6282,214.84289)"
         id="g863">
        <path
           style="font-size:59.9768px;fill:#000000;fill-opacity:1;stroke:none;stroke-width:1.00039"
           d="m 493,303 a 18,18 0 0 1 -18,18 18,18 0 0 1 -18,-18 18,18 0 0 1 18,-18 18,18 0 0 1 18,18 z"
           id="circle861" />
      </g>
    </g>
    <g
       id="g1339">
      <g
         aria-label="ɛ(ː)"
         transform="matrix(-1,0,0,1,613.23403,70.152712)"
         style="font-style:normal;font-weight:normal;font-size:40px;line-height:1.25;font-family:sans-serif;letter-spacing:0px;word-spacing:0px;display:inline;opacity:1;fill:#000000;fill-opacity:1;stroke:none"
         id="flowRoot906">
        <path
           d="m 263.6582,287.85156 q 0,-3.77929 2.8711,-5.77148 2.87109,-1.96289 8.61328,-1.96289 1.58203,0 4.6289,0.46875 3.04688,0.49804 6.32813,1.40625 v 6.47461 h -3.16406 q -0.35157,-2.60743 -2.46094,-3.92578 -2.10938,-1.31836 -4.86328,-1.31836 -6.82617,0 -6.82617,4.89257 0,5.59571 7.52929,5.59571 h 2.72461 v 3.07617 h -2.69531 q -4.62891,0 -6.88477,1.81641 -2.16796,1.75781 -2.16796,5.15625 0,2.31445 1.55273,3.77929 2.54883,2.40235 6.70898,2.40235 3.39844,0 5.85938,-1.55274 2.46094,-1.55273 2.75391,-4.54101 h 3.16406 v 6.76757 q -3.10547,1.05469 -6.26953,1.58204 -3.04688,0.52734 -5.39063,0.52734 -6.5625,0 -10.16601,-2.31445 -3.57422,-2.31446 -3.54493,-6.70899 0,-3.95508 3.07618,-6.24023 2.08007,-1.58203 5.5957,-2.34375 -2.40234,-0.55664 -3.98438,-1.58203 -2.98828,-1.96289 -2.98828,-5.6836 z"
           style="font-style:normal;font-variant:normal;font-weight:normal;font-stretch:normal;font-size:60px;font-family:'DejaVu Serif';-inkscape-font-specification:'DejaVu Serif';fill:#000000;fill-opacity:1"
           id="path1902" />
        <path
           d="m 307.0599,319.88932 q -6.32813,-2.83854 -9.5573,-8.98437 -3.22916,-6.17188 -3.22916,-15.41667 0,-9.27083 3.22916,-15.41666 3.22917,-6.17188 9.5573,-9.01042 v 2.55208 q -4.01042,2.76042 -5.75521,7.78646 -1.74479,5 -1.74479,14.08854 0,9.0625 1.74479,14.08854 1.74479,5 5.75521,7.76042 z"
           style="font-size:53.3333px"
           id="path1904" />
        <path
           d="m 324.77474,311.58203 h -7.5586 l 2.9004,-7.85156 h 1.7871 z m -7.5586,-26.01562 h 7.5586 l -2.90039,7.85156 h -1.78711 z"
           style="font-style:normal;font-variant:normal;font-weight:normal;font-stretch:normal;font-size:60px;font-family:'DejaVu Serif';-inkscape-font-specification:'DejaVu Serif';fill:#000000;fill-opacity:1"
           id="path1906" />
        <path
           d="m 334.93749,319.88932 v -2.55208 q 4.01042,-2.76042 5.75521,-7.76042 1.77084,-5.02604 1.77084,-14.08854 0,-9.08854 -1.77084,-14.08854 -1.74479,-5.02604 -5.75521,-7.78646 v -2.55208 q 6.35417,2.83854 9.58334,9.01042 3.22916,6.14583 3.22916,15.41666 0,9.24479 -3.22916,15.41667 -3.22917,6.14583 -9.58334,8.98437 z"
           style="font-size:53.3333px"
           id="path1908" />
      </g>
      <g
         id="g869"
         transform="translate(-175.52261,112.28665)"
         style="opacity:1;fill:#000000;fill-opacity:1">
        <path
           transform="matrix(0.972973,0,0,1.0285714,387.97297,-57.514286)"
           style="font-size:59.9768px;fill:#000000;fill-opacity:1;stroke:none"
           d="M 110,350.5 A 18.5,17.5 0 0 1 91.5,368 18.5,17.5 0 0 1 73,350.5 18.5,17.5 0 0 1 91.5,333 18.5,17.5 0 0 1 110,350.5 Z"
           id="ellipse867" />
      </g>
    </g>
    <g
       id="g1305">
      <g
         style="opacity:1;fill:#000000;fill-opacity:1"
         transform="translate(192.56937,360.98114)"
         id="g922">
        <path
           transform="matrix(0.972973,0,0,1.0285714,387.97297,-57.514286)"
           style="font-size:59.9768px;fill:#000000;fill-opacity:1;stroke:none"
           d="M 110,350.5 A 18.5,17.5 0 0 1 91.5,368 18.5,17.5 0 0 1 73,350.5 18.5,17.5 0 0 1 91.5,333 18.5,17.5 0 0 1 110,350.5 Z"
           id="ellipse920" />
      </g>
      <g
         aria-label="a(ː)"
         transform="matrix(-1,0,0,1,901.96052,350.73198)"
         style="font-style:normal;font-weight:normal;font-size:40px;line-height:1.25;font-family:sans-serif;letter-spacing:0px;word-spacing:0px;display:inline;opacity:1;fill:#000000;fill-opacity:1;stroke:none"
         id="flowRoot961">
        <path
           d="m 282.87695,301.79687 v -6.59179 h -6.94336 q -4.01367,0 -5.97656,1.72851 -1.96289,1.72852 -1.96289,5.30274 0,3.25195 1.99219,5.15625 1.99219,1.90429 5.39062,1.90429 3.36914,0 5.41992,-2.08007 2.08008,-2.08008 2.08008,-5.41993 z m 5.39063,-9.66796 v 16.34765 h 4.80469 v 3.10547 h -10.19532 v -3.36914 q -1.78711,2.16797 -4.13086,3.19336 -2.34375,1.02539 -5.47851,1.02539 -5.18555,0 -8.23242,-2.75391 -3.04688,-2.7539 -3.04688,-7.4414 0,-4.83399 3.48633,-7.5 3.48633,-2.66602 9.84375,-2.66602 h 7.55859 v -2.13867 q 0,-3.54492 -2.16797,-5.47852 -2.13867,-1.96289 -6.03515,-1.96289 -3.22266,0 -5.12696,1.46485 -1.90429,1.46484 -2.37304,4.33594 h -2.78321 v -6.29883 q 2.8125,-1.20117 5.44922,-1.78711 2.66602,-0.61524 5.18555,-0.61524 6.47461,0 9.84375,3.22266 3.39844,3.19336 3.39844,9.31641 z"
           style="font-style:normal;font-variant:normal;font-weight:normal;font-stretch:normal;font-size:60px;font-family:'DejaVu Serif';-inkscape-font-specification:'DejaVu Serif';fill:#000000;fill-opacity:1"
           id="path1913" />
        <path
           d="m 311.7474,319.88932 q -6.32813,-2.83854 -9.5573,-8.98437 -3.22916,-6.17188 -3.22916,-15.41667 0,-9.27083 3.22916,-15.41666 3.22917,-6.17188 9.5573,-9.01042 v 2.55208 q -4.01042,2.76042 -5.75521,7.78646 -1.74479,5 -1.74479,14.08854 0,9.0625 1.74479,14.08854 1.74479,5 5.75521,7.76042 z"
           style="font-size:53.3333px"
           id="path1915" />
        <path
           d="m 329.46224,311.58203 h -7.5586 l 2.9004,-7.85156 h 1.7871 z m -7.5586,-26.01562 h 7.5586 l -2.90039,7.85156 h -1.78711 z"
           style="font-style:normal;font-variant:normal;font-weight:normal;font-stretch:normal;font-size:60px;font-family:'DejaVu Serif';-inkscape-font-specification:'DejaVu Serif';fill:#000000;fill-opacity:1"
           id="path1917" />
        <path
           d="m 339.62499,319.88932 v -2.55208 q 4.01042,-2.76042 5.75521,-7.76042 1.77084,-5.02604 1.77084,-14.08854 0,-9.08854 -1.77084,-14.08854 -1.74479,-5.02604 -5.75521,-7.78646 v -2.55208 q 6.35417,2.83854 9.58334,9.01042 3.22916,6.14583 3.22916,15.41666 0,9.24479 -3.22916,15.41667 -3.22917,6.14583 -9.58334,8.98437 z"
           style="font-size:53.3333px"
           id="path1919" />
      </g>
    </g>
    <g
       id="g1403">
      <g
         style="opacity:1;fill:#000000;fill-opacity:1"
         transform="translate(-409.78859,-247.32731)"
         id="g975">
        <path
           transform="matrix(0.972973,0,0,1.0285714,387.97297,-57.514286)"
           style="font-size:59.9768px;fill:#000000;fill-opacity:1;stroke:none"
           d="M 110,350.5 A 18.5,17.5 0 0 1 91.5,368 18.5,17.5 0 0 1 73,350.5 18.5,17.5 0 0 1 91.5,333 18.5,17.5 0 0 1 110,350.5 Z"
           id="ellipse973" />
      </g>
      <g
         aria-label="iː"
         transform="matrix(-1,0,0,1,387.07415,-225.53061)"
         style="font-style:normal;font-weight:normal;font-size:40px;line-height:1.25;font-family:sans-serif;letter-spacing:0px;word-spacing:0px;display:inline;opacity:1;fill:#000000;fill-opacity:1;stroke:none"
         id="flowRoot1003">
        <path
           d="m 264.83008,270.77148 q 0,-1.34765 0.96679,-2.34375 0.9961,-0.99609 2.37305,-0.99609 1.34766,0 2.31445,0.99609 0.9961,0.9961 0.9961,2.34375 0,1.37696 -0.9668,2.34375 -0.9668,0.9668 -2.34375,0.9668 -1.37695,0 -2.37305,-0.9668 -0.96679,-0.96679 -0.96679,-2.34375 z m 6.88476,37.70508 h 5.09766 v 3.10547 h -15.64453 v -3.10547 h 5.15625 v -24.90234 h -5.15625 v -3.13477 h 10.54687 z"
           style="font-style:normal;font-variant:normal;font-weight:normal;font-stretch:normal;font-size:60px;font-family:'DejaVu Serif';-inkscape-font-specification:'DejaVu Serif';fill:#000000;fill-opacity:1"
           id="path1923" />
        <path
           d="m 292.10547,311.58203 h -7.5586 l 2.9004,-7.85156 h 1.7871 z m -7.5586,-26.01562 h 7.5586 l -2.90039,7.85156 h -1.78711 z"
           style="font-style:normal;font-variant:normal;font-weight:normal;font-stretch:normal;font-size:60px;font-family:'DejaVu Serif';-inkscape-font-specification:'DejaVu Serif';fill:#000000;fill-opacity:1"
           id="path1925" />
      </g>
    </g>
    <g
       id="g1411">
      <g
         id="g979"
         transform="translate(-226.64793,-249.80218)"
         style="opacity:1;fill:#000000;fill-opacity:1">
        <path
           transform="matrix(0.972973,0,0,1.0285714,387.97297,-57.514286)"
           style="font-size:59.9768px;fill:#000000;fill-opacity:1;stroke:none"
           d="M 110,350.5 A 18.5,17.5 0 0 1 91.5,368 18.5,17.5 0 0 1 73,350.5 18.5,17.5 0 0 1 91.5,333 18.5,17.5 0 0 1 110,350.5 Z"
           id="ellipse977" />
      </g>
      <g
         aria-label="yː"
         transform="matrix(-1,0,0,1,585.2266,-233.55143)"
         style="font-style:normal;font-weight:normal;font-size:40px;line-height:1.25;font-family:sans-serif;letter-spacing:0px;word-spacing:0px;display:inline;opacity:1;fill:#000000;fill-opacity:1;stroke:none"
         id="flowRoot1019">
        <path
           d="M 271.94922,317.29492 274,312.10937 262.36914,283.57422 h -3.54492 v -3.13477 h 14.32617 v 3.13477 h -4.98047 l 8.75977,21.41601 8.75976,-21.41601 h -4.6582 v -3.13477 h 11.68945 v 3.13477 h -3.48633 l -14.26757,35.03906 q -1.46485,3.63281 -3.25196,4.95117 -1.78711,1.34766 -5.03906,1.34766 -1.37695,0 -2.8418,-0.23438 -1.43554,-0.23437 -2.90039,-0.67382 v -5.94727 h 2.75391 q 0.17578,1.99219 0.99609,2.8418 0.84961,0.8789 2.60743,0.8789 1.61132,0 2.57812,-0.9082 0.99609,-0.87891 2.08008,-3.57422 z"
           style="font-style:normal;font-variant:normal;font-weight:normal;font-stretch:normal;font-size:60px;font-family:'DejaVu Serif';-inkscape-font-specification:'DejaVu Serif';fill:#000000;fill-opacity:1"
           id="path1929" />
        <path
           d="m 306.75391,311.58203 h -7.5586 l 2.90039,-7.85156 h 1.78711 z m -7.5586,-26.01562 h 7.5586 l -2.90039,7.85156 h -1.78711 z"
           style="font-style:normal;font-variant:normal;font-weight:normal;font-stretch:normal;font-size:60px;font-family:'DejaVu Serif';-inkscape-font-specification:'DejaVu Serif';fill:#000000;fill-opacity:1"
           id="path1931" />
      </g>
    </g>
    <g
       id="g1355">
      <g
         style="opacity:1;fill:#000000;fill-opacity:1"
         transform="translate(389.59562,-249.80218)"
         id="g983">
        <path
           transform="matrix(0.972973,0,0,1.0285714,387.97297,-57.514286)"
           style="font-size:59.9768px;fill:#000000;fill-opacity:1;stroke:none"
           d="M 110,350.5 A 18.5,17.5 0 0 1 91.5,368 18.5,17.5 0 0 1 73,350.5 18.5,17.5 0 0 1 91.5,333 18.5,17.5 0 0 1 110,350.5 Z"
           id="ellipse981" />
      </g>
      <g
         aria-label="uː"
         transform="matrix(-1,0,0,1,1101.2669,-234.68316)"
         style="font-style:normal;font-weight:normal;font-size:40px;line-height:1.25;font-family:sans-serif;letter-spacing:0px;word-spacing:0px;display:inline;opacity:1;fill:#000000;fill-opacity:1;stroke:none"
         id="flowRoot1027">
        <path
           d="m 280.24023,280.43945 h 10.07813 v 28.03711 h 5.09766 v 3.10547 h -10.48829 v -5.50781 q -1.49414,3.10547 -3.86718,4.74609 -2.37305,1.61133 -5.50782,1.61133 -5.18554,0 -7.64648,-2.92969 -2.43164,-2.95898 -2.43164,-9.25781 v -16.66992 h -4.86328 v -3.13477 h 10.2832 v 18.13477 q 0,5.68359 1.37695,7.79297 1.40625,2.10937 4.98047,2.10937 3.75,0 5.71289,-2.7539 1.96289,-2.75391 1.96289,-7.99805 v -14.15039 h -4.6875 z"
           style="font-style:normal;font-variant:normal;font-weight:normal;font-stretch:normal;font-size:60px;font-family:'DejaVu Serif';-inkscape-font-specification:'DejaVu Serif';fill:#000000;fill-opacity:1"
           id="path1935" />
        <path
           d="M 311.55859,311.58203 H 304 l 2.90039,-7.85156 h 1.78711 z M 304,285.56641 h 7.55859 l -2.90039,7.85156 h -1.78711 z"
           style="font-style:normal;font-variant:normal;font-weight:normal;font-stretch:normal;font-size:60px;font-family:'DejaVu Serif';-inkscape-font-specification:'DejaVu Serif';fill:#000000;fill-opacity:1"
           id="path1937" />
      </g>
    </g>
    <g
       id="g1395">
      <g
         style="opacity:1;fill:#000000;fill-opacity:1"
         transform="translate(-315.40438,-95.30218)"
         id="g1031">
        <path
           style="font-size:59.9768px;fill:#000000;fill-opacity:1;stroke:none;stroke-width:1.00039"
           d="m 495,301 a 18,18 0 0 1 -18,18 18,18 0 0 1 -18,-18 18,18 0 0 1 18,-18 18,18 0 0 1 18,18 z"
           id="circle1029" />
      </g>
      <g
         aria-label="eː"
         transform="matrix(-1,0,0,1,436.53128,-134.55143)"
         style="font-style:normal;font-weight:normal;font-size:40px;line-height:1.25;font-family:sans-serif;letter-spacing:0px;word-spacing:0px;display:inline;opacity:1;fill:#000000;fill-opacity:1;stroke:none"
         id="flowRoot1055">
        <path
           d="m 291.51953,296.58203 h -23.23242 v 0.23438 q 0,6.29882 2.37305,9.52148 2.37304,3.19336 7.00195,3.19336 3.54492,0 5.80078,-1.8457 2.28516,-1.875 3.19336,-5.53711 h 4.33594 q -1.28907,5.12695 -4.77539,7.70508 -3.45703,2.57812 -9.11133,2.57812 -6.82617,0 -10.98633,-4.48242 -4.13086,-4.51172 -4.13086,-11.95313 0,-7.38281 4.07227,-11.89453 4.07226,-4.51172 10.69336,-4.51172 7.06054,0 10.83984,4.36524 3.7793,4.33594 3.92578,12.62695 z m -6.35742,-3.10547 q -0.17578,-5.44922 -2.31445,-8.20312 -2.10938,-2.78321 -6.09375,-2.78321 -3.72071,0 -5.85938,2.78321 -2.13867,2.7832 -2.60742,8.20312 z"
           style="font-style:normal;font-variant:normal;font-weight:normal;font-stretch:normal;font-size:60px;font-family:'DejaVu Serif';-inkscape-font-specification:'DejaVu Serif';fill:#000000;fill-opacity:1"
           id="path1941" />
        <path
           d="m 308.39453,311.58203 h -7.55859 l 2.90039,-7.85156 h 1.78711 z m -7.55859,-26.01562 h 7.55859 l -2.90039,7.85156 h -1.78711 z"
           style="font-style:normal;font-variant:normal;font-weight:normal;font-stretch:normal;font-size:60px;font-family:'DejaVu Serif';-inkscape-font-specification:'DejaVu Serif';fill:#000000;fill-opacity:1"
           id="path1943" />
      </g>
    </g>
    <g
       id="g1347">
      <g
         id="g987"
         transform="translate(398.59562,-95.30218)"
         style="opacity:1;fill:#000000;fill-opacity:1">
        <path
           style="font-size:59.9768px;fill:#000000;fill-opacity:1;stroke:none;stroke-width:1.00039"
           d="m 495,301 a 18,18 0 0 1 -18,18 18,18 0 0 1 -18,-18 18,18 0 0 1 18,-18 18,18 0 0 1 18,18 z"
           id="ellipse985" />
      </g>
      <g
         aria-label="oː"
         transform="matrix(-1,0,0,1,1142.1172,-134.05143)"
         style="font-style:normal;font-weight:normal;font-size:40px;line-height:1.25;font-family:sans-serif;letter-spacing:0px;word-spacing:0px;display:inline;opacity:1;fill:#000000;fill-opacity:1;stroke:none"
         id="flowRoot1063">
        <path
           d="m 277.04687,309.53125 q 4.33594,0 6.53321,-3.42773 2.22656,-3.42774 2.22656,-10.10743 0,-6.67968 -2.22656,-10.07812 -2.19727,-3.42774 -6.53321,-3.42774 -4.33593,0 -6.5625,3.42774 -2.19726,3.39844 -2.19726,10.07812 0,6.67969 2.22656,10.10743 2.22656,3.42773 6.5332,3.42773 z m 0,2.90039 q -6.79687,0 -10.92773,-4.48242 -4.13086,-4.51172 -4.13086,-11.95313 0,-7.4414 4.10156,-11.92382 4.13086,-4.48243 10.95703,-4.48243 6.82618,0 10.92774,4.48243 4.13086,4.48242 4.13086,11.92382 0,7.44141 -4.13086,11.95313 -4.10156,4.48242 -10.92774,4.48242 z"
           style="font-style:normal;font-variant:normal;font-weight:normal;font-stretch:normal;font-size:60px;font-family:'DejaVu Serif';-inkscape-font-specification:'DejaVu Serif';fill:#000000;fill-opacity:1"
           id="path1947" />
        <path
           d="m 308.98047,311.58203 h -7.5586 l 2.9004,-7.85156 h 1.7871 z m -7.5586,-26.01562 h 7.5586 l -2.90039,7.85156 h -1.78711 z"
           style="font-style:normal;font-variant:normal;font-weight:normal;font-stretch:normal;font-size:60px;font-family:'DejaVu Serif';-inkscape-font-specification:'DejaVu Serif';fill:#000000;fill-opacity:1"
           id="path1949" />
      </g>
    </g>
    <g
       id="g1363">
      <g
         style="opacity:1;fill:#000000;fill-opacity:1"
         transform="translate(258.09562,-73.80218)"
         id="g991">
        <path
           transform="matrix(0.972973,0,0,1.0285714,387.97297,-57.514286)"
           style="font-size:59.9768px;fill:#000000;fill-opacity:1;stroke:none"
           d="M 110,350.5 A 18.5,17.5 0 0 1 91.5,368 18.5,17.5 0 0 1 73,350.5 18.5,17.5 0 0 1 91.5,333 18.5,17.5 0 0 1 110,350.5 Z"
           id="ellipse989" />
      </g>
      <g
         aria-label="ʊ"
         transform="matrix(-1,0,0,1,1057.3555,-74.05143)"
         style="font-style:normal;font-weight:normal;font-size:40px;line-height:1.25;font-family:sans-serif;letter-spacing:0px;word-spacing:0px;display:inline;opacity:1;fill:#000000;fill-opacity:1;stroke:none"
         id="flowRoot1071">
        <path
           d="m 293.21875,281.57422 h -8.29102 q 4.48243,1.875 6.38672,5.50781 1.9043,3.60352 1.9043,8.20313 0,3.16406 -1.25977,6.06445 -1.25976,2.90039 -3.60351,5.03906 -2.10938,1.96289 -4.89258,3.01758 -2.75391,1.02539 -5.85937,1.02539 -3.13477,0 -5.85938,-1.02539 -2.72461,-1.02539 -4.86328,-3.01758 -2.40234,-2.19726 -3.66211,-5.03906 -1.23047,-2.8418 -1.23047,-6.06445 0,-4.59961 1.9043,-8.20313 1.90429,-3.63281 6.41601,-5.50781 h -8.29101 v -3.13477 h 13.03711 v 3.13477 q -3.48633,1.34765 -5.27344,5.06836 -1.78711,3.6914 -1.78711,8.17383 0,5.41992 2.63672,8.70117 2.66601,3.28125 6.97266,3.28125 4.30664,0 6.94335,-3.28125 2.66602,-3.28125 2.66602,-8.70117 0,-4.51172 -1.78711,-8.20313 -1.78711,-3.69141 -5.24414,-5.03906 v -3.13477 h 13.03711 z"
           style="font-style:normal;font-variant:normal;font-weight:normal;font-stretch:normal;font-size:60px;font-family:'DejaVu Serif';-inkscape-font-specification:'DejaVu Serif';fill:#000000;fill-opacity:1"
           id="path1953" />
      </g>
    </g>
    <g
       id="g1295">
      <g
         id="g1047"
         transform="translate(377.56366,143.93036)"
         style="opacity:1;fill:#000000;fill-opacity:1">
        <path
           transform="matrix(0.972973,0,0,1.0285714,387.97297,-57.514286)"
           style="font-size:59.9768px;fill:#000000;fill-opacity:1;stroke:none"
           d="M 110,350.5 A 18.5,17.5 0 0 1 91.5,368 18.5,17.5 0 0 1 73,350.5 18.5,17.5 0 0 1 91.5,333 18.5,17.5 0 0 1 110,350.5 Z"
           id="ellipse1045" />
      </g>
      <g
         aria-label="ɔ"
         transform="matrix(-1,0,0,1,1102.7516,116.66029)"
         style="font-style:normal;font-weight:normal;font-size:40px;line-height:1.25;font-family:sans-serif;letter-spacing:0px;word-spacing:0px;display:inline;opacity:1;fill:#000000;fill-opacity:1;stroke:none"
         id="flowRoot1079">
        <path
           d="m 261.98828,289.78516 q 1.14258,-4.98047 4.39453,-7.58789 3.25196,-2.60743 8.40821,-2.60743 6.79687,0 10.92773,4.48243 4.13086,4.51171 4.13086,11.95312 0,7.4707 -4.13086,11.95313 -4.13086,4.45312 -10.92773,4.45312 -2.95899,0 -5.88868,-0.70312 -2.92968,-0.67383 -5.88867,-2.08008 v -7.96875 h 3.13477 q 0.61523,4.10156 2.69531,5.97656 2.05078,1.875 5.88867,1.875 4.36524,0 6.5918,-3.36914 2.22656,-3.39844 2.22656,-10.13672 0,-6.73828 -2.22656,-10.13672 -2.19727,-3.39844 -6.5918,-3.39844 -3.48633,0 -5.5664,1.81641 -2.08008,1.81641 -2.8418,5.47852 z"
           style="font-style:normal;font-variant:normal;font-weight:normal;font-stretch:normal;font-size:60px;font-family:'DejaVu Serif';-inkscape-font-specification:'DejaVu Serif';fill:#000000;fill-opacity:1"
           id="path1957" />
      </g>
    </g>
    <g
       id="g1387">
      <g
         id="g1043"
         transform="translate(-162.40438,-79.30218)"
         style="opacity:1;fill:#000000;fill-opacity:1">
        <path
           style="font-size:59.9768px;fill:#000000;fill-opacity:1;stroke:none;stroke-width:1.00039"
           d="m 495,301 a 18,18 0 0 1 -18,18 18,18 0 0 1 -18,-18 18,18 0 0 1 18,-18 18,18 0 0 1 18,18 z"
           id="circle1041" />
      </g>
      <g
         aria-label="ɪ"
         transform="matrix(-1,0,0,1,547.99644,-76.91198)"
         style="font-style:normal;font-weight:normal;font-size:40px;line-height:1.25;font-family:sans-serif;letter-spacing:0px;word-spacing:0px;display:inline;opacity:1;fill:#000000;fill-opacity:1;stroke:none"
         id="flowRoot1087">
        <path
           d="m 271.71484,308.47656 h 5.09766 v 3.10547 h -15.64453 v -3.10547 h 5.15625 v -24.90234 h -5.15625 v -3.13477 h 15.64453 v 3.01758 h -5.09766 z"
           style="font-style:normal;font-variant:normal;font-weight:normal;font-stretch:normal;font-size:60px;font-family:'DejaVu Serif';-inkscape-font-specification:'DejaVu Serif';fill:#000000;fill-opacity:1"
           id="path1961" />
      </g>
    </g>
    <g
       id="g1379">
      <g
         style="opacity:1;fill:#000000;fill-opacity:1"
         transform="translate(-90.40438,-77.30218)"
         id="g1039">
        <path
           style="font-size:59.9768px;fill:#000000;fill-opacity:1;stroke:none;stroke-width:1.00039"
           d="m 495,301 a 18,18 0 0 1 -18,18 18,18 0 0 1 -18,-18 18,18 0 0 1 18,-18 18,18 0 0 1 18,18 z"
           id="circle1037" />
      </g>
      <g
         aria-label="ʏ"
         transform="matrix(-1,0,0,1,633.12431,-100.94231)"
         style="font-style:normal;font-weight:normal;font-size:40px;line-height:1.25;font-family:sans-serif;letter-spacing:0px;word-spacing:0px;display:inline;opacity:1;fill:#000000;fill-opacity:1;stroke:none"
         id="flowRoot1095">
        <path
           d="m 271.1875,311.58203 v -3.10547 h 5.18555 v -8.93554 l -9.84375,-15.84961 h -5.06836 v -3.25196 h 16.14258 v 3.25196 h -5.44922 l 7.67578,12.42187 7.67578,-12.42187 h -5.21484 v -3.25196 h 13.88671 v 3.25196 h -4.83398 l -9.58008,15.43945 v 9.3457 h 5.09766 v 3.10547 z"
           style="font-style:normal;font-variant:normal;font-weight:normal;font-stretch:normal;font-size:60px;font-family:'DejaVu Serif';-inkscape-font-specification:'DejaVu Serif';fill:#000000;fill-opacity:1"
           id="path1965" />
      </g>
    </g>
    <g
       id="g1371">
      <g
         id="g1035"
         transform="translate(-49.40438,-93.30218)"
         style="opacity:1;fill:#000000;fill-opacity:1">
        <path
           style="font-size:59.9768px;fill:#000000;fill-opacity:1;stroke:none;stroke-width:1.00039"
           d="m 495,301 a 18,18 0 0 1 -18,18 18,18 0 0 1 -18,-18 18,18 0 0 1 18,-18 18,18 0 0 1 18,18 z"
           id="circle1033" />
      </g>
      <g
         aria-label="øː"
         transform="matrix(-1,0,0,1,763.39978,-88.204873)"
         style="font-style:normal;font-weight:normal;font-size:40px;line-height:1.25;font-family:sans-serif;letter-spacing:0px;word-spacing:0px;display:inline;opacity:1;fill:#000000;fill-opacity:1;stroke:none"
         id="flowRoot1103">
        <path
           d="m 283.60937,285.83008 q -1.11328,-1.66992 -2.7539,-2.49024 -1.64063,-0.84961 -3.8086,-0.84961 -4.30664,0 -6.5332,3.42774 -2.22656,3.42773 -2.22656,10.07812 0,2.10938 0.20508,3.83789 0.23437,1.72852 0.64453,3.16407 z m -13.15429,20.18554 q 1.17187,1.78711 2.7832,2.66602 1.64063,0.84961 3.80859,0.84961 4.30665,0 6.53321,-3.42773 2.22656,-3.45704 2.22656,-10.10743 0,-2.22656 -0.23437,-3.98437 -0.20508,-1.78711 -0.64454,-3.28125 z m 17.95898,-21.44531 q 1.81641,2.16797 2.75391,5.06836 0.9375,2.90039 0.9375,6.35742 0,7.44141 -4.13086,11.95313 -4.10156,4.48242 -10.92774,4.48242 -2.7539,0 -5.09765,-0.79102 -2.34375,-0.76171 -4.30664,-2.34375 l -4.18946,5.03907 -2.22656,-1.84571 4.36524,-5.21484 q -1.78711,-2.25586 -2.69532,-5.06836 -0.9082,-2.8418 -0.9082,-6.21094 0,-7.4414 4.10156,-11.92382 4.13086,-4.48243 10.95703,-4.48243 2.75391,0 5.09766,0.76172 2.34375,0.73242 4.21875,2.19727 l 4.07227,-4.86328 2.22656,1.8457 z"
           style="font-style:normal;font-variant:normal;font-weight:normal;font-stretch:normal;font-size:60px;font-family:'DejaVu Serif';-inkscape-font-specification:'DejaVu Serif';fill:#000000;fill-opacity:1"
           id="path1969" />
        <path
           d="m 308.98047,311.58203 h -7.5586 l 2.9004,-7.85156 h 1.7871 z m -7.5586,-26.01562 h 7.5586 l -2.90039,7.85156 h -1.78711 z"
           style="font-style:normal;font-variant:normal;font-weight:normal;font-stretch:normal;font-size:60px;font-family:'DejaVu Serif';-inkscape-font-specification:'DejaVu Serif';fill:#000000;fill-opacity:1"
           id="path1971" />
      </g>
    </g>
  </g>
</svg>
