<?xml version="1.0" encoding="UTF-8"?>
<!-- Created with Inkscape (http://www.inkscape.org/) -->
<svg version="1.0" viewBox="0 0 748.14 492.31" xmlns="http://www.w3.org/2000/svg">
  <g transform="translate(-.025797 -4.8726)">
    <g transform="translate(0,-182)">
      <path d="m555.5 379.36c-6.5 0-7 6-10.5 9l-0.5 10 16 3.5 0.5 6.5 22.5-7 22-10.5 15.456-10.731-5.2064-11.269 9.25-4c-6.5-5.1667-20.5 7.1667-30 7.5l-17-1c-6 10.667-13.5 8.8333-22.5 8z" style="fill-rule:evenodd;fill:#ffffaa;stroke-width:1px;stroke:#000000"/>
      <path d="m603.62 282.28-5.625-3.4062-2.5-1.75c-17.651 32.214-16.786 44.411-11.938 57.625l12 12.844-0.46875 24.781c6.9229-0.29798 16.188-6.8533 23.219-8.4062l-0.3125-0.59375c16.583-4.5 36.667 9 48 8 0.66667-21.75-12.667-25.5-10-51l-2-0.5-15-16.5-8.9688-5.2188-16.469-9.5625z" style="fill-rule:evenodd;fill:#dddd00;stroke-width:1px;stroke:#000000"/>
      <path d="m514 261.88c2.3333 17.917 26.417 21.333 16 50.75 16.324-0.1999 11.744 10.923 13.25 18.75l17.75 16 1.5 25-5.5 6.5 5.1562 1.0938c6.1074 0.33592 11.39-0.67525 15.844-8.5938l0.59375 0.0312 16.488 1.0898 0.48828-24.91-12.023-12.82c-4.849-13.213-5.6979-25.427 11.953-57.641l-17-11.75-20.5 0.5c-4.6667 10.167-20.083 9.5833-44-4z" style="fill-rule:evenodd;fill:#ffff00;stroke-width:1px;stroke:#000000"/>
      <path d="m664.25 213.66c-5.9375-4.6146-3.375-11.229-8.8125-16.844-9.2917-1.7917-23.083 2.4167-30.875 6.625-6.0521 7.2708-5.6042 18.042-12.156 17.312l-8.375 13.062-4.1562 12.75c-2.6135 6.2515-2.538 10.588 2 26.375l8.3125 9.125 3.0312 5.3438 8.7812 6.4688 18 10.5 10.5 12 5 3.5 12-0.5 23-23.219-3.4062-3.2812 1.4062-5.5 6.2812-3.0312 0.28125-8.7812-7.4062 0.53125-3.6875-1.0938 2.2812-4.6562-3.1562-1.6562-2.25 0.84375-3.1562-7.7188-4.25-3.8438 1.7188-6.0312-4-1.6562-4.4375-8.1562 2.625-7.0938-1.875-8.6562z" style="fill-rule:evenodd;fill:#bbbb00;stroke-linejoin:round;stroke:#000000"/>
      <path d="m530.34 311.59-0.84375 0.28125-10 4-17 4-16 5-6-7.5-11.5 1.5-23-3-27.219-3.1875-7.7812 5.1875-2 29.5c7 14.5 29 3.5 40.5 9 9.3333 1.8333 6.1667 12.667 26.5 23.5 8.3333 5.8333 29.167 3.6667 34 14.5 13.867 7.119 22.697 0.76439 34 4.5l0.84375-0.4375-0.34375-0.0625 0.5-10c3.5-3 4-9 10.5-9 2.3188 0.2147 4.5366 0.47717 6.6562 0.59375l-5.1562-1.0938 5.5-6.5-1.5-25-17.75-16c-1.5058-7.8267 3.0742-18.95-13.25-18.75 0.12495-0.35286 0.22862-0.68581 0.34375-1.0312z" style="fill-rule:evenodd;fill:#99ff99;stroke-width:1px;stroke:#000000"/>
      <path d="m522.75 277.94-18.25 6.9375v10.5l-10.5 5h-8.5l-9.5 5.5-17.5-1.5-12 3-13.5-0.5-11.5 4-2.7188 1.8125 27.219 3.1875 23 3 11.5-1.5 6 7.5 16-5 17-4 10-4 0.84375-0.28125c0.0758-0.22736 0.14718-0.43205 0.21875-0.65625 0.18159-0.56784 0.34461-1.1395 0.5-1.6875 0.21119-0.74701 0.42932-1.4759 0.59375-2.1875 5e-3 -0.0199-5e-3 -0.0426 0-0.0625 0.0658-0.28659 0.12902-0.56272 0.1875-0.84375 0.0938-0.44862 0.17433-0.8777 0.25-1.3125 9e-3 -0.0538 0.0222-0.10261 0.0312-0.15625 0.22537-1.3293 0.33982-2.573 0.40625-3.7812 0.0311-0.56464 0.0634-1.116 0.0625-1.6562-2e-5 -0.0632 4.4e-4 -0.12459 0-0.1875-4.3e-4 -0.0533 7.3e-4 -0.10321 0-0.15625-0.0157-1.1384-0.10425-2.2431-0.25-3.2812-0.0763-0.54327-0.17297-1.0753-0.28125-1.5938-0.0924-0.44218-0.19851-0.85596-0.3125-1.2812-0.0195-0.0731-0.0423-0.14616-0.0625-0.21875-0.0177-0.0635-0.0444-0.12437-0.0625-0.1875-0.12331-0.42937-0.26248-0.86799-0.40625-1.2812-0.32982-0.94803-0.70163-1.8453-1.125-2.7188-0.21168-0.43672-0.42488-0.86052-0.65625-1.2812-0.46275-0.84145-0.97328-1.6806-1.5-2.4688s-1.0853-1.5323-1.6562-2.2812c-0.54828-0.71922-1.1162-1.429-1.6875-2.125-0.0238-0.029-0.0387-0.0648-0.0625-0.0937-0.59807-0.72716-1.1784-1.4399-1.7812-2.1562z" style="fill-rule:evenodd;fill:#ccffcc;stroke-width:1px;stroke:#000000"/>
      <path d="m506 390.38c-13.167-9.5-22.333-4-36.5-13.5l-12.5 31.5-3 14.5c14 8.6667 25.5 2.8333 38.5-2.5l12 2 10.5-3.5 13 6.5v-6.5l11.5 1.5 6.5 2.5h6.5l4.5-2 0.5-12 3.4688-1-0.46875-6-15.656-3.4375h-0.0312l-0.81255 0.4375c-12.667-2.8333-24.833 4.3333-38-8.5z" style="fill-rule:evenodd;fill:#66ff66;stroke-width:1px;stroke:#000000"/>
      <path d="m358 467.36 22.5 3 8 5 36 1 28 21 24 3 5.5 5.5-0.5 17-1 18 5 7.5 7 1-1.5-7 2-4.5 6.5 2 5-1.5-0.5-4.5 8-2 16 9 15-12-8-8.5 4.5-15-22-8-38-30.5-3-12-9.5-28-14-3.5-36 11-27-7-20-4-15 10.5-15 31z" style="fill-rule:evenodd;fill:#006600;stroke-width:1px;stroke:#000000"/>
      <path d="m340.5 464.86 18.5 3c3.8333-9.8333 12.167-3.1667 22-10l21.5-3h17l10 8.5 5-7.5-16-21.5-27.5-7-21-3.5-14 9z" style="fill:none;stroke-dasharray:2, 2;stroke:#000000"/>
      <path d="m317.25 347.78c-3.4693 0.12412-5.8287 1.8975-12.25 9.0938-2.7994 0.47938-3.6435 2.166-5.0625 3.5h-0.9375l-0.71875 1.0312c0.56772-0.10482 1.117-0.24622 1.6562-0.4375l0.0625 0.40625c0.83333 0.91667 1.6667 1.7552 2.5 2.5312l0.34375 1.125-5.8438 8.25v0.0937c5 7.8333 9 1.6667 13.5 2.5l2.5 3-2 4.5c6.5 4.5 6.5 10 6 15l6 1 4 8c10.5 4.3333 19 0.66667 28.5 1 9.8646 4.2959 12.442 11.717 14.25 14.562l0.25 1.4375 20.5 3 13.5-8.5-0.5-9.5c-6.8264-19.791-11.376-12.378-11.5-25l-23.5-27c-7.772 1.2689-18.698 1.6166-28.5-0.21875l-0.5 0.1875v-0.28125c-0.33053-0.0647-0.67241-0.11769-1-0.1875l-15.219-8.7812-0.125 0.1875c-2.5157-0.26633-4.3293-0.55642-5.9062-0.5zm0.125 22.5c-0.32301 0.0234-0.64574 0.0602-0.96875 0.0625 0.32315-2e-3 0.6456-0.039 0.96875-0.0625z" style="fill-rule:evenodd;fill:#00cc00;stroke-width:1px;stroke:#000000"/>
      <path d="m515 418.88-10.5 3.5-12-2c-8.4458 3.4649-16.255 7.1324-24.531 6.9062-0.16477 0.193-0.3281 0.40418-0.46875 0.59375l13 40 36 28.5 25 10.5-1-19 6-17-23-12.5c-4.1667-2-12.833-22.5 4-33-0.0368-0.10664-0.0868-0.20746-0.125-0.3125z" style="fill-rule:evenodd;fill:#009900;stroke-width:1px;stroke:#000000"/>
      <path d="m453 423.36-35 10.5 16 21.5h42l-8.5-27.5z" style="fill:none;stroke-dasharray:2, 1;stroke:#000000"/>
      <path d="m407.12 346.88c-11.383 0.34973-14.812 6.375-22.625 4.5l-16 6 23.5 27c0.12436 12.622 4.6736 5.2094 11.5 25l0.5 9.5-13.094 8.25 26.594 7.25 36.5-10.5 3.5-17.5 12.969-29.812c-14.268-9.6388-12.592-18.542-20.969-20.188-11.5-5.5-33.5 5.5-40.5-9l0.0312-0.5c-0.6566-0.0159-1.2972-0.0187-1.9062 0z" style="fill-rule:evenodd;fill:#00ff00;stroke-width:1px;stroke:#000000"/>
      <path d="m317.25 347.78c-3.4693 0.12412-5.8287 1.8975-12.25 9.0938-2.8528 0.48852-3.6549 2.2493-5.125 3.5938l0.125 0.90625c6.6667 7.3333 13.333 10.167 20 8.5 15.5 2.3333 16-5.8333 19.5-12.5v-0.3125c-0.33053-0.0647-0.67241-0.11769-1-0.1875l-15.219-8.7812-0.125 0.1875c-2.5157-0.26633-4.3293-0.55642-5.9062-0.5z" style="fill:none;stroke-dasharray:2, 2;stroke:#000000"/>
      <path d="m372.59 265.59c-3.909 0.0387-7.9479 0.80208-11.594 3.2812l-1 7.5-8 1.5c-3.5519-1.6825-6.8258-3.7811-9.9375-6.0625-14.251 14.752-21.947 7.3844-30.062 18.562-3.3333 12.167-16.167 5.8333-16 15.5 0.98393 9.0194 13.571 7.8872 13.5 19.438 2.1997-0.26418 4.2187-0.38509 6.0312-0.34375 8.4657 0.19307 13.042 3.4792 16.969 7.4062l0.5 1.0625v-0.0625c7.1667-5.8333 12.333-2.6667 18.5-4 9.6667-4.6667 8.3333-16.833 17-21.5 8.3333 2.6667 16.667-1.6667 28 0.5 4.4211-1.7368 6.4052-2.6273 13.094-1.7188l-3.2812-18.281h-9.3125c-1.3333-6-4.1667-15.5-11-21.5-3.5625-0.1875-8.3804-1.331-13.406-1.2812z" style="fill-rule:evenodd;fill:#dd0000;stroke-width:1px;stroke:#000000"/>
      <path d="m476 279.88c-15.333 3-21.667 11-34 12l-25-3.5h-10.688l3.1875 18c3.5833-0.25 7.6667-1 11.5 0 6.1667-4.5 12.833-5 14 0l0.1875 0.25 12.812 1.25 10-4 17.5 2.5 15-10c-8.8333-5-6.1667-12.5-14.5-16.5z" style="fill-rule:evenodd;fill:#ff6666;stroke-width:1px;stroke:#000000"/>
      <path d="m72 284.88c-7.6667 2.1667-7.3333 5.3333-11 8l-11.5-2c-8.6667 6.5-12.833 13.5-15.5 25.5 1 13.167 1.5 18.833 6 23l21.5 1.5-3 10c2.1667 10.833 17.333 5.6667 18.5 14.5l8.5-2 5.5-10.5 1.5-3 3-9.5 1.5-7 14.5-8.5 20.5 9 6-3.5 4 0.5h15l1.5625 1 5.9375-3.5c1.9496-9.2604-2.7692-19.008-11.344-29.219-3.6272 4.3739-5.7996 8.8845-8.6562 13.219l-19.5 1.5-13-9.5-27.5-8.5c-2.6667-5.6667-1.3333-7.3333-12.5-11z" style="fill-rule:evenodd;fill:#660000;stroke-width:1px;stroke:#000000"/>
      <path d="m313.25 252.12c-3.8281 0.0195-8.25 0.9375-13.25 1.25-8.8333 2.6667-14.167 4.3333-22 12.5l-21 0.5c-4.6667 10.667-13.333 16.333-17 18.5l-12.5-3.5c-5.8333 4.3333-4.6667 8.6667-7 13.5-7.1667-3.8333-9.3333-0.16667-21.5-7.5-11.833-2-21.667-1-35.5 3-4.6349 2.7946-7.8339 5.7548-10.344 8.7812 8.5745 10.211 13.293 19.958 11.344 29.219l-5.9375 3.5 6.9375 4.5 10 3 9.5-1.5 13 2.5 11 16 8-2.5 4.5 2.5 11.5-2 9.5 2 16-5.5 6 2.5 4.5 5.5 5.5 0.5 4.5 2.5 6-2.5 0.65625 0.8125 0.34375-0.3125c5.6667-9.5-5.6667-16-7-25.5 8.1667-5.8333 17.833-1.1667 30.5-8.5 0.5-12.167-12.5-10.833-13.5-20-0.16667-9.6667 12.667-3.3333 16-15.5 8.1156-11.178 15.811-3.8102 30.062-18.562-7.9852-5.8544-14.887-13.041-22.562-18.438-1.875-0.9375-3.9531-1.2617-6.25-1.25z" style="fill-rule:evenodd;fill:#880000;stroke-width:1px;stroke:#000000"/>
      <path d="m411.75 306.38c-0.0546-0.0119-3.1022 0.47992-3.1562 0.46875-5.2895-0.51436-7.5652-1.4187-12.094 1.5312-11.333-2.1667-19.667 2.1667-28-0.5-8.6667 4.6667-7.3333 16.833-17 21.5-6.1667 1.3333-11.333-1.8333-18.5 4l-9.8438 14.656 15.344 8.8438c10.167 2.1667 21.833 1.8333 30 0.5l16-6c8.3333 2 11.667-5 25-4.5l1.5-28.5c8.6667-7.5 12.833-9 21.5-12l2.6875 0.25-0.1875-0.25c-1.1667-5-8.5833-5-14.75-0.5z" style="fill-rule:evenodd;fill:#ff0000;stroke-width:1px;stroke:#000000"/>
      <path d="m315.53 324.97c-1.8126-0.0413-3.8315 0.0796-6.0312 0.34375-1e-3 0.18866 8e-3 0.36696 0 0.5625-12.667 7.3333-22.333 2.6667-30.5 8.5 1.3333 9.5 12.667 16 7 25.5l-0.34375 0.3125c16.948 5.3958 12.896-2.2083 19.344-3.3125 9.3401-10.467 10.106-9.446 18.156-8.5938l9.8438-14.844-0.5-1.0625c-3.9271-3.9271-8.5031-7.2132-16.969-7.4062z" style="fill-rule:evenodd;fill:#bb0000;stroke-width:1px;stroke:#000000"/>
    </g>
    <path d="m92.5 155.06 0.625 13.062c8.4554 2.616 19.059 3.1627 28.897 2.4274 6.1176-0.45727 15.915 11.152 15.817 18.949-0.1179 8.7835-15.586 4.2306-16.453 9.6362-1.0428 6.5011-4.6098 2.4565 1.1149 19.738 16.472 16.191 33.653 12.417 47.031 12.156l0.03125-0.03125c0.47286-9e-3 0.94236-6e-3 1.4062 0 0.13401 2e-3 0.27306-3e-3 0.40625 0 0.59423 0.0119 1.1739 0.0358 1.75 0.0625 1.1614 0.0539 2.2884 0.14433 3.375 0.3125 1.3402 2.4743-0.37088 6.4786-2.3125 10.594-1.1973 2.5376-2.4882 5.1176-3.1875 7.4062l3.5 3c5.1667 0.16667 9.3333-2.6667 15.5 0.5 11-0.16667 24.5 1.6667 33-0.5 8.1667-5.6667 9.3333-14.833 15.5-18.5 6.8333 1.3333 12.667 0.16667 20.5 4 1.5 8.6667 4 13.333 9 15.5l-4.5 6 0.28125 3.375 0.71875 9.125c-3.7994 4.9557-4.6573 10.406-2.5625 16.344l0.5625 0.15625c9 7.3333 20.5 10.667 27 11.5 6.5-0.83333 10-8.1667 16.5-8.5 19.5 3.3333 26.5 2.6667 34.5-9.5l15-30.5 14.5-10c-1.8333-2.5-4.1667-10.5-14.5-15-9.5-0.33333-18 3.3333-28.5-1l-4-8-6-1c0.5-5 0.5-10.5-6-15l2-4.5-2.5-3c-4.5-0.83333-8.5 5.3333-13.5-2.5v-0.0937l5.8438-8.25-1.4688-4.6875c-4.4479 2.4688-10.396 0.9375-15.844-0.59375l-6.6875 1.7812-4.8438-2.1875-4.5625-0.28125c1e-5 1e-5 -1.9805-5.2138-3.6875-6.3125-1.707-1.0987-8.5312-1.375-8.5312-1.375l-6.8438 2.1875-8.8125 2.4688-5.9688-2.1875-7.4062 0.5625-6.5312 2.75-4-3.5938-3.125 0.28125-5.125 1.9375-4.5312-5.5-6.2812-9.625-8.25-2.4688s-5.39-0.5625-6.8125-0.5625c-1.4225 0-7.6875 2.2188-7.6875 2.2188 0-1e-5 -6.265-1.3947-7.6875-2.2188s-5.4062-4.375-5.4062-4.375l-7.0938-3.3125h-4.8438l-6.8438 0.5625-2.5312 0.8125-4-0.8125-5.6875 3.5625-7.125-3.0312-12.812-6.7188c-4.3871-11.371-15.668 8.8031-19.312 12.75z" style="fill-rule:evenodd;fill:#ff00ee;stroke-linejoin:round;stroke:#000000"/>
    <g transform="translate(0,-182)">
      <path d="m122.5 400.88c-5.3333 9.6667-5.1667 19.833-16 29 2.5 2.1667 6 3.8333 7.5 6.5l-8.5 24c1.3868 1.7639 2.7334 3.3778 4.0312 4.9688l24.469-18.469 30.5-19 8-2.5 1.6875-1.4062c1.9416-4.1152 3.6527-8.1195 2.3125-10.594-14-2.1667-34.5 6.6667-54-12.5z" style="fill-rule:evenodd;fill:#0044aa;stroke-width:1px;stroke:#000000"/>
      <path d="m169.56 413-0.0312 0.0312c1.2295-0.024 2.4306-0.0186 3.5938 0.0312-1.1522-0.0535-2.3436-0.0858-3.5625-0.0625zm3.5625 0.0625c1.1631 0.0499 2.2882 0.1443 3.375 0.3125-1.0864-0.16814-2.2138-0.25862-3.375-0.3125zm3.8125 1.8438c0.0185 0.18738 0.0318 0.39684 0.0312 0.59375 1e-3 -0.20023-0.0127-0.40336-0.0312-0.59375zm0.0312 0.59375c-9.4e-4 0.32355-0.0464 0.65319-0.0937 1 0.0471-0.34238 0.092-0.68028 0.0937-1zm-2.7812 8.4688-1.6875 1.4062-8 2.5-30.5 19-24.469 18.469c12.557 15.392 21.302 23.108 32.531 30.469 11.496-4.4842 17.98-13.442 32.938-14.938l9.5-10-6-17.5 11-11 0.5-7v-0.5c-6.1667-3.1667-10.333-0.33333-15.5-0.5l-3.5-3c0.6993-2.2886 1.9902-4.8686 3.1875-7.4062zm-66.094 29.031-2.5938 7.375 2.625-7.375z" style="fill-rule:evenodd;fill:#5599ff;stroke-width:1px;stroke:#000000"/>
      <path d="m263.78 444.75-0.28125 0.125c-6.6667 4.8333-23.833 1.6667-32 1l-0.0625-0.0937-0.9375 0.0937c-6 1.1667-9.5 3.8333-10.5 14 8.1667 13.167-3.6667 19.333-10 21.5 7.8333 8.5-2.3333 12-3.5 18 7.9191 8.0657 4.2422 11.084 2.2188 18.281 3.3064-1.0785 7.1406-1.4984 11.781-0.78125 8.8333-3.5 12.667-10 19-15l6.5-16.5c2.8333-6 13.167-7.5 16-15-2.1667-6-1.3333-11.5 2.5-16.5z" style="fill-rule:evenodd;fill:#55ccff;stroke-width:1px;stroke:#000000"/>
      <path d="m184.5 470.88-9.5 10c-14.957 1.4957-21.442 10.453-32.938 14.938 3.5123 2.3023 7.2411 4.5962 11.438 7.0625 13.667-4.1667 19.333 1.1667 21.5 5.5 6.3333 7.5 6.6667 18 11.5 22.5 7.3443-1.2448 12.463-10.036 22.219-13.219 2.0234-7.1975 5.7003-10.216-2.2188-18.281 0.83854-4.3125 6.3254-7.3294 6.4375-11.844l-2-5.0312c-0.28404-0.36612-0.58174-0.73896-0.9375-1.125-12.855 0.11135-20.4 4.3052-25.5-10.5z" style="fill-rule:evenodd;fill:#88bbff;stroke-width:1px;stroke:#000000"/>
      <path d="m223 434.38c-8.5 2.1667-22 0.33333-33 0.5v0.5l-0.5 7-11 11 6 17.5c5.0996 14.805 12.645 10.611 25.5 10.5 6.3333-2.1667 18.167-8.3333 10-21.5 1-10.167 4.5-12.833 10.5-14l0.9375-0.0937z" style="fill-rule:evenodd;fill:#0066ff;stroke-width:1px;stroke:#000000"/>
      <path d="m238.5 415.88c-6.1667 3.6667-7.3333 12.833-15.5 18.5l8.5 11.5c8.1667 0.66667 25.333 3.8333 32-1l0.28125-0.125-0.28125-3.375 4.5-6c-5-2.1667-7.5-6.8333-9-15.5-7.8333-3.8333-13.667-2.6667-20.5-4z" style="fill-rule:evenodd;fill:#ddeeff;stroke-width:1px;stroke:#000000"/>
      <path d="m372.5 557.88-15 9-3 8-7.5-1-7 14c-7.6953-2.0307-14.992 0.25657-22.656 0.53125l-2.3438 7.4688 19.5 16 2.5 9 10.5 9.5 4.5-2 3.5-4 5.5 1 8.8438 5.4375c0.12351-1.0173 0.3125-2.5625 0.3125-2.5625l4.8438-0.8125 6.5312 6.875 2.9688 1.8438 15.5-12.781-1-5 10-13 8.5-8.5-1.5-18.5 0.96875-5.5312c-7.7616 3.2338-11.218-5.5725-16.969-7.9688-11.667 1.1667-15.833-5.6667-27.5-7zm-65.438 29.219c0.58741 0.19293 1.17 0.35429 1.75 0.5-0.58149-0.14577-1.1612-0.30684-1.75-0.5zm4.5 1.0625c0.69961 0.0986 1.4025 0.14078 2.0938 0.1875-0.69159-0.0466-1.3937-0.0891-2.0938-0.1875zm58 45.062c-0.13364 1.1366-0.24495 2.1767-0.34375 3.125 0.0959-0.9125 0.21616-2.0295 0.34375-3.125z" style="fill-rule:evenodd;fill:#884400;stroke-width:1px;stroke:#000000"/>
      <path d="m304.34 586.03-1.9062 7.875 1.1562 4.9688 7.6875 6.0312 4.5312 3.0312 5.4062 0.8125 2.8438 4.6875c-1e-5 1e-5 -1.125 4.12-1.125 5.2188-1e-5 1.0988-0.28125 7.4062-0.28125 7.4062l7.6875-0.8125 5.6875 4.9375 5.9688 3.2812 4.5312 2.2188 1.7188 6.8438 2.5625 3.5938 7.4062-1.375 9.375-2.75c1e-5 -2e-5 1.4375-2.495 1.4375-3.5938-1e-5 -0.79635 0.48721-4.9145 0.8125-7.5938l-8.8438-5.4375-5.5-1-3.5 4-4.5 2-10.5-9.5-2.5-9-19.5-16 2.3438-7.4688c-4.1814 0.14986-8.4642-0.30074-13-2.375z" style="fill-rule:evenodd;fill:#aa4400;stroke-width:1px;stroke:#000000"/>
      <path d="m444.16 567.78-0.65625 0.09375c-10.5 10.333-12 12.167-25.5 4.5-0.35286 0.18681-0.69509 0.32869-1.0312 0.46875l-0.96875 5.5312 1.5 18.5-8.5 8.5-10 13 1 5-15.5 12.781 1.0312 0.625 5.9688-1.0938 3.4062 3.5625 5.4062-1.9375 6.5625 2.2188 1.125 4.9375 3.125 2.1875 3.4062 4.4062 4.8438 1.0938 4 5.2188 3.9688-1.6562 3.4062-3.2812 3.7188 3.5625c-1e-5 -1e-5 3.694 1.9097 3.125-0.5625-0.569-2.4722 1.9688-7.4062 1.9688-7.4062l6.5625-3.0312 6.8125 0.28125 8.8438 1.375 8.25-2.4688 2.8438-3.5625-4.8438-4.4062-6.8438-4.125-3.125-5.5-3.9688-3-1.4375-7.4375 0.5625-6.3125-5.9688-5.2188 3.4375-3 3.125-1.9375 0.84375-4.125 6.8125-1.0938 2.2812-3.2812 8.5312 0.8125 3.1562-1.375-6.2812-5.5-5.9688-2.75 3.125-6.3125-2.8438-5.2188-4.25 3.3125-1.4375 5.75-2.2812-1.6562-6.25-5.4688-5.125-4.9688z" style="fill-rule:evenodd;fill:#dd4400;stroke-width:1px;stroke:#000000"/>
      <path d="m340.12 464.41c-7.8489 11.63-14.927 12.251-34.125 8.9688-6.5 0.33333-10 7.6667-16.5 8.5-6.2428-0.80035-17.084-3.9149-25.906-10.656l-1.5938 0.15625-0.53125 0.15625c-3.4021 6.5168-12.787 8.1657-15.469 13.844l-5.9062 14.969-0.0937 1.0312-0.71875 0.96875 0.21875 0.0312c-1.8333 17.833-2.6667 35.667-1 46 3.5973 16.842 24.499 46.647 41.5 71.062l1.5 1.4375v-19l8.5-1.5 7-17 12.5 3.5 7 1 0.78125 0.78125 0.0625-0.25c7.6644-0.27463 14.961-2.5619 22.656-0.5312l7-14 7.5 1 3-8 15-9c11.667 1.3333 15.833 8.1667 27.5 7 5.7509 2.3962 9.2071 11.203 16.969 7.9688 0.33616-0.14006 0.67839-0.28194 1.0312-0.46875 13.5 7.6667 15 5.8333 25.5-4.5l0.65625-0.0937-0.0312 0.0312 0.25 0.21875 0.125-0.65625 9-7 21-9.5 10.5-2-4.5-7.5 1.5-35-5-5.5-24.5-4-28.5-20.5-35.5-0.5-8-5.5zm-33.062 122.69c0.58875 0.19316 1.1685 0.35423 1.75 0.5-0.57998-0.14571-1.1626-0.30707-1.75-0.5zm62.5 46.125c-0.12759 1.0955-0.24786 2.2125-0.34375 3.125 0.0988-0.9483 0.21011-1.9884 0.34375-3.125z" style="fill-rule:evenodd;fill:#664400;stroke-width:1px;stroke:#000000"/>
      <path d="m162.31 501.38c-2.487 0.0182-5.3958 0.45833-8.8125 1.5-0.19852-0.11668-0.36604-0.22783-0.5625-0.34375l-10.438-6.1562-32.75 21.125c-21.917 14.292-8.8333 32.083-4.25 47.375l21.5 20.5c-6 14.167 6 13.333 9 20l33-0.5 15 12 14 7c20.833 13.5 11.667 14 31 15l32.5 18.5c11-8.6667 9-22.333 19.5-36.5-17.167-24.667-38.833-55.333-42.5-72.5-1.6667-10.333-0.83333-28.167 1-46l-0.5-0.0625c-6.0307 4.9394-9.9098 11.159-18.5 14.562-4.6406-0.71719-8.4748-0.29729-11.781 0.78125-9.756 3.1824-14.874 11.974-22.219 13.219-4.8333-4.5-5.1667-15-11.5-22.5-1.625-3.25-5.2266-7.0547-12.688-7z" style="fill-rule:evenodd;fill:#dd66bb;stroke-width:1px;stroke:#000000"/>
      <path d="m60 372.36 1.5 11c-3 3-12.5-0.5-16.5 15-8-11.333-31-11.667-28.5-28 23.5-13.333 23 4.8333 43.5 2z" style="fill-rule:evenodd;fill:#6600ff;stroke-width:1px;stroke:#000000"/>
      <path d="m92.125 350.56-6.5625 12.156-10.562 3.1562-5 6.5h-10l1.5 11c-3 3-12.5-0.5-16.5 15-1.0374-1.4696-2.3277-2.7789-3.7812-3.9375l-1.2188 3.4375 12 26 4.5-5 17.5 5 8 8 17-0.5 8-1 0.0625-0.0312c-0.19346-0.15451-0.37866-0.30943-0.5625-0.46875 10.833-9.1667 10.667-19.333 16-29-5.7246-17.281-2.1678-13.249-1.125-19.75 0.86706-5.4056 16.351-0.84155 16.469-9.625 0.0979-7.7968-9.6949-19.395-15.812-18.938-9.2696 0.69288-21.714 0.24228-29.906-2z" style="fill-rule:evenodd;fill:#9933ff;stroke-width:1px;stroke:#000000"/>
      <path d="m105 459.38-11 6-5 6.5-0.5 21.5-4.5 30 10.5 30.5 10.312 8.8125c-5.0373-14.785-15.951-31.567 4.9375-45.188l32.75-21.125 8.9062 5.25c-3.3359-1.9922-6.4476-3.914-9.3438-5.8125-11.23-7.361-19.974-15.077-32.531-30.469-1.2979-1.5909-2.6445-3.2048-4.0312-4.9688l0.15625-0.4375c-0.22352-0.19497-0.43139-0.36647-0.65625-0.5625z" style="fill-rule:evenodd;fill:#dd66ff;stroke-width:1px;stroke:#000000"/>
      <path d="m23 384.38-12 28.719 54 37.812 2.5 33.781 19 19.688 2-13.625 1-19.656 4.5-6.5625 12-5.5625 8-22.594c-1.3897-2.4706-4.5001-4.0845-6.9375-6.0312l-0.0625 0.03125-1.4375 0.1875-0.5625 0.6875h-5l-1 0.125-17 0.5-0.625-0.625h-0.375l-4.6562-5.0312-2.3438-2.3438-17.5-5-4.5 5-9.625-20.844-2.375-6.0625 0.5-3.0312z" style="fill-rule:evenodd;fill:#bb66ff;stroke-width:1.0042px;stroke:#000000"/>
      <path d="m131.5 605.86 2 0.5h-12.5v10l-5 5-11-2-12.5 6.5-12.5 1.5 8 16.5 15 7.5 39-7.5 8.5 2 12.5-4 9-20.5 13-4-16.5-12.5z" style="fill-rule:evenodd;fill:#dd99bb;stroke-width:1px;stroke:#000000"/>
    </g>
    <g transform="matrix(.57654 0 0 .55666 13.113 13.697)" style="opacity:.73889">
      <path d="m92.77 505.66-2.9607 5.9215-6.4149 3.9476 3.4542 6.9084 5.428 6.9084 8.3888 4.4411 4.9346 6.9084 6.4149-2.9607 7.4018-4.9346 4.4411-5.9215 8.3888 2.9607h10.856l0.98691 6.4149 0.49346 11.843-5.9215 8.3888-5.9215 10.856 0.49346 7.4018-4.4411 3.4542-3.4542 5.428 1.4804 6.9084-6.4149 6.4149s-2.9607 8.8822-0.98691 9.8691c1.9738 0.98691 9.8691 7.8953 9.8691 7.8953l13.817 8.8822 13.323 9.3757 10.856 3.9477 2.4673 9.3757 14.31 5.9215 14.31 1.4804 3.9476 4.4411 11.35 21.219 5.9215 13.817 7.4018 10.363 14.31 7.4018 7.4018 6.9084-10.363 5.9215-6.9084 5.428-0.49346 7.8953-6.4149 1.9738-2.9607 4.9346s-7.4018 1.9738-9.8691 1.9738-10.856 0.49346-14.31-1.4804c-3.4542-1.9738-9.8691-6.4149-9.8691-6.4149h-13.817l-5.428 1.4804 2.9607 4.4411 12.336 8.3888-3.4542 2.4673v5.428l-8.8822 0.98691-11.843-2.9607-5.428 6.4149-10.856 5.9215-11.843 3.4542-9.8691 0.98691-4.4411-1.9738 0.49345 6.9084 5.9215 4.4411 1.4804 6.4149 6.4149 10.363-7.8953-0.49346s-11.35-5.9215-12.83-7.8953c-1.4804-1.9738-10.363-5.9215-10.363-5.9215h-9.8691l-1.9738 2.4673 8.3888-2.9607 11.35 4.4411 9.3757 6.4149 12.83 9.8691 17.764 7.4018 9.8691 2.9607 18.751-7.8953 17.271-4.4411 12.336 9.3757 4.4411 10.856 22.699 1.9738 6.9084-6.4149 10.363-7.8953 17.764 1.9738 5.9215-5.9215s0.98691-11.843-2.4673-14.31c-3.4542-2.4673-8.3888-9.8691-8.3888-9.8691l6.4149-4.4411 7.8953 3.4542 3.4542-6.4149 13.817 10.856s12.83 11.35 14.804 11.35c1.9738 0 29.607-0.98691 29.607-0.98691l11.35 3.4542 12.83-2.9607 8.3888-2.4673 12.83-0.98691 8.8822 3.9476 5.9215 2.4673 15.791-7.8953 18.258-11.35 17.764-10.363 14.31-8.3888 0.49345-15.297 0.98692-9.3757-0.98692-9.8691 8.3888-1.4804 7.4018-5.9215 3.9477-10.363 6.9084-13.817 12.336 2.4673-3.4542 14.804 1.9738 8.8822 13.323 10.856 7.8953 5.428 9.3757 1.4804 4.9346 8.3888s-1.9738 7.4018-1.9738 9.3757c0 1.9738-0.49345 13.323-0.49345 13.323l13.323-1.4804 9.8691 8.8822 10.363 5.9215 7.8953 3.9477 2.9607 12.336 4.4411 6.4149 12.83-2.4673 16.284-4.9346s2.4673-4.4411 2.4673-6.4149 1.9738-18.258 1.9738-18.258l8.3888-1.4804 11.35 12.336 6.9084 4.4411 10.363-1.9738 5.9215 6.4149 9.3757-3.4542 11.35 3.9477 1.9738 8.8822 5.428 3.9477 5.9215 7.8953 8.3888 1.9738 6.9084 9.3757 6.9084-2.9607 5.9215-5.9215 6.4149 6.4149s6.4149 3.4542 5.428-0.98691c-0.98691-4.4411 3.4542-13.323 3.4542-13.323l11.35-5.428 11.843 0.49345 15.297 2.4673 14.31-4.4411 4.9346-6.4149-8.3888-7.8953-11.843-7.4018-5.428-9.8691-6.9084-5.428-2.4673-13.323 0.98691-11.35-10.363-9.3757 5.9215-5.428 5.428-3.4542 1.4804-7.4018 11.843-1.9738 3.9476-5.9215 14.804 1.4804 5.428-2.4673-10.856-9.8691-10.363-4.9346 5.428-11.35-4.9346-9.3757-7.4018 5.9215-2.4673 10.363-3.9477-2.9607-10.856-9.8691-8.8822-8.8822 10.363-9.8691 12.336-6.9084 9.8691-5.428 13.817-5.9215 11.35-7.8953 15.297-1.4804 4.9346-2.4673 3.4542-12.336 6.4149-3.9476 11.843 5.428 6.9084-3.4542 5.428-8.3888 12.83-4.4411 13.323 9.8691 8.3888 3.9476 10.363-7.4018 10.363-4.4411s-6.4149-7.8953-7.4018-9.8691c-0.98692-1.9738-1.4804-11.843-1.4804-11.843l2.4673-11.35 6.4149-8.3888-1.4804-15.791v-21.712l3.9477-8.3888 0.98691-5.9215 4.4411-15.297-6.9084-4.9346-13.323-8.3888h-5.428l-4.4411-6.9084s-8.8822-0.49346-9.8691-2.4673c-0.98691-1.9738-5.428-9.8691-5.428-9.8691l0.98691-10.856-4.4411-9.3757 3.9476-10.363 12.83-10.856 1.9738-14.31 13.817-7.4018 20.232 1.9738 7.4018 7.8953 11.35-3.4542s6.4149-6.4149 5.9215-10.363c-0.49346-3.9476-0.98692-8.3888-0.49346-10.363 0.49346-1.9738 17.271-9.3757 17.271-9.3757l20.725-4.9346 17.764-8.3888 9.3757-9.3757h11.35l5.9215-8.3888s5.428-4.9346 7.4018-5.9215 12.336-3.4542 12.336-3.4542 0.4935-7.4018-1.4803-9.3757c-1.9739-1.9738-7.4019-11.35-7.4019-11.35s0-4.4411 3.4542-4.9346c3.4542-0.49346 16.284 0.49345 16.284 0.49345l8.3887-4.9346 18.258 5.9215 3.4542 6.9084 12.83-2.9607 13.817 2.9607 16.778 0.49345 1.4804-12.336-7.8953-8.8822-4.4412-7.8953s-2.4672-12.83-3.4542-14.804c-0.9869-1.9738-6.9083-14.31-6.9083-14.31l0.4934-8.3888 12.83-8.3888 8.3887-1.4804 8.3888-6.4149 5.9215 1.9738 4.4411-6.9084 12.83-1.4804 13.323 8.8822 13.817 3.9476 8.3887 6.9084 14.31 10.856 2.9607 7.8953 12.83-2.9607 5.428-1.9738-10.856-7.4018s-6.9084-3.9476-7.8953-7.4018c-0.987-3.4542 2.9607-10.363 2.4672-12.83-0.4934-2.4673-4.9345-8.8822-4.9345-8.8822l-3.9477-10.856h-7.8953l-3.9476-9.8691-5.4281-3.4542s-6.9084-8.3888-8.8822-9.8691-9.8691-6.9084-9.8691-6.9084l-10.363-10.363 2.4673-9.8691 10.856-5.428 0.4935-15.791-12.83 0.98692-6.4149-1.9738 3.9476-8.3888-5.428-2.9607-3.9476 1.4804-5.4281-13.817-7.4018-6.9084 2.9607-10.856-6.9084-2.9607 0.987-8.3888 8.3887-5.428 3.9477-16.284-19.738-12.83-6.4149-9.3757-9.8692 0.98691-8.8822 1.9738-19.738 7.4018-8.8823 2.4673-10.362-8.3888-8.8823 6.9084-9.8691 4.4411-4.9346 7.4018-9.3756-1.4804-12.83 0.98691-5.428 4.9346 6.4149 9.3757-1.4804 6.9084-4.9345 11.843 2.4673 14.804 0.9869 9.8691 9.8691 9.3757 5.428 8.8822 3.4542 14.31-0.9869 7.4018-9.3757-5.428-6.4149-8.3888-17.271-5.9215h-6.4149l-11.35-8.8822s-9.8691-3.9477-11.843-4.4411c-1.9738-0.49346-19.738-0.49346-19.738-0.49346l-12.336 6.4149-8.8822 3.4542-13.323 0.98691-11.35 0.49346-17.764 0.49346-7.4018 5.428s-2.9607 3.9476-5.428 3.4542c-2.4673-0.49345-13.817-0.49345-13.817-0.49345l-12.336 6.4149-0.98691 10.856-4.9346 9.8691-7.8953 9.8691-6.4149-3.9476-6.4149 4.4411-5.428-7.8953-2.9607-9.3757h-6.4149l-5.428-5.9215-10.856 0.98691-8.8822 4.4411-6.4149-3.4542-9.3757 1.9738-6.9084-2.4673-8.3888 3.4542-13.323 2.9607h-4.4411l-14.31-5.428-9.3757-2.4673-9.3757-0.49346-6.9084 2.9607-6.4149-3.9476-10.363 4.9346-11.35-0.49345-8.3888 0.49345-11.843 13.323-3.9477 5.428-5.9215 4.4411-7.4018-12.336-7.4018 2.9607-6.4149 8.8822-10.363-1.9738-12.83 1.4804-6.4149 12.83-0.98691 9.3757-3.9476 11.843-3.4542 15.791-7.8953 6.4149-15.791-0.49346-9.3757 4.4411-5.9215 6.4149s-3.9476 9.3757-5.9215 10.856-12.336 7.8953-12.336 7.8953l-17.764 7.4018-10.856 2.4673-1.4804 17.764-2.4673 13.323-6.9084-1.4804s-5.428-11.35-6.9084-13.817c-1.4804-2.4673-8.3888-11.843-8.3888-11.843l-9.8691 5.9215-8.3888-3.9477-7.8953-0.49345s-3.4542-9.3757-6.4149-11.35c-2.9607-1.9738-14.804-2.4673-14.804-2.4673l-11.843 3.9477-15.297 4.4411-10.363-3.9477-12.83 0.98692-11.35 4.9346-6.9084-6.4149-5.428 0.49345-8.8822 3.4542-7.8953-9.8691-10.856-17.271-14.31-4.4411s-9.3757-0.98691-11.843-0.98691c-2.4673 0-13.323 3.9476-13.323 3.9476s-10.856-2.4673-13.323-3.9476c-2.4673-1.4804-9.3757-7.8953-9.3757-7.8953l-12.336-5.9215h-8.3888l-11.843 0.98691-4.4411 1.4804-6.9084-1.4804-9.8691 6.4149-12.336-5.428-11.843 0.49346-8.3888-4.9346-2.4673 11.35-3.4542 17.764-1.9738 11.843-5.9215 3.9477-16.284 0.98691-15.297 1.4804-6.9084 10.363s-7.8953 11.35-10.363 11.843c-2.4673 0.49346-10.363 6.9084-10.363 6.9084l-0.98691 4.4411-9.3757 3.9477h-6.4149l-1.4804 4.4411-11.843 0.49346 0.49346 10.856-2.9607 6.4149-4.9346 0.98691-0.49346 6.9084-7.8953 5.9215-7.8953 1.4804 4.4411 10.856 2.9607 10.363 7.4018 8.3888 1.4804 9.3757 6.4149 7.8953 4.4411-7.8953h9.3757l16.778 4.9346 8.8822 4.4411 7.8953 14.31 17.764-3.4542 15.297 2.9607 3.4542 7.8953-4.9346 10.363-7.8953 8.8822-15.791 13.817-6.4149 5.9215-9.3757 7.8953-14.804 8.3888-0.98691 7.4018z" style="fill:none;stroke-linejoin:round;stroke-width:4.2;stroke:#7c7a74"/>
      <path d="m87.835 789.4 1.9738 9.3757 3.9477 4.9346 3.9477 6.9084-3.9477 10.363 6.4149 11.35 3.4542 10.856 1.9738 15.791" style="fill:none;stroke-width:2.6;stroke:#7c7a74"/>
      <path d="m175.18 737.1 0.98691-10.363 11.35-16.778 0.49346-8.3888-21.712-29.114-28.62-26.647-13.323-5.428-15.297-2.4673-8.8822 8.8822-3.4542 18.258-7.8953 15.297-13.817 7.4018-11.35 5.9215-15.297 0.49345 9.3757-4.9346 5.428-4.4411-1.9738-8.8822-6.4149-6.9084-12.336-2.4673-14.804-5.428-11.843-3.9477-15.297-0.98691-14.31 1.4804" style="fill:none;stroke-width:2.6;stroke:#7c7a74"/>
      <path d="m172.71 237.72-9.3757-4.9346-14.804 1.4804-17.764-6.4149-18.751-3.4542-12.83 0.49346-6.4149-9.8691-13.817 6.4149-16.284-1.9738-8.3888-8.3888-10.363-2.4673-5.428 4.4411-8.8822 4.4411-7.4018 5.9215-6.4149-3.9476-11.35-0.49346s-9.3757 0.49346-11.35 0.49346h-15.791" style="fill:none;stroke-width:2.6;stroke:#7c7a74"/>
      <path d="m1240.1 262.39 6.415 4.4411 16.778 1.9738 11.35 2.9607" style="fill:none;stroke-width:2.6;stroke:#7c7a74"/>
      <path d="m1070.8 50.204 5.9214-9.3757s10.363-9.8691 13.817-12.83 31.581-29.114 31.581-29.114l13.817-13.817" style="fill:none;stroke-width:2.6;stroke:#7c7a74"/>
      <path d="m92.77 505.66-2.9607 5.9215-6.4149 3.9476 3.4542 6.9084 5.428 6.9084 8.3888 4.4411 4.9346 6.9084 6.4149-2.9607 7.4018-4.9346 4.4411-5.9215 8.3888 2.9607h10.856l0.98691 6.4149 0.49346 11.843-5.9215 8.3888-5.9215 10.856 0.49346 7.4018-4.4411 3.4542-3.4542 5.428 1.4804 6.9084-6.4149 6.4149s-2.9607 8.8822-0.98691 9.8691c1.9738 0.98691 9.8691 7.8953 9.8691 7.8953l13.817 8.8822 13.323 9.3757 10.856 3.9477 2.4673 9.3757 14.31 5.9215 14.31 1.4804 3.9476 4.4411 11.35 21.219 5.9215 13.817 7.4018 10.363 14.31 7.4018 7.4018 6.9084-10.363 5.9215-6.9084 5.428-0.49346 7.8953-6.4149 1.9738-2.9607 4.9346s-7.4018 1.9738-9.8691 1.9738-10.856 0.49346-14.31-1.4804c-3.4542-1.9738-9.8691-6.4149-9.8691-6.4149h-13.817l-5.428 1.4804 2.9607 4.4411 12.336 8.3888-3.4542 2.4673v5.428l-8.8822 0.98691-11.843-2.9607-5.428 6.4149-10.856 5.9215-11.843 3.4542-9.8691 0.98691-4.4411-1.9738 0.49345 6.9084 5.9215 4.4411 1.4804 6.4149 6.4149 10.363-7.8953-0.49346s-11.35-5.9215-12.83-7.8953c-1.4804-1.9738-10.363-5.9215-10.363-5.9215h-9.8691l-1.9738 2.4673 8.3888-2.9607 11.35 4.4411 9.3757 6.4149 12.83 9.8691 17.764 7.4018 9.8691 2.9607 18.751-7.8953 17.271-4.4411 12.336 9.3757 4.4411 10.856 22.699 1.9738 6.9084-6.4149 10.363-7.8953 17.764 1.9738 5.9215-5.9215s0.98691-11.843-2.4673-14.31c-3.4542-2.4673-8.3888-9.8691-8.3888-9.8691l6.4149-4.4411 7.8953 3.4542 3.4542-6.4149 13.817 10.856s12.83 11.35 14.804 11.35c1.9738 0 29.607-0.98691 29.607-0.98691l11.35 3.4542 12.83-2.9607 8.3888-2.4673 12.83-0.98691 8.8822 3.9476 5.9215 2.4673 15.791-7.8953 18.258-11.35 17.764-10.363 14.31-8.3888 0.49345-15.297 0.98692-9.3757-0.98692-9.8691 8.3888-1.4804 7.4018-5.9215 3.9477-10.363 6.9084-13.817 12.336 2.4673-3.4542 14.804 1.9738 8.8822 13.323 10.856 7.8953 5.428 9.3757 1.4804 4.9346 8.3888s-1.9738 7.4018-1.9738 9.3757c0 1.9738-0.49345 13.323-0.49345 13.323l13.323-1.4804 9.8691 8.8822 10.363 5.9215 7.8953 3.9477 2.9607 12.336 4.4411 6.4149 12.83-2.4673 16.284-4.9346s2.4673-4.4411 2.4673-6.4149 1.9738-18.258 1.9738-18.258l8.3888-1.4804 11.35 12.336 6.9084 4.4411 10.363-1.9738 5.9215 6.4149 9.3757-3.4542 11.35 3.9477 1.9738 8.8822 5.428 3.9477 5.9215 7.8953 8.3888 1.9738 6.9084 9.3757 6.9084-2.9607 5.9215-5.9215 6.4149 6.4149s6.4149 3.4542 5.428-0.98691c-0.98691-4.4411 3.4542-13.323 3.4542-13.323l11.35-5.428 11.843 0.49345 15.297 2.4673 14.31-4.4411 4.9346-6.4149-8.3888-7.8953-11.843-7.4018-5.428-9.8691-6.9084-5.428-2.4673-13.323 0.98691-11.35-10.363-9.3757 5.9215-5.428 5.428-3.4542 1.4804-7.4018 11.843-1.9738 3.9476-5.9215 14.804 1.4804 5.428-2.4673-10.856-9.8691-10.363-4.9346 5.428-11.35-4.9346-9.3757-7.4018 5.9215-2.4673 10.363-3.9477-2.9607-10.856-9.8691-8.8822-8.8822 10.363-9.8691 12.336-6.9084 9.8691-5.428 13.817-5.9215 11.35-7.8953 15.297-1.4804 4.9346-2.4673 3.4542-12.336 6.4149-3.9476 11.843 5.428 6.9084-3.4542 5.428-8.3888 12.83-4.4411 13.323 9.8691 8.3888 3.9476 10.363-7.4018 10.363-4.4411s-6.4149-7.8953-7.4018-9.8691c-0.98692-1.9738-1.4804-11.843-1.4804-11.843l2.4673-11.35 6.4149-8.3888-1.4804-15.791v-21.712l3.9477-8.3888 0.98691-5.9215 4.4411-15.297-6.9084-4.9346-13.323-8.3888h-5.428l-4.4411-6.9084s-8.8822-0.49346-9.8691-2.4673c-0.98691-1.9738-5.428-9.8691-5.428-9.8691l0.98691-10.856-4.4411-9.3757 3.9476-10.363 12.83-10.856 1.9738-14.31 13.817-7.4018 20.232 1.9738 7.4018 7.8953 11.35-3.4542s6.4149-6.4149 5.9215-10.363c-0.49346-3.9476-0.98692-8.3888-0.49346-10.363 0.49346-1.9738 17.271-9.3757 17.271-9.3757l20.725-4.9346 17.764-8.3888 9.3757-9.3757h11.35l5.9215-8.3888s5.428-4.9346 7.4018-5.9215 12.336-3.4542 12.336-3.4542 0.4935-7.4018-1.4803-9.3757c-1.9739-1.9738-7.4019-11.35-7.4019-11.35s0-4.4411 3.4542-4.9346c3.4542-0.49346 16.284 0.49345 16.284 0.49345l8.3887-4.9346 18.258 5.9215 3.4542 6.9084 12.83-2.9607 13.817 2.9607 16.778 0.49345 1.4804-12.336-7.8953-8.8822-4.4412-7.8953s-2.4672-12.83-3.4542-14.804c-0.9869-1.9738-6.9083-14.31-6.9083-14.31l0.4934-8.3888 12.83-8.3888 8.3887-1.4804 8.3888-6.4149 5.9215 1.9738 4.4411-6.9084 12.83-1.4804 13.323 8.8822 13.817 3.9476 8.3887 6.9084 14.31 10.856 2.9607 7.8953 12.83-2.9607 5.428-1.9738-10.856-7.4018s-6.9084-3.9476-7.8953-7.4018c-0.987-3.4542 2.9607-10.363 2.4672-12.83-0.4934-2.4673-4.9345-8.8822-4.9345-8.8822l-3.9477-10.856h-7.8953l-3.9476-9.8691-5.4281-3.4542s-6.9084-8.3888-8.8822-9.8691-9.8691-6.9084-9.8691-6.9084l-10.363-10.363 2.4673-9.8691 10.856-5.428 0.4935-15.791-12.83 0.98692-6.4149-1.9738 3.9476-8.3888-5.428-2.9607-3.9476 1.4804-5.4281-13.817-7.4018-6.9084 2.9607-10.856-6.9084-2.9607 0.987-8.3888 8.3887-5.428 3.9477-16.284-19.738-12.83-6.4149-9.3757-9.8692 0.98691-8.8822 1.9738-19.738 7.4018-8.8823 2.4673-10.362-8.3888-8.8823 6.9084-9.8691 4.4411-4.9346 7.4018-9.3756-1.4804-12.83 0.98691-5.428 4.9346 6.4149 9.3757-1.4804 6.9084-4.9345 11.843 2.4673 14.804 0.9869 9.8691 9.8691 9.3757 5.428 8.8822 3.4542 14.31-0.9869 7.4018-9.3757-5.428-6.4149-8.3888-17.271-5.9215h-6.4149l-11.35-8.8822s-9.8691-3.9477-11.843-4.4411c-1.9738-0.49346-19.738-0.49346-19.738-0.49346l-12.336 6.4149-8.8822 3.4542-13.323 0.98691-11.35 0.49346-17.764 0.49346-7.4018 5.428s-2.9607 3.9476-5.428 3.4542c-2.4673-0.49345-13.817-0.49345-13.817-0.49345l-12.336 6.4149-0.98691 10.856-4.9346 9.8691-7.8953 9.8691-6.4149-3.9476-6.4149 4.4411-5.428-7.8953-2.9607-9.3757h-6.4149l-5.428-5.9215-10.856 0.98691-8.8822 4.4411-6.4149-3.4542-9.3757 1.9738-6.9084-2.4673-8.3888 3.4542-13.323 2.9607h-4.4411l-14.31-5.428-9.3757-2.4673-9.3757-0.49346-6.9084 2.9607-6.4149-3.9476-10.363 4.9346-11.35-0.49345-8.3888 0.49345-11.843 13.323-3.9477 5.428-5.9215 4.4411-7.4018-12.336-7.4018 2.9607-6.4149 8.8822-10.363-1.9738-12.83 1.4804-6.4149 12.83-0.98691 9.3757-3.9476 11.843-3.4542 15.791-7.8953 6.4149-15.791-0.49346-9.3757 4.4411-5.9215 6.4149s-3.9476 9.3757-5.9215 10.856-12.336 7.8953-12.336 7.8953l-17.764 7.4018-10.856 2.4673-1.4804 17.764-2.4673 13.323-6.9084-1.4804s-5.428-11.35-6.9084-13.817c-1.4804-2.4673-8.3888-11.843-8.3888-11.843l-9.8691 5.9215-8.3888-3.9477-7.8953-0.49345s-3.4542-9.3757-6.4149-11.35c-2.9607-1.9738-14.804-2.4673-14.804-2.4673l-11.843 3.9477-15.297 4.4411-10.363-3.9477-12.83 0.98692-11.35 4.9346-6.9084-6.4149-5.428 0.49345-8.8822 3.4542-7.8953-9.8691-10.856-17.271-14.31-4.4411s-9.3757-0.98691-11.843-0.98691c-2.4673 0-13.323 3.9476-13.323 3.9476s-10.856-2.4673-13.323-3.9476c-2.4673-1.4804-9.3757-7.8953-9.3757-7.8953l-12.336-5.9215h-8.3888l-11.843 0.98691-4.4411 1.4804-6.9084-1.4804-9.8691 6.4149-12.336-5.428-11.843 0.49346-8.3888-4.9346-2.4673 11.35-3.4542 17.764-1.9738 11.843-5.9215 3.9477-16.284 0.98691-15.297 1.4804-6.9084 10.363s-7.8953 11.35-10.363 11.843c-2.4673 0.49346-10.363 6.9084-10.363 6.9084l-0.98691 4.4411-9.3757 3.9477h-6.4149l-1.4804 4.4411-11.843 0.49346 0.49346 10.856-2.9607 6.4149-4.9346 0.98691-0.49346 6.9084-7.8953 5.9215-7.8953 1.4804 4.4411 10.856 2.9607 10.363 7.4018 8.3888 1.4804 9.3757 6.4149 7.8953 4.4411-7.8953h9.3757l16.778 4.9346 8.8822 4.4411 7.8953 14.31 17.764-3.4542 15.297 2.9607 3.4542 7.8953-4.9346 10.363-7.8953 8.8822-15.791 13.817-6.4149 5.9215-9.3757 7.8953-14.804 8.3888-0.98691 7.4018z" style="fill:none;stroke-linejoin:round;stroke-width:4.2;stroke:#7c7a74"/>
    </g>
    <path d="m176.87 157.19-1.6094 6.6039 2.4141 6.9924 8.0468 3.1077 8.8515 5.4385 9.2539 8.1578 4.0234 6.2155 7.2422 9.7117 8.0468 4.6616 8.0469 2.3308 4.8281 8.9347 7.2422 2.7193 14.887 6.6039 0.80469 1.5539 10.059 8.1578 5.6328 8.1578 2.8164 9.3232-0.40234 9.3232-3.2188 8.1578 2.0117 6.6039-2.0117 6.6039-1.207 3.4962 1.6094 5.0501" style="color:#000000;fill:none;opacity:.73889;stroke-linejoin:round;stroke-width:2.2661;stroke:#ffaaaa"/>
    <path d="m294.55 299.56-5.4316 0.5827-3.6211-1.9423-4.0234-0.77693-7.2422-2.9135" style="color:#000000;fill:none;opacity:.73889;stroke-linejoin:round;stroke-width:2.2661;stroke:#ffaaaa"/>
    <path d="m295.15 299.17 6.4375 8.352 4.0234 4.6616 6.4375 0.38847 10.059-1.9423 6.0351 2.3308 8.0468 5.827 6.0351 4.2731h4.0234l9.2539 0.77693 9.2539 3.1077 6.8398-1.9423 8.0468 5.4385 10.059 1.5539h9.2539l9.2539 3.4962 3.2187 6.6039 2.8164 1.5539 5.2305 1.5539 1.6094 4.6616 7.2422 5.4385 6.4375-3.1077 6.4375-1.9423 5.2305-6.6039 7.6445-2.7193 5.6328-7.3809 8.0468-1.9423h10.461l10.863-3.1077 13.277 1.9423 8.4492 3.1077 7.6445 0.38847 5.2304 4.6616 5.2305 1.9423 4.4258 5.0501 5.6328 4.2731" style="color:#000000;fill:none;opacity:.73889;stroke-linejoin:round;stroke-width:2.2661;stroke:#ffaaaa"/>
    <path d="m457.9 412.41-1.4082-4.2731-4.0234-5.0501-5.2304-6.6039-5.6328-4.2731s-2.8164-2.7193-2.8164-4.2731c0-1.5539-2.4141-5.827-2.4141-5.827l-3.6211-3.4962-2.8164-6.2155-3.6211-3.8847v-5.4385-4.2731l1.5403-4.3007" style="color:#000000;fill:none;opacity:.73889;stroke-linejoin:round;stroke-width:1.4163;stroke:#c8b7b7"/>
    <path d="m294.95 299.37 1.8105-8.1578 0.80469-10.1 3.6211-6.6039 1.207-7.3809 5.2304-5.4385 5.2305-3.8847h5.2304l6.0351-5.4385h8.0469l3.2187 3.1077 3.6211-3.1077 11.668-2.3308h6.4375l5.2304-1.9423 5.6328-6.9924 6.4375-6.6039 4.4258-3.8847 8.4492-2.7193 11.668-1.9423h10.461l5.2304-2.7193h8.0468l9.455 0.77693" style="color:#000000;fill:none;opacity:.73889;stroke-linejoin:round;stroke-width:2.2661;stroke:#ffaaaa"/>
    <path d="m385.28 120.67 6.0351 5.4385 2.4141 3.1077 4.0234 7.7693 2.8164 5.4385 8.8515 13.208 7.6445 8.1578 6.8398 5.4385 6.0351 3.1077-3.2187 5.4385-0.40234 4.6616-1.6094 4.6616-6.0351 4.6616s0.40234 4.6616 1.207 6.2155c0.80468 1.5539 7.2422 5.827 7.2422 5.827l0.40234 5.0501-3.6211 4.6616 3.6211 5.827 4.8281 4.8558" style="color:#000000;fill:none;opacity:.73889;stroke-linejoin:round;stroke-width:1.4163;stroke:#c8b7b7"/>
    <path d="m432.35 224.2 13.277 3.6904 11.668 0.38846 14.082-3.1077 12.473-8.5463 3.6211-10.877 8.8515-8.1578 10.863-9.7117 16.094-11.654 4.4258-8.5463 2.0117-6.6039 2.4141-5.0501 0.80469-6.2155 1.4915-2.4917" style="color:#000000;fill:none;opacity:.73889;stroke-linejoin:round;stroke-width:2.2661;stroke:#ffaaaa"/>
    <path d="m528.11 95.811v7.7693l0.40234 9.7116 2.8164 8.5463v5.0501l0.40235 5.827-2.8164 6.6039 2.0117 4.6616 3.8223 3.4962" style="color:#000000;fill:none;opacity:.73889;stroke-linejoin:round;stroke-width:2.2661;stroke:#ffaaaa"/>
    <path d="m531.53 124.56 9.8574 1.1654 5.2304 5.0501 5.6328 2.3308 8.0468-1.1654 6.4375-0.77694 5.6328-6.2154 7.6445-2.3308 4.0234-10.1 4.4258-7.3809s4.4257-3.1077 6.0352-3.4962c1.6094-0.38846 6.4375-1.9423 6.4375-1.9423l8.8516 9.7117 7.2421-0.77693 4.8281 0.77693 10.863-0.38847 7.2421-3.4962 6.8398 5.4385 7.2422 8.5463 6.8398 6.2155 7.6445 9.7117 2.0117 3.1077 10.059-1.1654 13.68 0.38846 4.4258 1.1654 0.80469 4.6616v2.7193" style="color:#000000;fill:none;opacity:.73889;stroke-linejoin:round;stroke-width:1.4163;stroke:#c8b7b7"/>
    <path d="m534.92 147.34 16.933 13.734 6.4375 7.7693 9.8675 7.9733 1.3493 1.8716" style="color:#000000;fill:none;opacity:.73889;stroke-linejoin:round;stroke-width:1.4163;stroke:#c8b7b7"/>
    <path d="m568.84 177.66 13.586-0.27469 14.082 1.9423 12.473 1.5539 5.2304-2.7193 10.863 1.1654 7.6445 2.7193 5.2305 2.7193" style="color:#000000;fill:none;opacity:.73889;stroke-linejoin:round;stroke-width:1.4163;stroke:#c8b7b7"/>
    <path d="m569.15 178.57 2.8164 7.3613 4.0234 7.3809 0.40234 4.6616 2.4141 5.827-4.0234 6.2155-0.80469 4.2731v4.2731l-0.80468 3.4962" style="color:#000000;fill:none;opacity:.73889;stroke-linejoin:round;stroke-width:1.4163;stroke:#c8b7b7"/>
    <path d="m638.76 186.71-0.80468 6.2155 2.414 3.8847 9.2539 1.5539 14.082 7.3809 9.6562 2.7193 9.6562 3.8847 6.4375 3.1077h7.6445l8.8516-1.9423 4.8281 4.6616 4.8282 6.6039 9.2539-0.38846 4.8281 1.9423 16.496 3.8847" style="color:#000000;fill:none;opacity:.73889;stroke-linejoin:round;stroke-width:2.2661;stroke:#c8b7b7"/>
    <path d="m698.7 147.87-2.0117 5.4385-2.8164 6.6039 2.414 10.489-0.40231 6.9924 0.40231 6.2155s3.2188 3.4962 1.6094 3.8847c-1.6094 0.38847-9.6562 3.1077-9.6562 3.1077l-5.2305 3.4962-1.207 9.3232-1.6094 7.3809-1.207 6.6039 9.6562 9.3232 3.2188 6.6039-2.4141 7.3808s-2.8164 4.2731-2.8164 5.827c0 1.5539 0.40231 6.6039 0.40231 6.6039l-4.0234 8.1578-4.0234 3.4962" style="color:#000000;fill:none;opacity:.73889;stroke-linejoin:round;stroke-width:2.2661;stroke:#c8b7b7"/>
    <path d="m573.17 222.65-2.0117 7.5751v6.9924l-1.207 5.827 2.8164 6.2155 3.6211 6.2155 0.80469 8.1578 5.2304 8.1578 3.2187 8.1578" style="color:#000000;fill:none;opacity:.73889;stroke-linejoin:round;stroke-width:2.2661;stroke:#c8b7b7"/>
    <path d="m539.58 350.65 6.2363 4.6616 12.473 7.7693 13.277 4.2731 10.059 6.6039 6.8398 4.2731h5.6328l17.301 2.7193" style="color:#000000;fill:none;opacity:.73889;stroke-linejoin:round;stroke-width:2.2661;stroke:#c8b7b7"/>
    <path d="m457.7 412.99v8.7405l5.2305 8.1578 4.8281 10.1 6.4375 8.9347 9.2539 0.77693 11.266-0.38847 7.6445 3.8847 5.6328 2.7193 4.8281 12.819 6.8398 7.3809 2.0117 8.1578 1.6094 12.819" style="color:#000000;fill:none;opacity:.73889;stroke-linejoin:round;stroke-width:1.4163;stroke:#c8b7b7"/>
    <path d="m428.33 484.28 18.105-4.2731 12.875-7.7693 12.07-6.9924 10.863-7.3809 6.4375-5.4385 2.414-2.7193" style="color:#000000;fill:none;opacity:.73889;stroke-linejoin:round;stroke-width:2.2661;stroke:#c8b7b7"/>
    <path d="m89.558 328.89-6.8398 3.1077-9.2539 1.5539-10.461 0.38847-5.2305 5.0501-9.2539 6.2155 8.0469 3.8846 6.0351 1.9423h6.4375l7.2422 10.1 11.668 8.1578 6.8398 1.1654 6.4375 4.2731 8.4492 8.1578 6.4375 5.827 6.0351 3.4962 5.2305 0.38846 3.6211 3.4962 4.0234 5.827" style="color:#000000;fill:none;opacity:.73889;stroke-linejoin:round;stroke-width:2.2661;stroke:#c8b7b7"/>
    <path d="m176.87 157.38 2.414-7.9636 1.6094-5.4385-2.0117-6.2155-6.4375-5.4385" style="color:#000000;fill:none;opacity:.73889;stroke-linejoin:round;stroke-width:2.2661;stroke:#c8b7b7"/>
    <path d="m232.39 211.19 2.8164-9.3232 4.8281-8.5463-6.0351-7.7693-3.2187-8.1578-2.0117-3.8847" style="color:#000000;fill:none;opacity:.73889;stroke-linejoin:round;stroke-width:1.4163;stroke:#c8b7b7"/>
    <path d="m176.87 170.4-14.082-3.4962-10.059-5.4385-15.691-2.7193h-8.4492l-12.473-2.3308-3.6211-1.5539" style="color:#000000;fill:none;opacity:.73889;stroke-linejoin:round;stroke-width:1.4163;stroke:#c8b7b7"/>
    <path d="m90.363 328.89 10.059-1.1654 4.4258 2.3308 6.4375-1.9423 10.059 5.827 13.68 3.4962 16.898 0.38846 7.2422 6.9924 4.0234 9.3232 4.0234 8.1578 6.4375 5.0501 8.4492 6.9924 3.4199 3.302" style="color:#000000;fill:none;opacity:.73889;stroke-linejoin:round;stroke-width:2.2661;stroke:#ffaaaa"/>
    <path d="m273.43 294.32-6.0351 1.5539-3.6211 2.3308-8.4492 1.9423-5.2304 3.8847-10.059 6.6039-0.40234 6.6039-6.0351 5.05-3.6211 6.9924-0.40235 8.1578 5.2305 11.654 2.0117 6.2155-1.6094 5.4385-10.461 3.4962-6.4375 4.6616-5.6328 3.8847-13.277 0.77694-8.4492 1.1654-7.2422 5.0501-8.4492 6.6039-4.8281 6.6039-2.8164 6.6039-2.4141 10.489-0.80468 5.827-6.4375 3.8847 0.40234 7.7693-10.461 1.5539-3.6211 5.0501-3.6211 3.4962h-10.059l-6.0351-0.38847-4.0234 3.4962-5.6328-0.38846-4.8281-1.5539" style="color:#000000;fill:none;opacity:.73889;stroke-linejoin:round;stroke-width:2.2661;stroke:#ffaaaa"/>
    <path d="m168.82 395.71-8.8515-5.827-8.4492-1.9423-6.4375 0.38846-4.0234 2.3308-2.8164 2.3308" style="color:#000000;fill:none;opacity:.73889;stroke-linejoin:round;stroke-width:2.2661;stroke:#ffaaaa"/>
    <path d="m623.08 121.3 16.501-1.6481 11.38-1.6481" style="color:#000000;fill:none;opacity:.73889;stroke-linejoin:round;stroke-width:2.2661;stroke:#ffaaaa"/>
    <path d="m619.1 122.4-16.501 2.1975-23.898 3.2962-22.191 1.0988h-15.932l-8.535 0.54938" style="color:#000000;fill:none;opacity:.73889;stroke-dasharray:4.53211, 2.26606;stroke-linejoin:round;stroke-width:2.2661;stroke:#ffaaaa"/>
    <path transform="matrix(.6 0 0 .6 485.45 -55.855)" d="m-60 482.86a4.5 4.5 0 1 1-9 0 4.5 4.5 0 1 1 9 0z" style="fill:#ffffff;stroke:#000000"/>
    <path transform="matrix(.6 0 0 .6 261.7 78.645)" d="m-60 482.86a4.5 4.5 0 1 1-9 0 4.5 4.5 0 1 1 9 0z" style="fill:#ffffff;stroke:#000000"/>
    <path transform="matrix(.6 0 0 .6 138.7 26.645)" d="m-60 482.86a4.5 4.5 0 1 1-9 0 4.5 4.5 0 1 1 9 0z" style="fill:#ffffff;stroke:#000000"/>
    <path transform="matrix(.6 0 0 .6 463.7 72.645)" d="m-60 482.86a4.5 4.5 0 1 1-9 0 4.5 4.5 0 1 1 9 0z" style="fill:#ffffff;stroke:#000000"/>
    <path d="m211.31 334.97c-0.36471 0.0731-0.7411 0.1613-1.0938 0.25 0.38727-0.098 0.78559-0.17063 1.1875-0.25-0.0299 6e-3 -0.0639-6e-3 -0.0937 0z" style="fill:none;stroke-width:1px;stroke:#000000"/>
    <path d="m210.94 300.5 2 5.0312c0.0368-1.4812-0.52509-3.1301-2-5.0312z" style="fill:none;stroke-width:1px;stroke:#000000"/>
    <path d="m212.66 307.16c-0.0522 0.16814-0.12262 0.33538-0.1875 0.5 0.0664-0.16731 0.1342-0.32906 0.1875-0.5z" style="fill:none;stroke-width:1px;stroke:#000000"/>
    <path d="m207.25 315.34c-0.13281 0.25143-0.2377 0.52236-0.34375 0.78125 0.10558-0.25788 0.21161-0.53075 0.34375-0.78125z" style="fill:none;stroke-width:1px;stroke:#000000"/>
    <path d="m215.66 334.53c1.0001-0.0144 2.0676 0.0171 3.1562 0.125-1.098-0.10869-2.1478-0.14155-3.1562-0.125z" style="fill:none;stroke-width:1px;stroke:#000000"/>
    <path d="m210.75 335.12c-0.17577 0.0363-0.35919 0.0502-0.53125 0.0937-0.12944 0.0324-0.24749 0.089-0.375 0.125 0.29999-0.0759 0.60114-0.1473 0.90625-0.21875z" style="fill:none;stroke-width:1px;stroke:#000000"/>
    <path d="m153.16 117.16c-1.3258 1.5988-2.4609 3.1928-3.5 4.8125 1.0371-1.6116 2.181-3.222 3.5-4.8125z" style="fill:none;stroke-width:1px;stroke:#000000"/>
    <path d="m75.625 104.16c1.0374 0.40755 1.9128 0.80729 2.6562 1.1875-0.74349-0.38021-1.6188-0.77995-2.6562-1.1875z" style="fill:none;stroke-width:1px;stroke:#000000"/>
    <path d="m67.562 104.66c-0.55208 0.32161-1.0182 0.66178-1.4375 1 0.41927-0.33822 0.88542-0.67839 1.4375-1z" style="fill:none;stroke-width:1px;stroke:#000000"/>
    <path d="m62.219 109.84c-0.35677 0.34603-0.76042 0.69792-1.2188 1.0312 0.45833-0.33333 0.86198-0.68522 1.2188-1.0312z" style="fill:none;stroke-width:1px;stroke:#000000"/>
    <path d="m46.469 111.34c-0.47993 0.42344-0.92731 0.84817-1.375 1.2812 0.44279-0.42786 0.90072-0.86279 1.375-1.2812z" style="fill:none;stroke-width:1px;stroke:#000000"/>
    <path d="m148.53 123.78c-0.67087 1.1016-1.3117 2.2182-1.9688 3.3125 0.66205-1.1007 1.292-2.2044 1.9688-3.3125z" style="fill:none;stroke-width:1px;stroke:#000000"/>
    <path transform="matrix(.6 0 0 .6 283.7 -172.86)" d="m-60 482.86a4.5 4.5 0 1 1-9 0 4.5 4.5 0 1 1 9 0z" style="fill:#ffffff;stroke:#000000"/>
    <path d="m532.53 118.91c-0.0664 1.2082-0.18088 2.4519-0.40625 3.7812 0.22392-1.319 0.3389-2.5818 0.40625-3.7812z" style="fill-rule:evenodd;fill:#99ff99;stroke-width:1px;stroke:#000000"/>
    <path transform="matrix(.6 0 0 .6 290.7 -62.355)" d="m-60 482.86a4.5 4.5 0 1 1-9 0 4.5 4.5 0 1 1 9 0z" style="fill:#ffffff;stroke:#000000"/>
    <path d="m237.41 234.62c-0.3551 0.27443-0.67614 0.563-1 0.875 0.31901-0.30632 0.65072-0.60506 1-0.875z" style="fill:none;stroke-width:1px;stroke:#000000"/>
    <path transform="translate(351,-194)" d="m-60 482.86a4.5 4.5 0 1 1-9 0 4.5 4.5 0 1 1 9 0z" style="fill:#ffffff;stroke:#000000"/>
    <path d="m276.65 279.75 8.4492-0.97117 4.4258 1.9423 3.6211 1.9423 3.6211 1.7481" style="color:#000000;fill:none;opacity:.73889;stroke-linejoin:round;stroke-width:2.2661;stroke:#ffaaaa"/>
    <path transform="matrix(.6 0 0 .6 566.7 -147.36)" d="m-60 482.86a4.5 4.5 0 1 1-9 0 4.5 4.5 0 1 1 9 0z" style="fill:#ffffff;stroke:#000000"/>
  </g>
</svg>
