<?xml version="1.0" encoding="UTF-8" standalone="no"?>
<!-- Created with Inkscape (http://www.inkscape.org/) -->
<svg
   xmlns:ns="http://creativecommons.org/ns#"
   xmlns:dc="http://purl.org/dc/elements/1.1/"
   xmlns:cc="http://web.resource.org/cc/"
   xmlns:rdf="http://www.w3.org/1999/02/22-rdf-syntax-ns#"
   xmlns:svg="http://www.w3.org/2000/svg"
   xmlns="http://www.w3.org/2000/svg"
   xmlns:xlink="http://www.w3.org/1999/xlink"
   xmlns:sodipodi="http://sodipodi.sourceforge.net/DTD/sodipodi-0.dtd"
   xmlns:inkscape="http://www.inkscape.org/namespaces/inkscape"
   id="svg2"
   sodipodi:version="0.32"
   inkscape:version="0.45"
   width="440"
   height="300"
   sodipodi:docbase="C:\Documents and Settings\nikolicd\My Documents\d"
   sodipodi:docname="Slovenian_dialects_Rigler.svg"
   inkscape:output_extension="org.inkscape.output.svg.inkscape"
   version="1.0"
   sodipodi:modified="true">
  <metadata
     id="metadata7">
    <rdf:RDF>
      <ns:Work
         rdf:about="">
        <dc:format>image/svg+xml</dc:format>
        <dc:type
           rdf:resource="http://purl.org/dc/dcmitype/StillImage" />
      </ns:Work>
      <cc:Work
         rdf:about="">
        <dc:format>image/svg+xml</dc:format>
        <dc:type
           rdf:resource="http://purl.org/dc/dcmitype/StillImage" />
      </cc:Work>
    </rdf:RDF>
  </metadata>
  <defs
     id="defs5">
    <inkscape:perspective
       sodipodi:type="inkscape:persp3d"
       inkscape:vp_x="0 : 571 : 1"
       inkscape:vp_y="0 : 1000 : 0"
       inkscape:vp_z="1832 : 571 : 1"
       inkscape:persp3d-origin="916 : 380.66667 : 1"
       id="perspective183" />
    <linearGradient
       id="linearGradient8146">
      <stop
         style="stop-color: rgb(0, 255, 0); stop-opacity: 1;"
         offset="0.00000000"
         id="stop8148" />
      <stop
         style="stop-color: rgb(0, 100, 0); stop-opacity: 1;"
         offset="1.0000000"
         id="stop8150" />
    </linearGradient>
    <linearGradient
       inkscape:collect="always"
       xlink:href="#linearGradient8146"
       id="linearGradient2145"
       gradientUnits="userSpaceOnUse"
       gradientTransform="matrix(1.26374,0,0,0.790459,-47.4623,-43.083)"
       spreadMethod="repeat"
       x1="927.00208"
       y1="567.43835"
       x2="934.79492"
       y2="567.3067" />
    <linearGradient
       id="linearGradient1526">
      <stop
         id="stop1528"
         offset="0.00000000"
         style="stop-color: rgb(0, 255, 0); stop-opacity: 1;" />
      <stop
         id="stop1530"
         offset="1.0000000"
         style="stop-color: rgb(0, 100, 0); stop-opacity: 1;" />
    </linearGradient>
    <inkscape:perspective
       id="perspective2571"
       inkscape:persp3d-origin="372.04724 : 350.78739 : 1"
       inkscape:vp_z="744.09448 : 526.18109 : 1"
       inkscape:vp_y="0 : 1000 : 0"
       inkscape:vp_x="0 : 526.18109 : 1"
       sodipodi:type="inkscape:persp3d" />
    <inkscape:perspective
       id="perspective2574"
       inkscape:persp3d-origin="372.04724 : 350.78739 : 1"
       inkscape:vp_z="744.09448 : 526.18109 : 1"
       inkscape:vp_y="0 : 1000 : 0"
       inkscape:vp_x="0 : 526.18109 : 1"
       sodipodi:type="inkscape:persp3d" />
    <inkscape:perspective
       id="perspective2575"
       inkscape:persp3d-origin="372.04724 : 350.78739 : 1"
       inkscape:vp_z="744.09448 : 526.18109 : 1"
       inkscape:vp_y="0 : 1000 : 0"
       inkscape:vp_x="0 : 526.18109 : 1"
       sodipodi:type="inkscape:persp3d" />
    <inkscape:perspective
       id="perspective2580"
       inkscape:persp3d-origin="372.04724 : 350.78739 : 1"
       inkscape:vp_z="744.09448 : 526.18109 : 1"
       inkscape:vp_y="0 : 1000 : 0"
       inkscape:vp_x="0 : 526.18109 : 1"
       sodipodi:type="inkscape:persp3d" />
    <inkscape:perspective
       id="perspective2495"
       inkscape:persp3d-origin="372.04724 : 350.78739 : 1"
       inkscape:vp_z="744.09448 : 526.18109 : 1"
       inkscape:vp_y="0 : 1000 : 0"
       inkscape:vp_x="0 : 526.18109 : 1"
       sodipodi:type="inkscape:persp3d" />
    <filter
       inkscape:collect="always"
       id="filter3306">
      <feGaussianBlur
         inkscape:collect="always"
         stdDeviation="0.41178838"
         id="feGaussianBlur3308" />
    </filter>
  </defs>
  <sodipodi:namedview
     id="base"
     pagecolor="#ffffff"
     bordercolor="#666666"
     borderopacity="1.0"
     inkscape:pageopacity="0.0"
     inkscape:pageshadow="2"
     inkscape:window-width="1280"
     inkscape:window-height="977"
     inkscape:zoom="1.9956231"
     inkscape:cx="196.14773"
     inkscape:cy="126.08548"
     inkscape:window-x="-4"
     inkscape:window-y="-4"
     inkscape:current-layer="layer1"
     showgrid="false"
     showguides="true"
     inkscape:guide-bbox="true"
     width="440px"
     height="300px">
    <inkscape:grid
       type="xygrid"
       id="grid3302" />
  </sodipodi:namedview>
  <g
     inkscape:groupmode="layer"
     id="layer3"
     inkscape:label="data"
     style="opacity:1;display:inline">
    <path
       style="opacity:1;fill:#44aaff;fill-opacity:1;fill-rule:evenodd;stroke:#000000;stroke-width:0.5;stroke-linecap:butt;stroke-linejoin:miter;stroke-miterlimit:4;stroke-dasharray:none;stroke-opacity:1"
       d="M 58.44246,89.39929 L 69.663412,87.52913 L 72.001111,89.86683 L 79.481745,86.12651 L 86.96238,92.20453 L 91.170237,100.1527 L 75.741428,110.43857 L 75.273888,115.11397 L 86.027301,124.46476 L 78.079126,132.41294 L 75.741428,140.82865 L 72.46865,145.50405 L 79.014206,153.91976 L 79.949285,159.53024 L 85.559761,163.7381 L 93.040396,174.02397 L 111.74198,189.92032 L 119.69016,189.92032 L 123.89801,192.25802 L 130.91111,194.12818 L 133.24881,193.1931 L 142.13206,202.07635 L 151.9504,224.98579 L 169.7169,258.18111 L 155.22317,266.59683 L 148.21008,269.40206 L 136.93241,263.63115 L 132.45755,267.29368 L 132.94171,264.34421 L 125.9756,255.80046 L 123.85506,257.22656 L 118.82556,253.89707 L 112.38372,255.63029 L 108.12887,253.48625 L 103.09938,256.00385 L 104.26135,260.51881 L 101.45611,260.51881 L 101.45611,263.32405 L 104.72889,266.59683 L 102.85873,271.27222 L 98.183333,270.80468 L 89.767618,275.94762 L 80.884364,272.67484 L 79.481745,267.99944 L 70.598491,269.40206 L 68.260793,269.40206 L 64.520476,272.2073 L 51.896904,264.72667 L 52.364444,260.51881 L 51.896905,253.97325 L 60.312619,253.97325 L 69.663412,253.03818 L 72.468651,248.36278 L 70.130952,245.09 L 75.273888,239.94706 L 81.682504,240.63176 L 77.361204,235.27167 L 74.282087,235.60227 L 75.684706,231.00709 L 72.629084,223.93727 L 61.715238,210.9596 L 56.104761,209.55698 L 49.559206,196.46587 L 50.026746,184.77738 L 53.767063,181.03706 L 50.026745,175.89413 L 43.01365,168.88103 L 41.143492,149.24437 L 28.98746,137.55587 L 22.441905,128.20508 L 6.5455555,116.98413 L 3.7403174,109.97103 L 7.0130952,101.08778 L 14.49373,100.1527 L 16.363889,94.54222 L 33.662857,95.00976 L 42.546111,101.08778 L 58.44246,94.07468 L 58.44246,89.39929 z "
       id="path8140"
       sodipodi:nodetypes="ccccccccccccccccccccccccccccccccccccccccccccccccccccccccccccccccccccccccccccccc" />
    <path
       style="fill:#00aa00;fill-opacity:1;fill-rule:evenodd;stroke:#000000;stroke-width:0.5;stroke-linecap:butt;stroke-linejoin:miter;stroke-miterlimit:4;stroke-dasharray:none;stroke-opacity:1"
       d="M 185.61325,103.89302 L 201.04206,120.25691 L 201.04206,125.39984 L 213.66563,126.80246 L 216.93841,127.73754 L 214.13317,132.41294 L 222.54889,140.82865 L 233.76984,139.89357 L 229.56198,152.51714 L 214.13317,158.59516 L 209.45778,153.45222 L 201.5096,158.12762 L 197.76928,156.25746 L 160.36611,170.28365 L 158.02841,158.59516 L 151.48286,153.91976 L 154.75563,145.97159 L 159.89857,140.82865 L 158.49595,135.21818 L 151.48286,131.01032 L 148.21008,131.01032 L 143.06714,139.42603 L 130.44357,137.55587 L 123.89801,140.36111 L 115.94984,140.36111 L 107.53413,136.6208 L 111.74198,129.6077 L 110.8069,123.99722 L 94.443015,127.27 L 86.027301,124.46476 L 75.741428,115.58151 L 76.208968,110.43857 L 91.170237,100.1527 L 86.494841,92.67207 L 96.780713,80.048494 L 101.45611,75.373097 L 114.54722,82.386192 L 120.1577,80.048494 L 127.17079,84.25635 L 130.91111,89.86683 L 134.65143,91.73699 L 139.32682,89.86683 L 142.5996,91.73699 L 148.67762,90.33437 L 154.75564,92.20453 L 163.63889,90.80191 L 173.45722,96.41238 L 177.66508,94.07468 L 183.27555,102.02286 L 185.61325,103.89302 z "
       id="path2316"
       sodipodi:nodetypes="cccccccccccccccccccccccccccccccccccccccccccccccccc" />
    <path
       style="fill:#aa0000;fill-opacity:1;fill-rule:evenodd;stroke:#000000;stroke-width:0.5;stroke-linecap:butt;stroke-linejoin:miter;stroke-miterlimit:4;stroke-dasharray:none;stroke-opacity:1"
       d="M 52.364437,45.450558 L 40.675952,47.788256 L 32.260238,55.736431 L 28.98746,70.6977 L 30.390079,75.373097 L 34.597936,80.516034 L 42.078571,79.580954 L 51.429365,86.12651 L 58.44246,89.86683 L 67.325714,87.99667 L 71.533571,88.93175 L 78.546666,86.59405 L 86.494841,92.67207 L 93.975475,85.19143 L 101.92365,76.308177 L 114.07968,82.853732 L 118.75508,80.048494 L 127.63833,84.72389 L 132.31373,92.20453 L 138.85928,90.80191 L 141.66452,92.20453 L 150.08024,90.33437 L 152.88547,92.20453 L 164.10643,90.80191 L 173.92476,96.41238 L 178.13262,94.07468 L 184.21063,104.36056 L 187.48341,93.60714 L 197.76928,90.80191 L 223.95151,97.815 L 238.44524,90.33437 L 255.7442,95.94484 L 263.22484,96.87992 L 272.10809,94.07468 L 281.45889,92.67207 L 285.1992,85.65897 L 291.74476,85.65897 L 299.22539,72.567859 L 299.22539,62.281986 L 292.2123,53.398732 L 276.78349,54.801351 L 274.44579,55.736431 L 268.83532,51.061034 L 264.15992,56.67151 L 259.95206,53.398732 L 254.80912,53.398732 L 253.40651,49.190875 L 249.66619,47.320716 L 237.51016,62.281986 L 222.54889,47.788256 L 215.53579,44.515478 L 197.76928,31.424367 L 194.02897,31.424367 L 173.92476,41.242701 L 164.57397,41.242701 L 155.28161,59.359863 L 136.63847,56.90528 L 126.87858,50.242839 L 115.24853,46.385638 L 105.0211,51.411689 L 94.326133,60.645598 L 71.475126,58.191014 L 52.364437,45.450558 z "
       id="path3287"
       sodipodi:nodetypes="ccccccccccccccccccccccccccccccccccccccccccccccccccccccccccccccc" />
    <path
       style="opacity:1;color:#000000;fill:#aa00ff;fill-opacity:1;fill-rule:evenodd;stroke:#000000;stroke-width:0.5;stroke-linecap:butt;stroke-linejoin:miter;marker:none;marker-start:none;marker-mid:none;marker-end:none;stroke-miterlimit:4;stroke-dasharray:none;stroke-dashoffset:0;stroke-opacity:1;visibility:visible;display:inline;overflow:visible;enable-background:accumulate"
       d="M 142.5996,138.95849 L 148.21008,131.01032 L 150.54778,130.54278 L 158.02841,134.75064 L 160.36611,141.29619 L 155.22317,145.97159 L 151.9504,153.91976 L 158.02841,158.59516 L 159.89857,169.81611 L 153.35301,181.5046 L 141.66452,188.98524 L 131.37865,193.66064 L 123.89801,192.72556 L 119.22262,189.45278 L 111.74198,190.38786 L 93.040396,174.02397 L 86.027301,164.20564 L 81.819444,161.4004 L 79.949285,159.53024 L 79.014206,153.45222 L 72.46865,145.97159 L 75.273888,142.23127 L 78.079126,132.41294 L 86.494841,124.9323 L 94.443015,127.27 L 111.27444,123.52968 L 111.74198,129.14016 L 107.53413,136.6208 L 116.88492,140.82865 L 123.89801,139.89357 L 130.44357,137.55587 L 142.5996,138.95849 z "
       id="path4258"
       sodipodi:nodetypes="cccccccccccccccccccccccccccccccc" />
    <path
       style="fill:#ff8800;fill-opacity:1;fill-rule:evenodd;stroke:#00000f;stroke-width:0.5;stroke-linecap:butt;stroke-linejoin:miter;stroke-miterlimit:4;stroke-dasharray:none;stroke-opacity:0.94117647"
       d="M 297.82278,51.528574 L 290.80968,53.866272 L 298.75785,61.346907 L 299.69293,72.567859 L 292.2123,84.25635 L 285.1992,86.12651 L 281.92643,91.73699 L 271.17301,94.07468 L 263.22484,96.87992 L 237.51016,90.33437 L 222.54889,97.815 L 196.8342,90.33437 L 186.08079,93.1396 L 184.67817,103.42548 L 201.04206,119.78937 L 201.5096,124.9323 L 215.53579,127.27 L 214.60071,132.88048 L 222.54889,141.29619 L 232.83476,139.42603 L 229.56198,152.98468 L 214.13317,158.59516 L 213.66563,163.27056 L 231.89968,159.53024 L 242.18555,170.75119 L 256.67928,171.68627 L 269.77039,179.63445 L 276.78349,193.66064 L 287.06936,197.86849 L 289.8746,205.81667 L 295.95262,209.55698 L 297.35524,207.21929 L 300.16047,207.21929 L 302.49817,208.15437 L 310.44635,203.01143 L 320.26468,207.21929 L 326.3427,202.07635 L 324.005,197.86849 L 325.40762,195.53079 L 323.53746,193.1931 L 329.14793,184.77738 L 326.81024,177.76429 L 331.48563,166.54333 L 322.60238,160.46532 L 318.39452,159.99778 L 314.6542,153.45222 L 314.18666,145.97159 L 319.79714,140.36111 L 321.6673,134.75064 L 329.61547,134.2831 L 336.62857,137.08833 L 339.90135,130.54278 L 338.96627,127.73754 L 333.82333,126.80246 L 333.35579,114.64643 L 327.27778,109.50349 L 324.005,96.87992 L 338.03119,89.86683 L 330.43367,85.77586 L 329.3817,75.139329 L 325.5245,74.788674 L 324.79397,65.233331 L 322.19328,46.794735 L 307.9041,52.200663 L 297.82278,51.528574 z "
       id="path5231"
       sodipodi:nodetypes="ccccccccccccccccccccccccccccccccccccccccccccccccccccccccccccccccc" />
    <path
       style="fill:#33ff33;fill-opacity:1;fill-rule:evenodd;stroke:#000000;stroke-width:0.5;stroke-linecap:butt;stroke-linejoin:miter;stroke-miterlimit:4;stroke-dasharray:none;stroke-opacity:1"
       d="M 209.46875,153.4375 L 201.96875,158.125 L 198.25,156.25 L 159.90625,169.8125 L 153.34375,181.5 L 133.25,193.1875 L 142.125,201.59375 L 149.625,220.78125 L 169.71875,257.71875 L 171.59375,244.625 L 175.3125,244.15625 L 181.875,232.9375 L 185.625,235.28125 L 185.15625,240.875 L 195.4375,250.6875 L 195.90625,259.59375 L 200.09375,259.59375 L 209,264.71875 L 210.40625,271.28125 L 213.65625,273.15625 L 223.03125,270.34375 L 225.8125,261.46875 L 227.125,262.34375 L 232.40625,263.65625 L 236.375,264 L 247.9375,253.75 L 258.875,255.71875 L 272.625,252.78125 L 271.625,248.84375 L 281,239.46875 L 285.65625,242.28125 L 287.53125,239.46875 L 281.9375,228.71875 L 273.96875,231.0625 L 269.78125,225.46875 L 273.03125,222.1875 L 288,213.75 L 296.875,213.3125 L 296.875,209.5625 L 290.34375,206.28125 L 286.59375,197.875 L 276.3125,193.65625 L 269.78125,179.625 L 258.09375,171.6875 L 241.71875,170.75 L 232.375,160 L 214.125,163.28125 L 213.65625,158.59375 L 209.46875,153.4375 z M 227.125,262.34375 L 227.125,262.34375 z "
       id="path9112"
       sodipodi:nodetypes="ccccccccccccccccccccccccccccccccccccccccccccccccccc" />
    <path
       style="opacity:1;color:#000000;fill:#ffff00;fill-opacity:1;fill-rule:evenodd;stroke:#00000f;stroke-width:0.5;stroke-linecap:butt;stroke-linejoin:miter;marker:none;marker-start:none;marker-mid:none;marker-end:none;stroke-miterlimit:4;stroke-dasharray:none;stroke-dashoffset:0;stroke-opacity:0.94117647;visibility:visible;display:inline;overflow:visible;enable-background:accumulate"
       d="M 322.00486,46.792829 L 327.62507,45.801027 L 330.60048,47.784631 L 338.53489,46.792829 L 343.8245,43.486824 L 353.74251,45.470427 L 359.69332,50.098834 L 364.32173,51.090635 L 368.95013,45.470427 L 363.32992,39.519618 L 366.30533,27.948602 L 365.31353,24.642597 L 379.52935,17.369386 L 382.50475,17.699987 L 389.11676,8.773774 L 381.84355,5.467769 L 382.83535,2.822965 L 386.47196,2.822965 L 391.10036,5.79837 L 399.03478,2.161764 L 406.30799,5.467769 L 406.96919,20.344791 L 409.61399,22.658994 L 409.28339,30.593405 L 405.31619,30.924006 L 405.31619,34.230011 L 409.94459,43.486824 L 414.2424,45.801027 L 412.5894,48.115231 L 419.53201,50.098834 L 419.53201,56.380243 L 415.2342,56.049642 L 414.573,59.355647 L 427.46642,68.943061 L 427.13582,72.910266 L 430.77242,71.918465 L 434.07843,82.16708 L 436.72323,88.44849 L 435.07023,88.77909 L 422.50741,81.175278 L 412.92,76.216271 L 404.65498,82.49768 L 400.02658,82.16708 L 396.05937,86.46489 L 401.01838,100.35011 L 404.98558,103.98671 L 402.67138,106.30091 L 394.40637,106.63152 L 392.75337,104.97851 L 388.78616,105.97031 L 384.15775,101.67251 L 374.57034,104.64791 L 372.91734,106.30091 L 375.89274,110.59872 L 370.93374,114.23533 L 368.28893,118.20253 L 362.66872,118.86373 L 358.70152,121.50854 L 353.41191,123.49214 L 347.7917,126.13694 L 337.87369,127.78995 L 333.24528,126.46754 L 333.24528,115.22713 L 326.63327,108.94572 L 323.65787,96.7135 L 338.20429,89.77089 L 330.26988,85.80369 L 329.60868,74.893869 L 325.31087,74.893869 L 322.00486,46.792829 z "
       id="path13014"
       sodipodi:nodetypes="cccccccccccccccccccccccccccccccccccccccccccccccccccccccccccccccccccccc" />
    <path
       style="opacity:1;color:#000000;fill:none;fill-opacity:1;fill-rule:evenodd;stroke:#000000;stroke-width:0.5;stroke-linecap:butt;stroke-linejoin:miter;marker:none;marker-start:none;marker-mid:none;marker-end:none;stroke-miterlimit:4;stroke-dasharray:0.5, 0.5;stroke-dashoffset:0;stroke-opacity:1;visibility:visible;display:inline;overflow:visible;enable-background:accumulate"
       d="M 269.76999,225.31709 L 261.50498,231.9291 L 252.57876,233.5821 L 252.57876,249.78152 L 247.95036,253.41813 L 259.19077,256.06293 L 272.74539,252.75693 L 271.42299,248.12852 L 281.34101,238.87171 L 285.30821,241.84711 L 287.29181,239.53291 L 282.00221,228.62309 L 273.40659,230.93729 L 269.76999,225.31709 z "
       id="path13010"
       sodipodi:nodetypes="cccccccccccccc" />
    <path
       transform="translate(888.804,273.148)"
       style="opacity:1;fill:none;fill-rule:evenodd;stroke:#000000;stroke-width:0.5;stroke-linecap:butt;stroke-linejoin:miter;stroke-miterlimit:4;stroke-dasharray:0.5, 0.5;stroke-dashoffset:0;stroke-opacity:1;display:inline"
       d="M -717.88355,-29.31729 L -714.24695,-29.31729 L -706.31254,-40.2271 L -702.67593,-37.2517 L -703.99833,-32.29269 L -693.41912,-22.04408 L -693.08852,-13.44846 L -688.46011,-14.10966 L -679.8645,-7.82826 L -678.5421,-1.54685 L -675.23609,0.43676 L -665.31808,-2.86925 L -663.33447,-11.79546 L -667.30168,-9.81186 L -677.21969,-9.81186 L -681.1869,-13.44846 L -684.1623,-22.04408 L -687.13771,-25.35008 L -692.42732,-36.2599 L -700.03113,-40.2271 L -708.95734,-42.21071 L -714.90815,-37.9129 L -717.88355,-29.31729 z "
       id="path12031" />
    <path
       transform="translate(888.804,273.148)"
       style="opacity:1;color:#000000;fill:none;fill-opacity:1;fill-rule:evenodd;stroke:#000000;stroke-width:0.5;stroke-linecap:butt;stroke-linejoin:miter;marker:none;marker-start:none;marker-mid:none;marker-end:none;stroke-miterlimit:4;stroke-dasharray:0.5, 0.5;stroke-dashoffset:0;stroke-opacity:1;visibility:visible;display:inline;overflow:visible;enable-background:accumulate"
       d="M -636.55584,-39.5659 L -647.46565,-46.17791 L -658.37547,-56.42653 L -674.57489,-51.13692 L -674.57489,-47.83091 L -682.8399,-39.2353 L -692.09672,-36.2599"
       id="path12033"
       sodipodi:nodetypes="ccccccc" />
    <text
       xml:space="preserve"
       style="font-size:11px;font-style:normal;font-weight:normal;text-align:center;text-anchor:middle;opacity:1;fill:#000000;fill-opacity:1;stroke:none;stroke-width:1px;stroke-linecap:butt;stroke-linejoin:miter;stroke-opacity:1;display:inline;font-family:sans"
       x="119.48228"
       y="264.64865"
       id="text14975"><tspan
         sodipodi:role="line"
         id="tspan14977"
         x="119.48228"
         y="264.64865">2</tspan></text>
    <text
       transform="translate(888.804,273.148)"
       xml:space="preserve"
       style="font-size:11;font-style:normal;font-weight:normal;text-align:center;text-anchor:middle;opacity:1;fill:#000000;fill-opacity:1;stroke:none;stroke-width:1px;stroke-linecap:butt;stroke-linejoin:miter;stroke-opacity:1;display:inline;font-family:sans"
       x="-696.81195"
       y="-29.858395"
       id="text14979"><tspan
         sodipodi:role="line"
         id="tspan14981"
         x="-696.81195"
         y="-29.858395">3</tspan></text>
    <text
       transform="translate(888.804,273.148)"
       xml:space="preserve"
       style="font-size:11;font-style:normal;font-weight:normal;text-align:center;text-anchor:middle;opacity:1;fill:#000000;fill-opacity:1;stroke:none;stroke-width:1px;stroke-linecap:butt;stroke-linejoin:miter;stroke-opacity:1;display:inline;font-family:sans"
       x="-662.21405"
       y="-25.182999"
       id="text14983"><tspan
         sodipodi:role="line"
         id="tspan14985"
         x="-662.21405"
         y="-25.182999">4</tspan></text>
    <text
       transform="translate(888.804,273.148)"
       xml:space="preserve"
       style="font-size:11;font-style:normal;font-weight:normal;text-align:center;text-anchor:middle;opacity:1;fill:#000000;fill-opacity:1;stroke:none;stroke-width:1px;stroke-linecap:butt;stroke-linejoin:miter;stroke-opacity:1;display:inline;font-family:sans"
       x="-625.27838"
       y="-27.988239"
       id="text14987"><tspan
         sodipodi:role="line"
         id="tspan14989"
         x="-625.27838"
         y="-27.988239">5</tspan></text>
    <text
       transform="translate(888.804,273.148)"
       xml:space="preserve"
       style="font-size:11;font-style:normal;font-weight:normal;text-align:center;text-anchor:middle;opacity:1;fill:#000000;fill-opacity:1;stroke:none;stroke-width:1px;stroke-linecap:butt;stroke-linejoin:miter;stroke-opacity:1;display:inline;font-family:sans"
       x="-632.29144"
       y="-3.6761751"
       id="text14991"><tspan
         sodipodi:role="line"
         id="tspan14993"
         x="-632.29144"
         y="-3.6761751">6</tspan></text>
    <text
       transform="translate(888.804,273.148)"
       xml:space="preserve"
       style="font-size:11;font-style:normal;font-weight:normal;text-align:center;text-anchor:middle;opacity:1;fill:#000000;fill-opacity:1;stroke:none;stroke-width:1px;stroke-linecap:butt;stroke-linejoin:miter;stroke-opacity:1;display:inline;font-family:sans"
       x="-821.64502"
       y="-8.351572"
       id="text14997"><tspan
         sodipodi:role="line"
         id="tspan14999"
         x="-821.64502"
         y="-8.351572">1</tspan></text>
    <path
       style="opacity:1;color:#000000;fill:none;fill-opacity:1;fill-rule:evenodd;stroke:#000000;stroke-width:0.5;stroke-linecap:butt;stroke-linejoin:miter;marker:none;marker-start:none;marker-mid:none;marker-end:none;stroke-miterlimit:4;stroke-dasharray:0.5, 0.5;stroke-dashoffset:0;stroke-opacity:1;visibility:visible;display:inline;overflow:visible;enable-background:accumulate"
       d="M 69.652431,251.89472 L 84.184233,256.90569 L 87.691909,260.91446 L 101.22152,260.41337"
       id="path2209" />
  </g>
  <text
     xml:space="preserve"
     style="font-size:25px;font-style:normal;font-weight:normal;text-align:center;line-height:125%;text-anchor:middle;fill:#000000;fill-opacity:1;stroke:none;stroke-width:1px;stroke-linecap:butt;stroke-linejoin:miter;stroke-opacity:1;font-family:Bitstream Vera Sans"
     x="307.55701"
     y="845.37201"
     id="text3411"
     sodipodi:linespacing="125%"><tspan
       sodipodi:role="line"
       id="tspan3413"
       x="311.0238"
       y="845.37201"> </tspan></text>
  <g
     transform="translate(888.804,273.148)"
     id="layer1"
     inkscape:groupmode="layer"
     inkscape:label="Layer 1"
     style="opacity:1;display:inline">
    <path
       style="fill:#ffffff;fill-opacity:0;fill-rule:evenodd;stroke:#dd0000;stroke-width:2;stroke-linecap:butt;stroke-linejoin:miter;stroke-miterlimit:4;stroke-dasharray:4, 2, 1, 2;stroke-dashoffset:0;stroke-opacity:1"
       d="M -813.62773,-25.74474 L -817.64618,-27.96142 L -815.4291,-29.76249 L -808.63929,-26.43745 L -800.60236,-26.71454 L -796.58391,-31.7021 L -791.31833,-34.19589 L -793.81255,-36.68967 L -801.98805,-44.44811 L -803.09658,-50.82111 L -807.66931,-56.63993 L -814.45913,-58.85663 L -823.18889,-66.75362 L -828.7316,-67.0307 L -835.24427,-76.17457 L -829.1473,-87.39659 L -825.82167,-95.01649 L -825.68311,-100.55823 L -830.81011,-101.80512 L -834.82857,-98.61862 L -839.53986,-98.61862 L -845.49828,-103.88328 L -845.49828,-106.79269 L -841.89552,-109.7021 L -841.89552,-113.16569 L -843.00406,-115.52093 L -836.62995,-119.40015 L -832.75005,-121.06267 L -822.91175,-130.62217 L -822.63461,-134.2243 L -819.44756,-135.05556 L -824.71313,-139.6275 L -833.30432,-138.79624 L -834.82857,-142.12128 L -840.37128,-144.06089 L -847.99249,-145.58487 L -850.48671,-142.95255 L -853.5352,-144.61507 L -852.28809,-147.52448 L -854.92087,-152.78913 L -855.75228,-159.43922 L -851.31812,-161.65592 L -850.20958,-164.01115 L -847.5768,-165.67368 L -848.13106,-170.79979 L -843.97404,-171.63105 L -840.50984,-172.87794 L -836.90708,-175.64882 L -834.13574,-176.06444 L -830.67154,-177.86551 L -829.00873,-183.54579 L -822.08035,-185.20832 L -816.95335,-183.68434 L -813.76629,-191.58132 L -813.35059,-195.18345 L -811.54921,-198.92413 L -805.5908,-198.36995 L -801.98805,-196.15325 L -797.69244,-197.81577 L -793.25828,-197.53869 L -789.93266,-198.36995 L -783.28141,-196.43034 L -780.37149,-193.38238 L -778.01584,-193.1053 L -774.69022,-190.75006 L -770.94889,-192.27404 L -765.96046,-191.44277 L -760.14061,-187.56356 L -758.75494,-183.54579 L -755.56789,-181.19055 L -750.71802,-182.43745 L -746.83812,-181.19055 L -741.01828,-182.29891 L -736.99982,-180.63638 L -732.42708,-181.19055 L -725.22157,-182.29891 L -719.67887,-178.55823 L -714.4133,-176.75716 L -711.50338,-178.55823 L -706.79207,-172.18523 L -705.54497,-168.44455 L -703.05075,-172.18523 L -702.08077,-180.08221 L -691.96534,-181.88327 L -688.36258,-186.87084 L -683.65128,-191.71986 L -676.58433,-191.44277 L -673.12014,-193.93656 L -665.36036,-211.39305 L -661.61903,-211.53158 L -659.67908,-210.14615 L -655.24492,-215.27226 L -652.7507,-213.05557 L -652.05786,-210.28469 L -649.14794,-214.57955 L -644.57521,-218.45876 L -639.44821,-218.45876 L -638.2011,-217.76605 L -634.3212,-219.56711 L -633.0741,-218.5973 L -630.30274,-219.42857 L -627.25425,-219.42857 L -622.54295,-216.38061 L -614.78317,-216.51915 L -611.59611,-218.73585 L -596.6308,-218.5973 L -592.19664,-215.4108 L -589.84099,-210.28469 L -588.03961,-212.2243 L -586.23823,-210.42324 L -580.97266,-214.441 L -579.86412,-221.09109 L -573.76715,-224.69322 L -570.71865,-223.16924 L -566.7002,-227.187 L -562.8203,-227.46409 L -557.97044,-225.66302 L -552.01202,-226.49429 L -543.9751,-230.51204 L -536.76958,-229.26515 L -528.45553,-224.13904 L -523.32853,-222.61507 L -517.78583,-218.45876 L -517.50869,-224.69322 L -524.99134,-234.39126 L -523.60566,-244.92057 L -524.7142,-250.04668 L -520.28004,-251.01649 L -514.8759,-252.40192 L -508.08609,-256.83531 L -503.23622,-254.34153 L -491.73511,-258.77492 L -485.91526,-256.97386 L -479.26402,-252.26338 L -480.51112,-245.3362 L -484.11388,-242.98096 L -481.4811,-239.933 L -482.86678,-236.7465 L -474.96843,-225.94011 L -470.11856,-225.52448 L -470.11856,-218.45876 L -474.27558,-217.07332 L -473.44418,-213.60974 L -470.25712,-210.83887 L -462.6359,-205.29713 L -460.00312,-200.17102 L -458.61744,-200.86374 L -456.2618,-194.07511 L -451.96619,-186.73229 L -455.43039,-184.09997 L -459.03315,-188.53336 L -463.74444,-191.71986 L -467.62434,-192.55113 L -468.59431,-195.18345 L -472.0585,-195.18345 L -476.21553,-197.81577 L -484.66816,-192.1355 L -489.51802,-191.85841 L -492.28938,-187.84064 L -490.0723,-181.74473 L -488.13235,-173.70921 L -484.80673,-170.24562 L -485.08386,-167.47474 L -493.12078,-167.3362 L -494.78359,-168.5831 L -497.83208,-167.47474 L -505.17617,-172.04669 L -511.96598,-169.13726 L -516.40014,-169.13726 L -513.35166,-162.34863 L -518.06295,-158.88504 L -520.41861,-155.69854 L -523.60566,-154.5902 L -526.09988,-154.86729 L -531.78115,-150.15681 L -537.18529,-150.15681 L -543.00513,-146.27759 L -546.19219,-145.86196 L -550.21064,-145.16924 L -548.82497,-142.39837 L -552.42773,-136.02537 L -554.36768,-136.441 L -558.38614,-138.79624 L -567.39303,-138.3806 L -568.91727,-132.14615 L -573.90572,-127.29713 L -573.49001,-122.17102 L -573.90572,-118.70743 L -570.71865,-113.58132 L -565.73022,-111.9188 L -557.6933,-107.06978 L -561.9889,-95.01649 L -560.18752,-87.81222 L -564.89882,-79.91525 L -563.37458,-76.5902 L -564.89882,-74.92768 L -562.12746,-70.77137 L -567.5316,-67.72342 L -569.88725,-65.50672 L -578.47845,-70.49428 L -585.12969,-65.22963 L -589.28673,-66.47653 L -591.78094,-65.22963 L -592.05808,-60.51915 L -603.28205,-58.85663 L -615.75314,-51.65236 L -620.04873,-48.32732 L -613.12036,-41.95432 L -606.88481,-45.41791 L -605.49914,-41.67723 L -607.85479,-38.62928 L -604.25203,-39.18346 L -601.06497,-34.61151 L -601.20354,-32.11773 L -604.25203,-31.97919 L -607.85479,-33.64171 L -612.15038,-31.42501 L -614.2289,-27.13017 L -616.16885,-26.43745 L -614.6446,-21.03425 L -614.50603,-14.38416 L -609.9333,-9.11951 L -605.08343,-5.51738 L -609.79473,1.68688 L -617.41595,-0.8069 L -624.20577,5.5661 L -627.53139,5.5661 L -628.77849,4.45776 L -631.54985,7.64426 L -639.17107,0.57854 L -642.08099,-1.63816 L -645.96088,-6.07155 L -649.70221,-4.82466 L -653.30497,-6.76427 L -656.35346,-6.90282 L -661.48046,-12.44455 L -663.42041,-12.02893 L -664.80608,-2.74651 L -668.54741,-3.0236 L -671.73446,-1.36107 L -674.36725,-0.11419 L -677.1386,-1.36107 L -679.35569,-8.28825 L -684.62125,-10.36641 L -688.63971,-14.10707 L -692.93532,-13.96854 L -692.24247,-20.75717 L -694.7367,-24.08221 L -704.02072,-32.25628 L -703.05075,-37.38239 L -706.37638,-40.01471 L -710.1177,-32.53337 L -713.58189,-28.79269 L -715.93754,-28.23851 L -717.73892,-16.46232 L -723.69733,-12.30602 L -728.68577,-10.36641 L -733.95133,-6.76427 L -737.41552,-6.48718 L -739.49404,-3.85486 L -746.28385,-7.87262 L -749.33233,-7.45698 L -750.99515,-10.36641 L -755.84502,-5.51738 L -761.11059,-6.62573 L -763.88194,-5.37884 L -773.58167,-7.17991 L -781.2029,-14.10707 L -781.61859,-12.30602 L -786.05276,-12.30602 L -786.05276,-9.53514 L -783.00428,-6.48718 L -785.49849,-1.49962 L -789.93266,-2.60796 L -796.44534,1.82543 L -801.01807,2.51815 L -807.11504,-0.39127 L -809.47069,-5.2403 L -812.38061,-5.10175 L -820.41754,-3.30068 L -823.88173,-1.49962 L -834.82857,-7.17991"
       id="path1298"
       sodipodi:nodetypes="cccccccccccccccccccccccccccccccccccccccccccccccccccccccccccccccccccccccccccccccccccccccccccccccccccccccccccccccccccccccccccccccccccccccccccccccccccccccccccccccccccccccccccccccccccccccccccccccccccccccccccccccccccccccccccccccccccccccccccccccccccccccccccccccccccccccccccccccccccccccccc" />
    <path
       style="fill:none;fill-rule:evenodd;stroke:#000000;stroke-width:0.5;stroke-linecap:butt;stroke-linejoin:miter;stroke-miterlimit:4;stroke-dasharray:none;stroke-opacity:1;filter:url(#filter3306)"
       d="M -836.07283,21.11014 L -841.09584,21.08841 L -847.19297,-11.69411 L -844.38773,-15.90197 L -836.9071,-9.82395 L -836.43956,-16.36951 L -837.37464,-19.64229 L -829.42646,-19.17475 L -818.20551,-21.0449 L -815.86781,-25.25276 L -819.60813,-28.52554 L -814.46519,-33.20094 L -806.98456,-32.26586 L -811.19241,-37.87633 L -814.46519,-38.34387 L -813.06257,-42.08419 L -816.80289,-50.03236 L -828.02384,-63.12348 L -832.2317,-63.59102 L -838.77725,-66.39625 L -844.97215,-60.08447 L -838.07594,-53.77268 L -845.67346,-50.26614 L -883.19352,-64.05856"
       id="path11052"
       sodipodi:nodetypes="cccccccccccccccccccccccc" />
    <path
       style="opacity:1;color:#000000;fill:#999999;fill-opacity:1;fill-rule:evenodd;stroke:none;stroke-width:1px;stroke-linecap:butt;stroke-linejoin:miter;marker:none;marker-start:none;marker-mid:none;marker-end:none;stroke-miterlimit:4;stroke-dasharray:none;stroke-dashoffset:0;stroke-opacity:1;visibility:visible;display:inline;overflow:visible;enable-background:accumulate"
       d="M -709.28794,-114.61221 L -714.24695,-116.26521 L -709.61854,-119.90182 L -712.92455,-120.23242 L -715.89995,-116.26521 L -719.20596,-122.54662 L -720.52836,-113.28981 L -715.89995,-111.63681 L -720.85896,-109.3226 L -714.57755,-103.37179 L -712.92455,-109.3226 L -707.63494,-107.6696 L -705.98194,-110.645 L -709.28794,-114.61221 z "
       id="path11054" />
    <path
       style="fill:#999999;fill-opacity:1;fill-rule:evenodd;stroke:none;stroke-width:1px;stroke-linecap:butt;stroke-linejoin:miter;stroke-opacity:1"
       d="M -571.09694,-199.24593 L -572.74994,-196.27053 L -565.47673,-191.64212 L -561.84013,-193.29512 L -561.50953,-195.93993 L -566.79914,-199.57653 L -571.09694,-199.24593 z "
       id="path11056" />
    <path
       style="fill:none;fill-rule:evenodd;stroke:#0000ff;stroke-width:0.5;stroke-linecap:butt;stroke-linejoin:miter;stroke-miterlimit:4;stroke-dasharray:none;stroke-opacity:1"
       d="M -465.96599,-153.29247 L -478.85941,-155.27607 L -482.82661,-159.24327 L -481.83481,-160.89628 L -485.14082,-162.87988 L -488.11622,-162.54928 L -490.76103,-165.85528 L -499.68724,-165.85528 L -503.65444,-171.14489 L -514.23366,-168.16949 L -527.45768,-162.54928 L -530.10248,-163.54108 L -537.37569,-171.47549 L -544.6489,-176.1039 L -549.60791,-182.71591 L -551.92211,-182.71591 L -553.24452,-185.36071 L -556.55052,-186.02191 L -558.20352,-189.32792 L -558.53412,-192.63392 L -558.53412,-196.60113 L -561.17893,-197.92353 L -563.49313,-200.56833 L -566.79914,-199.24593 L -571.75814,-201.22954 L -584.65156,-199.57653 L -588.94937,-195.93993 L -592.25537,-195.93993 L -592.25537,-201.89074 L -593.24717,-203.87434 L -595.70601,-200.9196 L -600.80966,-204.24627 L -608.22751,-206.25053 L -615.64535,-206.60179 L -626.03861,-210.58966 L -629.81985,-206.97372 L -639.2213,-209.30858 L -646.96975,-207.01504 L -651.7428,-209.34991 L -655.52404,-215.32138 L -659.63588,-217.98685 L -664.73953,-218.33811 L -668.19017,-222.65658 L -669.65721,-218.04884 L -674.43026,-217.4083 L -678.53048,-216.89302 L -691.55691,-215.38595 L -692.35113,-220.49089 L -697.11255,-217.33081 L -700.55157,-217.80734 L -709.6108,-210.68006 L -714.04162,-204.21398 L -724.42325,-204.35991 L -735.46608,-200.53863 L -747.17011,-203.32937 L -754.90694,-198.51629 L -759.99896,-199.65402 L -767.71867,-206.88106 L -771.80178,-211.7939 L -776.21549,-209.76413 L -783.27401,-215.66877 L -785.72123,-212.50869 L -795.11105,-216.95243 L -824.33691,-240.57099"
       id="path14001"
       sodipodi:nodetypes="cccccccccccccccccccccccccccccccccccccccccccccccccccccccccccccccc" />
    <path
       style="opacity:1;color:#000000;fill:none;fill-opacity:1;fill-rule:evenodd;stroke:#0000ff;stroke-width:0.5;stroke-linecap:butt;stroke-linejoin:miter;marker:none;marker-start:none;marker-mid:none;marker-end:none;stroke-miterlimit:4;stroke-dasharray:none;stroke-dashoffset:0;stroke-opacity:1;visibility:visible;display:inline;overflow:visible;enable-background:accumulate"
       d="M -555.52432,-65.77293 L -562.94023,-68.82654 L -564.68515,-71.88015 L -571.66483,-77.11491 L -574.93655,-76.67868 L -580.60754,-80.82287 L -581.04377,-83.00402 L -589.55026,-86.49386 L -590.42272,-92.38296 L -592.38575,-95.43657 L -600.23789,-95.65468 L -601.7647,-95.00034 L -619.21389,-102.63436 L -617.9052,-106.34232 L -619.86824,-106.77855 L -622.04939,-104.81551 L -626.19357,-107.21478 L -628.37472,-110.92273 L -631.42833,-115.28503 L -636.66309,-118.99299 L -642.77031,-122.26471 L -646.9145,-122.26471 L -650.18622,-119.64733 L -652.36737,-120.51979 L -658.47459,-116.81184 L -665.67238,-115.28503 L -672.65206,-110.70462 L -676.36002,-110.05027 L -673.74264,-115.28503 L -678.54117,-119.64733 L -681.81289,-116.59372 L -688.35634,-115.50315 L -692.50052,-117.90241 L -694.46356,-113.97634 L -699.04397,-114.19446 L -702.75193,-116.37561 L -709.94972,-115.93938 L -713.22145,-117.6843 L -714.31202,-121.39225 L -715.83883,-122.70094 L -720.63736,-122.26471 L -724.56343,-125.31832 L -726.52646,-126.4089 L -725.654,-129.89873 L -724.34531,-130.77119 L -726.74458,-135.35161 L -731.5431,-142.33129 L -735.25106,-146.9117 L -738.95901,-149.52908 L -743.97566,-152.14646 L -744.84812,-157.38122 L -750.30099,-160.65295 L -753.57272,-162.8341 L -757.7169,-166.10582 L -761.42486,-175.04853 L -759.24371,-176.79345 L -767.09585,-181.15575 L -775.38421,-184.86371 L -783.45447,-188.13543 L -786.28996,-189.44412"
       id="path14972" />
    <path
       style="fill:none;fill-rule:evenodd;stroke:#000000;stroke-width:1px;stroke-linecap:butt;stroke-linejoin:miter;stroke-opacity:1"
       d="M -498.68797,11.363915 L -466.79838,11.363915"
       id="path15001" />
    <text
       xml:space="preserve"
       style="font-size:8px;font-style:normal;font-weight:normal;text-align:center;text-anchor:middle;opacity:1;fill:#000000;fill-opacity:1;stroke:none;stroke-width:1px;stroke-linecap:butt;stroke-linejoin:miter;stroke-opacity:1;display:inline;font-family:sans"
       x="-482.44241"
       y="4.3177071"
       id="text15003"><tspan
         sodipodi:role="line"
         id="tspan15005"
         x="-482.44241"
         y="4.3177071">20 km</tspan></text>
  </g>
</svg>
