<?xml version="1.0" encoding="UTF-8"?>
<!-- Created with Inkscape (http://www.inkscape.org/) -->
<svg version="1.0" viewBox="0 0 920.98 662" xmlns="http://www.w3.org/2000/svg">
  <g transform="translate(-17.402 -29.087)">
    <g id="trapezium" transform="translate(15.837 29.078)" style="stroke:#ffffff">
      <path d="m5.3004 2.9398 876.01-0.92896 1.2131 657.99-439.68-1.2167z" style="fill:none;stroke-width:4;stroke:#ffffff"/>
      <path d="m443.77 2.9398 217.38 655.84" style="fill:none;stroke-width:4;stroke:#ffffff"/>
      <path d="m152.08 222.17 729.23-0.92896" style="fill:none;stroke-width:4;stroke:#ffffff"/>
      <path d="m299.78 441.41 579.67-1.8579h0.92896v-0.92896" style="fill:none;stroke-width:4;stroke:#ffffff"/>
    </g>
  </g>
  <g transform="translate(-17.402 -29.087)">
    <g transform="translate(26.975 -472.13)" style="font-size:60px">
      <ellipse transform="matrix(.97297 0 0 1.0286 7.2874 178.7)" cx="91.5" cy="350.5" rx="18.5" ry="17.5" style="fill-opacity:.8;fill:#ffffff"/>
      <text x="66" y="557.13184" style="fill:#ffffff;font-family:'Times New Roman Serif';line-height:0%;stroke-width:1px;text-align:center;text-anchor:middle" xml:space="preserve"><tspan x="66" y="557.13184" style="fill:#ffffff;font-family:'Bitstream Vera Serif';font-size:60px;line-height:1;text-align:end;text-anchor:end">i</tspan></text>
    </g>
    <g transform="translate(147.77 -260.5)" style="font-size:60px">
      <ellipse transform="matrix(.97297 0 0 1.0286 7.2874 171.49)" cx="91.5" cy="350.5" rx="18.5" ry="17.5" style="fill-opacity:.8;fill:#ffffff"/>
      <text x="16" y="545.49512" style="fill:#ffffff;font-family:'Times New Roman Serif';line-height:0%;stroke-width:1px;text-align:center;text-anchor:middle" xml:space="preserve"><tspan x="16" y="545.49512" style="fill:#ffffff;font-family:'Bitstream Vera Serif';font-size:60px;line-height:1;text-align:end;text-anchor:end">e</tspan></text>
    </g>
    <g transform="translate(759.28 -262.68)" style="font-size:60px">
      <ellipse transform="matrix(.97297 0 0 1.0286 7.2874 171.49)" cx="91.5" cy="350.5" rx="18.5" ry="17.5" style="fill-opacity:.8;fill:#ffffff"/>
      <text x="146" y="543.12695" style="fill:#ffffff;font-family:'Times New Roman Serif';line-height:0%;stroke-width:1px" xml:space="preserve"><tspan x="146" y="543.12695" style="fill:#ffffff;font-family:'Bitstream Vera Serif';font-size:60px;line-height:1">o</tspan></text>
    </g>
    <g transform="translate(495.11 120.38)" style="font-size:60px">
      <ellipse transform="matrix(.97297 0 0 1.0286 7.2874 171.49)" cx="91.5" cy="350.5" rx="18.5" ry="17.5" style="fill-opacity:.8;fill:#ffffff"/>
      <text x="66" y="547.57129" style="fill:#ffffff;font-family:'Times New Roman Serif';line-height:0%;stroke-width:1px;text-align:center;text-anchor:middle" xml:space="preserve"><tspan x="66" y="547.57129" style="fill:#ffffff;font-family:'Bitstream Vera Serif';font-size:60px;line-height:1;text-align:end;text-anchor:end">a</tspan></text>
    </g>
    <g transform="translate(473.29 -172.45)" style="font-size:60px">
      <ellipse transform="matrix(.97297 0 0 1.0286 7.2874 171.49)" cx="91.5" cy="350.5" rx="18.5" ry="17.5" style="fill-opacity:.8;fill:#ffffff"/>
      <text x="66" y="547.57129" style="fill:#ffffff;font-family:'Times New Roman Serif';line-height:0%;stroke-width:1px;text-align:center;text-anchor:middle" xml:space="preserve"><tspan x="66" y="547.57129" style="fill:#ffffff;font-family:'Bitstream Vera Serif';font-size:60px;line-height:1;text-align:end;text-anchor:end">ə</tspan></text>
    </g>
    <g transform="translate(736.47 -457.44)" style="font-size:60px">
      <ellipse transform="matrix(.97297 0 0 1.0286 7.2874 171.49)" cx="91.5" cy="350.5" rx="18.5" ry="17.5" style="fill-opacity:.8;fill:#ffffff"/>
      <text x="118" y="547.14648" style="fill:#ffffff;font-family:'Times New Roman Serif';line-height:0%;stroke-width:1px" xml:space="preserve"><tspan x="118" y="547.14648" style="fill:#ffffff;font-family:'Bitstream Vera Serif';font-size:60px;line-height:1">u</tspan></text>
    </g>
    <g transform="translate(283.03 -135.74)" style="font-size:60px">
      <ellipse transform="matrix(.97297 0 0 1.0286 7.2874 171.49)" cx="91.5" cy="350.5" rx="18.5" ry="17.5" style="fill-opacity:.8;fill:#ffffff"/>
      <text x="66" y="547.57129" style="fill:#ffffff;font-family:'Times New Roman Serif';line-height:0%;stroke-width:1px;text-align:center;text-anchor:middle" xml:space="preserve"><tspan x="66" y="547.57129" style="fill:#ffffff;font-family:'Bitstream Vera Serif';font-size:60px;line-height:1;text-align:end;text-anchor:end">ɛ</tspan></text>
    </g>
    <g transform="translate(718.28 -106.3)" style="font-size:60px">
      <ellipse transform="matrix(.97297 0 0 1.0286 7.2874 171.49)" cx="91.5" cy="350.5" rx="18.5" ry="17.5" style="fill-opacity:.8;fill:#ffffff"/>
      <text x="128" y="545.12695" style="fill:#ffffff;font-family:'Times New Roman Serif';line-height:0%;stroke-width:1px" xml:space="preserve"><tspan x="128" y="545.12695" style="fill:#ffffff;font-family:'Bitstream Vera Serif';font-size:60px;line-height:1">ɔ</tspan></text>
    </g>
  </g>
</svg>
