<?xml version="1.0" standalone="no"?>
<!DOCTYPE svg PUBLIC "-//W3C//DTD SVG 20010904//EN"
 "http://www.w3.org/TR/2001/REC-SVG-20010904/DTD/svg10.dtd">
<svg version="1.0" xmlns="http://www.w3.org/2000/svg"
 width="468pt" height="170pt" viewBox="0 0 468 170"
 preserveAspectRatio="xMidYMid meet">
<metadata>
Created by POTRACE VERSION, written by Peter Selinger 2001-2007
</metadata>
<g transform="translate(0,170) scale(0.020077,-0.020077)"
fill="#000000" stroke="none">
<path d="M1968 8181 c-21 -20 -38 -42 -38 -48 0 -6 -6 -18 -13 -25 -7 -7 -23
-27 -35 -45 -12 -17 -22 -38 -22 -47 0 -9 -9 -30 -21 -45 -14 -19 -25 -56 -32
-110 -6 -45 -15 -81 -21 -81 -6 0 -21 -11 -33 -24 -15 -16 -23 -36 -23 -59 0
-20 -5 -39 -10 -42 -6 -4 -8 -11 -4 -16 3 -6 -3 -17 -15 -25 -12 -8 -21 -24
-21 -35 0 -10 -7 -19 -15 -19 -8 0 -16 -3 -16 -7 -1 -5 -3 -17 -4 -28 -1 -11
-9 -41 -18 -66 -9 -25 -28 -68 -43 -95 -15 -27 -31 -50 -36 -52 -4 -2 -8 -13
-8 -25 0 -12 -7 -41 -15 -65 -9 -24 -18 -62 -20 -85 -3 -23 -10 -56 -16 -73
-5 -18 -9 -36 -7 -40 1 -5 -4 -20 -11 -34 -8 -14 -18 -28 -24 -32 -5 -3 -10
-21 -11 -40 -1 -25 -5 -33 -19 -33 -10 0 -33 -20 -52 -44 -19 -24 -35 -48 -35
-53 0 -5 5 -19 11 -30 6 -11 7 -18 1 -14 -5 3 -12 -5 -14 -19 -3 -13 0 -26 6
-28 6 -2 0 -6 -12 -9 -12 -4 -22 -2 -22 4 0 5 -4 6 -10 3 -5 -3 -10 -21 -10
-38 0 -21 -7 -36 -20 -45 -11 -7 -20 -19 -20 -27 0 -8 -3 -15 -8 -15 -4 0 -7
-16 -6 -36 1 -20 8 -40 16 -45 9 -6 9 -9 1 -9 -7 0 -16 7 -21 17 -8 14 -11 13
-23 -8 -7 -13 -12 -31 -11 -41 2 -9 -2 -20 -9 -24 -8 -5 -9 -3 -4 6 5 9 4 11
-3 6 -7 -4 -12 -14 -12 -22 0 -8 -8 -14 -18 -14 -11 0 -22 -12 -29 -31 -7 -17
-9 -37 -6 -44 3 -9 -5 -17 -22 -21 -16 -4 -25 -12 -23 -23 1 -9 -6 -31 -15
-48 -10 -18 -22 -33 -27 -33 -6 0 -10 -7 -10 -15 0 -8 -10 -25 -21 -36 -12
-12 -24 -36 -26 -53 -3 -17 -5 -35 -5 -41 0 -5 4 -20 7 -32 6 -20 4 -23 -21
-23 -19 0 -34 -8 -42 -21 -7 -12 -11 -23 -9 -26 3 -2 -3 -13 -14 -24 -10 -10
-19 -28 -19 -38 0 -11 5 -23 11 -26 7 -5 4 -13 -9 -25 -10 -10 -28 -21 -41
-25 -12 -3 -31 -16 -41 -28 -11 -11 -20 -27 -20 -35 0 -8 9 -25 20 -39 11 -14
20 -30 20 -35 0 -6 -7 -7 -16 -4 -11 4 -18 -1 -21 -14 -3 -11 -14 -20 -24 -20
-10 0 -23 -9 -29 -19 -5 -11 -10 -27 -10 -35 0 -10 6 -13 15 -10 11 5 14 0 13
-17 -2 -15 2 -23 10 -21 6 1 12 -2 12 -8 0 -5 -4 -10 -9 -10 -5 0 -12 -10 -14
-22 l-4 -23 -2 23 c0 12 -5 22 -11 22 -5 0 -10 -4 -10 -10 0 -5 -7 -10 -15
-10 -8 0 -15 -6 -15 -14 0 -8 -3 -21 -6 -30 -4 -11 -1 -16 11 -16 14 0 16 -6
12 -29 -3 -16 -3 -32 0 -35 4 -4 8 -13 9 -21 1 -8 12 -35 24 -60 12 -25 33
-50 48 -57 19 -10 28 -22 30 -43 1 -17 3 -39 5 -50 1 -11 9 -29 17 -40 8 -11
29 -29 45 -40 17 -11 33 -18 38 -17 4 1 7 -5 7 -13 0 -8 7 -15 15 -15 8 0 15
-8 15 -18 0 -10 16 -31 35 -46 19 -16 32 -32 29 -37 -3 -5 0 -9 5 -9 6 0 11
-7 11 -16 0 -9 -5 -12 -12 -8 -7 5 -9 2 -5 -9 3 -9 11 -34 17 -57 6 -22 9 -44
6 -48 -3 -5 6 -16 19 -26 13 -10 21 -24 18 -32 -3 -9 1 -14 12 -14 14 0 16 -6
12 -30 -4 -19 -2 -30 5 -30 6 0 8 -3 5 -7 -4 -3 -17 2 -29 13 -17 15 -20 16
-16 3 3 -8 1 -38 -4 -65 -6 -27 -13 -67 -15 -89 -3 -22 -6 -62 -7 -90 -2 -27
-4 -57 -5 -65 -1 -13 -2 -13 -11 0 -7 11 -10 6 -9 -20 0 -19 -2 -69 -5 -111
-3 -50 -13 -95 -29 -130 -14 -30 -32 -78 -42 -106 -9 -29 -22 -53 -29 -53 -7
0 -18 -28 -26 -66 -10 -46 -23 -75 -42 -97 -16 -16 -27 -36 -24 -44 3 -8 -4
-17 -17 -23 -12 -5 -16 -9 -9 -9 6 -1 12 -10 12 -20 0 -11 -3 -26 -6 -35 -3
-9 -10 -13 -15 -10 -5 3 -16 -11 -25 -31 -8 -20 -12 -45 -9 -56 3 -10 2 -27
-4 -36 -6 -10 -11 -14 -11 -9 0 5 -12 -3 -26 -17 -15 -15 -24 -33 -21 -41 4
-9 -2 -17 -13 -21 -12 -4 -24 -22 -30 -46 -6 -22 -9 -48 -6 -57 4 -12 -2 -21
-17 -27 -14 -6 -26 -24 -32 -50 -6 -22 -21 -56 -33 -75 -12 -19 -22 -42 -22
-50 0 -8 -10 -35 -22 -60 -13 -25 -29 -49 -36 -53 -7 -5 -20 -26 -28 -48 -9
-21 -20 -39 -25 -39 -5 0 -9 -11 -9 -25 0 -14 -4 -25 -10 -25 -5 0 -10 -6 -10
-14 0 -8 -6 -27 -14 -43 -8 -15 -19 -39 -25 -53 -6 -14 -15 -32 -19 -40 -5 -8
-14 -25 -21 -38 -6 -13 -9 -28 -5 -34 4 -5 3 -13 -2 -17 -5 -3 -17 -28 -27
-56 -9 -27 -17 -54 -17 -58 0 -5 5 -5 10 -2 6 3 10 2 10 -3 0 -6 -14 -25 -30
-43 -17 -17 -29 -37 -26 -44 2 -6 -3 -34 -13 -61 -9 -27 -21 -56 -26 -63 -5
-8 -9 -39 -10 -68 -1 -29 -8 -60 -15 -68 -8 -9 -10 -29 -7 -49 4 -24 1 -39
-10 -47 -8 -7 -19 -23 -24 -36 -5 -15 -3 -37 6 -64 9 -23 13 -44 10 -47 -3 -3
-1 -10 3 -16 5 -6 14 -30 22 -53 7 -24 21 -50 32 -59 10 -10 18 -25 18 -35 0
-12 5 -16 14 -13 10 4 20 -6 30 -30 8 -20 22 -44 31 -52 8 -8 19 -13 24 -9 6
3 14 -2 19 -11 7 -12 18 -15 38 -11 16 3 41 3 56 0 16 -3 25 -10 21 -16 -3 -5
-1 -7 5 -4 5 4 17 4 26 1 9 -3 14 -10 11 -14 -3 -4 12 -1 33 7 20 7 45 16 54
20 10 3 18 14 18 24 0 11 5 19 10 19 6 0 10 -4 10 -10 0 -5 4 -10 10 -10 5 0
28 16 49 36 27 24 38 41 34 52 -5 14 -3 14 9 -1 13 -17 15 -17 27 -3 8 9 13
27 13 41 1 15 6 25 14 25 8 0 14 5 14 10 0 6 7 10 15 10 9 0 18 7 21 15 4 8 1
22 -6 30 -7 8 -8 15 -3 15 5 0 13 -4 18 -9 6 -6 17 -4 30 5 16 12 18 18 7 34
-6 11 -12 22 -12 25 0 3 7 5 15 5 12 0 14 4 5 20 -8 15 -6 21 10 30 12 6 29 8
40 5 16 -5 20 0 26 32 4 21 11 44 16 50 8 9 4 15 -13 21 -13 5 -18 11 -11 16
6 3 13 2 17 -4 3 -5 11 -10 17 -10 6 0 8 13 6 32 -3 20 1 42 10 56 11 17 12
26 3 35 -6 6 -11 15 -11 20 0 4 4 6 9 2 6 -3 13 15 17 40 3 25 15 56 26 70 11
14 21 39 23 55 2 17 0 30 -5 30 -6 0 -10 5 -10 11 0 6 7 9 15 5 8 -3 16 0 16
7 1 7 2 41 3 77 1 36 5 71 9 78 5 6 5 17 2 22 -3 6 -1 10 4 10 6 0 11 11 11
25 0 14 4 25 9 25 5 0 11 8 14 19 2 10 0 26 -5 35 -6 10 -5 16 2 16 5 0 10 12
10 26 0 14 5 34 10 45 8 13 7 19 0 19 -6 0 -9 4 -6 9 4 5 9 37 12 70 4 41 2
61 -6 61 -7 0 -8 6 0 19 5 11 10 38 10 61 0 23 -5 61 -11 85 -7 28 -16 42 -23
38 -6 -3 -6 0 2 8 6 7 12 21 12 31 0 10 6 17 12 16 8 -2 13 11 14 36 1 26 8
44 20 53 18 14 18 15 -8 34 -16 12 -28 24 -28 28 0 4 10 7 23 7 20 -1 22 4 22
47 0 31 4 47 12 47 7 0 13 2 13 4 0 3 -11 26 -25 52 -14 26 -25 49 -25 51 0 2
4 2 9 -1 5 -4 16 -3 25 0 13 5 16 22 16 83 0 43 3 81 7 85 4 4 8 21 9 39 1 18
2 47 3 65 1 18 5 31 9 28 5 -3 8 10 8 29 -1 18 -5 31 -10 28 -4 -3 -5 10 -2
28 4 22 3 27 -2 15 -8 -18 -9 -18 -15 -3 -4 10 -1 29 5 43 6 13 17 23 24 20 8
-3 11 1 7 10 -3 8 2 26 12 40 9 14 14 32 11 39 -3 8 3 17 15 20 10 4 19 15 19
27 0 11 8 32 19 46 11 16 18 40 16 59 -2 24 6 42 30 70 18 21 41 61 50 88 10
28 17 58 17 68 0 9 6 29 14 45 7 15 14 35 14 46 0 11 5 16 13 13 7 -2 25 8 41
24 17 17 26 34 23 43 -4 9 -2 18 2 20 5 3 11 19 15 36 4 22 11 30 22 28 11 -2
18 5 21 22 2 13 9 27 15 31 6 4 8 18 4 33 -4 18 -2 26 6 27 7 1 16 1 19 1 4
-1 19 10 33 23 15 14 31 25 37 25 5 0 10 6 10 13 1 6 1 15 0 20 0 4 4 7 9 7 6
0 10 5 10 10 0 6 9 20 20 32 11 12 20 28 20 36 0 8 8 28 18 45 9 18 20 34 23
37 4 3 8 14 10 24 2 10 11 22 19 26 8 4 26 12 40 18 14 6 36 14 49 18 13 3 46
29 73 58 26 28 51 51 56 52 4 0 15 4 24 8 10 5 37 5 60 2 24 -3 50 -7 58 -9 8
-1 38 -14 65 -29 32 -17 57 -38 68 -61 11 -19 32 -44 48 -56 20 -15 29 -30 29
-49 0 -15 7 -38 16 -50 8 -12 13 -22 10 -22 -3 0 3 -17 14 -38 15 -28 19 -51
16 -85 -3 -26 -1 -47 3 -47 4 0 8 -16 9 -36 1 -20 4 -45 8 -56 4 -12 -2 -25
-17 -37 -20 -16 -23 -27 -22 -82 0 -35 1 -77 2 -94 0 -16 -1 -50 -2 -75 -2
-25 -13 -64 -25 -87 -12 -24 -21 -46 -21 -50 1 -5 -5 -24 -14 -43 -10 -23 -12
-37 -5 -41 6 -4 0 -10 -13 -14 -13 -4 -27 -13 -31 -19 -4 -6 -8 -20 -8 -31 0
-11 -37 -58 -85 -108 -47 -49 -85 -95 -85 -102 0 -8 -5 -26 -12 -40 -7 -16
-17 -24 -26 -20 -10 3 -12 0 -8 -10 3 -8 1 -15 -4 -15 -6 0 -10 -7 -10 -15 0
-8 -4 -15 -8 -15 -5 0 -7 -15 -5 -32 4 -26 2 -30 -6 -18 -9 11 -10 4 -5 -30 3
-25 8 -51 10 -58 2 -8 11 -11 23 -7 11 3 26 -1 35 -10 9 -9 13 -21 10 -27 -4
-7 -2 -8 4 -4 7 4 12 2 12 -3 0 -6 8 -11 18 -11 10 0 24 6 31 13 11 10 13 10
7 0 -5 -9 2 -13 24 -13 18 0 33 6 36 15 4 8 15 15 25 15 10 0 19 -7 19 -15 0
-8 5 -15 11 -15 6 0 9 7 5 15 -3 9 6 23 24 37 17 12 30 31 30 42 0 12 10 37
22 56 12 19 30 51 41 70 10 19 21 50 24 68 3 19 0 32 -6 32 -6 0 -8 7 -4 16 4
12 7 13 14 3 4 -8 12 -10 16 -5 4 4 8 22 8 39 0 26 4 32 21 32 12 1 33 14 46
30 14 17 31 48 38 70 7 22 20 54 28 70 9 17 15 35 14 41 -1 7 4 14 13 17 8 4
13 12 10 19 -2 7 6 26 20 42 l23 29 7 -34 c4 -19 12 -41 18 -49 7 -8 21 -20
32 -26 11 -6 21 -22 23 -35 2 -13 13 -32 25 -41 12 -10 30 -18 40 -18 9 0 17
-8 17 -18 0 -9 11 -26 25 -36 14 -10 25 -28 25 -39 0 -11 12 -41 27 -66 15
-25 34 -53 42 -61 9 -9 28 -24 44 -33 15 -10 27 -23 27 -30 0 -7 28 -39 61
-70 34 -31 64 -57 66 -57 2 0 19 -11 36 -24 18 -13 41 -23 52 -22 11 0 22 -3
24 -9 2 -5 11 -15 20 -22 9 -7 28 -13 44 -13 17 0 27 -5 27 -15 0 -8 5 -15 10
-15 6 0 10 4 10 9 0 5 28 2 63 -6 34 -8 69 -17 77 -20 8 -4 19 -5 25 -4 5 1
37 4 70 7 33 2 74 6 90 10 17 3 53 7 80 9 28 2 74 8 104 14 29 5 67 15 85 20
17 6 66 9 110 7 l79 -4 54 55 c30 30 61 70 69 88 12 29 12 37 -1 61 -8 16 -28
32 -50 40 -27 9 -72 10 -173 5 -82 -5 -151 -4 -176 2 -23 5 -55 9 -72 8 -21
-1 -42 7 -61 23 -17 14 -49 27 -78 31 -28 4 -58 14 -68 23 -9 8 -27 21 -40 28
-12 7 -29 16 -37 19 -8 4 -24 11 -34 17 -11 6 -33 12 -50 15 -17 2 -44 8 -61
14 -16 5 -45 22 -62 38 -18 16 -33 34 -33 40 0 6 15 14 33 19 20 6 34 5 39 -2
4 -5 4 -14 2 -18 -3 -4 2 -5 11 -1 12 4 13 8 5 13 -9 5 -9 9 -1 14 6 4 15 5
20 1 5 -3 25 1 43 9 18 8 42 18 53 22 11 4 24 6 28 5 5 -1 17 9 28 23 10 13
41 32 68 42 28 10 47 22 44 27 -3 5 3 7 13 5 12 -2 23 5 29 17 6 11 21 22 34
23 20 3 23 0 18 -17 -3 -12 -1 -21 3 -21 5 0 20 14 34 31 14 17 26 27 26 23 0
-4 8 -1 18 8 9 8 30 20 45 26 16 7 31 22 34 33 4 13 11 18 22 14 8 -3 13 -3 9
0 -3 4 1 16 10 27 9 11 25 28 34 37 14 14 15 19 3 40 -11 21 -10 29 2 47 8 13
21 20 29 17 8 -3 14 -16 14 -30 0 -13 4 -22 9 -19 4 3 22 34 39 68 16 35 35
74 41 88 7 14 17 35 24 46 7 12 18 28 24 35 5 8 13 26 17 42 3 15 11 27 16 27
6 0 10 8 10 19 0 10 9 30 20 44 11 14 20 28 20 32 0 4 -9 18 -19 31 -15 19
-18 31 -11 52 5 15 11 46 14 68 5 34 1 48 -19 78 -14 20 -25 44 -25 52 0 8 -8
17 -17 21 -10 3 -25 12 -34 20 -9 8 -41 16 -70 19 -30 2 -76 5 -103 5 -30 1
-52 -4 -58 -13 -7 -10 -11 -10 -15 0 -2 6 -11 12 -18 12 -8 0 -18 -6 -22 -14
-4 -7 -18 -16 -30 -20 -15 -5 -24 -2 -31 9 -5 9 -23 18 -41 19 -18 1 -34 -1
-37 -5 -2 -4 -20 -5 -39 -2 -22 4 -41 1 -52 -8 -12 -11 -17 -11 -20 -2 -4 10
-8 9 -20 -2 -8 -8 -21 -15 -29 -15 -8 0 -14 4 -14 9 0 5 -35 -1 -77 -14 -43
-14 -79 -29 -81 -35 -2 -5 -15 -10 -28 -10 -13 0 -29 -9 -36 -20 -7 -11 -20
-20 -29 -20 -8 0 -36 -7 -61 -16 -25 -8 -58 -28 -72 -45 -15 -16 -31 -27 -36
-24 -6 4 -10 1 -10 -4 0 -6 -9 -11 -20 -11 -11 0 -25 -9 -32 -20 -7 -11 -21
-20 -30 -20 -10 0 -18 -7 -18 -15 0 -8 -5 -15 -10 -15 -6 0 -16 -11 -22 -25
-6 -14 -17 -25 -25 -25 -7 0 -13 -11 -13 -26 0 -25 -3 -26 -34 -21 -28 4 -40
0 -69 -27 -19 -17 -43 -46 -54 -64 -18 -30 -21 -31 -34 -16 -8 9 -14 29 -15
44 -1 14 -5 36 -8 48 -4 12 -3 22 1 22 5 0 9 24 8 53 -1 39 -12 76 -44 147
-24 52 -45 105 -46 117 -2 11 -6 30 -10 42 -3 12 -15 26 -26 31 -10 6 -19 16
-19 24 0 7 -21 33 -47 59 -29 29 -49 43 -54 36 -4 -7 -16 -1 -33 16 -15 15
-33 28 -40 29 -8 1 -20 7 -27 13 -8 6 -32 15 -54 19 -22 4 -47 8 -55 9 -8 1
-23 6 -33 10 -9 4 -37 4 -62 1 -25 -4 -45 -12 -45 -17 0 -5 -17 2 -37 16 -21
14 -45 25 -54 25 -9 0 -34 -7 -55 -16 -22 -9 -52 -29 -69 -45 -16 -16 -50 -49
-75 -73 -25 -25 -59 -59 -76 -78 -17 -18 -43 -43 -56 -56 -23 -19 -27 -20 -32
-6 -5 13 -12 9 -36 -21 -17 -21 -30 -44 -30 -52 0 -7 -7 -16 -15 -19 -8 -4
-15 -15 -15 -25 0 -10 -9 -28 -20 -39 -11 -11 -23 -20 -26 -20 -3 0 -11 -6
-18 -13 -8 -7 -21 -27 -30 -44 -9 -18 -16 -37 -16 -43 0 -6 7 -18 15 -26 8 -9
15 -20 15 -25 0 -5 -12 -9 -26 -9 -16 0 -37 -11 -52 -27 -24 -26 -25 -26 -38
-8 -13 18 -14 18 -14 1 0 -10 -9 -31 -21 -47 -11 -16 -17 -33 -14 -39 3 -5 -1
-10 -10 -10 -11 0 -15 -5 -12 -14 3 -8 -1 -20 -9 -26 -8 -7 -14 -18 -14 -24 0
-6 -11 -21 -24 -33 -13 -13 -29 -23 -35 -23 -6 0 -11 16 -11 36 0 19 4 43 9
53 6 10 10 42 10 72 0 30 1 74 1 99 1 24 -4 54 -11 67 -9 18 -9 26 1 38 9 11
10 18 1 29 -9 11 -7 15 7 18 12 4 22 18 26 39 4 19 9 57 11 84 2 28 5 58 5 68
1 12 6 17 16 13 10 -4 14 3 15 27 0 18 3 59 5 92 3 33 6 75 7 93 1 17 -1 32
-5 32 -5 0 -8 17 -7 38 0 29 2 33 9 17 7 -19 8 -18 13 5 3 14 9 39 12 55 3 17
10 50 16 75 6 25 8 66 4 92 -3 28 -1 49 5 53 6 3 8 11 5 16 -4 5 3 53 15 108
11 54 18 106 14 115 -3 9 -2 16 4 16 5 0 12 20 14 44 3 23 15 56 26 72 11 16
26 55 31 87 6 32 15 76 21 97 8 30 14 38 27 33 12 -5 15 -2 10 10 -3 9 0 36 9
59 8 23 13 54 11 68 -2 14 -2 19 0 13 3 -7 9 -13 14 -13 5 0 9 6 9 13 0 7 -5
18 -11 24 -8 8 -8 13 0 17 6 4 11 20 11 37 0 16 4 29 9 29 4 0 11 16 14 35 3
19 18 50 32 69 17 23 28 51 30 78 2 24 4 47 4 51 1 5 6 5 11 2 6 -3 10 3 10
14 0 12 9 30 21 42 15 15 19 28 14 47 -4 15 -3 23 1 19 4 -4 13 7 19 25 6 18
9 39 7 45 -2 7 -8 10 -13 7 -5 -3 -9 4 -9 15 0 11 4 22 9 26 5 3 11 -2 13 -11
2 -13 7 -10 18 12 8 16 20 35 27 42 7 7 9 20 6 30 -4 9 -11 20 -17 25 -7 5 -6
10 4 17 11 7 16 5 18 -5 2 -9 7 -13 12 -10 5 3 7 12 3 20 -3 8 0 15 6 15 6 0
10 12 9 28 -1 15 4 37 10 48 6 12 8 24 5 28 -4 4 3 9 15 13 12 3 22 11 22 19
0 7 7 17 15 21 8 5 16 23 17 40 2 17 15 45 31 62 15 17 27 38 27 46 0 8 5 15
11 15 7 0 10 14 7 35 -2 19 -1 35 3 35 4 0 10 17 15 38 4 20 9 42 9 47 1 6 5
18 10 28 4 10 5 44 1 74 -4 31 -11 62 -16 68 -6 7 -3 27 6 54 13 39 13 45 0
60 -9 10 -32 17 -58 18 -37 1 -48 -4 -80 -36z m76 -17 c4 -10 1 -14 -6 -12 -6
2 -14 10 -16 16 -2 7 1 12 6 12 5 0 13 -7 16 -16z m-634 -1324 c0 -5 -5 -10
-11 -10 -5 0 -7 5 -4 10 3 6 8 10 11 10 2 0 4 -4 4 -10z m-196 -396 c3 -8 2
-12 -4 -9 -6 3 -10 10 -10 16 0 5 2 9 4 9 2 0 7 -7 10 -16z m100 -369 c3 -8 1
-15 -4 -15 -6 0 -10 7 -10 15 0 8 2 15 4 15 2 0 6 -7 10 -15z m-137 -120 c0
-8 -4 -15 -9 -15 -4 0 -8 7 -8 15 0 8 4 15 8 15 5 0 9 -7 9 -15z m97 -13 c3
-5 -1 -9 -9 -9 -8 0 -15 4 -15 9 0 4 4 8 9 8 6 0 12 -4 15 -8z m-54 -27 c7 -9
10 -19 6 -22 -4 -4 -11 -2 -15 6 -6 10 -10 9 -15 -5 -4 -10 0 -24 9 -33 13
-14 15 -14 15 2 0 10 5 15 10 12 6 -3 10 -15 10 -26 0 -10 9 -28 20 -39 12
-12 18 -25 15 -31 -4 -5 -11 -7 -16 -3 -6 3 -7 -5 -4 -23 6 -26 5 -25 -13 7
-10 20 -22 42 -27 50 -7 11 -12 5 -17 -25 -4 -22 -10 -55 -14 -73 -3 -18 -2
-38 3 -45 6 -6 13 -28 17 -47 4 -25 3 -31 -4 -20 -9 13 -12 12 -23 -5 -6 -11
-12 -31 -13 -45 -1 -14 0 -19 3 -12 3 6 10 9 15 6 7 -4 8 -2 4 4 -4 7 -3 12 3
12 5 0 15 -8 20 -17 10 -17 10 -16 11 2 1 19 2 19 14 3 7 -10 16 -14 20 -10 5
4 6 -4 4 -18 -1 -14 -9 -25 -16 -25 -7 0 -16 -6 -21 -13 -7 -11 -9 -11 -14 2
-3 8 -1 17 6 19 7 2 9 8 4 12 -4 5 -14 0 -22 -11 -12 -16 -16 -17 -24 -4 -6 8
-13 11 -18 7 -4 -4 -2 -16 5 -27 9 -15 8 -22 -4 -35 -9 -8 -22 -43 -29 -78 -7
-34 -11 -69 -8 -77 3 -8 -7 -1 -21 15 -14 17 -26 36 -26 44 0 8 -10 30 -22 48
-13 18 -29 31 -35 28 -7 -2 -13 0 -13 4 0 5 5 11 11 13 8 3 9 18 4 48 -7 40
-9 42 -21 25 -13 -17 -14 -16 -24 9 -5 15 -10 31 -10 37 0 5 13 22 30 37 16
16 37 46 45 66 9 21 13 46 10 57 -4 11 -2 19 6 19 8 0 10 14 7 45 -3 25 -1 48
4 51 5 3 15 1 22 -5 10 -8 16 -7 26 3 6 9 9 19 6 24 -3 5 7 7 22 4 15 -3 24
-1 20 3 -4 4 0 21 9 36 10 16 23 29 29 29 6 0 17 -7 24 -15z m-507 -466 c-9
-9 -12 -7 -10 9 1 14 5 18 11 12 7 -7 6 -14 -1 -21z m502 -4 c30 -13 35 -19
25 -30 -9 -11 -17 -12 -30 -5 -10 5 -20 13 -22 17 -3 5 -3 2 -1 -6 3 -11 1
-11 -11 -2 -8 7 -12 19 -9 27 3 8 6 14 8 14 1 0 19 -7 40 -15z m95 -63 c0 -24
-1 -25 -14 -7 -8 11 -12 25 -9 32 3 7 9 10 14 7 5 -3 9 -17 9 -32z m-92 6 c-2
-6 -10 -14 -16 -16 -7 -2 -12 3 -12 12 0 9 7 16 16 16 9 0 14 -5 12 -12z
m-458 -69 c0 -6 -4 -7 -10 -4 -5 3 -10 11 -10 16 0 6 5 7 10 4 6 -3 10 -11 10
-16z m2881 -165 c28 -14 33 -14 54 0 14 9 33 16 45 16 11 0 20 -3 20 -7 0 -5
41 -8 90 -8 67 0 93 -4 100 -14 4 -8 6 -20 3 -28 -3 -7 1 -13 8 -13 10 0 10
-3 1 -12 -8 -8 -8 -17 -1 -30 7 -13 7 -29 0 -50 -6 -17 -11 -40 -11 -50 0 -11
-9 -31 -20 -45 -11 -14 -17 -29 -15 -33 3 -5 -7 -18 -22 -29 -14 -12 -27 -30
-28 -41 -1 -10 -13 -29 -28 -40 -15 -12 -27 -27 -27 -35 0 -7 -15 -20 -34 -29
-19 -9 -43 -32 -55 -51 -11 -19 -24 -34 -28 -33 -4 2 -23 -6 -41 -17 -17 -11
-35 -27 -38 -37 -3 -10 -9 -16 -14 -13 -5 3 -21 0 -36 -6 -16 -5 -31 -14 -34
-18 -3 -4 -29 -12 -58 -19 -30 -7 -57 -10 -62 -7 -4 3 -11 -6 -14 -20 -6 -25
-7 -26 -101 -22 -81 3 -98 6 -118 25 -13 12 -26 22 -30 22 -4 0 -30 16 -58 35
-28 19 -59 36 -68 36 -9 1 -20 1 -24 0 -5 -1 -20 7 -33 18 -18 14 -31 17 -42
12 -9 -5 -29 -14 -44 -21 -15 -7 -27 -16 -26 -19 0 -3 0 -16 -1 -28 -1 -14 -7
-23 -17 -23 -9 0 -23 -8 -30 -17 -11 -15 -15 -15 -23 -4 -5 8 -11 9 -15 3 -3
-6 -4 -17 -1 -24 3 -8 0 -20 -7 -26 -11 -8 -13 -6 -13 13 1 14 9 33 19 44 12
13 17 33 16 63 -1 24 -1 51 -1 60 1 11 19 26 46 38 25 11 45 24 45 29 0 4 7 8
15 8 8 0 15 -4 15 -9 0 -4 3 -8 8 -8 4 0 22 21 41 45 19 25 42 45 52 45 11 0
19 4 19 9 0 6 10 21 23 34 12 13 27 22 34 20 6 -2 21 4 33 14 12 10 38 32 57
50 19 18 44 35 54 38 10 4 19 11 19 16 0 5 8 13 18 16 9 4 26 15 37 25 11 11
33 25 49 33 16 8 37 15 46 15 9 0 25 9 35 20 10 11 23 20 29 20 6 0 24 7 40
15 22 12 32 12 42 4 11 -9 14 -8 14 5 0 10 5 14 10 11 6 -3 13 2 17 12 4 10
11 21 17 25 6 4 12 8 14 8 2 0 17 -7 33 -16z m-2556 -554 c3 -5 -1 -10 -10
-10 -9 0 -13 5 -10 10 3 6 8 10 10 10 2 0 7 -4 10 -10z m100 -969 c3 -5 1 -12
-5 -16 -5 -3 -10 1 -10 9 0 9 2 16 4 16 3 0 7 -4 11 -9z m-70 -11 c3 -5 1 -10
-4 -10 -6 0 -11 5 -11 10 0 6 2 10 4 10 3 0 8 -4 11 -10z m-216 -284 c9 -11 9
-15 -1 -18 -9 -3 -13 -29 -13 -91 0 -48 3 -87 7 -87 4 0 10 5 13 10 4 6 12 5
21 -4 8 -9 21 -13 29 -10 8 4 15 2 15 -4 0 -5 -11 -13 -25 -16 -24 -6 -25 -9
-20 -59 5 -40 4 -48 -5 -34 -6 9 -9 21 -6 26 4 5 2 20 -3 33 -6 12 -10 17 -10
11 -1 -7 0 -15 2 -17 1 -2 -6 -13 -16 -23 -14 -16 -17 -34 -14 -92 1 -40 -1
-75 -5 -77 -4 -3 -8 -13 -8 -23 0 -11 10 -22 23 -26 19 -6 19 -8 5 -12 -10 -2
-18 -6 -18 -8 0 -2 4 -15 10 -30 6 -16 6 -24 0 -20 -5 3 -14 -3 -19 -13 -7
-14 -7 -29 2 -52 9 -26 9 -34 0 -37 -7 -3 -13 -9 -13 -14 0 -5 8 -9 18 -9 15
0 15 -2 2 -11 -8 -6 -11 -12 -5 -15 6 -2 17 -8 25 -14 12 -7 12 -12 1 -34 -8
-13 -11 -34 -8 -45 3 -12 1 -19 -3 -16 -5 3 -15 2 -24 -1 -10 -4 -16 -18 -16
-38 0 -20 -7 -35 -20 -44 -17 -10 -19 -16 -9 -33 9 -17 7 -26 -8 -48 -11 -14
-23 -39 -27 -56 -4 -16 -12 -52 -17 -80 -6 -27 -15 -54 -20 -59 -5 -6 -9 -20
-9 -32 0 -12 -3 -29 -6 -38 -3 -9 -12 -16 -20 -16 -8 0 -14 -5 -14 -11 0 -5 4
-8 9 -4 6 3 9 -17 8 -50 -2 -30 -8 -60 -14 -66 -8 -8 -10 2 -7 38 2 26 1 40
-2 31 -3 -10 -10 -18 -15 -18 -5 0 -9 -11 -9 -23 0 -13 -9 -32 -20 -42 -11
-10 -20 -25 -20 -34 0 -9 -14 -29 -30 -46 -17 -16 -36 -36 -43 -43 -6 -8 -23
-25 -36 -38 l-24 -24 -12 22 c-6 13 -19 22 -28 22 -9 -1 -18 1 -18 5 -1 3 -3
25 -4 49 -2 28 -12 52 -30 74 -16 19 -23 34 -16 36 6 2 11 11 11 21 0 9 -5 22
-10 27 -7 7 -6 24 5 53 8 24 15 58 15 76 0 17 3 35 8 39 4 4 8 29 9 54 1 26 4
83 6 127 3 44 6 85 7 90 1 6 6 -3 10 -20 l8 -30 1 33 c1 21 6 32 16 32 8 0 17
15 21 38 4 20 16 49 26 63 11 14 24 57 30 98 6 40 17 78 24 86 8 7 14 17 14
22 0 5 13 24 29 43 15 19 32 46 36 60 4 14 14 36 22 48 8 13 17 49 20 79 5 47
10 57 32 66 14 7 34 20 43 30 10 9 18 29 18 43 0 15 17 50 37 78 20 28 36 58
36 66 -1 8 3 32 8 53 6 20 14 37 18 37 5 0 14 -6 20 -14z m21 -56 c0 -5 -5
-10 -11 -10 -5 0 -7 5 -4 10 3 6 8 10 11 10 2 0 4 -4 4 -10z m30 -95 c0 -8 -2
-15 -4 -15 -2 0 -6 7 -10 15 -3 8 -1 15 4 15 6 0 10 -7 10 -15z m15 -135 c3
-6 -1 -7 -9 -4 -9 3 -16 8 -16 10 0 2 4 4 9 4 6 0 13 -4 16 -10z m-59 -57 c-3
-4 -6 -1 -6 6 0 7 -4 9 -10 6 -6 -4 -7 1 -3 11 6 15 7 15 15 -1 6 -9 7 -19 4
-22z m49 -93 c3 -5 1 -10 -4 -10 -6 0 -11 5 -11 10 0 6 2 10 4 10 3 0 8 -4 11
-10z m78 -505 c-3 -9 -8 -14 -10 -11 -3 3 -2 9 2 15 3 6 8 11 10 11 3 0 2 -7
-2 -15z m-78 -16 c-4 -6 2 -13 13 -16 13 -3 19 -10 15 -20 -5 -11 -9 -10 -24
6 -11 11 -19 25 -19 31 0 5 5 10 11 10 5 0 7 -5 4 -11z m-545 -105 c0 -8 -5
-12 -10 -9 -6 4 -8 11 -5 16 4 5 8 9 11 9 2 0 4 -7 4 -16z m542 -106 c-7 -7
-12 -8 -12 -2 0 6 3 14 7 17 3 4 9 5 12 2 2 -3 -1 -11 -7 -17z m-175 -293 c0
-8 -4 -15 -9 -15 -4 0 -8 7 -8 15 0 8 4 15 8 15 5 0 9 -7 9 -15z m-73 -69 c-3
-9 -10 -16 -15 -16 -5 0 -4 9 3 20 7 10 14 18 15 16 2 -2 1 -11 -3 -20z m31 5
c3 -5 1 -12 -5 -16 -5 -3 -10 1 -10 9 0 9 2 16 4 16 3 0 7 -4 11 -9z m-15 -35
c0 -2 3 -12 6 -20 5 -12 2 -15 -10 -10 -9 3 -16 12 -16 20 0 8 5 14 10 14 6 0
10 -2 10 -4z m-100 -106 c8 -5 11 -10 5 -10 -5 0 -17 5 -25 10 -8 5 -10 10 -5
10 6 0 17 -5 25 -10z m-110 -31 c0 -11 -4 -18 -10 -14 -5 3 -7 12 -3 20 3 8 7
15 9 15 2 0 4 -9 4 -21z m44 5 c3 -8 2 -12 -4 -9 -6 3 -10 10 -10 16 0 5 2 9
4 9 2 0 7 -7 10 -16z"/>
<path d="M730 2890 c0 -5 5 -10 11 -10 5 0 7 5 4 10 -3 6 -8 10 -11 10 -2 0
-4 -4 -4 -10z"/>
<path d="M1740 6925 c0 -8 4 -15 10 -15 5 0 7 7 4 15 -4 8 -8 15 -10 15 -2 0
-4 -7 -4 -15z"/>
<path d="M13800 6623 c-25 -8 -67 -14 -95 -14 -27 1 -63 -6 -79 -14 -15 -8
-34 -15 -40 -15 -7 0 -18 -11 -25 -24 -7 -13 -10 -32 -7 -43 5 -17 1 -20 -24
-21 -17 0 -42 -10 -56 -21 -15 -12 -33 -21 -40 -21 -7 0 -20 -10 -28 -22 -9
-12 -16 -18 -16 -13 0 5 -11 -2 -24 -16 -13 -14 -44 -31 -69 -38 -29 -9 -47
-20 -50 -32 -3 -12 -14 -19 -29 -19 -13 0 -38 -13 -56 -29 -17 -17 -32 -35
-32 -41 0 -6 -12 -16 -27 -23 -15 -6 -39 -23 -53 -37 -14 -14 -37 -50 -52 -80
-15 -30 -30 -65 -33 -77 -4 -14 -14 -23 -26 -23 -12 0 -19 -7 -19 -20 0 -11
-4 -20 -9 -20 -4 0 -22 -13 -39 -30 -18 -16 -37 -30 -43 -30 -6 0 -17 -6 -25
-14 -8 -8 -11 -22 -8 -30 5 -12 2 -15 -10 -10 -12 4 -16 0 -16 -15 0 -13 -5
-19 -14 -15 -8 3 -21 -5 -30 -18 -9 -12 -16 -19 -16 -14 0 5 -9 1 -19 -8 -11
-10 -24 -15 -30 -12 -5 4 -12 2 -15 -3 -3 -5 -15 -7 -26 -4 -11 3 -20 1 -20
-5 0 -5 -10 -12 -22 -15 -13 -4 -26 -1 -30 6 -4 7 -33 12 -75 12 -37 1 -72 -1
-78 -4 -5 -3 -53 -7 -105 -9 -52 -2 -152 -4 -222 -6 -70 -1 -130 -5 -134 -9
-4 -4 -26 -4 -48 -1 -23 3 -51 10 -63 16 -12 6 -36 8 -55 4 -18 -4 -55 -7 -83
-8 -27 0 -82 3 -120 7 -57 6 -73 5 -83 -8 -11 -13 -19 -13 -55 -3 -23 7 -62
12 -86 11 -25 -1 -47 -7 -49 -13 -3 -9 -9 -9 -23 -1 -11 5 -45 8 -77 6 -36 -2
-67 1 -85 10 -25 13 -31 13 -46 -1 -10 -9 -20 -16 -23 -16 -2 0 -3 14 0 30 2
17 0 30 -6 30 -5 0 -13 -16 -16 -35 -4 -19 -11 -35 -16 -35 -6 0 -10 4 -10 8
0 4 -42 9 -92 11 -51 1 -100 3 -108 3 -8 1 -69 -2 -135 -6 -66 -4 -157 -9
-202 -11 -51 -3 -85 0 -89 7 -4 6 -32 8 -80 3 -40 -4 -78 -4 -84 0 -7 4 -48 8
-93 10 -45 1 -88 -2 -94 -8 -9 -6 -13 -6 -13 1 0 6 -32 9 -79 8 -44 0 -77 3
-74 7 2 4 -22 8 -54 8 -32 0 -72 1 -90 2 -18 1 -37 7 -43 13 -8 8 -24 9 -52 3
-29 -7 -47 -6 -68 5 -25 12 -28 12 -23 -1 5 -13 2 -13 -16 -4 -14 8 -41 10
-75 6 -34 -5 -56 -3 -60 4 -5 7 -15 7 -32 1 -19 -8 -26 -6 -30 5 -5 12 -27 14
-127 11 -77 -2 -123 -8 -125 -15 -2 -7 -9 -6 -19 4 -8 8 -22 15 -31 15 -9 0
-22 -4 -29 -8 -6 -4 -12 -10 -12 -14 -1 -5 -4 -8 -8 -8 -5 0 -24 5 -44 10 -20
6 -56 7 -80 4 -24 -3 -50 -11 -56 -16 -7 -6 -13 -7 -13 -4 0 4 -10 0 -22 -8
-13 -9 -26 -12 -32 -7 -6 5 -35 6 -63 4 -44 -5 -53 -9 -53 -24 0 -19 -1 -19
-40 1 -24 12 -59 20 -90 20 -28 0 -60 -5 -71 -11 -15 -8 -24 -7 -36 3 -9 7
-45 13 -86 14 -43 1 -79 -3 -92 -11 -11 -7 -42 -12 -70 -11 -27 1 -56 5 -64
10 -9 6 -18 4 -25 -7 -8 -10 -25 -14 -51 -13 -22 2 -44 1 -48 -2 -4 -2 -2 -11
5 -20 10 -14 10 -15 -2 -4 -8 6 -26 12 -41 12 -15 0 -32 -7 -39 -15 -9 -11
-26 -14 -57 -12 -30 2 -47 -1 -52 -10 -5 -9 -31 -15 -75 -18 -41 -2 -74 -9
-84 -18 -9 -8 -33 -18 -52 -23 -19 -4 -41 -7 -47 -5 -7 1 -13 -2 -13 -7 0 -4
-16 -14 -35 -22 -19 -7 -37 -22 -40 -31 -3 -10 -14 -18 -23 -18 -9 0 -41 -3
-70 -7 -29 -4 -55 -11 -58 -15 -3 -5 -13 -9 -22 -9 -10 0 -30 -12 -46 -27 -16
-14 -42 -29 -60 -33 -17 -4 -30 -12 -28 -18 1 -7 -10 -12 -26 -12 -16 0 -38
-9 -50 -20 -12 -11 -24 -20 -27 -20 -3 0 -13 -8 -23 -18 -10 -10 -22 -26 -25
-36 -4 -9 -11 -15 -16 -12 -5 3 -20 -3 -34 -14 -14 -11 -40 -23 -58 -27 -19
-3 -34 -13 -36 -25 -4 -11 -14 -18 -29 -18 -16 0 -28 -8 -36 -25 -6 -14 -15
-25 -20 -25 -5 0 -24 -16 -43 -35 -19 -19 -35 -43 -35 -55 0 -11 5 -20 11 -20
6 0 8 -8 4 -19 -3 -11 1 -25 9 -34 12 -11 24 -13 50 -7 23 5 39 4 45 -4 5 -6
27 -10 50 -10 29 2 47 9 66 28 15 15 24 33 21 41 -4 11 1 13 23 9 18 -4 32 0
40 10 8 9 19 16 25 16 7 0 27 11 45 24 18 14 39 22 47 19 8 -3 21 0 29 7 8 6
18 9 23 6 5 -3 12 7 15 23 4 20 14 31 33 35 14 4 29 5 31 2 3 -3 16 8 30 25
14 16 29 27 33 24 5 -3 16 -2 25 1 10 4 15 14 12 25 -3 11 -1 17 3 14 5 -3 12
-1 15 5 4 6 24 10 45 8 22 -1 48 5 64 15 14 10 26 22 26 28 0 6 5 7 10 4 6 -4
34 -1 63 5 29 7 58 17 65 23 8 6 39 12 70 14 31 2 89 6 127 11 39 4 69 12 68
18 -1 7 17 8 55 3 45 -6 58 -5 65 7 5 8 13 12 18 8 6 -3 47 -7 92 -9 45 -1 84
1 87 6 3 4 35 1 71 -6 41 -9 106 -13 175 -10 60 2 136 6 168 10 39 4 64 12 73
23 9 11 12 12 11 3 -2 -11 16 -14 92 -13 52 0 119 3 148 7 32 5 52 4 52 -2 0
-5 14 -8 30 -5 17 2 52 -1 78 -8 26 -7 58 -14 72 -15 14 -2 48 -6 77 -9 31 -4
54 -2 58 4 3 6 11 8 16 4 5 -3 6 -10 3 -16 -4 -6 1 -8 13 -4 11 3 38 0 60 -8
23 -8 43 -12 46 -10 3 3 31 -2 63 -10 33 -8 111 -17 173 -20 80 -4 117 -2 122
6 4 7 14 8 25 3 11 -5 25 -7 32 -6 6 1 12 -3 12 -8 0 -6 19 -4 48 4 29 9 48
11 50 5 2 -6 11 -10 20 -10 8 0 23 -6 31 -14 9 -7 31 -18 49 -24 22 -8 40 -8
52 -2 12 7 27 5 50 -6 26 -14 36 -14 55 -4 15 8 34 10 52 5 15 -4 44 -10 63
-12 19 -3 63 -6 97 -6 34 -1 59 -5 57 -9 -3 -4 2 -8 10 -8 8 0 18 4 21 10 3 5
25 7 48 5 23 -3 56 -9 73 -14 18 -5 38 -5 47 1 11 5 24 5 36 -2 11 -5 29 -10
40 -10 12 0 21 5 21 11 0 7 8 9 23 4 12 -4 53 -8 90 -11 44 -2 81 1 102 10 23
10 45 12 70 6 21 -5 44 -6 53 -3 8 4 13 2 9 -3 -3 -5 6 -9 21 -8 15 0 40 4 55
9 19 5 33 3 45 -8 9 -8 27 -18 40 -21 12 -4 22 -3 22 1 0 5 19 14 42 20 26 7
50 8 65 2 16 -6 32 -5 44 2 12 6 28 8 37 4 9 -4 37 -9 62 -11 25 -2 68 0 95 7
28 6 57 13 65 15 8 3 44 7 80 10 36 2 83 7 105 10 22 2 54 7 70 9 17 2 59 11
95 19 36 8 86 20 113 27 40 11 49 11 61 -1 10 -11 12 -29 7 -67 -4 -29 -3 -54
1 -55 5 -2 6 -12 2 -22 -6 -16 -9 -15 -20 10 -12 27 -13 27 -9 4 2 -14 6 -33
10 -42 4 -10 11 -15 16 -12 5 3 6 -2 3 -10 -3 -9 -10 -16 -14 -16 -5 0 -12 10
-16 23 -7 21 -8 21 -14 2 -3 -11 -12 -35 -19 -52 -7 -18 -17 -33 -22 -33 -5 0
-9 -6 -9 -14 0 -8 -7 -17 -16 -20 -9 -4 -14 -13 -10 -21 3 -8 0 -14 -6 -12 -6
1 -14 -12 -18 -28 -4 -17 -15 -49 -25 -73 -10 -23 -22 -42 -26 -42 -5 0 -15
-15 -24 -34 -10 -21 -22 -33 -30 -30 -7 3 -23 -4 -35 -16 -15 -15 -25 -19 -33
-11 -7 7 -16 7 -30 0 -11 -6 -32 -8 -48 -5 -17 3 -29 1 -29 -5 0 -6 -9 -8 -20
-4 -14 4 -22 1 -26 -10 -5 -12 -14 -15 -32 -10 -15 4 -28 1 -32 -6 -5 -7 -13
-8 -21 -3 -8 5 -24 9 -36 9 -16 1 -23 -5 -23 -17 0 -10 -4 -18 -9 -18 -5 0
-14 7 -21 15 -7 8 -21 15 -31 15 -11 0 -19 -5 -19 -11 0 -5 -4 -8 -9 -4 -5 3
-13 1 -16 -5 -4 -6 -15 -8 -25 -5 -9 3 -30 1 -45 -5 -22 -8 -31 -7 -46 5 -9 9
-25 18 -35 19 -10 2 -25 16 -34 33 -8 16 -21 28 -27 26 -6 -2 -17 2 -25 10 -7
8 -29 19 -48 25 -19 6 -50 16 -68 21 -25 8 -43 7 -75 -5 -23 -9 -52 -18 -64
-21 -13 -3 -23 -9 -23 -14 0 -5 -7 -9 -15 -9 -8 0 -15 -6 -15 -13 0 -7 -11
-23 -25 -35 -14 -12 -28 -21 -33 -20 -4 0 -15 -2 -24 -6 -10 -5 -15 -12 -13
-17 3 -4 -11 -1 -32 8 -23 10 -71 17 -123 18 -47 1 -90 -2 -96 -7 -7 -5 -16
-8 -20 -6 -5 1 -26 -4 -46 -12 -24 -9 -38 -20 -38 -31 0 -10 -4 -20 -8 -23 -4
-2 -13 -2 -18 2 -6 4 -14 14 -17 22 -3 10 -6 7 -6 -8 -1 -12 -9 -26 -18 -29
-10 -4 -24 -12 -30 -19 -7 -7 -13 -18 -13 -24 0 -7 -9 -19 -21 -29 -12 -10
-22 -31 -24 -51 -2 -27 -8 -36 -30 -43 -20 -7 -25 -14 -22 -28 3 -12 0 -19 -9
-19 -10 0 -14 -12 -14 -41 0 -22 -4 -38 -9 -35 -5 3 -11 -4 -15 -16 -3 -13 -1
-27 4 -32 6 -6 10 -17 10 -26 0 -9 9 -25 20 -35 11 -10 20 -24 20 -32 0 -7 4
-13 10 -13 5 0 14 -19 21 -42 6 -24 16 -53 21 -65 6 -11 25 -29 44 -39 18 -10
35 -28 38 -39 4 -14 22 -29 51 -40 25 -11 44 -24 44 -30 -1 -5 -1 -16 0 -22 0
-7 7 -13 15 -13 8 0 16 -6 19 -14 3 -8 32 -26 64 -41 32 -15 68 -32 80 -37 12
-6 28 -8 36 -5 7 3 18 -3 25 -13 7 -11 27 -19 54 -22 24 -3 49 -1 56 5 8 6 17
5 27 -3 8 -6 23 -9 35 -5 11 3 20 11 20 16 0 5 13 9 29 9 17 0 33 5 36 10 4 6
10 8 15 5 5 -3 11 -1 15 4 3 6 12 8 19 5 8 -3 17 -1 21 5 3 6 18 11 32 11 17
0 27 7 30 20 3 11 19 27 37 34 17 8 41 17 52 21 12 3 21 13 20 23 0 9 -5 21
-11 25 -6 5 -1 6 10 2 11 -4 25 -9 31 -11 5 -3 27 11 47 31 20 20 37 42 37 50
0 8 5 15 10 15 6 0 28 18 51 41 22 22 46 55 52 72 6 18 11 41 10 52 -1 11 -5
36 -8 55 -4 19 -8 59 -9 88 -3 47 0 57 23 78 14 13 34 27 44 30 9 3 17 10 17
16 0 6 9 8 20 5 11 -3 23 -1 26 4 3 5 10 9 15 9 6 0 7 -5 3 -12 -5 -8 2 -9 27
-4 19 4 41 9 49 11 8 2 17 4 20 5 3 1 14 3 25 4 11 0 33 -2 48 -6 20 -5 30 -3
34 8 3 7 10 14 16 14 6 0 7 -3 4 -7 -4 -3 3 -17 14 -30 12 -12 25 -39 28 -59
4 -26 12 -38 24 -40 11 -1 21 -5 24 -8 3 -3 1 -12 -6 -20 -9 -11 -8 -15 5 -20
9 -3 14 -13 11 -20 -3 -8 -3 -16 1 -18 4 -2 22 -25 40 -52 17 -27 32 -53 32
-58 0 -4 6 -8 13 -8 6 0 22 -17 34 -39 12 -22 35 -44 53 -51 17 -7 44 -25 60
-40 17 -16 30 -33 30 -39 0 -6 9 -11 20 -11 11 0 20 -4 20 -9 0 -5 10 -13 23
-17 12 -4 28 -7 35 -6 6 2 12 -2 12 -8 0 -5 7 -10 15 -10 8 0 15 -5 15 -11 0
-6 8 -8 19 -4 10 3 24 -1 31 -10 9 -11 22 -14 40 -10 18 4 31 1 40 -10 7 -9
21 -13 31 -10 10 3 30 -2 44 -11 17 -11 37 -15 60 -11 19 3 37 1 41 -4 3 -6
12 -8 18 -6 7 3 37 -1 66 -9 30 -8 76 -12 104 -9 28 3 62 7 75 8 13 2 43 0 68
-3 34 -6 46 -4 53 9 6 11 9 12 10 3 0 -7 5 -10 11 -7 6 4 46 8 90 9 53 1 83 6
88 15 5 8 11 9 15 3 3 -5 21 -6 43 -2 21 4 63 18 95 33 31 14 66 36 78 49 12
13 27 23 33 24 7 0 20 4 30 9 9 4 27 5 38 2 12 -3 22 0 26 9 3 8 13 14 23 12
9 -2 24 3 33 10 9 8 31 15 49 15 29 2 33 -1 36 -26 2 -15 12 -32 23 -37 10 -6
19 -20 19 -30 0 -11 4 -20 10 -20 5 0 9 -12 9 -27 0 -16 1 -44 1 -65 0 -23 6
-38 16 -42 8 -3 13 -10 9 -15 -3 -6 11 -21 32 -35 21 -15 41 -26 45 -26 4 0
19 -10 34 -22 14 -13 26 -21 27 -19 1 2 21 -6 44 -18 23 -11 50 -21 59 -21 9
0 18 -9 21 -21 5 -17 11 -20 34 -15 22 4 29 2 29 -9 0 -10 12 -16 38 -17 20
-1 55 -2 77 -3 22 -1 48 -5 59 -10 11 -5 21 -4 25 3 4 7 38 13 76 15 39 2 87
11 109 20 21 10 48 17 60 17 12 0 37 16 56 35 19 19 40 35 47 35 7 0 24 12 38
27 15 17 25 22 25 14 0 -11 5 -10 20 4 11 10 20 28 21 39 0 21 1 21 9 1 7 -17
9 -18 14 -4 4 9 25 22 47 29 22 8 43 18 47 24 3 6 6 26 7 45 0 29 5 36 30 44
17 6 36 18 43 29 7 10 19 18 25 18 7 1 22 9 35 19 12 11 22 28 22 39 0 11 9
22 21 25 11 3 23 15 26 26 3 13 18 24 37 29 17 5 31 15 31 23 0 8 4 20 8 27 5
7 12 10 17 7 5 -3 11 -1 14 3 3 5 24 8 47 7 23 -1 45 -8 49 -15 4 -7 11 -29
14 -50 3 -20 17 -62 32 -94 14 -31 30 -56 35 -56 5 0 9 -6 9 -14 0 -7 13 -29
30 -47 16 -19 30 -39 30 -45 0 -6 11 -24 25 -40 13 -16 31 -37 40 -46 8 -10
15 -20 15 -23 0 -3 12 -17 28 -30 15 -13 32 -25 39 -25 6 0 20 -11 31 -25 11
-14 25 -25 30 -25 6 0 19 -16 28 -35 9 -19 22 -35 29 -35 7 0 18 -7 25 -15 7
-8 20 -15 29 -15 9 0 22 -9 29 -20 8 -14 23 -20 47 -20 19 0 35 -4 35 -10 0
-5 8 -10 18 -10 9 0 37 -18 62 -40 25 -22 55 -40 67 -40 12 0 41 -9 63 -21 26
-14 49 -19 65 -15 14 4 25 3 25 -1 0 -5 10 -15 23 -23 12 -7 45 -17 72 -22 28
-4 91 -12 140 -18 50 -6 110 -13 135 -16 25 -4 93 -7 151 -7 94 -1 109 1 138
22 20 14 40 21 54 18 12 -3 31 1 41 9 11 8 33 14 48 14 21 0 32 7 40 25 8 19
8 31 -1 51 -9 21 -17 25 -39 21 -15 -3 -42 1 -61 9 -29 12 -36 12 -43 1 -5 -9
-24 -13 -60 -12 -29 1 -87 5 -128 9 -41 3 -87 11 -102 17 -16 6 -28 15 -28 19
0 4 -16 11 -36 14 -23 5 -47 20 -66 42 -16 19 -34 34 -39 34 -4 0 -27 13 -51
29 -24 16 -49 39 -56 52 -12 18 -12 24 0 35 7 7 36 18 63 25 28 6 58 15 68 21
10 5 22 6 28 2 5 -3 16 0 24 6 8 7 15 9 15 5 0 -4 7 -2 15 5 8 6 18 9 23 6 5
-3 29 7 53 23 25 15 56 31 71 34 15 4 30 3 33 -3 3 -5 14 -10 25 -10 13 0 17
-5 13 -20 -3 -11 0 -20 6 -20 6 0 11 -10 11 -22 -1 -13 2 -37 6 -55 3 -18 16
-39 29 -47 12 -8 28 -21 36 -28 8 -8 30 -21 49 -30 19 -9 45 -19 57 -22 12 -4
47 -9 79 -11 31 -3 61 -2 67 2 5 3 28 8 50 10 21 2 46 7 56 12 11 7 21 5 33
-6 12 -11 27 -13 58 -8 23 4 44 13 47 21 3 8 12 14 20 14 8 0 35 6 61 14 26 8
73 22 105 31 32 10 61 24 64 31 3 8 13 14 23 14 9 0 25 9 35 20 10 11 24 20
32 20 8 0 36 20 62 45 26 25 51 45 55 45 4 0 19 13 34 28 16 17 39 29 55 30
16 1 42 -8 58 -19 18 -12 38 -19 50 -16 15 4 19 2 15 -9 -3 -7 4 -23 16 -34
12 -10 24 -17 28 -15 4 2 16 -3 26 -13 10 -9 30 -24 44 -33 14 -9 49 -22 78
-29 29 -6 59 -9 67 -6 8 3 26 1 39 -4 13 -4 27 -5 32 0 5 5 25 9 44 11 19 1
49 -1 65 -5 17 -3 61 -2 100 3 41 6 72 16 77 25 4 8 32 18 60 22 29 5 60 9 68
9 8 1 27 5 43 9 15 5 32 16 37 26 5 9 21 17 37 18 15 0 50 8 76 17 26 9 64 27
85 41 35 24 42 25 127 19 50 -4 93 -9 97 -11 3 -2 8 2 11 8 3 10 11 10 38 0
19 -8 72 -22 119 -32 47 -10 99 -17 115 -15 17 1 50 8 74 14 23 7 49 10 56 7
7 -2 17 0 23 6 7 7 31 5 79 -6 l69 -17 69 34 c39 19 90 40 114 47 24 6 49 9
57 6 8 -3 30 4 49 15 19 12 35 25 35 30 0 5 9 9 19 9 11 0 23 5 26 10 3 6 15
10 26 10 13 0 19 7 19 21 0 16 4 19 21 14 14 -5 36 4 75 31 29 20 54 41 54 46
0 4 15 17 32 28 l33 20 40 -46 c22 -25 52 -51 65 -59 14 -8 33 -18 43 -21 9
-3 17 -10 17 -15 0 -5 11 -9 24 -9 13 0 29 -7 36 -15 6 -8 51 -27 98 -41 48
-15 94 -27 102 -26 8 0 31 -5 50 -12 19 -8 51 -18 70 -24 19 -6 63 -10 97 -7
35 2 98 5 140 6 43 1 82 4 86 6 4 3 34 6 65 8 31 2 107 7 167 11 61 3 122 13
136 20 15 7 29 20 32 29 4 8 14 15 22 15 9 0 31 10 50 23 19 13 44 35 55 50
12 15 27 27 35 27 7 0 24 15 39 34 14 19 35 37 45 41 10 3 22 17 25 30 4 14
11 25 16 25 6 0 10 8 10 19 0 12 -13 25 -36 36 -34 16 -37 16 -55 -1 -10 -9
-22 -15 -25 -11 -3 3 -29 -1 -57 -10 -29 -8 -65 -23 -81 -32 -16 -9 -38 -21
-49 -28 -13 -7 -28 -8 -44 -2 -16 6 -34 4 -56 -5 -17 -8 -57 -20 -88 -26 -31
-7 -61 -10 -67 -6 -5 3 -26 -1 -47 -10 -20 -8 -45 -12 -55 -9 -11 3 -28 2 -38
-4 -13 -7 -33 -6 -68 5 -32 10 -67 13 -101 10 -42 -5 -53 -3 -53 8 0 8 -14 22
-32 30 -17 9 -36 16 -43 16 -6 0 -20 8 -31 18 -10 9 -30 23 -44 29 -14 7 -34
19 -45 25 -11 7 -31 25 -45 39 -14 14 -37 33 -51 42 -23 14 -27 22 -26 65 1
40 -5 56 -26 82 -15 17 -30 43 -33 56 -4 14 -19 31 -35 39 -15 8 -39 15 -54
15 -14 0 -25 5 -25 10 0 6 -9 10 -20 10 -11 0 -43 -14 -72 -32 -29 -17 -60
-37 -68 -44 -8 -7 -24 -36 -35 -65 -11 -28 -32 -61 -47 -72 -19 -14 -28 -30
-28 -48 0 -14 -6 -31 -13 -37 -7 -6 -28 -10 -47 -10 -27 1 -39 -6 -61 -32 -15
-18 -32 -29 -38 -26 -5 4 -20 -4 -33 -17 -13 -13 -40 -43 -61 -66 -33 -36 -43
-42 -65 -37 -15 4 -43 9 -64 12 -20 3 -39 0 -43 -6 -3 -6 -21 -16 -39 -24 -18
-8 -46 -11 -61 -8 -19 3 -30 0 -37 -12 -5 -10 -22 -16 -42 -16 -19 0 -39 6
-45 14 -6 8 -25 19 -41 26 -17 7 -30 19 -30 26 0 8 11 19 24 24 13 5 26 14 28
21 2 7 15 14 29 16 13 2 36 18 51 36 15 17 29 43 31 57 3 14 1 27 -4 28 -5 2
-9 10 -9 18 0 9 4 13 9 10 5 -3 11 7 14 22 3 15 4 29 2 31 -2 2 -18 -2 -36 -8
-18 -6 -43 -11 -55 -11 -13 0 -24 -5 -24 -11 0 -5 -5 -7 -10 -4 -6 4 -9 23 -7
43 3 21 8 45 12 55 5 12 2 22 -10 31 -12 8 -35 11 -64 8 -25 -2 -58 -11 -72
-18 -15 -7 -38 -27 -53 -44 -14 -18 -26 -38 -26 -46 0 -8 -10 -14 -24 -14 -15
0 -26 -7 -29 -19 -3 -11 -17 -22 -35 -26 -17 -3 -36 -13 -43 -21 -6 -8 -19
-28 -29 -46 -9 -17 -25 -32 -36 -34 -10 -1 -35 -8 -54 -15 -19 -7 -50 -19 -67
-26 -18 -8 -33 -18 -33 -23 0 -5 -10 -10 -22 -12 -13 -2 -22 -7 -22 -13 1 -5
-7 -16 -16 -22 -10 -7 -35 -15 -55 -17 -24 -3 -49 -16 -69 -35 -29 -28 -36
-30 -91 -27 -36 2 -66 -2 -75 -9 -8 -6 -43 -20 -77 -30 -40 -12 -65 -24 -68
-36 -4 -12 -15 -17 -38 -16 -18 0 -57 -3 -87 -7 -30 -5 -68 -10 -85 -11 -16
-2 -44 3 -62 10 -17 7 -41 11 -52 8 -18 -5 -20 -2 -14 33 3 22 13 48 22 60 11
14 35 24 79 32 34 5 70 16 79 23 8 8 31 14 51 15 20 0 38 6 40 12 2 7 9 12 17
12 7 0 18 7 25 15 7 8 20 15 30 15 9 0 25 9 35 20 10 11 23 20 30 20 7 0 20 9
30 20 10 11 28 20 40 20 12 0 31 9 43 20 12 11 28 20 37 20 8 0 20 11 25 25 5
14 16 25 25 25 9 0 20 11 25 25 6 15 17 25 29 25 11 0 22 4 26 9 3 6 19 17 37
25 17 9 37 16 45 16 7 0 21 16 30 36 14 28 15 39 5 54 -7 11 -12 31 -12 45 0
14 -4 25 -8 25 -4 0 -16 14 -25 30 -10 17 -24 30 -32 30 -7 0 -25 14 -38 30
-14 17 -30 30 -36 30 -5 0 -12 8 -16 18 -3 9 -27 27 -53 40 -26 12 -61 22 -79
22 -17 0 -34 4 -38 10 -3 5 -12 7 -20 5 -8 -3 -23 -8 -32 -11 -10 -4 -25 -8
-33 -9 -8 -1 -22 -2 -31 -3 -9 -1 -19 -14 -22 -31 -3 -16 -13 -36 -22 -45 -9
-9 -27 -16 -40 -16 -13 0 -27 5 -30 10 -3 6 -11 10 -17 10 -5 0 -8 -7 -4 -15
3 -8 1 -15 -4 -15 -6 0 -10 4 -10 9 0 5 -7 11 -15 15 -8 3 -26 -6 -40 -20 -14
-14 -25 -29 -25 -34 0 -5 -10 -12 -22 -16 -13 -3 -31 -13 -41 -22 -10 -9 -25
-30 -33 -48 -9 -18 -33 -44 -55 -58 -21 -15 -39 -31 -39 -36 0 -5 -19 -26 -41
-47 -23 -21 -48 -51 -55 -68 -8 -19 -13 -23 -14 -12 0 9 -4 17 -10 17 -5 0
-10 -9 -10 -19 0 -14 -5 -18 -20 -14 -11 3 -31 -2 -44 -11 -14 -9 -31 -13 -39
-10 -8 3 -18 1 -22 -5 -3 -6 -20 -11 -36 -11 -17 0 -39 -5 -50 -11 -16 -8 -26
-7 -44 5 -18 12 -31 13 -49 7 -13 -6 -37 -23 -53 -39 -20 -18 -32 -43 -37 -71
-5 -34 -2 -50 15 -77 11 -19 29 -39 39 -44 10 -6 34 -12 52 -14 20 -2 40 -13
51 -28 18 -24 18 -27 2 -51 -12 -18 -35 -32 -76 -44 -32 -10 -59 -23 -59 -29
0 -6 -18 -14 -40 -17 -22 -3 -54 -17 -71 -31 -17 -14 -37 -26 -44 -26 -7 0
-15 -4 -17 -10 -1 -5 -39 -12 -83 -15 -44 -4 -84 -10 -90 -15 -5 -4 -30 -11
-55 -16 -25 -5 -49 -9 -55 -9 -5 0 -16 -4 -23 -9 -7 -4 -25 -5 -40 -2 -15 4
-39 12 -54 18 -16 6 -28 17 -28 25 0 8 8 28 17 44 10 16 23 29 30 29 7 0 13 9
13 19 0 12 9 21 25 25 16 4 25 13 25 26 0 11 4 20 8 20 5 0 18 23 31 51 18 41
26 50 41 46 11 -3 20 -1 20 3 0 5 18 27 40 50 22 23 40 50 40 60 0 10 6 20 14
23 7 3 18 19 24 37 10 28 9 32 -11 39 -12 5 -27 5 -33 0 -8 -7 -10 -1 -6 18 5
26 4 27 -12 10 -10 -9 -19 -17 -21 -17 -2 0 -2 23 -1 50 1 28 -1 53 -5 55 -4
3 -27 -6 -51 -20 -23 -14 -47 -25 -52 -25 -4 0 -5 7 -2 16 4 10 1 14 -6 12 -7
-3 -15 -15 -18 -29 l-6 -24 -7 24 -6 24 -34 -29 c-20 -18 -29 -32 -23 -36 8
-5 7 -11 -1 -19 -9 -9 -16 -9 -28 1 -10 8 -15 9 -15 1 0 -6 -7 -11 -15 -11 -8
0 -15 -6 -15 -14 0 -8 -15 -18 -32 -22 -18 -4 -40 -7 -49 -5 -9 1 -22 -5 -29
-14 -7 -8 -19 -15 -27 -15 -8 0 -38 -15 -66 -33 -29 -18 -70 -43 -93 -55 -22
-11 -60 -24 -84 -28 -24 -4 -51 -15 -62 -26 -10 -10 -18 -15 -18 -11 0 4 -13
-6 -29 -21 -24 -23 -36 -28 -59 -23 -25 5 -31 2 -36 -16 -4 -16 -8 -18 -14 -9
-6 8 -21 11 -48 6 -22 -3 -46 -14 -55 -26 -13 -17 -23 -20 -48 -15 -19 4 -46
1 -65 -7 -17 -7 -51 -13 -75 -13 -27 0 -47 -6 -52 -14 -4 -8 -14 -23 -22 -33
-13 -18 -16 -18 -70 18 -32 22 -57 45 -57 55 0 9 -16 32 -35 51 -19 18 -41 48
-50 67 -9 18 -22 33 -29 33 -8 0 -16 10 -20 23 -3 13 -17 36 -30 50 -14 15
-39 47 -56 71 -16 25 -30 49 -30 55 0 5 -21 31 -47 57 -37 36 -48 54 -50 81
-1 20 -9 43 -18 52 -8 10 -15 25 -15 35 0 9 12 28 28 43 15 14 43 33 63 43 19
10 41 25 48 33 6 8 25 20 41 27 17 7 27 17 23 25 -2 8 0 22 6 32 6 10 11 12
11 6 0 -7 5 -13 10 -13 6 0 11 17 11 38 1 23 3 28 6 15 2 -13 8 -23 13 -23 4
0 10 6 13 14 3 8 16 16 28 18 13 2 24 11 25 23 2 11 5 29 6 41 1 11 8 21 16
21 8 0 12 -7 9 -19 -4 -13 0 -18 13 -18 11 0 25 8 32 18 7 10 21 21 31 25 10
4 15 11 12 17 -3 5 0 7 8 4 8 -3 17 2 20 10 4 9 18 16 33 16 17 0 28 6 31 20
4 13 17 22 42 26 20 4 41 11 48 16 6 5 10 15 7 21 -2 7 5 18 17 25 11 7 24 11
27 7 3 -3 14 12 24 33 14 33 21 39 42 35 13 -3 27 0 30 6 4 6 16 11 26 11 10
0 20 -5 22 -11 2 -5 11 -7 21 -4 9 4 17 13 17 21 0 8 -5 14 -12 14 -6 0 -9 3
-6 6 4 3 22 1 42 -4 22 -6 38 -7 42 -1 3 5 27 9 54 9 27 0 51 4 55 10 4 6 15
6 31 0 14 -6 27 -10 30 -10 2 0 4 8 5 18 0 10 3 12 6 5 2 -7 11 -13 19 -13 9
0 13 4 9 10 -3 5 0 18 7 30 7 11 17 20 22 20 6 0 5 -5 -1 -11 -8 -8 -8 -18 -1
-34 7 -15 19 -23 37 -23 14 0 29 5 33 11 4 8 14 4 26 -11 17 -19 24 -21 46
-12 18 6 26 6 26 -1 0 -6 9 -8 19 -4 11 3 22 1 26 -5 3 -5 14 -10 23 -10 9 0
29 -6 44 -14 15 -8 40 -17 56 -21 16 -3 47 -21 68 -39 22 -18 55 -37 74 -41
19 -4 54 -16 77 -26 23 -11 64 -19 90 -19 26 0 75 -7 108 -14 33 -8 63 -12 66
-10 4 2 29 -3 56 -13 34 -12 83 -17 168 -18 66 -1 129 -5 140 -9 11 -4 27 -11
37 -16 11 -6 20 -4 28 5 7 9 29 15 51 15 21 0 41 5 44 10 4 6 25 10 48 9 23 0
92 1 154 4 61 3 120 10 130 15 10 6 34 11 53 13 19 2 42 8 50 15 8 7 40 14 70
17 30 3 68 10 85 17 16 6 32 15 35 20 3 5 35 14 70 20 36 7 83 15 105 19 22 4
50 13 62 19 12 7 29 12 38 12 9 0 47 14 83 31 37 17 86 37 110 45 23 8 48 14
55 13 6 -2 27 1 45 5 19 4 49 24 68 44 28 31 35 35 44 22 8 -13 10 -13 10 3 0
9 7 17 16 17 8 0 34 9 57 20 23 11 49 24 57 29 8 5 24 13 35 17 11 4 23 7 27
6 3 -1 27 10 53 23 25 14 53 25 61 25 9 0 22 7 30 15 9 8 27 18 42 21 15 4 32
12 37 19 6 7 27 20 48 28 20 9 55 16 77 15 22 0 51 7 65 16 14 9 35 39 47 66
17 36 29 50 43 50 11 0 35 14 53 30 18 17 36 30 40 30 4 0 23 18 41 40 18 22
38 40 45 40 6 0 20 13 29 29 10 17 26 33 37 36 11 4 23 17 26 31 4 13 14 30
23 37 9 6 25 24 36 38 11 14 22 26 25 27 3 0 13 4 22 7 10 4 24 21 33 38 8 16
15 40 15 51 1 12 7 39 15 60 9 27 11 45 4 58 -5 10 -16 18 -24 18 -8 0 -26
-18 -40 -40 -14 -22 -25 -46 -25 -54 0 -8 -16 -24 -35 -36 -21 -13 -44 -20
-56 -17 -14 4 -46 -9 -91 -36 -38 -23 -87 -58 -109 -78 -21 -20 -39 -33 -40
-30 0 3 -4 -4 -9 -16 -8 -20 -13 -21 -35 -13 -20 8 -37 4 -86 -20 -34 -16 -76
-41 -95 -55 -18 -14 -47 -28 -63 -31 -17 -4 -36 -12 -42 -20 -6 -7 -37 -16
-70 -20 -32 -4 -59 -10 -59 -13 0 -4 -16 -14 -36 -21 -21 -8 -40 -25 -45 -38
-7 -17 -14 -22 -29 -17 -11 4 -20 2 -20 -4 0 -6 -11 -11 -24 -11 -13 0 -29 -6
-35 -14 -7 -8 -25 -18 -41 -21 -15 -3 -35 -14 -45 -24 -9 -11 -24 -17 -35 -14
-10 3 -41 -7 -69 -23 -28 -15 -51 -31 -51 -36 0 -4 -10 -8 -22 -8 -13 0 -35
-8 -49 -18 -15 -9 -39 -26 -55 -37 -20 -14 -46 -20 -90 -22 -35 0 -80 -7 -101
-14 -21 -8 -53 -22 -72 -32 -27 -15 -36 -16 -42 -5 -5 7 -9 9 -10 3 -1 -5 -2
-14 -4 -20 -1 -5 -3 -15 -3 -22 -1 -7 -8 -10 -16 -7 -8 3 -12 13 -9 23 3 11
-1 18 -11 18 -8 0 -13 -4 -10 -9 3 -4 -3 -9 -13 -9 -10 -1 -34 -3 -53 -4 -19
-1 -39 -3 -45 -5 -5 -1 -39 -4 -75 -5 -36 -2 -90 -5 -120 -8 -30 -3 -89 -1
-130 5 -54 7 -100 7 -168 -2 -70 -10 -96 -10 -105 -1 -6 6 -26 11 -45 11 -18
0 -41 4 -51 10 -10 5 -62 12 -117 15 -54 4 -112 8 -129 9 -16 1 -39 7 -50 13
-11 6 -40 10 -65 9 -25 -1 -76 2 -115 7 -38 5 -75 13 -81 18 -6 5 -19 7 -28 3
-9 -3 -23 -1 -31 6 -11 9 -18 10 -29 1 -10 -9 -16 -8 -25 3 -9 10 -19 12 -34
7 -14 -6 -32 -4 -48 5 -14 7 -46 13 -70 14 -24 0 -62 -2 -84 -5 -22 -3 -65 -7
-95 -9 -30 -2 -56 -9 -58 -15 -3 -9 -8 -9 -19 0 -8 7 -26 14 -39 15 -19 2 -24
-1 -20 -12 3 -8 0 -14 -6 -14 -6 0 -16 8 -23 17 -11 14 -16 15 -43 4 -23 -10
-43 -10 -79 -3 -33 7 -52 7 -60 0 -7 -6 -20 -7 -29 -4 -8 3 -22 -1 -31 -9 -12
-12 -13 -19 -3 -30 11 -13 8 -14 -19 -9 -21 5 -31 3 -31 -6 0 -10 -4 -9 -16 1
-13 11 -17 10 -25 -3 -5 -10 -16 -24 -25 -33 -8 -8 -20 -15 -25 -15 -5 0 -9 5
-9 12 0 6 -9 1 -20 -12 -11 -13 -20 -18 -20 -12 0 6 -14 9 -32 7 -18 -1 -41
-6 -50 -10 -10 -4 -18 -11 -18 -16 0 -4 -6 -6 -13 -3 -8 3 -26 -7 -40 -22 -15
-15 -27 -31 -27 -35 0 -5 -15 -9 -32 -8 -18 0 -54 -5 -80 -13 -27 -7 -48 -16
-48 -20 0 -4 -9 -15 -19 -25 -11 -10 -23 -33 -26 -52 -3 -18 -11 -39 -19 -46
-10 -11 -15 -9 -25 7 -11 18 -11 20 4 15 10 -5 14 -3 9 4 -4 6 0 15 7 20 7 4
10 11 6 16 -5 4 -11 3 -15 -2 -4 -6 -20 -16 -35 -24 -15 -8 -25 -20 -23 -28 3
-7 1 -15 -4 -18 -6 -4 -10 1 -10 9 0 9 -4 16 -8 16 -5 0 -17 -9 -27 -20 -10
-11 -26 -22 -36 -25 -11 -4 -17 -11 -14 -16 4 -5 0 -9 -7 -9 -7 0 -22 -11 -32
-25 -10 -14 -25 -25 -32 -25 -7 0 -16 -9 -19 -20 -3 -11 -15 -20 -26 -20 -12
0 -19 -7 -19 -19 0 -13 -9 -21 -33 -25 -18 -3 -39 -15 -47 -26 -8 -11 -20 -20
-28 -20 -7 0 -15 -6 -18 -14 -3 -8 -27 -24 -54 -35 -27 -11 -59 -35 -72 -51
-13 -17 -37 -46 -55 -65 -17 -19 -41 -35 -52 -35 -12 0 -45 -24 -76 -55 -30
-30 -55 -61 -55 -70 0 -8 -6 -15 -13 -15 -7 0 -27 -15 -45 -33 -30 -31 -31
-34 -17 -61 8 -15 15 -35 15 -43 0 -13 -10 -14 -60 -9 -49 6 -61 4 -66 -8 -3
-9 -12 -16 -19 -16 -8 0 -16 -8 -20 -19 -3 -10 -3 -27 1 -37 4 -13 3 -15 -3
-6 -8 10 -16 8 -39 -10 -16 -12 -39 -32 -51 -45 -12 -13 -25 -23 -29 -23 -3 0
-19 -14 -35 -31 -16 -17 -29 -35 -29 -39 0 -5 -3 -10 -7 -12 -5 -1 -18 -24
-30 -49 -13 -25 -30 -46 -38 -47 -8 -1 -21 -2 -27 -3 -7 0 -23 2 -34 4 -16 4
-25 -1 -34 -19 -8 -13 -17 -24 -22 -24 -4 0 -8 -10 -8 -22 0 -16 -3 -19 -8
-10 -5 7 -16 10 -26 6 -10 -4 -30 -18 -44 -30 -14 -13 -33 -24 -42 -24 -10 0
-33 -6 -51 -14 -25 -10 -48 -12 -88 -5 -30 4 -58 6 -62 4 -4 -3 -14 2 -22 10
-9 8 -22 12 -30 9 -9 -3 -21 4 -29 15 -8 12 -17 19 -20 16 -3 -3 -8 24 -11 60
-2 36 -8 69 -11 73 -4 3 -11 0 -16 -8 -6 -9 -10 -10 -10 -3 0 6 3 18 6 27 3 8
11 13 18 10 8 -3 18 24 31 80 11 47 21 83 24 80 2 -2 10 12 17 31 6 20 9 45 6
57 -3 13 1 24 12 30 9 5 16 15 16 21 0 7 18 24 39 37 22 14 45 35 52 47 6 12
25 25 41 28 15 4 33 16 39 28 6 12 30 40 53 63 22 22 57 59 76 80 19 22 40 51
47 65 6 14 28 34 48 43 31 15 36 22 32 42 -3 16 0 24 10 24 7 0 17 8 21 18 4
9 14 18 22 20 8 2 30 11 48 19 18 9 30 18 28 21 -3 2 1 14 9 26 8 11 15 31 15
43 0 14 6 23 15 23 8 0 15 9 15 19 0 10 7 22 16 25 9 4 14 13 10 21 -3 8 -1
15 4 15 6 0 10 6 10 13 0 8 8 22 19 31 10 9 22 36 26 59 4 23 8 51 8 63 1 12
8 21 16 20 7 -1 27 23 43 52 22 42 26 57 17 68 -8 10 -8 22 1 49 6 19 16 35
21 35 5 0 9 5 9 10 0 6 11 23 25 38 14 15 30 50 37 80 6 30 18 60 25 67 7 8
13 25 13 39 0 21 -5 26 -25 26 -19 0 -23 -4 -18 -17 5 -12 -1 -10 -25 7 -22
16 -29 27 -22 34 5 5 10 25 10 44 0 26 -3 33 -15 28 -9 -3 -15 0 -15 9 0 8 -3
15 -7 16 -5 1 -23 2 -41 4 -20 2 -39 -4 -49 -14 -11 -10 -18 -12 -20 -4 -3 8
-13 7 -34 -4 -17 -8 -33 -21 -36 -29 -3 -8 -15 -14 -27 -14 -12 0 -27 -5 -34
-12 -7 -7 -12 -31 -12 -55 0 -24 -5 -43 -11 -43 -5 0 -8 4 -5 9 3 4 0 16 -7
25 -11 15 -19 11 -79 -38 -36 -30 -69 -65 -73 -76 -4 -12 -4 -24 -1 -27 3 -3
-4 -19 -15 -35 -16 -21 -18 -32 -10 -42 6 -7 10 -25 9 -40 -1 -16 -8 -26 -18
-26 -8 0 -26 -9 -39 -19 -19 -14 -22 -24 -17 -46 5 -18 11 -25 22 -21 9 3 12
1 9 -4 -3 -6 -14 -10 -23 -10 -9 0 -31 -20 -49 -43 -17 -23 -49 -60 -70 -83
-21 -22 -45 -50 -54 -61 -10 -12 -25 -47 -35 -79 -9 -33 -19 -51 -21 -42 -4
16 -6 16 -24 0 -10 -9 -19 -27 -19 -40 0 -13 -4 -20 -10 -17 -6 4 -11 -6 -11
-22 -1 -16 -3 -21 -6 -11 -4 15 -6 15 -23 -2 -14 -14 -18 -28 -14 -49 5 -23 2
-32 -15 -40 -12 -7 -21 -17 -21 -24 0 -7 -12 -24 -25 -39 -13 -16 -28 -28 -33
-28 -6 0 -13 -11 -16 -25 -3 -13 -29 -47 -57 -75 -27 -27 -58 -50 -68 -50 -11
0 -25 -14 -35 -34 -9 -19 -16 -41 -16 -49 0 -8 -7 -18 -16 -21 -9 -4 -14 -13
-10 -21 4 -11 -3 -17 -24 -22 -17 -3 -48 -23 -70 -44 -22 -22 -47 -39 -55 -39
-8 0 -15 -7 -15 -16 0 -10 -5 -14 -15 -10 -9 3 -23 2 -33 -3 -9 -5 -25 -12
-35 -15 -11 -3 -21 -15 -24 -26 -4 -14 -14 -20 -33 -20 -16 0 -35 -7 -44 -15
-8 -8 -19 -15 -24 -15 -6 0 -13 -7 -16 -16 -3 -9 -4 -20 -1 -24 3 -5 -3 -14
-14 -19 -11 -6 -28 -8 -38 -4 -10 3 -26 13 -35 21 -15 13 -19 11 -40 -10 -13
-13 -37 -30 -53 -36 -17 -7 -59 -14 -93 -15 -34 -1 -62 1 -62 6 0 4 -21 5 -47
2 -27 -3 -55 -6 -63 -6 -8 0 -26 -6 -40 -12 -14 -7 -28 -17 -32 -23 -4 -6 -20
-9 -35 -6 -16 3 -34 13 -40 23 -8 10 -23 16 -35 14 -13 -1 -31 -6 -40 -10 -11
-4 -18 -3 -18 4 0 6 -7 8 -15 5 -8 -4 -15 -1 -15 6 0 8 -12 11 -35 8 -19 -2
-35 -1 -35 3 0 4 -12 10 -27 15 -16 4 -37 9 -48 11 -11 1 -35 3 -52 4 -18 1
-33 6 -33 11 0 4 -9 8 -19 8 -10 0 -21 7 -25 15 -3 8 -12 12 -21 9 -8 -3 -15
-1 -15 5 0 6 -19 23 -42 38 -22 16 -53 35 -67 44 -14 9 -32 14 -38 11 -7 -2
-13 1 -13 7 0 6 -3 10 -7 10 -5 -1 -15 -1 -23 0 -13 1 -13 3 1 14 9 7 15 23
14 36 -1 13 -10 30 -20 38 -14 9 -18 24 -16 51 1 20 2 46 2 57 1 11 3 30 5 43
2 12 12 22 21 22 9 0 35 11 58 25 31 17 60 25 104 27 40 1 60 6 57 13 -2 7 9
12 28 12 17 0 43 2 59 4 15 2 30 12 33 22 3 9 11 17 17 17 6 0 21 10 32 23 11
13 27 26 36 29 9 4 21 2 26 -3 7 -7 19 1 36 21 23 27 31 30 61 25 21 -4 43 -2
57 7 13 7 41 13 61 13 20 0 35 1 33 3 -1 2 9 16 24 31 15 15 43 31 62 34 19 4
57 13 84 21 41 11 50 18 49 35 0 16 4 20 17 16 11 -4 23 2 33 17 11 15 27 23
51 24 19 0 43 8 53 17 10 10 29 17 41 17 12 0 32 10 44 23 12 12 31 41 41 65
11 23 21 42 23 42 2 0 13 -5 24 -10 11 -7 19 -7 19 -1 0 5 12 23 28 39 15 16
32 36 38 43 6 8 25 26 43 42 17 15 31 24 31 20 0 -4 12 5 28 19 15 14 37 31
49 37 13 6 26 24 29 39 4 15 15 35 25 45 10 9 23 17 29 17 5 0 10 7 10 15 0 8
5 15 10 15 6 0 10 7 10 15 0 8 6 15 13 15 7 0 26 13 41 29 17 18 25 34 21 42
-5 8 -4 10 3 5 7 -4 12 -1 12 9 0 9 5 13 11 9 6 -4 9 1 7 13 -2 13 22 44 75
97 61 61 76 82 73 101 -3 17 6 35 34 66 21 24 43 60 48 81 7 29 7 38 -4 42
-11 4 -11 11 4 38 10 18 19 47 20 63 0 17 5 62 10 100 5 39 7 76 5 82 -3 7 -9
11 -14 8 -4 -3 -12 3 -18 13 -5 10 -7 28 -4 40 3 13 1 22 -6 22 -6 0 -11 11
-11 24 0 15 -14 35 -41 57 -23 19 -49 41 -58 49 -9 8 -26 16 -36 18 -11 2 -28
4 -37 5 -9 1 -15 4 -12 8 2 4 -9 17 -25 28 -16 12 -41 21 -54 21 -14 0 -29 5
-32 10 -3 6 -16 10 -28 9 -12 -1 -42 -8 -67 -16z m85 -278 c13 0 30 -6 36 -12
9 -9 8 -22 -5 -53 -9 -22 -16 -51 -16 -64 0 -14 -3 -31 -6 -40 -3 -9 -16 -16
-29 -16 -13 0 -25 -7 -29 -15 -3 -9 -18 -15 -35 -15 -16 0 -31 -6 -34 -14 -3
-8 -32 -26 -64 -41 -32 -15 -71 -33 -87 -41 -16 -8 -34 -14 -40 -14 -6 0 -33
-11 -60 -25 -30 -15 -58 -23 -69 -19 -12 4 -17 2 -13 -4 3 -5 -1 -13 -10 -16
-9 -3 -23 -6 -32 -6 -10 0 -35 -9 -56 -21 -22 -12 -50 -23 -64 -25 -17 -4 -22
-1 -16 8 4 7 20 32 36 55 15 23 24 44 19 48 -5 3 1 17 13 30 15 16 30 23 40
19 10 -4 25 1 36 11 11 10 20 24 20 31 0 7 10 19 23 25 12 6 34 23 49 36 16
16 24 31 21 41 -5 11 -2 14 10 9 8 -3 21 1 27 8 7 8 16 12 21 9 5 -3 9 -1 9 5
0 6 12 8 30 4 26 -5 35 0 64 31 19 20 40 36 46 36 6 0 13 6 16 14 3 8 13 12
26 8 13 -3 24 1 30 12 5 9 16 16 23 16 8 0 15 6 15 13 0 7 7 4 15 -7 8 -11 26
-20 40 -21z m-100 -501 c-2 -26 -6 -49 -9 -52 -4 -3 -6 0 -6 6 0 7 -7 12 -16
12 -13 0 -15 -7 -10 -32 4 -23 3 -28 -4 -18 -7 12 -12 12 -21 3 -7 -7 -13 -27
-13 -46 -1 -20 -12 -46 -27 -64 -14 -17 -40 -34 -57 -38 -24 -5 -32 -13 -37
-36 -7 -29 -8 -30 -26 -13 -18 16 -19 16 -19 -13 0 -26 -7 -34 -41 -52 -22
-12 -44 -19 -48 -16 -5 2 -17 -5 -27 -16 -10 -12 -32 -28 -47 -36 -16 -8 -35
-29 -42 -46 -8 -18 -14 -28 -15 -22 0 5 -13 -5 -30 -23 -16 -18 -34 -30 -40
-27 -5 3 -10 -3 -10 -14 0 -14 -6 -21 -20 -21 -11 0 -19 -5 -17 -12 1 -6 -10
-18 -26 -25 -15 -8 -45 -15 -68 -15 -22 0 -46 -7 -54 -14 -7 -8 -25 -14 -39
-14 -14 0 -28 -4 -31 -10 -3 -5 -15 -10 -26 -10 -11 0 -31 -11 -46 -24 -15
-14 -33 -22 -44 -19 -11 3 -28 -5 -44 -22 -14 -16 -25 -24 -25 -19 0 5 -5 1
-11 -9 -6 -9 -14 -15 -19 -12 -5 3 -19 0 -32 -7 -12 -7 -28 -19 -36 -25 -7 -7
-31 -13 -53 -13 -21 0 -39 -5 -39 -10 0 -6 -11 -8 -25 -4 -14 3 -25 2 -25 -3
0 -5 -10 -10 -22 -10 -13 -1 -28 -10 -35 -19 -6 -9 -16 -13 -22 -9 -6 3 -11 2
-11 -3 0 -6 -11 -13 -25 -16 -17 -4 -31 -1 -40 8 -12 12 -12 16 0 26 7 6 17
25 20 41 4 16 11 29 16 29 5 0 8 10 6 22 -1 15 5 26 21 33 12 5 22 15 22 21 0
6 7 17 16 25 10 8 14 23 12 40 -3 21 4 34 35 60 22 19 48 42 58 52 11 9 25 17
33 17 7 0 19 7 26 16 8 8 27 21 44 28 17 7 58 18 91 26 33 7 54 15 48 17 -7 3
-36 0 -64 -6 -29 -6 -54 -9 -56 -7 -3 2 8 18 23 35 15 17 35 31 45 31 10 0 26
11 35 25 9 14 23 25 31 25 7 0 24 7 36 15 13 8 50 16 84 17 33 2 59 6 57 9 -2
4 2 9 10 12 7 3 18 1 23 -4 6 -6 35 -4 81 6 40 9 73 22 76 31 3 8 19 14 36 14
16 0 30 4 30 10 0 5 11 12 25 16 19 5 24 11 20 24 -4 13 -1 18 9 16 8 -1 23
-10 34 -19 10 -9 23 -17 29 -17 6 0 19 12 29 26 10 14 37 34 59 44 23 10 53
22 69 26 15 3 30 13 33 20 3 8 11 14 19 14 8 0 14 4 14 9 0 5 8 12 18 15 9 3
26 21 36 40 10 19 26 37 35 39 9 3 26 5 38 6 20 1 21 -3 18 -45z m45 15 c0 -5
-4 -9 -10 -9 -5 0 -10 7 -10 16 0 8 5 12 10 9 6 -3 10 -10 10 -16z m1005 -159
c3 -5 1 -10 -4 -10 -6 0 -11 5 -11 10 0 6 2 10 4 10 3 0 8 -4 11 -10z m212
-132 c-3 -8 -6 -5 -6 6 -1 11 2 17 5 13 3 -3 4 -12 1 -19z m-5145 -23 c4 -5 8
-20 8 -32 0 -13 -4 -23 -9 -23 -5 0 -16 -3 -24 -6 -10 -3 -18 2 -22 15 -3 12
-4 29 0 40 3 10 13 18 23 17 9 0 20 -5 24 -11z m72 -47 c3 -15 2 -29 -4 -33
-5 -3 -18 3 -29 14 -17 17 -19 25 -10 48 8 23 12 24 23 12 8 -8 16 -26 20 -41z
m6296 -240 c0 -16 -3 -19 -11 -11 -6 6 -8 16 -5 22 4 6 9 11 12 11 2 0 4 -10
4 -22z m1040 -22 c0 -6 -9 -19 -20 -29 -11 -9 -22 -17 -25 -17 -3 0 -5 13 -5
28 0 15 5 33 12 40 8 8 15 9 25 1 7 -7 13 -17 13 -23z m-5130 -136 c0 -5 -2
-10 -4 -10 -3 0 -8 5 -11 10 -3 6 -1 10 4 10 6 0 11 -4 11 -10z m-20 -40 c0
-5 -5 -10 -11 -10 -5 0 -7 5 -4 10 3 6 8 10 11 10 2 0 4 -4 4 -10z m-47 -78
c-3 -12 -9 -22 -14 -22 -5 0 -9 -7 -9 -16 0 -8 -5 -12 -11 -9 -7 5 -5 15 6 31
8 13 12 24 8 24 -5 0 -1 4 7 10 8 5 15 8 17 7 1 -2 0 -13 -4 -25z m-1239 -467
c3 -9 18 -15 35 -15 16 0 58 -17 93 -37 35 -21 77 -46 93 -55 21 -11 31 -25
32 -45 1 -15 6 -29 12 -31 5 -2 4 -16 -3 -35 -6 -18 -17 -38 -23 -45 -7 -7
-13 -20 -13 -28 0 -8 -4 -12 -10 -9 -6 3 -10 -4 -10 -16 0 -12 -3 -20 -6 -16
-4 3 -28 -5 -55 -18 -27 -14 -57 -25 -68 -25 -11 0 -26 -3 -35 -6 -9 -3 -16
-12 -16 -20 0 -10 -10 -13 -31 -10 -17 1 -34 8 -39 15 -5 10 -11 9 -22 -3 -14
-13 -17 -12 -28 10 -7 13 -26 29 -42 36 -15 7 -28 16 -28 20 0 5 -8 8 -19 8
-10 0 -21 9 -24 21 -3 11 -19 25 -35 31 -16 6 -36 25 -45 42 -9 17 -19 42 -22
55 -5 16 -4 21 4 17 7 -5 12 2 13 16 1 13 2 31 3 40 0 9 21 35 47 57 28 25 56
41 71 41 14 0 28 3 30 8 3 4 34 8 70 10 50 2 66 -1 71 -13z m-494 -24 c0 -5
-5 -11 -11 -13 -9 -3 -9 -10 0 -26 7 -13 8 -22 2 -22 -5 0 -13 5 -16 11 -4 5
-4 21 -1 35 4 13 11 24 16 24 6 0 10 -4 10 -9z m1635 -199 c-2 -3 -12 11 -20
31 -8 20 -15 42 -14 49 0 7 9 -7 20 -31 11 -24 17 -46 14 -49z m5245 28 c0 -5
-2 -10 -4 -10 -3 0 -8 5 -11 10 -3 6 -1 10 4 10 6 0 11 -4 11 -10z m-5123
-142 c-3 -8 -6 -5 -6 6 -1 11 2 17 5 13 3 -3 4 -12 1 -19z m4 -51 c-10 -9 -11
-8 -5 6 3 10 9 15 12 12 3 -3 0 -11 -7 -18z"/>
<path d="M1172 6519 c2 -7 10 -15 17 -17 8 -3 12 1 9 9 -2 7 -10 15 -17 17 -8
3 -12 -1 -9 -9z"/>
<path d="M1157 6493 c-3 -5 -2 -15 2 -22 7 -10 10 -10 16 -1 4 6 3 16 -3 22
-5 5 -12 6 -15 1z"/>
<path d="M11650 5750 c0 -5 5 -10 11 -10 5 0 7 5 4 10 -3 6 -8 10 -11 10 -2 0
-4 -4 -4 -10z"/>
<path d="M15031 5444 c0 -11 3 -14 6 -6 3 7 2 16 -1 19 -3 4 -6 -2 -5 -13z"/>
<path d="M5801 5389 c-25 -5 -49 -13 -55 -19 -5 -5 -28 -10 -51 -10 -28 0 -67
-13 -120 -39 -43 -22 -82 -38 -86 -36 -3 3 -30 -4 -60 -14 -30 -11 -55 -26
-57 -35 -2 -8 -19 -20 -39 -25 -19 -6 -54 -30 -79 -55 -24 -25 -48 -46 -53
-46 -6 0 -35 -25 -66 -55 -30 -30 -60 -55 -65 -55 -5 0 -14 -8 -19 -19 -6 -10
-8 -21 -5 -24 3 -3 -5 -11 -18 -18 -12 -7 -26 -13 -30 -14 -4 0 -13 -7 -20
-17 -7 -9 -22 -18 -33 -20 -14 -2 -21 -12 -23 -36 -3 -29 -6 -32 -19 -21 -12
11 -17 10 -24 -4 -6 -9 -16 -17 -24 -17 -8 0 -20 -10 -27 -22 -6 -13 -11 -33
-9 -45 2 -17 -3 -23 -18 -23 -12 0 -21 -6 -21 -15 0 -8 -9 -24 -19 -34 -11
-11 -25 -38 -31 -61 -6 -23 -8 -49 -5 -59 3 -10 1 -30 -5 -45 -7 -20 -7 -25 1
-20 7 4 10 1 7 -7 -3 -8 -13 -13 -23 -12 -12 1 -26 -18 -47 -63 -16 -35 -31
-81 -32 -103 -1 -25 -11 -49 -29 -70 -15 -18 -27 -39 -27 -47 0 -8 -7 -17 -15
-20 -10 -4 -13 -13 -10 -25 5 -15 3 -17 -11 -12 -14 5 -16 0 -12 -48 3 -30 9
-62 13 -71 4 -11 3 -18 -3 -18 -6 0 -13 8 -15 18 -3 11 -5 9 -6 -8 0 -14 8
-43 19 -65 11 -22 18 -47 15 -56 -3 -9 1 -22 9 -28 9 -7 24 -10 36 -6 16 5 28
0 43 -16 13 -14 22 -18 25 -11 2 7 10 12 18 12 8 0 30 10 49 23 24 15 33 27
29 40 -3 11 0 17 9 17 9 0 19 19 26 53 7 28 16 70 22 92 6 22 10 50 10 63 -1
12 4 22 9 22 6 0 10 18 10 40 0 22 5 40 10 40 6 0 9 14 8 31 -2 24 3 36 20 47
12 8 22 23 22 33 0 11 5 19 10 19 6 0 10 7 10 15 0 9 12 34 27 58 16 23 34 48
40 55 7 7 14 30 14 50 1 20 3 44 4 52 1 8 3 21 4 28 0 6 13 12 27 12 21 0 24
3 19 21 -5 14 -3 19 3 15 6 -3 17 -3 26 0 11 4 16 18 16 42 0 19 3 32 6 29 4
-4 15 3 25 14 10 12 23 18 30 13 8 -4 9 -3 5 4 -4 7 -3 12 2 12 5 0 12 9 15
19 3 12 -1 22 -9 25 -8 3 -14 11 -14 17 0 7 10 9 27 6 15 -3 33 -3 40 0 8 3
28 26 45 52 18 25 38 52 45 59 7 7 13 18 13 23 0 5 13 9 30 9 16 0 41 5 55 12
14 6 25 14 25 18 0 4 16 11 36 14 19 4 37 13 40 21 3 8 12 11 19 8 8 -2 31 1
52 8 21 7 48 12 61 10 13 -1 34 5 47 13 13 9 33 16 43 16 10 0 23 5 29 11 7 7
21 4 47 -10 20 -12 46 -21 57 -21 11 0 38 -10 61 -22 22 -13 50 -28 61 -35 11
-6 22 -22 24 -34 2 -13 10 -30 18 -39 9 -10 15 -37 15 -69 0 -29 -8 -69 -17
-89 -9 -21 -25 -50 -36 -65 -10 -15 -20 -35 -21 -45 -2 -9 -9 -17 -17 -17 -9
0 -14 -11 -14 -30 0 -19 -12 -46 -31 -70 -17 -22 -34 -48 -37 -58 -4 -11 -15
-21 -25 -24 -10 -2 -22 -14 -27 -26 -6 -12 -27 -31 -47 -42 -31 -17 -41 -18
-57 -8 -16 10 -23 10 -36 -3 -10 -10 -32 -16 -56 -16 -23 1 -52 -3 -65 -8 -14
-6 -24 -18 -24 -30 0 -11 -7 -20 -15 -20 -9 0 -20 -12 -26 -27 -6 -16 -12 -53
-15 -83 -2 -30 0 -60 4 -65 4 -6 19 -18 35 -28 15 -10 38 -34 51 -55 14 -20
44 -58 68 -83 33 -36 56 -51 103 -65 33 -10 71 -28 85 -40 14 -12 30 -20 36
-17 6 2 19 -8 28 -21 10 -16 22 -23 31 -20 9 4 35 -6 58 -22 23 -16 57 -36 75
-46 18 -10 45 -19 60 -20 15 -1 35 -9 45 -17 16 -13 18 -13 15 -1 -2 11 4 14
21 12 14 -1 34 -10 44 -20 16 -14 39 -17 131 -17 61 0 123 -4 139 -9 15 -4 27
-13 27 -20 0 -8 2 -8 8 0 4 7 27 14 52 17 25 3 61 8 80 12 19 3 44 8 56 10 11
3 33 16 47 29 15 14 27 30 27 36 0 5 5 10 10 10 6 0 10 5 10 11 0 6 -9 13 -20
16 -11 3 -20 9 -20 13 0 5 -8 11 -19 15 -10 3 -30 1 -45 -5 -22 -8 -29 -6 -44
11 -9 11 -28 26 -42 32 -14 6 -44 12 -67 13 -24 2 -58 10 -75 17 -18 8 -62 23
-98 32 -36 9 -69 21 -75 25 -5 4 -22 10 -37 14 -16 3 -28 11 -28 16 0 6 -9 10
-19 10 -10 0 -41 19 -67 43 -27 23 -66 55 -86 70 -20 15 -41 27 -47 27 -6 0
-11 5 -11 10 0 6 -7 10 -16 10 -9 0 -12 5 -8 12 5 8 2 9 -9 5 -11 -4 -17 -1
-17 7 0 7 -9 21 -20 31 -11 10 -20 25 -20 34 0 9 8 21 19 28 10 6 21 27 25 46
5 29 12 36 47 46 22 7 42 20 45 29 3 9 11 27 17 40 6 12 15 22 20 22 5 0 23
15 39 33 16 17 37 48 48 67 10 19 28 42 39 50 12 8 21 22 21 32 0 10 5 18 10
18 6 0 10 7 10 16 0 9 10 30 22 47 12 18 26 35 30 38 5 3 10 19 12 35 2 16 4
32 5 35 0 3 10 16 21 29 11 13 21 35 21 49 1 14 3 40 5 57 1 18 7 41 13 51 7
14 6 31 -2 60 -7 21 -23 53 -37 69 -14 17 -33 33 -43 37 -9 3 -24 22 -33 41
-10 20 -33 42 -56 55 -22 11 -48 21 -58 21 -10 0 -20 6 -23 13 -3 7 -36 25
-73 40 -38 14 -89 31 -114 36 -25 6 -63 10 -85 10 -22 -1 -60 -5 -84 -10z"/>
<path d="M9220 5332 c0 -5 -25 -15 -55 -22 -30 -7 -55 -17 -55 -22 0 -4 -9 -8
-20 -8 -12 0 -20 -7 -20 -17 0 -9 -3 -13 -6 -10 -4 4 -25 -7 -47 -23 -23 -17
-46 -30 -53 -30 -6 0 -14 -7 -18 -15 -3 -9 -18 -15 -36 -15 -17 0 -53 -12 -80
-26 -27 -14 -54 -32 -61 -40 -6 -8 -20 -14 -30 -14 -11 0 -19 -6 -19 -13 0 -6
-19 -22 -42 -35 -24 -12 -48 -22 -55 -22 -6 0 -18 -9 -26 -20 -9 -13 -20 -18
-31 -14 -11 4 -27 -3 -46 -21 -16 -16 -27 -31 -25 -35 3 -5 -2 -11 -10 -14 -8
-3 -29 -3 -45 1 -23 4 -40 -1 -71 -23 -23 -15 -45 -38 -50 -51 -5 -13 -17 -23
-29 -23 -13 0 -22 -9 -26 -25 -3 -14 -11 -22 -16 -19 -6 4 -8 -1 -4 -14 6 -18
4 -20 -20 -16 -15 3 -37 -2 -52 -12 -14 -9 -37 -29 -51 -44 -14 -15 -42 -36
-61 -45 -19 -10 -45 -27 -57 -39 -13 -12 -23 -33 -23 -50 0 -16 -7 -37 -15
-46 -8 -9 -16 -25 -18 -37 -1 -11 -11 -28 -20 -37 -9 -10 -18 -32 -19 -49 -1
-18 -1 -45 0 -60 1 -16 -6 -42 -15 -58 -10 -16 -21 -29 -25 -29 -5 0 -5 -12
-2 -26 5 -19 4 -25 -5 -20 -7 5 -11 -1 -11 -16 0 -13 3 -33 6 -45 4 -13 10
-20 15 -17 5 3 11 -1 13 -8 2 -7 12 -38 21 -68 9 -30 25 -64 35 -75 10 -11 34
-47 52 -79 18 -32 42 -64 53 -70 11 -6 29 -20 40 -32 11 -11 39 -35 61 -52 23
-18 49 -32 58 -32 10 0 13 -6 10 -15 -4 -8 -2 -15 3 -15 5 0 13 4 19 9 5 6 32
2 69 -11 37 -12 72 -33 93 -54 18 -19 38 -34 45 -34 7 0 23 -9 37 -20 14 -11
32 -20 40 -20 8 0 28 -7 44 -15 16 -9 43 -16 60 -18 17 -1 34 -5 37 -10 3 -4
39 -7 80 -8 41 0 112 4 159 9 47 6 109 13 139 17 30 3 62 10 71 15 10 5 20 7
23 4 3 -3 14 -1 25 5 10 6 37 11 58 12 21 2 55 13 74 26 19 13 43 23 52 23 10
0 18 4 18 10 0 5 20 9 45 8 25 0 51 5 58 11 8 6 32 10 53 9 22 0 50 4 62 11
12 6 22 17 22 24 0 7 12 12 28 13 15 0 41 3 57 7 17 4 44 9 60 13 17 3 49 26
75 52 25 26 65 64 89 85 24 20 50 37 57 37 7 0 26 17 43 37 17 21 31 44 31 51
0 7 4 11 9 8 4 -3 18 3 30 13 11 10 21 22 21 27 0 5 9 17 20 27 11 9 20 23 20
31 0 8 7 16 15 20 8 3 15 18 15 33 0 17 -9 36 -21 46 -19 17 -24 17 -67 3 -25
-9 -54 -16 -64 -16 -10 0 -17 -3 -17 -7 1 -5 1 -14 0 -20 0 -8 -14 -13 -31
-13 -24 0 -35 -7 -48 -30 -9 -17 -26 -33 -37 -37 -11 -4 -31 -7 -45 -8 -14 -2
-35 -3 -48 -4 -13 0 -37 -14 -54 -31 -16 -16 -34 -30 -39 -30 -5 0 -9 -5 -9
-11 0 -6 -8 -9 -17 -7 -10 2 -36 -3 -59 -13 -28 -12 -46 -14 -58 -7 -9 5 -31
6 -49 3 -18 -4 -42 -14 -55 -22 -13 -8 -32 -11 -42 -8 -11 3 -37 1 -60 -6 -23
-7 -40 -18 -40 -27 0 -12 -11 -14 -57 -10 -38 3 -70 0 -92 -9 -31 -13 -40 -13
-98 6 -35 12 -72 21 -82 21 -10 0 -26 9 -36 20 -16 18 -19 18 -30 4 -8 -12
-18 -14 -36 -8 -13 4 -36 6 -51 5 -15 -1 -47 9 -72 24 -29 17 -53 24 -66 20
-14 -5 -20 -2 -20 9 0 9 -4 16 -9 16 -5 0 -7 -10 -4 -21 5 -19 4 -20 -16 -10
-12 7 -19 16 -16 22 4 5 -1 9 -9 9 -9 0 -16 5 -16 10 0 6 -17 10 -37 10 -21
-1 -45 0 -53 1 -8 0 -39 0 -69 -2 -42 -2 -55 1 -63 15 -6 11 -16 15 -29 11
-11 -4 -19 -2 -19 4 0 6 -5 11 -11 11 -5 0 -7 -4 -4 -10 3 -5 2 -10 -3 -10 -6
0 -23 15 -38 34 -16 19 -38 47 -49 63 -11 15 -28 43 -38 62 -16 30 -17 40 -7
80 7 25 23 62 35 81 12 19 25 51 29 72 5 25 3 38 -6 41 -7 2 0 10 17 17 17 7
37 15 45 19 8 4 24 31 35 60 17 45 23 51 43 46 12 -3 22 -1 22 5 0 5 10 9 23
7 17 -2 22 3 20 21 -2 12 1 22 6 22 5 0 11 9 14 20 3 11 10 20 16 20 6 0 11
-4 11 -9 0 -5 9 -7 20 -4 11 3 20 9 20 14 0 5 4 9 10 9 5 0 21 11 35 25 14 14
25 35 25 46 0 19 1 19 32 3 28 -15 32 -15 40 0 5 9 15 16 22 16 8 0 34 11 57
25 24 14 51 25 58 25 8 0 33 12 54 27 21 15 43 38 48 51 6 16 14 22 25 18 9
-3 26 -3 39 0 14 3 27 15 30 25 4 11 24 28 46 40 22 11 43 17 48 15 5 -3 23 1
40 10 17 8 35 23 41 32 5 9 10 13 10 7 0 -5 9 1 20 15 11 14 20 19 20 13 0 -7
6 -13 13 -13 7 0 23 9 35 20 11 11 27 17 34 15 8 -3 25 6 37 19 13 14 29 23
34 19 6 -4 8 0 4 10 -4 12 -1 17 9 17 12 0 15 6 11 20 -4 17 0 22 24 27 l30 6
-37 33 c-20 19 -43 34 -50 34 -8 0 -14 4 -14 9 0 5 -13 14 -29 21 -21 8 -35 9
-49 1 -14 -7 -23 -8 -27 -1 -3 5 -13 10 -21 10 -8 0 -14 -4 -14 -8z"/>
<path d="M16430 5110 c0 -5 5 -10 10 -10 6 0 10 5 10 10 0 6 -4 10 -10 10 -5
0 -10 -4 -10 -10z"/>
<path d="M1483 5054 c-3 -8 -1 -20 6 -27 8 -8 11 -4 9 16 -1 15 -4 27 -5 27
-2 0 -6 -7 -10 -16z"/>
<path d="M17750 4895 c-7 -9 -20 -14 -29 -12 -9 2 -36 -10 -60 -26 -25 -17
-56 -30 -72 -29 -16 0 -31 -4 -35 -9 -3 -6 -18 -15 -32 -21 -15 -6 -22 -12
-15 -15 8 -3 8 -11 -2 -30 -8 -14 -19 -29 -26 -34 -9 -5 -13 -39 -14 -109 0
-59 4 -104 10 -108 5 -4 25 -8 44 -9 19 -1 59 7 89 17 31 11 65 28 76 39 12
10 31 22 44 26 12 3 22 12 22 18 0 7 14 20 30 29 17 9 30 22 30 28 0 5 -4 10
-10 10 -5 0 -10 6 -10 14 0 8 14 17 30 21 26 6 30 11 30 38 0 18 4 28 8 22 4
-5 17 -11 29 -12 13 -2 41 7 63 18 22 12 41 26 41 33 1 6 0 18 -1 26 -1 8 -11
27 -21 42 l-20 27 -25 -22 c-17 -15 -35 -21 -57 -18 -18 1 -39 9 -47 16 -8 7
-25 16 -38 20 -12 3 -20 11 -17 16 4 5 4 9 2 9 -3 0 -10 -7 -17 -15z"/>
<path d="M4055 4670 c3 -5 8 -10 11 -10 2 0 4 5 4 10 0 6 -5 10 -11 10 -5 0
-7 -4 -4 -10z"/>
<path d="M22861 4296 c-7 -9 -20 -16 -27 -16 -8 0 -14 -4 -14 -10 0 -5 -10 -9
-22 -7 -15 1 -23 -3 -23 -13 0 -8 6 -14 13 -12 6 1 12 0 12 -3 0 -3 -8 -14
-17 -25 -10 -11 -24 -20 -31 -20 -10 0 -12 -7 -7 -27 3 -15 21 -45 38 -67 17
-23 34 -43 37 -46 3 -3 10 -14 16 -25 6 -11 23 -26 38 -33 23 -12 33 -11 67 2
22 9 49 16 62 16 12 0 28 4 36 9 12 8 12 12 2 25 -11 13 -9 20 8 45 12 16 21
34 21 40 0 6 -14 14 -31 18 -17 3 -33 12 -36 20 -3 8 4 24 15 36 14 14 19 30
16 43 -3 12 -22 28 -43 37 -21 10 -42 17 -48 17 -6 0 -16 -7 -23 -15 -7 -8
-16 -15 -20 -15 -4 0 -11 9 -16 21 -9 19 -11 20 -23 5z m36 -71 c0 -8 -4 -15
-9 -15 -4 0 -8 7 -8 15 0 8 4 15 8 15 5 0 9 -7 9 -15z"/>
<path d="M2237 4213 c-4 -3 -7 -11 -7 -17 0 -6 5 -5 12 2 6 6 9 14 7 17 -3 3
-9 2 -12 -2z"/>
<path d="M4440 3966 c0 -8 5 -18 10 -21 6 -3 10 3 10 14 0 12 -4 21 -10 21 -5
0 -10 -6 -10 -14z"/>
<path d="M14960 3909 c0 -5 5 -7 10 -4 6 3 10 8 10 11 0 2 -4 4 -10 4 -5 0
-10 -5 -10 -11z"/>
<path d="M5810 3870 c0 -5 5 -10 10 -10 6 0 10 5 10 10 0 6 -4 10 -10 10 -5 0
-10 -4 -10 -10z"/>
<path d="M1240 3850 c8 -5 19 -10 23 -10 5 0 5 5 2 10 -3 6 -14 10 -23 10 -15
0 -15 -2 -2 -10z"/>
<path d="M6418 3683 c7 -3 16 -2 19 1 4 3 -2 6 -13 5 -11 0 -14 -3 -6 -6z"/>
<path d="M1180 3051 c0 -5 5 -13 10 -16 6 -3 10 -2 10 4 0 5 -4 13 -10 16 -5
3 -10 2 -10 -4z"/>
<path d="M8157 2803 c-4 -3 -7 -11 -7 -17 0 -6 5 -5 12 2 6 6 9 14 7 17 -3 3
-9 2 -12 -2z"/>
<path d="M5340 2752 c-8 -9 -21 -28 -29 -42 -7 -14 -21 -38 -29 -54 -8 -17
-15 -42 -15 -58 0 -15 8 -37 17 -47 10 -11 15 -25 11 -30 -3 -6 1 -11 9 -11 9
0 16 -9 16 -20 0 -11 9 -28 21 -38 11 -9 32 -36 46 -59 14 -24 29 -43 34 -43
4 0 26 -19 49 -42 22 -23 40 -50 40 -59 0 -10 15 -27 34 -38 18 -12 47 -24 65
-27 19 -4 31 -2 31 4 0 5 8 8 19 5 10 -2 25 2 32 10 7 8 21 12 31 9 12 -3 18
1 18 12 0 10 4 15 8 12 5 -3 3 16 -4 42 -6 26 -17 59 -22 73 -6 15 -9 29 -6
31 2 3 -3 25 -11 49 -9 24 -32 78 -53 119 -20 41 -38 77 -40 80 -2 2 -7 -2
-12 -10 -7 -12 -14 -12 -27 -4 -10 6 -31 29 -48 51 -16 22 -38 54 -47 72 -14
26 -23 31 -52 31 -19 0 -38 -4 -41 -10 -3 -5 -11 -10 -16 -10 -6 0 -7 5 -4 10
3 6 3 10 -2 10 -4 -1 -15 -8 -23 -18z"/>
<path d="M2006 2665 c-10 -7 -15 -18 -12 -23 3 -5 -7 -12 -22 -15 -25 -5 -28
-10 -30 -55 -1 -36 3 -53 16 -65 9 -8 40 -25 67 -37 28 -12 72 -24 98 -27 26
-3 49 -9 52 -12 2 -4 35 -2 74 3 52 7 72 14 76 27 4 10 13 15 23 12 9 -2 27 5
40 17 12 11 22 27 22 35 0 7 -7 20 -15 28 -8 9 -24 13 -36 10 -12 -4 -32 3
-50 16 -17 12 -44 23 -60 23 -17 1 -33 7 -36 14 -2 7 -22 15 -44 19 -21 4 -39
10 -39 15 0 4 -14 13 -31 19 -18 6 -41 11 -53 11 -12 0 -29 -7 -40 -15z"/>
<path d="M8206 2619 c-8 -12 -20 -19 -28 -17 -7 3 -17 -3 -23 -13 -5 -9 -20
-31 -33 -48 l-23 -30 45 -46 c35 -37 49 -45 68 -40 16 4 33 -1 50 -15 15 -11
59 -34 100 -50 40 -16 86 -30 101 -30 17 0 26 -4 22 -10 -4 -7 2 -9 18 -5 14
4 28 2 31 -4 4 -6 22 -11 39 -11 18 0 42 -7 54 -15 12 -9 37 -15 56 -13 18 1
38 -1 44 -5 6 -4 31 0 57 9 34 12 46 21 46 36 0 10 5 16 10 13 6 -3 10 -1 10
5 0 6 -12 24 -28 38 -15 15 -43 35 -62 44 -19 10 -48 20 -63 24 -16 4 -31 13
-34 21 -3 7 -24 23 -47 35 -22 11 -57 34 -77 49 -20 16 -39 29 -42 29 -4 0
-23 12 -44 26 -29 20 -47 25 -74 21 -20 -3 -43 1 -52 8 -10 7 -37 13 -62 13
-34 1 -48 -3 -59 -19z"/>
<path d="M1040 2300 c0 -5 5 -10 10 -10 6 0 10 5 10 10 0 6 -4 10 -10 10 -5 0
-10 -4 -10 -10z"/>
<path d="M141 2244 c0 -11 3 -14 6 -6 3 7 2 16 -1 19 -3 4 -6 -2 -5 -13z"/>
<path d="M11487 1259 c-11 -6 -40 -12 -65 -14 -26 -1 -59 -6 -75 -10 -16 -4
-33 -3 -40 3 -7 6 -23 12 -37 13 -14 1 -36 1 -49 1 -16 -2 -21 -7 -18 -17 5
-11 1 -12 -19 -5 -14 6 -40 8 -57 6 -18 -2 -43 -8 -57 -13 -14 -6 -47 -9 -75
-8 -31 1 -49 6 -47 14 1 6 -4 11 -11 11 -7 0 -18 -5 -25 -12 -9 -9 -17 -8 -37
2 -20 11 -34 11 -72 1 -27 -7 -78 -13 -114 -15 -37 -2 -72 -6 -78 -10 -6 -4
-11 -5 -11 -2 0 3 -12 -1 -26 -8 -19 -11 -32 -11 -54 -3 -22 8 -35 8 -57 -3
-15 -7 -33 -13 -39 -12 -7 1 -15 -5 -18 -14 -6 -16 -8 -15 -21 2 -10 13 -14
14 -15 5 0 -7 -6 -11 -14 -8 -8 3 -39 1 -68 -4 -29 -6 -61 -11 -70 -12 -10 -1
-18 -5 -18 -9 0 -4 -8 -8 -18 -8 -10 0 -24 -6 -30 -12 -10 -10 -17 -10 -32 0
-13 8 -21 8 -25 1 -4 -5 -16 -7 -26 -4 -11 4 -26 2 -33 -4 -9 -7 -24 -7 -51 0
-29 8 -40 8 -43 0 -2 -6 -14 -11 -26 -11 -12 0 -27 -5 -32 -10 -6 -6 -27 -12
-47 -13 -20 -2 -39 -6 -43 -9 -3 -4 -14 -2 -24 4 -14 9 -24 8 -44 -5 -14 -10
-26 -13 -26 -7 0 5 -6 10 -14 10 -8 0 -21 -7 -29 -15 -8 -8 -17 -11 -20 -8 -4
3 -30 7 -59 8 -29 1 -61 -2 -70 -7 -10 -5 -18 -16 -18 -25 0 -14 -3 -14 -26 2
-17 11 -35 14 -54 10 -16 -3 -38 -14 -49 -24 -12 -10 -21 -23 -21 -30 0 -6 -7
-11 -15 -11 -9 0 -28 -6 -43 -13 -24 -13 -30 -12 -59 8 -18 12 -29 26 -25 31
4 5 -1 2 -11 -5 -16 -13 -19 -12 -24 8 -4 14 -8 18 -13 11 -4 -6 -26 -11 -48
-12 -23 0 -47 -7 -53 -14 -6 -8 -17 -14 -25 -14 -7 0 -16 -9 -19 -20 -3 -11
-12 -20 -18 -20 -7 1 -23 7 -36 14 -22 12 -27 11 -42 -8 -17 -20 -18 -21 -51
-3 -28 15 -42 16 -93 7 -33 -6 -87 -15 -120 -21 -33 -6 -64 -14 -69 -19 -5 -5
-18 -5 -30 -1 -11 5 -47 5 -80 1 -38 -4 -63 -12 -71 -23 -9 -13 -26 -17 -66
-16 -30 0 -66 5 -82 11 -18 7 -31 7 -40 0 -6 -5 -39 -13 -72 -17 -33 -4 -68
-14 -77 -22 -9 -8 -27 -14 -40 -14 -13 1 -46 3 -75 4 -28 1 -55 5 -59 9 -4 5
-13 8 -21 8 -7 0 -13 -10 -13 -22 -1 -21 -2 -22 -14 -5 -7 9 -20 17 -29 17 -9
0 -19 -4 -22 -10 -3 -5 -24 -10 -45 -10 -21 0 -40 -5 -42 -11 -3 -9 -13 -9
-40 0 -20 6 -58 10 -86 7 -28 -3 -60 -11 -71 -18 -12 -7 -21 -18 -21 -25 0 -7
-4 -13 -9 -13 -5 0 -16 6 -23 13 -7 7 -29 12 -48 11 -19 -1 -64 -10 -99 -19
-53 -14 -78 -15 -150 -7 -47 6 -90 7 -96 4 -5 -3 -30 -8 -55 -10 -25 -2 -70
-10 -101 -18 -31 -8 -75 -14 -97 -14 -22 0 -42 -5 -44 -12 -3 -7 -9 -8 -18 -3
-8 5 -31 8 -50 6 -19 -2 -38 -8 -42 -14 -5 -9 -10 -9 -20 1 -6 6 -18 12 -26
12 -7 0 -20 -6 -27 -14 -11 -10 -24 -12 -52 -6 -21 5 -40 5 -43 1 -3 -4 -16
-7 -30 -7 -14 1 -30 4 -36 9 -7 4 -14 1 -17 -7 -3 -7 -18 -16 -34 -19 -15 -3
-30 -1 -33 3 -3 4 -27 3 -54 -4 -45 -12 -48 -14 -30 -25 19 -12 19 -12 -1 -6
-11 4 -40 9 -65 10 -28 3 -54 -2 -67 -11 -12 -8 -25 -14 -28 -14 -4 0 -3 6 1
12 5 8 1 8 -10 -1 -10 -9 -20 -11 -24 -5 -4 5 -32 9 -62 9 -30 0 -60 -4 -67
-8 -7 -4 -54 -9 -105 -11 -51 -2 -107 -7 -124 -11 -19 -4 -40 -2 -54 5 -18 9
-25 9 -40 -5 -11 -10 -26 -15 -34 -12 -10 4 -20 -2 -28 -16 -6 -12 -11 -23
-10 -24 1 -2 -1 -4 -5 -5 -5 -2 -12 7 -18 19 -8 20 -16 22 -87 20 -43 -1 -78
-4 -78 -7 0 -3 -16 -6 -35 -7 -19 -1 -42 -3 -50 -4 -8 -1 -17 -9 -20 -17 -3
-8 -11 -12 -18 -9 -8 3 -20 1 -28 -5 -11 -8 -11 -9 3 -5 9 3 19 -1 22 -9 4
-11 0 -13 -22 -8 -15 4 -43 12 -62 19 -22 8 -49 9 -79 3 -25 -4 -53 -6 -63 -2
-11 3 -18 0 -18 -7 0 -7 12 -24 28 -37 l27 -23 -30 17 c-16 10 -38 24 -47 32
-11 9 -42 14 -88 15 -39 0 -76 -5 -82 -11 -8 -8 -17 -8 -30 -1 -11 6 -36 8
-56 4 -20 -3 -55 -8 -76 -10 -22 -3 -45 -10 -52 -16 -8 -6 -31 -9 -52 -6 -22
2 -44 7 -50 11 -6 3 -13 2 -16 -3 -4 -5 -20 -8 -36 -6 -19 3 -33 -1 -38 -12
-8 -13 -11 -13 -23 -1 -11 13 -21 13 -65 1 -29 -7 -117 -14 -198 -16 -116 -2
-147 1 -151 12 -4 10 -10 7 -25 -12 -11 -13 -31 -27 -45 -29 -14 -3 -28 -1
-31 3 -3 5 -12 9 -20 9 -8 0 -12 -4 -9 -10 4 -7 -3 -7 -20 0 -15 6 -31 8 -36
4 -5 -3 -28 -7 -51 -9 -23 -1 -55 1 -70 6 -19 5 -40 3 -61 -6 -17 -7 -45 -11
-62 -8 -16 2 -38 5 -47 6 -10 1 -18 4 -18 7 0 3 -37 2 -82 -2 -46 -5 -119 -7
-163 -5 -44 3 -88 8 -99 12 -11 5 -21 3 -26 -5 -7 -11 -16 -10 -48 5 -22 11
-38 24 -35 28 3 5 -3 5 -13 -1 -11 -5 -42 -8 -70 -7 -28 2 -61 8 -73 15 -14 7
-27 8 -34 2 -7 -5 -26 -7 -44 -5 -24 4 -30 9 -27 22 5 13 4 13 -6 -1 -6 -10
-18 -18 -26 -18 -8 0 -24 6 -35 12 -17 10 -23 10 -26 1 -3 -8 -14 -11 -28 -7
-12 3 -26 0 -30 -6 -5 -8 -12 -7 -24 4 -9 8 -28 19 -43 25 -18 7 -29 7 -33 0
-4 -5 -11 -6 -17 -3 -6 4 -13 2 -17 -3 -3 -6 -17 -14 -30 -18 -15 -4 -21 -3
-17 3 3 5 -8 12 -25 16 -17 3 -47 13 -66 23 -33 15 -36 15 -48 0 -7 -9 -20
-17 -29 -17 -9 0 -25 9 -36 20 -13 13 -33 20 -58 20 -21 0 -42 3 -46 8 -4 4
-24 8 -44 9 -20 1 -55 4 -77 6 -21 3 -41 10 -43 16 -2 6 -16 11 -30 11 -15 0
-36 7 -46 15 -11 8 -32 15 -48 15 -15 0 -42 8 -60 18 -18 10 -43 18 -56 17
-12 -1 -22 2 -22 7 0 4 -5 8 -11 8 -6 0 -25 11 -43 25 -18 14 -40 25 -49 25
-9 0 -19 5 -22 11 -4 6 -13 8 -20 5 -7 -2 -37 2 -67 10 -29 7 -58 14 -64 14
-5 0 -20 -9 -33 -21 -15 -15 -20 -27 -15 -42 4 -12 11 -25 15 -28 5 -3 10 -18
11 -33 2 -16 16 -43 32 -60 16 -17 34 -30 41 -28 8 1 16 -13 19 -34 5 -24 12
-34 20 -31 8 3 18 -5 25 -19 6 -14 15 -22 21 -19 5 3 20 -1 34 -10 13 -9 26
-24 29 -34 3 -11 18 -22 36 -26 17 -4 31 -11 31 -16 0 -5 10 -9 23 -9 12 0 35
-9 52 -20 16 -11 49 -22 72 -26 24 -3 43 -11 43 -16 0 -5 6 -8 13 -5 6 2 28
-2 47 -10 19 -8 64 -16 100 -17 36 -1 70 -4 75 -7 6 -3 39 -12 75 -18 36 -7
82 -19 103 -27 21 -8 54 -14 72 -12 18 1 40 -4 49 -11 8 -7 52 -14 103 -17 48
-2 94 -4 101 -4 6 1 22 1 35 2 12 0 55 -2 96 -6 41 -3 90 -10 110 -16 20 -5
61 -7 91 -4 29 3 58 8 63 11 5 3 13 0 17 -7 6 -10 58 -14 202 -17 106 -2 231
-4 278 -4 47 0 128 2 180 5 52 2 161 6 242 8 115 2 144 6 136 15 -8 10 -4 11
19 3 22 -8 44 -7 86 4 32 8 62 18 68 21 5 4 16 2 23 -4 7 -6 35 -11 62 -11 27
0 56 -1 64 -1 8 0 55 2 104 5 48 3 95 11 103 17 7 7 46 14 86 16 40 2 90 4
112 5 22 0 67 0 100 0 33 -1 94 1 135 3 41 3 120 7 175 9 55 2 136 5 180 6 48
1 89 7 101 15 17 11 31 12 58 4 31 -8 40 -7 61 9 16 13 34 18 47 14 14 -3 19
-1 14 6 -4 7 -3 12 2 12 5 0 20 -9 34 -19 14 -11 33 -20 44 -20 10 -1 36 -1
57 -1 20 0 46 4 58 10 11 6 68 13 127 16 59 2 135 6 169 8 34 2 78 9 98 16 20
6 44 8 53 4 9 -4 22 -6 27 -5 6 2 24 4 40 6 17 2 87 4 158 5 70 1 127 7 127
12 0 5 39 8 88 6 48 -1 94 2 101 7 8 4 53 10 100 12 47 2 99 3 116 3 16 0 33
-6 37 -13 6 -9 8 -9 8 2 0 7 6 11 14 8 8 -3 20 1 27 9 6 8 25 13 42 12 17 -1
32 3 35 10 2 6 14 12 26 12 12 0 28 6 35 13 10 10 15 9 25 -5 6 -9 28 -19 46
-22 22 -4 41 -1 51 6 8 7 18 21 22 30 4 12 15 16 39 13 18 -1 40 -6 49 -10 10
-3 20 -1 24 4 3 6 11 9 16 5 5 -3 7 -9 4 -14 -3 -5 5 -12 17 -15 13 -3 36 -1
51 4 15 6 27 15 27 21 0 6 14 4 37 -5 31 -13 39 -13 57 -2 15 10 30 11 51 5
24 -6 33 -4 45 10 12 15 21 17 40 10 16 -6 40 -5 67 2 23 7 46 9 52 6 6 -4 30
-1 53 5 24 7 47 16 52 20 5 5 18 3 28 -2 11 -6 32 -7 49 -4 16 4 29 10 29 15
0 4 11 10 25 12 14 3 25 2 25 -1 0 -3 17 -7 37 -8 20 -1 45 3 56 8 10 6 27 18
38 27 10 9 19 22 19 30 0 10 5 10 20 2 20 -11 19 -12 -15 -48 -19 -20 -35 -40
-35 -44 0 -5 3 -8 6 -8 4 0 22 18 41 40 20 22 44 40 54 40 10 0 23 9 29 20 10
19 11 19 42 0 24 -14 43 -18 82 -14 28 3 61 11 73 19 16 11 29 12 54 5 19 -6
43 -7 54 -3 11 4 30 6 43 4 13 -1 29 3 37 9 8 6 23 9 33 6 11 -4 24 -1 30 6 7
9 31 13 64 12 29 -1 58 2 65 8 7 5 17 7 22 3 6 -3 21 0 33 7 13 7 28 11 33 9
6 -2 30 -3 55 -3 25 -1 61 6 80 14 19 8 60 15 90 16 30 1 56 6 58 11 1 4 26 4
54 0 28 -5 56 -6 61 -2 5 3 77 9 158 13 82 4 154 12 162 18 7 6 28 11 47 12
19 0 82 2 140 4 61 2 110 0 118 -6 8 -7 12 -7 12 1 0 7 9 22 20 34 14 15 35
22 67 24 26 2 49 -1 52 -6 4 -5 69 -10 146 -11 77 -2 155 -2 172 -1 18 2 35 7
38 12 4 5 14 5 26 -2 13 -7 35 -7 62 -1 23 5 70 7 103 4 54 -4 62 -7 72 -31 8
-19 10 -21 9 -6 -1 11 2 26 6 33 5 6 12 12 18 12 5 0 9 -7 9 -15 0 -11 7 -14
24 -9 13 3 40 1 60 -4 20 -6 38 -7 41 -2 3 4 19 10 35 12 17 3 33 2 35 -2 2
-3 29 -3 61 0 49 6 57 4 62 -12 2 -10 9 -15 14 -12 5 3 7 12 4 20 -3 8 -1 14
4 14 5 0 12 -5 16 -11 4 -7 25 -9 61 -4 31 4 53 3 50 -2 -3 -4 27 -9 66 -11
40 -1 86 -3 102 -4 17 0 33 -6 37 -11 3 -6 26 -10 50 -9 24 1 66 -5 93 -12 31
-8 59 -10 72 -5 13 5 25 4 28 -1 4 -6 20 -10 36 -10 16 0 32 -6 34 -12 4 -9
33 -13 92 -14 56 0 88 -4 91 -12 2 -7 16 -9 35 -6 18 3 42 10 54 16 12 6 40 8
62 5 35 -4 41 -2 41 13 0 18 2 18 35 4 19 -7 48 -14 66 -14 22 0 37 -8 51 -26
15 -19 27 -24 43 -20 16 4 25 1 29 -10 5 -13 9 -14 20 -5 11 9 18 8 31 -5 14
-15 21 -15 56 -4 22 7 46 13 55 13 9 0 20 12 25 25 7 17 6 29 -1 36 -8 8 -12
4 -16 -12 -4 -12 -10 -22 -15 -22 -5 0 -9 6 -9 14 0 8 3 21 6 30 3 9 10 13 15
10 5 -3 12 2 15 10 3 9 -1 23 -10 31 -9 9 -32 19 -51 22 -30 5 -35 9 -35 33 0
15 -7 33 -15 40 -8 7 -15 19 -15 26 0 8 -7 14 -15 14 -8 0 -15 6 -15 14 0 7
-9 35 -19 62 -10 27 -24 63 -31 81 -7 17 -27 42 -44 54 -18 12 -43 37 -55 54
-12 18 -19 39 -16 47 4 9 -9 21 -39 37 -25 12 -48 26 -51 32 -4 5 -21 9 -38 9
-18 0 -39 -4 -47 -9 -8 -6 -18 -7 -24 -4 -5 4 -44 8 -85 11 -42 2 -95 4 -118
4 -24 -1 -43 4 -43 10 0 6 -11 8 -27 4 -16 -4 -36 -9 -45 -12 -14 -4 -16 -1
-11 13 5 15 4 16 -8 6 -8 -6 -30 -9 -49 -7 -19 2 -49 9 -67 15 -17 5 -47 8
-65 4 -18 -3 -66 -7 -105 -9 -40 -2 -73 0 -73 5 0 5 -6 9 -12 9 -7 0 -21 -5
-31 -11z m814 -279 c25 -22 29 -33 26 -64 -2 -21 -10 -42 -18 -47 -8 -5 -18
-9 -23 -9 -4 0 -6 7 -2 15 3 8 1 15 -4 15 -6 0 -10 -11 -10 -24 0 -13 -6 -26
-12 -29 -7 -2 -22 0 -33 6 -11 5 -32 21 -47 35 -16 14 -28 35 -28 47 0 11 12
37 26 58 14 21 31 36 37 34 6 -2 20 6 31 17 l21 21 3 -24 c2 -13 17 -36 33
-51z m-3041 -64 c0 -3 -4 -8 -10 -11 -5 -3 -10 -1 -10 4 0 6 5 11 10 11 6 0
10 -2 10 -4z m-117 -136 c-3 -11 -9 -20 -14 -20 -4 0 -11 5 -14 10 -3 6 -3 15
0 20 3 6 12 10 20 10 8 0 11 -7 8 -20z m-2197 -157 c-3 -4 -9 -4 -12 0 -3 3
-2 11 2 18 6 11 8 11 12 0 2 -7 1 -15 -2 -18z m-26 -7 c0 -3 -4 -8 -10 -11 -5
-3 -10 -1 -10 4 0 6 5 11 10 11 6 0 10 -2 10 -4z m-5070 -155 c0 -5 -9 -11
-21 -14 -12 -3 -19 -9 -16 -14 3 -5 -3 -9 -13 -9 -15 0 -17 3 -7 14 6 8 20 18
32 22 11 5 21 9 23 9 1 1 2 -3 2 -8z m2180 -102 c0 -5 5 -7 10 -4 6 3 14 3 20
0 6 -4 5 -11 -3 -19 -6 -8 -15 -12 -19 -9 -5 2 -21 -4 -38 -13 -16 -10 -32
-15 -36 -11 -4 3 -1 14 6 23 11 13 11 17 0 24 -10 6 -7 9 11 13 13 2 30 5 37
6 6 0 12 -4 12 -10z m325 -39 c3 -5 1 -10 -4 -10 -6 0 -11 5 -11 10 0 6 2 10
4 10 3 0 8 -4 11 -10z m-955 -102 c13 -10 21 -21 17 -25 -4 -3 -13 -1 -19 5
-7 7 -24 12 -39 12 -22 0 -26 4 -22 19 3 14 10 18 22 13 9 -4 27 -15 41 -24z
m56 -3 c-3 -9 -10 -14 -15 -11 -5 3 -7 15 -4 27 4 13 9 17 16 10 5 -5 7 -17 3
-26z m654 -35 c0 -5 -5 -10 -11 -10 -5 0 -7 5 -4 10 3 6 8 10 11 10 2 0 4 -4
4 -10z"/>
<path d="M12300 950 c0 -5 5 -10 10 -10 6 0 10 5 10 10 0 6 -4 10 -10 10 -5 0
-10 -4 -10 -10z"/>
<path d="M12281 924 c0 -11 3 -14 6 -6 3 7 2 16 -1 19 -3 4 -6 -2 -5 -13z"/>
<path d="M10900 700 c0 -5 5 -10 11 -10 5 0 7 5 4 10 -3 6 -8 10 -11 10 -2 0
-4 -4 -4 -10z"/>
<path d="M10200 685 c0 -8 7 -15 15 -15 9 0 12 6 9 15 -4 8 -10 15 -15 15 -5
0 -9 -7 -9 -15z"/>
<path d="M7010 275 c-7 -8 -8 -15 -2 -15 5 0 15 7 22 15 7 8 8 15 2 15 -5 0
-15 -7 -22 -15z"/>
<path d="M4395 70 c-3 -5 -1 -10 4 -10 6 0 11 5 11 10 0 6 -2 10 -4 10 -3 0
-8 -4 -11 -10z"/>
</g>
</svg>
