<?xml version="1.0" encoding="UTF-8"?>
<!-- Created with Inkscape (http://www.inkscape.org/) -->
<svg version="1.0" viewBox="0 0 157.37 235.48" xmlns="http://www.w3.org/2000/svg">
  <g transform="matrix(.8445 0 0 .8445 11.919 17.077)">
    <path d="m70.63 57.876s0-11.747-3.263-15.662 8.1575 1.3052 8.1575 1.3052l10.442-15.01s-4.2419 125.63-2.2841 140.31c1.9578 14.684 20.231 16.968 26.43 16.641 6.1997-0.3263 0.6526 1.9578 0.6526 1.9578s-11.545 9.0853-28.388 0.3263c-2.1071-1.0958-0.9788 0.30167-1.9685 1.757-1.3781 2.0264-2.7133 4.7577-3.5786 9.6636-1.1349 6.4349-11.747 34.262-28.715 28.388-16.968-5.8734-2.2841-15.662 0.97891-13.705 3.263 1.9578 7.8312 2.6104 6.8523 8.8102-0.9789 6.1997 13.378-10.768 13.378-40.461 0-29.693 1.3052-124.32 1.3052-124.32z" style="fill-rule:evenodd;fill:#000000;stroke-width:1.1605px;stroke:#000000"/>
    <circle transform="matrix(1.1605 0 0 1.1605 -12.903 -6.7314)" cx="103.05" cy="39.504" r="2.6711" style="fill:#000000;stroke-linecap:square;stroke-linejoin:bevel;stroke-width:.815;stroke:#000000"/>
    <circle transform="matrix(1.1605 0 0 1.1605 -7.5192 -1.3474)" cx="103.05" cy="39.504" r="2.6711" style="fill:#000000;stroke-linecap:square;stroke-linejoin:bevel;stroke-width:.815;stroke:#000000"/>
    <circle transform="matrix(1.1605 0 0 1.1605 -18.369 -1.7553)" cx="103.05" cy="39.504" r="2.6711" style="fill:#000000;stroke-linecap:square;stroke-linejoin:bevel;stroke-width:.815;stroke:#000000"/>
    <circle transform="matrix(1.1605 0 0 1.1605 -12.985 3.6287)" cx="103.05" cy="39.504" r="2.6711" style="fill:#000000;stroke-linecap:square;stroke-linejoin:bevel;stroke-width:.815;stroke:#000000"/>
    <circle transform="matrix(1.1605 0 0 1.1605 -74.697 126.6)" cx="103.05" cy="39.504" r="2.6711" style="fill:#000000;stroke-linecap:square;stroke-linejoin:bevel;stroke-width:.815;stroke:#000000"/>
    <circle transform="matrix(1.1605 0 0 1.1605 -69.313 131.99)" cx="103.05" cy="39.504" r="2.6711" style="fill:#000000;stroke-linecap:square;stroke-linejoin:bevel;stroke-width:.815;stroke:#000000"/>
    <circle transform="matrix(1.1605 0 0 1.1605 -80.162 131.58)" cx="103.05" cy="39.504" r="2.6711" style="fill:#000000;stroke-linecap:square;stroke-linejoin:bevel;stroke-width:.815;stroke:#000000"/>
    <circle transform="matrix(1.1605 0 0 1.1605 -74.778 136.96)" cx="103.05" cy="39.504" r="2.6711" style="fill:#000000;stroke-linecap:square;stroke-linejoin:bevel;stroke-width:.815;stroke:#000000"/>
    <path d="m85.314 56.897s42.526 3.5926 46.661-2.6104c3.9156-5.8734 3.6499 17.496 26.43 30.346 12.726 7.1786-23.235-8.4863-30.02-16.968-3.9156-4.8945-45.356-4.5682-45.356-4.5682l-2.9367-5.8734z" style="fill-rule:evenodd;fill:#000000;stroke-width:1.1605px;stroke:#000000"/>
    <path d="m70.677 56.61s-41.547 1.6348-45.682-4.5682c-3.9156-5.8734 2.5498 8.6854-20.231 21.536-12.726 7.1786 17.688-0.0025 24.473-8.4838 3.9156-4.8945 43.724-2.2841 43.724-2.2841l2.9367-5.8734z" style="fill-rule:evenodd;fill:#000000;stroke-width:1.1605px;stroke:#000000"/>
    <path d="m75.198 33.077s6.1997-13.705 10.115-14.357c3.9156-0.6526 7.064-10.262 6.526-10.768-0.75186-0.7067-6.8523 10.442-13.378 9.7891s-11.094 8.8101-3.263 15.336z" style="fill-rule:evenodd;fill:#000000;stroke-width:1.1605px;stroke:#000000"/>
    <path d="m84.987 69.297s37.198-1.9578 34.914 23.167c-2.2841 25.125-25.924 21.703-33.283 20.231-0.27257-0.0545 0.79968-0.35668 2.5779 1.6241 11.348 12.641 41.562 39.403 56.483 40.469 4.5682 0.32631-0.32629 1.3052-0.32629 1.3052s-12.899 4.0395-28.123-5.0181c-5.5781-3.3187-10.076-10.198-15.518-16.559-30.835-36.038-13.859-10.651-17.377-19.863-17.947-46.987 0.9789-7.1786 0.9789-7.1786s24.272 8.8521 23.494-15.662c-0.65261-20.231-14.684-17.294-21.536-17.294-6.8523 0-0.9789-4.8945-2.2841-5.2208z" style="fill-rule:evenodd;fill:#000000;stroke-width:1.1605px;stroke:#000000"/>
    <path d="m71.003 67.887s-39.156-1.9578-36.872 23.167c2.2841 25.125 27.881 21.703 35.241 20.231 0.27257-0.0545-2.4239-1.6553-4.2094 0.31891-33.863 37.44-44.826 31.898-59.746 32.964-4.5682 0.32631-8.1e-6 0.6526-8.1e-6 0.6526s6.4302 2.1546 12.426 4.839c9.9053 4.4345 10.572 5.6669 22.223-2.6785 5.2767-3.7796 8.7703-7.9138 14.213-14.275 30.835-36.038 13.859-10.651 17.377-19.863 17.947-46.987-0.9789-7.1787-0.9789-7.1787s-26.556 8.8521-25.778-15.662c0.65261-20.231 16.968-17.294 23.82-17.294s0.9789-4.8945 2.2841-5.2208z" style="fill-rule:evenodd;fill:#000000;stroke-width:1.1605px;stroke:#000000"/>
  </g>
  <ellipse cx="78.707" cy="117.72" rx="77.691" ry="116.71" style="fill:none;stroke-linejoin:round;stroke-width:2.0307;stroke:#000000"/>
</svg>
