<?xml version="1.0" encoding="UTF-8"?>
<!-- Created with Inkscape (http://www.inkscape.org/) -->
<svg width="626.61mm" height="685.19mm" version="1.1" viewBox="0 0 626.61 685.19" xmlns="http://www.w3.org/2000/svg">
 <g transform="translate(229.96 266.39)">
  <g transform="matrix(11.802 -14.033 4.1651 3.503 -7484.2 1661.1)" fill="currentColor" stroke-linecap="round" stroke-linejoin="round">
   <path transform="translate(-4.957 11.028)" d="m334.39 819.32c-1.7408-0.10946-3.4007 0.94057-5.041 2.7715-1.6403 1.8309-3.3304 4.5194-5.1543 8.0801-3.6477 7.1213-7.8013 17.737-12.65 31.771-0.15738 0.45627 0.0848 0.95376 0.54101 1.1113 0.45628 0.15738 0.95377-0.0848 1.1113-0.54102 4.8373-14.001 8.9813-24.573 12.553-31.545 1.7857-3.4862 3.4342-6.0703 4.9024-7.709 1.4681-1.6387 2.6852-2.2546 3.6289-2.1953 2.8224 0.17746 8.653-0.11455 13.408 6.0918 4.7552 6.2063 8.3733 19.221 5.4648 46.238-0.0506 0.47929 0.29622 0.90914 0.77539 0.96094 0.48001 0.0518 0.91112-0.29538 0.96289-0.77539 2.9312-27.229-0.60826-40.693-5.8144-47.488s-12.141-6.6114-14.688-6.7715zm0.34375 13c-0.47849 0.0662-0.81262 0.50788-0.7461 0.98632 0.20874 1.5038 0.49808 2.4366 1.2539 2.998 0.37792 0.2807 0.87073 0.37294 1.2676 0.32227 0.39685-0.0507 0.7193-0.19955 1.0117-0.35938 0.58484-0.31966 1.0895-0.71734 1.4473-0.9082 0.153-0.0816 0.23838-0.10027 0.2793-0.10938 0.7636 0.74303 2.0236 3.0222 3.2383 6.0469 1.228 3.0577 2.4976 6.8922 3.6426 10.867 2.2901 7.95 4.0732 16.551 4.1172 20.479 0.13766 12.296-0.85891 13.136-1.1191 23.289-0.0125 0.48274 0.36882 0.88416 0.85156 0.89649 0.48198 0.0114 0.88219-0.3696 0.89453-0.85156 0.25735-10.04 1.2598-10.963 1.1211-23.354-0.0493-4.4046-1.8708-12.908-4.1855-20.943-1.1574-4.0178-2.4403-7.8956-3.7012-11.035-1.2609-3.1396-2.4045-5.5025-3.6914-6.7148-0.33989-0.32018-0.84046-0.47278-1.248-0.44336-0.40759 0.0294-0.73061 0.17491-1.0215 0.33008-0.58175 0.31033-1.0815 0.7095-1.4629 0.91797-0.1907 0.10423-0.34272 0.15134-0.39649 0.1582-0.0538 7e-3 0.0121 0.0183-2e-3 8e-3 -0.0282-0.0209-0.38034-0.5076-0.56445-1.834-0.0662-0.47849-0.50789-0.81262-0.98633-0.74609zm4.0859 49.137c-0.46808 0.11767-0.75223 0.59242-0.63477 1.0606 0.49866 1.9977 0.23512 2.6915-0.2207 3.2012-0.45583 0.50971-1.4201 0.88683-2.502 1.6016-1.0819 0.71473-2.2013 1.8949-2.6348 3.9434-0.43351 2.0484-0.27455 4.9224 0.82422 9.3242 0.56897 2.2298 2.4609 0.48481 3.1094-1.6973 0.18474-0.63017 0.24061-1.4899 0.34375-2.2598 0.2653 0.22293 0.52044 0.46121 0.84961 0.58985 0.37162 0.14521 0.80244 0.10646 1.2188 0.0391l-2.1348 16.65c-0.0604 0.47824 0.27775 0.91512 0.75586 0.97656 0.47895 0.0616 0.91709-0.27689 0.97851-0.75586l2.3457-18.297c0.10621-0.83973-0.9237-1.3253-1.5039-0.70899-0.28543 0.30391-0.51106 0.4355-0.65625 0.48242-0.14519 0.0469-0.22337 0.0413-0.36914-0.0156-0.29154-0.11393-0.81316-0.6083-1.3262-1.4199-0.44857-0.70709-1.5387-0.43985-1.6094 0.39453-0.12473 1.5205-0.30031 2.911-0.57031 3.832-0.0113 0.0385-0.0235 0.0434-0.0352 0.0801-0.64288-3.1577-0.79905-5.4866-0.50976-6.8535 0.3445-1.6279 1.0277-2.2782 1.8867-2.8457 0.85899-0.56749 1.9739-0.92383 2.8438-1.8965 0.86985-0.97266 1.1802-2.51 0.61133-4.7891-0.11679-0.46887-0.59181-0.75406-1.0605-0.63672z" opacity=".25" style="-inkscape-stroke:none"/>
   <path d="m329.52 830.36c-1.7258-0.28586-3.3774 0.77283-4.9043 2.4551s-3.0046 4.096-4.3574 7.0195c-2.7056 5.8472-4.8873 13.737-5.4492 21.74-6e-5 6e-3 -6e-5 0.0117 0 0.0176-0.16363 3.3539 0.25735 6.5615 1.0586 8.5156 0.20032 0.48853 0.4222 0.90558 0.73047 1.252s0.78361 0.66102 1.3516 0.62304c0.0396-3e-3 0.0535-0.051 0.0918-0.0566-0.4771 0.89538-1.0142 1.6023-1.459 2.5527-0.44814 0.95761-0.782 1.7303-1.1914 2.6582 0.50558-1.6892 0.67727-4.1368 0.0742-6.5527-0.62407-2.2668-1.2441-3.0814-2.0195-3.3593-0.37845-0.12983-0.81122-0.0902-1.1445 0.0547-0.66663 0.28977-1.0454 0.83351-1.4024 1.4668-0.35407 0.62824-0.65506 1.3866-0.91406 2.2129-0.96049 2.7313-1.0308 6.0826-0.63086 8.8418 0.20027 1.3817 0.51741 2.6083 0.95313 3.5645 0.21786 0.47808 0.46249 0.89234 0.78515 1.2324s0.76943 0.6294 1.3106 0.64648c0.49152 0.0155 0.80499-0.23124 1.0352-0.45117 0.23016-0.21992 0.41426-0.47207 0.60547-0.76953 0.38241-0.59491 0.77312-1.3707 1.2012-2.2871 0.85608-1.8328 1.8449-4.2143 2.9219-6.5156 1.077-2.3013 2.2522-4.5253 3.3906-5.9648 0.56919-0.71977 1.1308-1.2321 1.5918-1.4805 0.46099-0.24837 0.75521-0.27467 1.1328-0.11718 0.0176 5.3e-4 0.0351 5.3e-4 0.0527 0 0.0127 0.0108 0.0258 0.0212 0.0391 0.0312 0.54981 0.15996 1.3816 0.99329 2.1758 2.5215 0.79421 1.5282 1.5697 3.6607 2.3164 6.1367 1.4934 4.952 2.8834 11.284 4.3594 17.197 0.11679 0.46887 0.59181 0.75406 1.0605 0.63672 0.46791-0.11682 0.75282-0.5905 0.63672-1.0586-1.4674-5.8784-2.8573-12.221-4.3828-17.279-0.76274-2.5292-1.5553-4.7363-2.4394-6.4375-0.79123-1.5224-1.6861-2.6159-2.8574-3.1406-0.0798-0.093-0.1783-0.16822-0.28906-0.22071-0.0177-7e-3 -0.0369-8.1e-4 -0.0547-8e-3 -0.0143-4e-3 -0.0227-0.0212-0.0371-0.0254-9e-3 5e-3 -0.0183 0.0102-0.0273 0.0156-0.84494-0.30797-1.7584-0.19904-2.5156 0.20898-0.72909 0.39283-1.3545 1.0404-1.9629 1.7812 0.55172-2.409 0.67884-5.0412 0.34765-7.3262-0.20027-1.3818-0.51739-2.6083-0.95312-3.5644-0.19997-0.4397-0.71865-0.63388-1.1582-0.4336-0.4397 0.19997-0.63387 0.71865-0.43359 1.1582 0.32939 0.72278 0.63144 1.8291 0.81445 3.0918 0.36602 2.5252 0.26595 5.7037-0.55273 8.0234-0.20467 0.57995-0.40915 0.96626-0.55078 1.1543-0.0121 0.016 6e-3 -3e-3 -4e-3 0.01-0.10142-0.12718-0.24094-0.34627-0.38086-0.6875-0.61382-1.497-1.0828-4.6263-0.92969-7.7656 0.54734-7.7602 2.6895-15.487 5.291-21.109 1.3017-2.8132 2.723-5.1001 4.0644-6.5781 1.3415-1.478 2.5256-2.0385 3.3242-1.9062 0.47689 0.0792 0.92753-0.24368 1.0059-0.72071 0.078-0.47619-0.24457-0.92553-0.7207-1.0039zm-1.7188 8.1465c-0.56796 0.038-1.0032 0.3948-1.3164 0.81055-0.31315 0.41575-0.56351 0.94161-0.80469 1.625-0.96471 2.7336-1.0334 6.092-0.63281 8.8555 0.20027 1.3817 0.51741 2.6102 0.95313 3.5664 0.21785 0.47808 0.46249 0.8904 0.78515 1.2305 0.32266 0.34008 0.76943 0.63135 1.3106 0.64844 0.69202 0.0219 1.1101-0.38849 1.4434-0.76367s0.62114-0.82175 0.91406-1.3008c0.58584-0.95806 1.1921-2.0543 1.7266-2.6875 0.26724-0.31661 0.51373-0.49087 0.60743-0.52539 0.0937-0.0345 0.0147-0.07 0.17382 0.0547 0.31828 0.24944 1.115 1.5944 1.8359 4.4824l2.8223 11.309c1.1523 4.6162 2.0707 9.6422 2.1328 14.068 0.0621 4.4262-0.75794 8.1923-2.8262 10.414-5e-5 5e-3 -5e-5 0.0104 0 0.0156-0.16326 0.1765-0.24662 0.41245-0.23047 0.65234 0.31988 3.9446 0.35806 7.9858-0.31445 12.355-0.12145 0.78979 0.79289 1.3152 1.4141 0.8125l1.3027-1.0547c-0.62351 3.0901-0.72433 7.1203 0.22657 10.93 0.48821 1.9558 0.94976 3.1441 1.916 3.7773 0.48312 0.31664 1.1888 0.35189 1.6856 0.0996 0.49672-0.25227 0.82718-0.65899 1.1211-1.1426 1.1757-1.9344 1.8574-5.538 1.8691-9.752 2e-3 -0.48343-0.3896-0.87632-0.87304-0.87695-0.48268-2e-3 -0.87526 0.38841-0.87696 0.87109-0.0111 4.0043-0.82842 7.5583-1.6133 8.8496-0.176 0.28958-0.31643 0.40007-0.375 0.44141-0.13327-0.10326-0.71753-0.92601-1.1582-2.6914-0.89686-3.5929-0.79486-7.58-0.18555-10.416 0.20644-0.96085 0.50579-1.511 0.78711-2.1309l1.9258-1.5566c0.0867-0.0709 0.15897-0.15773 0.21289-0.25586h2e-3v-2e-3c0.0641-0.12243 0.0982-0.25831 0.0996-0.39648-9.5e-4 -0.0373-4e-3 -0.0745-0.01-0.11133-0.0108-0.10327-0.0399-0.2038-0.0859-0.29687-0.0154-0.0343-0.033-0.0676-0.0527-0.0996-0.0107-0.0233-0.0225-0.0461-0.0352-0.0684-0.013-2e-3 -0.026-3e-3 -0.0391-4e-3 -0.0595-0.0824-0.13282-0.15376-0.2168-0.21094-0.50537-0.27987-1.1623-0.30436-1.668-0.0801-0.50564 0.22429-0.87613 0.61123-1.1953 1.0723-0.15162 0.21901-0.20763 0.63723-0.33984 0.89648l-1.9336 1.5645c0.38602-3.6132 0.41827-7.0592 0.16407-10.35 2.3425-2.7579 3.1136-6.8065 3.0508-11.279-0.0653-4.6476-1.0142-9.7762-2.1856-14.469l-2.8223-11.307c-0.75244-3.0144-1.3879-4.6022-2.4512-5.4356-0.53163-0.41664-1.2893-0.53036-1.8594-0.32031-0.57007 0.21006-0.97107 0.60252-1.3379 1.0371-0.73365 0.86919-1.3356 2.0093-1.8828 2.9043-0.27363 0.44749-0.53305 0.83076-0.72851 1.0508s-0.2858 0.1713-0.082 0.17773c0.0529 2e-3 0.0257 0.0265-0.0977-0.10351-0.12339-0.13006-0.29819-0.39249-0.46289-0.75391-0.32939-0.72284-0.62949-1.8272-0.8125-3.0898-0.36602-2.5253-0.2679-5.7036 0.55078-8.0234 0.20467-0.57995 0.4111-0.96626 0.55274-1.1543 9e-3 -0.0122-6e-3 2e-3 2e-3 -8e-3 0.10141 0.12746 0.24321 0.34313 0.38281 0.68359 0.30691 0.74853 0.59056 1.9188 0.76367 3.2793 0.0614 0.47811 0.49832 0.81626 0.97657 0.75586 0.4789-0.0605 0.81815-0.49765 0.75781-0.97656-0.18668-1.467-0.48025-2.7436-0.88086-3.7207-0.20031-0.48853-0.4222-0.90558-0.73047-1.252s-0.78361-0.66297-1.3516-0.625zm-14.271 31.891c0.0867 0.25485 0.15462 0.27617 0.23828 0.61133 0.54796 2.1952 0.32599 4.7579-0.0937 5.9473-2e-3 7e-3 -3e-3 7e-3 -6e-3 0.0137-0.0771-0.19659-0.14768-0.32263-0.22852-0.64648-0.54548-2.1853-0.32621-4.7295 0.0898-5.9258zm-2.1699 2.6348c-0.033 1.18 0.0692 2.4583 0.38281 3.7148 0.16104 0.64512 0.33622 1.139 0.56836 1.543 0.23215 0.40396 0.55653 0.79878 1.1172 0.89648 0.54893 0.0957 1.0177-0.227 1.2852-0.53711-0.33876 0.76888-0.75434 1.7088-1.0527 2.3477-0.41419 0.88672-0.79152 1.621-1.0879 2.082-0.0973 0.1513-0.1561 0.21423-0.22461 0.29687-0.12275-0.13331-0.29071-0.38226-0.45117-0.73437-0.32939-0.72284-0.62949-1.8272-0.8125-3.0898-0.29604-2.0425-0.17168-4.4225 0.27539-6.5195zm36.541 5.3457c-0.49051-0.0929-0.99538 0.12725-1.3086 0.42578-0.31321 0.29852-0.52031 0.66983-0.69726 1.1152-0.35391 0.8908-0.56614 2.1101-0.60742 3.7207-0.0413 1.6106 0.11116 2.9323 0.39453 3.9453s0.59393 1.8128 1.4824 2.168c0.44425 0.17757 1.0404 0.066 1.4023-0.2168 0.36193-0.28283 0.57846-0.65422 0.75977-1.0996 0.36262-0.89079 0.56827-2.1425 0.61328-3.8984 0.045-1.7559-0.10406-3.1114-0.39258-4.1191-0.14426-0.50386-0.32079-0.9236-0.5664-1.2754-0.24562-0.35179-0.58957-0.67271-1.0801-0.76562zm-0.26367 1.9785c0.0745 0.14144 0.15306 0.27263 0.23046 0.54297 0.21498 0.75085 0.36601 1.9636 0.32422 3.5938-0.0418 1.6302-0.26156 2.7378-0.48437 3.2852-0.0142 0.0349-0.0132 0.0189-0.0274 0.0488-0.0721-0.11357-0.16058-0.16282-0.31445-0.71289-0.21916-0.78345-0.36782-1.9572-0.33008-3.4297 0.0377-1.4725 0.24993-2.5339 0.48242-3.1191 0.049-0.12343 0.0741-0.13089 0.11915-0.20899zm-11.873 34.516c-0.55127 0.14049-0.91513 0.51008-1.2168 0.92773-0.60332 0.8353-1.0421 2.0401-1.4492 3.5938-0.40715 1.5537-0.75199 3.4435-1.0176 5.5469-0.0603 0.47892 0.27892 0.9161 0.75782 0.97656 0.47891 0.0603 0.91609-0.27891 0.97656-0.75781 0.2582-2.0448 0.59425-3.8708 0.97461-5.3223 0.38036-1.4514 0.83487-2.5417 1.1758-3.0137 0.12408-0.1718 0.14706-0.17006 0.16797-0.1875 0.21886 0.21813 0.75502 1.2048 1.2031 3 0.89686 3.5929 0.79486 7.582 0.18555 10.418-0.30465 1.418-0.75232 2.5506-1.1621 3.1426-0.20489 0.29596-0.39369 0.43827-0.4668 0.4707-0.0731 0.0324-0.0149 0.0417-0.11132-0.0117-0.42233-0.2333-0.95382-0.0803-1.1875 0.3418-0.2333 0.42233-0.0803 0.95382 0.34179 1.1875 0.50539 0.27985 1.1604 0.30437 1.666 0.0801 0.50563-0.22429 0.87613-0.61121 1.1953-1.0723 0.63836-0.92209 1.0986-2.2122 1.4336-3.7715 0.67002-3.1186 0.7772-7.2954-0.19922-11.207-0.48392-1.9386-0.92742-3.1356-1.707-3.877-0.38981-0.37068-1.0093-0.60534-1.5606-0.46484z" fill-opacity=".99918" style="-inkscape-stroke:none"/>
  </g>
 </g>
</svg>
