<?xml version="1.0" encoding="UTF-8" standalone="no"?>
<svg
   version="1.1"
   id="svg5"
   display="flex"
   float="center"
   position="absolute"
   viewbox="0 0 1400 1400"
   xmlns:xlink="http://www.w3.org/1999/xlink"
   xmlns="http://www.w3.org/2000/svg"
   xmlns:svg="http://www.w3.org/2000/svg">
<path
   style = "fill:none; stroke:#ffffff; stroke-width:1px; stroke-opacity:1"
   d = "M 604.5619816081866,564.8606494545602 L 603.4762843247479,561.9711373889511 L 602.0250015845792,559.2532993066368 L 600.8066604971649,556.4261273017272 L 599.5944437086879,553.59620452283 L 598.2910386670327,550.808985313889 L 597.0879918847904,547.9749016239709 L 595.9945845434444,545.0900315629555 L 594.8069102846024,542.2492057419956 L 593.6253829189311,539.4056792070679 L 592.3371991111236,536.6113925183754 L 592.1325909169492,533.3242433125706 L 590.2368108812514,530.8046474948148 L 589.2052886394591,527.8936830866245 L 588.1862370549152,524.9777114256597 L 587.3083605398217,521.9992252272261 L 586.4494366881025,519.0137916423304 L 585.4742942960479,516.0809074422903 L 584.5117000318728,513.1432059376274 L 583.5616702444268,510.2007279331824 L 583.0589394717597,507.06646362420474 L 582.1437522434034,504.111544467506 L 581.5442519019166,501.02415151890966 L 580.8156749978099,497.9934694202778 L 580.106320488482,494.95656090130274 L 579.5777945278046,491.8475208244027 L 579.0752818068204,488.73116132752807 L 578.4304565368273,485.6747204458957 L 577.9767154774266,482.54471926458046 L 577.7243539731327,479.3398470673618 L 577.1477750028242,476.26435596818305 L 576.9547579011743,473.0454608021704 L 576.6094156536155,469.88872220227313 L 576.2904412245549,466.72584625131043 L 576.1903888504903,463.4872925486319 L 576.1237993456596,460.2425790175814 L 575.891143731882,457.06179756830306 L 576.0912619923018,453.7357483811897 L 575.9187332536801,450.5439595785159 L 575.9830498807606,447.277228164855 L 576.0811234252687,444.0056493124153 L 576.21300820337,440.7294942284833 L 576.3787565761794,437.4490345660512 L 576.8029882883078,434.0954826743936 L 577.2684309298846,430.73893331777265 L 577.3114241802366,427.5160420113599 L 577.6167053866636,424.22142006421757 L 578.4341829363589,420.78905786540946 L 578.8149016361366,417.48972696069325 L 579.2298031000731,414.18811626182475 L 579.9288851188121,410.8188368656155 L 580.669500812648,407.4491628349199 L 581.4516844584608,404.0794937276695 L 582.0144766284825,400.7733395800908 L 583.140875447486,397.341770618669 L 583.7795952393152,394.03569834998837 L 584.9966631811948,390.6088720223893 L 585.4357833902982,387.36367416843063 L 586.7398497017998,383.94195335018577 L 587.8100141766806,380.58236922886357 L 588.9218996992018,377.22595396939454 L 590.3658388343839,373.81880912290853 L 590.9769210657837,370.57755529996956 L 592.5079003057856,367.17974598798725 L 594.0879415886155,363.7897849600243 L 595.1071442102677,360.50549937835893 L 596.4693079518084,357.1765523892254 L 598.1853064966535,353.80781059392325 L 599.9502385852709,350.4489620241851 L 601.4445709134617,347.1424409480437 L 602.6574519414905,343.8837659882081 L 604.5579539973289,340.55166528743763 L 606.5071859852271,337.23150105443506 L 607.837395917645,333.9932629636082 L 609.8766710351368,330.6941645474919 L 611.96447041283,327.4085455985871 L 613.4116616532382,324.1942100746906 L 615.5891281587352,320.9324376625707 L 617.814870206587,317.6856840894257 L 619.7336808890465,314.47640996290335 L 621.3349899406727,311.29874230881126 L 623.6944343773504,308.0925868610504 L 626.1017620930277,304.903477756382 L 628.1878626545381,301.7446431627676 L 630.6871377401645,298.58853079225867 L 632.8580870132445,295.4586289101132 L 635.0696101131955,292.3426513304135 L 637.3216169063377,289.24099509999536 L 639.9999999999999,286.15384615384613 L 642.7253722707442,283.08732834736367 L 647.6290110270297,280.08084492382255 L 649.1083205052943,277.03734273540096 L 651.9802180178197,274.0421972009614 L 654.4959319725792,271.0538943111177 L 657.0512704594431,268.0829770940859 L 660.0550209495071,265.15148979598376 L 663.1045241931919,262.2443685972626 L 665.7843548526674,259.33378836838193 L 668.5032654597691,256.4422365001978 L 671.2611208701484,253.57009980369145 L 674.4824032494982,250.75514700626377 L 677.3208169935208,247.92609176541163 L 680.1977273412067,245.1176482663667 L 683.5467499407858,242.37746471107215 L 686.9399434192275,239.66558025950417 L 689.4977025522445,236.87356302567844 L 692.5300426434655,234.1546882061063 L 696.0456924863469,231.51926178848953 L 699.6046275963361,228.91403932106005 L 702.3039734819239,226.20261714220408 L 705.4889386866178,223.57969133829044 L 709.1679240875485,221.05606206857442 L 712.4294801077367,218.4852547413144 L 715.7276282794144,215.93932451512364 L 719.062181828901,213.41864010302277 L 722.9009513669594,211.01374449712023 L 726.3104336638326,208.54836998713148 L 729.7557127531076,206.1093780784202 L 732.7606005186926,203.5956858264559 L 736.7528575366936,201.31199175022698 L 740.3043133199932,198.954318408949 L 743.8907460959513,196.62446977238284 L 747.025720660092,194.20579034075746 L 751.1676877370999,192.04967163481552 L 754.8577612473098,189.8054306163192 L 758.0883683270893,187.4613475730477 L 761.8440427713406,185.27184177776172 L 765.6334019737994,183.11223935929013 L 769.4562145510354,180.9828872297989 L 772.8091674231796,178.73898381896413 L 776.190423065025,176.51808851386983 L 780.615451923663,174.62611073408777 L 784.567513053401,172.61688120805547 L 788.0397782174884,170.4778088624114 L 791.5396499555235,168.3627965786406 L 795.5836332658282,166.44151534868678 L 799.1404892124001,164.37921292735234 L 803.2453879422902,162.51949808803317 L 806.3353219313215,160.329237947585 L 809.9729666092743,158.3420324310681 L 814.164649684324,156.5700209721972 L 817.85742275794,154.6380684215905 L 821.576419568457,152.73210257939246 L 825.3214660295746,150.85235185654778 L 828.5566749915273,148.79306790454922 L 832.3512968466971,146.96228774871025 L 835.6315600950268,144.94467785435654 L 839.4751537633044,143.16365931864578 L 843.3439607237348,141.40992585135518 L 846.6919136083758,139.45793565939783 L 850.6087391068223,137.75516312101547 L 854.00043344951,135.8465725706634 L 857.4127701316427,133.95807194876073 L 860.8456381739825,132.08980495593136 L 863.7427325879681,129.9975458651827 L 867.2143315549421,128.16638686381606 L 870.1457103384935,126.10451129187231 L 873.655672258488,124.31094219847273 L 877.1856434379636,122.5382727331687 L 880.1689910589699,120.52435051460532 L 883.168045986187,118.52444253583519 L 886.7536095429975,116.8074850910117 L 889.786048023606,114.83915562823086 L 892.8339975468664,112.88510017884596 L 895.8973970674228,110.94539913650897 L 897.8171514131743,108.4563983445338 L 901.4888508241037,106.82382336364697 L 904.0123258538038,104.63596351587216 L 906.5465853322436,102.45658980160408 L 909.0916042139156,100.28573884924026 L 911.6473573448518,98.12344721822569 L 914.2138194628064,95.96975139875337 L 916.7909651974376,93.82468781146599 L 919.3787690704903,91.68829280715829 L 920.7756629158428,88.94673427119403 L 923.380077165116,86.82209820213302 L 924.7829488342502,84.08359373778717 L 927.4039344118744,81.97077888279921 L 928.8127772276189,79.23534152438162 L 930.8361305028882,76.8168220377413 L 932.8651021498677,74.40205281498118 L 934.2799094066304,71.6696955822033 L 935.694716663393,68.93733834942543"
   id = "sonvzhod"
/>
<path
   style = "fill:none; stroke:#ffffff; stroke-width:1px; stroke-opacity:1"
   d = "M 604.5619816081866,715.1393505454398 L 603.0229514601772,717.8150569516221 L 601.8489301246825,720.6636600017841 L 600.5333759910509,723.445165519087 L 599.3119048093994,726.2711061818012 L 598.096553472639,729.0998076616421 L 596.9876336253775,731.978233895052 L 595.5808818967869,734.7170557247092 L 594.4872641202323,737.6023770654854 L 593.2964376789489,740.4420218421094 L 592.2244480151511,743.3365539298903 L 590.2781326924896,745.824107974573 L 589.8797370254906,749.0319184430231 L 588.8386942153389,751.9394916215508 L 587.810105609493,754.852112836099 L 586.7939882500795,757.7697415707602 L 585.7903590616895,760.6923372593573 L 585.0690627010031,763.739994384572 L 584.0968600025993,766.6745300822826 L 583.2786266992478,769.6758339304254 L 582.7690592244377,772.8089939928757 L 581.8474275456269,775.7619094901739 L 580.9384137484743,778.7194650227543 L 580.3512774509353,781.8120902868269 L 579.948138305786,784.978018947925 L 579.2547200087628,788.0203059001913 L 578.7454096473261,791.1355616688634 L 577.9257588220435,794.122967704028 L 577.8049953455117,797.3875301619097 L 577.3739963754939,800.5239063143733 L 576.9692045518419,803.6669854881611 L 576.7726762957923,806.885668190119 L 576.2384415698249,809.9725762713116 L 576.2904412245549,813.2741537486895 L 575.9978813577867,816.4429969598452 L 575.9277524598755,819.6876359225671 L 575.8911437318818,822.9382024316969 L 575.6850488474342,826.1243812161512 L 575.9187332536801,829.456040421484 L 575.9830498807605,832.722771835145 L 576.2949580827031,836.063958743924 L 576.4304165124438,839.3399680147412 L 576.8208052891487,842.6892833099621 L 576.8029882883079,845.9045173256064 L 577.496736620243,849.3293716941389 L 577.7751410845138,852.6202174624423 L 578.3231719153844,855.9815730180192 L 578.6733415614192,859.2779695888444 L 579.5433911238451,862.7093089949724 L 579.7225924392316,865.9439262436414 L 580.9294452495236,869.4410903481963 L 581.1769888295981,872.6797227023592 L 581.9665220856988,876.0476773317515 L 582.7976531358931,879.4151363000464 L 583.9352756866059,882.8430007618585 L 584.5848111352359,886.14696512595 L 585.8130868031232,889.5697902658534 L 586.8145055441607,892.9301683140886 L 587.8576171524253,896.2879996700631 L 589.2256871140567,899.6984230335415 L 590.0689503607387,902.9944141603672 L 591.5277421774041,906.3952262202548 L 592.7413242461278,909.7375271302118 L 594.2945091462738,913.1252435026179 L 595.2935692341467,916.4079142285509 L 597.2426006528594,919.8291428349938 L 598.6301436615827,923.1475916464376 L 600.3718150212151,926.5031323129116 L 601.8461899664464,929.8069594784984 L 603.0424266637432,933.063489331258 L 605.2429426590452,936.4308298841838 L 606.8454972379016,939.7102312794481 L 608.8200243155056,943.0154148895615 L 610.5089992245463,946.2757533437473 L 612.5769863921313,949.5569303336013 L 614.3521551949717,952.7964135678043 L 616.1685644920664,956.0257890869378 L 618.7226926936455,959.2918354637195 L 620.6284022677783,962.495642491729 L 622.9304265792243,965.7068636430303 L 624.9216038085915,968.8853012473786 L 626.9536612246786,972.0514951199941 L 629.7578524927053,975.2281889267745 L 631.8782857984255,978.3640802097342 L 634.0393319552662,981.4864435764905 L 636.9927016128681,984.6022627174991 L 639.2414536575997,987.6914802462793 L 641.5305146414189,990.7658916989653 L 644.2457471607017,993.8206808861847 L 646.6184462025412,996.8617085232048 L 648.5263827118231,999.8990147219794 L 654.2543331063696,1002.797003927401 L 656.7694312782953,1005.769634097552 L 659.7262501142693,1008.7034526596881 L 662.7288408729773,1011.613263412449 L 665.3684781614955,1014.5264340246565 L 668.4588987133575,1017.3900199776053 L 671.5945160969641,1020.2280686452998 L 674.3572666509438,1023.0777627468295 L 677.579598510621,1025.86668581204 L 680.8465071845906,1028.6285560362176 L 683.3038403423328,1031.4582612629526 L 686.6533054524954,1034.1717875298016 L 690.0467138928476,1036.8568084694118 L 693.0479916701725,1039.570915479244 L 696.5256902360882,1042.20118484273 L 700.0466249309632,1044.8014640778952 L 703.1661283209867,1047.4403924122291 L 706.3227269603312,1050.0556969324657 L 709.9663310005659,1052.5709292932754 L 713.1993856626751,1055.1343451159155 L 716.9245343188693,1057.589320830761 L 720.6914095120956,1060.0114361420685 L 723.5779906266497,1062.5835416344637 L 727.4223090704985,1064.9468497163884 L 731.3075556299176,1067.2759125352359 L 734.2960273486224,1069.7769877811838 L 738.2572865175441,1072.0447493136826 L 742.25863595,1074.2768999285079 L 745.3472729426574,1076.7038311112165 L 749.4231343173881,1078.8722208079123 L 753.0570813147999,1081.1272427470026 L 756.7252008696106,1083.3533689174694 L 760.4272695710425,1085.550248819315 L 764.651370984759,1087.5818264104585 L 767.9323451696389,1089.854876303406 L 772.227825195408,1091.81796210769 L 775.570458598346,1094.038355505597 L 779.4388130216129,1096.083806690063 L 782.8399184767071,1098.2540318312188 L 786.7709501109751,1100.2408085046231 L 791.2381545902535,1102.030932650956 L 794.7290189037107,1104.1181705893719 L 798.7555516997662,1106.0080886742508 L 802.8134088617746,1107.865056458133 L 806.3898806026797,1109.8705278674859 L 809.9930413086514,1111.8508178534844 L 814.1394606528831,1113.6160202464182 L 818.3162227284558,1115.347035335024 L 822.0025745679114,1117.2423597620432 L 825.7148729729793,1119.111527495546 L 829.4529418144058,1120.9543120645544 L 833.7431091149338,1122.559434339936 L 837.0056778087561,1124.5598315654465 L 840.8199842445015,1126.322119330926 L 844.6593396970251,1128.0571296225162 L 849.0576858019425,1129.5368865540954 L 852.4124578176014,1131.4444364874003 L 855.7878332093834,1133.3319769092273 L 859.1837009975336,1135.1993644406944 L 862.5999493437891,1137.0464562914676 L 867.1242990548017,1138.3787883569992 L 870.5849015975375,1140.1773172759677 L 874.0654988102336,1141.9550820510676 L 877.5659751451199,1143.7119425453557 L 881.086214212645,1145.4477592359221 L 884.6260987846407,1147.162393218565 L 888.1855107975084,1148.8557062124514 L 891.7643313554314,1150.5275605647612 L 894.803589583683,1152.4560716879314 L 897.8581513882602,1154.3701287826996 L 901.4909620960719,1155.984717042434 L 904.5779985312172,1157.8662616368592 L 907.113034983938,1160.024782554316 L 910.2281860416653,1161.880231460573 L 912.7868730496201,1164.0187076006723 L 916.5033920699888,1165.546504708822 L 919.087895138977,1167.6619244840476 L 921.6829376715343,1169.7685557153563 L 924.2884935935247,1171.8663624993155 L 926.9045367243514,1173.9553090044951 L 929.5310407771461,1176.0353594717585 L 932.1679793589607,1178.106478214557 L 934.2259181167859,1180.4899018116853 L 936.2894026008122,1182.869472767319 L 938.9530194514346,1184.919398932051 L 941.6269839735613,1186.9602739114039 L 943.7122309499192,1189.3236877356717 L 945.8029912323045,1191.6831998879268 L 947.2947131407549,1194.3743374483556 L 948.7864350492056,1197.0654750087842 L 950.2781569576559,1199.7566125692133 L 951.7698788661062,1202.4477501296421"
   id = "sonzahod"
/>
<path
   style = "fill:none; stroke:#ffffff; stroke-width:1px; stroke-opacity:1"
   d = "M 643.0804710793785,556.9802081075958 L 643.2571715097937,553.9077469172959 L 643.4059208675402,550.834256126252 L 643.4227456437538,547.7557867862175 L 643.7447824262496,544.6889226970387 L 643.7582575090099,541.6102136565538 L 643.9863812924593,538.5398209355574 L 644.3352301728171,535.4744793001558 L 644.4627369426058,532.4001992795722 L 644.5902437123946,529.3259192589885 L 644.965899484669,526.2622024660654 L 646.289099169195,523.2461857205521 L 645.6266230750641,520.1319846131956 L 645.9050004333961,517.064813971083 L 646.3275188665816,514.0049389682225 L 646.7634158837035,510.9463370471012 L 647.2126879090285,507.8890520172006 L 647.6753312393496,504.8331276783897 L 648.1513420440108,501.7786078205778 L 648.6407163649336,498.7255362233665 L 649.1434501166435,495.6739566557024 L 649.6595390862981,492.62391287552936 L 650.3530605702595,489.58665257506533 L 651.0665620241107,486.5523859480997 L 651.6293323075857,483.5084324920807 L 652.3794529837717,480.47962780941555 L 653.1495190961735,477.4540895999654 L 653.7589021712586,474.41680881575655 L 654.7494333880652,471.41320493831995 L 655.5792533759338,468.3980545196214 L 656.6194263174272,465.40458773928486 L 657.4922896588139,462.3978026246541 L 658.5820057109612,459.4150557728876 L 659.4978318695424,456.41711738543415 L 660.4334749722149,453.4232719028877 L 661.5956900111083,450.4570613786202 L 662.7841724302885,447.4974991133527 L 664.2120803601347,444.571052836366 L 665.4562006747827,441.62666044247476 L 666.5068574969952,438.66042815178 L 667.8000379333521,435.72918423101197 L 669.3452917934404,432.83733772115875 L 670.693764380116,429.9227545849011 L 672.0682216451079,427.0160529408403 L 673.4686202297764,424.11740402038595 L 675.3721210455101,421.30362830268496 L 677.0722314702446,418.4650802700988 L 678.8043426301242,415.63866203088276 L 680.3205383275495,412.7805200718937 L 682.1133454429321,409.9771972080956 L 683.9379148756692,407.18676151241596 L 685.5371423001607,404.35966247024913 L 687.6819878282711,401.6456029998838 L 689.6013101109211,398.89540441623353 L 691.5520322439666,396.1591414408201 L 693.8029853460353,393.4956179588536 L 695.5472925275673,390.729464099736 L 698.1411955842606,388.1628140247392 L 700.2223813676976,385.4894272406175 L 702.3344376243814,382.8313400485976 L 704.7606305143726,380.2592978891947 L 707.2231294304216,377.70812593421476 L 709.432847070464,375.1022919615556 L 712.2563617426256,372.6698507084111 L 714.2379193481542,370.0208687123078 L 717.1356771826596,367.6351129747618 L 719.4746082060313,365.10400090372923 L 722.1459766220577,362.67983053043025 L 725.1575218770171,360.371704847285 L 727.9014882933582,357.99751887309617 L 730.6801411513669,355.6473985672074 L 733.4932821540845,353.3216960092044 L 736.3407098834422,351.02076170850415 L 739.5398706965184,348.85335249270315 L 742.7776902076179,346.71811991108905 L 745.4091814369789,344.3848570306153 L 748.7188722555416,342.30814001408476 L 752.0663620030297,340.26489944051275 L 754.7927527213652,338.0044335631671 L 758.2105601786843,336.02204878776416 L 761.6652696054445,334.0744182319521 L 765.1565482549747,332.16198935842226 L 768.6840587026344,330.28520656497 L 771.9075259415891,328.30043693049475 L 775.504498952608,326.4923422407965 L 779.1367039935305,324.72116957298556 L 782.8037856779167,322.98735100242766 L 786.8529540900518,321.4513174890484 L 790.2411347608677,319.63348798995423 L 794.3618090286132,318.18248221445333 L 800.2294423971732,317.62362712337165 L 803.7739289632865,315.95840967102026 L 807.6522950735935,314.4829543482996 L 811.562660334552,313.0479935438892 L 815.5046312490638,311.65392927338166 L 819.8373488422843,310.49713593227415 L 823.8427613141841,309.19042455356515 L 828.2406524261244,308.1309679898964 L 832.3076923076924,306.91330623675435 L 836.7687191786115,305.9530024134392 L 841.2610323494674,305.0453932640977 L 845.7840501035122,304.1909506543883 L 849.9698754150818,303.1608983323671 L 854.5517166035802,302.4091812527227 L 858.7933965912893,301.4731095980608 L 863.8017470779974,301.06973467924377 L 868.0982307613608,300.23387513063625 L 872.7917787094038,299.6977506665485 L 877.8835162042161,299.4771499347755 L 882.2580347184678,298.7946310710465 L 887.0294859731307,298.42847364561567 L 891.825639370913,298.1197984563864 L 897.0189076343422,298.14916823617193 L 901.8627427227304,297.9619404931026 L 906.3558715809282,297.5426524638949 L 911.6178505186185,297.7639434139435 L 916.9009720619285,298.0557769589328 L 921.8315806769169,298.11095382205633 L 926.7821643216869,298.22632537768675 L 932.1244980217164,298.7206984312866 L 937.1127358296218,298.9629481587852 L 942.1188381270574,299.26644489021777 L 947.5132159118934,299.9667600247794 L 952.9227631866584,300.74037116256153 L 957.9772186358396,301.2405808690815 L 963.4153368581691,302.15593159051434 L 968.4982780177756,302.78708509547045 L 973.961555744939,303.84548671896005 L 979.0698512326044,304.60879962814363 L 984.5548384826014,305.81148541844163 L 990.0486788120061,307.0897477225483 L 995.9118749606548,308.83191670668384 L 1001.0590848160075,309.8741409190166 L 1006.5737217439145,311.3808124406905 L 1012.0933545273612,312.96414160471807 L 1017.2618532520322,314.2126469515952 L 1022.7904386909298,315.9439732867597 L 1028.3211651010251,317.75264295092364 L 1033.853044860336,319.6388626187891 L 1039.385086517244,321.6028270097154 L 1044.5709640124444,323.20321197883555 L 1050.1026497505463,325.3171690047229 L 1055.6315868207694,327.50938568198677 L 1061.156770017495,329.7800094706144 L 1066.3411022379541,331.6639262671144 L 1072.191838424027,334.55700711875636 L 1077.368985427675,336.58633867950635 L 1082.5434349173256,338.68290024940944 L 1088.3659916695415,341.8242700745824 L 1093.527822989016,344.0668671806288 L 1098.6844626701006,346.3769749069322 L 1104.1525477735809,349.26081051805323 L 1109.2937730466354,351.71177592245766 L 1114.4273688033934,354.2304532311631 L 1119.5525437246883,356.8168941892041 L 1124.9742261192855,360.0 L 1130.0772072523127,362.72765692635545 L 1135.1693111189195,365.5231688451507 L 1140.2497410537342,368.3865518522229 L 1145.02431191417,370.76675715993895 L 1150.0822682512849,373.760380039097 L 1154.8388392970246,376.2601262027633 L 1159.8714135825144,379.3840074204213 L 1164.3256027421871,381.4312272565839 L 1169.054600863491,384.10260293257716 L 1173.4967307903685,386.24909407125745 L 1178.2073935325338,389.02977072013846 L 1182.3639019986276,390.68382007551793 L 1186.7880858642438,392.9720883039399 L 1190.9381836859993,394.7065167912097 L 1195.3508540063872,397.0845534728653 L 1199.4932087359446,398.89944098805665 L 1203.6322025754944,400.75232440195236 L 1207.2483611473076,401.4051098037412 L 1210.8662529304831,402.0790134911956 L 1214.744209910562,403.4008614853353 L 1218.6214459281507,404.75204355777913 L 1221.986173328076,404.8623229020121 L 1225.3531599981472,404.98616941679654 L 1228.722362743435,405.12359345530376 L 1232.0937383346536,405.2746052467808 L 1234.9540945584924,404.1406661416928 L 1238.3300667945941,404.31151881422113"
   id = "astsonvzhod"
/>
<path
   style = "fill:none; stroke:#ffffff; stroke-width:1px; stroke-opacity:1"
   d = "M 642.899342802977,723.0263148600479 L 643.1319520024368,726.0968993852567 L 643.1141089365308,729.1764122570885 L 643.3221208000459,732.2478919681176 L 643.3288750700848,735.3265096541292 L 643.5435955200492,738.3977514326588 L 643.8757030561665,741.4644671666789 L 643.8791117295877,744.5434416422868 L 644.227980158669,747.609280825924 L 644.4695143112477,750.6790220729686 L 644.8418278640999,753.7431468199142 L 644.2505062890214,756.8457920228484 L 645.1035482891863,759.8914250263961 L 645.368539983426,762.9597811177671 L 645.7777032135303,766.0214705714254 L 646.2002504550659,769.0819453303628 L 646.492030757166,772.1483218979151 L 646.9379998071427,775.206724098753 L 647.698970756028,778.2473272162392 L 648.1783513209425,781.3019839363403 L 648.6710961277563,784.3551923534405 L 649.1772011068468,787.4069086960437 L 649.6966620612155,790.457089203587 L 650.564347520673,793.4830075764639 L 651.1171534941279,796.5287863914939 L 651.8573584312638,799.5600296159178 L 652.7948679186948,802.5742113472486 L 653.5782707791325,805.5981013006023 L 654.5655249836987,808.6027838927553 L 655.2048392281251,811.6355257295215 L 656.2384789679514,814.6312546894652 L 657.298545346159,817.6211728341136 L 657.9909444185198,820.6447866302296 L 659.4978318695423,823.5828826145658 L 660.6369864131428,826.5543276331258 L 661.5956900111083,829.5429386213798 L 662.574171262682,832.527240027872 L 663.785663255184,835.4813046006269 L 665.4562006747825,838.3733395575252 L 666.7264690857359,841.3105375696954 L 668.0228462431735,844.2403691057552 L 669.3452917934405,847.1626622788413 L 671.1520084228305,850.0097821155997 L 672.5328038510852,852.913478244017 L 673.9395229689773,855.8090650728568 L 675.8491579561825,858.6186813029964 L 677.3138664758181,861.4943484031635 L 678.8043426301241,864.3613379691172 L 681.0638951093481,867.0863148414517 L 682.8658664612137,869.8837557574882 L 684.4457296025345,872.7168268492775 L 686.3080282920153,875.4900560866763 L 688.7215478836038,878.1440767778407 L 690.3900560515398,880.9409849474639 L 692.349722122917,883.6708495594299 L 694.8780480392833,886.2672764315862 L 696.6344082010847,889.0257930071921 L 699.2394856537933,891.5811006482389 L 701.3323164392183,894.2453811263931 L 703.7361409692707,896.8248549293725 L 706.4592302323487,899.3112845877649 L 708.6527027213575,901.9213292964394 L 710.8766000434593,904.5150724299295 L 713.7133395622586,906.9320776960378 L 716.297245908935,909.40439912279 L 718.6200425263967,911.9401281382463 L 721.5713260336802,914.2811375901488 L 724.2611269098905,916.6848394142654 L 727.2902086207312,918.9699024289139 L 730.0522237128891,921.3230669715531 L 732.5392690708795,923.753015174563 L 735.9914306127687,925.851515713834 L 738.8588291056582,928.1275142228471 L 742.0767820779544,930.2669233199463 L 745.0141185179572,932.488546279672 L 747.9848638173206,934.6840298868915 L 751.6361690334986,936.6101860184755 L 754.6777438544962,938.7457364791046 L 758.0801183960897,940.7254293610993 L 761.1891121072737,942.8027913801282 L 764.9950953665842,944.580244833086 L 768.1726608852482,946.5944738061322 L 771.7184263145186,948.4365354589386 L 775.6380665887552,950.0943854857999 L 779.2564757161856,951.8591904709024 L 782.9096713153808,953.5866533482242 L 786.597292841077,955.2763463377325 L 790.3189752477506,956.9278449977282 L 794.0743490196523,958.5407282685942 L 798.2121370466264,959.9421862327258 L 801.4340037954314,961.7748629377015 L 808.3524772030336,961.6866417658775 L 812.2513757955229,963.1069522461627 L 816.1816960958554,964.486318521341 L 820.4983509224825,965.6276448118981 L 824.4917246075958,966.9195818833291 L 828.8731289584262,967.9635303690462 L 833.2866862370387,968.9557030310323 L 837.3718468228961,970.1111148758241 L 841.8470183330827,971.0031822110343 L 846.7145285094217,971.616790013871 L 850.8882063466707,972.6273550435867 L 855.4530393914221,973.358540930154 L 860.0465666381974,974.0351905274972 L 864.6681821784832,974.6568598337343 L 868.9514664996376,975.4730581331793 L 873.9932268008384,975.7335138119793 L 879.0619983044703,975.9270666421032 L 883.4232161049096,976.5850807141745 L 888.5433733120581,976.654497599929 L 893.3207938554309,976.9321147600318 L 898.1218463981199,977.1518015139418 L 902.945882066676,977.3131677882577 L 908.1601511669744,977.1235137210399 L 913.3958551364881,976.8637582187926 L 917.9172531675151,977.1405872032501 L 923.1940548579526,976.750838593033 L 928.4897993456017,976.2897492295122 L 933.8035922506385,975.7569114977239 L 938.7687610944787,975.4780341806882 L 944.1166790550653,974.8063530478902 L 949.4800053570707,974.0617820301832 L 954.8578221319252,973.2439558204496 L 960.2492058428963,972.352520129281 L 965.2915464513142,971.7421670945891 L 970.708402278016,970.7084022780161 L 976.1361030825968,969.6000437553051 L 981.2152539993949,968.7891846653738 L 986.6631755179171,967.5366606070363 L 992.119175653436,966.2086542952911 L 997.5822954321006,964.8048885145934 L 1003.051571236635,963.3250976227922 L 1008.5260349413398,961.7690276153759 L 1014.0047140479052,960.1364361881824 L 1019.4866318220168,958.4270927985626 L 1024.6251769501866,957.0605282615315 L 1030.4562560806812,954.7772871250788 L 1035.9419891568405,952.8364230920963 L 1041.4270143622593,950.818003709797 L 1046.910335858321,948.7218581057389 L 1052.3909544057676,946.5478275029611 L 1057.867867506374,944.2957652700686 L 1063.340069545286,941.9655369696886 L 1068.8065519339862,939.5570204053096 L 1074.2663032538821,937.0701056664784 L 1079.3967930641395,934.9841781274744 L 1085.1615537281918,931.8607037136776 L 1090.2793484793979,929.6294092862491 L 1095.7050623772648,926.8339668276756 L 1101.1190366515875,923.9597495472833 L 1106.5202459900036,921.0067209893562 L 1111.6041590220689,918.4894631730483 L 1116.6794637309322,915.9047560650614 L 1122.043154674406,912.7268948265357 L 1127.0958984376325,910.0016654294989 L 1132.1375830907004,907.2089057453809 L 1137.1674138251803,904.3486030455939 L 1142.469461754693,900.8727994995686 L 1147.4699256819972,897.8719511062836 L 1152.177819255313,895.3624407336137 L 1157.1522666398282,892.2320136909464 L 1162.1108721777655,889.0341113844909 L 1166.7844304898426,886.3435528728381 L 1171.1811411326762,884.1756401322251 L 1175.8355394560735,881.3763103051516 L 1180.2174884807573,879.1094919973096 L 1184.8505778903561,876.2014017960411 L 1189.2158411104965,873.8356680162447 L 1193.3205830022712,872.0265769820921 L 1197.9226914699516,868.9629784285097 L 1202.0160595374064,867.0692273936454 L 1206.1052821502196,865.1376016997941 L 1210.1900677446215,863.168090695233 L 1214.0285340184137,861.7869856072309 L 1217.6250115201417,861.0068338820527 L 1221.2224995586903,860.2055066939649 L 1225.059859745922,858.7449181405291 L 1228.4201066968194,858.5392668858357 L 1232.0200253080225,857.6743258161041 L 1235.1461780068594,858.0870779055695 L 1238.2739322047034,858.4932675426903 L 1241.4032773029815,858.8928917284279 L 1244.2946392130918,859.9452614001992"
   id = "astsonzahod"
/>
<path
   style = "fill:none; stroke:#ffffff; stroke-width:1px; stroke-opacity:1"
   d = "M 629.8754699324954,557.5423197097979 L 629.6248700791552,554.4731510797563 L 629.1255047423099,551.4343433920051 L 628.9504318180035,548.3560307376257 L 628.4788193607703,545.3137430840713 L 628.2137939392037,542.2464327868007 L 627.955447078373,539.178435260527 L 627.5904606262026,536.1232363290277 L 627.3421264276175,533.0541661740849 L 627.2204895806827,529.9704285264654 L 626.9888686037744,526.8997913116325 L 627.6090973073156,523.7353387842196 L 626.6757629734867,520.7420245532346 L 626.6010000182198,517.6546045264837 L 626.5396466392011,514.5663052174149 L 626.4917062854109,511.47717044471545 L 626.457182278452,508.3872440378673 L 626.4360778125189,505.2965698367997 L 626.4283959543685,502.205191691542 L 626.4341396432914,499.1131534618762 L 626.4533116910837,496.0204990169896 L 626.4859147820206,492.9272722351269 L 626.6957656753905,489.8189149866687 L 626.9258188657782,486.71038899871917 L 627.0054812827002,483.615874992659 L 627.2725572883643,480.5070151949559 L 627.559844157817,477.39826150111776 L 628.0481130139606,474.27657682394766 L 628.3792177272599,471.1686916658897 L 628.918100501468,468.04904091018625 L 629.2930253738866,464.94251227678023 L 629.688165725768,461.8366289498317 L 630.3012603604842,458.72080244232 L 630.9413524318613,455.60699270058353 L 631.6084357575234,452.4953760132079 L 632.3025031306289,449.38612865210973 L 633.0235463199034,446.279426866953 L 633.7715560697012,443.17544687956433 L 634.7646103384253,440.06853500488853 L 635.5699002699046,436.9714037314646 L 636.1772767623253,433.88159938745935 L 637.2612538496879,430.7871560768232 L 638.3788733906781,427.6984970342077 L 639.2951567524404,424.6165379134808 L 640.2383045236851,421.5385915134294 L 641.6916103749446,418.46799690526024 L 643.1851191304136,415.407199532037 L 644.2221122326557,412.3468411145073 L 645.2858714693148,409.2913147871707 L 646.6313620512269,406.247890478001 L 648.0102057247484,403.21237155850935 L 649.6839476743702,400.1954521752349 L 651.1326476553389,397.17814206969246 L 652.6145451038957,394.1695925477218 L 654.4010099347033,391.18563698166156 L 655.9524023311653,388.1971158673956 L 657.8147302177305,385.2374887028757 L 659.4353454627807,382.2702302591963 L 661.0888513806557,379.31316256598234 L 663.0627503886111,376.3915568126458 L 665.0757847420366,373.4847534995339 L 666.8339509971144,370.56370807694555 L 668.9217839398212,367.68539078839405 L 671.048429255516,364.8229922880373 L 673.2137671475168,361.9768972335742 L 675.1112908721374,359.1090218038493 L 677.350571927584,356.2942396684173 L 679.9406877757933,353.54026577925634 L 681.9439971974216,350.71728692963484 L 684.2978724098102,347.95587746732286 L 687.0112059761187,345.26412425105195 L 689.1192504389837,342.4890875559442 L 691.9139178430041,339.8409127169918 L 694.4215439796765,337.15870201723493 L 696.9664804287185,334.49658774333824 L 699.5485707002101,331.8549432303258 L 702.1676550166065,329.23414062010175 L 705.1653603648567,326.70544880493316 L 707.8607509000774,324.13038020073895 L 710.5926125459658,321.57730229319094 L 713.7108342180287,319.12679711891434 L 716.5178492671922,316.6218604939611 L 719.7161915801627,314.2268135087831 L 722.9555285736437,311.86192952231397 L 725.8750441668213,309.4338228139399 L 728.8298637737641,307.0300034304232 L 732.1855482015542,304.75118862077784 L 735.2129577988261,302.40031705933603 L 738.6457954436039,300.18224349952715 L 742.1180077753776,297.9970828659138 L 747.8259766431829,296.52720812130724 L 750.6891916470931,294.20706351413276 L 753.9072176977224,292.01467730719145 L 757.5405272809414,289.9777358606115 L 761.5954545228193,288.1085917632141 L 764.9198911224787,286.01040937705005 L 768.6652814981917,284.08093415543806 L 772.4473603337499,282.1881858102532 L 776.2657838452753,280.3326116592263 L 780.1202035604515,278.514655901564 L 783.6139198385458,276.577884898863 L 787.5373660222668,274.8322049706191 L 791.8958854618356,273.29089324936615 L 795.8907124764235,271.6277890996756 L 799.9197239891138,270.00447597787695 L 803.5771171118564,268.2427223268707 L 808.0787919925922,266.8789175515299 L 811.7993309226331,265.18988403375465 L 816.3700277627578,263.9175728577724 L 820.5642323920994,262.49951370594295 L 824.7902988003189,261.12374048312034 L 829.0478245298295,259.79065648959937 L 833.3364028263509,258.5006613356471 L 837.6556226718658,257.25415089943584 L 842.4237713746538,256.2720990212433 L 846.8042853546086,255.1185082302623 L 851.2141338599649,254.0095990082333 L 855.6528887402965,252.94575142329347 L 860.1201177563551,251.92734160108859 L 864.6153846153846,250.95474168452915 L 869.138249006812,250.0283197938569 L 873.6882666383092,249.14843998702446 L 878.6921089811856,248.57560198853906 L 883.2959388200866,247.79490361171662 L 887.9255135484841,247.06184283907703 L 892.5803729363324,246.37676658776928 L 897.2600529622943,245.74001751523042 L 901.9640858520263,245.1519339815565 L 906.6920001168178,244.61285001221086 L 911.8749937239198,244.41942946143251 L 916.6497188449032,243.98453733155372 L 921.4468344523377,243.5996449207746 L 926.2658542486326,243.2650680196778 L 931.1062884251483,242.98111789908552 L 935.9676437029311,242.74810127489872 L 940.8494233737803,242.5663202732967 L 945.7511273416421,242.43607239629773 L 950.6722521643321,242.3576504876849 L 955.6122910955778,242.33134269930054 L 960.5707341273808,242.357432457711 L 965.113199599816,242.08131827161543 L 969.6729281621818,241.84773277978917 L 975.1178107466267,242.3870563973199 L 979.7112868188653,242.2491872245992 L 984.7546144736926,242.53034628844836 L 989.3799232545871,242.4841181446826 L 994.020518283184,242.48150744343127 L 998.6760260993112,242.52271172790404 L 1003.3460713155478,242.60792551697284 L 1008.4634039310882,243.13903531720393 L 1012.7282629042622,242.9111444624333 L 1017.8723429656709,243.5414822116192 L 1022.1640523058564,243.39265931239152 L 1027.3331530849418,244.1230107072974 L 1031.218226360462,243.62692703358147 L 1035.9797974644666,244.02020253553337 L 1040.7528859273734,244.4589203095881 L 1045.1059190195178,244.50111012779735 L 1049.4703478850784,244.5790814310323 L 1053.4144521326602,244.24175884460885 L 1057.8010489294277,244.3868819986224 L 1062.1982943605942,244.56814529138518 L 1066.174558665048,244.32054918763816 L 1070.160978763307,244.1001638313199 L 1074.157392726394,243.9070729466003 L 1078.5956284381746,244.21955740765662 L 1082.611690625682,244.08568381612497 L 1086.2049704964425,243.4923909083426 L 1089.806848837462,242.91839788412182 L 1093.8507217486476,242.85859254396456 L 1097.0360490661178,241.8285104868334 L 1100.6631944384737,241.31271469075426 L 1103.8628673613105,240.31018233820993 L 1107.942132676942,240.33966256604083 L 1110.7197050641155,238.8545976574514 L 1113.501071382846,237.3751192848428 L 1117.1666953179276,236.94129016036277 L 1119.9588194967264,235.4790923531844 L 1123.1972641212017,234.54935389002907 L 1125.554323946183,232.57154586022432 L 1128.8034078267044,231.65916881340382 L 1131.1647769466401,229.6865077931787 L 1133.0761181023672,227.1757386596771"
   id = "pomsonvzhod"
/>
<path
   style = "fill:none; stroke:#ffffff; stroke-width:1px; stroke-opacity:1"
   d = "M 629.8754699324954,722.4576802902021 L 629.2517887489256,725.48076486557 L 629.028901086814,728.5537416835216 L 628.5506660199552,731.594884194397 L 628.2722735755598,734.6608962823852 L 628.0005569570317,737.7276210846841 L 627.6255743619389,740.7816092435804 L 627.3638663956835,743.849443069083 L 627.2254741740321,746.9319626024715 L 626.7405181816041,749.9727631148492 L 626.6188193663384,753.0570243302532 L 625.4131418735418,756.0096094604164 L 626.155530379073,759.1987024296625 L 626.0672967670268,762.2857668525031 L 625.8557155613761,765.3584146243386 L 625.7909273876721,768.4472419769063 L 625.7395510435733,771.5369341263059 L 625.7015899623354,774.6274472506816 L 625.6770474498335,777.7187375173828 L 625.9731619787811,780.8416980506876 L 625.9822132539746,783.9343986759196 L 626.0046936274298,787.0277155879706 L 626.2043713399794,790.1367429266413 L 626.4242506891738,793.2460051156443 L 626.4937859242066,796.3407632460094 L 627.0985850377165,799.4790064302226 L 627.3824806126943,802.588071655788 L 627.8673439492757,805.7102870942863 L 628.0109128984897,808.805553951611 L 628.5429883735014,811.9263729420029 L 628.7202094389941,815.0215119307032 L 629.6881657257682,818.1633710501683 L 630.3012603604842,821.2791975576799 L 630.7402162928073,824.3830161440646 L 631.1993844210535,827.4858702203862 L 632.3025031306288,830.6138713478903 L 633.0235463199034,833.7205731330471 L 633.7715560697011,836.8245531204357 L 634.5465221000962,839.9256351216503 L 635.7913727042335,843.0333079636833 L 636.6269660954625,846.1262499690481 L 637.4894712441063,849.2157069587875 L 638.8420469104617,852.3045344726772 L 639.7650518780569,855.3844872402808 L 640.7149124368103,858.4603686877552 L 642.174913822384,861.5277853694511 L 643.1851191304136,864.592800467963 L 644.4704407448813,867.6484178328394 L 646.2924744998888,870.6834251403658 L 647.39627716723,873.7291568305174 L 648.5267767201179,876.7695893848353 L 650.4686529676806,879.7715731796459 L 651.9272192980492,882.7841262775651 L 653.4189542493552,885.787810200557 L 655.4865268678042,888.7491584245738 L 656.7763384530873,891.7493318079328 L 658.6483417075948,894.7028486819586 L 660.5597151495655,897.6425139158405 L 662.2261079281769,900.5923387021775 L 664.5001612498917,903.478735145509 L 666.5290197357834,906.3745158784743 L 668.3030915924725,909.2859285920248 L 670.7034467082324,912.119485404052 L 672.548817757555,915.0035726952103 L 674.4265517620664,917.8755342482921 L 677.2550781195107,920.6146887335149 L 679.2066085428401,923.4552266500083 L 681.5024814374488,926.2376318801508 L 684.1516623693299,928.9540061883089 L 686.5265543681172,931.6973615659692 L 689.2603623645715,934.3683179972659 L 691.7136196670335,937.070943257525 L 693.8773285398796,939.8128850029375 L 697.0622271112586,942.3548551786805 L 699.6302976916311,944.9946596091592 L 701.8997506276578,947.6813760308828 L 705.2155467732313,950.1405635279897 L 707.8968550900628,952.7139540680572 L 711.3022482377155,955.1105958565965 L 713.715267922088,957.7143223654256 L 716.5081389307428,960.217744801312 L 720.040735170712,962.5242364229327 L 722.9105693771969,964.974887833253 L 726.5299532299787,967.2136614076026 L 729.4757811367091,969.6097773125593 L 732.4566460284308,971.9812222382209 L 736.2015123001238,974.1185565926735 L 739.2569117146254,976.4329334820136 L 743.0854212195472,978.4974099217075 L 746.2142983544745,980.7529980283422 L 749.1098047772858,983.0671224432073 L 755.2059983255411,984.3144348133278 L 758.8303097330639,986.3350928537254 L 762.4921384935452,988.3203079839354 L 766.5731630998471,990.1317639609106 L 770.3111125864314,992.0406558963639 L 774.0855313037507,993.9127101273214 L 777.8960733452064,995.7474814936988 L 781.3522833056551,997.6989321861586 L 785.6241204610735,999.3034107599394 L 789.5409104934351,1001.023694242872 L 793.8879521434677,1002.5372961289612 L 797.4782014854634,1004.346737395831 L 801.8970518731783,1005.7722578255128 L 805.9520842676097,1007.3294320421329 L 810.4425097837855,1008.6601383444736 L 814.1611996293439,1010.3210755937001 L 818.7199188542041,1011.5599867327501 L 822.4997782444898,1013.146364901143 L 827.5332010096438,1014.0873663874178 L 831.7840518453793,1015.3845388584642 L 836.0655650044145,1016.6384460879833 L 840.3773263924058,1017.848696076886 L 845.1322369611445,1018.7913614865466 L 849.5044568486315,1019.9083675936349 L 853.9056087585282,1020.9805319036296 L 858.7518371511682,1021.7690843205992 L 863.2106236755562,1022.7455776905631 L 867.6969867359516,1023.676083003929 L 872.6298347229589,1024.3067056667596 L 877.1709271786967,1025.1391953851328 L 882.1590370063682,1025.6606652552766 L 886.752841818453,1026.3936041176644 L 891.3718623146277,1027.078723667119 L 896.4384147142177,1027.4361819450537 L 901.1071112312472,1028.0195499443673 L 905.7995682279011,1028.5540608061053 L 910.9395257693918,1028.7440686243972 L 915.6785475564677,1029.174716186614 L 920.4398395059682,1029.555511343206 L 925.6480455171766,1029.5747780615225 L 930.4527186649882,1029.849689432087 L 935.2781377557476,1030.073796768801 L 940.5493205570142,1029.919183700985 L 945.4148674934578,1030.0354802754705 L 949.8738858029308,1030.4383180770506 L 955.2030214653767,1030.1126550901215 L 960.1246110856547,1030.0729672353507 L 964.638262543989,1030.3350839757568 L 970.0202480637906,1029.8356614889226 L 974.993258993226,1029.637506217744 L 979.5574123767105,1029.7566306756742 L 984.5624250721831,1029.4569748102815 L 989.5825407324508,1029.1034755314654 L 994.1930155509212,1029.0824816892045 L 999.6659521717313,1028.233962899942 L 1004.3050253245049,1028.1150960903901 L 1008.9578592119525,1027.9520389381473 L 1013.6240734833792,1027.7446068174945 L 1018.7257496830541,1027.0797228639758 L 1023.4172499344812,1026.777881493297 L 1027.699167889189,1026.8542608313314 L 1032.836401226457,1026.0392563374562 L 1037.5632751722321,1025.6021322094907 L 1042.301160408664,1025.1195787587408 L 1046.2096477668815,1025.4785623885018 L 1051.3892489123002,1024.466522835407 L 1055.739513034357,1024.3056528555735 L 1060.1001930249147,1024.1087039621502 L 1064.4710243985971,1023.875558118203 L 1068.4330372882,1024.0736754599432 L 1072.8237051394533,1023.7725781613972 L 1077.2237649646972,1023.4349509351173 L 1081.2148315148513,1023.5422015636813 L 1085.2151138995494,1023.6218852934767 L 1089.2244473698643,1023.6739239366011 L 1093.2426666708557,1023.6982402187448 L 1096.8507880213174,1024.193333163936 L 1100.4669783874751,1024.6688989438949 L 1104.5109784235792,1024.6184161892122 L 1108.143512739855,1025.0508235112475 L 1111.7838262408395,1025.463554016548 L 1115.8524502459609,1025.3377163659004 L 1119.087430773842,1026.229800153471 L 1121.4828679277111,1028.1609491542383 L 1125.5757913826494,1027.9770740581348 L 1128.8290948955073,1028.8322191921138 L 1131.2371199935149,1030.7476488433063 L 1134.5006275704045,1031.5851782405502 L 1136.9128257536747,1033.4953498417235 L 1139.325023936945,1035.4055214428968 L 1142.6028357636765,1036.2201275582938 L 1145.019195551002,1038.125032017709"
   id = "pomsonzahod"
/>
<path
   style = "fill:none; stroke:#ffffff; stroke-width:1px; stroke-opacity:1"
   d = "M 616.4048790553665,560.3442066417193 L 615.4108660419079,557.4296681713608 L 614.6570923187269,554.443777504069 L 613.8797600750985,551.4650175047333 L 613.0090854109352,548.5138514215578 L 612.2414424326064,545.5323492512346 L 611.4802729970688,542.5490669963806 L 610.6160388454648,539.5960084205134 L 609.8645677197393,536.6100156815154 L 609.2356355331492,533.5886455111211 L 608.6197471839109,530.5640530777914 L 608.7536667970038,527.3293623940687 L 607.1752535420005,524.5767093695208 L 606.5919446319909,521.5439708980126 L 606.0217162705161,518.5081519845592 L 605.4645790914253,515.4692952776549 L 604.9205436047183,512.427443457464 L 604.3896201964588,509.3826392354838 L 603.8718191286872,506.33492535420555 L 603.3671505393356,503.284344586778 L 603.1806413364314,500.15027960321436 L 602.8648457656989,497.0524639195416 L 602.4096469769696,493.99203341478415 L 602.2929415574347,490.84633160105176 L 602.0368717674368,487.738209107459 L 601.8007487146373,484.6268453006192 L 601.5845907663696,481.51233747181016 L 601.5647227492732,478.3527604492556 L 601.5717093326446,475.1900496607589 L 601.422367138228,472.06636110896454 L 601.4796857891275,468.8978413148884 L 601.5639333073409,465.72668165419975 L 601.6751335717571,462.5530568563977 L 601.8133094489137,459.3771418080148 L 601.9784827920863,456.1991115471086 L 602.1706744404065,453.01914125774715 L 602.5973617641415,449.7964931607615 L 602.6361909332014,446.65408202687104 L 603.1239560914673,443.42900166693977 L 603.6458066330531,440.20358033480886 L 603.9803190940559,437.0172645975584 L 604.5668730408195,433.79134764323294 L 605.1875601056535,430.56588090375465 L 605.8423923338993,427.34114083136 L 606.7668910169721,424.08102386704303 L 607.4935564283506,420.85935779241777 L 608.011850435423,417.67404718892715 L 608.8033437401057,414.4549809451547 L 609.6290124025728,411.23802548898254 L 610.7419211087968,407.99140427942075 L 611.6394416662089,404.78047889323926 L 612.5711284079568,401.5725330353333 L 613.8005705219139,398.3391210237636 L 614.804060052934,395.13905867510186 L 616.3829204962876,391.89072994529954 L 617.1875218423827,388.72572268944566 L 618.5744457982405,385.5157226815468 L 620.0024221031382,382.3132449229021 L 621.1868445590119,379.1390561117695 L 622.693325803716,375.95117723532337 L 624.532248588652,372.7549434247475 L 625.5340832495359,369.6174680495621 L 627.458156438922,366.44119802788134 L 629.1280510205656,363.2904207333383 L 630.5333932343882,360.1600754782383 L 632.5899100174636,357.02008031461145 L 634.3817433881895,353.9013127235937 L 635.8986137224813,350.7983117261846 L 638.0868642864664,347.6985684366391 L 640.0,344.61538461538464 L 641.6278470968872,341.54290081377263 L 643.9470165107439,338.4873719930687 L 646.3129409436499,335.45003805447504 L 648.0544456331918,332.4131307767516 L 650.1680841999981,329.3971589688833 L 652.3215421766923,326.39581016445004 L 654.8600558136309,323.4254978245938 L 657.0960834323668,320.457007694937 L 659.7233743112614,317.5256805098584 L 662.041464632119,314.5917868310362 L 664.3987952335623,311.67455444416925 L 667.1565415582652,308.80379739879544 L 669.5951334976008,305.92370884789574 L 672.0725771038069,303.06148511090066 L 674.5887421308057,300.21751129896677 L 677.5171999489847,297.43289267415446 L 680.4901802013183,294.6733631246105 L 683.1277681414899,291.89218786477693 L 686.186191093249,289.181049052344 L 688.5171666299719,286.38980871242376 L 694.0989602508425,284.08806918034094 L 696.4065311315396,281.3314129775057 L 699.6448041044803,278.73674917507503 L 702.5290475750245,276.1023781939405 L 705.8500682154083,273.56202944085425 L 708.8109961614223,270.9760762840323 L 712.2138659425077,268.49186595673024 L 715.2506772336235,265.9559742369662 L 718.7344625805307,263.5297110195875 L 722.2596513591146,261.1350171867768 L 725.4100574421271,258.6789885100627 L 729.0146631512005,256.34496921910875 L 732.2387843183725,253.94309271617527 L 735.498128213407,251.56711325154805 L 738.7924931195212,249.21738879475566 L 742.5504251261565,247.00590710290987 L 746.3478445748722,244.82920345819338 L 749.7509722371403,242.56779543034372 L 753.6241223546134,240.4578401252645 L 757.5358446181407,238.38403368205354 L 761.0454220085325,236.21456147232192 L 765.0311169339861,234.21009789509185 L 768.6095573264431,232.10259644921985 L 772.220900933701,230.0246793600922 L 776.3142797571986,228.12513752187203 L 780.444320224766,226.26437418983073 L 784.1572790071452,224.28533955457368 L 788.3576273262101,222.49889320212458 L 792.1361836577203,220.5863187020072 L 795.9460855542538,218.70544458304 L 800.2485618020439,217.03115131125014 L 804.1223693493505,215.21888482637382 L 808.4919217003411,213.62287283409904 L 812.8953508073441,212.06899019994432 L 816.3949476668621,210.17180402059853 L 820.8617420578362,208.69369940335787 L 824.8891672121226,207.0569731631412 L 828.9457126599627,205.45461090674115 L 833.5067109396484,204.09774705434876 L 837.622329356848,202.56953130860506 L 841.287275782488,200.85680442760804 L 846.4182547149312,199.84427045576325 L 850.13746897224,198.19801981422597 L 854.3643116795165,196.812899800217 L 859.1030126931053,195.70304188688357 L 862.8989250538525,194.15252099481273 L 867.2060974612119,192.87784926396995 L 871.5394437013285,191.6405767679106 L 875.4081249025472,190.183933123985 L 879.791628992178,189.01753718590192 L 884.2004232817342,187.88936852634498 L 888.1396817375812,186.52875967400837 L 892.5969647324969,185.4730223540854 L 897.0786326499286,184.45632032650883 L 901.086221933725,183.19385453032822 L 905.1151845988302,181.9616326160875 L 909.6661025726426,181.05373690025334 L 913.7384522381756,179.8870289192222 L 917.831503803036,178.75116921892305 L 921.4405242410212,177.33906946838164 L 926.0788480216806,176.5727566549939 L 929.7258746037562,175.21426281520422 L 933.8984564581368,174.19913819996555 L 938.0906813914196,173.21578026053987 L 942.3023265879647,172.26437280342753 L 946.0217623473043,171.01100122726763 L 949.7578591906931,169.78123179590773 L 953.5104817501533,168.5751859017393 L 957.2794939161787,167.3929842042685 L 960.5477702026365,165.88480124270006 L 963.8292968583934,164.3929751175868 L 967.6442232057495,163.27469704326472 L 971.4750404021579,162.18070378132637 L 975.3216089436885,161.11111256951244 L 978.1359287653283,159.32719839924482 L 982.0113431319546,158.2983026885363 L 985.375383864174,156.91708925015325 L 988.7521081035763,155.5527615347312 L 992.1414412721167,154.2053877009376 L 995.0117261484133,152.48748790923014 L 997.3573049535355,150.38970414885426 L 1001.3150477930492,149.4762325678587 L 1004.2145678877445,147.79226072976536 L 1006.0447918469793,145.31885500478938 L 1008.9587624436839,143.64921056551316 L 1011.881751739302,141.9899379581716 L 1014.8137283220605,140.34106856822666 L 1016.660101367982,137.8796945217647 L 1019.6063992189844,136.2452936624768 L 1021.45813775176,133.787953631562 L 1024.4187076442747,132.16807590476805 L 1025.7189383195328,129.29372372991895 L 1027.0133533500866,126.41593353881785"
   id = "civsonvzhod"
/>
<path
   style = "fill:none; stroke:#ffffff; stroke-width:1px; stroke-opacity:1"
   d = "M 616.2311533626277,719.6041272639683 L 615.290798412583,722.5344810610268 L 614.5637800540137,725.5285267754227 L 613.5901704029196,728.4490302932982 L 612.8095579887732,731.4270458633829 L 611.9324469561531,734.376305407363 L 611.1615188454479,737.357080771232 L 610.397061418445,740.339646827969 L 609.7518046938609,743.3570501553539 L 609.1195770785241,746.3777324697132 L 608.1425430180101,749.297983422398 L 606.6290324854461,752.0597360531532 L 606.6719384942448,755.2789673629522 L 606.0754023609846,758.309131807793 L 605.4919332108211,761.3424337397345 L 604.9215418635904,764.3788305570868 L 604.6423071650306,767.4957215014485 L 604.1047422932002,770.5393601830599 L 603.5802933827418,773.5859371455279 L 603.0689706648802,776.6354096379232 L 602.7231821663669,779.7284807033045 L 602.553071242896,782.8661796162397 L 602.0911967191508,785.9256097488012 L 601.9676287260564,789.071049464795 L 601.5388003885832,792.1367417669271 L 601.4618682511386,795.2894471665973 L 601.4117304351959,798.4456635324259 L 601.3884158667279,801.6052170025313 L 601.0325767620781,804.6833117854828 L 601.0560848713498,807.8490759666399 L 601.4796857891274,811.1021586851116 L 601.1838196795311,814.1890491833169 L 601.28809590956,817.3629090296054 L 601.4193426915842,820.5391179726349 L 601.9784827920863,823.8008884528914 L 602.1706744404064,826.9808587422528 L 602.5973617641416,830.2035068392386 L 602.847120800186,833.3865605258445 L 603.1239560914673,836.5709983330603 L 603.8637723037735,839.8359570604775 L 604.4232440953996,843.0608350306088 L 604.7918328229636,846.2471812096671 L 605.6445569586583,849.5095695820381 L 606.0743874399143,852.6959928085192 L 606.766891016972,855.9189761329569 L 607.7326210790578,859.1759708508229 L 608.4969661629241,862.3952109758148 L 609.5416038171397,865.6459019885282 L 610.128165491551,868.8276892618599 L 611.24815457234,872.0718747568154 L 612.4093462345,875.3110711451769 L 613.3515259469734,878.5159508935308 L 614.8552610785968,881.7728947527387 L 615.6054990935324,884.9420835664132 L 616.9242667297533,888.1602040323979 L 618.2841263879401,891.3714232582896 L 619.4073568871245,894.5530294943937 L 621.126979476651,897.7715577022232 L 622.6098930669218,900.9596732155401 L 624.4218796492239,904.1564383873402 L 625.6984686671549,907.310003178274 L 627.0089990465284,910.4574092636174 L 628.9503673971931,913.6231379026167 L 630.6374218801641,916.764760516028 L 632.6704544737954,919.904050993156 L 634.1334286180224,923.016126252407 L 635.9422454913908,926.1250745687748 L 638.107002557135,929.2245743890097 L 640.0,932.3076923076924 L 642.2554804999262,935.3760041263197 L 644.2322815842481,938.4315293889372 L 646.2491738634113,941.4736997036509 L 648.6382216193613,944.4928795089197 L 650.7383066776927,947.5048698520295 L 652.5394707065562,950.5161452602728 L 655.3997008658357,953.468112409008 L 657.6220886193529,956.4327711838364 L 660.5806704972739,959.3374954525112 L 662.5367069019478,962.2899239300971 L 664.880311684366,965.2034769977645 L 667.9787476272345,968.0397675427411 L 670.4066917404539,970.9136374709644 L 672.8734409105293,973.7696467915983 L 676.113143163119,976.5294250264478 L 678.2930627484695,979.3849761780874 L 681.2517212127874,982.1374852461975 L 684.2546257884683,984.8644210769285 L 686.9223941195413,987.6166598201651 L 690.3922904099502,990.2395147023751 L 693.1416244404643,992.9448265551789 L 695.429686301152,995.7071124908186 L 701.4868967821074,997.8326614426252 L 704.3684840375021,1000.451574162145 L 707.6829470440216,1002.9743511960338 L 711.0396567401906,1005.4673513758994 L 714.4383502946839,1007.9300768799169 L 717.8787597389073,1010.3620321742012 L 720.9539426073825,1012.851252927299 L 724.474373269457,1015.2240322041922 L 728.0357204379417,1017.5646135044433 L 731.2232652606151,1019.9722458169383 L 734.8630935356587,1022.2509468716241 L 738.5429965514135,1024.496042664617 L 742.2626719990657,1026.707054390803 L 746.0218125969064,1028.883505912537 L 749.3934988363869,1031.1444862936146 L 753.2283286364288,1033.2545843081907 L 757.101711354848,1035.328752222578 L 760.5797890133923,1037.4982933041483 L 764.9628249728362,1039.3674392666558 L 768.5120275902692,1041.4714601573205 L 772.5342061153353,1043.4016721103778 L 776.5932987869755,1045.2936969478599 L 780.2447434584674,1047.3003094889366 L 784.3746282645039,1049.1191170314423 L 788.0920973363709,1051.0602216883117 L 792.2915051140969,1052.804187805893 L 796.5261183143258,1054.5078214566806 L 800.7955645652419,1056.17068716335 L 804.6436280053764,1057.9721997703864 L 808.5221126621018,1059.7410464376958 L 813.3498638622295,1061.099718152293 L 817.2921024119573,1062.7936762427612 L 821.2638894236495,1064.4539478792733 L 825.7296231259803,1065.8778730044367 L 830.2275992231433,1067.2581832666935 L 834.2897709540687,1068.8066621936614 L 838.8495947477493,1070.1034947352193 L 843.4404759530032,1071.3555309090063 L 847.1177959791727,1073.015263690242 L 851.2932346818358,1074.417405944046 L 855.9710793974073,1075.5479939043416 L 860.2020065383144,1076.8727753919102 L 864.4594670614781,1078.16071429534 L 869.2223465973548,1079.1617389757052 L 873.5332868746025,1080.370422765867 L 877.3880176957828,1081.8005856230088 L 882.2315940771624,1082.6743060325157 L 886.6183383482955,1083.768942672047 L 891.0297236464007,1084.8250048576444 L 895.465432197518,1085.842217353427 L 899.4375837902812,1087.1035758889457 L 903.9199487395663,1088.0471634295932 L 908.4257116791387,1088.9511162311207 L 912.4637105316842,1090.1126484179174 L 917.0143829124991,1090.9415025922976 L 921.0945789615807,1092.036853551071 L 925.1949155886601,1093.101033449395 L 929.8103846861026,1093.817991413364 L 933.9514335882972,1094.8147535171092 L 937.6145710740266,1096.1046856196353 L 941.7932649991177,1097.0423274779896 L 946.4903513712412,1097.6138219923687 L 950.2075195509385,1098.8211600877094 L 954.442626465687,1099.6619935026474 L 958.696081692183,1100.470202634274 L 962.464321965715,1101.5976411995266 L 966.7529691287726,1102.3447573838425 L 970.5539901739194,1103.4196027566743 L 973.8637208279758,1104.8344980629727 L 977.1862326786525,1106.2326673596344 L 981.0313367069273,1107.2423127919565 L 984.8916365297285,1108.2272325488623 L 988.7669893746263,1109.1873133957838 L 991.6307652584488,1110.8907022276696 L 995.5337982929026,1111.8092859356314 L 999.4515067454724,1112.702727659022 L 1002.3497098788356,1114.362569680658 L 1005.7758885375473,1115.6132876240608 L 1008.1729176823424,1117.6510000337069 L 1012.142600719453,1118.468776344771 L 1015.0799141984007,1120.0803975819417 L 1016.9742571994029,1122.5050460545776 L 1020.9808918829747,1123.2719574650737 L 1023.9444918358562,1124.8518348373234 L 1025.8546634370296,1127.2640330205936 L 1028.8322191921134,1128.8290948955075 L 1030.7476488433063,1131.237119993515 L 1033.2013280904112,1133.2165225062356 L 1035.6597883959184,1135.1911535882473 L 1037.5804669803647,1137.5949941396466 L 1040.0463218911993,1139.5627491530197 L 1042.5169405737486,1141.5257137428073"
   id = "civsonzahod"
/>
<path
   style = "fill:none; stroke:#ffffff; stroke-width:1px; stroke-opacity:1"
   d = "M 556.9230769230769,640.0 L 553.8465183453735,639.749388973655 L 550.769283857598,639.9026643494807 L 547.6925273682444,639.7986160152919 L 544.6154413650185,639.8959515459966 L 541.5386958594607,639.7851904163114 L 538.461598872439,639.8892387425125 L 535.384864350677,639.7717648173309 L 532.3077563798596,639.8825259390284 L 529.2310328418934,639.7583392183503 L 526.1539138872802,639.8758131355444 L 523.08137514942,638.9796666186517 L 520.0002855787178,639.7382008198796 L 516.923150148411,639.8657439303182 L 513.8464540699341,639.724775220899 L 510.76930765583154,639.8590311268341 L 507.69262256115036,639.7113496219185 L 504.6157068067585,639.7046368224283 L 501.53854391696234,639.848961921608 L 498.4618752979748,639.6912112234477 L 495.3847014243829,639.8422491181238 L 492.3080437891911,639.6777856244671 L 489.2308589318034,639.8355363146397 L 486.15384615384613,640.0 L 483.0772965260155,639.6576472259964 L 480.0000951929343,639.8254671094137 L 476.9230769230769,640.0 L 473.84654926283997,639.6375088275255 L 470.7693314540651,639.8153979041875 L 467.6923076923077,640.0 L 464.6158019996644,639.6173704290547 L 461.5385677151959,639.8053286989614 L 458.46153846153845,640.0 L 455.38461538461536,640.0 L 452.30780397632674,639.7952594937352 L 449.230882730037,639.7919030919932 L 446.15384615384613,640.0 L 443.0769230769231,640.0 L 440.0,640.0 L 436.9230769230769,640.0 L 433.84627649858834,640.224878916717 L 430.7692307692308,640.0 L 427.6923076923077,640.0 L 424.61538461538464,640.0 L 421.53846153846155,640.0 L 418.46153846153845,640.0 L 415.38461538461536,640.0 L 412.30769230769226,640.0 L 409.23090652827057,640.2517301306533 L 406.15440266621926,640.5101727612604 L 403.0774869118274,640.5168855607506 L 400.00057115743556,640.5235983602408 L 396.92365540304365,640.5303111597311 L 393.84673964865186,640.5370239592214 L 390.76982389426,640.5437367587117 L 387.6929081398681,640.550449558202 L 384.61599238547626,640.5571623576922 L 381.53907663108447,640.5638751571825 L 378.46216087669256,640.5705879566727 L 375.3852451223007,640.577300756163 L 372.30832936790887,640.5840135556533 L 369.231413613517,640.5907263551436 L 366.1544978591252,640.5974391546338 L 363.0775821047334,640.6041519541241 L 360.001499287525,640.9162962218276 L 356.9257716113613,641.2351521667589 L 353.84887782452824,641.2485777337889 L 350.77077948381697,640.9465037895799 L 347.6930033327741,640.6377159515752 L 344.6181964640292,641.2888544348789 L 341.5413026771962,641.3022800019089 L 338.46440889036313,641.3157055689388 L 335.38624647763703,640.9968497358341 L 332.31062131669705,641.3425567029989 L 329.23372752986404,641.3559822700288 L 326.156833743031,641.3694078370588 L 323.079939956198,641.3828334040888 L 320.0047596353851,641.7453205987243 L 316.92615238253194,641.4096845381488 L 313.84925859569887,641.4231101051788 L 310.7762823444251,642.1547949615589 L 307.6972503905922,641.8124483140599 L 304.61857723519984,641.4633868062688 L 301.54571082137164,642.2152097735652 L 298.46885364702047,642.235348044234 L 295.3878958747007,641.5036635073589 L 292.3151392983182,642.2756245855716 L 289.238282123967,642.2957628562403 L 286.15910921220467,641.9299218158972 L 283.0845677752646,642.3360393975779 L 280.0006294388728,640.6731980334199 L 276.9308534265623,642.3763159389155 L 273.8539962522111,642.3964542095841 L 270.77713907786,642.4165924802529 L 267.7064840284162,643.2489562932409 L 264.6234247291576,642.4568690215905 L 261.5494947131529,642.8898343905303 L 258.47606627705466,643.3295089286103 L 255.39285320610412,642.5172838335967 L 252.31899458420537,642.960318156153 L 249.24564852569307,643.4100615639799 L 246.1622816830506,642.5776986456032 L 243.09203669145194,643.4637633208929 L 240.01523077433149,643.4906141993495 L 236.93842485721092,643.517465077806 L 233.8616189400904,643.5443159562626 L 230.7848130229699,643.5711668347191 L 227.70800710584933,643.5980177131756 L 224.63120118872882,643.6248685916323 L 221.5543952716083,643.6517194700889 L 218.4775893544878,643.6785703485455 L 215.40987787685947,644.6317434652219 L 212.32397752024667,643.7322721054583 L 209.24717160312622,643.7591229839148 L 206.17475365149153,644.2592062355018 L 203.10291781531913,644.7659968989965 L 200.01675385176463,643.8396756192847 L 196.93994793464407,643.8665264977411 L 193.87269776916395,644.8666869743273 L 190.7959577537789,644.900250332771 L 187.70953018328248,643.9470791331104 L 184.637330073906,644.4706561904555 L 181.5657377076236,645.0009404081019 L 178.48899769223857,645.0345037665455 L 175.41225767685347,645.0680671249892 L 172.33023088671422,644.5914847361436 L 169.25877764608333,645.1351938418765 L 166.18203763069823,645.1687572003201 L 163.10529761531313,645.2023205587637 L 160.02855759992815,645.2358839172074 L 156.95181758454305,645.269447275651 L 153.88780382555962,646.3635572316074 L 150.8044499051881,645.8702069439273 L 147.7215975383878,645.370137350982 L 144.6448575230027,645.4037007094256 L 141.56811750761761,645.4372640678691 L 138.49137749223257,645.4708274263128 L 135.41463747684747,645.5043907847564 L 132.35118753935024,646.6454869823748 L 129.2745280698918,646.685762661056 L 126.19786860043337,646.726038339737 L 123.12120913097488,646.766314018418 L 120.04454966151638,646.8065896970991 L 116.9678901920579,646.8468653757801 L 113.8912307225994,646.8871410544612 L 110.81457125314091,646.9274167331423 L 107.7379117836823,646.9676924118234 L 104.66125231422382,647.0079680905044 L 101.58459284476533,647.0482437691854 L 98.50793337530695,647.0885194478665 L 95.43127390584846,647.1287951265475 L 92.35461443638997,647.1690708052287 L 89.27795496693159,647.2093464839097 L 86.2012954974731,647.2496221625908 L 83.1246360280146,647.2898978412718 L 80.04797655855612,647.3301735199528 L 76.9796919775722,647.9846137104885 L 73.91217253076229,648.6457565285787 L 70.83560825103814,648.6927443357993 L 67.74133868072204,647.4912762346771 L 64.66467921126355,647.5315519133582 L 61.588019741805056,647.5718275920392 L 58.51136027234668,647.6121032707202 L 55.43470080288819,647.6523789494013 L 52.37622257269345,648.9746711791228 L 49.29965829296941,649.0216589863433 L 46.223094013245145,649.0686467935637 L 43.12806292505434,647.8134816641256 L 40.051403455595846,647.8537573428066 L 36.974743986137355,647.8940330214876 L 33.91683689434876,649.2565980224457 L 30.84027261462461,649.3035858296662 L 27.753872696922713,648.6827220130448 L 24.66810610830339,648.0551357362119 L 21.5914466388449,648.095411414893 L 18.534015495728227,649.4915370585484 L 15.457451216004074,649.5385248657689 L 12.370804171719783,648.900880857594 L 9.284808761010936,648.2565141296172 L 6.227758376831616,649.6794882874302 L 3.1511940971075774,649.7264760946507 L 0.07462981738342478,649.7734639018713 L -3.021829116823028,648.4176168443415"
   id = "poldne"
/>
</svg>
