<?xml version="1.0" encoding="UTF-8" standalone="no"?>
<svg
   version="1.1"
   id="svg3"
   width="800"
   height="800"
   xmlns="http://www.w3.org/2000/svg"
   xmlns:svg="http://www.w3.org/2000/svg">
  <defs
     id="defs7" />
  <path
     style="fill:none;stroke:#000000;stroke-width:1px;stroke-linecap:butt;stroke-linejoin:miter;stroke-opacity:1"
     d="m 400,790 v 10 m 6.70875,-10.05771 0.17202,9.99852 m 6.53475,-10.17162 0.34399,9.99408 m 6.35881,-10.28252 0.51585,9.98668 m 6.18099,-10.39038 0.68757,9.97633 m 6.00134,-10.49518 0.85908,9.96303 m 5.81991,-10.59685 1.03033,9.94678 m 5.63677,-10.69541 1.20129,9.92758 m 5.45195,-10.79078 1.37188,9.90545 m 5.26552,-10.88297 1.54208,9.88038 m 5.07753,-10.97194 1.71181,9.8524 m 4.88804,-11.05766 1.88103,9.82149 m 4.69711,-11.1401 2.04971,9.78768 m 4.50478,-11.21926 2.21776,9.75098 m 4.31113,-11.29509 2.38517,9.71138 m 4.11619,-11.36758 2.55187,9.66892 m 3.92004,-11.4367 2.71782,9.62359 m 3.72272,-11.50244 2.88297,9.57541 m 3.5243,-11.56478 3.04726,9.5244 m 3.32484,-11.62369 3.21064,9.47058 m 3.12441,-11.67917 3.37308,9.41395 m 2.92304,-11.73118 3.53451,9.35452 m 2.72081,-11.77972 3.69491,9.29234 m 2.51777,-11.82479 3.85421,9.22741 m 2.31399,-11.86635 4.01237,9.15974 m 2.10952,-11.9044 4.16934,9.08937 m 1.90444,-11.93892 4.32507,9.0163 m 1.69878,-11.96992 4.47954,8.94057 m 1.49262,-11.99737 4.63267,8.86219 m 1.28602,-12.02127 4.78443,8.78118 m 1.07904,-12.04161 4.93477,8.69759 m 0.87175,-12.0584 5.08366,8.61141 m 0.66419,-12.0716 5.23103,8.52269 m 0.45644,-12.08125 5.37687,8.43145 m 0.24855,-12.08731 5.52111,8.3377 m 0.0406,-12.08979 5.66372,8.24149 m -0.16739,-12.0887 5.80465,8.14285 m -0.37531,-12.08404 5.94387,8.0418 m -0.58313,-12.0758 6.08132,7.93836 m -0.79076,-12.06397 6.21697,7.83257 m -0.99817,-12.04859 6.35079,7.72447 m -1.20528,-12.02963 6.48272,7.61408 m -1.41203,-12.00712 6.61274,7.50144 m -1.61837,-11.98106 6.7408,7.38658 m -1.82423,-11.95144 6.86687,7.26953 m -2.02955,-11.9183 6.99091,7.15033 m -2.23427,-11.88161 7.11287,7.02901 m -2.43833,-11.84143 7.23274,6.90562 m -2.64166,-11.79773 7.35045,6.78019 m -2.84421,-11.75055 7.46599,6.65274 m -3.04592,-11.69988 7.57933,6.52332 m -3.24673,-11.64575 7.69042,6.39198 m -3.44658,-11.58818 7.79924,6.25874 m -3.64541,-11.52717 7.90574,6.12365 m -3.84316,-11.46276 8.00992,5.98675 m -4.03977,-11.39495 8.11171,5.84808 m -4.23519,-11.32378 8.21111,5.70768 m -4.42935,-11.24925 8.30808,5.56559 m -4.62221,-11.17139 8.40259,5.42185 m -4.81369,-11.09023 8.49461,5.27651 m -5.00376,-11.00578 8.58413,5.1296 m -5.19234,-10.91808 8.67109,4.98118 m -5.37938,-10.82715 8.7555,4.83129 m -5.56483,-10.73301 8.8373,4.67995 m -5.74863,-10.63569 8.9165,4.52725 m -5.93074,-10.53524 8.99306,4.3732 m -6.11109,-10.43165 9.06696,4.21785 m -6.28963,-10.32499 9.13817,4.06125 m -6.4663,-10.21526 9.20668,3.90346 m -6.64108,-10.10252 9.27247,3.74451 m -6.81388,-9.98679 9.33551,3.58446 m -6.98466,-9.8681 9.39579,3.42333 m -7.15338,-9.74649 9.45329,3.2612 m -7.31998,-9.62199 9.50798,3.0981 m -7.4844,-9.49465 9.55987,2.93409 m -7.64663,-9.3645 9.60892,2.76921 m -7.80658,-9.23158 9.65514,2.6035 m -7.96423,-9.09592 9.6985,2.43703 m -8.11952,-8.95757 9.73899,2.26983 m -8.27241,-8.81658 9.77659,2.10198 m -8.42284,-8.67298 9.8113,1.93349 m -8.57079,-8.5268 9.84311,1.76442 m -8.7162,-8.3781 9.872,1.59484 m -8.85903,-8.22693 9.89798,1.42479 m -8.99923,-8.07332 9.92102,1.25432 m -9.13678,-7.91733 9.94113,1.08348 m -9.27163,-7.75899 9.9583,0.91231 m -9.40372,-7.59835 9.97252,0.74087 m -9.53304,-7.43546 9.98379,0.56921 m -9.65953,-7.27037 9.9921,0.39739 m -9.78316,-7.10313 9.99746,0.22544 m -9.90391,-6.93379 9.99986,0.0534 m -10.02171,-6.7624 9.99929,-0.11858 m -10.13655,-6.58901 9.99577,-0.29058 m -10.2484,-6.41366 9.9893,-0.46249 m -10.35721,-6.23642 9.97987,-0.63425 m -10.46296,-6.05733 9.96748,-0.80583 m -10.56561,-5.87646 9.95214,-0.97717 m -10.66513,-5.69384 9.93386,-1.14822 m -10.7615,-5.50953 9.91264,-1.31893 m -10.85468,-5.3236 9.88849,-1.48926 m -10.94465,-5.13609 9.8614,-1.65913 m -11.03138,-4.94707 9.8314,-1.82852 m -11.11484,-4.75657 9.79849,-1.99737 m -11.19502,-4.56467 9.76268,-2.16563 m -11.27189,-4.37142 9.72399,-2.33324 m -11.34542,-4.17688 9.68242,-2.50017 m -11.4156,-3.98109 9.63798,-2.66636 m -11.48239,-3.78413 9.59069,-2.83176 m -11.54578,-3.58605 9.54055,-2.99632 m -11.60576,-3.38691 9.48759,-3.15999 m -11.6623,-3.18677 9.43184,-3.32272 m -11.7154,-2.98569 9.37328,-3.48448 m -11.76502,-2.78371 9.31195,-3.6452 m -11.81116,-2.58093 9.24787,-3.80484 m -11.85381,-2.37737 9.18105,-3.96336 m -11.89296,-2.17311 9.11152,-4.12071 m -11.92858,-1.9682 9.03929,-4.27684 m -11.96067,-1.76271 8.96437,-4.4317 m -11.98922,-1.55671 8.88682,-4.58524 m -12.01423,-1.35025 8.80663,-4.73743 m -12.03568,-1.14338 8.72384,-4.88822 m -12.05357,-0.93617 8.63846,-5.03757 m -12.06789,-0.72869 8.55052,-5.18542 m -12.07863,-0.52098 8.46005,-5.33175 m -12.0858,-0.31313 8.36708,-5.47648 m -12.0894,-0.10519 8.27164,-5.6196 m -12.08943,0.10279 8.17376,-5.76106 m -12.08587,0.31074 8.07344,-5.90081 m -12.07874,0.51859 7.97074,-6.03882 m -12.06803,0.72629 7.86568,-6.17503 m -12.05374,0.93378 7.75829,-6.30943 m -12.0359,1.14099 7.64861,-6.44195 m -12.01449,1.34786 7.53666,-6.57257 m -11.98953,1.55433 7.4225,-6.70124 m -11.96102,1.76034 7.30611,-6.82793 m -11.92896,1.96584 7.18758,-6.9526 m -11.89339,2.17075 7.06693,-7.07521 m -11.85429,2.37501 6.94417,-7.19572 m -11.81168,2.57858 6.81936,-7.31412 m -11.76557,2.78138 6.69254,-7.43034 m -11.71599,2.98336 6.56373,-7.544364 m -11.66293,3.184454 6.43298,-7.656154 m -11.60643,3.384611 6.30033,-7.765685 m -11.54649,3.583763 6.16581,-7.872914 m -11.48314,3.781855 6.02947,-7.977812 m -11.41638,3.978827 5.89135,-8.080351 m -11.34625,4.174622 5.75147,-8.180497 m -11.27275,4.369182 5.6099,-8.278223 m -11.19593,4.562448 5.46667,-8.3735 m -11.11579,4.754365 5.32182,-8.466298 m -11.03236,4.944875 5.1754,-8.556591 m -10.94567,5.133921 5.02744,-8.644352 M 590.242,59.54735 595.12,50.817796 m -10.76259,5.5074 4.72711,-8.812174 m -10.66626,5.691723 4.57483,-8.892186 m -10.56678,5.874361 4.42119,-8.969566 m -10.46416,6.055261 4.26624,-9.044291 m -10.35845,6.234367 4.11003,-9.11634 m -10.24967,6.411631 3.9526,-9.185692 m -10.13786,6.586996 3.794,-9.252325 m -10.02305,6.760412 3.63428,-9.31622 m -9.90528,6.931828 3.47349,-9.377359 m -9.78457,7.101192 3.31167,-9.435722 m -9.66097,7.268456 3.14886,-9.491293 m -9.53451,7.433567 2.98514,-9.544055 m -9.40523,7.596479 2.82051,-9.593993 m -9.27316,7.757143 2.65506,-9.641092 m -9.13835,7.915512 2.48882,-9.685338 m -9.00084,8.071538 2.32185,-9.726717 m -8.86066,8.225175 2.15419,-9.7652176 m -8.71786,8.3763786 1.98589,-9.8008292 m -8.57248,8.5251032 1.817,-9.8335401 m -8.42457,8.6713051 1.64758,-9.8633411 m -8.27416,8.8149411 1.47767,-9.8902235 m -8.1213,8.9559675 1.30732,-9.914178 m -7.96604,9.094345 1.13658,-9.9352001 m -7.80842,9.2300301 0.96551,-9.953281 m -7.64849,9.362984 0.79415,-9.9684166 m -7.48629,9.4931676 0.62255,-9.9806027 m -7.32189,9.6205417 0.45078,-9.98983515 m -7.15531,9.74506815 0.27886,-9.99611064 m -6.98661,9.86671164 0.10687,-9.99942886 M 397.45895,10.008278 397.3938,0.00849045 M 390.75072,10.109694 390.51356,0.11250655 M 384.04522,10.326489 383.63613,0.33486065 M 377.34445,10.6586 376.76354,0.67548695 M 370.65038,11.105928 369.89782,1.1342847 M 363.96499,11.66834 363.04102,1.711118 m -5.75075,10.634553 -1.09512,-9.9398548 M 350.62819,13.13772 349.36224,3.2181739 m -5.38153,10.8260781 -1.43639,-9.8963016 m -5.1945,10.9170486 -1.60641,-9.8701282 M 330.73747,16.199659 328.9615,6.3586251 M 324.14561,17.447897 322.20062,7.6388691 M 317.5762,18.809343 315.46277,9.0352237 m -4.43159,11.2483703 -2.28125,-9.736318 m -4.23744,11.322938 -2.4484,-9.695636 m -4.04203,11.394155 -2.61482,-9.652084 m -3.84544,11.461999 -2.78047,-9.605675 M 285.13364,27.299425 282.18835,17.743 m -3.44889,11.587494 -3.10924,-9.504346 M 272.38118,31.471255 269.1089,22.0218 m -3.04825,11.699274 -3.43434,-9.391767 m -2.84654,11.749978 -3.59539,-9.3313 m -2.644,11.797206 -3.75538,-9.268072 m -2.44067,11.840942 -3.91425,-9.202101 m -2.23663,11.881175 -4.07196,-9.133407 m -2.03191,11.917891 -4.22848,-9.06201 m -1.8266,11.951081 -4.38373,-8.987931 m -1.62075,11.980733 -4.5377,-8.911193 m -1.41442,12.006841 -4.69031,-8.831817 m -1.20767,12.029394 -4.84154,-8.749827 m -1.00056,12.048389 -4.99134,-8.66525 m -0.79316,12.063818 -5.13966,-8.578106 m -0.58552,12.075677 -5.28646,-8.488426 m -0.37771,12.083963 -5.43169,-8.396232 m -0.16979,12.088671 -5.57532,-8.301554 m 0.0382,12.089804 -5.7173,-8.20442 m 0.24615,12.087358 -5.85759,-8.104857 m 0.45404,12.081335 -5.99613,-8.002896 m 0.66179,12.071737 -6.13292,-7.898567 m 0.86936,12.058567 -6.26788,-7.7919 m 1.07665,12.041829 -6.40098,-7.682928 m 1.28364,12.021528 -6.5322,-7.571684 m 1.49024,11.997664 -6.66148,-7.45819 m 1.6964,11.97025 -6.78879,-7.3425 m 1.90206,11.93931 -6.91409,-7.22464 m 2.10716,11.90482 -7.03734,-7.10463 m 2.31163,11.86681 -7.15851,-6.98252 m 2.51542,11.82528 -7.27757,-6.85835 m 2.71847,11.78027 -7.39447,-6.73214 m 2.92071,11.73176 -7.509181,-6.60395 m 3.122091,11.67978 -7.621674,-6.4738 m 3.322542,11.62435 -7.731907,-6.34173 m 3.522012,11.56547 -7.839853,-6.20779 m 3.720439,11.50318 -7.945479,-6.07201 m 3.917766,11.43747 -8.048755,-5.93443 m 4.113933,11.36839 -8.149647,-5.79511 m 4.308883,11.29595 -8.248129,-5.65406 m 4.502557,11.22015 -8.344168,-5.51134 m 4.694899,11.14104 -8.43774,-5.36699 m 4.885852,11.05863 -8.528814,-5.22105 m 5.075359,10.97295 -8.617364,-5.07357 m 5.263363,10.88402 -8.703363,-4.92458 m 5.44981,10.79187 -8.786788,-4.77413 m 5.634645,10.69652 -8.867612,-4.62228 m 5.817812,10.59801 -8.945812,-4.46905 m 5.999257,10.49637 -9.021365,-4.31451 m 6.178928,10.39161 -9.094248,-4.15868 m 6.356769,10.28379 -9.164439,-4.00163 m 6.532729,10.17291 -9.231919,-3.84339 m 6.706757,10.05904 -9.296668,-3.68402 m 6.8788,9.94218 -9.358664,-3.52355 m 7.048806,9.82238 -9.417891,-3.36204 m 7.216727,9.69967 -9.474331,-3.19954 m 7.382512,9.5741 -9.527968,-3.03609 m 7.546113,9.44568 -9.578784,-2.87174 m 7.70748,9.31449 -9.626766,-2.70655 m 7.866567,9.18052 -9.6719,-2.54054 m 8.023326,9.04384 -9.714171,-2.37379 m 8.17771,8.90449 -9.7535675,-2.20634 m 8.3296745,8.76249 -9.7900776,-2.03823 m 8.4791736,8.61792 -9.8236903,-1.86952 m 8.6261633,8.47078 -9.8543958,-1.70026 m 8.7706008,8.32114 -9.8821854,-1.53049 m 8.9124434,8.16903 -9.9070514,-1.36027 m 9.0516474,8.01452 -9.9289843,-1.18965 m 9.1881733,7.85762 -9.9479795,-1.01868 m 9.3219805,7.69841 -9.9640312,-0.8474 m 9.4530282,7.53691 -9.97713336,-0.67587 M 10.495942,380.33815 0.50865809,379.834 M 10.215352,387.04128 0.2208743,386.709 m 9.8292377,7.03924 -9.99871555,-0.1603 m 9.94887155,6.86912 -9.99999331174,0.0117 M 10.065836,407.16574 0.06752414,407.34947 M 10.246797,413.8723 0.25312491,414.228 m 10.28997209,6.34675 -9.98607494,0.52756 m 10.39762594,6.16881 -9.97552233,0.69925 m 10.50220233,5.98904 -9.9620172,0.87075 m 10.6036712,5.8075 -9.9455643,1.04199 m 10.7020023,5.62423 -9.9261685,1.21292 m 10.7971665,5.4393 -9.9038354,1.38349 m 10.8891354,5.25276 -9.8785713,1.55365 m 10.9778823,5.06467 -9.8503842,1.72336 m 11.0633792,4.87508 -9.8192809,1.89254 m 11.1456039,4.68405 -9.7852735,2.06117 m 11.2245295,4.49163 -9.74837,2.2292 m 11.300133,4.29788 -9.70858,2.39655 m 11.372393,4.10286 -9.665918,2.56321 m 11.441287,3.90663 -9.620396,2.7291 m 11.506796,3.70924 -9.572027,2.89418 m 11.568899,3.51075 -9.520825,3.05841 m 11.627579,3.31123 -9.466805,3.22173 m 11.682818,3.11072 -9.409985,3.38411 m 11.7346,2.90929 -9.350379,3.54547 m 11.782909,2.70701 -9.288007,3.70579 m 11.827731,2.50392 -9.222886,3.86502 m 11.869054,2.30008 -9.155035,4.0231 m 11.906863,2.09557 -9.084476,4.17999 m 11.941149,1.89044 -9.011228,4.33564 m 11.971902,1.68475 -8.935313,4.49001 m 11.999111,1.47856 -8.856754,4.64305 m 12.02277,1.27193 -8.775574,4.79472 m 12.04287,1.06493 -8.691797,4.94496 m 12.059407,0.85761 -8.605448,5.09375 m 12.072376,0.65004 -8.516553,5.24102 m 12.081771,0.44228 -8.425136,5.38675 m 12.087591,0.23438 -8.331227,5.53088 m 12.089834,0.0264 -8.234853,5.67337 m 12.088501,-0.18155 -8.136042,5.81419 m 12.083589,-0.38947 -8.034823,5.95328 m 12.075101,-0.59727 -7.931225,6.09062 m 12.06304,-0.80491 -7.825282,6.22615 m 12.047409,-1.01229 -7.717022,6.35984 m 12.02821,-1.21938 -7.606475,6.49165 m 12.005455,-1.42611 -7.49368,6.62153 m 11.97915,-1.63242 -7.37867,6.74946 m 11.94929,-1.83824 -7.26148,6.87539 m 11.91591,-2.04352 -7.14213,6.99928 m 11.87899,-2.24819 -7.02067,7.12111 m 11.83856,-2.4522 -6.89714,7.24082 m 11.79462,-2.65549 -6.77156,7.35839 m 11.7472,-2.85798 -6.64398,7.47379 m 11.6963,-3.05963 -6.51443,7.58697 m 11.64194,-3.26038 -6.38297,7.69791 m 11.58414,-3.46016 -6.2496,7.80657 m 11.52289,-3.65892 -6.11438,7.91292 m 11.45825,-3.85659 -5.97736,8.01692 m 11.39021,-4.05312 -5.83857,8.11856 m 11.31881,-4.24846 -5.69806,8.2178 m 11.24405,-4.44254 -5.55584,8.3146 m 11.16596,-4.6353 -5.412,8.40894 m 11.08458,-4.82669 -5.26655,8.5008 m 10.99991,-5.01665 -5.11953,8.59013 m 10.91198,-5.20513 -4.97101,8.67692 m 10.82083,-5.39206 -4.82102,8.76115 m 10.72648,-5.57741 -4.66959,8.84279 m 10.62894,-5.7611 -4.51679,8.9218 m 10.52828,-5.94308 -4.36266,8.99818 m 10.42449,-6.12331 -4.20722,9.0719 m 10.31761,-6.30173 -4.05055,9.14293 m 10.20768,-6.47828 -3.89267,9.21125 m 10.09474,-6.65291 -3.73365,9.27685 m 9.9788,-6.82558 -3.57351,9.33971 m 9.8599,-6.99622 -3.41232,9.39979 m 9.7381,-7.16479 -3.25012,9.45709 m 9.61341,-7.33124 -3.08696,9.51161 m 9.48588,-7.49554 -2.92289,9.56331 m 9.35554,-7.6576 -2.75795,9.61216 m 9.22242,-7.81739 -2.59218,9.65818 m 9.08658,-7.97488 -2.42566,9.70135 m 8.94805,-8.13002 -2.25842,9.74164 m 8.80688,-8.28273 -2.09052,9.77905 m 8.6631,-8.433 -1.92199,9.81356 m 8.51676,-8.58078 -1.75289,9.84517 m 8.36788,-8.72601 -1.58327,9.87386 m 8.21654,-8.86866 -1.41319,9.89964 m 8.06277,-9.00869 -1.24269,9.92248 m 7.90661,-9.14605 -1.07182,9.94239 m 7.74811,-9.28071 -0.90063,9.95937 m 7.58732,-9.41262 -0.72918,9.97338 m 7.42428,-9.54175 -0.55751,9.98445 m 7.25904,-9.66804 -0.38567,9.99256 m 7.09166,-9.79149 -0.21373,9.99772 m 6.92218,-9.91202 -0.0417,9.99991"
     id="path12" />
  <path
     style="fill:none;stroke:#000000;stroke-width:1px;stroke-linecap:butt;stroke-linejoin:miter;stroke-opacity:1"
     d="m 400,780 v 10 m 193.17903,-62.7663 5.08366,8.6114 m 124.53265,-135.3378 8.4946,5.2765 m 48.6135,-197.21687 9.9974,0.22545 m -55.249,-188.81495 8.8066,-4.73744 M 596.66515,74.849576 l 5.1754,-8.5566 m -191.24372,-46.14517 0.27886,-9.99611 m -194.85423,57.35487 -4.84154,-8.74982 M 72.540181,207.20463 l -8.61736,-5.07356 m -43.87399,191.7775 -9.99872,-0.1603 m 59.6616,194.16033 -8.6918,4.945 M 205.45754,726.425 200.338,735.0151 m 198.07677,44.9816 -0.0417,9.9999"
     id="path12-5" />
</svg>
