<?xml version="1.0" encoding="UTF-8" standalone="no"?>
<svg
xmlns="http://www.w3.org/2000/svg"
version="1.1">
<path
style="
    fill:none;
    stroke:#000000;
    stroke-width:1px;
    stroke-linecap:butt;
    stroke-linejoin:miter;
    stroke-opacity:1;
    height: 100%;
    width: 100%
    "
d=" M 400.0,790.0 L 400.0,800.0 M 406.7087521562505,789.942293992978 L 406.88077144230823,799.9408143517721 M 413.41551900327516,789.7691930487488 L 413.7595066700258,799.7632749217936 M 420.1183158193572,789.4807483927705 L 420.6341700711356,799.4674342489955 M 426.81515905762416,789.0770453839629 L 427.5027272385889,799.0533798809876 M 433.5040669330353,788.5582034894472 L 434.3631455723439,798.521234348151 M 440.183060008848,787.9243762491928 L 441.2133948808697,797.8711551273773 M 446.85016178238857,787.1757512305801 L 448.05144798193703,797.1033345954668 M 453.50339926995593,786.312549972894 L 454.8752813025189,796.2179999721989 M 460.1408035906823,785.3350279217644 L 461.6828754776229,795.2154132530917 M 466.7604105491814,784.2434743535728 L 468.4722159478784,794.0958711318694 M 473.360261216809,783.0382122898466 L 475.2412935557016,792.8597049126631 M 479.9384025113652,781.7195984016683 L 481.9881051398618,791.5072804119675 M 486.4928877750668,780.2880229041268 L 488.71065412827363,790.0389978503865 M 493.021777350618,778.7439094408411 L 495.40695112883895,788.455291734196 M 499.5231391552103,777.0877149585924 L 502.0750145181644,786.7566307267614 M 505.99504925227967,775.3199295721009 L 508.71287102797913,784.9435175098471 M 512.4355924208544,773.4410764189868 L 515.3185563290815,783.0164886348582 M 518.8428627223226,771.4517115049589 L 521.8901156126386,780.9761143640603 M 525.2149640644535,769.3524235392772 L 528.4256041686702,778.8229985018228 M 531.5500107625046,767.1438337605372 L 534.9230879615432,776.5577782159355 M 537.8461280972488,764.8265957528273 L 541.3806442023065,774.1811238490536 M 544.1014528697574,762.4013952523156 L 547.7963619176999,771.6937387203237 M 550.3141339527726,759.8689499443205 L 554.1683425156642,769.0963589172519 M 556.4823328385089,757.230009250928 L 560.4947003471887,766.389753077875 M 562.604224182719,754.4853541092157 L 566.7735632643272,763.5747221632981 M 568.6779963448649,751.6357967401523 L 573.0030731742204,760.652099220669 M 574.7018519242337,748.6821804082381 L 579.1813865889576,757.6227491366545 M 580.6740082918387,745.6253791719593 L 585.3066751711167,754.4875683814967 M 586.5926981179505,742.466297625129 L 591.377126274821,751.247484743722 M 592.4561698950988,739.2058706291931 L 597.3909434821526,747.9034570555826 M 598.2626884563936,735.8450630365779 L 603.3463471347627,744.4564749093106 M 604.0105354890102,732.384869405163 L 609.2415748605232,740.9075583642698 M 609.6980100426856,728.8263137039639 L 615.0748820950621,737.2577576450913 M 615.3234290330787,725.1704490101104 L 620.8445425980294,733.5081528308824 M 620.885127739842,721.4183571972105 L 626.5488489639406,729.6598535356006 M 626.3814602992595,717.5711486151959 L 632.1861131274458,725.713998579688 M 631.8108001913042,713.6299617617348 L 637.7546668628762,721.6717556530613 M 637.1715407209713,709.5959629453212 L 643.2528622779193,717.5343209695601 M 642.4620954937446,705.4703459401293 L 648.6790723012765,713.3029189129531 M 647.6808988850555,701.2543316327433 L 654.0316911641595,708.9788016746086 M 652.8264065035958,696.9491676608618 L 659.3091348754829,704.5632488829351 M 657.8970956483458,692.5561280440866 L 664.509841690611,700.0575672247041 M 662.8914657591857,688.0765128069049 L 669.6322725735238,695.4630900583641 M 667.8080388609532,683.5116475939749 L 674.6749116522597,690.7811770194614 M 672.6453600008176,678.86288327783 L 679.6362666675052,686.0132136182871 M 677.4019976788422,674.1315955591176 L 684.5148694141972,681.1606108298641 M 682.0765442716054,669.3191845594909 L 689.3092761760055,676.2248046764008 M 686.6676164487556,664.4270744072724 L 694.0180681525699,671.2072558023306 M 691.1738555823787,659.4567128160149 L 698.6398518793628,666.1094490420667 M 695.5939281490537,654.4095706560823 L 703.173259640055,660.9328929805972 M 699.92652612448,649.2871415193765 L 707.6169498712616,655.6791195070529 M 704.1703673705595,644.0909412773423 L 711.9696075595482,650.3496833613767 M 708.3241960148163,638.8225076323779 L 716.2299446305808,644.9461616742337 M 712.3867828220459,633.4833996627854 L 720.3967003303035,639.4701535002927 M 716.3569255580799,628.0751973613955 L 724.4686415980307,633.923279345021 M 720.2334493455613,622.599501168003 L 728.4445634313449,628.3071806851314 M 724.015207011624,617.0579314957515 L 732.3232892426913,622.6235194828221 M 727.7010794273735,611.4521282516073 L 736.1036712075627,616.8739776939561 M 731.2899758390688,605.7837503510643 L 739.7845906041732,611.0602567703224 M 734.7808341909071,600.0544752272251 L 743.36495814452,605.1840771561283 M 738.1726214393161,594.2659983343999 L 746.8437142967343,599.2471777788717 M 741.4643338586611,588.4200326463744 L 750.2198295986268,593.251315534743 M 744.6549973382757,582.5183081494926 L 753.4923049623342,587.1982647687103 M 747.7436676707284,576.5625713307043 L 756.6601719699778,581.0898167494404 M 750.7294308312398,570.5545846607313 L 759.7224931602459,574.9277791392116 M 753.6114032481698,564.4961260725013 L 762.6783623058152,568.7139754589757 M 756.3887320644899,558.3889884350085 L 765.5269046815281,562.4502445487267 M 759.0605953901681,552.2349790227524 L 768.2672773232495,556.1384400233359 M 761.6262025453905,546.0359189809144 L 770.8986692773236,549.7804297240148 M 764.0847942945438,539.7936427864291 L 773.4203018405577,543.3780951655683 M 766.435643070896,533.5099977051116 L 775.8314287906626,536.9333309796017 M 768.6780531919036,527.1868432449988 L 778.1313366070806,530.4480443538449 M 770.8113610650836,520.8260506060685 L 780.319344682137,523.9241544677625 M 772.8349353843892,514.4295021264985 L 782.3948055224505,517.3635919246138 M 774.7481773170314,507.99909072562986 L 784.357104940545,510.7682981801332 M 776.5505206806899,501.53671934379815 L 786.2056622366051,504.14022496799805 M 778.2414321110637,495.0443003792 L 787.9399303703217,497.4813337222564 M 779.8204112197068,488.52375512196033 L 789.5593961227762,490.7935949968824 M 781.2869907421091,481.97701318556847 L 791.063580248317,484.0789878826343 M 782.6407366759718,475.4060119358507 L 792.4520376163813,477.3394994213853 M 783.8812484096418,468.8126959176495 L 793.7243573432224,470.57712401810204 M 785.0081588406638,462.1990162793773 L 794.8801629135012,463.7938628506434 M 786.0211344844158,455.56693019561703 L 795.9191122917085,456.99172327755593 M 786.9198755727974,448.9184002879384 L 796.8408980233819,450.1727182440394 M 787.704116142939,442.2553940441033 L 797.6452473260913,443.3388656862598 M 788.3736241159081,435.57988323583004 L 798.3319221701622,436.4921879341847 M 788.9282013653878,428.8938433352909 L 798.9007193491157,429.6347111131189 M 789.367683776308,422.1992529305138 L 799.3514705398031,422.76846454411674 M 789.6919412934121,415.4980931398624 L 799.6840423522176,415.8954801434486 M 789.9008779597432,408.79234702576707 L 799.8983363689673,409.01779182129957 M 789.9944319450409,402.08399900788095 L 799.9942891744009,402.1374348798779 M 789.9725755640393,395.37503427583385 L 799.9718723733736,395.25644541111166 M 789.8353152846585,388.6674382017589 L 799.8310925996498,388.37685969411166 M 789.5826917260915,381.9631957527644 L 799.57199151394,381.5007135925789 M 789.2147796467841,375.26429090352667 L 799.1946457915733,374.63004195233503 M 788.7316879223104,368.5727060491751 L 798.6991670998054,367.76687799915396 M 788.1335595131548,361.8904214186462 L 798.0857020647741,360.91325273707304 M 787.4205714224054,355.2194144886774 L 797.3544322281081,354.0711943473614 M 786.5929346433741,348.56165939861614 L 796.505573993204,347.24272758832427 M 785.6508940971568,341.9191263662162 L 795.5393785611864,340.42987319611916 M 784.5947285601558,335.2937811045945 L 794.45613185657,333.6346472867636 M 783.4247505815806,328.68758424052123 L 793.2561544426467,326.85906075950896 M 782.1413063909565,322.10249073421505 L 791.9398014266221,320.10511870175907 M 780.7447757956658,315.54044930081506 L 790.507462354529,313.37481979570777 M 779.2355720685509,309.0034018337008 L 788.9595610959497,306.6701557268726 M 777.6141418256165,302.49328282983157 L 787.296555718581,299.99311059469903 M 775.8809648938623,296.01201881727377 L 785.5189383526792,293.34566032540897 M 774.0365541692895,289.5615277850869 L 783.6272350454251,286.72977208726866 M 772.0814554651197,283.1437186157367 L 781.6220056052509,280.1474037084479 M 770.0162473502737,276.7604905202026 L 779.5038434361782,273.6005030976437 M 767.8415409781564,270.41373247594765 L 777.2733753622117,267.0910076676387 M 765.5579799057996,264.10532266791694 L 774.9312614418459,260.62084376196606 M 763.1662399034151,257.83712793272923 L 772.4781947727333,254.19192608485045 M 760.6670287544147,251.61100320622762 L 769.9149012865792,247.8061571345924 M 758.0610860459583,245.4287909745516 L 767.2421395343162,241.46542664056574 M 755.3491829500879,239.2923207288932 L 764.4607004616287,235.171611003993 M 752.5321219955171,233.2034084240991 L 761.5714071748893,228.92657274266574 M 749.6107368301389,227.1638559412779 L 758.5751146975783,222.7321599397722 M 746.5858919743273,221.17545055457322 L 755.4727097172588,216.5902056969982 M 743.4584825651003,215.2399644022586 L 752.2651103231799,210.5025275920601 M 740.2294340912235,209.35915396231115 L 748.9532657345883,204.47092714083195 M 736.8997021193323,203.53475953262074 L 745.538156019828,198.4971892642264 M 733.4702720111527,197.7685047159868 L 742.0207918063104,192.58308175998647 M 729.9421586319047,192.06209591005535 L 738.4022139814408,186.73035477954394 M 726.3164060499753,186.4172218023473 L 734.68349338459,180.9407403100998 M 722.5940872279484,180.8355528705288 L 730.8657304902035,175.2159516620808 M 718.7763037050865,175.31874088806944 L 726.95005508214,169.5576829621225 M 714.8641852713524,169.86841843543615 L 722.9376259193357,163.9676086517294 M 710.8588896330732,164.48619841696583 L 718.8296303928956,158.4473829917598 M 706.7616020703424,159.17367358356177 L 714.6272841747102,152.99863957288386 M 702.573535086262,153.93241606135408 L 710.3318308577046,147.62299083215802 M 698.2959280481284,148.7639768864628 L 705.944541587824,142.3220275758593 M 693.9300468206686,143.66988554600232 L 701.4667146878653,137.09731850872032 M 689.4771833914351,138.65164952546303 L 696.8996752732669,131.95040976970563 M 684.9386554884708,133.71075386260418 L 692.24477485997,126.88282447446585 M 680.3158061903553,128.8486607079892 L 687.5033909644669,121.89606226460432 M 675.6100035287504,124.06680889229335 L 682.6769266961544,116.99159886389066 M 670.8226400835609,119.36661350051378 L 677.7668103421138,112.17088564155262 M 665.9551325708309,114.74946545320586 L 672.7744949444419,107.43534918277527 M 661.0089214234972,110.21673109487045 L 667.7014578702536,102.7863908665338 M 655.9854703651254,105.76975178961368 L 662.5492003744876,98.22538645088582 M 650.8862659767509,101.40984352419952 L 657.319247155642,93.7536856658457 M 645.7128172569601,97.13829651861272 L 652.0131459045745,89.37261181396178 M 640.4666551753332,92.95637484424566 L 646.6324668464956,85.08346137871348 M 635.1493322193877,88.86531604982383 L 641.1788022762951,80.88750364084495 M 629.7624219351534,84.8663307951806 L 635.6537660873369,76.78598030274935 M 624.307518461516,80.96060249298887 L 630.0589932938626,72.78010512101423 M 618.7862360584662,77.14928695855554 L 624.3961395471448,68.87106354723642 M 613.2002086293942,73.43351206778306 L 618.6668806455325,65.06001237721335 M 607.5510892375718,69.81437742339915 L 612.8729120385351,61.34807940861447 M 601.8405496169648,66.29295402955375 L 607.0159483250922,57.73636310723458 M 596.0702796775195,62.870283974878134 L 601.0977227461738,54.225932281926305 M 590.2419870050694,59.54738012410155 L 595.1199866718661,50.81782576830926 M 584.357396356014,56.325225818315914 L 589.0845090830912,47.51305212134963 M 578.4182491469139,53.20477458397772 L 582.9930760481169,44.31258931690019 M 572.426302939157,50.18694985073233 L 576.8474901940072,41.2173844622896 M 566.3833309188451,47.27264467814513 L 570.6495701731744,38.2283535160463 M 560.2911213720595,44.46272149141981 L 564.4011501251891,35.34638101684084 M 554.1514771556559,41.75801182618295 L 558.104079134006,32.57231982172607 M 547.9662151637489,39.15931608240851 L 551.760220680768,29.906990853752347 M 541.7371657900405,36.66740328755725 L 545.3714520923493,27.351182859033088 M 535.4661723861557,34.28301086899944 L 538.9396639858006,24.905652173332783 M 529.1550907161427,32.006844435789844 L 532.4667597088643,22.57112249824604 M 522.8057884073002,29.83957756985768 L 525.9546547767181,20.34828468703347 M 516.4201443974925,27.781851626674495 L 519.4052763051207,18.23779654017892 M 510.00004837912013,25.834275545459377 L 512.8205624401232,16.240282610727547 M 503.54740023990564,23.997425668976575 L 506.20246178451856,14.356334019463134 M 497.0641095006638,22.271845572979373 L 499.5529328211936,12.58650827997883 M 490.5520947502197,20.658045905350434 L 492.87394333355866,10.931329133692714 M 484.01328307764453,19.15650423498687 L 486.16746982322513,9.391286394858355 M 477.4496095019759,17.76766491047431 L 479.4354969251035,7.966835805614664 M 470.8630163995906,16.491938928591253 L 472.680016820093,6.658398901119256 M 464.2554529294004,15.32970381268376 L 465.9030286455389,5.466362884803857 M 457.62887445604105,14.281303500945342 L 459.1065379036318,4.391080513790087 M 450.98524197122504,13.347048244636255 L 452.29255586792317,3.4328699944987306 M 444.3265215134287,12.527214516271442 L 445.46309898813195,2.5920148884835044 M 437.654683586085,11.822044927803972 L 438.62018829342054,1.868764028516921 M 430.9717025744569,11.231748158829987 L 431.76584879431476,1.2633314449538489 M 424.27955616136086,10.756498894834067 L 424.902108883447,0.7758963023939032 M 417.5802247419145,10.396437775494917 L 418.0309997352969,0.4066028466614853 M 410.87569083748144,10.151671353066433 L 411.15455470510915,0.15556036211938817 M 404.1679385089875,10.022272060845353 L 404.27480872716666,0.02284313932858595 M 397.45895276978143,10.008278191736736 L 397.3937977125963,0.008490453063302539 M 390.750718998213,10.109693886921548 L 390.51355794688516,0.11250655068880633 M 384.04522235010324,10.326489134631629 L 383.63612548728537,0.3348606509042611 M 377.34444717128105,10.658599779030567 L 376.76353556028823,0.675486952851827 M 370.65037641035946,11.105927539199456 L 369.897821959343,1.1342846555891697 M 363.96499103192497,11.668340038221004 L 363.041016443,1.7111179879189535 M 357.2902694303139,12.345670842353627 L 356.19514813365527,2.4058162485678167 M 350.62818684414964,13.137719510283887 L 349.36224291707657,3.218173856701412 M 343.9807147718144,14.044251652442426 L 342.5443228428866,4.147950412761475 M 337.34982038802684,15.064999000366981 L 335.7434055261814,5.194870769607121 M 330.73746596169883,16.199659486090127 L 328.96150355046035,6.358625113938558 M 324.1456082752455,17.447897331530157 L 322.20062387204666,7.638869057979662 M 317.5761980455179,18.809343147856907 L 315.4627672261722,9.03522374139169 M 311.03117934653085,20.283594044804488 L 308.74992753490346,10.547275943389195 M 304.51248903415603,21.870213749898028 L 302.06409131708307,12.174578205023579 M 298.02205617295186,23.568732737558832 L 295.4072371004634,13.91664896159881 M 291.5618014652994,25.378648368050335 L 288.7813348362045,15.772972685179866 M 285.1336366830118,27.299425036223397 L 282.18834531590954,17.74300003715223 M 278.7394641015866,29.33049433001696 L 275.63021959137086,19.826148030786612 M 272.38117593726923,31.471255198667336 L 269.1088983971992,22.02180020376136 M 266.060653787093,33.72107413057597 L 262.6263115765056,24.329306800590757 M 259.77976807206096,36.079285340783315 L 256.18437750980615,26.74798496490598 M 253.54037748363552,38.54519096799385 L 249.78500254731847,29.277118941532194 M 247.34432843369905,41.11806128109254 L 243.43008044481954,31.915960288300028 M 241.19345450814907,43.79713489509288 L 237.12149180322982,34.663728097531134 M 235.08957592428803,46.58161899645228 L 230.8611035120903,37.5196092271305 M 229.0344989921692,49.47068957768823 L 224.65076819709662,40.482758541218686 M 223.03001558005892,52.463491681225264 L 218.4923236718553,43.55229916023103 M 217.07790258417242,55.559139652400575 L 212.387592394023,46.727322720410825 M 211.1799214028398,58.756717401554965 L 206.33838092598953,50.00688964262048 M 205.33781741525814,62.05527867512916 L 200.34647940026474,53.39002941038888 M 199.55331946498495,65.45384733568727 L 194.41366098972816,56.87574085711515 M 193.82813934832458,68.95141765078324 L 188.54168138289702,60.46299246234179 M 188.16397130775943,72.54695459058524 L 182.73227826436863,64.15072265701053 M 182.56249153057502,76.23939413417088 L 176.98717080058975,67.93784013761115 M 177.02535765282946,80.02764358440055 L 171.30805913110714,71.82322418912878 M 171.55420826881232,83.9105818912775 L 165.69662386544852,75.80572501669485 M 166.1506624461379,87.88705998369778 L 160.15452558578244,79.88416408584385 M 160.81631924661735,91.95590110949388 L 154.683404355505,84.05733447127574 M 155.55275725305114,96.11590118366797 L 149.2848792338986,88.32400121401844 M 150.3615341020823,100.3658291447149 L 143.9605477970075,92.68290168688702 M 145.24418602324744,104.70442731892808 L 138.7119856648692,97.13274596813136 M 140.20222738436263,109.13041179258084 L 133.54074603524373,101.67221722315986 M 135.2371502433797,113.64247279187282 L 128.4483592239792,106.29997209422856 M 130.35042390684413,118.23927507052838 L 123.43633221214787,111.01464109797786 M 125.5434944950859,122.91945830493432 L 118.50614820008809,115.81482903070184 M 120.81778451427084,127.68163749669782 L 113.65926616848287,120.69911538122852 M 116.17469243544161,132.524403382507 L 108.89712044660678,125.66605475128921 M 111.61559228067074,137.44632285117075 L 104.22112028786745,130.714177283252 M 107.14183321644828,142.44593936771759 L 99.63264945276745,135.84198909509496 M 102.7547391544253,147.52177340442555 L 95.13306579941053,141.0479727224877 M 98.45560835963119,152.67232287865582 L 90.72370088167298,146.33058756785212 M 94.24571306628036,157.8960635973619 L 86.40585955515934,151.68827035626862 M 90.12629910128271,163.19144970814017 L 82.18081959105922,157.11943559809248 M 86.09858551556732,168.556914156693 L 78.04983129801775,162.62247605814667 M 82.16376422333104,173.99086915056347 L 74.01411715213442,168.19576323134714 M 78.32299964931872,179.49170662900733 L 70.0748714351987,173.8376478246229 M 74.57742838423496,185.05779873886496 L 66.23325988126663,179.5464602449897 M 70.92815884839644,190.68749831628838 L 62.490419331688656,185.32051109362914 M 67.37627096371818,196.3791393741835 L 58.84745739868532,191.15809166582923 M 63.92281583413461,202.13103759522306 L 55.30545213757398,197.05747445663903 M 60.56881543454841,207.94149083028282 L 51.86545172774197,203.01691367208494 M 57.31526230839836,213.80877960215693 L 48.52847416245987,209.03464574580198 M 54.16311927393838,219.7311676143992 L 45.29550694762912,215.10888986092226 M 51.113319139312864,225.70690226514122 L 42.16750680955164,221.2378484770679 M 48.166764426511236,231.73421516573856 L 39.14539941180641,227.41970786229598 M 45.324327104287136,237.8113226640858 L 36.23007908132013,233.65263862983159 M 42.586848330117846,243.93642637244972 L 33.42240854371062,239.9347962794356 M 39.95513820128201,250.1077136996634 L 30.72321866798154,246.26432174324452 M 37.42997551512957,256.3233583875219 L 28.133308220645745,252.63934193591996 M 35.01210753861261,262.58152105122565 L 25.65344362934627,259.0579703089494 M 32.70224978714873,268.88034972370497 L 23.284358756049983,265.5183074089282 M 30.50108581287975,275.21798040366895 L 21.02675467987666,272.0184414396605 M 28.4092670023889,281.5925376072179 L 18.88129948962967,278.5564488279158 M 26.42741238393762,288.0021349228505 L 16.84862808608989,285.1303947926671 M 24.5561084442773,294.4448755697066 L 14.929341994130539,291.7383339176478 M 22.795908955091306,300.918852958879 L 13.124009184709053,298.37831072705535 M 21.14733480911883,307.42215125762493 L 11.433163906788536,305.04836026423067 M 19.61087386600707,313.95284595631756 L 9.857306529237974,311.74650867314625 M 18.186980807940472,320.5090044379618 L 8.396903392759441,318.47077378252493 M 16.87607700508744,327.0886865501087 L 7.052386671884506,325.2191656924192 M 15.678550390904547,333.689945179004 L 5.8241542470815375,331.98968736308103 M 14.594755347336445,340.3108268257923 L 4.712569587011728,338.7803352059408 M 13.62501259994417,346.9493721846131 L 3.717961640968383,345.58909967652625 M 12.769609122993302,353.6036167224149 L 2.840624741531599,352.4139658691435 M 12.02879805453017,360.27159126031495 L 2.0808185174668665,359.25291411314356 M 11.40279862147139,366.9513225563366 L 1.4387678168937441,366.10392057060164 M 10.89179607472812,373.6408338893465 L 0.9146626407468261,372.96495783522715 M 10.49594163438519,380.338145644021 L 0.5086580865489054,379.8339955323292 M 10.215352444950895,387.04127589667263 L 0.22087430251372098,386.7090009196642 M 10.05011154069058,393.7482410017555 L 0.051396451990342484,393.58793948898006 M 10.000267821054308,400.45705617888285 L 0.00027468826084486864,400.46877556808494 M 10.06583603620652,407.16573610017934 L 0.06752413969894633,407.34947292326086 M 10.246796782660454,413.8722954777949 L 0.2531249052927933,414.22799536184095 M 10.54309650902087,420.5747496514092 L 0.5570220605342229,421.1023073347787 M 10.954647531830801,427.27111517554766 L 0.97912567367257,427.9703745390232 M 11.48132806151989,433.9594104065379 L 1.519310832328074,434.8301645195261 M 12.122982238445445,440.63765608893647 L 2.1774176804568697,441.67964727070404 M 12.87942017901537,447.3038759412446 L 2.9532514656567628,448.51679583717396 M 13.750418031880429,453.9560972407464 L 3.846582596800431,455.339586913586 M 14.735718044178043,460.59235140729334 L 4.857146711977464,462.14600144337777 M 15.835028637808477,467.2106745858615 L 5.984644756726652,468.9340252162682 M 17.048024495721336,473.8091082277137 L 7.228743072534712,475.70164946432175 M 18.374346658185914,480.3856996699884 L 8.589073495575292,482.44687145639836 M 19.813602629017453,486.93850271354665 L 10.065233465658935,489.1676950908171 M 21.36536649172791,493.46557819890967 L 11.656786145361991,495.86213148606123 M 23.029179035566813,499.96499458010925 L 13.363260549299298,502.5281995693428 M 24.804547891414416,506.43482849628725 L 15.184151683501966,509.16392666285867 M 26.690947677487998,512.8731653408727 L 17.11892069485947,515.7673490675618 M 28.687820154816507,519.2780998281668 L 19.166995030581063,522.3365126442736 M 30.794574392440097,525.6477365571723 L 21.3277686076309,528.8694733919715 M 33.01058694228283,531.9801905724956 L 23.600601992084933,535.3642980230725 M 35.335202023648264,538.2735879221573 L 25.98482258835719,541.819064535546 M 37.767731717284164,544.5260662121493 L 28.479724838240145,548.2318627816916 M 40.30745616895672,550.7357751575684 L 31.08457042969917,554.6007950334034 M 42.95362380247599,556.9008771301683 L 33.798588515359995,560.9239765437624 M 45.70545154210862,563.0195477021663 L 36.62097594062425,567.1995361047859 M 48.56212504431136,569.089976186141 L 39.550897481344975,573.4256166011703 M 51.52279893871935,575.1103661708689 L 42.58748609099422,579.6003755598656 M 54.586597078314696,581.078936052931 L 45.72984315724585,585.7219856953138 M 57.75261279870227,586.9939195639392 L 48.97703876789973,591.7886354501941 M 61.019909186418715,592.8535662932272 L 52.328111986070496,597.7985295315151 M 64.38751935619081,598.6561422058447 L 55.78207113455471,603.749889441892 M 67.85444673706411,604.3999301557078 L 59.337894089296526,609.6409540058542 M 71.41966536731678,610.0832303937511 L 62.99452858186339,615.4699798910269 M 75.08212019807007,615.7043610709311 L 66.75089251084108,621.2352421240319 M 78.84072740550772,621.2616587359332 L 70.60587426205916,626.9350346009571 M 82.69437471160995,626.7534788274345 L 74.55833303754866,632.5676705922406 M 86.641921713307,632.178196160774 L 78.60709919313541,638.1314832418193 M 90.68220021995819,637.5342054088926 L 82.75097458457253,643.6248260604027 M 94.81401459905129,642.8199215773943 L 86.98873292210385,649.0460734127121 M 99.03614213002436,648.0337804735901 L 91.3191201333583,654.393620998554 M 103.3473333661035,653.1742391693876 L 95.74085473446513,659.665886327577 M 107.7463125040486,658.2397764578857 L 100.2526282092806,664.861309187575 M 112.23177776170076,663.2288933035445 L 104.85310539661612,669.9783521061995 M 116.80240176321581,668.1401132857912 L 109.54092488534951,675.0155008059397 M 121.45683193187165,672.9719830359343 L 114.31469941730421,679.9712646522403 M 126.19369089033512,677.7230726672573 L 119.17301629777961,684.8441770946229 M 131.01157686826622,682.3919761981622 L 124.11443781360634,689.6327961006791 M 135.90906411714144,686.9773119682388 L 129.13750165860665,694.3357045828091 M 140.8847033321735,691.4777230471383 L 134.2407213663318,698.9515108175777 M 145.93702208120038,695.891877636125 L 139.42258674994912,703.4788488575641 M 151.06452524042135,700.2184694621955 L 144.6815643491501,707.916378935585 M 156.26569543684525,704.4562181646407 L 150.01609788394384,712.26278786117 M 161.53899349732353,708.6038696739406 L 155.42460871520362,716.5167894091699 M 166.88285890403634,712.660196582879 L 160.90549631183217,720.6771247003887 M 172.29571025629306,716.6239985097686 L 166.45713872440317,724.7425625741216 M 177.77594573851346,720.4941024536768 L 172.077893065142,728.711899952489 M 183.32194359425048,724.2693631415507 L 177.76609599410307,732.5839621964622 M 188.9320626061128,727.9486633671345 L 183.52006421139774,736.3576034534713 M 194.60464258144896,731.5309143215843 L 189.33809495533228,740.0317069964967 M 200.33800484364437,735.0150559156758 L 195.21846650630192,743.6051855545393 M 206.1304527288884,738.400057093515 L 201.1594386962958,747.0769816343744 M 211.98027208826682,741.6849161376572 L 207.1592534238634,750.4460678334946 M 217.88573179502555,744.868660965543 L 213.2161351743852,753.7114471441466 M 223.84508425686053,747.9503494171654 L 219.328291545498,756.8721532483746 M 229.85656593307965,750.9290695338811 L 225.4939137775176,759.9272508039805 M 235.91839785648324,753.8039398282849 L 231.71117728870075,762.8758357213179 M 242.02878615981243,756.5741095450674 L 237.97824221519224,765.7170354308385 M 248.18592260660427,759.2387589127766 L 244.29325395549156,768.4500091413094 M 254.38798512629893,761.7970993864117 L 250.65434371928094,771.0739480886274 M 260.6331383534439,764.2483738807762 L 257.05962908045524,773.588075775155 M 266.91953417082897,766.5918569945204 L 263.50721453418356,775.9916481995081 M 273.2453122563968,768.8268552248082 L 269.9951920578429,778.2839540767263 M 279.60860063376515,770.9527071725447 L 276.52164167565655,780.4643150487639 M 286.0075162261958,772.9687837381018 L 283.08463202686744,782.5320858852326 M 292.4401654138527,774.8744883074876 L 289.6822209372848,784.4866546743463 M 298.90464459417626,776.6692569289007 L 296.3124559940269,786.3274430040007 M 305.399040745212,778.3525584796196 L 302.9733751232943,788.0539061329432 M 311.92143199173006,779.9238948231772 L 309.66300717100523,789.6655331519767 M 318.4698881739609,781.382800956773 L 316.37937248611377,791.1618471351519 M 325.04247141878426,782.7288451488812 L 323.1204835064454,792.5424052809037 M 331.63723671320116,783.9616290670112 L 329.884345346873,793.8067990430884 M 338.25223247991653,785.0807878955866 L 336.668956389658,794.9546542518837 M 344.8855011548684,786.0859904439035 L 343.47230887678813,795.9856312245165 M 351.53507976652514,786.9769392441401 L 350.2923895041283,796.8994248657848 M 358.19900051678314,787.7533706393848 L 357.1271800172135,797.6957647583433 M 364.87529136329607,788.4150548616603 L 363.97465780850877,798.3744152427287 M 371.5619766030564,788.961796099919 L 370.83279651595524,798.9351754870963 M 378.257077457062,789.3934325579874 L 377.6995666226277,799.3778795466537 M 384.9586126558933,789.7098365024477 L 384.5729360573265,799.7023964127669 M 391.66459902602537,789.9109143004375 L 391.45087079592344,799.9086300517307 M 398.3730520767068,789.9966064473573 L 398.331335463289,799.9965194331869"
id="path12" />
</svg>
