<?xml version="1.0" encoding="UTF-8" standalone="no"?>
<svg
   version="1.1"
   id="svg3"
   display="flex"
   float="center"
   position="absolute"
   viewbox="0 0 840 840"
   xmlns:xlink="http://www.w3.org/1999/xlink"
   xmlns="http://www.w3.org/2000/svg"
   xmlns:svg="http://www.w3.org/2000/svg">
  <defs
     id="defs7" />
  <g
     id="g33392">
    <path
       style="fill:#ffffff;fill-opacity:1;stroke:#ffffff;stroke-width:1px;stroke-linecap:butt;stroke-linejoin:miter;stroke-opacity:1"
       d="m 420.0003,809.98139 v 10 m 6.70875,-10.05771 0.17202,9.99852 m 6.53475,-10.17162 0.34399,9.99408 m 6.35881,-10.28252 0.51585,9.98668 m 6.18099,-10.39038 0.68757,9.97633 m 6.00134,-10.49518 0.85908,9.96303 m 5.81991,-10.59685 1.03033,9.94678 m 5.63677,-10.69541 1.20129,9.92758 m 5.45195,-10.79078 1.37188,9.90545 m 5.26552,-10.88297 1.54208,9.88038 m 5.07753,-10.97194 1.71181,9.8524 m 4.88804,-11.05766 1.88103,9.82149 m 4.69711,-11.1401 2.04971,9.78768 m 4.50478,-11.21926 2.21776,9.75098 m 4.31113,-11.29509 2.38517,9.71138 m 4.11619,-11.36758 2.55187,9.66892 m 3.92004,-11.4367 2.71782,9.62359 m 3.72272,-11.50244 2.88297,9.57541 m 3.5243,-11.56478 3.04726,9.5244 m 3.32484,-11.62369 3.21064,9.47058 m 3.12441,-11.67917 3.37308,9.41395 m 2.92304,-11.73118 3.53451,9.35452 m 2.72081,-11.77972 3.69491,9.29234 m 2.51777,-11.82479 3.85421,9.22741 m 2.31399,-11.86635 4.01237,9.15974 m 2.10952,-11.9044 4.16934,9.08937 m 1.90444,-11.93892 4.32507,9.0163 m 1.69878,-11.96992 4.47954,8.94057 m 1.49262,-11.99737 4.63267,8.86219 m 1.28602,-12.02127 4.78443,8.78118 m 1.07904,-12.04161 4.93477,8.69759 m 0.87175,-12.0584 5.08366,8.61141 m 0.66419,-12.0716 5.23103,8.52269 m 0.45644,-12.08125 5.37687,8.43145 m 0.24855,-12.08731 5.52111,8.3377 m 0.0406,-12.08979 5.66372,8.24149 m -0.16739,-12.0887 5.80465,8.14285 m -0.37531,-12.08404 5.94387,8.0418 m -0.58313,-12.0758 6.08132,7.93836 m -0.79076,-12.06397 6.21697,7.83257 m -0.99817,-12.04859 6.35079,7.72447 m -1.20528,-12.02963 6.48272,7.61408 m -1.41203,-12.00712 6.61274,7.50144 m -1.61837,-11.98106 6.7408,7.38658 m -1.82423,-11.95144 6.86687,7.26953 m -2.02955,-11.9183 6.99091,7.15033 m -2.23427,-11.88161 7.11287,7.02901 m -2.43833,-11.84143 7.23274,6.90562 m -2.64166,-11.79773 7.35045,6.78019 m -2.84421,-11.75055 7.46599,6.65274 m -3.04592,-11.69988 7.57933,6.52332 m -3.24673,-11.64575 7.69042,6.39198 m -3.44658,-11.58818 7.79924,6.25874 m -3.64541,-11.52717 7.90574,6.12365 m -3.84316,-11.46276 8.00992,5.98675 m -4.03977,-11.39495 8.11171,5.84808 m -4.23519,-11.32378 8.21111,5.70768 m -4.42935,-11.24925 8.30808,5.56559 m -4.62221,-11.17139 8.40259,5.42185 m -4.81369,-11.09023 8.49461,5.27651 m -5.00376,-11.00578 8.58413,5.1296 m -5.19234,-10.91808 8.67109,4.98118 m -5.37938,-10.82715 8.7555,4.83129 m -5.56483,-10.73301 8.8373,4.67995 m -5.74863,-10.63569 8.9165,4.52725 m -5.93074,-10.53524 8.99306,4.3732 m -6.11109,-10.43165 9.06696,4.21785 m -6.28963,-10.32499 9.13817,4.06125 m -6.4663,-10.21526 9.20668,3.90346 m -6.64108,-10.10252 9.27247,3.74451 m -6.81388,-9.98679 9.33551,3.58446 m -6.98466,-9.8681 9.39579,3.42333 m -7.15338,-9.74649 9.45329,3.2612 m -7.31998,-9.62199 9.50798,3.0981 m -7.4844,-9.49465 9.55987,2.93409 m -7.64663,-9.3645 9.60892,2.76921 m -7.80658,-9.23158 9.65514,2.6035 m -7.96423,-9.09592 9.6985,2.43703 m -8.11952,-8.95757 9.73899,2.26983 m -8.27241,-8.81658 9.77659,2.10198 m -8.42284,-8.67298 9.8113,1.93349 m -8.57079,-8.5268 9.84311,1.76442 m -8.7162,-8.3781 9.872,1.59484 m -8.85903,-8.22693 9.89798,1.42479 m -8.99923,-8.07332 9.92102,1.25432 m -9.13678,-7.91733 9.94113,1.08348 m -9.27163,-7.75899 9.9583,0.91231 m -9.40372,-7.59835 9.97252,0.74087 m -9.53304,-7.43546 9.98379,0.56921 m -9.65953,-7.27037 9.9921,0.39739 m -9.78316,-7.10313 9.99746,0.22544 m -9.90391,-6.93379 9.99986,0.0534 m -10.02171,-6.7624 9.99929,-0.11858 m -10.13655,-6.58901 9.99577,-0.29058 m -10.2484,-6.41366 9.9893,-0.46249 m -10.35721,-6.23642 9.97987,-0.63425 m -10.46296,-6.05733 9.96748,-0.80583 m -10.56561,-5.87646 9.95214,-0.97717 m -10.66513,-5.69384 9.93386,-1.14822 m -10.7615,-5.50953 9.91264,-1.31893 m -10.85468,-5.3236 9.88849,-1.48926 m -10.94465,-5.13609 9.8614,-1.65913 m -11.03138,-4.94707 9.8314,-1.82852 m -11.11484,-4.75657 9.79849,-1.99737 m -11.19502,-4.56467 9.76268,-2.16563 m -11.27189,-4.37142 9.72399,-2.33324 m -11.34542,-4.17688 9.68242,-2.50017 m -11.4156,-3.98109 9.63798,-2.66636 m -11.48239,-3.78413 9.59069,-2.83176 m -11.54578,-3.58605 9.54055,-2.99632 m -11.60576,-3.38691 9.48759,-3.15999 m -11.6623,-3.18677 9.43184,-3.32272 m -11.7154,-2.98569 9.37328,-3.48448 m -11.76502,-2.78371 9.31195,-3.6452 m -11.81116,-2.58093 9.24787,-3.80484 m -11.85381,-2.37737 9.18105,-3.96336 m -11.89296,-2.17311 9.11152,-4.12071 m -11.92858,-1.9682 9.03929,-4.27684 m -11.96067,-1.76271 8.96437,-4.4317 m -11.98922,-1.55671 8.88682,-4.58524 m -12.01423,-1.35025 8.80663,-4.73743 m -12.03568,-1.14338 8.72384,-4.88822 m -12.05357,-0.93617 8.63846,-5.03757 m -12.06789,-0.72869 8.55052,-5.18542 m -12.07863,-0.52098 8.46005,-5.33175 m -12.0858,-0.31313 8.36708,-5.47648 m -12.0894,-0.10519 8.27164,-5.6196 m -12.08943,0.10279 8.17376,-5.76106 m -12.08587,0.31074 8.07344,-5.90081 m -12.07874,0.51859 7.97074,-6.03882 m -12.06803,0.72629 7.86568,-6.17503 m -12.05374,0.93378 7.75829,-6.30943 m -12.0359,1.14099 7.64861,-6.44195 m -12.01449,1.34786 7.53666,-6.57257 m -11.98953,1.55433 7.4225,-6.70124 m -11.96102,1.76034 7.30611,-6.82793 m -11.92896,1.96584 7.18758,-6.9526 m -11.89339,2.17075 7.06693,-7.07521 m -11.85429,2.37501 6.94417,-7.19572 m -11.81168,2.57858 6.81936,-7.31412 m -11.76557,2.78138 6.69254,-7.43034 m -11.71599,2.98336 6.56373,-7.54436 m -11.66293,3.18445 6.43298,-7.65615 m -11.60643,3.38461 6.30033,-7.76569 m -11.54649,3.58376 6.16581,-7.87291 m -11.48314,3.78186 6.02947,-7.97782 m -11.41638,3.97883 5.89135,-8.08035 m -11.34625,4.17462 5.75147,-8.180495 m -11.27275,4.369182 5.6099,-8.278223 m -11.19593,4.562448 5.46667,-8.3735 m -11.11579,4.754365 5.32182,-8.466298 m -11.03236,4.944875 5.1754,-8.556591 m -10.94567,5.133921 5.02744,-8.644352 m -10.85573,5.321448 4.878,-8.729554 m -10.76259,5.5074 4.72711,-8.812174 m -10.66626,5.691723 4.57483,-8.892186 m -10.56678,5.874361 4.42119,-8.969566 m -10.46416,6.055261 4.26624,-9.044291 m -10.35845,6.234367 4.11003,-9.11634 m -10.24967,6.411631 3.9526,-9.185692 m -10.13786,6.586996 3.794,-9.252325 m -10.02305,6.760412 3.63428,-9.31622 m -9.90528,6.931828 3.47349,-9.377359 m -9.78457,7.101192 3.31167,-9.435722 m -9.66097,7.268456 3.14886,-9.491293 m -9.53451,7.433567 2.98514,-9.544055 m -9.40523,7.596479 2.82051,-9.593993 m -9.27316,7.757143 2.65506,-9.641092 m -9.13835,7.915512 2.48882,-9.685338 m -9.00084,8.071538 2.32185,-9.726717 m -8.86066,8.225175 2.15419,-9.765218 m -8.71786,8.376379 1.98589,-9.800829 m -8.57248,8.525103 1.817,-9.83354 m -8.42457,8.671305 1.64758,-9.863341 m -8.27416,8.814941 1.47767,-9.890223 m -8.1213,8.955967 1.30732,-9.914178 m -7.96604,9.094345 1.13658,-9.9352 m -7.80842,9.23003 0.96551,-9.953281 m -7.64849,9.362984 0.79415,-9.968417 m -7.48629,9.493168 0.62255,-9.980603 m -7.32189,9.620542 0.45078,-9.989835 m -7.15531,9.745068 0.27886,-9.996111 m -6.98661,9.866712 0.10687,-9.999429 m -6.81587,9.985465 -0.0652,-9.999788 m -6.64308,10.101204 -0.23716,-9.997187 m -6.46834,10.213982 -0.40909,-9.991628 m -6.29168,10.323739 -0.58091,-9.983113 m -6.11316,10.430441 -0.75256,-9.971643 m -5.93283,10.534055 -0.92397,-9.957222 m -5.75075,10.634553 -1.09512,-9.939855 m -5.56696,10.731904 -1.26595,-9.919546 m -5.38153,10.826078 -1.43639,-9.896302 m -5.1945,10.917049 -1.60641,-9.870128 m -5.00594,11.004788 -1.77597,-9.841034 m -4.81589,11.089272 -1.94499,-9.809028 m -4.62442,11.170474 -2.11343,-9.774119 m -4.43159,11.24837 -2.28125,-9.736318 m -4.23744,11.322938 -2.4484,-9.695636 m -4.04203,11.394155 -2.61482,-9.652084 m -3.84544,11.461999 -2.78047,-9.605675 m -3.64769,11.526452 -2.94529,-9.556425 m -3.44889,11.587494 -3.10924,-9.504346 m -3.24904,11.645107 -3.27228,-9.449455 m -3.04825,11.699274 -3.43434,-9.391767 m -2.84654,11.749978 -3.59539,-9.3313 m -2.644,11.797206 -3.75538,-9.268072 m -2.44067,11.840942 -3.91425,-9.202101 m -2.23663,11.881175 -4.07196,-9.133407 m -2.03191,11.917891 -4.22848,-9.06201 m -1.8266,11.951081 -4.38373,-8.987931 m -1.62075,11.980733 -4.5377,-8.911193 m -1.41442,12.006841 -4.69031,-8.831817 m -1.20767,12.029394 -4.84154,-8.749827 m -1.00056,12.048389 -4.99134,-8.66525 m -0.79316,12.063818 -5.13966,-8.578106 m -0.58552,12.075677 -5.28646,-8.488426 m -0.37771,12.083963 -5.43169,-8.396232 m -0.16979,12.088671 -5.57532,-8.301554 m 0.0382,12.0898 -5.7173,-8.204416 m 0.24615,12.087356 -5.85759,-8.104855 m 0.45404,12.081335 -5.99613,-8.002896 m 0.66179,12.071736 -6.13292,-7.89857 m 0.86936,12.05857 -6.26788,-7.7919 m 1.07665,12.04183 -6.40098,-7.68293 m 1.28364,12.02153 -6.5322,-7.57168 m 1.49024,11.99766 -6.66148,-7.45819 m 1.6964,11.97025 -6.78879,-7.3425 m 1.90206,11.93931 -6.91409,-7.22464 m 2.10716,11.90482 -7.03734,-7.10463 m 2.31163,11.86681 -7.15851,-6.98252 m 2.51542,11.82528 -7.27757,-6.85835 m 2.71847,11.78027 -7.39447,-6.73214 m 2.92071,11.73176 -7.50918,-6.60395 m 3.12209,11.67978 -7.62167,-6.4738 m 3.32254,11.62435 -7.73191,-6.34173 m 3.52201,11.56547 -7.83985,-6.20779 m 3.72044,11.50318 -7.94548,-6.07201 m 3.91777,11.43747 -8.048757,-5.93443 m 4.113937,11.36839 -8.149651,-5.79511 m 4.308883,11.29595 -8.248129,-5.65406 m 4.502557,11.22015 -8.344168,-5.51134 m 4.694899,11.14104 -8.43774,-5.36699 m 4.885852,11.05863 -8.528814,-5.22105 m 5.075359,10.97295 -8.617364,-5.07357 m 5.263363,10.88402 -8.703363,-4.92458 m 5.44981,10.79187 -8.786788,-4.77413 m 5.634645,10.69652 -8.867612,-4.62228 m 5.817812,10.59801 -8.945812,-4.46905 m 5.999257,10.49637 -9.021365,-4.31451 m 6.178928,10.39161 -9.094248,-4.15868 m 6.356769,10.28379 -9.164439,-4.00163 m 6.532729,10.17291 -9.231919,-3.84339 m 6.706757,10.05904 -9.296668,-3.68402 m 6.8788,9.94218 -9.358664,-3.52355 m 7.048806,9.82238 -9.417891,-3.36204 m 7.216727,9.69967 -9.474331,-3.19954 m 7.382512,9.5741 -9.527968,-3.03609 m 7.546113,9.44568 -9.578784,-2.87174 m 7.70748,9.31449 -9.626766,-2.70655 m 7.866567,9.18052 -9.6719,-2.54054 m 8.023326,9.04384 -9.714171,-2.37379 m 8.17771,8.90449 -9.753568,-2.20634 m 8.329675,8.76249 -9.790078,-2.03823 m 8.479174,8.61792 -9.82369,-1.86952 m 8.626163,8.47078 -9.854396,-1.70026 m 8.770601,8.32114 -9.882185,-1.53049 m 8.912443,8.16903 -9.907051,-1.36027 m 9.051647,8.01452 -9.928984,-1.18965 m 9.188173,7.85762 -9.94798,-1.01868 m 9.321981,7.69841 -9.964031,-0.8474 m 9.453028,7.53691 -9.977133,-0.67587 m 9.581269,7.37319 -9.987284,-0.50415 m 9.706694,7.20728 -9.994478,-0.33228 m 9.829238,7.03924 -9.998716,-0.1603 m 9.948872,6.86912 -9.999993,0.0117 m 10.065561,6.69698 -9.998312,0.18373 m 10.179273,6.52283 -9.993672,0.3557 m 10.289972,6.34675 -9.986075,0.52756 m 10.397626,6.16881 -9.975522,0.69925 m 10.502202,5.98904 -9.962017,0.87075 m 10.603671,5.8075 -9.945564,1.04199 m 10.702002,5.62423 -9.926168,1.21292 m 10.797166,5.4393 -9.903835,1.38349 m 10.889135,5.25276 -9.878571,1.55365 m 10.977882,5.06467 -9.850384,1.72336 m 11.063379,4.87508 -9.819281,1.89254 m 11.145604,4.68405 -9.785274,2.06117 m 11.22453,4.49163 -9.74837,2.2292 m 11.300133,4.29788 -9.70858,2.39655 m 11.372393,4.10286 -9.665918,2.56321 m 11.441287,3.90663 -9.620396,2.7291 m 11.506796,3.70924 -9.572027,2.89418 m 11.568899,3.51075 -9.520825,3.05841 m 11.627579,3.31123 -9.466805,3.22173 m 11.682818,3.11072 -9.409985,3.38411 m 11.7346,2.90929 -9.350379,3.54547 m 11.782909,2.70701 -9.288007,3.70579 m 11.827731,2.50392 -9.222886,3.86502 m 11.869054,2.30008 -9.155035,4.0231 m 11.906863,2.09557 -9.084476,4.17999 m 11.941149,1.89044 -9.011228,4.33564 m 11.971902,1.68475 -8.935313,4.49001 m 11.999111,1.47856 -8.856754,4.64305 m 12.02277,1.27193 -8.775574,4.79472 m 12.04287,1.06493 -8.691797,4.94496 m 12.059407,0.85761 -8.605448,5.09375 m 12.072376,0.65004 -8.516553,5.24102 m 12.081771,0.44228 -8.425136,5.38675 m 12.087591,0.23438 -8.331227,5.53088 m 12.089834,0.0264 -8.234853,5.67337 m 12.088504,-0.18155 -8.136045,5.81419 m 12.083585,-0.38947 -8.034819,5.95328 m 12.075099,-0.59727 -7.93122,6.09062 m 12.06304,-0.80491 -7.82529,6.22615 m 12.04741,-1.01229 -7.71702,6.35984 m 12.02821,-1.21938 -7.60647,6.49165 m 12.00545,-1.42611 -7.49368,6.62153 m 11.97915,-1.63242 -7.37867,6.74946 m 11.94929,-1.83824 -7.26148,6.87539 m 11.91591,-2.04352 -7.14213,6.99928 m 11.87899,-2.24819 -7.02067,7.12111 m 11.83856,-2.4522 -6.89714,7.24082 m 11.79462,-2.65549 -6.77156,7.35839 m 11.7472,-2.85798 -6.64398,7.47379 m 11.6963,-3.05963 -6.51443,7.58697 m 11.64194,-3.26038 -6.38297,7.69791 m 11.58414,-3.46016 -6.2496,7.80657 m 11.52289,-3.65892 -6.11438,7.91292 m 11.45825,-3.85659 -5.97736,8.01692 m 11.39021,-4.05312 -5.83857,8.11856 m 11.31881,-4.24846 -5.69806,8.2178 m 11.24405,-4.44254 -5.55584,8.3146 m 11.16596,-4.6353 -5.412,8.40894 m 11.08458,-4.82669 -5.26655,8.5008 m 10.99991,-5.01665 -5.11953,8.59013 m 10.91198,-5.20513 -4.97101,8.67692 m 10.82083,-5.39206 -4.82102,8.76115 m 10.72648,-5.57741 -4.66959,8.84279 m 10.62894,-5.7611 -4.51679,8.9218 m 10.52828,-5.94308 -4.36266,8.99818 m 10.42449,-6.12331 -4.20722,9.0719 m 10.31761,-6.30173 -4.05055,9.14293 m 10.20768,-6.47828 -3.89267,9.21125 m 10.09474,-6.65291 -3.73365,9.27685 m 9.9788,-6.82558 -3.57351,9.33971 m 9.8599,-6.99622 -3.41232,9.39979 m 9.7381,-7.16479 -3.25012,9.45709 m 9.61341,-7.33124 -3.08696,9.51161 m 9.48588,-7.49554 -2.92289,9.56331 m 9.35554,-7.6576 -2.75795,9.61216 m 9.22242,-7.81739 -2.59218,9.65818 m 9.08658,-7.97488 -2.42566,9.70135 m 8.94805,-8.13002 -2.25842,9.74164 m 8.80688,-8.28273 -2.09052,9.77905 m 8.6631,-8.433 -1.92199,9.81356 m 8.51676,-8.58078 -1.75289,9.84517 m 8.36788,-8.72601 -1.58327,9.87386 m 8.21654,-8.86866 -1.41319,9.89964 m 8.06277,-9.00869 -1.24269,9.92248 m 7.90661,-9.14605 -1.07182,9.94239 m 7.74811,-9.28071 -0.90063,9.95937 m 7.58732,-9.41262 -0.72918,9.97338 m 7.42428,-9.54175 -0.55751,9.98445 m 7.25904,-9.66804 -0.38567,9.99256 m 7.09166,-9.79149 -0.21373,9.99772 m 6.92218,-9.91202 -0.0417,9.99991"
       id="path12" />
    <path
       style="fill:#ffffff;fill-opacity:1;stroke:#ffffff;stroke-width:1px;stroke-linecap:butt;stroke-linejoin:miter;stroke-opacity:1"
       d="m 420.0003,799.98139 v 10 m 193.17903,-62.7663 5.08366,8.6114 m 124.53265,-135.3378 8.4946,5.2765 m 48.6135,-197.21687 9.9974,0.22545 m -55.249,-188.81495 8.8066,-4.73744 M 616.66545,94.830966 l 5.1754,-8.5566 m -191.24372,-46.14517 0.27886,-9.99611 m -194.85423,57.35487 -4.84154,-8.74982 M 92.540483,227.18602 l -8.61736,-5.07356 m -43.87399,191.7775 -9.99872,-0.1603 m 59.6616,194.16033 -8.6918,4.945 m 144.437627,133.5714 -5.11954,8.5901 m 198.07677,44.9816 -0.0417,9.9999"
       id="path12-5" />
    <path
       style="opacity:0;fill:#ffffff;fill-opacity:1;stroke:#ffffff;stroke-width:1px;stroke-linecap:butt;stroke-linejoin:miter;stroke-opacity:1"
       d="m 420.0003,809.98139 6.70875,-0.0577 6.70677,-0.1731 6.7028,-0.28844 6.69684,-0.4037 6.68891,-0.51885 6.67899,-0.63382 6.6671,-0.74863 6.65324,-0.8632 6.6374,-0.97752 6.61961,-1.09156 6.59985,-1.20526 6.57814,-1.31861 6.55449,-1.43158 6.52889,-1.54411 6.50136,-1.6562 6.47191,-1.76778 6.44054,-1.87885 6.40727,-1.98937 6.3721,-2.09929 6.33505,-2.20859 6.29612,-2.31723 6.25532,-2.4252 6.21268,-2.53245 6.1682,-2.63894 6.12189,-2.74466 6.07378,-2.84955 6.02385,-2.95362 5.97216,-3.0568 5.91869,-3.15908 5.86347,-3.26043 5.80652,-3.36081"
       id="path3525" />
    <text
       xml:space="preserve"
       style="font-size:13.33333333px;line-height:1.25;font-family:'DejaVu Serif';-inkscape-font-specification:'DejaVu Serif, Normal';text-align:center;text-anchor:middle;fill:#ffffff;fill-opacity:1;stroke:#ffffff;stroke-opacity:1;font-weight:normal;font-style:normal;font-stretch:normal;font-variant:normal;font-variant-ligatures:normal;font-variant-caps:normal;font-variant-numeric:normal;font-variant-east-asian:normal"
       id="text103573"><textPath
         xlink:href="#path190852"
         startOffset="50%"
         id="textPath191082"><tspan
           id="tspan103571"
           dy="-6"
           style="fill:#ffffff;fill-opacity:1;stroke:#ffffff;stroke-opacity:1;-inkscape-font-specification:'DejaVu Serif, Normal';font-family:'DejaVu Serif';font-weight:normal;font-style:normal;font-stretch:normal;font-variant:normal;font-size:13.33333333px;font-variant-ligatures:normal;font-variant-caps:normal;font-variant-numeric:normal;font-variant-east-asian:normal">SVEČAN</tspan></textPath></text>
    <text
       xml:space="preserve"
       style="font-size:13.33333333px;line-height:1.25;font-family:'DejaVu Serif';-inkscape-font-specification:'DejaVu Serif, Normal';text-align:center;text-anchor:middle;fill:#ffffff;fill-opacity:1;stroke:#ffffff;stroke-opacity:1;font-weight:normal;font-style:normal;font-stretch:normal;font-variant:normal;font-variant-ligatures:normal;font-variant-caps:normal;font-variant-numeric:normal;font-variant-east-asian:normal"
       id="text109335"><textPath
         xlink:href="#path191000"
         startOffset="50%"
         id="textPath192970"><tspan
           id="tspan109333"
           dy="-6"
           style="fill:#ffffff;fill-opacity:1;stroke:#ffffff;stroke-opacity:1;-inkscape-font-specification:'DejaVu Serif, Normal';font-family:'DejaVu Serif';font-weight:normal;font-style:normal;font-stretch:normal;font-variant:normal;font-size:13.33333333px;font-variant-ligatures:normal;font-variant-caps:normal;font-variant-numeric:normal;font-variant-east-asian:normal">SUŠEC</tspan></textPath></text>
    <text
       xml:space="preserve"
       style="font-style:normal;font-variant:normal;font-weight:normal;font-stretch:normal;font-size:13.3333px;line-height:1.25;font-family:'DejaVu Serif';-inkscape-font-specification:'DejaVu Serif, Normal';font-variant-ligatures:normal;font-variant-caps:normal;font-variant-numeric:normal;font-variant-east-asian:normal;text-align:center;text-anchor:middle;fill:#ffffff;fill-opacity:1;stroke:#ffffff;stroke-opacity:1"
       id="text113821"><textPath
         xlink:href="#path193007"
         startOffset="50%"
         id="textPath893"><tspan
           id="tspan113819"
           dy="16"
           style="font-style:normal;font-variant:normal;font-weight:normal;font-stretch:normal;font-size:13.3333px;font-family:'DejaVu Serif';-inkscape-font-specification:'DejaVu Serif, Normal';font-variant-ligatures:normal;font-variant-caps:normal;font-variant-numeric:normal;font-variant-east-asian:normal;fill:#ffffff;fill-opacity:1;stroke:#ffffff;stroke-opacity:1">MALI TRAVEN</tspan></textPath></text>
    <text
       xml:space="preserve"
       style="font-style:normal;font-variant:normal;font-weight:normal;font-stretch:normal;font-size:13.3333px;line-height:1.25;font-family:'DejaVu Serif';-inkscape-font-specification:'DejaVu Serif, Normal';font-variant-ligatures:normal;font-variant-caps:normal;font-variant-numeric:normal;font-variant-east-asian:normal;text-align:center;text-anchor:middle;fill:#ffffff;fill-opacity:1;stroke:#ffffff;stroke-opacity:1"
       id="text122927"><textPath
         xlink:href="#path948"
         startOffset="50%"
         id="textPath18776"><tspan
           id="tspan122925"
           dy="16"
           style="font-style:normal;font-variant:normal;font-weight:normal;font-stretch:normal;font-size:13.3333px;font-family:'DejaVu Serif';-inkscape-font-specification:'DejaVu Serif, Normal';font-variant-ligatures:normal;font-variant-caps:normal;font-variant-numeric:normal;font-variant-east-asian:normal;fill:#ffffff;fill-opacity:1;stroke:#ffffff;stroke-opacity:1">VELIKI TRAVEN</tspan></textPath></text>
    <text
       xml:space="preserve"
       style="font-style:normal;font-variant:normal;font-weight:normal;font-stretch:normal;font-size:13.3333px;line-height:1.25;font-family:'DejaVu Serif';-inkscape-font-specification:'DejaVu Serif, Normal';font-variant-ligatures:normal;font-variant-caps:normal;font-variant-numeric:normal;font-variant-east-asian:normal;text-align:center;text-anchor:middle;fill:#ffffff;fill-opacity:1;stroke:#ffffff;stroke-opacity:1"
       id="text129643"><textPath
         xlink:href="#path1176"
         startOffset="50%"
         id="textPath33659"><tspan
           id="tspan129641"
           dy="16"
           style="font-style:normal;font-variant:normal;font-weight:normal;font-stretch:normal;font-size:13.3333px;font-family:'DejaVu Serif';-inkscape-font-specification:'DejaVu Serif, Normal';font-variant-ligatures:normal;font-variant-caps:normal;font-variant-numeric:normal;font-variant-east-asian:normal;fill:#ffffff;fill-opacity:1;stroke:#ffffff;stroke-opacity:1">ROŽNIK</tspan></textPath></text>
    <text
       xml:space="preserve"
       style="font-style:normal;font-variant:normal;font-weight:normal;font-stretch:normal;font-size:13.3333px;line-height:1.25;font-family:'DejaVu Serif';-inkscape-font-specification:'DejaVu Serif, Normal';font-variant-ligatures:normal;font-variant-caps:normal;font-variant-numeric:normal;font-variant-east-asian:normal;text-align:center;text-anchor:middle;fill:#ffffff;fill-opacity:1;stroke:#ffffff;stroke-opacity:1"
       id="text135117"><textPath
         xlink:href="#path1291"
         startOffset="50%"
         id="textPath33662"><tspan
           id="tspan135115"
           dy="16"
           style="font-style:normal;font-variant:normal;font-weight:normal;font-stretch:normal;font-size:13.3333px;font-family:'DejaVu Serif';-inkscape-font-specification:'DejaVu Serif, Normal';font-variant-ligatures:normal;font-variant-caps:normal;font-variant-numeric:normal;font-variant-east-asian:normal;fill:#ffffff;fill-opacity:1;stroke:#ffffff;stroke-opacity:1">MALI SRPAN</tspan></textPath></text>
    <text
       xml:space="preserve"
       style="font-style:normal;font-variant:normal;font-weight:normal;font-stretch:normal;font-size:13.3333px;line-height:1.25;font-family:'DejaVu Serif';-inkscape-font-specification:'DejaVu Serif, Normal';font-variant-ligatures:normal;font-variant-caps:normal;font-variant-numeric:normal;font-variant-east-asian:normal;text-align:center;text-anchor:middle;fill:#ffffff;fill-opacity:1;stroke:#ffffff;stroke-opacity:1"
       id="text142163"><textPath
         xlink:href="#path33797"
         startOffset="50%"
         id="textPath33994"><tspan
           id="tspan142161"
           dy="16"
           style="font-style:normal;font-variant:normal;font-weight:normal;font-stretch:normal;font-size:13.3333px;font-family:'DejaVu Serif';-inkscape-font-specification:'DejaVu Serif, Normal';font-variant-ligatures:normal;font-variant-caps:normal;font-variant-numeric:normal;font-variant-east-asian:normal;fill:#ffffff;fill-opacity:1;stroke:#ffffff;stroke-opacity:1">VELIKI SRPAN</tspan></textPath></text>
    <text
       xml:space="preserve"
       style="font-style:normal;font-variant:normal;font-weight:normal;font-stretch:normal;font-size:13.3333px;line-height:1.25;font-family:'DejaVu Serif';-inkscape-font-specification:'DejaVu Serif, Normal';font-variant-ligatures:normal;font-variant-caps:normal;font-variant-numeric:normal;font-variant-east-asian:normal;text-align:center;text-anchor:middle;fill:#ffffff;fill-opacity:1;stroke:#ffffff;stroke-opacity:1"
       id="text147229"><textPath
         xlink:href="#path33912"
         startOffset="50%"
         id="textPath33997"><tspan
           id="tspan147227"
           dy="16"
           style="font-style:normal;font-variant:normal;font-weight:normal;font-stretch:normal;font-size:13.3333px;font-family:'DejaVu Serif';-inkscape-font-specification:'DejaVu Serif, Normal';font-variant-ligatures:normal;font-variant-caps:normal;font-variant-numeric:normal;font-variant-east-asian:normal;fill:#ffffff;fill-opacity:1;stroke:#ffffff;stroke-opacity:1">KIMAVEC</tspan></textPath></text>
    <text
       xml:space="preserve"
       style="font-size:13.33333333px;line-height:1.25;font-family:'DejaVu Serif';-inkscape-font-specification:'DejaVu Serif, Normal';text-align:center;text-anchor:middle;fill:#ffffff;fill-opacity:1;stroke:#ffffff;stroke-opacity:1;font-weight:normal;font-style:normal;font-stretch:normal;font-variant:normal;font-variant-ligatures:normal;font-variant-caps:normal;font-variant-numeric:normal;font-variant-east-asian:normal"
       id="text151359"><textPath
         xlink:href="#path41181"
         startOffset="50%"
         id="textPath41263"><tspan
           id="tspan151357"
           dy="-6"
           style="fill:#ffffff;fill-opacity:1;stroke:#ffffff;stroke-opacity:1;-inkscape-font-specification:'DejaVu Serif, Normal';font-family:'DejaVu Serif';font-weight:normal;font-style:normal;font-stretch:normal;font-variant:normal;font-size:13.33333333px;font-variant-ligatures:normal;font-variant-caps:normal;font-variant-numeric:normal;font-variant-east-asian:normal">VINOTOK</tspan></textPath></text>
    <text
       xml:space="preserve"
       style="font-size:13.33333333px;line-height:1.25;font-family:'DejaVu Serif';-inkscape-font-specification:'DejaVu Serif, Normal';text-align:center;text-anchor:middle;fill:#ffffff;fill-opacity:1;stroke:#ffffff;stroke-opacity:1;font-weight:normal;font-style:normal;font-stretch:normal;font-variant:normal;font-variant-ligatures:normal;font-variant-caps:normal;font-variant-numeric:normal;font-variant-east-asian:normal"
       id="text156041"><textPath
         xlink:href="#path41299"
         startOffset="50%"
         id="textPath41381"><tspan
           id="tspan156039"
           style="fill:#ffffff;fill-opacity:1;stroke:#ffffff;stroke-opacity:1;-inkscape-font-specification:'DejaVu Serif, Normal';font-family:'DejaVu Serif';font-weight:normal;font-style:normal;font-stretch:normal;font-variant:normal;font-size:13.33333333px;font-variant-ligatures:normal;font-variant-caps:normal;font-variant-numeric:normal;font-variant-east-asian:normal"
           dy="-6">LISTOPAD</tspan></textPath></text>
    <text
       xml:space="preserve"
       style="font-size:13.33333333px;line-height:1.25;font-family:'DejaVu Serif';-inkscape-font-specification:'DejaVu Serif, Normal';text-align:center;text-anchor:middle;fill:#ffffff;fill-opacity:1;stroke:#ffffff;stroke-opacity:1;font-weight:normal;font-style:normal;font-stretch:normal;font-variant:normal;font-variant-ligatures:normal;font-variant-caps:normal;font-variant-numeric:normal;font-variant-east-asian:normal"
       id="text161347"><textPath
         xlink:href="#path1768"
         startOffset="50%"
         id="textPath40990"><tspan
           id="tspan161345"
           dy="-6"
           style="fill:#ffffff;fill-opacity:1;stroke:#ffffff;stroke-opacity:1;-inkscape-font-specification:'DejaVu Serif, Normal';font-family:'DejaVu Serif';font-weight:normal;font-style:normal;font-stretch:normal;font-variant:normal;font-size:13.33333333px;font-variant-ligatures:normal;font-variant-caps:normal;font-variant-numeric:normal;font-variant-east-asian:normal">GRUDEN</tspan></textPath></text>
    <text
       xml:space="preserve"
       style="font-size:13.33333333px;line-height:1.25;font-family:'DejaVu Serif';-inkscape-font-specification:'DejaVu Serif, Normal';text-align:center;text-anchor:middle;fill:#ffffff;fill-opacity:1;stroke:#ffffff;stroke-opacity:1;font-weight:normal;font-style:normal;font-stretch:normal;font-variant:normal;font-variant-ligatures:normal;font-variant-caps:normal;font-variant-numeric:normal;font-variant-east-asian:normal"
       id="text172026"><textPath
         xlink:href="#path3525"
         startOffset="50%"
         id="textPath186842"><tspan
           id="tspan172024"
           dy="-6"
           style="fill:#ffffff;fill-opacity:1;stroke:#ffffff;stroke-opacity:1;-inkscape-font-specification:'DejaVu Serif, Normal';font-family:'DejaVu Serif';font-weight:normal;font-style:normal;font-stretch:normal;font-variant:normal;font-size:13.33333333px;font-variant-ligatures:normal;font-variant-caps:normal;font-variant-numeric:normal;font-variant-east-asian:normal">PROSINEC</tspan></textPath></text>
    <path
       style="opacity:0;fill:#ffffff;fill-opacity:1;stroke:#ffffff;stroke-width:1px;stroke-linecap:butt;stroke-linejoin:miter;stroke-opacity:1"
       d="m 618.26299,755.82645 5.74785,-3.46019 5.68747,-3.55856 5.62542,-3.65586 5.56171,-3.75209 5.49633,-3.84721 5.42934,-3.94119 5.36074,-4.034 5.29056,-4.12561 5.2188,-4.21602 5.14551,-4.30516 5.07069,-4.39304 4.99437,-4.47962 4.91657,-4.56486 4.83732,-4.64877 4.75664,-4.73128 4.67454,-4.81242 4.59108,-4.89211 4.50624,-4.97036 4.42007,-5.04714 4.3326,-5.12243 4.24384,-5.1962 4.15383,-5.26843 4.06258,-5.33911 3.97015,-5.4082 3.87652,-5.4757 3.78176,-5.54157 3.68587,-5.6058 3.58885,-5.66833"
       id="path190852" />
    <path
       style="opacity:0;fill:#ffffff;fill-opacity:1;stroke:#ffffff;stroke-width:1px;stroke-linecap:butt;stroke-linejoin:miter;stroke-opacity:1"
       d="m 751.29029,625.76514 3.49085,-5.72927 3.39179,-5.78848 3.29171,-5.84597 3.19067,-5.90172 3.08867,-5.95574 2.98576,-6.00799 2.88197,-6.05845 2.77733,-6.10714 2.67187,-6.15401 2.5656,-6.19906 2.45859,-6.24228 2.35085,-6.28364 2.24241,-6.32316 2.13331,-6.36079 2.02358,-6.39655 1.91324,-6.43041 1.80234,-6.46237 1.69091,-6.49242 1.57898,-6.52054 1.46658,-6.54675 1.35375,-6.571 1.24051,-6.59331 1.12691,-6.61368 1.01297,-6.63209 0.89875,-6.64853 0.78424,-6.66301 0.6695,-6.67551 0.55458,-6.68604 0.43948,-6.69459 0.32426,-6.70116 0.20889,-6.70571"
       id="path191000" />
    <path
       style="opacity:0;fill:#ffffff;fill-opacity:1;stroke:#ffffff;stroke-width:1px;stroke-linecap:butt;stroke-linejoin:miter;stroke-opacity:1"
       d="m 763.45879,235.22132 3.12741,5.93549 3.02485,5.98841 2.92138,6.03955 2.81706,6.08891 2.71191,6.13647 2.60594,6.18221 2.49921,6.22613 2.39174,6.26819 2.28356,6.30841 2.17471,6.34676 2.06521,6.38323 1.95509,6.41781 1.84441,6.45049 1.73318,6.48126 1.62143,6.51012 1.50921,6.53705 1.39653,6.56204 1.28344,6.58509 1.16998,6.6062 1.05616,6.62535 0.94204,6.64253 0.82764,6.65775 0.71299,6.67101 0.59813,6.68229 0.48309,6.69158 0.36791,6.69891 0.25263,6.70424 0.13726,6.70759 0.0219,6.709 -0.0936,6.70835"
       id="path193007" />
    <path
       style="opacity:0;fill:#ffffff;fill-opacity:1;stroke:#ffffff;stroke-width:1px;stroke-linecap:butt;stroke-linejoin:miter;stroke-opacity:1"
       d="m 621.84086,86.274314 5.71054,3.521423 5.64912,3.619135 5.58603,3.715775 5.52128,3.811313 5.4549,3.90573 5.38691,3.99899 5.31733,4.09105 5.24616,4.18193 5.17345,4.27154 5.0992,4.35991 5.02345,4.44698 4.94621,4.53274 4.86751,4.61714 4.78736,4.7002 4.70581,4.78185 4.62285,4.86209 4.53852,4.9409 4.45287,5.01824 4.36588,5.09409 4.27761,5.16844 4.18806,5.24125 4.09729,5.31253 4.0053,5.38222 3.91211,5.45032 3.81779,5.51681 3.72232,5.58167 3.62575,5.64488 3.52811,5.7064 3.42943,5.76626 3.32973,5.82439 3.22905,5.88081"
       id="path948" />
    <path
       style="opacity:0;fill:#ffffff;fill-opacity:1;stroke:#ffffff;stroke-width:1px;stroke-linecap:butt;stroke-linejoin:miter;stroke-opacity:1"
       d="m 430.876,30.133031 6.70453,0.244767 6.69934,0.360061 6.69214,0.475249 6.68298,0.590297 6.67184,0.70517 6.65872,0.819833 6.64363,0.934256 6.62658,1.0484 6.60757,1.162235 6.58659,1.275726 6.56367,1.388839 6.53881,1.501542 6.51202,1.6138 6.48329,1.72558 6.45265,1.83685 6.42009,1.947576 6.38565,2.057726 6.3493,2.167266 6.31108,2.276167 6.271,2.384392 6.22905,2.491913 6.18526,2.598696 6.13964,2.704709 6.09221,2.809924 6.04297,2.914305 5.99195,3.017825 5.93915,3.120451 5.88459,3.222154 5.82829,3.322904 5.77027,3.42267"
       id="path1176" />
    <path
       style="opacity:0;fill:#ffffff;fill-opacity:1;stroke:#ffffff;stroke-width:1px;stroke-linecap:butt;stroke-linejoin:miter;stroke-opacity:1"
       d="m 231.18022,78.738111 5.89798,-3.197577 5.95212,-3.095648 6.00448,-2.992802 6.05508,-2.889071 6.10387,-2.784484 6.15088,-2.679074 6.19605,-2.57287 6.23939,-2.465906 6.28088,-2.358211 6.32053,-2.249819 6.35828,-2.140761 6.39418,-2.031069 6.42816,-1.920777 6.46026,-1.809915 6.49043,-1.698519 6.51869,-1.58662 6.54502,-1.474251 6.56941,-1.361446 6.59186,-1.248238 6.61235,-1.13466 6.63089,-1.020747 6.64748,-0.906532 6.66208,-0.792049 6.67472,-0.677331 6.68539,-0.562412 6.69407,-0.447328 6.70077,-0.332111 6.7055,-0.216795 6.70823,-0.101416 6.709,0.01396 6.70774,0.129454"
       id="path1291" />
    <path
       style="opacity:0;fill:#ffffff;fill-opacity:1;stroke:#ffffff;stroke-width:1px;stroke-linecap:butt;stroke-linejoin:miter;stroke-opacity:1"
       d="m 220.3383,754.99649 5.79245,3.38494 5.84982,3.28486 5.90546,3.18374 5.95935,3.08169 6.01149,2.97872 6.06183,2.87487 6.11039,2.77017 6.15713,2.66465 6.20207,2.55834 6.24515,2.45127 6.28639,2.34349 6.32578,2.235 6.36329,2.12585 6.39892,2.01607 6.43265,1.90571 6.46447,1.79477 6.4944,1.6833 6.52239,1.57133 6.54846,1.45891 6.57258,1.34605 6.59477,1.23278 6.61499,1.11916 6.63327,1.0052 6.64958,0.89095 6.66392,0.77643 6.67629,0.66168 6.68669,0.54675 6.6951,0.43163 6.70153,0.31641 6.70599,0.20107 6.70847,0.0857"
       id="path1768" />
    <path
       style="opacity:0;fill:#ffffff;fill-opacity:1;stroke:#ffffff;stroke-width:1px;stroke-linecap:butt;stroke-linejoin:miter;stroke-opacity:1"
       d="m 83.923123,222.11246 3.45346,-5.75193 3.551888,-5.69164 3.649269,-5.6297 3.745572,-5.56609 3.840768,-5.50084 3.93482,-5.43396 4.02771,-5.36546 4.11942,-5.29539 4.20989,-5.22374 4.29913,-5.15055 4.38709,-5.07583 4.47376,-4.99962 4.5591,-4.92192 4.64309,-4.84276 4.72571,-4.76218 4.80693,-4.68018 4.88673,-4.59681 4.96508,-4.51206 5.04196,-4.42598 5.11734,-4.3386 5.19123,-4.24993 5.26356,-4.16 5.33434,-4.06884 5.40355,-3.97648 5.47115,-3.88294 5.53712,-3.788246 5.60148,-3.692439 5.66417,-3.595537 5.72518,-3.497571 5.7845,-3.398568 5.8421,-3.298562"
       id="path33797" />
    <path
       style="opacity:0;fill:#ffffff;fill-opacity:1;stroke:#ffffff;stroke-width:1px;stroke-linecap:butt;stroke-linejoin:miter;stroke-opacity:1"
       d="m 30.050413,413.72966 0.165241,-6.70699 0.28059,-6.70313 0.395864,-6.69732 0.511003,-6.68951 0.625999,-6.67973 0.740811,-6.66797 0.855404,-6.65425 0.969742,-6.63854 1.083795,-6.62088 1.197527,-6.60126 1.310904,-6.57969 1.423893,-6.55615 1.536461,-6.5307 1.648574,-6.5033 1.760199,-6.47397 1.871304,-6.44275 1.981855,-6.40959 2.091819,-6.37456 2.201164,-6.33763 2.309858,-6.29883 2.417868,-6.25816 2.525162,-6.21565 2.63171,-6.17128 2.737479,-6.12511 2.842437,-6.0771 2.946555,-6.02732 3.0498,-5.97573 3.152143,-5.92239 3.253553,-5.86729 3.353996,-5.81042"
       id="path33912" />
    <path
       style="opacity:0;fill:#ffffff;fill-opacity:1;stroke:#ffffff;stroke-width:1px;stroke-linecap:butt;stroke-linejoin:miter;stroke-opacity:1"
       d="m 30.050414,413.72963 -0.04984,6.70882 0.06557,6.70868 0.180961,6.70656 0.2963,6.70245 0.411551,6.69637 0.52668,6.68829 0.641654,6.67825 0.756438,6.66622 0.870998,6.65222 0.9853,6.63625 1.099311,6.61832 1.212995,6.59844 1.326323,6.57659 1.439256,6.5528 1.551763,6.52708 1.663813,6.49941 1.775369,6.46984 1.8864,6.43834 1.996872,6.40493 2.106754,6.36964 2.216013,6.33245 2.324615,6.2934 2.43253,6.25248 2.539724,6.20971 2.646168,6.1651 2.751828,6.11867 2.856673,6.07043 2.960674,6.02039 3.063798,5.96857 3.166016,5.91498 3.267296,5.85965"
       id="path41181" />
    <path
       style="opacity:0;fill:#ffffff;fill-opacity:1;stroke:#ffffff;stroke-width:1px;stroke-linecap:butt;stroke-linejoin:miter;stroke-opacity:1"
       d="m 81.020213,612.83499 3.367608,5.80254 3.466928,5.74379 3.565218,5.6833 3.662455,5.62113 3.758607,5.55728 3.853651,5.49182 3.94754,5.42472 4.04028,5.35601 4.13182,5.28571 4.22212,5.21386 4.31119,5.14046 4.39898,5.06554 4.48547,4.98911 4.57062,4.91122 4.65443,4.83187 4.73686,4.75109 4.81789,4.66891 4.89748,4.58533 4.97564,4.50041 5.05232,4.41416 5.12751,4.32659 5.20117,4.23775 5.27329,4.14765 5.34387,4.05633 5.41285,3.9638 5.48024,3.8701 5.54599,3.77526 5.61012,3.6793 5.67258,3.58225 5.73336,3.48415"
       id="path41299" />
    <path
       style="fill:none;stroke:#ffffff;stroke-width:1px;stroke-linecap:butt;stroke-linejoin:miter;stroke-opacity:1"
       d="m 420.0003,819.98139 v 10 m 6.88077,-10.0592 0.17202,9.9986 m 6.70672,-10.1761 0.34398,9.9941 m 6.53068,-10.2899 0.51585,9.9867 m 6.35271,-10.4008 0.68757,9.9763 m 6.17285,-10.5084 0.85907,9.963 m 5.99117,-10.6131 1.03034,9.9468 m 5.80772,-10.7146 1.20128,9.9276 m 5.62255,-10.813 1.37188,9.9055 m 5.43572,-10.9081 1.54207,9.8804 m 5.24727,-10.9999 1.7118,9.8524 m 5.05727,-11.0886 1.88104,9.8215 m 4.86578,-11.1739 2.0497,9.7877 m 4.67284,-11.256 2.21777,9.751 m 4.47853,-11.3347 2.38517,9.7114 m 4.28289,-11.41 2.55188,9.6689 m 4.08598,-11.482 2.71782,9.6235 m 3.88787,-11.5506 2.88296,9.5754 m 3.6886,-11.6158 3.04725,9.5245 m 3.48823,-11.6776 3.21064,9.4706 m 3.28685,-11.7358 3.37308,9.414 m 3.08447,-11.7906 3.53452,9.3545 m 2.8812,-11.8419 3.69491,9.2923 m 2.67707,-11.8897 3.85421,9.2274 m 2.47215,-11.934 4.01237,9.1597 m 2.26649,-11.9747 4.16934,9.0893 m 2.06017,-12.012 4.32508,9.0163 m 1.85324,-12.0456 4.47953,8.9406 m 1.64576,-12.0758 4.63266,8.8622 m 1.43779,-12.1023 4.78442,8.7812 m 1.22939,-12.1252 4.93478,8.6976 m 1.02063,-12.1446 5.08366,8.6114 m 0.81156,-12.1603 5.23104,8.5227 m 0.60227,-12.1725 5.37687,8.4314 m 0.39279,-12.181 5.52112,8.3377 m 0.18319,-12.186 5.66372,8.2415 m -0.0265,-12.1874 5.80466,8.1429 m -0.2361,-12.1851 5.94386,8.0418 m -0.44567,-12.1792 6.08132,7.9383 m -0.65511,-12.1697 6.21698,7.8325 m -0.86436,-12.1567 6.35079,7.7245 m -1.07335,-12.14 6.48273,7.6141 m -1.28202,-12.1198 6.61275,7.5014 m -1.49032,-12.0959 6.74081,7.3866 m -1.69817,-12.0685 6.86687,7.2695 m -1.90551,-12.0375 6.9909,7.1504 m -2.1123,-12.003 7.11287,7.0291 m -2.31846,-11.9649 7.23273,6.9057 m -2.52394,-11.9232 7.35045,6.7802 m -2.72867,-11.878 7.466,6.6527 m -2.93259,-11.8293 7.57933,6.5234 m -3.13564,-11.7771 7.69042,6.3919 m -3.33776,-11.7214 7.79924,6.2588 m -3.53891,-11.6623 7.90575,6.1237 m -3.73899,-11.5997 8.00992,5.9867 m -3.93798,-11.5336 8.11172,5.8481 m -4.1358,-11.4642 8.21112,5.7077 m -4.33239,-11.3913 8.30808,5.5655 m -4.5277,-11.3151 8.40259,5.4219 m -4.72167,-11.2356 8.49462,5.2765 m -4.91425,-11.1527 8.58412,5.1296 m -5.10537,-11.0665 8.6711,4.9812 m -5.29498,-10.977 8.7555,4.8312 m -5.48303,-10.8843 8.83731,4.68 m -5.66944,-10.7884 8.91651,4.5272 m -5.85419,-10.6893 8.99307,4.3732 m -6.0372,-10.587 9.06696,4.2179 m -6.21842,-10.48162 9.13818,4.06126 m -6.3978,-10.37306 9.20668,3.90346 m -6.57529,-10.26147 9.27247,3.74451 m -6.75084,-10.14684 9.33551,3.58445 m -6.92438,-10.02922 9.39578,3.42333 m -7.09587,-9.90862 9.45328,3.26121 m -7.26528,-9.7851 9.50799,3.09811 m -7.43252,-9.65867 9.55987,2.93409 m -7.59758,-9.52938 9.60893,2.76921 m -7.76037,-9.39729 9.65514,2.60351 m -7.92087,-9.2624 9.6985,2.43704 m -8.07903,-9.12478 9.73898,2.26984 m -8.2348,-8.98444 9.77659,2.10197 m -8.38813,-8.84146 9.8113,1.93349 m -8.53898,-8.69587 9.84311,1.76443 m -8.68731,-8.54769 9.87201,1.59485 m -8.83306,-8.39699 9.89798,1.4248 m -8.97619,-8.2438 9.92102,1.25432 m -9.11667,-8.08817 9.94113,1.08347 m -9.25446,-7.93015 9.9583,0.9123 m -9.3895,-7.76978 9.97252,0.74087 m -9.52177,-7.60712 9.98379,0.56922 m -9.65122,-7.4422 9.9921,0.39739 m -9.7778,-7.27508 9.99745,0.22545 m -9.9015,-7.10581 9.99986,0.0534 m -10.02228,-6.93442 9.9993,-0.11859 m -10.14008,-6.761 9.99578,-0.29058 m -10.25488,-6.58557 9.9893,-0.46248 m -10.36664,-6.40819 9.97986,-0.63425 m -10.47534,-6.22891 9.96748,-0.80583 m -10.58095,-6.0478 9.95214,-0.97717 m -10.68341,-5.86489 9.93386,-1.14822 m -10.78272,-5.68024 9.91264,-1.31893 m -10.87883,-5.49393 9.88848,-1.48925 m -10.97173,-5.30597 9.86141,-1.65914 m -11.06139,-5.11645 9.83141,-1.82852 m -11.14776,-4.92542 9.7985,-1.99737 m -11.23084,-4.73293 9.76269,-2.16563 m -11.31059,-4.53903 9.72399,-2.33325 m -11.38699,-4.3438 9.68241,-2.50017 m -11.46003,-4.14728 9.63797,-2.66636 m -11.52967,-3.94953 9.59068,-2.83175 m -11.59591,-3.75062 9.54055,-2.99631 m -11.65872,-3.55059 9.4876,-3.15998 m -11.71806,-3.34951 9.43183,-3.32273 m -11.77395,-3.14744 9.37328,-3.48448 m -11.82635,-2.94443 9.31196,-3.64521 m -11.87525,-2.74056 9.24787,-3.80485 m -11.92063,-2.53588 9.18105,-3.96337 m -11.96249,-2.33045 9.11152,-4.12071 m -12.00081,-2.12433 9.03928,-4.27683 m -12.03558,-1.91758 8.96438,-4.4317 m -12.06678,-1.71025 8.88682,-4.58525 m -12.09442,-1.50243 8.80663,-4.73744 m -12.11847,-1.29416 8.72383,-4.88823 m -12.13894,-1.08551 8.63845,-5.03757 m -12.15582,-0.87654 8.55052,-5.18542 m -12.1691,-0.66731 8.46006,-5.33174 m -12.17878,-0.45787 8.36709,-5.47648 m -12.18485,-0.24831 8.27164,-5.6196 m -12.18731,-0.0387 8.17375,-5.76105 m -12.18618,0.17098 8.07344,-5.90081 m -12.18144,0.38058 7.97074,-6.03881 m -12.17309,0.59007 7.86569,-6.17503 m -12.16114,0.79938 7.7583,-6.30942 m -12.14559,1.00846 7.64862,-6.44195 m -12.12645,1.21724 7.53667,-6.57257 m -12.1037,1.42566 7.42249,-6.70124 m -12.0774,1.63365 7.30612,-6.82792 m -12.0475,1.84116 7.18759,-6.9526 m -12.01405,2.04814 7.06692,-7.07521 m -11.97704,2.2545 6.94417,-7.19573 m -11.93649,2.46019 6.81937,-7.31412 m -11.8924,2.66516 6.69253,-7.43034 m -11.84479,2.86934 6.56373,-7.54437 m -11.79368,3.07267 6.43298,-7.65616 m -11.73908,3.27508 6.30032,-7.76568 m -11.681,3.47653 6.16581,-7.872907 m -11.61948,3.676947 6.02947,-7.977807 m -11.5545,3.87629 5.89134,-8.08035 m -11.48612,4.07447 5.75148,-8.18049 m -11.41433,4.27145 5.6099,-8.27822 m -11.33916,4.46717 5.46667,-8.3735 m -11.26064,4.66157 5.32182,-8.4663 m -11.17878,4.85458 5.1754,-8.55659 m -11.09363,5.04616 5.02745,-8.64435 m -11.00518,5.23625 4.878,-8.72956 m -10.91348,5.42478 4.72711,-8.81217 m -10.81854,5.61171 4.57482,-8.89219 m -10.72041,5.79698 4.42119,-8.96956 m -10.61911,5.98053 4.26624,-9.04429 m -10.51466,6.16232 4.11003,-9.11634 m -10.4071,6.34228 3.9526,-9.18569 m -10.29646,6.52036 3.79401,-9.25232 m -10.18278,6.69651 3.63429,-9.31622 m -10.06608,6.87069 3.4735,-9.377363 m -9.9464,7.042833 3.31167,-9.435723 m -9.82378,7.212883 3.14887,-9.491293 m -9.69824,7.380813 2.98513,-9.544063 m -9.56985,7.54654 2.82052,-9.59399 m -9.43862,7.71004 2.65506,-9.64109 m -9.30459,7.87127 2.48883,-9.68534 m -9.16782,8.03016 2.32185,-9.72672 m -9.02832,8.18668 2.15419,-9.76522 m -8.88616,8.34077 1.98588,-9.80083 m -8.74136,8.49239 1.817,-9.83354 m -8.59399,8.6415 1.64757,-9.86334 m -8.44406,8.78806 1.47766,-9.89022 m -8.29164,8.93201 1.30731,-9.91418 m -8.13677,9.07332 1.13658,-9.9352 m -7.97949,9.21195 0.9655,-9.95328 m -7.8198,9.34792 0.79415,-9.96842 m -7.65789,9.48099 0.62255,-9.98061 m -7.49366,9.61131 0.45077,-9.98983 m -7.32722,9.73879 0.27887,-9.99611 m -7.15861,9.86339 0.10687,-9.99943 m -6.98788,9.98508 -0.0652,-9.99979 m -6.81508,10.10381 -0.23716,-9.99719 m -6.64027,10.21954 -0.4091,-9.99163 m -6.46349,10.33226 -0.58092,-9.98312 m -6.2848,10.44191 -0.75255,-9.97164 m -6.10425,10.54848 -0.92398,-9.95722 m -5.92189,10.65192 -1.09512,-9.93986 m -5.73779,10.75221 -1.26594,-9.91954 m -5.55198,10.84932 -1.43639,-9.8963 m -5.36452,10.94322 -1.60642,-9.87013 m -5.17549,11.03388 -1.77596,-9.84103 m -4.98492,11.12128 -1.94498,-9.80903 m -4.79287,11.20538 -2.11343,-9.77412 m -4.59941,11.28618 -2.28125,-9.73632 m -4.40459,11.36362 -2.4484,-9.69564 m -4.20845,11.43771 -2.61482,-9.65209 m -4.01109,11.50841 -2.78046,-9.60567 m -3.81252,11.575703 -2.9453,-9.556433 m -3.61283,11.639583 -3.10924,-9.504353 m -3.41208,11.700003 -3.27228,-9.449463 m -3.21031,11.756973 -3.43434,-9.391773 m -3.00759,11.810443 -3.59539,-9.331303 m -2.80399,11.860443 -3.75537,-9.26807 m -2.59955,11.90691 -3.91425,-9.2021 m -2.39434,11.94987 -4.07196,-9.13341 m -2.18843,11.98929 -4.22847,-9.06201 m -1.98186,12.02516 -4.38373,-8.98793 m -1.77472,12.05747 -4.53769,-8.91119 m -1.56704,12.08621 -4.69031,-8.83181 m -1.3589,12.11138 -4.84154,-8.74983 m -1.15036,12.13297 -4.99134,-8.66525 m -0.94148,12.15096 -5.13966,-8.57811 m -0.73232,12.16536 -5.28646,-8.48842 m -0.52294,12.17615 -5.43169,-8.39623 m -0.31342,12.18335 -5.57532,-8.30155 m -0.10379,12.18693 -5.7173,-8.20442 m 0.10586,12.18692 -5.85758,-8.10485 m 0.31549,12.18329 -5.99614,-8.00289 m 0.52501,12.176057 -6.13291,-7.898557 m 0.73439,12.165227 -6.26788,-7.7919 m 0.94355,12.1508 -6.40099,-7.68293 m 1.15243,12.13278 -6.5322,-7.57168 m 1.36096,12.11115 -6.66149,-7.4582 m 1.5691,12.08595 -6.78879,-7.3425 m 1.77676,12.05717 -6.91409,-7.22463 m 1.98391,12.02482 -7.03735,-7.10463 m 2.19047,11.98892 -7.15852,-6.98253 m 2.39637,11.94946 -7.27756,-6.85834 m 2.60157,11.90647 -7.39447,-6.73215 m 2.806,11.85996 -7.50918,-6.60395 m 3.0096,11.80993 -7.62168,-6.4738 m 3.21231,11.75642 -7.73191,-6.34174 m 3.41407,11.69942 -7.839852,-6.20779 m 3.614812,11.63896 -7.945478,-6.07202 m 3.814486,11.57506 -8.048746,-5.93444 m 4.01304,11.50772 -8.14965,-5.7951 m 4.2104,11.43699 -8.24813,-5.65406 m 4.40652,11.36287 -8.34417,-5.51134 m 4.60133,11.28539 -8.43774,-5.36699 m 4.79478,11.20457 -8.528815,-5.22105 m 4.986805,11.12043 -8.617361,-5.07356 m 5.177361,11.033 -8.703361,-4.92457 m 5.366386,10.94231 -8.786788,-4.77414 m 5.553821,10.84838 -8.867612,-4.62228 m 5.739612,10.75124 -8.945813,-4.46906 m 5.923705,10.65092 -9.021365,-4.31451 m 6.106045,10.54744 -9.094248,-4.15869 m 6.286578,10.44085 -9.16444,-4.00163 m 6.46525,10.33115 -9.23192,-3.84339 m 6.642009,10.21841 -9.296667,-3.68401 m 6.816803,10.10264 -9.358664,-3.52355 m 6.989579,9.98389 -9.417891,-3.36204 m 7.160287,9.86217 -9.474331,-3.19954 m 7.328875,9.73755 -9.527967,-3.03609 m 7.495296,9.61003 -9.578784,-2.87174 m 7.659498,9.47968 -9.626766,-2.70654 m 7.821433,9.34652 -9.671901,-2.54054 m 7.981056,9.21059 -9.714172,-2.37379 m 8.138315,9.07194 -9.753569,-2.20634 m 8.293165,8.9306 -9.790078,-2.03823 m 8.445562,8.78663 -9.823692,-1.86953 m 8.595459,8.64005 -9.854397,-1.70026 m 8.742813,8.49091 -9.882186,-1.5305 m 8.887577,8.33926 -9.90705,-1.36027 m 9.029713,8.18514 -9.928984,-1.18965 m 9.169178,8.02859 -9.947979,-1.01867 m 9.305928,7.86968 -9.96403,-0.8474 m 9.439925,7.70844 -9.977133,-0.67588 m 9.571128,7.54492 -9.987282,-0.50415 m 9.699498,7.37915 -9.994477,-0.33227 m 9.824999,7.21121 -9.998714,-0.1603 m 9.947593,7.04114 -9.999992,0.0117 m 10.067241,6.86899 -9.998311,0.18374 m 10.183912,6.69479 -9.993671,0.3557 m 10.297568,6.51861 -9.986073,0.52756 m 10.408177,6.3405 -9.975521,0.69926 m 10.515706,6.16053 -9.962016,0.87076 m 10.620123,5.97873 -9.945564,1.04199 m 10.721397,5.79516 -9.926167,1.21292 m 10.819499,5.60987 -9.903835,1.38349 m 10.9144,5.42292 -9.878572,1.55365 m 11.00607,5.23438 -9.850385,1.72335 m 11.094483,5.04427 -9.819282,1.89254 m 11.179612,4.85268 -9.785274,2.06117 m 11.261434,4.65966 -9.74837,2.22919 m 11.339923,4.46524 -9.708581,2.39655 m 11.415056,4.26952 -9.66592,2.5632 m 11.486811,4.07253 -9.620397,2.72909 m 11.555166,3.87433 -9.572027,2.89418 m 11.620101,3.67498 -9.520825,3.05842 m 11.681599,3.47454 -9.466806,3.22174 m 11.739639,3.27309 -9.409985,3.38411 m 11.794206,3.07065 -9.35038,3.54548 m 11.845282,2.86732 -9.288007,3.7058 m 11.892852,2.66314 -9.222885,3.86501 m 11.936904,2.45817 -9.155036,4.0231 m 11.977423,2.25246 -9.084476,4.18002 m 12.014397,2.0461 -9.011227,4.3356 m 12.047816,1.8391 -8.935313,4.49 m 12.07767,1.6316 -8.856754,4.6431 m 12.10395,1.4236 -8.775574,4.7947 m 12.126644,1.2152 -8.691794,4.9449 m 12.145754,1.0064 -8.605446,5.0938 m 12.161266,0.7973 -8.516548,5.241 m 12.173188,0.588 -8.42514,5.3868 m 12.1815,0.3785 -8.33122,5.5309 m 12.1862,0.1689 -8.23485,5.6733 m 12.18731,-0.041 -8.13604,5.8142 m 12.184806,-0.2503 -8.034816,5.9532 m 12.178698,-0.4599 -7.931228,6.0906 m 12.168978,-0.6694 -7.825282,6.2262 m 12.155672,-0.8786 -7.71702,6.3598 m 12.13875,-1.0875 -7.60647,6.4916 m 12.11825,-1.2962 -7.49369,6.6215 m 12.09417,-1.5045 -7.37868,6.7495 m 12.06648,-1.7123 -7.26146,6.8754 m 12.03524,-1.9197 -7.14213,6.9993 m 12.00045,-2.1263 -7.02068,7.1211 m 11.9621,-2.3325 -6.89714,7.2408 m 11.9202,-2.5379 -6.77156,7.3584 m 11.87478,-2.7426 -6.64398,7.4738 m 11.82585,-2.9465 -6.51444,7.587 m 11.77341,-3.1494 -6.38296,7.6979 m 11.7175,-3.3515 -6.2496,7.8065 m 11.65811,-3.5525 -6.11439,7.9129 m 11.59528,-3.7526 -5.97737,8.0169 m 11.52901,-3.9515 -5.83857,8.1186 m 11.45932,-4.1492 -5.69805,8.2178 m 11.38626,-4.3458 -5.55585,8.3146 m 11.30981,-4.5409 -5.41199,8.4089 m 11.23002,-4.7348 -5.26654,8.5008 m 11.14692,-4.9273 -5.11954,8.5901 m 11.06051,-5.1183 -4.97102,8.6769 m 10.97083,-5.3079 -4.82102,8.7612 m 10.87791,-5.4958 -4.6696,8.8428 m 10.78175,-5.6821 -4.51679,8.9218 m 10.68241,-5.8667 -4.36265,8.9982 m 10.57992,-6.0496 -4.20722,9.0719 m 10.47428,-6.2307 -4.05054,9.1429 m 10.36555,-6.4099 -3.89266,9.2112 m 10.25375,-6.5873 -3.73364,9.2769 m 10.13893,-6.7627 -3.57351,9.3397 m 10.02109,-6.9362 -3.41232,9.3998 m 9.9003,-7.1075 -3.25012,9.4571 m 9.77657,-7.2767 -3.08696,9.5116 m 9.64995,-7.4438 -2.92288,9.5633 m 9.52047,-7.6088 -2.75794,9.6122 m 9.38818,-7.7714 -2.59219,9.6582 m 9.25311,-7.9317 -2.42567,9.7013 m 9.1153,-8.0897 -2.25843,9.7416 m 8.97479,-8.2453 -2.09051,9.7791 m 8.83162,-8.3985 -1.92198,9.8135 m 8.68585,-8.5491 -1.7529,9.8451 m 8.53751,-8.6973 -1.58328,9.8739 m 8.38663,-8.8429 -1.41319,9.8996 m 8.23327,-8.9858 -1.24269,9.9225 m 8.07748,-9.1262 -1.07182,9.9424 m 7.9193,-9.2637 -0.90064,9.9594 m 7.75878,-9.3986 -0.72918,9.9733 m 7.59595,-9.5306 -0.55751,9.9844 m 7.43088,-9.6599 -0.38568,9.9925 m 7.26361,-9.7863 -0.21373,9.9977 m 7.0942,-9.9098 -0.0417,9.9999"
       id="path12-8" />
    <circle
       style="fill:none;fill-rule:evenodd;stroke:#ffffff;stroke-width:1.52709;stroke-linejoin:round;stroke-miterlimit:4;stroke-dasharray:none;stroke-opacity:1"
       id="path909"
       cx="419.99863"
       cy="419.98401"
       r="399.23645" />
    <path
       style="fill:none;stroke:#ffffff;stroke-width:1px;stroke-linecap:butt;stroke-linejoin:miter;stroke-opacity:1"
       d="m 420.0003,829.98139 v 10 m 208.43001,-66.93215 5.08365,8.61141 m 138.43539,-151.36562 8.5842,5.1296 m 49.4609,-213.25241 9.9999,0.0534 m -62.3169,-202.66161 8.7238,-4.88823 M 626.12547,65.562926 l 5.02744,-8.64435 M 424.38198,10.00476 424.48885,0.00534 M 215.35544,64.706126 210.3641,56.040876 M 63.162385,218.07369 l -8.70337,-4.92458 m -44.45844,207.31273 -9.99999,0.0117 m 67.17633,208.35143 -8.60545,5.09374 m 157.617255,141.81653 -4.97101,8.67692"
       id="path12-1" />
    <path
       d="m 425.34292,829.94679 0.13039,9.99914"
       style="fill:none;stroke:#ffffff;stroke-width:1px;stroke-linecap:butt;stroke-linejoin:miter;stroke-opacity:1"
       id="path4739" />
    <path
       d="m 425.27772,824.94722 0.0652,4.99957"
       style="fill:none;stroke:#ffffff;stroke-width:1px;stroke-linecap:butt;stroke-linejoin:miter;stroke-opacity:1"
       id="path4739-0" />
  </g>
</svg>
