<?xml version="1.0" encoding="UTF-8" standalone="no"?>
<!-- Created with Inkscape (http://www.inkscape.org/) -->

<svg
   width="210mm"
   height="297mm"
   viewBox="0 0 210 297"
   version="1.1"
   id="svg5"
   sodipodi:docname="stevilcnica.svg"
   inkscape:version="1.1.2 (0a00cf5339, 2022-02-04)"
   xmlns:inkscape="http://www.inkscape.org/namespaces/inkscape"
   xmlns:sodipodi="http://sodipodi.sourceforge.net/DTD/sodipodi-0.dtd"
   xmlns="http://www.w3.org/2000/svg"
   xmlns:svg="http://www.w3.org/2000/svg">
  <sodipodi:namedview
     id="namedview7"
     pagecolor="#505050"
     bordercolor="#eeeeee"
     borderopacity="1"
     inkscape:pageshadow="0"
     inkscape:pageopacity="0"
     inkscape:pagecheckerboard="0"
     inkscape:document-units="mm"
     showgrid="true"
     showborder="false"
     inkscape:showpageshadow="false"
     inkscape:snap-object-midpoints="true"
     inkscape:zoom="0.226274169442"
     inkscape:cx="2556.6329618"
     inkscape:cy="2141.20772686"
     inkscape:window-width="1920"
     inkscape:window-height="1026"
     inkscape:window-x="0"
     inkscape:window-y="0"
     inkscape:window-maximized="1"
     inkscape:current-layer="layer1" />
  <defs
     id="defs2">
    <inkscape:path-effect
       effect="copy_rotate"
       starting_point="0,0"
       origin="527.578063965,529.165517807"
       id="path-effect12680"
       is_visible="true"
       lpeversion="1"
       method="normal"
       num_copies="4"
       starting_angle="45"
       rotation_angle="60"
       gap="-0.01"
       copies_to_360="true"
       mirror_copies="false"
       split_items="false" />
    <inkscape:path-effect
       effect="copy_rotate"
       starting_point="529.04052,528.04052"
       origin="528.04052,528.04052"
       id="path-effect7916"
       is_visible="true"
       lpeversion="1"
       method="normal"
       num_copies="366"
       starting_angle="180"
       rotation_angle="0.99"
       gap="0"
       copies_to_360="true"
       mirror_copies="false"
       split_items="false" />
    <inkscape:path-effect
       effect="copy_rotate"
       starting_point="72.454548,808.02913"
       origin="71.454553,808.02913"
       id="path-effect7698"
       is_visible="true"
       lpeversion="1"
       method="normal"
       num_copies="6"
       starting_angle="0"
       rotation_angle="60"
       gap="-0.01"
       copies_to_360="true"
       mirror_copies="false"
       split_items="false" />
    <inkscape:path-effect
       effect="copy_rotate"
       starting_point="0,0"
       origin="101.20831,53.93985"
       id="path-effect5460"
       is_visible="true"
       lpeversion="1"
       method="normal"
       num_copies="6"
       starting_angle="0"
       rotation_angle="60"
       gap="0"
       copies_to_360="true"
       mirror_copies="false"
       split_items="false" />
    <inkscape:path-effect
       effect="copy_rotate"
       starting_point="0,0"
       origin="101.20831,53.93985"
       id="path-effect2180"
       is_visible="false"
       lpeversion="1"
       method="normal"
       num_copies="6"
       starting_angle="0"
       rotation_angle="60"
       gap="-0.01"
       copies_to_360="true"
       mirror_copies="false"
       split_items="false" />
  </defs>
  <g
     inkscape:groupmode="layer"
     id="layer2"
     inkscape:label="Plast 2"
     style="display:inline;opacity:1" />
  <g
     inkscape:label="Plast 1"
     inkscape:groupmode="layer"
     id="layer1">
    <circle
       style="fill:#000000;fill-opacity:0.000207579;fill-rule:evenodd;stroke:#ffffff;stroke-width:1.05833;stroke-linejoin:round;stroke-miterlimit:4;stroke-dasharray:none;stroke-opacity:0.998464"
       id="path2204"
       cx="529.165588379"
       cy="529.165527344"
       r="515.407226562" />
    <ellipse
       style="display:inline;fill:#000000;fill-opacity:0;fill-rule:evenodd;stroke:#ffffff;stroke-width:1.05833;stroke-linejoin:round;stroke-miterlimit:4;stroke-dasharray:none;stroke-opacity:1"
       id="path2204-3"
       cx="529.165588379"
       cy="529.165527344"
       rx="528.636413574"
       ry="528.636352539" />
    <circle
       style="display:inline;fill:#000000;fill-opacity:0.000658342;fill-rule:evenodd;stroke:#ffffff;stroke-width:1.05833;stroke-linejoin:round;stroke-miterlimit:4;stroke-dasharray:none;stroke-opacity:0.993627"
       id="path2204-6"
       cx="529.165588379"
       cy="529.165527344"
       r="502.179168701" />
    <path
       style="fill:#ffffff;fill-opacity:1;fill-rule:evenodd;stroke:#fffdfd;stroke-width:0;stroke-linejoin:round;stroke-miterlimit:4;stroke-dasharray:none"
       id="rect1574"
       width="1.05833280087"
       height="14.2874994278"
       x="527.511413574"
       y="26.4583339691"
       sodipodi:type="rect"
       d="m 528.569626426,1029.62270603 h -1.058332801 v -14.28749943 h 1.058332801 z m 8.610247239,-0.0829921 -1.058176853,0.0181677 -0.245263926,-14.28539413 1.058176853,-0.0181677 z m 8.60755383,-0.23078622 -1.057709056,0.03633 -0.490455572,-14.27907887 1.057709056,-0.03633 z m 8.602323735,-0.37851231 -1.056929547,0.0544817 -0.735502679,-14.26855549 1.056929547,-0.0544817 z m 8.594558496,-0.52612687 -1.055838556,0.0726172 -0.98033303,-14.2538271 1.055838556,-0.0726172 z m 8.5842604,-0.67358637 -1.054436404,0.0907314 -1.224874472,-14.23489805 1.054436404,-0.0907314 z m 8.571432484,-0.82084735 -1.052723505,0.10881883 -1.469054938,-14.2117739 1.052723505,-0.10881884 z m 8.556078527,-0.96786644 -1.050700364,0.12687419 -1.712802466,-14.18446148 1.050700364,-0.1268742 z m 8.538203056,-1.11460029 -1.048367577,0.14489217 -1.956045224,-14.15296884 1.048367576,-0.14489217 z m 8.517811335,-1.26100566 -1.045725831,0.16286744 -2.198711526,-14.11730525 1.04572583,-0.16286744 z m 8.494909377,-1.40703941 -1.042775904,0.18079473 -2.440729859,-14.07748123 1.042775905,-0.18079472 z m 8.469503931,-1.55265848 -1.039518667,0.19866871 -2.682028897,-14.0335085 1.039518667,-0.19866872 z m 8.441602482,-1.69782 -1.035955079,0.21648416 -2.922537528,-13.98540004 1.035955079,-0.21648416 z m 8.411213254,-1.84248116 -1.03208619,0.23423581 -3.162184874,-13.93317002 1.03208619,-0.2342358 z m 8.378345204,-1.98659932 -1.027913141,0.25191843 -3.400900309,-13.87683383 1.02791314,-0.25191842 z m 8.343008017,-2.13013202 -1.023437161,0.2695268 -3.638613485,-13.816408068 1.023437161,-0.269526799 z m 8.305212106,-2.27303698 -1.018659569,0.28705575 -3.875254343,-13.751910548 1.018659568,-0.287055744 z m 8.264968612,-2.41527204 -1.013581773,0.30450009 -4.110753147,-13.683360276 1.013581773,-0.304500093 z m 8.222289394,-2.55679533 -1.008205271,0.3218547 -4.345040493,-13.610777454 1.008205271,-0.321854702 z m 8.177187028,-2.69756511 -1.002531645,0.33911446 -4.578047335,-13.534183477 1.002531645,-0.33911446 z m 8.12967481,-2.8375399 -0.99656257,0.35627428 -4.809705006,-13.453600918 0.99656257,-0.35627428 z m 8.079766737,-2.976678466 -0.990299802,0.373329104 -5.039945235,-13.369053516 0.990299802,-0.373329104 z m 8.027477521,-3.114939784 -0.983745189,0.390273906 -5.268700168,-13.280566194 0.983745189,-0.390273906 z m 7.97282257,-3.252283118 -0.976900661,0.407103693 -5.495902391,-13.188165028 0.97690066,-0.407103692 z m 7.915817992,-3.388667987 -0.969768236,0.423813504 -5.721484947,-13.091877249 0.969768236,-0.423813504 z m 7.856480586,-3.524054201 -0.962350016,0.440398415 -5.945381355,-12.991731233 0.962350016,-0.440398415 z m 7.79482784,-3.658401861 -0.954648188,0.456853539 -6.167525632,-12.887756494 0.954648187,-0.456853539 z m 7.73087792,-3.791671371 -0.946665019,0.473174026 -6.387852311,-12.779983675 0.946665019,-0.473174027 z m 7.664649677,-3.92382346 -0.938402864,0.489355067 -6.606296461,-12.668444536 0.938402865,-0.489355067 z m 7.596162626,-4.054819179 -0.929864158,0.505391892 -6.822793704,-12.553171948 0.929864158,-0.505391892 z m 7.525436951,-4.184619924 -0.921051417,0.521279776 -7.037280239,-12.434199883 0.921051417,-0.521279777 z m 7.452493495,-4.313187444 -0.911967237,0.537014037 -7.249692856,-12.311563402 0.911967238,-0.537014037 z m 7.377353755,-4.440483846 -0.902614297,0.552590037 -7.459968953,-12.185298647 0.902614296,-0.552590037 z m 7.300039874,-4.566471618 -0.892995351,0.568003186 -7.668046565,-12.055442828 0.892995352,-0.568003187 z m 7.22057464,-4.69111363 -0.883113237,0.583248942 -7.873864367,-11.922034215 0.883113237,-0.583248942 z m 7.138981468,-4.814373149 -0.872970864,0.598322812 -8.077361706,-11.785112123 0.872970864,-0.598322813 z m 7.055284405,-4.936213849 -0.862571223,0.613220353 -8.278478609,-11.644716906 0.862571223,-0.613220353 z m 6.969508119,-5.056599826 -0.851917379,0.627937176 -8.477155806,-11.500889936 0.851917378,-0.627937177 z m 6.881677885,-5.175495599 -0.84101247,0.642468943 -8.673334747,-11.353673602 0.84101247,-0.642468943 z m 6.791819591,-5.29286613 -0.829859711,0.656811371 -8.866957617,-11.203111288 0.829859711,-0.656811371 z m 6.699959715,-5.408676828 -0.818462389,0.670960234 -9.057967353,-11.049247366 0.818462389,-0.670960233 z m 6.60612533,-5.522893565 -0.806823862,0.684911361 -9.246307664,-10.892127179 0.806823862,-0.684911361 z m 6.51034409,-5.63548268 -0.79494756,0.698660642 -9.431923046,-10.731797032 0.79494756,-0.698660643 z m 6.412644223,-5.746410993 -0.782836984,0.712204026 -9.614758798,-10.568304176 0.782836984,-0.712204026 z m 6.313054518,-5.85564581 -0.770495702,0.725537518 -9.794761035,-10.401696792 0.770495702,-0.725537519 z m 6.211604329,-5.963154944 -0.757927351,0.738657193 -9.971876712,-10.232023981 0.757927351,-0.738657192 z m 6.10832355,-6.068906707 -0.745135636,0.751559181 -10.146053631,-10.059335745 0.745135636,-0.75155918 z m 6.003242621,-6.172869936 -0.732124326,0.764239681 -10.317240461,-9.883682977 0.732124326,-0.76423968 z m 5.896392509,-6.275013992 -0.718897256,0.776694956 -10.485386753,-9.705117441 0.718897256,-0.776694955 z m 5.787804702,-6.375308772 -0.705458323,0.788921335 -10.650442953,-9.523691763 0.705458322,-0.788921335 z m 5.677511203,-6.47372472 -0.691811488,0.800915216 -10.812360419,-9.339459409 0.691811487,-0.800915216 z m 5.565544516,-6.570232831 -0.677960773,0.812673063 -10.971091434,-9.152474674 0.677960773,-0.812673063 z m 5.451937636,-6.664804665 -0.66391026,0.824191412 -11.126589216,-8.962792663 0.66391026,-0.824191412 z m 5.336724046,-6.75741235 -0.649664089,0.835466868 -11.278807943,-8.770469275 0.64966409,-0.835466868 z m 5.2199377,-6.848028595 -0.635226461,0.846496109 -11.427702752,-8.57556119 0.635226461,-0.846496108 z m 5.101613012,-6.936626693 -0.620601627,0.857275882 -11.573229765,-8.378125848 0.620601627,-0.857275882 z m 4.981784857,-7.023180537 -0.6057939,0.867803012 -11.715346094,-8.178221433 0.6057939,-0.867803012 z m 4.860488546,-7.107664617 -0.590807642,0.878074398 -11.854009857,-7.975906859 0.590807642,-0.878074398 z m 4.737759827,-7.190054035 -0.57564727,0.88808701 -11.989180188,-7.771241749 0.57564727,-0.88808701 z m 4.613634869,-7.270324512 -0.560317252,0.897837899 -12.120817254,-7.564286418 0.560317253,-0.897837899 z m 4.488150252,-7.34845239 -0.544822107,0.907324191 -12.248882259,-7.355101857 0.544822108,-0.907324191 z m 4.361342955,-7.424414647 -0.5291664,0.916543092 -12.373337461,-7.143749714 0.5291664,-0.916543091 z m 4.233250352,-7.498188893 -0.513354746,0.925491882 -12.494146184,-6.930292275 0.513354745,-0.925491882 z m 4.103910189,-7.569753389 -0.497391803,0.934167925 -12.611272826,-6.714792447 0.497391803,-0.934167925 z m 3.973360586,-7.639087044 -0.481282277,0.942568665 -12.724682867,-6.497313739 0.481282276,-0.942568665 z m 3.841640014,-7.706169425 -0.465030913,0.950691625 -12.834342887,-6.277920243 0.465030914,-0.950691625 z m 3.708787295,-7.770980763 -0.448642504,0.958534413 -12.940220566,-6.056676615 0.448642505,-0.958534413 z m 3.574841578,-7.833501957 -0.432121878,0.966094716 -13.042284702,-5.833648056 0.432121878,-0.966094716 z m 3.43984234,-7.893714581 -0.415473904,0.973370306 -13.140505218,-5.608900295 0.415473904,-0.973370306 z m 3.303829363,-7.951600893 -0.398703487,0.98035904 -13.234853167,-5.382499565 0.398703487,-0.980359039 z m 3.166842733,-8.00714383 -0.38181557,0.987058857 -13.325300743,-5.154512587 0.38181557,-0.987058857 z m 3.02892282,-8.060327025 -0.364815131,0.993467783 -13.411821292,-4.925006551 0.364815131,-0.993467784 z m 2.890110269,-8.111134806 -0.34770718,0.99958393 -13.494389314,-4.694049093 0.34770718,-0.999583931 z m 2.75044599,-8.159552198 -0.33049675,1.005405496 -13.572980485,-4.461708278 0.330496756,-1.005405496 z m 2.60997114,-8.205564932 -0.31318893,1.010930764 -13.647571627,-4.228052576 0.313188935,-1.010930764 z m 2.46872713,-8.249159448 -0.29578882,1.016158105 -13.718140767,-3.993150848 0.295788815,-1.016158105 z m 2.32675556,-8.290322899 -0.27830153,1.02108598 -13.784667111,-3.75707232 0.278301524,-1.02108598 z m 2.18409829,-8.329043155 -0.26073222,1.025712937 -13.84713105,-3.519886566 0.26073221,-1.025712936 z m 2.04079736,-8.365308802 -0.24308607,1.03003761 -13.90551419,-3.281663484 0.24308607,-1.03003761 z m 1.89689499,-8.399109155 -0.22536829,1.034058727 -13.95979929,-3.042473281 0.22536829,-1.034058728 z m 1.7524336,-8.430434253 -0.20758408,1.037775104 -14.00997039,-2.802386449 0.20758409,-1.037775103 z m 1.60745576,-8.459274861 -0.1897387,1.041185641 -14.05601267,-2.561473739 0.1897387,-1.041185641 z m 1.4620042,-8.485622484 -0.17183741,1.044289338 -14.09791259,-2.319806152 0.17183742,-1.044289337 z m 1.31612178,-8.509469354 -0.15388548,1.047085277 -14.13565778,-2.077454906 0.15388547,-1.047085277 z m 1.16985148,-8.530808444 -0.13588819,1.049572635 -14.16923714,-1.834491426 0.1358882,-1.049572635 z m 1.02323644,-8.549633467 -0.11785086,1.05175068 -14.19864075,-1.590987312 0.11785085,-1.05175068 z m 0.87631983,-8.565938872 -0.0997788,1.053618768 -14.22385997,-1.347014327 0.0997788,-1.053618769 z m 0.72914497,-8.579719857 -0.0816773,1.055176351 -14.24488734,-1.102644371 0.0816773,-1.055176351 z m 0.58175523,-8.590972359 -0.0635518,1.056422968 -14.26171668,-0.85794946 0.0635518,-1.056422968 z m 0.43419404,-8.599693061 -0.0454075,1.057358253 -14.27434303,-0.613001708 0.0454075,-1.057358253 z m 0.2865049,-8.605879395 -0.0272499,1.057981929 -14.28276266,-0.367873301 0.0272499,-1.05798193 z m 0.13873131,-8.609529536 -0.009084,1.058293813 -14.28697309,-0.122636481 0.009084,-1.058293813 z m -0.009083,-8.61064241 0.009084,1.058293813 -14.28697309,0.122636481 -0.009084,-1.058293813 z m -0.15689493,-8.609217688 0.0272499,1.05798193 -14.28276266,0.367873301 -0.0272499,-1.057981929 z m -0.30466049,-8.605255789 0.0454075,1.057358253 -14.27434303,0.613001708 -0.0454075,-1.057358253 z m -0.45233626,-8.598757883 0.0635518,1.056422969 -14.26171668,0.85794946 -0.0635518,-1.056422968 z m -0.59987872,-8.589725882 0.0816773,1.055176351 -14.24488734,1.102644371 -0.0816773,-1.055176351 z m -0.74724439,-8.578162451 0.0997788,1.053618768 -14.22385997,1.347014328 -0.0997788,-1.053618769 z m -0.89438984,-8.564070996 0.11785086,1.05175068 -14.19864076,1.590987312 -0.11785086,-1.05175068 z m -1.04127173,-8.547455669 0.1358882,1.049572636 -14.16923714,1.834491425 -0.13588819,-1.049572635 z m -1.18784673,-8.528321368 0.15388548,1.047085277 -14.13565778,2.077454907 -0.15388548,-1.047085277 z m -1.33407167,-8.506673731 0.17183741,1.044289338 -14.09791259,2.319806151 -0.17183741,-1.044289338 z m -1.47990347,-8.482519139 0.18973871,1.041185641 -14.05601267,2.561473739 -0.18973871,-1.041185641 z m -1.62529912,-8.45586471 0.20758409,1.037775103 -14.00997038,2.802386449 -0.20758409,-1.037775104 z m -1.77021579,-8.426718298 0.22536829,1.034058728 -13.95979929,3.042473281 -0.22536829,-1.034058727 z m -1.91461076,-8.395088494 0.24308607,1.030037611 -13.90551418,3.281663484 -0.24308608,-1.030037611 z m -2.05844151,-8.360984619 0.26073222,1.025712937 -13.84713106,3.519886565 -0.26073221,-1.025712936 z m -2.2016656,-8.324416722 0.27830152,1.02108598 -13.784667114,3.75707232 -0.278301525,-1.02108598 z m -2.34424087,-8.285395583 0.29578881,1.016158105 -13.718140768,3.993150848 -0.295788815,-1.016158105 z m -2.48612527,-8.243932699 0.31318893,1.010930763 -13.647571626,4.228052577 -0.313188935,-1.010930764 z m -2.62727701,-8.20004029 0.33049676,1.005405496 -13.572980481,4.461708277 -0.330496757,-1.005405496 z m -2.76765446,-8.153731293 0.34770718,0.999583931 -13.494389316,4.694049094 -0.347707179,-0.999583931 z m -2.907216282,-8.105019352 0.364815131,0.993467784 -13.411821292,4.925006552 -0.364815131,-0.993467784 z m -3.045921333,-8.053918825 0.38181557,0.987058857 -13.325300743,5.154512587 -0.38181557,-0.987058857 z m -3.183728736,-8.000444772 0.398703487,0.98035904 -13.234853166,5.382499564 -0.398703487,-0.98035904 z m -3.320597879,-7.944612951 0.415473904,0.973370306 -13.140505218,5.608900295 -0.415473904,-0.973370306 z m -3.456488427,-7.886439816 0.432121878,0.966094716 -13.042284702,5.833648056 -0.432121878,-0.966094716 z m -3.591360332,-7.82594251 0.448642504,0.958534412 -12.940220565,6.056676615 -0.448642505,-0.958534413 z m -3.725173847,-7.763138865 0.465030914,0.950691626 -12.834342886,6.277920243 -0.465030914,-0.950691626 z m -3.857889535,-7.698047385 0.481282276,0.942568665 -12.724682867,6.497313739 -0.481282276,-0.942568665 z m -3.989468286,-7.630687256 0.497391802,0.934167924 -12.611272826,6.714792448 -0.497391802,-0.934167925 z m -4.119871323,-7.561078329 0.513354745,0.925491881 -12.494146184,6.930292275 -0.513354746,-0.925491881 z m -4.249060214,-7.489241117 0.5291664,0.916543091 -12.373337461,7.143749714 -0.5291664,-0.916543092 z m -4.376996888,-7.415196792 0.544822107,0.907324192 -12.248882258,7.355101857 -0.544822108,-0.907324192 z m -4.503643641,-7.338967173 0.560317253,0.897837899 -12.120817254,7.564286418 -0.560317253,-0.897837899 z m -4.628963149,-7.260574728 0.57564727,0.88808701 -11.989180188,7.771241749 -0.57564727,-0.88808701 z m -4.752918481,-7.180042557 0.590807642,0.878074397 -11.854009857,7.975906859 -0.590807642,-0.878074397 z m -4.875473106,-7.097394396 0.6057939,0.867803012 -11.715346094,8.178221433 -0.605793899,-0.867803012 z m -4.996590906,-7.0126546 0.620601628,0.857275882 -11.573229765,8.378125848 -0.620601627,-0.857275882 z m -5.116236188,-6.925848141 0.635226461,0.846496108 -11.427702752,8.57556119 -0.63522646,-0.846496108 z m -5.234373692,-6.837000605 0.64966409,0.835466868 -11.278807942,8.770469275 -0.64966409,-0.835466868 z m -5.350968602,-6.746138172 0.66391026,0.824191412 -11.126589216,8.962792663 -0.66391026,-0.824191412 z m -5.465986557,-6.653287621 0.677960773,0.812673063 -10.971091433,9.152474674 -0.677960773,-0.812673063 z m -5.57939366,-6.558476317 0.691811487,0.800915216 -10.812360419,9.339459409 -0.691811488,-0.800915215 z m -5.691156491,-6.461732198 0.705458322,0.788921335 -10.650442953,9.523691763 -0.705458323,-0.788921335 z m -5.801242112,-6.363083779 0.718897255,0.776694956 -10.485386753,9.70511744 -0.718897255,-0.776694955 z m -5.90961808,-6.262560128 0.732124326,0.76423968 -10.317240461,9.883682976 -0.732124326,-0.76423968 z m -6.016252457,-6.160190873 0.745135636,0.75155918 -10.14605363,10.059335744 -0.745135636,-0.75155918 z m -6.121113815,-6.056006182 0.757927351,0.738657193 -9.971876712,10.23202398 -0.757927351,-0.738657192 z m -6.224171255,-5.950036756 0.770495702,0.725537518 -9.794761035,10.401696793 -0.770495702,-0.725537519 z m -6.325394402,-5.842313829 0.782836984,0.712204025 -9.614758798,10.568304177 -0.782836983,-0.712204026 z m -6.424753426,-5.732869145 0.79494756,0.698660643 -9.431923046,10.731797033 -0.79494756,-0.698660643 z m -6.522219046,-5.621734957 0.806823862,0.684911362 -9.246307664,10.892127179 -0.806823862,-0.684911362 z m -6.617762538,-5.508944018 0.818462388,0.670960233 -9.057967352,11.049247366 -0.818462389,-0.670960234 z m -6.711355746,-5.39452957 0.829859711,0.656811372 -8.866957616,11.203111287 -0.829859711,-0.656811371 z m -6.802971085,-5.278525327 0.84101247,0.642468943 -8.673334747,11.353673602 -0.84101247,-0.642468943 z m -6.892581558,-5.160965479 0.851917379,0.627937177 -8.477155807,11.500889936 -0.851917379,-0.627937176 z m -6.980160756,-5.041884671 0.862571224,0.613220354 -8.27847861,11.644716906 -0.862571223,-0.613220354 z m -7.065682868,-4.921317997 0.872970865,0.598322812 -8.077361706,11.785112124 -0.872970864,-0.598322812 z m -7.14912269,-4.799300987 0.883113236,0.583248942 -7.873864367,11.922034215 -0.883113237,-0.583248942 z m -7.230455635,-4.675869601 0.892995352,0.568003186 -7.668046565,12.055442828 -0.892995351,-0.568003186 z m -7.30965773,-4.5510602162 0.902614297,0.5525900372 -7.459968953,12.185298647 -0.902614297,-0.552590037 z m -7.386705635,-4.4249096116 0.911967237,0.5370140369 -7.249692855,12.3115634019 -0.911967237,-0.537014037 z m -7.461576645,-4.2974549663 0.921051417,0.5212797763 -7.037280239,12.4341998828 -0.921051417,-0.521279776 z m -7.534248693,-4.1687338412 0.929864158,0.5053918922 -6.822793704,12.5531719481 -0.929864158,-0.5053918918 z m -7.604700364,-4.0387841712 0.938402864,0.4893550667 -6.606296461,12.6684445364 -0.938402864,-0.4893550668 z m -7.672910896,-3.907644253 0.946665019,0.4731740262 -6.387852311,12.7799836755 -0.946665019,-0.4731740262 z m -7.738860184,-3.775352734 0.954648188,0.456853539 -6.167525633,12.8877564948 -0.954648187,-0.456853539 z m -7.802528795,-3.6419486013 0.962350016,0.440398415 -5.945381356,12.9917312331 -0.962350016,-0.440398415 z m -7.863897965,-3.5074711696 0.969768236,0.4238135036 -5.721484948,13.0918772486 -0.969768236,-0.4238135036 z m -7.922949609,-3.37196007 0.976900661,0.4071036924 -5.495902392,13.1881650277 -0.976900661,-0.4071036924 z m -7.979666322,-3.2354552383 0.983745189,0.3902739058 -5.268700169,13.2805661941 -0.983745188,-0.3902739059 z m -8.034031391,-3.0979969032 0.990299801,0.3733291038 -5.039945234,13.3690535166 -0.990299802,-0.3733291038 z m -8.086028795,-2.9596255741 0.996562569,0.3562742799 -4.809705006,13.4536009178 -0.99656257,-0.3562742799 z m -8.135643209,-2.8203820298 1.002531645,0.3391144604 -4.578047335,13.534183481 -1.002531645,-0.3391144604 z m -8.182860011,-2.6803073059 1.008205271,0.3218547023 -4.345040493,13.6107774581 -1.008205271,-0.3218547023 z m -8.227665287,-2.5394426832 1.013581773,0.3045000921 -4.110753147,13.6833602768 -1.013581773,-0.3045000922 z m -8.270045832,-2.3978296751 1.018659569,0.2870557444 -3.875254344,13.7519105463 -1.018659568,-0.2870557444 z m -8.309989157,-2.2555100155 1.023437161,0.2695268 -3.638613485,13.8164080646 -1.02343716,-0.2695268 z m -8.347483489,-2.1125256468 1.027913141,0.2519184248 -3.40090031,13.8768338241 -1.027913141,-0.2519184248 z m -8.38251778,-1.9689187071 1.03208619,0.2342358081 -3.162184874,13.933170017 -1.03208619,-0.2342358082 z m -8.415081705,-1.8247315181 1.035955079,0.2164841611 -2.922537528,13.9854000407 -1.035955079,-0.2164841611 z m -8.445165666,-1.6800065722 1.039518667,0.1986687151 -2.682028897,14.0335085029 -1.039518667,-0.1986687152 z m -8.472760799,-1.5347865207 1.042775904,0.1807947206 -2.440729858,14.0774812256 -1.042775905,-0.1807947206 z m -8.497858969,-1.3891141606 1.04572583,0.162867445 -2.198711526,14.1173052501 -1.045725831,-0.1628674451 z m -8.520452782,-1.2430324222 1.048367576,0.1448921717 -1.956045224,14.1529688398 -1.048367577,-0.1448921717 z m -8.540535579,-1.0965843564 1.050700365,0.126874198 -1.712802467,14.1844614847 -1.050700364,-0.126874198 z m -8.558101439,-0.9498131221 1.052723506,0.1088188339 -1.469054938,14.2117739037 -1.052723506,-0.1088188339 z m -8.573145189,-0.8027619736 1.054436405,0.0907314 -1.224874472,14.2348980477 -1.054436405,-0.0907314 z m -8.585662392,-0.6554742475 1.055838555,0.072617228 -0.98033303,14.2538271018 -1.055838555,-0.072617228 z m -8.595649363,-0.50799335 1.056929546,0.054481655 -0.735502679,14.2685554878 -1.056929547,-0.054481655 z m -8.603103156,-0.3603627446 1.057709056,0.036330026 -0.490455573,14.2790788649 -1.057709056,-0.036330026 z m -8.608021574,-0.2126259386 1.058176853,0.01816769 -0.245263927,14.285394132 -1.058176853,-0.01816769 z m -8.61040317,-0.064826471 h 1.058332801 v 14.2874994278 h -1.058332801 z m -8.610247239,0.082992102 1.058176853,-0.01816769 0.245263926,14.2853941319 -1.058176853,0.01816769 z m -8.60755383,0.2307862159 1.057709056,-0.036330026 0.490455572,14.279078865 -1.057709056,0.036330026 z m -8.602323735,0.3785123165 1.056929547,-0.054481655 0.735502679,14.2685554878 -1.056929547,0.054481655 z m -8.594558496,0.5261268677 1.055838556,-0.072617228 0.98033303,14.2538271019 -1.055838556,0.072617228 z m -8.5842604,0.6735863669 1.054436404,-0.0907314 1.224874472,14.2348980476 -1.054436404,0.0907314 z m -8.571432484,0.8208473572 1.052723505,-0.1088188339 1.469054938,14.2117739037 -1.052723505,0.1088188338 z m -8.556078527,0.9678664399 1.050700364,-0.126874198 1.712802466,14.1844614846 -1.050700364,0.1268741981 z m -8.538203056,1.114600288 1.048367577,-0.1448921718 1.956045224,14.1529688398 -1.048367576,0.1448921717 z m -8.517811335,1.2610056582 1.045725831,-0.1628674451 2.198711526,14.11730525 -1.04572583,0.1628674451 z m -8.494909377,1.4070394043 1.042775904,-0.1807947206 2.440729859,14.0774812256 -1.042775905,0.1807947206 z m -8.469503931,1.5526584894 1.039518667,-0.1986687151 2.682028897,14.0335085028 -1.039518667,0.1986687152 z m -8.441602482,1.697819999 1.035955079,-0.2164841611 2.922537528,13.9854000407 -1.035955079,0.2164841611 z m -8.411213254,1.8424811532 1.03208619,-0.2342358082 3.162184874,13.933170017 -1.03208619,0.2342358082 z m -8.378345204,1.9865993197 1.027913141,-0.2519184248 3.400900309,13.8768338241 -1.02791314,0.2519184248 z m -8.343008017,2.1301320263 1.023437161,-0.2695268 3.638613485,13.8164080646 -1.023437161,0.2695268 z m -8.305212106,2.2730369732 1.018659569,-0.2870557444 3.875254343,13.7519105463 -1.018659568,0.2870557444 z m -8.264968612,2.4152720457 1.013581773,-0.3045000921 4.110753147,13.6833602767 -1.013581773,0.3045000921 z m -8.222289394,2.5567953264 1.008205271,-0.3218547022 4.345040493,13.6107774581 -1.008205271,0.3218547023 z m -8.177187028,2.6975651079 1.002531645,-0.3391144604 4.578047335,13.5341834809 -1.002531645,0.3391144604 z m -8.12967481,2.8375399044 0.99656257,-0.3562742799 4.809705006,13.4536009177 -0.99656257,0.35627428 z m -8.079766737,2.976678465 0.990299802,-0.3733291038 5.039945235,13.3690535167 -0.990299802,0.3733291037 z m -8.027477521,3.1149397847 0.983745189,-0.3902739058 5.268700168,13.2805661941 -0.983745189,0.3902739058 z m -7.97282257,3.2522831175 0.976900661,-0.4071036924 5.495902391,13.1881650277 -0.97690066,0.4071036924 z m -7.915817992,3.3886679874 0.969768236,-0.4238135036 5.721484947,13.0918772485 -0.969768236,0.4238135036 z m -7.856480586,3.5240542013 0.962350016,-0.440398415 5.945381355,12.991731233 -0.962350016,0.440398415 z m -7.79482784,3.6584018602 0.954648188,-0.456853539 6.167525632,12.8877564948 -0.954648187,0.456853539 z m -7.73087792,3.7916713715 0.946665019,-0.4731740262 6.387852311,12.7799836755 -0.946665019,0.4731740262 z m -7.664649677,3.9238234596 0.938402864,-0.4893550668 6.606296461,12.6684445364 -0.938402865,0.4893550668 z m -7.596162626,4.0548191791 0.929864158,-0.5053918922 6.822793704,12.5531719485 -0.929864158,0.5053918919 z m -7.525436951,4.1846199246 0.921051417,-0.5212797763 7.037280239,12.4341998829 -0.921051417,0.521279777 z m -7.452493495,4.3131874436 0.911967237,-0.5370140369 7.249692856,12.3115634019 -0.911967238,0.537014037 z m -7.377353755,4.440483846 0.902614297,-0.5525900367 7.459968953,12.1852986467 -0.902614296,0.552590037 z m -7.300039874,4.566471618 0.892995351,-0.568003186 7.668046565,12.055442828 -0.892995352,0.568003187 z m -7.22057464,4.69111363 0.883113237,-0.583248942 7.873864367,11.922034215 -0.883113237,0.583248942 z m -7.138981468,4.814373149 0.872970864,-0.598322812 8.077361706,11.785112123 -0.872970864,0.598322813 z m -7.055284405,4.936213849 0.862571223,-0.613220353 8.278478609,11.644716906 -0.862571223,0.613220353 z m -6.969508119,5.056599826 0.851917379,-0.627937176 8.477155806,11.500889936 -0.851917378,0.627937177 z m -6.881677885,5.175495599 0.84101247,-0.642468943 8.673334747,11.353673602 -0.84101247,0.642468943 z m -6.791819591,5.29286613 0.829859711,-0.656811371 8.866957617,11.203111288 -0.829859711,0.656811371 z m -6.699959715,5.408676828 0.818462389,-0.670960234 9.057967353,11.049247366 -0.818462389,0.670960233 z m -6.60612533,5.522893565 0.806823862,-0.684911361 9.246307664,10.892127179 -0.806823862,0.684911361 z m -6.51034409,5.63548268 0.79494756,-0.698660642 9.431923046,10.731797032 -0.79494756,0.698660643 z m -6.412644223,5.746410993 0.782836984,-0.712204026 9.614758798,10.568304176 -0.782836984,0.712204026 z m -6.313054518,5.85564581 0.770495702,-0.725537518 9.794761035,10.401696792 -0.770495702,0.725537519 z m -6.211604329,5.963154944 0.757927351,-0.738657193 9.971876712,10.232023981 -0.757927351,0.738657192 z m -6.10832355,6.068906707 0.745135636,-0.751559181 10.146053631,10.059335745 -0.745135636,0.75155918 z m -6.003242621,6.172869936 0.732124326,-0.764239681 10.317240461,9.883682977 -0.732124326,0.76423968 z m -5.896392509,6.275013992 0.718897256,-0.776694956 10.485386753,9.705117441 -0.718897256,0.776694955 z m -5.787804702,6.375308772 0.705458323,-0.788921335 10.650442953,9.523691763 -0.705458322,0.788921335 z m -5.677511203,6.47372472 0.691811488,-0.800915216 10.812360419,9.339459409 -0.691811487,0.800915216 z m -5.565544516,6.570232831 0.677960773,-0.812673063 10.971091434,9.152474674 -0.677960773,0.812673063 z m -5.451937636,6.664804665 0.66391026,-0.824191412 11.126589216,8.962792663 -0.66391026,0.824191412 z m -5.336724046,6.75741235 0.649664089,-0.835466868 11.278807943,8.770469275 -0.64966409,0.835466868 z m -5.2199377,6.848028595 0.635226461,-0.846496109 11.427702752,8.57556119 -0.635226461,0.846496108 z m -5.101613012,6.936626693 0.620601627,-0.857275882 11.573229765,8.378125848 -0.620601627,0.857275882 z m -4.981784857,7.023180537 0.6057939,-0.867803012 11.715346094,8.178221433 -0.6057939,0.867803012 z m -4.860488546,7.107664617 0.590807642,-0.878074398 11.854009857,7.975906859 -0.590807642,0.878074398 z m -4.737759827,7.190054035 0.57564727,-0.88808701 11.989180188,7.771241749 -0.57564727,0.88808701 z m -4.613634869,7.270324512 0.560317252,-0.897837899 12.120817254,7.564286418 -0.560317253,0.897837899 z m -4.488150252,7.34845239 0.5448221075,-0.907324191 12.2488822585,7.355101857 -0.544822108,0.907324191 z m -4.3613429554,7.424414647 0.5291664005,-0.916543092 12.3733374609,7.143749714 -0.5291664,0.916543091 z m -4.2332503514,7.498188893 0.5133547456,-0.925491882 12.4941461842,6.930292275 -0.513354745,0.925491882 z m -4.1039101891,7.569753389 0.4973918027,-0.934167925 12.611272826,6.714792447 -0.4973918027,0.934167925 z m -3.9733605858,7.639087044 0.4812822763,-0.942568665 12.7246828674,6.497313739 -0.4812822763,0.942568665 z m -3.8416400147,7.706169425 0.4650309138,-0.950691625 12.8343428863,6.277920243 -0.4650309138,0.950691625 z m -3.7087872947,7.770980763 0.4486425044,-0.958534413 12.9402205655,6.056676615 -0.4486425044,0.958534413 z m -3.5748415782,7.833501957 0.4321218782,-0.966094716 13.0422847023,5.833648056 -0.4321218781,0.966094716 z m -3.4398423392,7.893714581 0.4154739035,-0.973370306 13.1405052179,5.608900295 -0.4154739035,0.973370306 z m -3.3038293632,7.951600893 0.3987034869,-0.98035904 13.2348531663,5.382499565 -0.3987034868,0.980359039 z m -3.1668427333,8.00714383 0.3818155704,-0.987058857 13.3253007428,5.154512587 -0.3818155704,0.987058857 z m -3.0289228204,8.060327025 0.3648151312,-0.993467783 13.411821292,4.925006551 -0.3648151312,0.993467784 z m -2.8901102699,8.111134806 0.3477071792,-0.99958393 13.4943893158,4.694049093 -0.3477071792,0.999583931 z m -2.7504459909,8.159552198 0.3304967564,-1.005405496 13.5729804812,4.461708278 -0.3304967564,1.005405496 z m -2.6099711426,8.205564932 0.3131889347,-1.010930764 13.6475716269,4.228052576 -0.3131889347,1.010930764 z m -2.468727124,8.249159448 0.2957888147,-1.016158105 13.7181407707,3.993150848 -0.2957888147,1.016158105 z m -2.3267555601,8.290322899 0.2783015245,-1.02108598 13.7846671154,3.75707232 -0.2783015245,1.02108598 z m -2.1840982906,8.329043155 0.2607322175,-1.025712937 13.8471310553,3.519886566 -0.2607322174,1.025712936 z m -2.0407973574,8.365308802 0.2430860715,-1.03003761 13.9055141823,3.281663484 -0.2430860715,1.03003761 z m -1.8968949918,8.399109155 0.2253682868,-1.034058727 13.9597992905,3.042473281 -0.2253682869,1.034058728 z m -1.7524336026,8.430434253 0.2075840852,-1.037775104 14.0099703816,2.802386449 -0.2075840852,1.037775103 z m -1.6074557632,8.459274861 0.1897387077,-1.041185641 14.0560126701,2.561473739 -0.1897387076,1.041185641 z m -1.462004199,8.485622484 0.1718374131,-1.044289338 14.0979125873,2.319806152 -0.1718374131,1.044289337 z m -1.3161217757,8.509469354 0.1538854773,-1.047085277 14.1356577849,2.077454906 -0.1538854773,1.047085277 z m -1.1698514851,8.530808444 0.1358881908,-1.049572635 14.1692371392,1.834491426 -0.1358881908,1.049572635 z m -1.0232364341,8.549633467 0.1178508575,-1.05175068 14.1986407544,1.590987312 -0.1178508575,1.05175068 z m -0.8763198304,8.565938872 0.099778793,-1.053618768 14.2238599649,1.347014327 -0.099778793,1.053618769 z m -0.7291449713,8.579719857 0.081677323,-1.055176351 14.2448873386,1.102644371 -0.081677323,1.055176351 z m -0.5817552298,8.590972359 0.063551782,-1.056422968 14.2617166787,0.85794946 -0.063551782,1.056422968 z m -0.4341940425,8.599693061 0.045407513,-1.057358253 14.2743430253,0.613001708 -0.045407513,1.057358253 z m -0.2865048961,8.605879395 0.027249861,-1.057981929 14.2827626576,0.367873301 -0.027249862,1.05798193 z m -0.1387313155,8.609529536 0.00908418,-1.058293813 14.2869730941,0.122636481 -0.00908418,1.058293813 z m 0.00908315,8.61064241 -0.00908418,-1.058293813 14.2869730942,-0.122636481 0.00908418,1.058293813 z m 0.1568949386,8.609217688 -0.027249862,-1.05798193 14.2827626576,-0.367873301 0.027249862,1.057981929 z m 0.3046604895,8.605255789 -0.045407513,-1.057358253 14.2743430253,-0.613001708 0.045407513,1.057358253 z m 0.4523362556,8.598757883 -0.063551782,-1.056422969 14.2617166787,-0.85794946 0.063551782,1.056422968 z m 0.5998787161,8.589725882 -0.081677323,-1.055176351 14.2448873386,-1.102644371 0.081677323,1.055176351 z m 0.7472443896,8.578162451 -0.099778793,-1.053618768 14.2238599649,-1.347014328 0.099778793,1.053618769 z m 0.8943898467,8.564070996 -0.1178508574,-1.05175068 14.1986407544,-1.590987312 0.1178508574,1.05175068 z m 1.0412717231,8.547455669 -0.1358881908,-1.049572636 14.1692371392,-1.834491425 0.1358881908,1.049572635 z m 1.1878467319,8.528321368 -0.1538854774,-1.047085277 14.1356577849,-2.077454907 0.1538854774,1.047085277 z m 1.3340716768,8.506673731 -0.1718374131,-1.044289338 14.0979125873,-2.319806151 0.1718374131,1.044289338 z m 1.4799034647,8.482519139 -0.1897387077,-1.041185641 14.0560126702,-2.561473739 0.1897387076,1.041185641 z m 1.6252991182,8.45586471 -0.2075840853,-1.037775103 14.0099703816,-2.802386449 0.2075840852,1.037775104 z m 1.7702157886,8.426718298 -0.2253682869,-1.034058728 13.9597992904,-3.042473281 0.2253682869,1.034058727 z m 1.9146107683,8.395088494 -0.2430860715,-1.030037611 13.9055141824,-3.281663484 0.2430860714,1.030037611 z m 2.0584415034,8.360984619 -0.2607322175,-1.025712937 13.8471310554,-3.519886565 0.2607322175,1.025712936 z m 2.2016656064,8.324416722 -0.2783015245,-1.02108598 13.7846671154,-3.75707232 0.2783015244,1.02108598 z m 2.3442408683,8.285395583 -0.2957888147,-1.016158105 13.7181407707,-3.993150848 0.2957888147,1.016158105 z m 2.4861252719,8.243932699 -0.3131889347,-1.010930763 13.6475716269,-4.228052577 0.3131889347,1.010930764 z m 2.6272770027,8.20004029 -0.3304967564,-1.005405496 13.5729804812,-4.461708277 0.3304967564,1.005405496 z m 2.7676544631,8.153731293 -0.3477071793,-0.999583931 13.4943893158,-4.694049094 0.3477071793,0.999583931 z m 2.9072162829,8.105019352 -0.3648151312,-0.993467784 13.411821292,-4.925006552 0.3648151312,0.993467784 z m 3.0459213328,8.053918825 -0.3818155704,-0.987058857 13.3253007428,-5.154512587 0.3818155704,0.987058857 z m 3.1837287357,8.000444772 -0.3987034868,-0.98035904 13.2348531663,-5.382499564 0.3987034869,0.98035904 z m 3.3205978791,7.944612951 -0.4154739035,-0.973370306 13.1405052179,-5.608900295 0.4154739035,0.973370306 z m 3.4564884271,7.886439816 -0.4321218782,-0.966094716 13.0422847023,-5.833648056 0.4321218782,0.966094716 z m 3.591360332,7.82594251 -0.4486425045,-0.958534412 12.9402205656,-6.056676615 0.4486425044,0.958534413 z m 3.7251738466,7.763138865 -0.4650309138,-0.950691626 12.8343428864,-6.277920243 0.4650309137,0.950691626 z m 3.8578895354,7.698047385 -0.4812822763,-0.942568665 12.7246828673,-6.497313739 0.4812822764,0.942568665 z m 3.9894682864,7.630687256 -0.4973918028,-0.934167924 12.611272826,-6.714792448 0.4973918028,0.934167925 z m 4.1198713227,7.561078329 -0.5133547456,-0.925491881 12.4941461844,-6.930292275 0.513354746,0.925491881 z m 4.2490602142,7.489241117 -0.5291664004,-0.916543091 12.373337461,-7.143749714 0.5291664,0.916543092 z m 4.376996888,7.415196792 -0.5448221074,-0.907324192 12.248882258,-7.355101857 0.544822108,0.907324192 z m 4.5036436406,7.338967173 -0.560317253,-0.897837899 12.120817254,-7.564286418 0.560317253,0.897837899 z m 4.628963149,7.260574728 -0.57564727,-0.88808701 11.989180188,-7.771241749 0.57564727,0.88808701 z m 4.752918481,7.180042557 -0.590807642,-0.878074397 11.854009857,-7.975906859 0.590807642,0.878074397 z m 4.875473106,7.097394396 -0.6057939,-0.867803012 11.715346094,-8.178221433 0.605793899,0.867803012 z m 4.996590906,7.0126546 -0.620601628,-0.857275882 11.573229765,-8.378125848 0.620601627,0.857275882 z m 5.116236188,6.925848141 -0.635226461,-0.846496108 11.427702752,-8.57556119 0.63522646,0.846496108 z m 5.234373692,6.837000605 -0.64966409,-0.835466868 11.278807942,-8.770469275 0.64966409,0.835466868 z m 5.350968602,6.746138172 -0.66391026,-0.824191412 11.126589216,-8.962792663 0.66391026,0.824191412 z m 5.465986557,6.653287621 -0.677960773,-0.812673063 10.971091433,-9.152474674 0.677960773,0.812673063 z m 5.57939366,6.558476317 -0.691811487,-0.800915216 10.812360419,-9.339459409 0.691811488,0.800915215 z m 5.691156491,6.461732198 -0.705458322,-0.788921335 10.650442953,-9.523691763 0.705458323,0.788921335 z m 5.801242112,6.363083779 -0.718897255,-0.776694956 10.485386753,-9.70511744 0.718897255,0.776694955 z m 5.90961808,6.262560128 -0.732124326,-0.76423968 10.317240461,-9.883682976 0.732124326,0.76423968 z m 6.016252457,6.160190873 -0.745135636,-0.75155918 10.14605363,-10.059335744 0.745135636,0.75155918 z m 6.121113815,6.056006182 -0.757927351,-0.738657193 9.971876712,-10.23202398 0.757927351,0.738657192 z m 6.224171255,5.950036756 -0.770495702,-0.725537518 9.794761035,-10.401696793 0.770495702,0.725537519 z m 6.325394402,5.842313829 -0.782836984,-0.712204025 9.614758798,-10.568304177 0.782836983,0.712204026 z m 6.424753426,5.732869145 -0.79494756,-0.698660643 9.431923046,-10.731797033 0.79494756,0.698660643 z m 6.522219046,5.621734957 -0.806823862,-0.684911362 9.246307664,-10.892127179 0.806823862,0.684911362 z m 6.617762538,5.508944018 -0.818462388,-0.670960233 9.057967352,-11.049247366 0.818462389,0.670960234 z m 6.711355746,5.39452957 -0.829859711,-0.656811372 8.866957616,-11.203111287 0.829859711,0.656811371 z m 6.802971085,5.278525327 -0.84101247,-0.642468943 8.673334747,-11.353673602 0.84101247,0.642468943 z m 6.892581558,5.160965479 -0.851917379,-0.627937177 8.477155807,-11.500889936 0.851917379,0.627937176 z m 6.980160756,5.041884671 -0.862571224,-0.613220354 8.27847861,-11.644716906 0.862571223,0.613220354 z m 7.065682868,4.921317997 -0.872970865,-0.598322812 8.077361706,-11.785112124 0.872970864,0.598322812 z m 7.14912269,4.799300987 -0.883113236,-0.583248942 7.873864367,-11.922034215 0.883113237,0.583248942 z m 7.230455635,4.675869601 -0.892995352,-0.568003186 7.668046565,-12.055442828 0.892995351,0.568003186 z m 7.30965773,4.551060216 -0.902614297,-0.552590037 7.459968953,-12.185298647 0.902614297,0.552590037 z m 7.386705635,4.424909612 -0.911967237,-0.537014037 7.249692855,-12.311563402 0.911967237,0.537014037 z m 7.461576645,4.297454966 -0.921051417,-0.521279776 7.037280239,-12.434199883 0.921051417,0.521279776 z m 7.534248693,4.168733841 -0.929864158,-0.505391892 6.822793704,-12.553171948 0.929864158,0.505391892 z m 7.604700364,4.038784172 -0.938402864,-0.489355067 6.606296461,-12.668444537 0.938402864,0.489355067 z m 7.672910896,3.907644253 -0.946665019,-0.473174027 6.387852311,-12.779983675 0.946665019,0.473174026 z m 7.738860184,3.775352734 -0.954648188,-0.45685354 6.167525633,-12.887756494 0.954648187,0.456853539 z m 7.802528795,3.641948601 -0.962350016,-0.440398415 5.945381356,-12.991731233 0.962350016,0.440398415 z m 7.863897965,3.507471169 -0.969768236,-0.423813503 5.721484948,-13.091877249 0.969768236,0.423813504 z m 7.922949609,3.37196007 -0.976900661,-0.407103692 5.495902392,-13.188165028 0.976900661,0.407103693 z m 7.979666322,3.235455239 -0.983745189,-0.390273906 5.268700169,-13.280566194 0.983745188,0.390273906 z m 8.034031391,3.097996903 -0.990299801,-0.373329104 5.039945234,-13.369053516 0.990299802,0.373329103 z m 8.086028795,2.959625574 -0.996562569,-0.35627428 4.809705006,-13.453600918 0.99656257,0.35627428 z m 8.135643209,2.82038203 -1.002531645,-0.33911446 4.578047335,-13.534183482 1.002531645,0.339114461 z m 8.182860011,2.68030731 -1.008205271,-0.32185471 4.345040493,-13.610777455 1.008205271,0.321854703 z m 8.227665287,2.53944268 -1.013581773,-0.30450009 4.110753147,-13.68336028 1.013581773,0.304500092 z m 8.270045832,2.39782967 -1.018659569,-0.28705574 3.875254344,-13.751910547 1.018659568,0.287055745 z m 8.309989157,2.25551002 -1.023437161,-0.2695268 3.638613485,-13.816408065 1.02343716,0.2695268 z m 8.347483489,2.11252565 -1.027913141,-0.25191843 3.40090031,-13.87683382 1.027913141,0.25191842 z m 8.38251778,1.9689187 -1.03208619,-0.2342358 3.162184874,-13.93317002 1.03208619,0.23423581 z m 8.415081705,1.82473152 -1.035955079,-0.21648416 2.922537528,-13.98540004 1.035955079,0.21648416 z m 8.445165666,1.68000657 -1.039518667,-0.19866871 2.682028897,-14.0335085 1.039518667,0.19866871 z m 8.472760799,1.53478652 -1.042775904,-0.18079472 2.440729858,-14.07748122 1.042775905,0.18079472 z m 8.497858969,1.38911417 -1.04572583,-0.16286745 2.198711526,-14.11730525 1.045725831,0.16286745 z m 8.520452782,1.24303242 -1.048367576,-0.14489217 1.956045224,-14.15296884 1.048367577,0.14489217 z m 8.540535579,1.09658435 -1.050700365,-0.12687419 1.712802467,-14.18446149 1.050700364,0.1268742 z m 8.558101439,0.94981313 -1.052723506,-0.10881884 1.469054938,-14.2117739 1.052723506,0.10881883 z m 8.573145189,0.80276197 -1.054436405,-0.0907314 1.224874472,-14.23489805 1.054436405,0.0907314 z m 8.585662392,0.65547425 -1.055838555,-0.0726172 0.98033303,-14.2538271 1.055838555,0.0726172 z m 8.595649363,0.50799335 -1.056929546,-0.0544817 0.735502679,-14.26855549 1.056929547,0.0544817 z m 8.603103156,0.36036274 -1.057709056,-0.03633 0.490455573,-14.27907887 1.057709056,0.03633 z m 8.608021574,0.21262594 -1.058176853,-0.0181677 0.245263927,-14.28539413 1.058176853,0.0181677 z"
       inkscape:path-effect="#path-effect7916"
       transform="translate(1.12505886174,1.11798556959)" />
    <path
       style="opacity:1;fill:#ffffff;fill-opacity:0.998447;fill-rule:evenodd;stroke:#ffffff;stroke-width:0;stroke-linejoin:round;stroke-miterlimit:4;stroke-dasharray:none;stroke-opacity:0.993627"
       id="rect12065"
       width="1.05833339691"
       height="1005.41668701"
       x="527.578063965"
       y="26.4571743011"
       sodipodi:type="rect"
       d="m 172.109585313,173.697039155 0.748354722,-0.748354722 710.936957304,710.936957304 -0.748354722,0.748354722 z m 0,710.936957304 -0.748354722,-0.748354722 710.936957304,-710.936957304 0.748354722,0.748354722 z m 710.936957304,0 -0.748354722,0.748354722 -710.936957304,-710.936957304 0.748354722,-0.748354722 z m 0,-710.936957304 0.748354722,0.748354722 -710.936957304,710.936957304 -0.748354722,-0.748354722 z"
       inkscape:path-effect="#path-effect12680" />
    <text
       xml:space="preserve"
       style="font-style:normal;font-weight:normal;font-size:25.4px;line-height:1.25;font-family:sans-serif;fill:#ffffff;fill-opacity:1;stroke:none;stroke-width:0.264583"
       x="450.144348145"
       y="253.20135498"
       id="text14565"><tspan
         sodipodi:role="line"
         id="tspan14563"
         style="font-style:normal;font-variant:normal;font-weight:normal;font-stretch:normal;font-size:25.4px;font-family:'Tibetan Machine Uni';-inkscape-font-specification:'Tibetan Machine Uni';fill:#ffffff;fill-opacity:1;stroke-width:0.264583"
         x="450.144348145"
         y="253.20135498">POLETJE</tspan></text>
    <text
       xml:space="preserve"
       style="font-style:normal;font-weight:normal;font-size:25.4px;line-height:1.25;font-family:sans-serif;fill:#ffffff;fill-opacity:1;stroke:none;stroke-width:0.264583"
       x="181.525924683"
       y="519.273254395"
       id="text14565-9"><tspan
         sodipodi:role="line"
         id="tspan14563-9"
         style="font-style:normal;font-variant:normal;font-weight:normal;font-stretch:normal;font-size:25.4px;font-family:'Tibetan Machine Uni';-inkscape-font-specification:'Tibetan Machine Uni';fill:#ffffff;fill-opacity:1;stroke-width:0.264583"
         x="181.525924683"
         y="519.273254395">JESEN</tspan></text>
    <text
       xml:space="preserve"
       style="font-style:normal;font-weight:normal;font-size:25.4px;line-height:1.25;font-family:sans-serif;fill:#ffffff;fill-opacity:1;stroke:none;stroke-width:0.264583"
       x="493.503845215"
       y="856.286132812"
       id="text14565-0"><tspan
         sodipodi:role="line"
         id="tspan14563-8"
         style="font-style:normal;font-variant:normal;font-weight:normal;font-stretch:normal;font-size:25.4px;font-family:'Tibetan Machine Uni';-inkscape-font-specification:'Tibetan Machine Uni';fill:#ffffff;fill-opacity:1;stroke-width:0.264583"
         x="493.503845215"
         y="856.286132812">ZIMA</tspan></text>
    <text
       xml:space="preserve"
       style="font-style:normal;font-weight:normal;font-size:25.4px;line-height:1.25;font-family:sans-serif;fill:#ffffff;fill-opacity:1;stroke:none;stroke-width:0.264583"
       x="739.284057617"
       y="519.285644531"
       id="text14565-1"><tspan
         sodipodi:role="line"
         id="tspan14563-3"
         style="font-style:normal;font-variant:normal;font-weight:normal;font-stretch:normal;font-size:25.4px;font-family:'Tibetan Machine Uni';-inkscape-font-specification:'Tibetan Machine Uni';fill:#ffffff;fill-opacity:1;stroke-width:0.264583"
         x="739.284057617"
         y="519.285644531">POMLAD</tspan></text>
  </g>
</svg>
