<?xml version="1.0" encoding="UTF-8"?>
<svg version="1.1" viewBox="0 0 542.01 657.43" xmlns="http://www.w3.org/2000/svg" xmlns:xlink="http://www.w3.org/1999/xlink">
  <g transform="translate(-186.21 28.984)">
    <text x="425.05164" y="519.3941" style="fill:none;font-family:'DejaVu Serif';font-size:28.406px;line-height:1.25;stroke-width:1.1836;stroke:#000000" xml:space="preserve"><tspan x="425.05164" y="519.3941" style="fill:none;font-family:'Latin Modern Roman';font-size:28.406px;font-weight:bold;stroke-width:1.1836;stroke:#000000">ILU</tspan></text>
    <text x="433.18985" y="182.62465" style="font-family:'DejaVu Serif';font-size:9.4685px;line-height:1.25;stroke-width:1.1836" xml:space="preserve"><tspan x="433.18985" y="182.62465" style="font-family:'Latin Modern Roman';font-size:9.4685px;font-weight:bold;stroke-width:1.1836">ENDOR</tspan></text>
    <text x="453.32782" y="189.90788" style="font-family:'DejaVu Serif';font-size:12.625px;line-height:1.25;stroke-width:1.1836" xml:space="preserve"><tspan x="453.32782" y="189.90788" style="font-family:'Latin Modern Roman';font-size:12.625px;font-weight:bold;stroke-width:1.1836;text-align:center;text-anchor:middle">PEL-                            -MAR</tspan><tspan x="453.32782" y="205.68889" style="font-family:'Latin Modern Roman';font-size:12.625px;font-weight:bold;stroke-width:1.1836;text-align:center;text-anchor:middle"/></text>
    <text transform="rotate(-41.381)" x="141.96796" y="206.20126" style="font-family:'DejaVu Serif';font-size:12.625px;line-height:1.25;stroke-width:1.1836" xml:space="preserve"><tspan x="141.96796" y="206.20126" style="font-family:'Latin Modern Roman';font-size:12.625px;font-weight:bold;stroke-width:1.1836">Earambar</tspan></text>
    <text transform="rotate(-43.391)" x="198.12932" y="701.50763" style="font-family:'DejaVu Serif';font-size:12.625px;line-height:1.25;stroke-width:1.1836" xml:space="preserve"><tspan x="198.12932" y="701.50763" style="font-family:'Latin Modern Roman';font-size:12.625px;font-weight:bold;stroke-width:1.1836">Earambar</tspan></text>
    <text x="218.25296" y="202.48366" style="font-family:'DejaVu Serif';font-size:12.625px;line-height:1.25;stroke-width:1.1836" xml:space="preserve"><tspan x="218.25296" y="202.48366" style="font-family:'Latin Modern Roman';font-size:12.625px;font-weight:bold;stroke-width:1.1836">Formen</tspan></text>
    <path d="m720.62 192.59a271.93 271.93 0 0 0-0.3745-2.1637 271.93 271.93 0 0 0-2.9242-13.022 271.93 271.93 0 0 0-3.56-12.864 271.93 271.93 0 0 0-4.1864-12.672 271.93 271.93 0 0 0-4.8036-12.453 271.93 271.93 0 0 0-5.4093-12.203 271.93 271.93 0 0 0-6.0011-11.921 271.93 271.93 0 0 0-6.579-11.614 271.93 271.93 0 0 0-7.1407-11.276 271.93 271.93 0 0 0-7.6863-10.911 271.93 271.93 0 0 0-8.211-10.523 271.93 271.93 0 0 0-8.7173-10.107 271.93 271.93 0 0 0-9.205-9.6674 271.93 271.93 0 0 0-9.665-9.2027 271.93 271.93 0 0 0-10.107-8.7172 271.93 271.93 0 0 0-10.523-8.211 271.93 271.93 0 0 0-10.913-7.6863 271.93 271.93 0 0 0-11.276-7.1407 271.93 271.93 0 0 0-11.611-6.579 271.93 271.93 0 0 0-11.924-6.0011 271.93 271.93 0 0 0-12.201-5.4093 271.93 271.93 0 0 0-12.453-4.8036 271.93 271.93 0 0 0-12.673-4.1864 271.93 271.93 0 0 0-12.864-3.56 271.93 271.93 0 0 0-13.024-2.9242 271.93 271.93 0 0 0-13.149-2.2816 271.93 271.93 0 0 0-13.248-1.6343 271.93 271.93 0 0 0-13.311-0.98014 271.93 271.93 0 0 0-13.343-0.32826 271.93 271.93 0 0 0-38.699 2.767 271.93 271.93 0 0 0-37.913 8.248 271.93 271.93 0 0 0-36.351 13.558 271.93 271.93 0 0 0-34.053 18.595 271.93 271.93 0 0 0-31.062 23.251 271.93 271.93 0 0 0-27.435 27.435 271.93 271.93 0 0 0-23.251 31.062 271.93 271.93 0 0 0-18.595 34.053 271.93 271.93 0 0 0-13.558 36.351 271.93 271.93 0 0 0-5.8809 27.033 271.93 271.93 0 0 0 266.8 222.35 271.93 271.93 0 0 0 267.08-223.66z" style="fill:none;paint-order:markers fill stroke;stroke-linejoin:round;stroke-width:1.0687;stroke:#000000"/>
    <path d="m456.08-13.853a215.41 215.41 0 0 0-15.518 3.375 215.41 215.41 0 0 0-28.796 10.74 215.41 215.41 0 0 0-26.975 14.73 215.41 215.41 0 0 0-24.605 18.417 215.41 215.41 0 0 0-21.732 21.734 215.41 215.41 0 0 0-18.419 24.603 215.41 215.41 0 0 0-14.728 26.975 215.41 215.41 0 0 0-10.742 28.796 215.41 215.41 0 0 0-6.5327 30.033 215.41 215.41 0 0 0-2.1914 30.655 215.41 215.41 0 0 0 2.1914 30.655 215.41 215.41 0 0 0 6.5327 30.033 215.41 215.41 0 0 0 10.742 28.796 215.41 215.41 0 0 0 14.728 26.975 215.41 215.41 0 0 0 18.419 24.605 215.41 215.41 0 0 0 21.732 21.732 215.41 215.41 0 0 0 24.605 18.417 215.41 215.41 0 0 0 26.975 14.73 215.41 215.41 0 0 0 28.796 10.74 215.41 215.41 0 0 0 9.6604 2.1013 215.41 215.41 0 0 0 169.19-209.83 215.41 215.41 0 0 0-163.33-209.01z" style="fill:none;paint-order:markers fill stroke;stroke-linejoin:round;stroke-width:.84656;stroke:#000000"/>
    <ellipse transform="scale(-1)" d="m -294.7531,-195.80437 a 158.8275,158.82774 0 0 1 -77.8989,140.111342 158.8275,158.82774 0 0 1 -160.3079,0.862463 158.8275,158.82774 0 0 1 -79.40195,-139.265055" style="fill:none;paint-order:markers fill stroke;stroke-dasharray:4.21906, 4.21906;stroke-dashoffset:5.1684;stroke-linejoin:round;stroke-width:.52738;stroke:#010000"/>
    <g transform="matrix(1.1836 0 0 1.1836 80.037 -182.35)">
      <path d="m106.91 316.5 11.682-8.8585 7.2932 8.0228 7.1203-6.29 7.5722 7.801 5.9276-5.3258 8.1241 7.634 4.6953-6.2881 4.3625 6.075c68.28 1.653 109.53-5.502 148.49-6.2822 38.955-0.78015 87.643 10.497 140.65 4.7715 6.6199-0.71498 10.482-6.7891 14.634-11.18l7.4307 6.4378" style="fill:none;stroke-width:1px;stroke:#000000"/>
      <path d="m471.41 316.12 3.4812-3.104 7.2874-7.3008 8.0527 8.0515 7.2911-8.2121 8.8461 9.7494 5.4817-7.6479 7.9108 9.6128 4.4616-3.7627 10.26 7.0241" style="fill:none;stroke-width:1px;stroke:#000000"/>
      <path d="m109.13 320.05-2.2158-3.5516-2.0267-3.4612c-2.3645 3.9333-4.6355 9.7056-9.8223 9.0738" style="fill:none;stroke-width:1px;stroke:#000000"/>
      <path d="m191 323.49c-2.1266 3.9189-5.893 6.6414-10.153 9.0037" style="fill:none;stroke-width:1px;stroke:#000000"/>
      <path d="m204.95 323.37c-3.2842 9.9528-12.291 18.841-21.001 27.049" style="fill:none;stroke-width:1px;stroke:#000000"/>
      <path d="m220.43 322.98c-5.1566 19.348-18.365 33.101-30.245 47.222" style="fill:none;stroke-width:1px;stroke:#000000"/>
      <path d="m234.11 322.67c-8.168 29.609-16.205 47.501-34.204 68.253" style="fill:none;stroke-width:1px;stroke:#000000"/>
      <path d="m251.41 321.45c-6.6677 36.652-22.508 62.15-37.159 89.675" style="fill:none;stroke-width:1px;stroke:#000000"/>
      <path d="m272.41 319.34c-3.682 44.13-19.222 79.106-37.054 112.31" style="fill:none;stroke-width:1px;stroke:#000000"/>
      <path d="m290.02 317.85c-3.2945 49.174-14.827 91.208-31.765 128.56" style="fill:none;stroke-width:1px;stroke:#000000"/>
      <path d="m302.15 317.88c0.73454 48.779-1.5147 96.919-14.552 142.75" style="fill:none;stroke-width:1px;stroke:#000000"/>
      <path d="m326.62 317.6c-0.79988 49.618 3.8098 96.585 8.3276 143.6" style="fill:none;stroke-width:1px;stroke:#000000"/>
      <path d="m339.49 318.02c3.9815 49.161 14.59 91.793 28.562 131.11" style="fill:none;stroke-width:1px;stroke:#000000"/>
      <path d="m354 318.95c-1.6163 23.694 24.321 77.435 41.514 113.66" style="fill:none;stroke-width:1px;stroke:#000000"/>
      <path d="m368.4 319.79c13.327 50.517 31.53 77.654 46.197 95.494" style="fill:none;stroke-width:1px;stroke:#000000"/>
      <path d="m385.23 321.24c8.5801 23.234 20.814 47.484 44.927 74.552" style="fill:none;stroke-width:1px;stroke:#000000"/>
      <path d="m403.02 322.2c11.488 30.229 23.6 43.125 35.83 52.718" style="fill:none;stroke-width:1px;stroke:#000000"/>
      <path d="m418.21 322.57c5.747 9.7526 6.377 19.309 27.577 29.654" style="fill:none;stroke-width:1px;stroke:#000000"/>
      <path d="m437.22 322.66c2.4025 6.575 6.7362 8.831 11.329 11.558" style="fill:none;stroke-width:1px;stroke:#000000"/>
      <path d="m176.82 323.29s9.5814 0.16554 14.18 0.19675c4.5984 0.0312 8.6054 0.0499 13.41-4e-3s10.464-0.20492 15.415-0.34106 9.0166-0.25023 14.289-0.46973 10.923-0.65421 17.304-1.2291 14.562-1.4664 20.994-2.1087 12.641-1.3219 17.613-1.4884 6.0333 0.0594 12.133 0.0332c6.0992-0.0261 18.238-0.34088 24.462-0.2767 6.2238 0.0642 8.3092 0.1911 12.875 0.4113s9.6957 0.64097 14.514 0.93671 9.1792 0.44273 14.395 0.83812 11.062 1.0448 16.833 1.4502 12.297 0.76759 17.785 0.96373 9.5281 0.37499 15.197 0.37007c5.6689-5e-3 13.337 0.12828 19.004 0.0859 5.6673-0.0424 14.994-0.40762 14.994-0.40762s-3.4952 7.5787-3.665 11.966 1.614 10.53 1.614 10.53-3.338 3.1412-4.3695 7.4803 0.91739 12.46 0.91739 12.46-6.4434 5.6704-7.8608 10.233 0.89893 11.183 0.89893 11.183-7.4191 4.8365-9.587 9.6874-0.40209 11.279-0.40209 11.279-11.198 2.2105-15.161 8.2127-3.9995 15.335-3.9995 15.335-7.5112-2.1339-15.079 1.9904-7.6911 17.84-7.6911 17.84-7.4998-4.7255-19.774-1.3216-15.678 24.584-15.678 24.584-6.5372-8.9331-17.432-12.51-34.035-4.0368-47.342-0.57001-15.52 8.4043-15.52 8.4043c-0.43467-4.1096-3.5718-19.298-13.825-22.629s-18.008 2.6409-18.008 2.6409 2.6635-11.528-4.8946-17.403c-7.5581-5.8752-19.313-2.6818-19.313-2.6818s3.6399-11.707-1.7864-17.843-14.633-5.4441-14.633-5.4441 3.129-9.687 0.28354-14.749c-2.8455-5.0616-10.289-6.6273-10.289-6.6273s2.7562-8.0921 0.5691-14.102-6.8361-7.2799-6.8361-7.2799 2.1333-6.8663 0.5959-12.496c-1.5374-5.6294-6.1297-8.1462-6.1297-8.1462s3.3857-5.9909 3.027-9.7827-4.0269-9.2008-4.0269-9.2008z" style="fill:none;stroke-width:1px;stroke:#000000"/>
    </g>
    <text x="423.0144" y="20.314072" style="font-family:'DejaVu Serif';font-size:15.781px;line-height:1.25;stroke-width:1.1836" xml:space="preserve"><tspan x="423.0144" y="20.314072" style="font-family:'Latin Modern Roman';font-weight:bold;stroke-width:1.1836">ILMEN</tspan></text>
    <text x="410.54761" y="353.55136" style="font-family:'DejaVu Serif';font-size:15.781px;line-height:1.25;stroke-width:.3;stroke:#ffffff" xml:space="preserve"><tspan x="410.54761" y="353.55136" style="font-family:'Latin Modern Roman';font-weight:bold;stroke-width:.3;stroke:#ffffff">Martalmar</tspan></text>
    <text x="423.0144" y="392.49655" style="font-family:'DejaVu Serif';font-size:15.781px;line-height:1.25;stroke-width:1.1836" xml:space="preserve"><tspan x="423.0144" y="392.49655" style="font-family:'Latin Modern Roman';font-weight:bold;stroke-width:1.1836">ILMEN</tspan></text>
    <text x="403.31332" y="265.64233" style="font-family:'DejaVu Serif';font-size:22.093px;line-height:1.25;stroke-width:.3;stroke:#ffffff" xml:space="preserve"><tspan x="403.31332" y="265.64233" style="font-family:'Latin Modern Roman';font-size:22.093px;font-weight:bold;stroke-width:.3;stroke:#ffffff">AMBAR</tspan></text>
    <text x="646.36102" y="23.081558" style="font-family:'DejaVu Serif';font-size:22.093px;line-height:1.25;stroke-width:1.1836" xml:space="preserve"><tspan x="646.36102" y="23.081558" style="font-family:'Latin Modern Roman';font-size:22.093px;font-weight:bold;stroke-width:1.1836">KÚMA</tspan></text>
    <text transform="rotate(-56.814)" x="49.679153" y="699.85797" style="font-family:'DejaVu Serif';font-size:22.093px;line-height:1.25;stroke-width:1.1836" xml:space="preserve"><tspan x="49.679153" y="699.85797" style="font-family:'Latin Modern Roman';font-size:22.093px;font-weight:bold;stroke-width:1.1836">VAIYA</tspan></text>
    <text transform="rotate(-56.814)" x="18.558792" y="284.39893" style="font-family:'DejaVu Serif';font-size:22.093px;line-height:1.25;stroke-width:1.1836" xml:space="preserve"><tspan x="18.558792" y="284.39893" style="font-family:'Latin Modern Roman';font-size:22.093px;font-weight:bold;stroke-width:1.1836">VAIYA</tspan></text>
    <text x="188.97519" y="394.16013" style="font-family:'DejaVu Serif';font-size:22.093px;line-height:1.25;stroke-width:1.1836" xml:space="preserve"><tspan x="188.97519" y="394.16013" style="font-family:'Latin Modern Roman';font-size:22.093px;font-weight:bold;stroke-width:1.1836">KÚMA</tspan></text>
    <text x="248.40904" y="622.30255" style="font-family:'DejaVu Serif';font-size:17.359px;letter-spacing:-1.2428px;line-height:1.25;stroke-width:1.1836" xml:space="preserve"><tspan x="248.40904" y="622.30255" style="font-family:'Latin Modern Roman';font-size:17.359px;font-weight:bold;stroke-width:1.1836">The World: from Formen (North) to Harmen (South)</tspan></text>
    <text x="427.99158" y="131.55293" style="font-family:'DejaVu Serif';font-size:22.093px;line-height:1.25;stroke-width:1.1836" xml:space="preserve"><tspan x="427.99158" y="131.55293" style="font-family:'Latin Modern Roman';font-size:22.093px;stroke-width:1.1836">Vista</tspan></text>
    <path d="m432.95 135.31h41.184" style="fill:none;stroke-width:1.1836px;stroke:#000000"/>
    <path d="m221.45 205.94h41.184" style="fill:none;stroke-width:1.1836px;stroke:#000000"/>
    <path d="m393.76 627.3h41.184" style="fill:none;stroke-width:1.1836px;stroke:#000000"/>
    <path d="m546.94 627.85h41.184" style="fill:none;stroke-width:1.1836px;stroke:#000000"/>
    <text x="632.25006" y="200.28377" style="font-family:'DejaVu Serif';font-size:12.625px;line-height:1.25;stroke-width:1.1836" xml:space="preserve"><tspan x="632.25006" y="200.28377" style="font-family:'Latin Modern Roman';font-size:12.625px;font-weight:bold;stroke-width:1.1836">Harmen</tspan></text>
    <path d="m635.44 203.74h41.184" style="fill:none;stroke-width:1.1836px;stroke:#000000"/>
  </g>
</svg>
