<?xml version="1.0" standalone="no"?>
<!DOCTYPE svg PUBLIC "-//W3C//DTD SVG 1.1//EN" "http://www.w3.org/Graphics/SVG/1.1/DTD/svg11.dtd" >
<svg xmlns="http://www.w3.org/2000/svg" xmlns:xlink="http://www.w3.org/1999/xlink" version="1.1">
<metadata>
Created by FontForge 20201107 at Thu Apr  6 18:05:36 2006
 By Janez Pavel Žebovec
Copyright (c) 2006 by Mans Bjo:rkman. All rights reserved.
</metadata>
<defs>
<font id="ValmaricEldamar" horiz-adv-x="567" >
  <font-face 
    font-family="Valmaric Eldamar"
    font-weight="500"
    font-stretch="normal"
    units-per-em="1000"
    panose-1="1 0 6 3 4 0 0 2 0 4"
    ascent="800"
    descent="-200"
    x-height="432"
    cap-height="438"
    bbox="-727 -823 1518 1084"
    underline-thickness="20"
    underline-position="-133"
    unicode-range="U+0020-2122"
  />
<missing-glyph horiz-adv-x="833" 
d="M0 0v664h803v-664h-803zM782 636h-751v-621h751v621z" />
    <glyph glyph-name=".notdef" horiz-adv-x="833" 
d="M0 0v664h803v-664h-803zM782 636h-751v-621h751v621z" />
    <glyph glyph-name="exclam" unicode="!" horiz-adv-x="649" 
d="M619 213q-23 -26 -49 -42.5t-54.5 -25.5t-60 -12t-66.5 -3q-42 0 -83.5 7.5t-82 17t-82 17t-83.5 7.5q-31 0 -58 -7q22 22 46 34.5t50 18.5t54 7.5t59 1.5q39 0 77.5 -6t77 -13t77 -13t77.5 -6q26 0 51 4t50 13z" />
    <glyph glyph-name="quotedbl" unicode="&#x22;" horiz-adv-x="1000" 
d="M871 277q43 0 65 -20t22 -54q0 -16 -12.5 -31t-29 -27t-33.5 -19.5t-25 -7.5q-3 0 -3 2q0 4 6.5 8.5t15 11t15 15.5t6.5 22q0 21 -19.5 33.5t-46.5 12.5q-62 0 -132 -7.5t-142 -18.5t-143 -24.5t-135 -24.5t-119 -18.5t-94 -7.5q-67 0 -67 41q0 11 9 23t21.5 22
t26.5 16.5t23 6.5q2 0 3 -1q1 -2 -3 -4t-9.5 -6.5t-10.5 -11t-5 -15.5q0 -17 10.5 -27.5t28.5 -10.5q43 0 103.5 9t131 22.5t146 29.5t147.5 29.5t136.5 22.5t112.5 9z" />
    <glyph glyph-name="numbersign" unicode="#" horiz-adv-x="252" 
d="M129 152l-59 58l53 53l58 -59z" />
    <glyph glyph-name="dollar" unicode="$" horiz-adv-x="548" 
d="M518 269q0 -52 -26.5 -103.5t-69 -93t-95 -67t-104.5 -25.5q-40 0 -79.5 8t-71.5 27.5t-52 51t-20 79.5q0 52 26.5 103.5t69 92.5t95.5 67t105 26q40 0 80 -8.5t71.5 -28t51 -51t19.5 -78.5zM448 198q0 43 -21.5 74t-55.5 51.5t-74.5 30t-78.5 9.5q-72 0 -109.5 -37
t-37.5 -109q0 -43 21.5 -74t55 -51.5t74 -30t78.5 -9.5q72 0 110 37t38 109z" />
    <glyph glyph-name="percent" unicode="%" horiz-adv-x="548" 
d="M518 269q0 -52 -26.5 -103.5t-69 -93t-95 -67t-104.5 -25.5q-40 0 -79.5 8t-71.5 27.5t-52 51t-20 79.5q0 52 26.5 103.5t69 92.5t95.5 67t105 26q40 0 80 -8.5t71.5 -28t51 -51t19.5 -78.5zM441 241q-10 32 -34 55t-55 38t-66 22t-68 7q-132 0 -146 -120q16 3 60 3
q78 0 154.5 -2.5t154.5 -2.5zM447 175q-44 1 -89.5 2.5t-88 2.5t-79.5 1.5t-65 0.5q-16 0 -30 -2.5t-14 -10.5t5 -15q13 -26 36.5 -45.5t52 -32t60 -18.5t61.5 -6q139 0 151 123z" />
    <glyph glyph-name="ampersand" unicode="&#x26;" horiz-adv-x="548" 
d="M784 270q-5 -21 -11.5 -40.5t-18 -33.5t-28 -22.5t-40.5 -8.5q-48 0 -95.5 3t-95.5 5q-18 -39 -48 -74t-66.5 -61.5t-77 -42t-80.5 -15.5t-79.5 8t-71.5 27.5t-52 51t-20 79.5q0 52 26.5 103.5t69 92.5t95.5 67t105 26q40 0 80 -8.5t71.5 -28t51 -51t19.5 -78.5v-13.5
t-2 -14.5q77 2 147 8.5t121 20.5zM441 241q-10 32 -34 55t-55 38t-66 22t-68 7q-132 0 -146 -120q16 3 60 3q78 0 154.5 -2.5t154.5 -2.5zM447 175q-44 1 -89.5 2.5t-88 2.5t-79.5 1.5t-65 0.5q-16 0 -30 -2.5t-14 -10.5t5 -15q13 -26 36.5 -45.5t52 -32t60 -18.5t61.5 -6
q67 0 106 30t45 93z" />
    <glyph glyph-name="quotesingle" unicode="'" horiz-adv-x="548" 
d="M518 269q0 -52 -26.5 -103.5t-69 -93t-95.5 -67t-105 -25.5q-41 0 -80.5 8.5t-71 28t-51 51t-19.5 78.5q0 7 0.5 13.5t1.5 13.5q-77 -2 -147 -8t-121 -20q5 21 12 40t17.5 33.5t25.5 23t37 8.5q42 0 87 -3t110 -5q18 39 48 74t66.5 61.5t77.5 42t81 15.5q39 0 79 -8
t71.5 -27.5t51.5 -51t20 -79.5zM438 246q0 5 -5 15q-14 26 -37.5 45.5t-52 32t-60 18.5t-61.5 6q-66 0 -105 -30t-45 -93q79 -2 158.5 -4.5t162.5 -2.5q16 0 30.5 2.5t14.5 10.5zM446 172q-17 -3 -59 -3q-78 0 -154.5 2.5t-155.5 2.5q10 -32 34 -55t55 -38t66 -22t68 -7
q66 0 103 30t43 90z" />
    <glyph glyph-name="parenleft" unicode="(" horiz-adv-x="548" 
d="M872 -4q0 -15 -11 -32.5t-29 -32.5t-40.5 -25t-46.5 -10q-44 0 -91.5 11.5t-95.5 30t-96 42.5t-94 49q-34 -23 -71 -36t-74 -13q-40 0 -79.5 8t-71.5 27.5t-52 51t-20 79.5q0 52 26.5 103.5t69 92.5t95.5 67t105 26q40 0 80 -8.5t71.5 -28t51 -51t19.5 -78.5
q0 -49 -24 -98t-63 -89q39 -21 80 -41t84 -35.5t87.5 -25t91.5 -9.5q12 0 27 1.5t28.5 4.5t25 8.5t17.5 14.5v-4zM448 198q0 43 -21.5 74t-55.5 51.5t-74.5 30t-78.5 9.5q-69 0 -106.5 -34t-40.5 -100q41 0 82.5 -12t84 -31.5t86.5 -44t89 -49.5q35 37 35 106zM303 65
q-36 19 -68.5 37t-60.5 31.5t-51.5 21.5t-41.5 8q13 -29 36.5 -49.5t53.5 -34.5t62.5 -20.5t63.5 -6.5h14.5t13.5 1z" />
    <glyph glyph-name="parenright" unicode=")" horiz-adv-x="548" 
d="M518 269q0 -52 -26.5 -103.5t-69 -93t-95 -67t-104.5 -25.5q-41 0 -81 8t-71.5 27.5t-51 52t-19.5 81.5q-48 -19 -98 -30.5t-94.5 -17.5t-80 -8t-54.5 -2q-21 0 -42.5 7.5t-38 21t-27 32.5t-10.5 43q0 39 22.5 81t58 77.5t78 58.5t82.5 23q20 0 42 -7.5t40.5 -21
t30.5 -32.5t12 -42l-108 -36q-2 30 -24 49t-54 19q-37 0 -61 -22.5t-24 -66.5q0 -22 9.5 -40t26 -30.5t38.5 -19t47 -6.5q16 0 42 2.5t58.5 8.5t70 16t77.5 26q17 40 47 77t67.5 65t79.5 44.5t83 16.5q40 0 80 -8.5t71.5 -28t51 -51t19.5 -78.5zM448 198q0 34 -13.5 60.5
t-36 46t-52 32.5t-60.5 19v-304h14q72 0 110 37t38 109zM218 363q-124 0 -144 -107q40 20 79.5 46t77.5 61h-13zM242 333q-17 -26 -56 -66.5t-111 -82.5h-1q7 -27 23.5 -48.5t39 -37.5t50 -26t55.5 -15v276z" />
    <glyph glyph-name="zero" unicode="0" 
d="M537 289q0 -24 -10.5 -55.5t-29 -64.5t-42.5 -65.5t-51 -57.5t-55 -40.5t-54 -15.5q-8 0 -18 7t-19 15q-11 10 -22 22l57 65q17 -13 36 -22t40 -9t38.5 11t29.5 27.5t19 37t7 38.5q0 31 -12 63.5t-33 59.5t-50 44t-63 17q-20 0 -41 -8.5t-41.5 -21t-38.5 -27.5t-32 -28
v-223q-25 -21 -56.5 -43t-60.5 -33q5 22 8 72.5t4.5 117t2 143t0.5 149.5v206q0 30 -11 52t-39 33q15 13 33 28t38 27.5t40.5 22t40.5 12.5v-533q26 26 50.5 49t51.5 40t58 26.5t71 9.5q27 0 54.5 -12.5t49.5 -33.5t36 -47.5t14 -54.5z" />
    <glyph glyph-name="one" unicode="1" horiz-adv-x="906" 
d="M876 289q0 -24 -10.5 -55.5t-28 -64.5t-41 -65t-50 -57.5t-54 -41t-53.5 -15.5q-8 0 -17.5 7t-18.5 15q-11 10 -22 22l56 64q17 -12 35.5 -21t39.5 -9t38 11t29 28t18.5 37t6.5 38q0 30 -11.5 62.5t-32.5 59.5t-49.5 44.5t-61.5 17.5q-12 0 -32.5 -6.5t-40 -17t-34 -24
t-14.5 -27.5q0 -24 -10 -55.5t-27.5 -65t-41 -66t-49.5 -58t-54 -41t-54 -15.5q-8 0 -17.5 7t-18.5 15q-11 10 -22 22l56 64q17 -12 35.5 -21t38.5 -9q21 0 38 11t29 28t18.5 37t6.5 38q0 30 -11.5 62.5t-32 59.5t-48.5 44.5t-62 17.5q-20 0 -40.5 -8.5t-40.5 -21.5
t-37.5 -27.5t-31.5 -27.5v-223q-25 -21 -56.5 -43t-60.5 -33q5 22 8 72.5t4.5 117t2 143t0.5 149.5v206q0 30 -11 52t-39 33q15 13 33 28t38 27.5t40.5 22t40.5 12.5v-533q25 26 49 49t50 40t57 26.5t70 9.5q23 0 44 -9t39 -23t33 -32.5t26 -37.5q24 23 46 42t45.5 32.5
t51 20.5t62.5 7q28 0 55 -12.5t48.5 -33.5t34.5 -47.5t13 -54.5z" />
    <glyph glyph-name="two" unicode="2" 
d="M590 105q-5 -14 -18 -32.5t-27 -34.5q-16 -19 -35 -38h-510q5 21 17.5 44t27.5 43q2 37 3 82.5t1.5 94.5t0.5 100v100v206q0 30 -11 52t-39 33q15 13 33 28t38 27.5t40.5 22t40.5 12.5v-533q26 26 50.5 49t51.5 40t58 26.5t71 9.5q27 0 54.5 -12.5t49.5 -33.5t36 -47.5
t14 -54.5q0 -19 -7 -43.5t-19 -50.5t-29 -53t-36 -51q45 2 81 5t63 9zM463 182q0 31 -12 63.5t-33 59.5t-50 44t-63 17q-20 0 -41 -8.5t-41.5 -21t-38.5 -27.5t-32 -28v-190q48 0 96 -0.5t96 -0.5h79q19 18 29.5 43.5t10.5 48.5z" />
    <glyph glyph-name="three" unicode="3" horiz-adv-x="906" 
d="M929 105q-5 -14 -18 -32.5t-27 -34.5q-16 -19 -35 -38h-849q5 21 17.5 44t27.5 43q2 37 3 82.5t1.5 94.5t0.5 100v100v206q0 30 -11 52t-39 33q15 13 33 28t38 27.5t40.5 22t40.5 12.5v-533q25 26 49 49t50 40t57 26.5t70 9.5q23 0 44 -9t39 -23t33 -32.5t26 -37.5
q24 23 46 42t45.5 32.5t51 20.5t62.5 7q28 0 55 -12.5t48.5 -33.5t34.5 -47.5t13 -54.5q0 -40 -27 -92.5t-68 -102.5q51 2 91 4.5t57 6.5zM804 182q0 30 -11.5 62.5t-32.5 59.5t-49.5 44.5t-61.5 17.5q-12 0 -32.5 -6.5t-40 -17t-34 -24t-14.5 -27.5q0 -41 -28 -95.5
t-70 -105.5q82 0 163 0.5t163 2.5q23 17 35.5 40t12.5 49zM456 182q0 30 -11.5 62.5t-32 59.5t-48.5 44.5t-62 17.5q-20 0 -40.5 -8.5t-40.5 -21.5t-37.5 -27.5t-31.5 -27.5v-190h251q25 15 39 39.5t14 51.5z" />
    <glyph glyph-name="four" unicode="4" 
d="M537 71q-15 -13 -33 -27.5t-38 -27.5t-40.5 -22t-40.5 -12v123q-26 -26 -50.5 -49t-51.5 -40t-58 -26.5t-71 -9.5q-27 0 -54.5 12.5t-49.5 33.5t-36 47.5t-14 54.5q0 24 10.5 55.5t29 65t42.5 65.5t51 57t55 40.5t54 15.5q8 0 18 -7t19 -15q11 -10 22 -22l-57 -64
q-17 12 -36 21t-40 9t-38.5 -11t-29.5 -27.5t-19 -36.5t-7 -38q0 -32 12 -64.5t33 -59t50 -43.5t63 -17q20 0 41 8.5t41.5 21t38.5 27.5t32 28v533q0 30 -10.5 52t-39.5 33q15 13 33 28t38 27.5t40.5 22t40.5 12.5v-699q0 -29 11 -46.5t39 -28.5z" />
    <glyph glyph-name="five" unicode="5" horiz-adv-x="906" 
d="M876 71q-15 -13 -33 -27.5t-38 -27.5t-40.5 -22t-40.5 -12v123q-25 -26 -49 -48.5t-50 -39.5t-57 -27t-70 -10q-23 0 -44.5 9t-39.5 23t-33 32.5t-25 37.5q-24 -23 -46 -42t-45.5 -32.5t-51 -20.5t-62.5 -7q-28 0 -55 12.5t-48.5 33.5t-34.5 47.5t-13 54.5
q0 24 10.5 55.5t28 64.5t41 65t50 57.5t54 41t53.5 15.5q7 0 17 -7t19 -15q11 -10 22 -22l-56 -64q-17 12 -35.5 21t-39.5 9t-38 -11t-29 -28t-18.5 -36.5t-6.5 -37.5q0 -31 11.5 -63.5t32.5 -59.5t49.5 -44t61.5 -17q12 0 32.5 6.5t40 17t33.5 23.5t14 27q0 24 10.5 55.5
t28 65t41 66t49.5 58t54 41t54 15.5q7 0 17 -7t19 -15q11 -10 22 -22l-56 -64q-17 12 -35.5 21t-38.5 9q-21 0 -38 -11t-29 -28t-18.5 -36.5t-6.5 -37.5q0 -31 11.5 -63.5t32 -59.5t48.5 -44t62 -17q20 0 40.5 8.5t40.5 21t37.5 27.5t31.5 28v533q0 30 -10.5 52t-39.5 33
q15 13 33 28t38 27.5t40.5 22t40.5 12.5v-699q0 -29 11 -46.5t39 -28.5z" />
    <glyph glyph-name="six" unicode="6" 
d="M537 71q-15 -13 -33 -27.5t-38 -27.5t-40.5 -22t-40.5 -12v123q-26 -26 -50.5 -49t-51.5 -40t-58 -26.5t-71 -9.5q-27 0 -54.5 12.5t-49.5 33.5t-36 47.5t-14 54.5q0 21 8 47t21.5 53.5t32 55.5t39.5 53h-101q4 20 15.5 42t26 41.5t28.5 34.5t24 22q11 -28 28 -39t47 -11
h216v243q0 30 -10.5 52t-39.5 33q15 13 33 28t38 27.5t40.5 22t40.5 12.5v-699q0 -29 11 -46.5t39 -28.5zM128 337q-25 -16 -39.5 -45t-14.5 -56q0 -32 12 -64.5t33 -59t50 -43.5t63 -17q20 0 41 8.5t41.5 21t38.5 27.5t32 28v200h-257z" />
    <glyph glyph-name="seven" unicode="7" horiz-adv-x="906" 
d="M876 72q-15 -14 -33 -28.5t-38 -27.5t-40.5 -22t-40.5 -12v123q-25 -26 -49 -48.5t-50 -39.5t-57 -27t-70 -10q-23 0 -44.5 9t-39.5 23t-33 32.5t-25 37.5q-24 -23 -46 -42t-45.5 -32.5t-51 -20.5t-62.5 -7q-28 0 -55 12.5t-48.5 33.5t-34.5 47.5t-13 54.5q0 20 7.5 46
t21 53.5t31 56t38.5 53.5h-98q4 20 15.5 42t26 41.5t28.5 34.5t24 22q11 -28 28 -39t47 -11h241q79 0 157.5 0.5t156.5 2.5v240q0 30 -10.5 52t-39.5 33q15 13 33 28t38 27.5t40.5 22t40.5 12.5v-699q0 -29 11 -46t39 -28zM473 337q-25 -16 -39 -45.5t-14 -55.5
q0 -31 11.5 -63.5t32 -59.5t48.5 -44t62 -17q20 0 40.5 8.5t40.5 21t37.5 27.5t31.5 28v200h-251zM125 337q-25 -16 -39 -45.5t-14 -55.5q0 -31 11.5 -63.5t32.5 -59.5t49.5 -44t61.5 -17q12 0 32.5 6.5t40 17t33.5 23.5t14 27q0 20 7.5 46t21 54.5t31 57t38.5 53.5h-320z
" />
    <glyph glyph-name="eight" unicode="8" 
d="M537 289q0 -24 -10.5 -55.5t-29 -64.5t-42.5 -65.5t-51 -57.5t-55 -40.5t-54 -15.5q-8 0 -18 7t-19 15q-11 10 -22 22l57 65q17 -13 36 -22t40 -9t38.5 11t29.5 27.5t19 37t7 38.5q0 31 -12 63.5t-33 59.5t-50 44t-63 17q-20 0 -41 -8.5t-41.5 -21t-38.5 -27.5t-32 -28
v-593q-25 -21 -56.5 -43t-60.5 -33q5 22 8 71t4.5 113t2 137.5t0.5 144.5v202q0 30 -11 52t-39 33q15 13 33 28t38 27.5t40.5 22t40.5 12.5v-143q26 26 50.5 49t51.5 40t58 26.5t71 9.5q27 0 54.5 -12.5t49.5 -33.5t36 -47.5t14 -54.5z" />
    <glyph glyph-name="nine" unicode="9" horiz-adv-x="906" 
d="M876 289q0 -24 -10.5 -55.5t-28 -64.5t-41 -65t-50 -57.5t-54 -41t-53.5 -15.5q-8 0 -17.5 7t-18.5 15q-11 10 -22 22l56 64q17 -12 35.5 -21t39.5 -9t38 11t29 28t18.5 37t6.5 38q0 30 -11.5 62.5t-32.5 59.5t-49.5 44.5t-61.5 17.5q-12 0 -32.5 -6.5t-40 -17t-34 -24
t-14.5 -27.5q0 -24 -10 -55.5t-27.5 -65t-41 -66t-49.5 -58t-54 -41t-54 -15.5q-8 0 -17.5 7t-18.5 15q-11 10 -22 22l56 64q17 -12 35.5 -21t38.5 -9q21 0 38 11t29 28t18.5 37t6.5 38q0 30 -11.5 62.5t-32 59.5t-48.5 44.5t-62 17.5q-20 0 -40.5 -8.5t-40.5 -21.5
t-37.5 -27.5t-31.5 -27.5v-593q-25 -21 -56.5 -43t-60.5 -33q5 22 8 71t4.5 113t2 137.5t0.5 144.5v202q0 30 -11 52t-39 33q15 13 33 28t38 27.5t40.5 22t40.5 12.5v-143q25 26 49 49t50 40t57 26.5t70 9.5q23 0 44 -9t39 -23t33 -32.5t26 -37.5q24 23 46 42t45.5 32.5
t51 20.5t62.5 7q28 0 55 -12.5t48.5 -33.5t34.5 -47.5t13 -54.5z" />
    <glyph glyph-name="colon" unicode=":" 
d="M590 105q-5 -14 -18 -32.5t-27 -34.5q-16 -19 -35 -38h-358v-312q-25 -21 -56.5 -43t-60.5 -33q5 22 8 71t4.5 113t2 137.5t0.5 144.5v202q0 30 -11 52t-39 33q15 13 33 28t38 27.5t40.5 22t40.5 12.5v-143q26 26 50.5 49t51.5 40t58 26.5t71 9.5q27 0 54.5 -12.5
t49.5 -33.5t36 -47.5t14 -54.5q0 -19 -7 -43.5t-19 -50.5t-29 -53t-36 -51q45 2 81 5t63 9zM463 182q0 31 -12 63.5t-33 59.5t-50 44t-63 17q-20 0 -41 -8.5t-41.5 -21t-38.5 -27.5t-32 -28v-190q44 0 93.5 -0.5t98.5 -0.5h79q19 18 29.5 43.5t10.5 48.5z" />
    <glyph glyph-name="semicolon" unicode=";" horiz-adv-x="906" 
d="M929 105q-5 -14 -18 -32.5t-27 -34.5q-16 -19 -35 -38h-697v-312q-25 -21 -56.5 -43t-60.5 -33q5 22 8 71t4.5 113t2 137.5t0.5 144.5v202q0 30 -11 52t-39 33q15 13 33 28t38 27.5t40.5 22t40.5 12.5v-143q25 26 49 49t50 40t57 26.5t70 9.5q23 0 44 -9t39 -23t33 -32.5
t26 -37.5q24 23 46 42t45.5 32.5t51 20.5t62.5 7q28 0 55 -12.5t48.5 -33.5t34.5 -47.5t13 -54.5q0 -40 -27 -92.5t-68 -102.5q51 2 91 4.5t57 6.5zM804 182q0 30 -11.5 62.5t-32.5 59.5t-49.5 44.5t-61.5 17.5q-12 0 -32.5 -6.5t-40 -17t-34 -24t-14.5 -27.5
q0 -41 -28 -95.5t-70 -105.5q82 0 163 0.5t163 2.5q23 17 35.5 40t12.5 49zM456 182q0 30 -11.5 62.5t-32 59.5t-48.5 44.5t-62 17.5q-20 0 -40.5 -8.5t-40.5 -21.5t-37.5 -27.5t-31.5 -27.5v-190h251q25 15 39 39.5t14 51.5z" />
    <glyph glyph-name="less" unicode="&#x3c;" 
d="M537 -338q-15 -13 -33 -27.5t-38 -27.5t-40.5 -22.5t-40.5 -12.5v533q-26 -26 -50.5 -49t-51.5 -40t-58 -26.5t-71 -9.5q-27 0 -54.5 12.5t-49.5 33.5t-36 47.5t-14 54.5q0 24 10.5 55.5t29 65t42.5 65.5t51 57t55 40.5t54 15.5q8 0 18 -7t19 -15q11 -10 22 -22l-57 -64
q-17 12 -36 21t-40 9t-38.5 -11t-29.5 -27.5t-19 -36.5t-7 -38q0 -32 12 -64.5t33 -59t50 -43.5t63 -17q20 0 41 8.5t41.5 21t38.5 27.5t32 28v223q25 20 56.5 42.5t60.5 33.5q-5 -22 -8 -72.5t-4.5 -117.5t-2 -143.5t-0.5 -149.5v-206q0 -30 11 -52t39 -33z" />
    <glyph glyph-name="equal" unicode="=" horiz-adv-x="906" 
d="M876 -338q-15 -13 -33 -27.5t-38 -27.5t-40.5 -22.5t-40.5 -12.5v533q-25 -26 -49 -48.5t-50 -39.5t-57 -27t-70 -10q-23 0 -44.5 9t-39.5 23t-33 32.5t-25 37.5q-24 -23 -46 -42t-45.5 -32.5t-51 -20.5t-62.5 -7q-28 0 -55 12.5t-48.5 33.5t-34.5 47.5t-13 54.5
q0 24 10.5 55.5t28 64.5t41 65t50 57.5t54 41t53.5 15.5q7 0 17 -7t19 -15q11 -10 22 -22l-56 -64q-17 12 -35.5 21t-39.5 9t-38 -11t-29 -28t-18.5 -36.5t-6.5 -37.5q0 -31 11.5 -63.5t32.5 -59.5t49.5 -44t61.5 -17q12 0 32.5 6.5t40 17t33.5 23.5t14 27q0 24 10.5 55.5
t28 65t41 66t49.5 58t54 41t54 15.5q7 0 17 -7t19 -15q11 -10 22 -22l-56 -64q-17 12 -35.5 21t-38.5 9q-21 0 -38 -11t-29 -28t-18.5 -36.5t-6.5 -37.5q0 -31 11.5 -63.5t32 -59.5t48.5 -44t62 -17q20 0 40.5 8.5t40.5 21t37.5 27.5t31.5 28v223q25 20 56.5 42.5t60.5 33.5
q-5 -22 -8 -72.5t-4.5 -117.5t-2 -143.5t-0.5 -149.5v-206q0 -30 11 -52t39 -33z" />
    <glyph glyph-name="greater" unicode="&#x3e;" 
d="M590 443q-5 -15 -18 -33t-27 -35q-16 -19 -35 -38h-17q-2 -37 -3 -83t-2 -96t-1 -102.5v-102.5v-206q0 -30 11 -52t39 -33q-15 -13 -33 -27.5t-38 -27.5t-40.5 -22.5t-40.5 -12.5v533q-26 -26 -50.5 -49t-51.5 -40t-58 -26.5t-71 -9.5q-27 0 -54.5 12.5t-49.5 33.5
t-36 47.5t-14 54.5q0 21 8 47t21.5 53.5t32 55.5t39.5 53h-101q4 20 15.5 42t26 41.5t28.5 34.5t24 22q11 -28 28 -39t47 -11h152q89 0 157 2.5t112 13.5zM128 337q-25 -16 -39.5 -45t-14.5 -56q0 -32 12 -64.5t33 -59t50 -43.5t63 -17q20 0 41 8.5t41.5 21t38.5 27.5t32 28
v200h-257z" />
    <glyph glyph-name="question" unicode="?" horiz-adv-x="906" 
d="M906 443q-5 -12 -14.5 -26.5t-20.5 -28.5t-22 -26t-17 -18q-2 -38 -3 -84.5t-2 -97.5t-1 -104.5v-104.5v-206q0 -30 11 -52t39 -33q-15 -13 -33 -27.5t-38 -27.5t-40.5 -22.5t-40.5 -12.5v533q-25 -26 -49 -48.5t-50 -39.5t-57 -27t-70 -10q-23 0 -44.5 9t-39.5 23
t-33 32.5t-25 37.5q-24 -23 -46 -42t-45.5 -32.5t-51 -20.5t-62.5 -7q-28 0 -55 12.5t-48.5 33.5t-34.5 47.5t-13 54.5q0 20 7.5 46t21 53.5t31 56t38.5 53.5h-98q4 20 15.5 42t26 41.5t28.5 34.5t24 22q11 -28 28 -39t47 -11h217h77t97.5 0.5t105 1.5t100.5 3t84 4.5
t56 6.5zM724 337h-251q-25 -16 -39 -45.5t-14 -55.5q0 -31 11.5 -63.5t32 -59.5t48.5 -44t62 -17q20 0 40.5 8.5t40.5 21t37.5 27.5t31.5 28v200zM125 337q-25 -16 -39 -45.5t-14 -55.5q0 -31 11.5 -63.5t32.5 -59.5t49.5 -44t61.5 -17q12 0 32.5 6.5t40 17t33.5 23.5t14 27
q0 20 7.5 46t21 54.5t31 57t38.5 53.5h-320z" />
    <glyph glyph-name="at" unicode="@" 
d="M537 289q0 -24 -10.5 -55.5t-29 -64.5t-42.5 -65.5t-51 -57.5t-55 -40.5t-54 -15.5q-8 0 -18 7t-19 15q-11 10 -22 22l57 65q17 -13 36 -22t40 -9t38.5 11t29.5 27.5t19 37t7 38.5q0 31 -12 63.5t-33 59.5t-50 44t-63 17q-20 0 -41 -8.5t-41.5 -21t-38.5 -27.5t-32 -28
v-223q-25 -21 -56.5 -43t-60.5 -33q5 22 8 40t4.5 36.5t2 41t0.5 52.5v128q0 30 -11 52t-39 33q15 13 33 28t38 27.5t40.5 22t40.5 12.5v-143q26 26 50.5 49t51.5 40t58 26.5t71 9.5q27 0 54.5 -12.5t49.5 -33.5t36 -47.5t14 -54.5z" />
    <glyph glyph-name="A" unicode="A" horiz-adv-x="906" 
d="M876 289q0 -24 -10.5 -55.5t-28 -64.5t-41 -65t-50 -57.5t-54 -41t-53.5 -15.5q-8 0 -17.5 7t-18.5 15q-11 10 -22 22l56 64q17 -12 35.5 -21t39.5 -9t38 11t29 28t18.5 37t6.5 38q0 30 -11.5 62.5t-32.5 59.5t-49.5 44.5t-61.5 17.5q-12 0 -32.5 -6.5t-40 -17t-34 -24
t-14.5 -27.5q0 -24 -10 -55.5t-27.5 -65t-41 -66t-49.5 -58t-54 -41t-54 -15.5q-8 0 -17.5 7t-18.5 15q-11 10 -22 22l56 64q17 -12 35.5 -21t38.5 -9q21 0 38 11t29 28t18.5 37t6.5 38q0 30 -11.5 62.5t-32 59.5t-48.5 44.5t-62 17.5q-20 0 -40.5 -8.5t-40.5 -21.5
t-37.5 -27.5t-31.5 -27.5v-223q-25 -21 -56.5 -43t-60.5 -33q5 22 8 40t4.5 36.5t2 41t0.5 52.5v128q0 30 -11 52t-39 33q15 13 33 28t38 27.5t40.5 22t40.5 12.5v-143q25 26 49 49t50 40t57 26.5t70 9.5q23 0 44 -9t39 -23t33 -32.5t26 -37.5q24 23 46 42t45.5 32.5
t51 20.5t62.5 7q28 0 55 -12.5t48.5 -33.5t34.5 -47.5t13 -54.5z" />
    <glyph glyph-name="B" unicode="B" 
d="M590 105q-5 -14 -18 -32.5t-27 -34.5q-16 -19 -35 -38h-510q5 23 19 48t31 46v186q0 30 -11 52t-39 33q15 13 33 28t38 27.5t40.5 22t40.5 12.5v-143q26 26 50.5 49t51.5 40t58 26.5t71 9.5q27 0 54.5 -12.5t49.5 -33.5t36 -47.5t14 -54.5q0 -19 -7 -43.5t-19 -50.5
t-29 -53t-36 -51q45 2 81 5t63 9zM463 182q0 31 -12 63.5t-33 59.5t-50 44t-63 17q-20 0 -41 -8.5t-41.5 -21t-38.5 -27.5t-32 -28v-190q45 0 94.5 -0.5t99.5 -0.5h77q19 18 29.5 43.5t10.5 48.5z" />
    <glyph glyph-name="C" unicode="C" horiz-adv-x="906" 
d="M929 105q-5 -14 -18 -32.5t-27 -34.5q-16 -19 -35 -38h-849q5 23 19 47.5t30 45.5q1 15 1 32v37v128q0 30 -11 52t-39 33q15 13 33 28t38 27.5t40.5 22t40.5 12.5v-153q25 26 49 49t50 40t57 26.5t70 9.5q23 0 44 -9t39 -23t33 -32.5t26 -37.5q24 23 46 42t45.5 32.5
t51 20.5t62.5 7q28 0 55 -12.5t48.5 -33.5t34.5 -47.5t13 -54.5q0 -40 -27 -92.5t-68 -102.5q51 2 91 4.5t57 6.5zM804 182q0 30 -11.5 62.5t-32.5 59.5t-49.5 44.5t-61.5 17.5q-12 0 -32.5 -6.5t-40 -17t-34 -24t-14.5 -27.5q0 -41 -28 -95.5t-70 -105.5q82 0 163 0.5
t163 2.5q23 17 35.5 40t12.5 49zM456 182q0 30 -11.5 62.5t-32 59.5t-48.5 44.5t-62 17.5q-20 0 -40.5 -8.5t-40.5 -21.5t-37.5 -27.5t-31.5 -27.5v-190h251q25 15 39 39.5t14 51.5z" />
    <glyph glyph-name="D" unicode="D" 
d="M537 71q-15 -13 -33 -27.5t-38 -27.5t-40.5 -22t-40.5 -12v123q-26 -26 -50.5 -49t-51.5 -40t-58 -26.5t-71 -9.5q-27 0 -54.5 12.5t-49.5 33.5t-36 47.5t-14 54.5q0 24 10.5 55.5t29 65t42.5 65.5t51 57t55 40.5t54 15.5q8 0 18 -7t19 -15q11 -10 22 -22l-57 -64
q-17 12 -36 21t-40 9t-38.5 -11t-29.5 -27.5t-19 -36.5t-7 -38q0 -32 12 -64.5t33 -59t50 -43.5t63 -17q20 0 41 8.5t41.5 21t38.5 27.5t32 28v222q25 20 56.5 42.5t60.5 33.5q-5 -22 -8 -39t-4.5 -34.5t-2 -38.5t-0.5 -51v-126q0 -29 11 -46.5t39 -28.5z" />
    <glyph glyph-name="E" unicode="E" horiz-adv-x="906" 
d="M876 72q-15 -14 -33 -28.5t-38 -27.5t-40.5 -22t-40.5 -12v123q-25 -26 -49 -48.5t-50 -39.5t-57 -27t-70 -10q-23 0 -44.5 9t-39.5 23t-33 32.5t-25 37.5q-24 -23 -46 -42t-45.5 -32.5t-51 -20.5t-62.5 -7q-28 0 -55 12.5t-48.5 33.5t-34.5 47.5t-13 54.5
q0 24 10.5 55.5t28 64.5t41 65t50 57.5t54 41t53.5 15.5q7 0 17 -7t19 -15q11 -10 22 -22l-56 -64q-17 12 -35.5 21t-39.5 9t-38 -11t-29 -28t-18.5 -36.5t-6.5 -37.5q0 -31 11.5 -63.5t32.5 -59.5t49.5 -44t61.5 -17q12 0 32.5 6.5t40 17t33.5 23.5t14 27q0 24 10.5 55.5
t28 65t41 66t49.5 58t54 41t54 15.5q7 0 17 -7t19 -15q11 -10 22 -22l-56 -64q-17 12 -35.5 21t-38.5 9q-21 0 -38 -11t-29 -28t-18.5 -36.5t-6.5 -37.5q0 -31 11.5 -63.5t32 -59.5t48.5 -44t62 -17q20 0 40.5 8.5t40.5 21t37.5 27.5t31.5 28v222q25 20 56.5 42.5t60.5 33.5
q-5 -22 -8 -39t-4.5 -34.5t-2 -38.5t-0.5 -51v-126q0 -29 11 -46t39 -28z" />
    <glyph glyph-name="F" unicode="F" 
d="M590 443q-5 -15 -18 -33t-27 -35q-16 -19 -35 -38h-22q-1 -14 -1 -29.5v-35.5v-126q0 -29 11 -46.5t39 -28.5q-15 -13 -33 -27.5t-38 -27.5t-40.5 -22t-40.5 -12v123q-26 -26 -50.5 -49t-51.5 -40t-58 -26.5t-71 -9.5q-27 0 -54.5 12.5t-49.5 33.5t-36 47.5t-14 54.5
q0 21 8 47t21.5 53.5t32 55.5t39.5 53h-101q4 20 15.5 42t26 41.5t28.5 34.5t24 22q11 -28 28 -39t47 -11h152q89 0 157 2.5t112 13.5zM128 337q-25 -16 -39.5 -45t-14.5 -56q0 -32 12 -64.5t33 -59t50 -43.5t63 -17q20 0 41 8.5t41.5 21t38.5 27.5t32 28v200h-257z" />
    <glyph glyph-name="G" unicode="G" horiz-adv-x="906" 
d="M906 443q-5 -14 -17 -31t-25 -32.5t-23.5 -27t-13.5 -14.5q0 -7 -0.5 -16t-0.5 -29v-55v-92q0 -29 11 -46t39 -28q-15 -14 -33 -28.5t-38 -27.5t-40.5 -22t-40.5 -12v123q-25 -26 -49 -48.5t-50 -39.5t-57 -27t-70 -10q-23 0 -44.5 9t-39.5 23t-33 32.5t-25 37.5
q-24 -23 -46 -42t-45.5 -32.5t-51 -20.5t-62.5 -7q-28 0 -55 12.5t-48.5 33.5t-34.5 47.5t-13 54.5q0 20 7.5 46t21 53.5t31 56t38.5 53.5h-98q4 20 15.5 42t26 41.5t28.5 34.5t24 22q11 -28 28 -39t47 -11h217h77t97.5 0.5t105 1.5t100.5 3t84 4.5t56 6.5zM724 337h-251
q-25 -16 -39 -45.5t-14 -55.5q0 -31 11.5 -63.5t32 -59.5t48.5 -44t62 -17q20 0 40.5 8.5t40.5 21t37.5 27.5t31.5 28v200zM125 337q-25 -16 -39 -45.5t-14 -55.5q0 -31 11.5 -63.5t32.5 -59.5t49.5 -44t61.5 -17q12 0 32.5 6.5t40 17t33.5 23.5t14 27q0 20 7.5 46t21 54.5
t31 57t38.5 53.5h-320z" />
    <glyph glyph-name="H" unicode="H" 
d="M531 166q0 -25 -14 -52.5t-34.5 -53.5t-44 -48.5t-42.5 -35.5q8 12 17 27.5t16.5 32.5t12.5 34t5 31q0 63 -12 114t-39.5 87t-73.5 55.5t-114 19.5q-37 0 -61.5 -17.5t-39 -45.5t-20.5 -61.5t-6 -66.5q0 -16 4.5 -34.5t11.5 -36.5t16 -34.5t18 -29.5l-84 -71
q-20 29 -33.5 62.5t-13.5 69.5q0 57 24.5 115t65.5 105t95 76.5t114 29.5q62 0 106 -21.5t72 -58.5t41 -86.5t13 -105.5z" />
    <glyph glyph-name="I" unicode="I" horiz-adv-x="995" 
d="M965 166q0 -25 -14 -52.5t-35 -53.5t-44.5 -48.5t-42.5 -35.5q8 12 17 27.5t16.5 32.5t12.5 34t5 31q0 63 -11.5 114t-39 87t-73.5 55.5t-114 19.5q-29 0 -52 -14t-39.5 -35.5t-25.5 -48.5t-9 -52v-254l-81 -23q0 24 0.5 48t0.5 49q0 67 -6 127t-29 105t-69 71.5
t-126 26.5q-39 0 -63 -20t-38 -50t-19 -65t-5 -65q0 -16 6 -34.5t14.5 -36.5t19 -34.5t19.5 -29.5l-93 -62q-21 29 -34 62.5t-13 69.5q0 57 24 115t65 105t95 76.5t114 29.5q71 0 124 -33.5t81 -99.5q20 27 45.5 51t55 42t62 29t67.5 11q61 0 105 -21.5t72.5 -58.5
t41.5 -86.5t13 -105.5z" />
    <glyph glyph-name="J" unicode="J" horiz-adv-x="715" 
d="M753 105q-6 -14 -19 -32.5t-27 -34.5q-16 -19 -34 -38h-484q-60 0 -117 -3.5t-93 -12.5q5 14 18 32.5t27 35.5q16 19 35 38h54q0 5 -0.5 8.5t-0.5 8.5q0 57 24.5 115t66 105t95.5 76.5t114 29.5q62 0 106 -21.5t72.5 -58.5t41.5 -86.5t13 -106.5q0 -17 -10.5 -33.5
t-21.5 -32.5q100 3 140 11zM560 92q0 61 -12.5 111t-40 85.5t-73.5 54.5t-114 19q-37 0 -61.5 -16t-38.5 -42t-20 -58t-6 -65q0 -21 7 -44.5t18 -46.5h99h123t119 2z" />
    <glyph glyph-name="K" unicode="K" horiz-adv-x="1147" 
d="M1185 105q-6 -14 -19 -32.5t-27 -34.5q-16 -19 -35 -38h-915q-60 0 -117 -3.5t-93 -12.5q5 14 18 32.5t27 35.5q16 19 35 38h54q0 5 -0.5 8.5t-0.5 8.5q0 57 24.5 114.5t65.5 104.5t95 76.5t113 29.5q72 0 124.5 -33t80.5 -99q20 27 45.5 51t55 42t62 28.5t67.5 10.5
q62 0 106 -21.5t72 -58t41 -86t13 -106.5q0 -18 -6 -34.5t-17 -31.5q48 2 81 4.5t50 6.5zM993 102q0 61 -12 110.5t-39.5 85t-73.5 55t-114 19.5q-29 0 -52 -14t-39 -36t-25 -49t-9 -52v-131h84h139.5t140.5 2v10zM548 90q-2 58 -10.5 109.5t-33 90t-68.5 60.5t-117 22
q-39 0 -63.5 -20.5t-38.5 -50.5t-19 -65t-5 -65q0 -20 6.5 -42t13.5 -39h335z" />
    <glyph glyph-name="L" unicode="L" horiz-adv-x="563" 
d="M533 306q0 -57 -24.5 -115t-66 -105t-95.5 -76.5t-114 -29.5q-62 0 -105.5 21.5t-72 58.5t-41.5 86.5t-13 105.5q0 25 14 52.5t35 53.5t44.5 48t42.5 36q-8 -12 -17 -27.5t-16.5 -32.5t-12.5 -34t-5 -32q0 -63 11.5 -114t39 -87t73.5 -55.5t114 -19.5q37 0 62 18
t39.5 45.5t20.5 61.5t6 67q0 16 -4.5 34t-11.5 36t-16 35t-18 30l83 71q21 -29 34.5 -62.5t13.5 -69.5z" />
    <glyph glyph-name="M" unicode="M" horiz-adv-x="995" 
d="M965 306q0 -57 -24 -115t-65 -105t-95 -76.5t-114 -29.5q-71 0 -124 33.5t-81 99.5q-20 -27 -45.5 -51t-55 -42t-62 -29t-67.5 -11q-62 0 -106 21.5t-72 58.5t-41 86.5t-13 105.5q0 25 14 52.5t35 53.5t44.5 48t42.5 36q-8 -12 -17.5 -27.5t-17 -32.5t-12.5 -34t-5 -32
q0 -63 11.5 -114t39.5 -87t74 -55.5t114 -19.5q28 0 51.5 14t39.5 36t25 48.5t9 52.5v157l81 23q0 -67 5.5 -127t28.5 -105.5t69 -72t126 -26.5q39 0 63.5 20.5t38.5 50.5t19 65t5 65q0 16 -6 34t-15 36t-19.5 35t-19.5 30l93 61q21 -29 34.5 -62t13.5 -69z" />
    <glyph glyph-name="N" unicode="N" horiz-adv-x="725" 
d="M538 230q0 35 -15 63t-29 44h-321q-2 -11 -2 -21v-21q0 -54 15.5 -99t45.5 -77.5t75 -50.5t105 -18q37 0 61 16t38.5 41.5t20.5 58t6 64.5zM763 443q-6 -15 -19 -33t-27 -35q-16 -19 -34 -38h-78q3 0 6 -4q2 -3 4.5 -10t2.5 -19q0 -57 -24 -114.5t-65 -104t-95 -76
t-113 -29.5q-62 0 -106 21.5t-72.5 58t-42 86t-13.5 106.5q0 23 9.5 44t25.5 41h-160q4 20 16 42t26 41.5t28.5 34.5t24.5 22q11 -27 27 -38t43 -11h355q105 0 178.5 4t102.5 11z" />
    <glyph glyph-name="O" unicode="O" horiz-adv-x="1159" 
d="M1196 443q-5 -15 -18 -33t-27 -35q-16 -19 -35 -38h-77q2 0 7.5 -4.5t5.5 -26.5q0 -57 -24 -115t-65 -105t-95 -76.5t-114 -29.5q-71 0 -124 33.5t-81 99.5q-20 -27 -45.5 -51t-55 -42t-62 -29t-67.5 -11q-62 0 -105.5 21.5t-72 58.5t-41.5 86.5t-13 105.5q0 20 9.5 41.5
t24.5 43.5h-159q4 20 16 42t26 41.5t28.5 34.5t24.5 22q11 -28 28 -39t46 -11h609q130 0 242.5 2.5t213.5 13.5zM971 241q0 23 -10 48t-24 48h-321q1 -61 9 -115t32 -94.5t69 -64t120 -23.5q39 0 63 20.5t38 50.5t19 65t5 65zM174 337q-6 -32 -6 -62q0 -51 17.5 -94
t49 -74.5t76 -49t99.5 -17.5q28 0 51.5 14t40 36t25.5 48.5t9 52.5v146h-362z" />
    <glyph glyph-name="P" unicode="P" horiz-adv-x="794" 
d="M764 306q0 -57 -32 -113.5t-88.5 -101.5t-135 -73t-171.5 -28q-30 0 -66 4.5t-73.5 13.5t-73 24t-63 36t-44.5 48.5t-17 61.5q0 56 20 105t51.5 85.5t70.5 57.5t78 21q30 0 44 -11.5t21 -22.5l-66 -64q-17 12 -30.5 21t-34.5 9q-42 0 -62 -32t-20 -91q0 -62 33.5 -100
t85 -59.5t114.5 -29t123 -7.5q85 0 135.5 14.5t77 38.5t34.5 55t8 63q0 27 -10.5 54t-29 48.5t-43.5 34.5t-53 13q-3 0 -9 -1t-12 -3q-7 -2 -15 -3l-2 3l89 67q6 2 17 2.5t16 0.5q25 0 49 -13t42.5 -33.5t30 -45.5t11.5 -49z" />
    <glyph glyph-name="Q" unicode="Q" horiz-adv-x="794" 
d="M433 663q-4 -57 -5.5 -117t-1.5 -110v-50.5t1 -39.5q0 -19 1 -35l-81 -42q1 17 2 38q1 18 2 42t1 53q0 42 -2.5 88t-10.5 89q7 10 17 22t22 24t25.5 22t29.5 16zM764 306q0 -57 -32 -113.5t-88.5 -101.5t-135 -73t-171.5 -28q-30 0 -66 4.5t-73.5 13.5t-73 24t-63 36
t-44.5 48.5t-17 61.5q0 56 20 105t51.5 85.5t70.5 57.5t78 21q30 0 44 -11.5t21 -22.5l-66 -64q-17 12 -30.5 21t-34.5 9q-42 0 -62 -32t-20 -91q0 -62 33.5 -100t85 -59.5t114.5 -29t123 -7.5q85 0 135.5 14.5t77 38.5t34.5 55t8 63q0 27 -10.5 54t-29 48.5t-43.5 34.5
t-53 13q-3 0 -9 -1t-12 -3q-7 -2 -15 -3l-2 3l89 67q6 2 17 2.5t16 0.5q25 0 49 -13t42.5 -33.5t30 -45.5t11.5 -49z" />
    <glyph glyph-name="R" unicode="R" horiz-adv-x="775" 
d="M745 319q0 -55 -32.5 -116.5t-101.5 -108.5q45 2 79.5 4.5t50.5 6.5q-5 -14 -18 -32.5t-27 -34.5q-16 -19 -35 -38h-513q-51 0 -91 -3.5t-57 -8.5q5 14 18 32.5t27 35.5q16 19 35 38l11 -1q-36 32 -52.5 70.5t-16.5 78.5q0 39 14.5 76t40.5 65.5t62.5 46t80.5 17.5
q30 0 44 -11.5t21 -22.5l-66 -64q-16 12 -30 21t-35 9q-49 0 -74.5 -24.5t-25.5 -59.5q0 -41 18 -72t47.5 -53.5t67.5 -37.5t77.5 -24t77.5 -13t68 -4q27 0 57.5 1t60.5 5.5t57.5 14t49 25.5t34 40t12.5 59q0 27 -11 53t-30 46.5t-43 33t-50 12.5q-2 0 -8 -1t-12 -3
q-7 -2 -16 -3h-2q-1 0 -1 2l90 68q6 2 17 2.5t17 0.5q55 0 84 -37t29 -91z" />
    <glyph glyph-name="S" unicode="S" horiz-adv-x="775" 
d="M433 663q-4 -57 -5 -117t-1 -110v-90q0 -19 1 -35l-81 -42q1 17 2 38q1 18 2 42t1 53q0 42 -2.5 88t-10.5 89q7 10 17 22t22 24t26 22t29 16zM745 319q0 -55 -32.5 -116.5t-101.5 -108.5q45 2 79.5 4.5t50.5 6.5q-5 -14 -18 -32.5t-27 -34.5q-16 -19 -35 -38h-513
q-51 0 -91 -3.5t-57 -8.5q5 14 18 32.5t27 35.5q16 19 35 38l11 -1q-36 32 -52.5 70.5t-16.5 78.5q0 39 14.5 76t40.5 65.5t62.5 46t80.5 17.5q30 0 44 -11.5t21 -22.5l-66 -64q-16 12 -30 21t-35 9q-49 0 -74.5 -24.5t-25.5 -59.5q0 -41 18 -72t47.5 -53.5t67.5 -37.5
t77.5 -24t77.5 -13t68 -4q27 0 57.5 1t60.5 5.5t57.5 14t49 25.5t34 40t12.5 59q0 27 -11 53t-30 46.5t-43 33t-50 12.5q-2 0 -8 -1t-12 -3q-7 -2 -16 -3h-2q-1 0 -1 2l90 68q6 2 17 2.5t17 0.5q55 0 84 -37t29 -91z" />
    <glyph glyph-name="T" unicode="T" horiz-adv-x="794" 
d="M764 259q0 -56 -20 -105t-51.5 -85.5t-70.5 -57.5t-78 -21q-30 0 -44 11.5t-21 22.5l66 64q17 -12 30.5 -21t34.5 -9q42 0 62 32t20 91q0 61 -33.5 99.5t-85 60t-114.5 29t-123 7.5q-85 0 -135.5 -14.5t-77 -38.5t-34.5 -54.5t-8 -63.5q0 -27 10.5 -54t29 -48.5
t43.5 -34.5t53 -13q2 0 8.5 0.5t12.5 2.5q7 2 15 4h1q2 0 2 -2q0 -1 -1 -1l-89 -67q-6 -2 -17 -2.5t-16 -0.5q-25 0 -49 13t-42.5 33.5t-30 45.5t-11.5 49q0 57 32 113.5t88.5 101.5t135 73t171.5 28q29 0 65.5 -4.5t74 -13.5t73 -24t63 -36t44.5 -48.5t17 -61.5z" />
    <glyph glyph-name="U" unicode="U" horiz-adv-x="794" 
d="M764 259q0 -56 -20 -105t-51.5 -85.5t-70.5 -57.5t-78 -21q-30 0 -44 11.5t-21 22.5l66 64q17 -12 30.5 -21t34.5 -9q42 0 62 32t20 91q0 61 -33.5 99.5t-85 60t-114.5 29t-123 7.5q-85 0 -135.5 -14.5t-77 -38.5t-34.5 -54.5t-8 -63.5q0 -27 10.5 -54t29 -48.5t43 -34.5
t53.5 -13q2 0 8.5 0.5t12.5 2.5q7 2 15 4h1q2 0 2 -2q0 -1 -1 -1l-89 -67q-6 -2 -17 -2.5t-16 -0.5q-25 0 -49 13t-42.5 33.5t-30 45.5t-11.5 49q0 57 32 113.5t88.5 101.5t135 73t171.5 28q29 0 65.5 -4.5t74 -13.5t73 -24t63 -36t44.5 -48.5t17 -61.5zM425 -142
q-8 -10 -17.5 -22t-21.5 -24t-25.5 -22t-29.5 -16q4 57 5.5 117t1.5 111q0 27 -0.5 49.5t-0.5 39.5q-1 19 -1 35l81 42q-2 -17 -3 -38q-1 -18 -1.5 -42.5t-0.5 -52.5q0 -42 2.5 -88t10.5 -89z" />
    <glyph glyph-name="V" unicode="V" horiz-adv-x="775" 
d="M745 449q-6 -15 -19 -33t-27 -35q-16 -19 -34 -38l-11 1q36 -32 52.5 -70.5t16.5 -78.5q0 -39 -14.5 -76t-40.5 -65.5t-62.5 -46t-81.5 -17.5q-30 0 -44 11.5t-20 22.5l66 64q16 -12 30 -21t35 -9q49 0 74.5 24.5t25.5 59.5q0 30 -19 65.5t-59 66.5t-101 51.5t-146 20.5
h-31q-27 0 -57.5 -1t-60.5 -5.5t-57.5 -14t-49 -25.5t-34 -40t-12.5 -59q0 -27 11 -53t29.5 -46.5t43 -33t50.5 -12.5q2 0 8 0.5t12 2.5q7 2 15 4h2q2 0 2 -2q-1 -1 -2 -1l-89 -67q-5 -2 -16 -2.5t-17 -0.5q-55 0 -84 37t-29 91q0 55 32.5 116.5t101.5 108.5
q-45 -2 -79.5 -4.5t-50.5 -6.5q5 14 18 32.5t27 34.5q16 18 35 38h512q51 0 91 3.5t58 8.5z" />
    <glyph glyph-name="W" unicode="W" horiz-adv-x="775" 
d="M745 449q-6 -15 -19 -33t-27 -35q-16 -19 -34 -38l-11 1q36 -32 52.5 -70.5t16.5 -78.5q0 -39 -14.5 -76t-40.5 -65.5t-62.5 -46t-81.5 -17.5q-30 0 -44 11.5t-20 22.5l66 64q16 -12 30 -21t35 -9q49 0 74.5 24.5t25.5 59.5q0 30 -19 65.5t-59 66.5t-101 51.5t-146 20.5
h-31q-27 0 -57.5 -1t-60.5 -5.5t-57.5 -14t-49 -25.5t-34 -40t-12.5 -59q0 -27 11 -53t29.5 -46.5t43 -33t50.5 -12.5q2 0 8 0.5t12 2.5q7 2 15 4h2q2 0 2 -2q-1 -1 -2 -1l-89 -67q-5 -2 -16 -2.5t-17 -0.5q-55 0 -84 37t-29 91q0 55 32.5 116.5t101.5 108.5
q-45 -2 -79.5 -4.5t-50.5 -6.5q5 14 18 32.5t27 34.5q16 18 35 38h512q51 0 91 3.5t58 8.5zM406 -142q-8 -10 -18 -22t-21.5 -24t-25.5 -22t-29 -16q4 57 5 117t1 111q0 27 -0.5 49.5t-0.5 39.5v35l81 42q-2 -17 -3 -38q-2 -18 -2.5 -42.5t-0.5 -52.5q0 -42 3 -88t11 -89z
" />
    <glyph glyph-name="X" unicode="X" 
d="M537 -338q-15 -13 -33 -27.5t-38 -27.5t-40.5 -22.5t-40.5 -12.5v689q0 25 -14 44.5t-38 33t-56.5 21t-68.5 7.5t-60 -15t-39 -39t-21.5 -54.5t-6.5 -62.5q0 -27 10.5 -54t29 -48.5t43.5 -34.5t53 -13q7 0 14 1t14 3l-89 -67q-12 -3 -23 -3q-25 0 -49 13.5t-42.5 34
t-30 45.5t-11.5 49q0 57 24.5 113.5t65.5 101t95 72.5t114 28q90 0 139 -40.5t49 -103.5v-546q0 -30 11 -52t39 -33z" />
    <glyph glyph-name="Y" unicode="Y" horiz-adv-x="906" 
d="M876 -338q-15 -13 -33 -27.5t-38 -27.5t-40.5 -22.5t-40.5 -12.5v689q0 25 -14 44.5t-38 33t-56.5 21t-68.5 7.5q-33 0 -53 -9.5t-30.5 -25.5t-14 -38t-3.5 -46q0 -23 0.5 -53t4.5 -58t12.5 -49t25.5 -27q-26 -20 -52 -37q-22 -14 -46 -27t-44 -15v245q0 37 -11 63.5
t-29.5 43.5t-44 25t-54.5 8q-36 0 -60 -15t-39 -39t-21.5 -54.5t-6.5 -62.5q0 -27 10.5 -54t29 -48.5t43.5 -34.5t53 -13q7 0 14 1t14 3l-89 -67q-12 -3 -23 -3q-25 0 -49 13.5t-42.5 34t-30 45.5t-11.5 49q0 57 24.5 113.5t65.5 101t95 72.5t114 28q59 0 100.5 -18
t64.5 -50q38 32 82 50t92 18q90 0 139 -40.5t49 -103.5v-546q0 -30 11 -52t39 -33z" />
    <glyph glyph-name="Z" unicode="Z" 
d="M668 -338q-15 -13 -33 -27.5t-38 -27.5t-40.5 -22.5t-40.5 -12.5v428h-365l-151 -10q4 20 15.5 40.5t26 38t28.5 31t24 20.5q1 -9 6 -15q4 -6 12.5 -10.5t23.5 -4.5q-2 6 -3 12q-1 5 -1.5 10t-0.5 10q0 57 24.5 113.5t65.5 101t95 72.5t114 28q90 0 139 -40t49 -104v-546
q0 -30 10.5 -52t39.5 -33zM516 261q0 25 -14 44.5t-38 33t-56.5 21t-69.5 7.5q-35 0 -59 -15t-39 -39t-21.5 -54.5t-6.5 -62.5q0 -29 11.5 -56.5t31.5 -49.5h261v171z" />
    <glyph glyph-name="bracketleft" unicode="[" horiz-adv-x="906" 
d="M1007 -338q-15 -13 -33 -27.5t-38 -27.5t-40.5 -22.5t-40.5 -12.5v428h-704q-51 0 -80.5 -1.5t-45.5 -3.5q-18 -3 -25 -5q4 20 15.5 40.5t26 38t28.5 31t24 20.5q1 -9 6 -15q4 -6 12.5 -10.5t23.5 -4.5q-2 6 -3 12q-1 5 -1.5 10t-0.5 10q0 57 24.5 113.5t65.5 101
t95 72.5t114 28q59 0 100.5 -18t63.5 -50q38 32 82.5 50t92.5 18q90 0 139 -40.5t49 -103.5v-546q0 -30 10.5 -52t39.5 -33zM855 261q0 25 -14 44.5t-38 33t-56.5 21t-69.5 7.5q-33 0 -52.5 -9.5t-30 -25.5t-14 -38t-3.5 -46v-43q0 -30 3 -60t15 -55h260v171zM478 227
q0 37 -11 63.5t-29.5 43.5t-44 25t-55.5 8q-35 0 -59 -15t-39 -39t-21.5 -54.5t-6.5 -62.5q0 -29 11.5 -56.5t31.5 -49.5h223v137z" />
    <glyph glyph-name="backslash" unicode="\" horiz-adv-x="563" 
d="M533 306q0 -57 -24.5 -115t-66 -105t-95.5 -76.5t-114 -29.5q-69 0 -115.5 25.5t-73.5 70.5q-23 -68 -55.5 -125.5t-70 -99.5t-79 -66t-81.5 -24q-27 0 -51.5 10t-42.5 27t-29.5 40.5t-13.5 49.5l73 57q13 -57 53 -83.5t97 -26.5q34 0 62.5 32t49.5 88t32.5 132t11.5 165
q0 24 11 47.5t28.5 44.5t38 39t39.5 30q-14 -20 -23 -41.5t-9 -44.5q0 -63 12 -114t39.5 -87t73.5 -55.5t115 -19.5q37 0 61.5 16t39 42t20.5 58t6 65q0 16 -4.5 34t-11.5 36t-16 35t-18 30l83 71q21 -29 34.5 -62.5t13.5 -69.5z" />
    <glyph glyph-name="bracketright" unicode="]" horiz-adv-x="995" 
d="M965 306q0 -57 -24 -115t-65 -105t-95 -76.5t-114 -29.5q-71 0 -124 33.5t-81 99.5q-20 -27 -45.5 -51t-55 -42t-62 -29t-67.5 -11q-69 0 -115 25.5t-74 69.5q-23 -68 -55 -125.5t-69.5 -99.5t-79 -65.5t-81.5 -23.5q-27 0 -51.5 10t-42.5 27t-29.5 40t-13.5 50l73 57
q13 -57 53 -83.5t97 -26.5q34 0 62.5 32t49.5 88t32.5 132t11.5 165q0 25 14 52.5t35 53.5t44.5 48t42.5 36q-21 -30 -36 -64t-15 -72v-4q0 -60 12.5 -108t40.5 -82.5t73.5 -53t111.5 -18.5q28 0 51.5 14t39.5 36t25 48.5t9 52.5v157l81 23q0 -67 5.5 -127t28.5 -105.5
t69 -72t126 -26.5q39 0 63.5 20.5t38.5 50.5t19 65t5 65q0 16 -6 34t-15 36t-19.5 35t-19.5 30l93 61q21 -29 34.5 -62t13.5 -69z" />
    <glyph glyph-name="asciicircum" unicode="^" horiz-adv-x="725" 
d="M763 443q-6 -15 -19 -33t-27 -35q-16 -19 -34 -38h-78q3 0 6 -4q2 -3 4.5 -10t2.5 -19q0 -57 -24.5 -114.5t-65.5 -104t-95 -76t-113 -29.5q-69 0 -115.5 25.5t-74.5 69.5q-23 -68 -55 -125.5t-69.5 -99.5t-79 -65.5t-81.5 -23.5q-28 0 -52 10t-42.5 27t-30 40t-13.5 50
l74 57q13 -57 53 -83.5t97 -26.5q34 0 62.5 32t49.5 88t32.5 132t11.5 165q0 23 9.5 44t24.5 41h-159q4 20 16 42t26 41.5t28.5 34.5t24.5 22q11 -28 28 -39t46 -11h183q66 0 136 0.5t132 2t110 5t71 8.5zM538 230q0 35 -15 63t-29 44h-322q-1 -11 -1.5 -21.5t-0.5 -21.5
q0 -54 15.5 -99t46 -77t75.5 -50t105 -18q37 0 61 16t38.5 41.5t20.5 58t6 64.5z" />
    <glyph glyph-name="underscore" unicode="_" horiz-adv-x="1159" 
d="M1196 443q-5 -15 -18 -33t-27 -35q-16 -19 -35 -38h-77q2 0 7.5 -4.5t5.5 -26.5q0 -57 -24 -115t-65 -105t-95 -76.5t-114 -29.5q-71 0 -124 33.5t-81 99.5q-20 -27 -45.5 -51t-55 -42t-62 -29t-67.5 -11q-68 0 -114.5 25.5t-73.5 69.5q-23 -68 -55.5 -125.5t-70 -99.5
t-79 -65.5t-81.5 -23.5q-27 0 -51.5 10t-42.5 27t-29.5 40t-13.5 50l74 57q13 -57 53 -83.5t97 -26.5q34 0 62.5 32t49 88t32 132t11.5 165q0 20 9.5 41.5t24.5 43.5h-159q4 20 15.5 42t26 41.5t28.5 34.5t24 22q11 -28 28 -39t47 -11h392h118.5h110t94 0.5t69.5 0.5
q106 2 179 5t102 10zM971 241q0 23 -10 48t-24 48h-321q1 -61 9 -115t32 -94.5t69 -64t120 -23.5q39 0 63 20.5t38 50.5t19 65t5 65zM174 337q-6 -32 -6 -62q0 -50 17 -93t48.5 -74.5t76.5 -49.5t100 -18q28 0 51.5 14t40 36t25.5 48.5t9 52.5v146h-362z" />
    <glyph glyph-name="grave" unicode="`" horiz-adv-x="600" 
d="M485 351q-26 0 -49.5 -33t-43 -84t-34 -111.5t-23.5 -114.5l-100 -24q-6 40 -16.5 84.5t-25.5 87.5t-34.5 82t-43.5 68.5t-52.5 47t-62.5 17.5q19 14 29 24.5t19 17t21.5 9.5t37.5 3q26 0 50.5 -20t46.5 -52t40 -71t32.5 -78t24 -72.5t13.5 -53.5q13 45 33.5 104.5
t51 113.5t73 91.5t100.5 37.5z" />
    <glyph glyph-name="a" unicode="a" horiz-adv-x="600" 
d="M485 351q-26 0 -49.5 -33t-43 -84t-34 -111.5t-23.5 -114.5l-100 -24q-6 40 -16.5 84.5t-25.5 87.5t-34.5 82t-43.5 68.5t-52.5 47t-62.5 17.5q19 14 29 24.5t19 17t21.5 9.5t37.5 3q28 0 54 -22.5t48.5 -57.5t41 -77.5t32.5 -82.5q1 -2 1.5 -8t0.5 -8v16q0 30 -0.5 75.5
t-2 95.5t-5 100t-10.5 88q7 10 17 22t22 24t25.5 22t29.5 16q-3 -49 -5.5 -113t-5 -127t-3.5 -118t-1 -85v-17q1 2 1.5 8.5t1.5 8.5q15 43 36 85.5t48 77t61.5 56t77.5 21.5z" />
    <glyph glyph-name="b" unicode="b" horiz-adv-x="600" 
d="M486 351q-23 0 -43.5 -22.5t-38 -59t-32.5 -83t-25 -94.5l72 2q51 2 91 4.5t57 6.5q-5 -14 -18 -32.5t-27 -34.5q-16 -19 -35 -38h-339q-51 0 -91 -3.5t-57 -8.5q5 14 18 32.5t27 35.5q16 19 35 38q16 -2 37 -3q18 -1 43 -1.5t56 -0.5h2q-13 52 -33 103t-47 90.5
t-61.5 64t-76.5 24.5q19 14 29 24.5t19 17t21.5 9.5t37.5 3q27 0 51.5 -18.5t46 -48t39.5 -66.5t32.5 -73.5t24 -68.5t13.5 -52q13 45 33.5 101.5t51 106.5t73 84.5t100.5 34.5z" />
    <glyph glyph-name="c" unicode="c" horiz-adv-x="600" 
d="M486 351q-23 0 -43.5 -22.5t-38 -59t-32.5 -83t-25 -94.5l72 2q51 2 91 4.5t57 6.5q-5 -14 -18 -32.5t-27 -34.5q-16 -19 -35 -38h-339q-51 0 -91 -3.5t-57 -8.5q5 14 18 32.5t27 35.5q16 19 35 38q16 -2 37 -3q18 -1 43 -1.5t56 -0.5h2q-13 54 -32.5 104.5t-46.5 90
t-62 63.5t-77 24q19 14 29 24.5t19 17t21.5 9.5t37.5 3q28 0 54.5 -19.5t49 -50.5t41 -70.5t32.5 -79.5q0 -2 0.5 -8t1.5 -8v41q0 31 -0.5 71.5t-3 82.5t-6 83.5t-9.5 76.5q7 10 17 22t22 24t26 22t29 16q-3 -49 -6 -109.5t-4.5 -120t-2.5 -111.5t-1 -82v-17q0 2 0.5 8.5
t1.5 8.5q16 43 36.5 82.5t48 70t61.5 49t77 18.5z" />
    <glyph glyph-name="d" unicode="d" horiz-adv-x="600" 
d="M572 38q-19 -15 -29 -25t-19 -16.5t-21.5 -9.5t-37.5 -3q-27 0 -51.5 20t-46 51.5t-39.5 71t-32.5 78t-24 72.5t-13.5 54q-9 -30 -21 -67.5t-28 -76t-36 -75t-45.5 -65t-57 -46t-70.5 -17.5l86 74q27 0 50.5 33t43 84t34 111t23.5 114l100 25q6 -40 16.5 -84.5
t25.5 -87.5t34.5 -82t43.5 -68.5t52.5 -47t62.5 -17.5z" />
    <glyph glyph-name="e" unicode="e" horiz-adv-x="600" 
d="M572 38q-19 -15 -29 -25t-19 -16.5t-21.5 -9.5t-37.5 -3q-28 0 -54 22.5t-48.5 57.5t-41 77.5t-32.5 82.5q-1 2 -1.5 7.5t-0.5 7.5v-15q0 -8 -0.5 -18t-0.5 -21q0 -33 0.5 -75t3 -85.5t6 -85t9.5 -74.5q-8 -10 -17.5 -22.5t-21.5 -24.5t-26 -22t-29 -16q3 49 5.5 113
t5 127.5t3.5 118.5t1 85v17q-15 -45 -35 -90.5t-47 -82.5t-62.5 -60.5t-81.5 -23.5l86 74q27 0 50.5 33t43 84t34 111t23.5 114l100 25q6 -40 16.5 -84.5t25.5 -87.5t34.5 -82t43.5 -68.5t52.5 -47t62.5 -17.5z" />
    <glyph glyph-name="f" unicode="f" horiz-adv-x="600" 
d="M590 443q-5 -15 -18 -33t-27 -35q-16 -19 -35 -38h-156q13 -54 33 -107.5t47 -96t61.5 -69t76.5 -26.5q-19 -15 -29 -25t-19 -16.5t-21.5 -9.5t-37.5 -3q-27 0 -51.5 20t-46 51.5t-39.5 71t-32.5 78t-24 72.5t-13.5 54q-9 -30 -21 -67.5t-28 -76t-36 -75t-45.5 -65
t-57 -46t-70.5 -17.5l86 74q23 0 43.5 25t38.5 64.5t32.5 89.5t24.5 100h-225q4 20 15.5 42t26 41.5t28.5 34.5t24 22q11 -28 28 -39t47 -11h152q89 0 157 2.5t112 13.5z" />
    <glyph glyph-name="g" unicode="g" horiz-adv-x="600" 
d="M590 443q-5 -15 -18 -33t-27 -35q-16 -19 -35 -38h-156q13 -54 33 -107.5t47 -96t61.5 -69t76.5 -26.5q-19 -15 -29 -25t-19 -16.5t-21.5 -9.5t-37.5 -3q-28 0 -54 19.5t-48.5 50.5t-41 70.5t-32.5 79.5q-1 2 -1.5 7.5t-0.5 7.5v-41q0 -32 0.5 -72t2 -82t5.5 -83.5
t10 -75.5q-8 -10 -17.5 -22.5t-21.5 -24.5t-26 -22t-29 -16q3 49 5.5 110t5 120.5t3.5 111.5t1 82v17q-15 -45 -35 -88t-47 -76t-62.5 -53t-81.5 -20l86 74q23 0 43.5 25t38.5 64.5t32.5 89.5t24.5 100h-225q4 20 15.5 42t26 41.5t28.5 34.5t24 22q11 -28 28 -39t47 -11h152
q89 0 157 2.5t112 13.5z" />
    <glyph glyph-name="h" unicode="h" 
d="M533 306q0 -54 -22 -109t-60 -101q27 2 47.5 4.5t31.5 4.5q-5 -15 -18 -33t-27 -34q-16 -18 -35 -38h-362q-51 0 -91 -3.5t-57 -8.5q5 14 18 32.5t27 35.5q16 19 35 38h14q-17 33 -25 73t-8 85q0 25 14 52.5t35 53.5t44.5 48t42.5 36q-8 -12 -17 -27.5t-16.5 -32.5
t-12.5 -34t-5 -32q0 -73 16 -129.5t55 -92.5h225h38q17 29 24.5 66t7.5 72q0 16 -4.5 34t-11.5 36t-16 35t-18 30l83 71q21 -29 34.5 -62.5t13.5 -69.5z" />
    <glyph glyph-name="i" unicode="i" 
d="M533 306q0 -54 -22 -109t-60 -101q27 2 47.5 4.5t31.5 4.5q-5 -15 -18 -33t-27 -34q-16 -18 -35 -38h-362q-51 0 -91 -3.5t-57 -8.5q5 14 18 32.5t27 35.5q16 19 35 38h14q-17 33 -25 73t-8 85q0 25 14 52.5t35 53.5t44.5 48t42.5 36q-8 -12 -17 -27.5t-16.5 -32.5
t-12.5 -34t-5 -32q0 -73 16 -129.5t55 -92.5h82q2 17 2.5 40.5t0.5 50.5q0 42 -2.5 87.5t-10.5 88.5q7 10 17 22.5t22 24.5t25.5 22t29.5 16q-5 -58 -6 -117.5t-1 -110.5v-49.5t1 -39.5q0 -19 1 -35h64h38q17 29 24.5 66t7.5 72q0 16 -4.5 34t-11.5 36t-16 35t-18 30l83 71
q21 -29 34.5 -62.5t13.5 -69.5z" />
    <glyph glyph-name="j" unicode="j" 
d="M590 443q-5 -15 -18 -33t-27 -35q-16 -19 -35 -38h-19q21 -35 30.5 -78.5t9.5 -92.5q0 -25 -14 -52.5t-34.5 -53.5t-44 -48.5t-42.5 -35.5q8 12 17 27.5t16.5 32.5t12.5 34t5 31q0 81 -19.5 141t-67.5 95h-238q-23 -29 -32 -70t-9 -81q0 -16 4.5 -34.5t11.5 -36.5
t16 -34.5t18 -29.5l-84 -71q-20 29 -33.5 62.5t-13.5 69.5q0 59 25.5 118t69.5 107h-95q4 20 15.5 42t26 41.5t28.5 34.5t24 22q11 -28 28 -39t47 -11h152q89 0 157 2.5t112 13.5z" />
    <glyph glyph-name="k" unicode="k" 
d="M590 443q-5 -15 -18 -33t-27 -35q-16 -19 -35 -38h-19q21 -35 30.5 -78.5t9.5 -92.5q0 -25 -14 -52.5t-34.5 -53.5t-44 -48.5t-42.5 -35.5q8 12 17 27.5t16.5 32.5t12.5 34t5 31q0 81 -19.5 141t-67.5 95h-59q-1 -18 -1.5 -42t-0.5 -52q0 -42 2.5 -88t10.5 -89
q-8 -10 -17.5 -22t-21.5 -24t-26 -22t-29 -16q4 57 5 116.5t1 110.5q0 27 -0.5 50t-0.5 40v35l7 3h-108q-23 -29 -32 -70t-9 -81q0 -16 4.5 -34.5t11.5 -36.5t16 -34.5t18 -29.5l-84 -71q-20 29 -33.5 62.5t-13.5 69.5q0 59 25.5 118t69.5 107h-95q4 20 15.5 42t26 41.5
t28.5 34.5t24 22q11 -28 28 -39t47 -11h152q89 0 157 2.5t112 13.5z" />
    <glyph glyph-name="m" unicode="m" 
d="M311 -142q-8 -10 -17.5 -22t-21.5 -24t-25.5 -22t-29.5 -16q4 57 5.5 117t1.5 111v34.5t-0.5 47t-0.5 54v56.5q-1 65 -1 139l7 4h-107q-23 -29 -32 -70t-9 -81q0 -16 4.5 -34.5t11.5 -36.5t16 -34.5t18 -29.5l-84 -71q-20 29 -33.5 62.5t-13.5 69.5q0 59 25.5 118
t69.5 107h-95q4 20 15.5 42t26 41.5t28.5 34.5t24 22q11 -28 28 -39t47 -11h152q89 0 157 2.5t112 13.5q-5 -15 -18 -33t-27 -35q-16 -19 -35 -38h-19q21 -35 30.5 -78.5t9.5 -92.5q0 -25 -14 -52.5t-34.5 -53.5t-44 -48.5t-42.5 -35.5q8 12 17 27.5t16.5 32.5t12.5 34t5 31
q0 81 -19.5 141t-67.5 95h-58q-1 -29 -1.5 -71.5t-1 -86.5t-1 -83.5t-0.5 -60.5q0 -42 2.5 -88t10.5 -89z" />
    <glyph glyph-name="n" unicode="n" 
d="M584 443q-6 -15 -19 -33t-27 -35q-16 -19 -35 -38h-63q-3 -7 -7 -23.5t-4 -44.5q0 -60 12.5 -99t30.5 -62t38.5 -32.5t35.5 -9.5l-52 -76q-3 -1 -9 -1q-29 0 -51 17.5t-38 43.5t-24 56t-8 55q0 35 6.5 65.5t15 54t16 38.5t9.5 18h-263q3 -10 6 -33t3 -61
q0 -40 -9.5 -74.5t-22 -61.5t-26 -45.5t-20.5 -26.5q-4 -5 -11 -12t-17 -13.5t-23 -11.5t-29 -5h-7.5t-8.5 1l65 54q7 0 14.5 2t13.5 12.5t10 32.5t4 61q0 81 -9.5 124t-16.5 57h-71q4 20 16 42t26 41.5t28.5 34.5t24.5 22q11 -28 28 -39t46 -11h151q89 0 158 2.5t113 13.5z
" />
    <glyph glyph-name="o" unicode="o" 
d="M584 443q-6 -15 -19 -33t-27 -35q-16 -19 -35 -38h-63q-3 -7 -7 -23.5t-4 -44.5q0 -60 12.5 -99t30.5 -62t38.5 -32.5t35.5 -9.5l-52 -76q-3 -1 -9 -1q-29 0 -51 17.5t-38 43.5t-24 56t-8 55q0 35 6.5 65.5t15 54t16 38.5t9.5 18h-106q-3 -36 -3 -94q0 -42 2.5 -88
t10.5 -89q-8 -10 -17.5 -22t-21.5 -24t-25.5 -22t-29.5 -16q5 57 6 116.5t1 110.5q0 27 -0.5 50t-0.5 40q-1 19 -1 35l7 3h-85q3 -10 6 -33t3 -61q0 -40 -9.5 -74.5t-22 -61.5t-26 -45.5t-20.5 -26.5q-4 -5 -11 -12t-17 -13.5t-23 -11.5t-29 -5h-7.5t-8.5 1l65 54
q7 0 14.5 2t13.5 12.5t10 32.5t4 61q0 81 -9.5 124t-16.5 57h-71q4 20 16 42t26 41.5t28.5 34.5t24.5 22q11 -28 28 -39t46 -11h151q89 0 158 2.5t113 13.5z" />
    <glyph glyph-name="p" unicode="p" horiz-adv-x="995" 
d="M965 306q0 -57 -24 -115t-65 -105t-95 -76.5t-114 -29.5q-71 0 -124 33.5t-81 99.5q-20 -27 -45.5 -51t-55 -42t-62 -29t-67.5 -11q-62 0 -106 21.5t-72 58.5t-41 86.5t-13 105.5q0 25 14 52.5t35 53.5t44.5 48t42.5 36q-8 -12 -17.5 -27.5t-17 -32.5t-12.5 -34t-5 -32
q0 -63 11.5 -114t39.5 -87t74 -55.5t114 -19.5q29 0 52 14t39 36t24.5 48.5t9.5 52.5q0 25 1.5 61t2.5 78.5t2 89.5t1 94q0 75 -2.5 141t-10.5 106q7 10 17 22t22 24t26 22t29 16q-2 -29 -3 -67t-2 -81t-1 -89v-90v-166q0 -38 1 -71v-4q0 -51 11 -94t37 -75t69.5 -50
t109.5 -18q39 0 63.5 20.5t38.5 50.5t19 65t5 65q0 16 -6 34t-15 36t-19.5 35t-19.5 30l93 61q21 -29 34.5 -62t13.5 -69z" />
    <glyph glyph-name="q" unicode="q" horiz-adv-x="995" 
d="M965 306q0 -57 -24 -115t-65 -105t-95 -76.5t-114 -29.5q-82 0 -137 42q-2 2 -2.5 7.5t-2.5 6.5v-17q0 -31 -0.5 -63.5t-0.5 -64.5q0 -70 2.5 -132t9.5 -102q-8 -10 -17.5 -22.5t-21.5 -24.5t-25.5 -22t-29.5 -16q2 29 3.5 66t2 78t1 84.5t0.5 85.5q0 64 -1 117.5
t-1 80.5v21q-2 -2 -3 -8.5t-3 -8.5q-40 -45 -93.5 -76.5t-115.5 -31.5t-106 21.5t-72 58.5t-41 86.5t-13 105.5q0 25 14 52.5t35 53.5t44.5 48t42.5 36q-8 -12 -17.5 -27.5t-17 -32.5t-12.5 -34t-5 -32q0 -63 11.5 -114t39.5 -87t74 -55.5t114 -19.5q28 0 51.5 14t39.5 36
t25 48.5t9 52.5v157l81 23q0 -67 5.5 -127t28.5 -105.5t69 -72t126 -26.5q39 0 63.5 20.5t38.5 50.5t19 65t5 65q0 16 -6 34t-15 36t-19.5 35t-19.5 30l93 61q21 -29 34.5 -62t13.5 -69z" />
    <glyph glyph-name="r" unicode="r" horiz-adv-x="1159" 
d="M1196 443q-5 -15 -18 -33t-27 -35q-16 -19 -35 -38h-77q2 0 7.5 -4.5t5.5 -26.5q0 -57 -24 -115t-65 -105t-95 -76.5t-114 -29.5q-71 0 -124 33.5t-81 99.5q-20 -27 -45.5 -51t-55 -42t-62 -29t-67.5 -11q-62 0 -105.5 21.5t-72 58.5t-41.5 86.5t-13 105.5q0 20 9.5 41.5
t24.5 43.5h-159q4 20 16 42t26 41.5t28.5 34.5t24.5 22q11 -28 28 -39t46 -11h392h18q1 22 1 43.5v43.5q0 75 -2.5 141t-9.5 106q7 10 17 22t21.5 24t25.5 22t29 16q-2 -36 -3.5 -88t-2 -109t-0.5 -115v-106h174.5t123.5 1q106 2 179 8.5t102 6.5zM971 241q0 23 -10 48
t-24 48h-321q1 -61 9 -115t32 -94.5t69 -64t120 -23.5q39 0 63 20.5t38 50.5t19 65t5 65zM174 337q-6 -32 -6 -62q0 -51 17.5 -94t49 -74.5t76 -49t99.5 -17.5q28 0 51.5 14t40 36t25.5 48.5t9 52.5v146h-362z" />
    <glyph glyph-name="s" unicode="s" horiz-adv-x="1159" 
d="M1196 443q-5 -15 -18 -33t-27 -35q-16 -19 -35 -38h-77q2 0 7.5 -4.5t5.5 -26.5q0 -57 -24 -115t-65 -105t-95 -76.5t-114 -29.5q-80 0 -137 42q-1 2 -2 7.5t-2 6.5l-1 -17q0 -31 -0.5 -63.5t-0.5 -64.5q0 -70 2.5 -132t9.5 -102q-8 -10 -17.5 -22.5t-21 -24.5t-25.5 -22
t-29 -16q2 29 3 66t2 78t1 84.5v85.5q0 64 -0.5 117.5t-0.5 80.5v21q-2 -2 -3 -8.5t-3 -8.5q-41 -45 -94.5 -76.5t-115.5 -31.5t-105.5 21.5t-72 58.5t-41.5 86.5t-13 105.5q0 20 9.5 41.5t24.5 43.5h-159q4 20 16 42t26 41.5t28.5 34.5t24.5 22q11 -28 28 -39t46 -11h392
h118.5h110.5t94 0.5t69 0.5q106 2 179 5t102 10zM971 241q0 23 -10 48t-24 48h-321q1 -61 9 -115t32 -94.5t69 -64t120 -23.5q39 0 63 20.5t38 50.5t19 65t5 65zM174 337q-6 -32 -6 -62q0 -51 17.5 -94t49 -74.5t76 -49t99.5 -17.5q28 0 51.5 14t40 36t25.5 48.5t9 52.5v146
h-362z" />
    <glyph glyph-name="t" unicode="t" horiz-adv-x="995" 
d="M965 166q0 -25 -14 -52.5t-35 -53.5t-44.5 -48.5t-42.5 -35.5q8 12 17 27.5t16.5 32.5t12.5 34t5 31q0 63 -11.5 114t-39 87t-73.5 55.5t-114 19.5q-29 0 -52 -14t-39.5 -35.5t-25.5 -48.5t-9 -52v-254l-81 -23q0 24 0.5 48t0.5 49q0 67 -6 127t-29 105t-69 71.5
t-126 26.5q-39 0 -63 -20t-38 -50t-19 -65t-5 -65q0 -16 6 -34.5t14.5 -36.5t19 -34.5t19.5 -29.5l-93 -62q-21 29 -34 62.5t-13 69.5q0 57 24 115t65 105t95 76.5t114 29.5q80 0 137 -42q1 -2 2 -7.5t2 -6.5l1 17q0 31 0.5 63.5t0.5 64.5q0 69 -2.5 131.5t-9.5 102.5
q7 10 17 22t21.5 24t25.5 22.5t29 16.5q-2 -29 -3 -66t-2 -78.5t-1 -84.5v-85q0 -64 0.5 -117.5t0.5 -80.5v-21q2 2 3 8.5t3 8.5q41 45 94.5 76.5t115.5 31.5q61 0 105 -21.5t72.5 -58.5t41.5 -86.5t13 -105.5z" />
    <glyph glyph-name="u" unicode="u" horiz-adv-x="995" 
d="M965 166q0 -25 -14 -52.5t-35 -53.5t-44.5 -48.5t-42.5 -35.5q8 12 17 27.5t16.5 32.5t12.5 34t5 31q0 63 -11.5 114t-39 87t-73.5 55.5t-114 19.5q-29 0 -52 -14t-39.5 -35.5t-25.5 -48.5t-9 -52q-1 -25 -2 -61t-2 -79t-1.5 -90t-0.5 -93q0 -75 2.5 -141t9.5 -106
q-8 -10 -17.5 -22t-21 -24t-25.5 -22t-29 -16q2 28 3 66.5t2 81.5t1 89v90q0 48 -0.5 91t-0.5 75v70v5q0 51 -11 94t-37.5 74.5t-70 49.5t-109.5 18q-39 0 -63 -20t-38 -50t-19 -65t-5 -65q0 -16 6 -34.5t14.5 -36.5t19 -34.5t19.5 -29.5l-93 -62q-21 29 -34 62.5t-13 69.5
q0 57 24 115t65 105t95 76.5t114 29.5q71 0 124 -33.5t81 -99.5q20 27 45.5 51t55 42t62 29t67.5 11q61 0 105 -21.5t72.5 -58.5t41.5 -86.5t13 -105.5z" />
    <glyph glyph-name="v" unicode="v" horiz-adv-x="1159" 
d="M1173 105q-5 -14 -18 -32.5t-27 -34.5q-16 -19 -35 -38h-1142q4 20 15.5 42t26 41.5t28.5 34.5t24 22q10 -26 20.5 -37.5t36.5 -12.5q-1 5 -1 8.5v8.5q0 57 24 114.5t65 104.5t95 76.5t113 29.5q81 0 138 -42q1 -1 2 -6.5t2 -7.5v17q0 32 1.5 64t0.5 64q0 70 -2.5 132.5
t-9.5 102.5q7 10 17 22t21.5 24t25.5 22t29 16q-2 -29 -3 -66t-2 -78t-1 -84.5v-84.5q0 -65 0.5 -118t0.5 -80v-21q2 2 3 8.5t3 8.5q41 45 94.5 76t115.5 31q61 0 105 -21.5t72.5 -58t41.5 -86t13 -106.5q0 -18 -6 -34.5t-17 -31.5q48 2 80.5 4.5t49.5 6.5zM981 102
q0 61 -11.5 110.5t-39 85t-73 55t-114.5 19.5q-29 0 -52 -14t-39.5 -36t-25.5 -49t-9 -52v-131h84h140t140 2v10zM536 90q-2 58 -10.5 109.5t-32.5 90t-68.5 60.5t-117.5 22q-39 0 -63 -20.5t-38 -50.5t-19 -65t-5 -65q0 -20 6.5 -42t12.5 -39h335z" />
    <glyph glyph-name="w" unicode="w" horiz-adv-x="1159" 
d="M1173 105q-5 -14 -18 -32.5t-27 -34.5q-16 -19 -35 -38h-486v-25q0 -36 0.5 -77.5t1.5 -83.5t2.5 -82.5t3.5 -74.5q-8 -10 -17.5 -22.5t-21.5 -24.5t-25.5 -22t-29.5 -16q2 33 3 74.5t2 86.5t1 91.5v88.5v87h-596q4 20 15.5 42t26 41.5t28.5 34.5t24 22q11 -26 26 -37
t41 -13q-1 5 -1 8.5v8.5q0 57 24 114.5t65 104.5t95 76.5t113 29.5q72 0 125 -33t81 -99q20 27 45.5 51t55 42t62 28.5t67.5 10.5q61 0 105 -21.5t72.5 -58t41.5 -86t13 -106.5q0 -18 -6 -34.5t-17 -31.5q48 2 85.5 4.5t54.5 6.5zM971 102q0 61 -11.5 110.5t-39 85t-73 55
t-114.5 19.5q-29 0 -52 -14t-39.5 -36t-25.5 -49t-9 -52v-131h84h140t140 2v10zM526 90q-2 58 -10.5 109.5t-32.5 90t-68.5 60.5t-117.5 22q-39 0 -63 -20.5t-38 -50.5t-19 -65t-5 -65q0 -20 6.5 -42t12.5 -39h335z" />
    <glyph glyph-name="braceleft" unicode="{" horiz-adv-x="906" 
d="M876 296q0 -57 -24.5 -113.5t-65.5 -101.5t-95 -73t-114 -28q-53 0 -85 16.5t-50.5 44t-27.5 62t-16 71t-16.5 71t-29.5 62t-54 44t-90 16.5q-36 0 -60 -15t-39 -39t-21.5 -54.5t-6.5 -62.5q0 -27 10.5 -54t29 -48.5t43.5 -34.5t53 -13q7 0 14 1t14 3l-89 -67
q-12 -3 -23 -3q-25 0 -49 13.5t-42.5 34t-30 45.5t-11.5 49q0 57 24.5 113.5t65.5 101t95 72.5t114 28q53 0 85 -16.5t50.5 -43.5t27.5 -62t16 -71t16.5 -71t29.5 -62t54 -43.5t90 -16.5q36 0 60 14.5t39 38.5t21.5 54.5t6.5 62.5q0 27 -10.5 54t-29 48.5t-43.5 34.5t-53 13
q-16 0 -28 -4l89 67q12 3 23 3q25 0 49 -13t42.5 -33.5t30 -45.5t11.5 -49z" />
    <glyph glyph-name="bar" unicode="|" horiz-adv-x="906" 
d="M876 289q0 -24 -10.5 -55.5t-29 -64.5t-42.5 -65.5t-51 -57.5t-55 -40.5t-54 -15.5q-22 0 -47 15t-51.5 40t-55 57t-58.5 66q-24 -38 -50.5 -70.5t-58.5 -56.5t-71 -37.5t-88 -13.5q-27 0 -54.5 12.5t-49.5 33.5t-36 47.5t-14 54.5q0 24 10.5 55.5t29 65t42.5 65.5t51 57
t55 40.5t54 15.5q22 0 47 -15t51.5 -40t55 -57t58.5 -66q24 37 50.5 69.5t58.5 56.5t71 38t88 14q27 0 54.5 -12.5t49.5 -33.5t36 -47.5t14 -54.5zM802 182q0 31 -12 63.5t-33 59.5t-50 44t-63 17q-27 0 -51.5 -10.5t-46 -28t-40.5 -40t-36 -46.5q29 -33 59 -64t60 -55.5
t60 -39t59 -14.5q21 0 38.5 11t29.5 27.5t19 37t7 38.5zM406 186q-29 33 -59 64.5t-60 55.5t-60 38.5t-59 14.5q-21 0 -38.5 -11t-29.5 -27.5t-19 -36.5t-7 -38q0 -32 12 -64.5t33 -59t50 -43.5t63 -17q27 0 51.5 10.5t46 27.5t40.5 39.5t36 46.5z" />
    <glyph glyph-name="braceright" unicode="}" horiz-adv-x="906" 
d="M876 289q0 -24 -10.5 -55.5t-29 -64.5t-42.5 -65.5t-51 -57.5t-55 -40.5t-54 -15.5q-8 0 -18 7t-19 15q-11 10 -22 22l57 65q17 -13 36 -22t40 -9t38.5 11t29.5 27.5t19 37t7 38.5q0 31 -12 63.5t-33 59.5t-50 44t-63 17q-47 0 -85.5 -29.5t-70 -70t-57 -83t-46.5 -68.5
q-23 -29 -47 -52t-52 -39.5t-60 -25t-72 -8.5q-27 0 -54.5 12.5t-49.5 33.5t-36 47.5t-14 54.5q0 24 10.5 55.5t29 65t42.5 65.5t51 57t55 40.5t54 15.5q8 0 18 -7t19 -15q11 -10 22 -22l-57 -64q-17 12 -36 21t-40 9t-38.5 -11t-29.5 -27.5t-19 -36.5t-7 -38
q0 -32 12 -64.5t33 -59t50 -43.5t63 -17q47 0 85.5 29t70 69.5t57 83t46.5 68.5q23 29 47 52t52 39.5t60 25t72 8.5q27 0 54.5 -12.5t49.5 -33.5t36 -47.5t14 -54.5z" />
    <glyph glyph-name="asciitilde" unicode="~" horiz-adv-x="906" 
d="M876 289q0 -24 -10.5 -55.5t-29 -64.5t-42.5 -65.5t-51 -57.5t-55 -40.5t-54 -15.5q-16 0 -33.5 5t-34 12.5t-29.5 17.5t-19 21q0 1 -2 1q-4 0 -4 -5v-1v-6v-17q0 -38 3 -80t10 -80q-8 -10 -17.5 -22t-21.5 -24t-25.5 -22t-29.5 -16q4 57 5.5 117t1.5 111q0 27 -0.5 49.5
t-0.5 39.5q-1 19 -1 35l81 42q18 -28 45 -50q23 -19 59 -34.5t87 -15.5q21 0 38.5 11t29.5 27.5t19 37t7 38.5q0 31 -15 63.5t-40 59.5t-57 44t-66 17q-32 0 -60 -13.5t-53 -36t-47.5 -50t-41.5 -55.5t-36 -53.5t-31 -42.5q-23 -29 -44 -52t-45 -39.5t-53 -25t-69 -8.5
q-27 0 -53 12.5t-46.5 33.5t-32.5 47.5t-12 54.5q0 24 10.5 55.5t29 65t42.5 65.5t51 57t55 40.5t54 15.5q8 0 18 -7t19 -15q11 -10 22 -22l-57 -64q-17 12 -36 21t-40 9t-38.5 -11t-29.5 -27.5t-19 -36.5t-7 -38q0 -32 9 -64.5t26.5 -59t43 -43.5t59.5 -17q47 0 84 29
t66.5 69.5t53.5 83t45 68.5q23 29 47 52t52 39.5t60 25t72 8.5q27 0 59.5 -12.5t60 -33.5t46 -47.5t18.5 -54.5z" />
    <glyph glyph-name="space" unicode=" " horiz-adv-x="252" 
 />
    <glyph glyph-name="quotesinglbase" unicode="&#x201a;" 
d="M590 443q-5 -15 -18 -33t-27 -35q-16 -19 -35 -38h-290q-26 -29 -43.5 -56.5t-17.5 -68.5q0 -34 17 -63t44 -50t59.5 -33t63.5 -12q37 0 65.5 21t28.5 63q0 21 -9.5 43.5t-21.5 38.5l75 37q10 -11 18 -22q7 -9 12.5 -19.5t5.5 -17.5q0 -39 -30.5 -78t-74 -70t-92 -50.5
t-84.5 -19.5q-28 0 -54.5 14t-47.5 36t-33.5 49.5t-12.5 54.5q0 40 6 67t18 48.5t31 41.5t45 46h-188q4 20 15.5 42t26 41.5t28.5 34.5t24 22q11 -28 28 -39t47 -11h152q89 0 157 2.5t112 13.5z" />
    <glyph glyph-name="florin" unicode="&#x192;" horiz-adv-x="725" 
d="M744 443q-5 -15 -18 -33t-27 -35q-16 -19 -35 -38h-266q0 -88 7 -143.5t24 -86.5t46.5 -42t74.5 -11q37 0 65.5 21t28.5 63q0 21 -9 43.5t-22 38.5l76 37q9 -11 17 -22q7 -9 12.5 -19.5t5.5 -17.5q0 -26 -14.5 -52.5t-37.5 -50.5t-52 -45t-58 -36.5t-55 -24.5t-44 -9
q-14 0 -28 2.5t-28 10.5t-27 23.5t-24 41.5q-46 -35 -98 -56.5t-91 -21.5q-28 0 -54.5 14t-47.5 36t-33.5 49.5t-12.5 54.5q0 40 6 67t18 48.5t31 41.5t45 46h-138q4 20 15.5 42t26 41.5t28.5 34.5t24 22q11 -28 28 -39t47 -11h152h69.5t84.5 1t89.5 2t84.5 2.5t69.5 4
t44.5 6.5zM320 218q0 23 -1 44.5t-2 38.5q-1 19 -2 36h-164q-26 -29 -43.5 -56.5t-17.5 -68.5q0 -34 17 -63t44 -50t59.5 -33t63.5 -12q14 0 23 15t14 38.5t7 52.5t2 58z" />
    <glyph glyph-name="quotedblbase" unicode="&#x201e;" horiz-adv-x="995" 
d="M985 443q-6 -15 -19 -33t-27 -35q-16 -19 -35 -38h-265q0 -88 7 -143.5t24 -86.5t46.5 -42t74.5 -11q37 0 65 21t28 63q0 21 -9 43.5t-22 38.5l76 37q10 -11 18 -22q7 -9 12.5 -19.5t5.5 -17.5q0 -26 -14.5 -52.5t-37.5 -50.5t-52 -45t-58 -36.5t-55 -24.5t-44 -9
q-14 0 -28.5 2.5t-28.5 10.5t-27 23.5t-24 41.5q-23 -18 -48 -32t-49.5 -24.5t-48 -16t-42.5 -5.5q-29 0 -57 15t-49 38q-32 -25 -66.5 -39t-84.5 -14q-28 0 -55 12.5t-48.5 33.5t-34.5 47.5t-13 54.5q0 20 7.5 46t21 53.5t31 56t38.5 53.5h-98q4 20 15.5 42t26 41.5
t28.5 34.5t24 22q11 -28 28 -39t47 -11h374h69t84.5 1t89.5 2t84.5 2.5t69.5 4t45 6.5zM561 157q0 38 -3 84t-3 96h-163q-27 -29 -44 -56.5t-17 -68.5q0 -34 17 -63t44 -50t59.5 -33t63.5 -12q28 0 37 28t9 75zM125 337q-25 -16 -39 -45.5t-14 -55.5q0 -31 11.5 -63.5
t32.5 -59.5t49.5 -44t61.5 -17q9 0 23 3.5t29 9.5q-9 17 -14.5 34.5t-5.5 34.5q0 40 6 67t18 48.5t31 41.5t46 46h-235z" />
    <glyph glyph-name="ellipsis" unicode="&#x2026;" horiz-adv-x="790" 
d="M763 443q-5 -15 -18 -33t-27 -35q-16 -19 -35 -38h-266q0 -62 7 -120t24 -103.5t46.5 -73t74.5 -27.5q18 0 38.5 7t37 19t27.5 29.5t11 38.5t-9.5 43.5t-21.5 38.5l66 37q5 -3 13 -10t15 -15.5t12 -17.5t5 -16q0 -26 -16 -53t-41 -52.5t-56.5 -47.5t-63 -39t-59 -26.5
t-45.5 -9.5q-25 0 -47 15.5t-39.5 40t-30.5 55t-19 61.5q-9 -21 -25.5 -50.5t-41 -56.5t-57.5 -46t-75 -19q-25 0 -51 9.5t-47.5 27.5t-35 42.5t-13.5 54.5q0 21 8 44t26 49l65 37q-22 -41 -22 -78q0 -49 36.5 -80.5t99.5 -31.5q35 0 58 28.5t37 74.5t20 104t6 117h-334
q4 20 15.5 42t26 41.5t28.5 34.5t24 22q11 -28 28 -39t47 -11h178q47 0 110.5 0.5t124.5 2.5t111 5t70 8z" />
    <glyph glyph-name="dagger" unicode="&#x2020;" horiz-adv-x="725" 
d="M760 444q-5 -14 -18 -32.5t-27 -34.5q-16 -19 -35 -38h-314q-58 -63 -103 -133q-19 -30 -37.5 -65t-32.5 -73t-23 -78.5t-9 -81.5q0 -81 27 -133t65.5 -82.5t81 -42.5t74.5 -12q18 0 38.5 6.5t37.5 18.5t28.5 29t11.5 38t-9.5 45t-21.5 40l75 36q10 -11 18 -22
q7 -9 12.5 -19t5.5 -17q0 -26 -16 -53t-42 -52.5t-59 -48t-67 -39t-66 -26t-56 -9.5q-19 0 -56 11t-73.5 40.5t-64 81.5t-27.5 134q0 46 11.5 92.5t30 90.5t42.5 85.5t49 77.5q59 84 134 161h-345q4 20 15.5 42t26 41.5t28.5 34.5t24 22q11 -28 28 -39t47 -11l310 1
q106 0 179 3.5t102 10.5z" />
    <glyph glyph-name="daggerdbl" unicode="&#x2021;" horiz-adv-x="725" 
d="M760 444q-5 -14 -18 -32.5t-27 -34.5q-16 -19 -35 -38h-102q-1 -14 -1 -31.5v-40.5v-121q0 -29 11 -46.5t39 -28.5q-15 -13 -33 -27.5t-38 -27.5t-40.5 -22t-40.5 -12v357h-109q-58 -63 -103 -133q-19 -30 -37.5 -65t-32.5 -73t-23 -78.5t-9 -81.5q0 -81 27 -133
t65.5 -82.5t81 -42.5t74.5 -12q18 0 38.5 6.5t37.5 18.5t28.5 29t11.5 38t-9.5 45t-21.5 40l75 36q10 -11 18 -22q7 -9 12.5 -19t5.5 -17q0 -26 -16 -53t-42 -52.5t-59 -48t-67 -39t-66 -26t-56 -9.5q-19 0 -56 11t-73.5 40.5t-64 81.5t-27.5 134q0 46 11.5 92.5t30 90.5
t42.5 85.5t49 77.5q59 84 134 161h-345q4 20 15.5 42t26 41.5t28.5 34.5t24 22q11 -28 28 -39t47 -11l310 1q106 0 179 3.5t102 10.5z" />
    <glyph glyph-name="circumflex" unicode="&#x2c6;" horiz-adv-x="725" 
d="M760 444q-5 -14 -18 -32.5t-27 -34.5q-16 -19 -35 -38h-211q-58 -63 -103 -133q-19 -30 -37.5 -65t-32.5 -73t-23 -78.5t-9 -81.5q0 -81 27 -133t65.5 -82.5t81.5 -42.5t75 -12q18 0 38 6.5t37.5 18.5t28.5 29t11 38t-9 45t-22 40l76 36q9 -11 17 -22q7 -9 12.5 -19
t5.5 -17q0 -26 -16 -53t-42 -52.5t-59 -48t-67 -39t-65.5 -26t-55.5 -9.5q-13 0 -34.5 4.5t-46 16t-50 31t-45.5 49.5t-33 71t-13 95q0 38 8 77t22 77q-26 -6 -57 -6q-27 0 -54.5 12.5t-49.5 33.5t-36 47.5t-14 54.5q0 21 8 47t21.5 53.5t32 55.5t39.5 53l1 2h-102
q4 20 15.5 42t26 41.5t28.5 34.5t24 22q11 -28 28 -39t47 -11l310 1q106 0 179 3.5t102 10.5zM127 339l1 -2q-25 -16 -39.5 -45t-14.5 -56q0 -34 12.5 -67t35 -59t53 -42t65.5 -16q29 60 65.5 112t68.5 91q37 46 75 84h-322z" />
    <glyph glyph-name="perthousand" unicode="&#x2030;" horiz-adv-x="725" 
d="M837 -207q0 -26 -16 -53t-42 -52.5t-59 -48t-67 -39t-66 -26t-56 -9.5q-19 0 -56 11t-74 40.5t-64.5 81.5t-27.5 134q0 51 17 97.5t43 93.5q-35 -20 -70.5 -31.5t-62.5 -11.5q-28 0 -54.5 14t-47.5 36t-33.5 49.5t-12.5 54.5q0 40 6 67t18 48.5t31 41.5t45 46h-188
q4 20 15.5 42t26 41.5t28.5 34.5t24 22q11 -28 28 -39t47 -11h152q89 0 157 2.5t112 13.5q-5 -15 -18 -33t-27 -35q-16 -19 -35 -38h-290q-26 -29 -43.5 -56.5t-17.5 -68.5q0 -34 17 -63t44 -50t59.5 -33t63.5 -12q12 0 26.5 2.5t28.5 5.5l32 8q-11 -18 -19 -43
q-7 -21 -12.5 -51t-5.5 -68q0 -81 27 -133t65.5 -82.5t81 -42.5t74.5 -12q18 0 38.5 6.5t37.5 18.5t28.5 29t11.5 38t-9.5 45t-22.5 40l76 36q10 -11 18 -22q7 -9 12.5 -19t5.5 -17z" />
    <glyph glyph-name="Scaron" unicode="&#x160;" horiz-adv-x="725" 
d="M760 444q-5 -14 -18 -32.5t-27 -34.5q-16 -19 -35 -38h-278q31 -44 71 -104.5t75 -125t59 -127.5t24 -111q0 -68 -31.5 -124t-77.5 -96.5t-98 -63t-94 -22.5q-40 0 -79 14.5t-70.5 40t-51 61.5t-19.5 78q0 8 1 13l-1 -1q0 -1 2 -1q3 0 16.5 12t28.5 26q18 17 38 38
q0 -54 20.5 -93.5t52 -65t68.5 -38t69 -12.5q27 0 53.5 6t46.5 23.5t32.5 49t12.5 81.5q0 28 -12 66t-31 81.5t-44 89.5t-50 90q-61 103 -137 215h-276q4 20 15.5 42t26 41.5t28.5 34.5t24 22q11 -28 28 -39t47 -11h41h178q47 0 91 1q106 0 179 3.5t102 10.5z" />
    <glyph glyph-name="guilsinglleft" unicode="&#x2039;" horiz-adv-x="725" 
d="M760 444q-5 -14 -18 -32.5t-27 -34.5q-16 -19 -35 -38h-278q31 -44 71 -104.5t75 -125t59 -127.5t24 -111q0 -68 -31.5 -124t-77.5 -96.5t-98 -63t-94 -22.5q-40 0 -79 14.5t-70.5 40t-51 61.5t-19.5 78q0 8 1 13l-1 -1q0 -1 2 -1q3 0 16.5 12t28.5 26q18 17 38 38
q0 -54 20.5 -93.5t52 -65t68.5 -38t69 -12.5q27 0 53.5 6t46.5 23.5t32.5 49t12.5 81.5q0 28 -12 66t-31 81.5t-44 89.5t-50 90q-61 103 -137 215h-74v-281q-25 -21 -56.5 -43t-60.5 -33q5 22 8 40t4.5 36.5t2 41t0.5 52.5q0 12 1 34.5t1 48.5q0 30 -3 59t-14 45h-85
q4 20 15.5 42t26 41.5t28.5 34.5t24 22q11 -28 28 -39t47 -11l310 1q106 0 179 3.5t102 10.5z" />
    <glyph glyph-name="OE" unicode="&#x152;" 
d="M579 443q-4 -11 -13 -24t-19 -26.5t-20.5 -25t-17.5 -19.5q16 -29 16 -59v-300q0 -24 -12.5 -55.5t-34 -64.5t-49 -65.5t-57 -57.5t-60 -40.5t-56.5 -15.5q-8 0 -18 7t-19 15q-11 10 -22 22l58 65q14 -9 27 -16q11 -6 24 -10.5t24 -4.5q21 0 38.5 11t29.5 27.5t19 37
t7 38.5v300q0 42 -14 85t-44 70h-136v-279q-25 -21 -56.5 -43t-60.5 -33q5 22 8.5 40t5 36.5t2 41t0.5 52.5q0 11 1 32t1 45q0 32 -3 63t-14 45h-126q4 20 16 42t26 41.5t28.5 34.5t24.5 22q11 -28 28 -39t46 -11h151q89 0 158 2.5t113 13.5z" />
    <glyph glyph-name="quoteleft" unicode="&#x2018;" horiz-adv-x="487" 
d="M500 105q-5 -14 -18 -32.5t-27 -34.5q-16 -19 -35 -38h-410q3 9 14.5 23.5t26 29t28 26.5t21.5 15q4 -2 11 -3q5 -1 14 -1.5t20 -0.5q4 2 18.5 11t33.5 22.5t40.5 30t39.5 34.5t29.5 35.5t11.5 32.5q0 28 -11 52t-30 40.5t-45.5 26t-57.5 9.5q-18 0 -35 -7t-30 -19
t-21 -29.5t-8 -38.5q0 -20 9.5 -43t21.5 -39l-75 -36q-10 11 -18 22q-7 9 -12.5 18.5t-5.5 17.5q0 26 14 53t37.5 52.5t53 48t61 39t61.5 26t54 9.5q28 0 51.5 -12.5t40.5 -32t26.5 -43.5t9.5 -46q0 -26 -16.5 -53t-42 -52.5t-55 -48.5t-55 -40.5t-44 -28.5t-20.5 -12h182
q45 0 80 5.5t62 11.5z" />
    <glyph glyph-name="quoteright" unicode="&#x2019;" horiz-adv-x="831" 
d="M801 105q-6 -14 -19 -32.5t-27 -34.5q-16 -19 -34 -38h-711q3 9 14.5 23.5t26 29t28 26.5t21.5 15q4 -2 11 -3q5 -1 14 -1.5t20 -0.5q4 2 18.5 11t33.5 22.5t40.5 30t39.5 34.5t29.5 35.5t11.5 32.5q0 28 -11 52t-30 40.5t-45.5 26t-57.5 9.5q-18 0 -35 -7t-30 -19
t-21 -29.5t-8 -38.5q0 -20 9.5 -43t21.5 -39l-75 -36q-10 11 -18 22q-7 9 -12.5 18.5t-5.5 17.5q0 26 14 53t37.5 52.5t53 48t61 39t61.5 26t54 9.5t45 -9.5t37 -24.5t27 -34.5t16 -39.5q21 20 41.5 36.5t43 28t48 17.5t57.5 6q28 0 55 -12.5t48.5 -33.5t35 -47.5
t13.5 -54.5q0 -20 -7.5 -43.5t-20.5 -49t-30.5 -51.5t-37.5 -51q51 2 91 4.5t58 6.5zM676 182q0 30 -11.5 62.5t-32.5 59.5t-49.5 44.5t-61.5 17.5q-10 0 -25.5 -4.5t-32 -12t-31.5 -17t-23 -20.5q-4 -25 -22 -51.5t-43.5 -51t-54 -46t-53 -38t-41.5 -26.5t-19 -11
q26 0 50.5 -0.5t50.5 -0.5q88 0 175 2t175 4q23 17 36 40t13 49z" />
    <glyph glyph-name="quotedblleft" unicode="&#x201c;" horiz-adv-x="487" 
d="M490 105q-5 -14 -18 -32.5t-27 -34.5q-16 -19 -35 -38h-410q3 9 14.5 23.5t26 29t28 26.5t21.5 15q26 6 41.5 12.5t26 16.5t19.5 23.5t23 33.5q33 48 66 102t59 109t42.5 109t16.5 102q0 33 -17.5 64t-45 54.5t-61 37.5t-64.5 14q-18 0 -38.5 -6.5t-37.5 -18.5
t-28.5 -29.5t-11.5 -38.5q0 -20 9.5 -44t21.5 -40l-65 -37q-6 3 -13.5 10t-15 15.5t-12.5 17.5t-5 16q0 26 16 53t42 52.5t59 47.5t67 39t66 26.5t56 9.5q28 0 55.5 -16t48.5 -40.5t34 -54t13 -56.5q0 -80 -30.5 -164t-76.5 -162t-98.5 -146.5t-96.5 -117.5h193q45 0 80 5.5
t62 11.5z" />
    <glyph glyph-name="quotedblright" unicode="&#x201d;" horiz-adv-x="747" 
d="M717 105q-5 -14 -18 -32.5t-27 -34.5q-16 -19 -35 -38h-637q3 9 14.5 23.5t26 29t28 26.5t21.5 15q26 6 41.5 12.5t26 16.5t19.5 23.5t23 33.5q33 48 66 102t59 109t42.5 109t16.5 102q0 33 -17.5 64t-45 54.5t-61 37.5t-64.5 14q-18 0 -38.5 -6.5t-37.5 -18.5
t-28.5 -29.5t-11.5 -38.5q0 -20 9.5 -44t21.5 -40l-65 -37q-6 3 -13.5 10t-15 15.5t-12.5 17.5t-5 16q0 26 16 53t42 52.5t59 47.5t67 39t66 26.5t56 9.5q28 0 55.5 -16t48.5 -40.5t34 -54t13 -56.5q0 -71 -23.5 -143.5t-61.5 -142.5q29 22 62.5 33.5t78.5 11.5
q28 0 55 -12.5t48.5 -33.5t34.5 -47.5t13 -54.5q0 -40 -27 -92.5t-68 -102.5q51 2 91 4.5t57 6.5zM592 182q0 30 -11.5 62.5t-32.5 59.5t-49.5 44.5t-61.5 17.5q-10 0 -25 -3.5t-31 -10t-30.5 -16t-22.5 -20.5q-45 -66 -89.5 -125t-83.5 -103h102.5t91.5 1t91.5 1.5
t103.5 2.5q23 17 35.5 40t12.5 49z" />
    <glyph glyph-name="bullet" unicode="&#x2022;" horiz-adv-x="767" 
d="M737 105q-5 -14 -18 -32.5t-27 -34.5q-16 -19 -35 -38h-657q4 20 15.5 42t26 41.5t28.5 34.5t24 22q11 -28 28 -39t47 -11h50q4 4 7 7.5t6 7.5l208 287l-177 292q-24 40 -54.5 64.5t-67.5 24.5q-13 0 -26 -3t-23.5 -11t-17 -22t-6.5 -36t15.5 -35t35.5 -21q22 -9 51 -14
l-79 -70q-26 3 -46 11q-17 7 -31 20t-14 36q0 25 15 59.5t38 65t50.5 52t53.5 21.5q72 0 120 -32.5t79 -83.5l264 -433q37 -62 60 -96t36 -51q15 -20 21 -25zM631 90q-3 1 -11 12q-7 9 -20 28.5t-34 54.5l-99 163l-149 -196q-26 -34 -42 -62h355z" />
    <glyph glyph-name="endash" unicode="&#x2013;" horiz-adv-x="767" 
d="M737 105q-5 -14 -18 -32.5t-27 -34.5q-16 -19 -35 -38h-177h-480q4 20 15.5 42t26 41.5t28.5 34.5t24 22q11 -28 28 -39t47 -11q21 2 50 30t60.5 71.5t63 98t56 110.5t40 109t15.5 93q0 33 -17.5 64t-44.5 54.5t-60.5 37.5t-65.5 14q-18 0 -38.5 -6.5t-37.5 -18.5
t-28.5 -29.5t-11.5 -38.5q0 -20 9.5 -44t21.5 -40l-65 -37q-6 3 -13.5 10t-15 15.5t-12.5 17.5t-5 16q0 26 16 53t42 52.5t59 47.5t67 39t66 26.5t56 9.5q28 0 55.5 -16t49 -40.5t34.5 -54t13 -56.5q0 -46 -10.5 -92.5t-28.5 -93.5l131 -215q37 -62 60 -96t36 -51
q15 -20 21 -25zM631 90q-3 1 -11 12q-7 9 -20 28.5t-34 54.5l-124 205q-24 -44 -51.5 -86t-55.5 -80.5t-56 -72t-52 -61.5h404z" />
    <glyph glyph-name="emdash" unicode="&#x2014;" horiz-adv-x="585" 
d="M375 88q39 2 70 7t55 10q-5 -14 -18 -32.5t-27 -34.5q-16 -19 -35 -38h-113l-129 -166l-30 -4l132 170h-270q3 9 14.5 23.5t26 29t28 26.5t21.5 15q4 -2 11 -3q5 -1 14 -1.5t20 -0.5q4 2 18.5 11t33.5 22.5t40.5 30t39.5 34.5t29.5 35.5t11.5 32.5q0 28 -11 52t-30 40.5
t-45.5 26t-57.5 9.5q-18 0 -35 -7t-30 -19t-21 -29.5t-8 -38.5q0 -20 9.5 -43t21.5 -39l-65 -36q-6 3 -13.5 10t-15 15t-12.5 17t-5 16q0 26 14 53t37.5 52.5t53 48t61 39t61.5 26t54 9.5q28 0 51.5 -12.5t40.5 -32t26.5 -43.5t9.5 -46q0 -26 -16.5 -53t-42 -52.5t-55 -48.5
t-55 -40.5t-44 -28.5t-20.5 -12h172l177 228l30 4z" />
    <glyph glyph-name="tilde" unicode="&#x2dc;" horiz-adv-x="487" 
d="M457 208q0 -26 -16 -53t-42 -52.5t-59 -47.5t-67 -39t-65.5 -26.5t-55.5 -9.5q-29 0 -56 16t-48.5 40.5t-34.5 54t-13 56.5q0 72 25.5 147.5t64.5 147.5t86 136.5t90 116t76.5 87t45.5 47.5q7 7 10 7q2 0 2 -3q0 -2 -2 -4q-7 -9 -34 -41.5t-63 -81t-76 -109t-74 -125
t-56 -129t-22 -120.5q0 -33 17.5 -64t45 -54.5t61 -37.5t65.5 -14q18 0 38 6.5t37.5 18.5t28.5 29.5t11 38.5q0 20 -9 44t-22 40l66 37q5 -3 13 -10t15 -15.5t12 -17.5t5 -16z" />
    <glyph glyph-name="trademark" unicode="&#x2122;" horiz-adv-x="838" 
d="M808 296q0 -57 -24.5 -113.5t-65.5 -101.5t-95 -73t-114 -28q-59 0 -100.5 18t-63.5 50q-38 -32 -82.5 -50t-92.5 -18q-39 0 -70.5 15.5t-53.5 39.5t-34 53t-12 56q0 73 25.5 148.5t64.5 147t86 136.5t90 116.5t76.5 87t45.5 47.5q7 6 10 6q2 0 2 -2t-2 -4
q-7 -9 -34 -41.5t-63 -81t-76 -109t-74 -125t-56 -129t-22 -120.5q0 -33 17.5 -64t45 -54.5t61 -37.5t65.5 -14q31 0 51.5 9t32.5 24.5t17 35.5t5 42q0 25 -5.5 49.5t-13 45t-15.5 34t-14 15.5q25 20 51 37q22 14 46 27t44 16v-196q0 -48 3.5 -75.5t18 -42t42.5 -18t76 -3.5
q35 0 59 14.5t39 38.5t21.5 54.5t6.5 62.5q0 27 -10.5 54t-29 48.5t-43.5 34.5t-53 13q-16 0 -28 -4l89 67q12 3 24 3q25 0 48.5 -13t42 -33.5t30 -45.5t11.5 -49z" />
    <glyph glyph-name="scaron" unicode="&#x161;" horiz-adv-x="487" 
d="M457 283q0 -73 -25.5 -148t-64.5 -147t-86 -136.5t-90 -116t-76.5 -87t-45.5 -47.5q-7 -7 -10 -7q-2 0 -2 3q0 2 2 4q7 8 34 41t63 81.5t76 109t74 125t56 129t22 120.5q0 33 -17.5 64t-45 54.5t-61 37.5t-64.5 14q-18 0 -38.5 -6.5t-37.5 -18.5t-28.5 -29.5t-11.5 -38.5
q0 -20 9.5 -44t21.5 -40l-65 -37q-6 3 -13.5 10t-15 15.5t-12.5 17.5t-5 16q0 26 16 53t42 52.5t59 47.5t67 39t66 26.5t56 9.5q28 0 55.5 -16t48.5 -40.5t34 -54t13 -56.5z" />
    <glyph glyph-name="guilsinglright" unicode="&#x203a;" horiz-adv-x="838" 
d="M808 273q0 -73 -25.5 -148t-64.5 -147t-86 -136.5t-90 -116t-76.5 -87t-45.5 -47.5q-7 -7 -10 -7q-2 0 -2 3q0 2 2 4q7 8 34 41t63 81.5t76 109t74 125t56 129t22 120.5q0 33 -17.5 64t-45 54.5t-61 37.5t-64.5 14t-51.5 -9.5t-33 -25t-17.5 -35.5t-5 -42
q0 -25 5.5 -49.5t13 -45t16 -34t14.5 -15.5q-26 -20 -52 -37q-22 -14 -46 -27t-44 -15v195q0 48 -3.5 76t-18 42t-42 18t-75.5 4q-36 0 -60 -15t-39 -39t-21.5 -54.5t-6.5 -62.5q0 -27 10.5 -54t29 -48.5t43.5 -34.5t53 -13q7 0 14 1t14 3l-89 -67q-12 -3 -23 -3
q-25 0 -49 13.5t-42.5 34t-30 45.5t-11.5 49q0 57 24.5 113.5t65.5 101t95 72.5t114 28q59 0 100.5 -18t64.5 -50q38 32 82 50t92 18q39 0 70.5 -15.5t53.5 -39.5t34 -53t12 -56z" />
    <glyph glyph-name="oe" unicode="&#x153;" 
d="M537 283q0 -31 -21 -79t-56.5 -107t-82 -125t-98.5 -133.5t-105.5 -133.5t-102.5 -123q-5 -6 -9 -6q-3 0 -4.5 3t-1.5 6q0 1 2 5q21 28 53 68.5t66.5 85.5t69 91t60.5 84l-144 237q-74 122 -119 185.5t-44 63.5q7 6 24 12.5t37 13t40.5 12t35.5 8.5q3 -11 7 -25
q4 -12 10.5 -30t16.5 -40q26 20 55 37.5t57.5 30t55 19.5t46.5 7q28 0 55.5 -16t49 -40.5t34.5 -54t13 -56.5zM464 207q0 33 -17.5 64t-45 54.5t-61 37.5t-65.5 14q-23 0 -50 -11t-44 -31q11 -23 24.5 -48.5t30.5 -54.5l134 -219q41 63 67.5 115t26.5 79z" />
    <glyph glyph-name="Ydieresis" unicode="&#x178;" horiz-adv-x="662" 
d="M662 28q-8 -6 -24.5 -12.5t-36.5 -13t-40.5 -12t-35.5 -8.5q-2 22 -11 53q-8 26 -24 63.5t-45 86.5l-99 163l-149 -196q-23 -30 -36.5 -53t-21.5 -39q-9 -18 -12 -32q-10 -7 -25.5 -14t-33 -13.5t-35.5 -11.5t-33 -7l9 8t24.5 24t35.5 38.5t42 52.5l208 287l-177 292
q-24 40 -54.5 64.5t-67.5 24.5q-13 0 -26 -3t-23.5 -11t-17 -22t-6.5 -36t15.5 -35t35.5 -21q22 -9 51 -14l-79 -70q-26 3 -46 11q-17 7 -31 20t-14 36q0 25 14.5 59.5t37.5 65t51 52t54 21.5q72 0 120 -32.5t79 -83.5l264 -433q37 -62 67.5 -108t51.5 -78q25 -37 44 -63z
" />
    <glyph glyph-name="exclamdown" unicode="&#xa1;" horiz-adv-x="723" 
d="M691 166q0 -25 -14 -52.5t-34.5 -53.5t-44 -48.5t-42.5 -35.5q8 12 17 27.5t16.5 32.5t12.5 34t5 31q0 63 -12 114t-39.5 87t-73.5 55.5t-114 19.5q-37 0 -61.5 -17.5t-39 -45.5t-20.5 -61.5t-6 -66.5q0 -47 21.5 -72.5t49 -37.5t54 -14t35.5 -2h4l-89 -67q-44 1 -95 3
q-44 2 -101 3t-120 1q4 20 15.5 42t26 41.5t28.5 34.5t24 22q10 -26 20.5 -38t36.5 -12h10q-1 5 -1 10.5v10.5q0 57 24.5 115t65.5 105.5t95.5 77t113.5 29.5q62 0 106 -21.5t72 -58.5t41 -86.5t13 -105.5z" />
    <glyph glyph-name="cent" unicode="&#xa2;" horiz-adv-x="563" 
d="M660 105q-5 -14 -18 -32.5t-27 -34.5q-16 -19 -35 -38h-169q15 17 26 42.5t11 48.5q0 63 -12 114t-40 87t-74 55.5t-114 19.5q-38 0 -62.5 -16t-38.5 -42t-20 -58t-6 -65q0 -16 4.5 -34.5t11.5 -36.5t16 -34.5t18 -29.5l-84 -71q-20 29 -33.5 62.5t-13.5 69.5
q0 57 24.5 115t65.5 105t95 76.5t114 29.5q62 0 106.5 -21.5t73 -58t41.5 -86t13 -106.5q0 -20 -7.5 -38.5t-19.5 -36.5q45 2 86.5 5t67.5 9z" />
    <glyph glyph-name="sterling" unicode="&#xa3;" horiz-adv-x="995" 
d="M1092 105q-5 -14 -18 -32.5t-27 -34.5q-16 -19 -35 -38h-169q15 17 26 47.5t11 53.5q0 63 -11.5 114t-39 87t-73.5 55.5t-114 19.5q-29 0 -52 -14t-39.5 -35.5t-25.5 -48.5t-9 -52v-227l-81 -23v47q0 11 1 23q0 66 -5.5 126t-28.5 105.5t-69 72t-127 26.5q-39 0 -63 -20
t-38 -50t-19 -65t-5 -65q0 -16 6 -34.5t14.5 -36.5t19 -34.5t19.5 -29.5l-93 -62q-21 29 -34 62.5t-13 69.5q0 57 24 115t65 105t95 76.5t114 29.5q71 0 124 -33.5t81 -99.5q20 27 45.5 51t55 42t62 29t67.5 11q61 0 105 -21.5t72.5 -58.5t41.5 -86.5t13 -105.5
q0 -20 -7.5 -38.5t-19.5 -36.5q45 2 86.5 5t67.5 9z" />
    <glyph glyph-name="currency" unicode="&#xa4;" horiz-adv-x="727" 
d="M697 -338q-15 -13 -33 -27.5t-38 -27.5t-40.5 -22.5t-40.5 -12.5v689q0 25 -14 44.5t-38 33t-56.5 21t-68.5 7.5t-60 -15t-39 -39t-21.5 -54.5t-6.5 -62.5q0 -34 11.5 -57t29.5 -38t39 -23.5t39 -12.5t31 -4.5t14 -0.5l-89 -67q-44 1 -95 3q-44 2 -101 3t-120 1
q4 20 15.5 42t26 41.5t28.5 34.5t24 22q10 -26 20.5 -38t36.5 -12h10q-1 5 -1 16v16q0 57 24.5 113.5t65.5 101t95 72.5t114 28q90 0 139 -40.5t49 -103.5v-546q0 -30 11 -52t39 -33z" />
    <glyph glyph-name="yen" unicode="&#xa5;" horiz-adv-x="1066" 
d="M1036 -338q-15 -13 -33 -27.5t-38 -27.5t-40.5 -22.5t-40.5 -12.5v689q0 25 -14 44.5t-38 33t-56.5 21t-68.5 7.5q-33 0 -53 -9.5t-30.5 -25.5t-14 -38t-3.5 -46q0 -23 0.5 -53t4.5 -58t12.5 -49t25.5 -27q-26 -20 -52 -37q-22 -14 -46 -27t-44 -15v245q0 37 -11 63.5
t-29.5 43.5t-44 25t-54.5 8q-36 0 -60 -15t-39 -39t-21.5 -54.5t-6.5 -62.5q0 -34 11.5 -57t29.5 -38t39 -23.5t39 -12.5t31 -4.5t14 -0.5l-89 -67q-44 1 -95 3q-44 2 -101 3t-120 1q4 20 15.5 42t26 41.5t28.5 34.5t24 22q10 -26 20.5 -38t36.5 -12h10q-1 5 -1 16v16
q0 57 24.5 113.5t65.5 101t95 72.5t114 28q59 0 100.5 -18t64.5 -50q38 32 82 50t92 18q90 0 139 -40.5t49 -103.5v-546q0 -30 11 -52t39 -33z" />
    <glyph glyph-name="brokenbar" unicode="&#xa6;" 
d="M537 -11q0 -24 -12.5 -55.5t-34 -64.5t-49 -65.5t-57.5 -57.5t-60 -40.5t-56 -15.5q-8 0 -18 7t-19 15q-11 10 -22 22l57 65q13 -9 27 -16q11 -6 24.5 -10.5t24.5 -4.5q21 0 38.5 11t29.5 27.5t19 37t7 38.5v300q0 31 -8 63.5t-24 59.5t-40.5 44t-58.5 17q-20 0 -41 -8.5
t-41.5 -21t-38.5 -27.5t-32 -28v-223q-25 -21 -56.5 -43t-60.5 -33q5 23 8 41.5t4.5 39t2 45t0.5 58.5v114q0 30 -11 52t-39 33q15 13 33 28t38 27.5t40.5 22t40.5 12.5v-143q26 26 50.5 49t51.5 40t58 26.5t71 9.5q27 0 54.5 -12.5t49.5 -33.5t36 -47.5t14 -54.5v-300z" />
    <glyph glyph-name="section" unicode="&#xa7;" horiz-adv-x="906" 
d="M876 -11q0 -24 -12.5 -55.5t-34 -64.5t-49 -65.5t-57.5 -57.5t-60 -40.5t-56 -15.5q-8 0 -18 7t-19 15q-11 10 -22 22l57 65q13 -9 27 -16q11 -6 24.5 -10.5t24.5 -4.5q21 0 38 11t29.5 27.5t19 37t6.5 38.5v300q0 30 -7 62.5t-22 59.5t-39 44.5t-57 17.5q-63 0 -88 -28
t-25 -87v-193q-25 -21 -56.5 -43t-60.5 -33q5 22 8 40t5 36.5t2.5 41t0.5 52.5v28q0 91 -38 138.5t-105 47.5q-20 0 -44.5 -3.5t-45.5 -15.5t-35.5 -34.5t-14.5 -61.5v-193q-25 -21 -56.5 -43t-60.5 -33q5 23 8 41.5t4.5 39t2 45t0.5 58.5v114q0 30 -11 52t-39 33
q15 13 33 28t38 27.5t40.5 22t40.5 12.5v-123q20 29 51 52q26 20 66.5 36.5t98.5 16.5q23 0 44 -9t39 -23t33 -32.5t26 -37.5q24 23 47.5 42t49 32.5t54.5 20.5t64 7q28 0 55 -12.5t48.5 -33.5t34.5 -47.5t13 -54.5v-300z" />
    <glyph glyph-name="dieresis" unicode="&#xa8;" horiz-adv-x="725" 
d="M554 230q0 35 -15 63t-29 44h-321q-1 -11 -1.5 -21t-0.5 -21q0 -54 15.5 -99t45.5 -77.5t75 -50.5t105 -18q37 0 61.5 16t38.5 41.5t20 58t6 64.5zM763 443q-6 -15 -19 -33t-27 -35q-16 -19 -34 -38h-62q3 0 6 -4q2 -3 4.5 -10t2.5 -19q0 -48 -17.5 -97t-48 -91.5
t-71.5 -75.5t-88 -48v-99q0 -27 -10.5 -51.5t-27.5 -46.5t-37.5 -41.5t-39.5 -35.5q-20 -17 -46 -22.5t-52 -5.5q-14 0 -31.5 2t-33 8t-27.5 16.5t-15 27.5l72 55q11 -34 37.5 -50.5t61.5 -16.5q29 0 46 17.5t25.5 42.5t11 53t2.5 49q0 22 -1.5 43t-3.5 43q-63 0 -107.5 21
t-73 57.5t-42 86.5t-13.5 107q0 23 9.5 44t24.5 41h-175q4 20 15.5 42t26 41.5t28.5 34.5t24 22q11 -27 27 -38t43 -11h355q105 0 178.5 4t102.5 11z" />
    <glyph glyph-name="copyright" unicode="&#xa9;" horiz-adv-x="725" 
d="M763 443q-6 -15 -19 -33t-27 -35q-16 -19 -34 -38h-77q2 -1 7 -6.5t5 -26.5q0 -57 -24 -114.5t-65 -104t-95 -76t-113 -29.5q-62 0 -106 21.5t-72.5 58t-42 86t-13.5 106.5q0 23 9.5 44t25.5 41h-160q4 20 16 42t26 41.5t28.5 34.5t24.5 22q11 -27 27 -38t43 -11h187
q0 36 -3 75t-10 76q7 10 17 22t22 24t26 22t29 16q-4 -57 -5 -117t-1 -110l-17 -8h110q105 0 178.5 4t102.5 11zM538 230q0 35 -15 63t-29 44h-321q-2 -11 -2 -21v-21q0 -54 15.5 -99t45.5 -77.5t75 -50.5t105 -18q37 0 61 16t38.5 41.5t20.5 58t6 64.5z" />
    <glyph glyph-name="uni00AD" unicode="&#xad;" horiz-adv-x="649" 
d="M619 213q-23 -26 -49 -42.5t-54.5 -25.5t-60 -12t-66.5 -3q-42 0 -83.5 7.5t-82 17t-82 17t-83.5 7.5q-31 0 -58 -7q22 22 46 34.5t50 18.5t54 7.5t59 1.5q39 0 77.5 -6t77 -13t77 -13t77.5 -6q26 0 51 4t50 13z" />
    <glyph glyph-name="registered" unicode="&#xae;" horiz-adv-x="487" 
d="M452 -148q0 -60 -29.5 -114t-76 -95.5t-105 -66t-115.5 -24.5q-36 0 -69.5 13.5t-62.5 34.5l72 83q13 -9 29.5 -18t34.5 -16t36.5 -11.5t34.5 -4.5q32 0 64.5 6t58.5 20.5t42 39t16 61.5q0 79 -20.5 127t-53.5 73.5t-73 34t-79 8.5q-36 0 -66 -3l53 89q11 -2 25 -4
q11 -2 27 -3t33 -1q40 0 67 9.5t43 26.5t22.5 40.5t6.5 50.5q0 39 -18.5 68.5t-48.5 48.5t-67.5 28.5t-74.5 9.5q-28 0 -47.5 -5t-33 -12t-23.5 -15t-19 -15q-4 -2 -5 -2q-2 0 -2 4q0 3 1 5q14 18 35 37.5t47.5 36t57.5 27.5t66 11q40 0 77 -9t64.5 -28t44 -48.5t16.5 -70.5
q0 -39 -11 -71t-29 -58.5t-42 -48t-51 -39.5q31 -12 58 -30.5t47 -44t31.5 -59t11.5 -76.5z" />
    <glyph glyph-name="macron" unicode="&#xaf;" horiz-adv-x="582" 
d="M552 -148q0 -60 -29.5 -114t-76.5 -95.5t-105 -66t-115 -24.5q-36 0 -69.5 13.5t-62.5 34.5l71 83q13 -9 29.5 -18t34.5 -16t36.5 -11.5t34.5 -4.5q33 0 65 6t58 20.5t42 39t16 61.5q0 79 -20.5 127t-53 73.5t-72.5 34t-79 8.5q-36 0 -66 -3l53 89q12 -2 25 -4
q11 -2 26.5 -3t32.5 -1q40 0 67 9.5t43 26.5t22.5 40.5t6.5 50.5q0 39 -18.5 68.5t-48 48.5t-67 28.5t-75.5 9.5q-43 0 -66 -10.5t-39 -22.5v-272q-25 -21 -56.5 -43t-60.5 -33q5 22 8 40t4.5 36.5t2 41t0.5 52.5v128q0 30 -11 52t-39 33q15 13 33 28t38 27.5t40.5 22
t40.5 12.5v-106q15 16 35 31.5t43.5 27.5t49.5 19.5t55 7.5q40 0 77 -9t64.5 -28t44 -48.5t16.5 -70.5q0 -39 -11 -71t-29.5 -58.5t-42.5 -48t-50 -39.5q31 -12 58 -30.5t47 -44t31.5 -59t11.5 -76.5z" />
    <glyph glyph-name="degree" unicode="&#xb0;" 
d="M590 443q-5 -15 -18 -33t-27 -35q-16 -19 -35 -38h-17q12 -11 22 -22q8 -10 15 -22.5t7 -26.5q0 -46 -24.5 -96.5t-65.5 -92.5t-95 -69.5t-114 -27.5q-90 0 -139 40.5t-49 103.5v546q0 30 -11 52t-39 33q15 13 33 28t38 27.5t40.5 22t40.5 12.5v-418h2q38 0 87.5 -1
t103.5 -1q69 0 134.5 3.5t110.5 14.5zM456 221q0 29 -13 50t-29 36q-18 17 -41 30h-221v-181q0 -25 14 -44.5t38 -33t56.5 -20.5t68.5 -7q37 0 62 14t39 38t20 54.5t6 63.5z" />
    <glyph glyph-name="plusminus" unicode="&#xb1;" horiz-adv-x="906" 
d="M906 444q-5 -15 -18 -33t-27 -35q-16 -19 -35 -38h-18q12 -11 22 -22q8 -10 15.5 -23t7.5 -27q0 -46 -24.5 -96t-66 -92t-95.5 -69.5t-113 -27.5t-89.5 17.5t-52.5 49.5q-38 -32 -82 -50t-92 -18q-90 0 -139 40.5t-49 103.5v546q0 30 -11 52t-39 33q15 13 33 28t38 27.5
t40.5 22t40.5 12.5v-419q4 1 8 1h9q83 0 181 -1t195 -1q58 0 112.5 0.5t101.5 3t85 6t62 9.5zM772 222q0 29 -13 50t-29 36q-18 17 -42 30l-159 -1v-187q0 -59 37 -79t102 -20q30 0 50 18.5t32 44.5t17 55.5t5 52.5zM430 170v43.5t-2 45t-7 42.5t-15 36h-254v-181
q0 -25 14 -44.5t38 -33t56.5 -20.5t68.5 -7q33 0 53 9.5t30.5 25.5t14 38t3.5 46z" />
    <glyph glyph-name="twosuperior" unicode="&#xb2;" 
d="M556 105q-6 -14 -19 -32.5t-27 -34.5q-16 -19 -35 -38h-358v-312q-25 -21 -56.5 -43t-60.5 -33q4 19 7 58t5 91.5t3 114t1 124.5q0 47 7.5 98t23.5 99.5t42 92t63 76.5t85.5 52t110.5 19q27 0 54.5 -12.5t49.5 -33.5t36 -47.5t14 -54.5q0 -19 -7 -43.5t-19 -50.5t-29 -53
t-36 -51q45 2 81.5 5t63.5 9zM428 182q0 31 -12 63.5t-33 59.5t-49.5 44t-62.5 17q-53 0 -84 -17t-46.5 -45.5t-20 -65t-4.5 -74.5q0 -19 0.5 -37.5t0.5 -35.5h65t69.5 -0.5t70 -0.5h66.5q19 18 29.5 43.5t10.5 48.5z" />
    <glyph glyph-name="threesuperior" unicode="&#xb3;" horiz-adv-x="906" 
d="M895 105q-6 -14 -19 -32.5t-27 -34.5q-16 -19 -35 -38h-697v-312q-25 -21 -56.5 -43t-60.5 -33q4 19 7 58t5 91.5t3 114t1 124.5q0 71 16.5 148.5t54.5 141.5t100.5 105.5t155.5 41.5q24 0 45 -9t39 -23t33 -32.5t26 -37.5q24 23 45.5 42t45 32.5t51 20.5t62.5 7
q28 0 55 -12.5t48.5 -33.5t34.5 -47.5t13 -54.5q0 -40 -27 -92.5t-68 -102.5q51 2 91 4.5t58 6.5zM770 182q0 30 -11.5 62.5t-32.5 59.5t-49.5 44.5t-61.5 17.5q-13 0 -33.5 -6.5t-40 -17t-33.5 -24t-14 -27.5q0 -41 -28 -95.5t-70 -105.5q81 0 162.5 0.5t162.5 2.5
q23 17 36 40t13 49zM422 182q0 30 -11 62.5t-31 59.5t-48 44.5t-61 17.5q-53 0 -84 -17t-46.5 -45.5t-20 -65t-4.5 -74.5q0 -19 0.5 -37.5t0.5 -35.5l251 -1q26 16 40 40.5t14 51.5z" />
    <glyph glyph-name="acute" unicode="&#xb4;" horiz-adv-x="794" 
d="M864 -65q0 -18 -12.5 -35t-29.5 -33t-36.5 -28.5t-32.5 -21.5q12 28 12 60q0 54 -26 87t-84 33q-36 0 -67.5 -1.5t-64 -3t-69.5 -4t-83 -4t-104 -3t-134 -1.5q-25 0 -49 13.5t-42.5 34t-30 45.5t-11.5 49q0 57 24.5 113.5t65.5 101t95 72.5t114 28q39 0 70 -9t40 -32v274
q0 30 -11 52t-39 33q15 13 33 28t38 27.5t40.5 22t40.5 12.5v-787h166q35 0 68.5 -3t60 -15.5t42.5 -37t16 -67.5zM408 256q-23 52 -70 81.5t-130 29.5q-33 0 -57 -14.5t-39.5 -38.5t-23 -54.5t-7.5 -63.5q0 -27 10.5 -54t29 -48.5t43 -34.5t53.5 -13q23 0 43 1t41 2t45 2.5
l56 3.5q2 39 3.5 91t2.5 110z" />
    <glyph glyph-name="mu" unicode="&#xb5;" horiz-adv-x="794" 
d="M764 289q0 -55 -24 -107t-60 -92.5t-78.5 -65t-80.5 -24.5h-382q-26 0 -50.5 2t-50.5 2q-10 0 -23 -1t-25 -5t-20 -12t-8 -22q0 -22 12.5 -45t26.5 -38l-88 -66q-13 23 -13 50q0 52 20 88.5t51.5 61.5t70.5 39.5t77.5 22t72.5 9.5t55 2q5 0 10 -0.5t8 -0.5h7q2 37 3 82.5
t1.5 94.5t0.5 100v100v206q0 30 -11 52t-39 33q15 13 33 28t38 27.5t40.5 22t40.5 12.5v-533q26 26 50.5 49t51.5 40t58 26.5t71 9.5q27 0 54.5 -12.5t49.5 -33.5t36 -47.5t14 -54.5zM690 182q0 31 -12 63.5t-33 59.5t-50 44t-63 17q-20 0 -41 -8.5t-41.5 -21t-38.5 -27.5
t-32 -28v-190h200q65 0 88 22t23 69z" />
    <glyph glyph-name="paragraph" unicode="&#xb6;" 
d="M590 443q-5 -15 -18 -33t-27 -35q-16 -19 -35 -38h-17q12 -11 22 -22q8 -10 15 -22.5t7 -26.5q0 -46 -24.5 -96.5t-65.5 -92.5t-95 -69.5t-114 -27.5q-22 0 -45.5 3t-43.5 11q0 -1 1 -2q2 -2 2 -5v-299q-25 -21 -56.5 -43t-60.5 -33q5 22 8 73t4.5 117.5t2 143t0.5 148.5
v21v555q0 30 -11 52t-39 33q15 13 33 28t38 27.5t40.5 22t40.5 12.5v-418h2q38 0 87.5 -1t103.5 -1q69 0 134.5 3.5t110.5 14.5zM456 221q0 29 -13 50t-29 36q-18 17 -41 30h-221v-181q0 -25 14 -44.5t38 -33t56.5 -20.5t68.5 -7q37 0 62 14t39 38t20 54.5t6 63.5z" />
    <glyph glyph-name="periodcentered" unicode="&#xb7;" 
d="M590 105q-5 -14 -18 -32.5t-27 -34.5q-16 -19 -35 -38h-358v-312q-25 -21 -56.5 -43t-60.5 -33q3 15 5.5 61t4 112t2.5 148t2 168.5t1 173v162.5v233q0 30 -11 52t-39 33q15 13 33 28t38 27.5t40.5 22t40.5 12.5v-533q26 26 50.5 49t51.5 40t58 26.5t71 9.5
q27 0 54.5 -12.5t49.5 -33.5t36 -47.5t14 -54.5q0 -19 -7 -43.5t-19 -50.5t-29 -53t-36 -51q45 2 81 5t63 9zM463 182q0 31 -12 63.5t-33 59.5t-50 44t-63 17q-20 0 -41 -8.5t-41.5 -21t-38.5 -27.5t-32 -28v-190q63 0 134 -0.5t137 -0.5q19 18 29.5 43.5t10.5 48.5z" />
    <glyph glyph-name="Ccedilla" unicode="&#xc7;" horiz-adv-x="1548" 
d="M1518 306q0 -57 -30.5 -113.5t-85 -101.5t-131.5 -73t-170 -28q-39 0 -89.5 16.5t-98.5 45t-86.5 67t-54.5 82.5q-5 -2 -9 -2.5t-9 -1.5q0 -59 -16 -98.5t-43.5 -63.5t-64 -34.5t-76.5 -10.5q-31 0 -44 8t-13 22t10.5 31.5t27.5 36.5t37 38t38.5 34.5t33.5 26.5t21 15
q-20 42 -56.5 75t-83 55t-98.5 33.5t-101 11.5q-85 0 -134 -14.5t-73.5 -38.5t-31 -54.5t-6.5 -63.5q0 -27 10.5 -54t29 -48.5t43 -34.5t53.5 -13q2 0 8.5 0.5t12.5 2.5q7 2 15 4h1q2 0 2 -2q0 -1 -1 -1l-89 -67q-6 -2 -17 -2.5t-16 -0.5q-25 0 -49 13t-42.5 33.5t-30 45.5
t-11.5 49q0 57 30.5 113.5t85 101.5t131.5 73t170 28q39 0 89.5 -16.5t98.5 -45t87 -67t54 -82.5l18 3q0 59 16 99t43.5 64t63.5 34.5t77 10.5q32 0 45.5 -8t13.5 -22t-10.5 -31.5t-27 -36t-36.5 -37t-38.5 -34.5t-34.5 -27.5t-23 -15.5q19 -42 56 -75t83.5 -55t98.5 -33.5
t101 -11.5q85 0 134 14.5t73.5 38.5t31 55t6.5 63q0 27 -10.5 54t-29 48.5t-43.5 34.5t-53 13q-3 0 -9 -1t-12 -3q-7 -2 -15 -3h-2q-1 0 -1 2q0 1 1 1l89 67q6 2 17 2.5t16 0.5q25 0 49 -13t42.5 -33.5t30 -45.5t11.5 -49zM957 357q0 12 -17 19t-61 7q-20 0 -31.5 -14.5
t-11.5 -52.5q0 -28 7 -52q14 6 33.5 17.5t37.5 24.5t30.5 26.5t12.5 24.5zM682 121q0 27 -6 51q-14 -6 -34 -17t-38.5 -24t-31.5 -26.5t-13 -24.5q0 -12 17.5 -19t62.5 -7q20 0 31.5 15t11.5 52z" />
    <glyph glyph-name="Egrave" unicode="&#xc8;" horiz-adv-x="1334" 
d="M1304 306q0 -57 -32 -113.5t-88.5 -101.5t-135 -73t-171.5 -28q-30 0 -66 4.5t-73.5 13.5t-73 24t-63 36t-44.5 48.5t-17 61.5q0 45 12.5 84.5t33.5 72.5q-54 25 -120.5 33.5t-129.5 8.5q-85 0 -135.5 -14.5t-77 -38.5t-34.5 -54.5t-8 -63.5q0 -27 10.5 -54t29 -48.5
t43.5 -34.5t53 -13q2 0 8.5 0.5t12.5 2.5q7 2 15 4h1q2 0 2 -2q0 -1 -1 -1l-89 -67q-6 -2 -17 -2.5t-16 -0.5q-25 0 -49 13t-42.5 33.5t-30 45.5t-11.5 49q0 57 32 113.5t88.5 101.5t135 73t171.5 28q29 0 65.5 -4.5t74 -13.5t73 -24t63 -36t44.5 -48.5t17 -61.5
q0 -45 -12.5 -84.5t-33.5 -72.5q54 -25 120.5 -33.5t130.5 -8.5q85 0 135 14.5t76.5 38.5t34.5 55t8 63q0 27 -10.5 54t-29 48.5t-43.5 34.5t-53 13q-3 0 -9 -1t-12 -3q-7 -2 -15 -3h-2q-1 0 -1 2q0 1 1 1l89 67q6 2 17 2.5t17 0.5q25 0 48.5 -13t42 -33.5t30 -45.5
t11.5 -49zM692 181q0 48 -19.5 80.5t-53.5 55.5q-7 -24 -7 -61q0 -48 20 -80.5t53 -55.5q7 25 7 61z" />
    <glyph glyph-name="Eacute" unicode="&#xc9;" horiz-adv-x="1334" 
d="M1304 259q0 -56 -20 -105t-51.5 -85.5t-70.5 -57.5t-78 -21q-30 0 -44 11.5t-21 22.5l67 64q16 -12 30 -21t34 -9q42 0 62.5 32t20.5 91q0 61 -33.5 99.5t-85 60t-115 29t-123.5 7.5q-40 0 -71.5 -3.5t-56.5 -9.5q16 -30 16 -58q0 -57 -32 -113.5t-88.5 -101.5t-135 -73
t-171.5 -28q-30 0 -66 4.5t-73.5 13.5t-73 24t-63 36t-44.5 48.5t-17 61.5q0 56 20 105t51.5 85.5t70.5 57.5t78 21q30 0 44 -11.5t21 -22.5l-66 -64q-17 12 -30.5 21t-34.5 9q-42 0 -62 -32t-20 -91q0 -62 33.5 -100t85 -59.5t114.5 -29t123 -7.5q40 0 71.5 3.5t56.5 9.5
q-16 30 -16 58q0 57 32 113.5t89 101.5t135.5 73t171.5 28q44 0 102 -10t110 -32.5t88 -58t36 -87.5zM683 231q0 23 -7 44.5t-20 40.5q-22 -23 -28.5 -51.5t-6.5 -58.5q0 -23 7 -44.5t20 -40.5q22 23 28.5 51.5t6.5 58.5z" />
    <glyph glyph-name="Ecircumflex" unicode="&#xca;" horiz-adv-x="906" 
d="M876 289q0 -24 -10.5 -55.5t-29 -64.5t-42.5 -65.5t-51 -57.5t-55 -40.5t-54 -15.5q-8 0 -18 7t-19 15q-11 10 -22 22l57 65q17 -13 36 -22t40 -9t38.5 11t29.5 27.5t19 37t7 38.5q0 31 -12 63.5t-33 59.5t-50 44t-63 17q-20 0 -41 -8.5t-41.5 -21t-38.5 -27.5t-32 -28
v-93v-130q-25 -21 -56.5 -43t-60.5 -33q4 16 6 47.5t4 74.5q-26 -26 -50.5 -49t-51 -39.5t-58 -26t-70.5 -9.5q-27 0 -54.5 12.5t-49.5 33.5t-36 47.5t-14 54.5q0 24 10.5 55.5t29 65t42.5 65.5t51 57t55 40.5t54 15.5q8 0 18 -7t19 -15q11 -10 22 -22l-57 -64
q-17 12 -36 21t-40 9t-38.5 -11t-29.5 -27.5t-19 -36.5t-7 -38q0 -32 12 -64.5t33 -59t50 -43.5t63 -17q20 0 41 8.5t41 21t38.5 27.5t33.5 28l-1 222q25 20 58.5 42.5t62.5 33.5q-6 -26 -9 -56t-5 -66q26 26 50.5 49t51 39.5t58 26t70.5 9.5q27 0 54.5 -12.5t49.5 -33.5
t36 -47.5t14 -54.5z" />
    <glyph glyph-name="Edieresis" unicode="&#xcb;" horiz-adv-x="1105" 
d="M1075 289q0 -24 -10.5 -55.5t-29 -64.5t-42.5 -65.5t-50.5 -57.5t-55 -40.5t-54.5 -15.5q-8 0 -18 7t-19 15q-11 10 -22 22l58 65q16 -13 35 -22t40 -9t38.5 11t29.5 27.5t19 37t7 38.5q0 31 -12 63.5t-33 59.5t-50 44t-63 17q-20 0 -41 -8.5t-41.5 -21t-38.5 -27.5
t-32 -28v-223q-25 -21 -56.5 -43t-60.5 -33q6 24 9 43t4.5 40.5t2 48t0.5 64.5v62l-6 6l-81 -188q-25 -21 -56.5 -43t-60.5 -33v123q-26 -26 -50.5 -49t-51.5 -40t-58 -26.5t-71 -9.5q-27 0 -54.5 12.5t-49.5 33.5t-36 47.5t-14 54.5q0 24 10.5 55.5t29 65t42.5 65.5t51 57
t55 40.5t54 15.5q8 0 18 -7t19 -15q11 -10 22 -22l-57 -64q-17 12 -36 21t-40 9t-38.5 -11t-29.5 -27.5t-19 -36.5t-7 -38q0 -32 12 -64.5t33 -59t50 -43.5t63 -17q20 0 41 8.5t41.5 21t38.5 27.5t32 28v222q25 20 56.5 42.5t60.5 33.5q-6 -25 -9 -44t-4.5 -39.5t-1.5 -47
v-66.5v-42l6 -6l80 189q25 20 56.5 42.5t60.5 33.5v-143q26 26 50.5 49t51.5 40t58.5 26.5t70.5 9.5q27 0 54.5 -12.5t49.5 -33.5t36 -47.5t14 -54.5z" />
    <glyph glyph-name="Igrave" unicode="&#xcc;" horiz-adv-x="906" 
d="M876 289q0 -24 -10.5 -55.5t-29 -64.5t-42.5 -65.5t-51 -57.5t-55 -40.5t-54 -15.5q-8 0 -18 7t-19 15q-11 10 -22 22l57 65q17 -13 36 -22t40 -9t38.5 11t29.5 27.5t19 37t7 38.5q0 31 -12 63.5t-33 59.5t-50 44t-63 17q-20 0 -41 -8.5t-41.5 -21t-38.5 -27.5t-32 -28
v-223q-25 -21 -56.5 -43t-60.5 -33q4 16 6 47.5t4 74.5q-26 -26 -50.5 -49t-51 -39.5t-58 -26t-70.5 -9.5q-27 0 -54.5 12.5t-49.5 33.5t-36 47.5t-14 54.5q0 24 10.5 55.5t29 65t42.5 65.5t51 57t55 40.5t54 15.5q8 0 18 -7t19 -15q11 -10 22 -22l-57 -64q-17 12 -36 21
t-40 9t-38.5 -11t-29.5 -27.5t-19 -36.5t-7 -38q0 -32 12 -64.5t33 -59t50 -43.5t63 -17q20 0 41 8.5t41 21t38.5 27.5t33.5 28q2 69 2.5 150t0.5 161v222q0 30 -11 52t-39 33q15 13 33 28t38 27.5t40.5 22t40.5 12.5v-533q26 26 50.5 49t51.5 40t58 26.5t71 9.5
q27 0 54.5 -12.5t49.5 -33.5t36 -47.5t14 -54.5z" />
    <glyph glyph-name="Iacute" unicode="&#xcd;" horiz-adv-x="926" 
d="M896 289q0 -24 -10.5 -55.5t-29 -64.5t-42.5 -65.5t-51 -57.5t-55 -40.5t-54 -15.5q-8 0 -18 7t-19 15q-11 10 -22 22l57 65q17 -13 36 -22t40 -9t38.5 11t29.5 27.5t19 37t7 38.5q0 31 -12 63.5t-33 59.5t-50 44t-63 17q-20 0 -41 -8.5t-41.5 -21t-38.5 -27.5t-32 -28
v-223q-25 -21 -56.5 -43t-60.5 -33q3 14 5.5 41t4.5 63t3 79.5t1 90.5q-23 52 -70 81.5t-130 29.5q-33 0 -57 -14.5t-39.5 -38.5t-23 -54.5t-7.5 -63.5q0 -27 10.5 -54t29 -48.5t43.5 -34.5t53 -13q7 0 14 1t14 3l-89 -67q-12 -3 -23 -3q-25 0 -49 13.5t-42.5 34t-30 45.5
t-11.5 49q0 57 24.5 113.5t65.5 101t95 72.5t114 28q39 0 70 -9t40 -32v58v216q0 30 -11 52t-39 33q15 13 33 28t38 27.5t40.5 22t40.5 12.5v-533q26 26 50.5 49t51.5 40t58 26.5t71 9.5q27 0 54.5 -12.5t49.5 -33.5t36 -47.5t14 -54.5z" />
    <glyph glyph-name="Idieresis" unicode="&#xcf;" horiz-adv-x="600" 
d="M0 322q5 14 18 32.5t27 35.5q16 19 35 38h3q-21 35 -30.5 78.5t-9.5 92.5q0 25 14 52.5t34.5 53.5t44 48t42.5 36q-8 -12 -17 -27.5t-16.5 -32.5t-12.5 -34t-5 -31q0 -81 19.5 -141t67.5 -95h205h17.5t16.5 1q22 29 31 69.5t9 80.5q0 16 -4.5 34t-11.5 36t-16 35t-18 30
l84 71q20 -29 33.5 -62.5t13.5 -69.5q0 -58 -25 -116.5t-68 -105.5q28 2 59 4.5t50 7.5q-5 -15 -18 -33t-27 -35q-16 -19 -35 -38h-19q21 -35 30.5 -78.5t9.5 -92.5q0 -25 -14 -52.5t-34.5 -53.5t-44 -48.5t-42.5 -35.5q8 12 17 27.5t16.5 32.5t12.5 34t5 31q0 81 -19.5 141
t-67.5 95h-206q-8 -1 -16.5 -1h-16.5q-23 -29 -31.5 -70t-8.5 -80q0 -16 4.5 -34.5t11.5 -36.5t16 -34.5t18 -29.5l-84 -71q-20 29 -33.5 62.5t-13.5 69.5q0 58 25 116t67 106q-27 -2 -50 -4.5t-42 -7.5z" />
    <glyph glyph-name="Ntilde" unicode="&#xd1;" horiz-adv-x="252" 
d="M152 -352q-25 -20 -56.5 -42.5t-60.5 -33.5q5 23 8 79.5t4.5 131t2 158.5t0.5 161v178q0 30 -11 52t-39 33q15 13 33 28t38 27.5t40.5 22t40.5 12.5v-807z" />
    <glyph glyph-name="Ograve" unicode="&#xd2;" horiz-adv-x="284" 
d="M375 303q-6 9 -18 17q-11 6 -28.5 11.5t-44.5 5.5q-26 0 -44.5 -4t-33 -11t-27.5 -17.5t-27 -23.5v-223q-25 -21 -56.5 -43t-60.5 -33q5 23 8 41.5t4.5 39t2 45t0.5 58.5v114q0 30 -11 52t-39 33q15 13 33 28t38 27.5t40.5 22t40.5 12.5v-143q20 21 43 41.5t48 37.5
t50.5 27.5t50.5 10.5q13 0 29.5 -6t30.5 -13q17 -8 33 -18z" />
    <glyph glyph-name="agrave" unicode="&#xe0;" horiz-adv-x="0" 
d="M-197 634l-68 68l62 63l68 -69z" />
    <glyph glyph-name="aacute" unicode="&#xe1;" horiz-adv-x="0" 
d="M-197 -431l-68 69l62 62l68 -69z" />
    <glyph glyph-name="acircumflex" unicode="&#xe2;" horiz-adv-x="0" 
d="M-110 566l-61 68l55 62l60 -68zM-284 566l-60 68l54 62l61 -68z" />
    <glyph glyph-name="atilde" unicode="&#xe3;" horiz-adv-x="0" 
d="M-110 -431l-61 69l55 62l60 -69zM-284 -431l-60 69l54 62l61 -69z" />
    <glyph glyph-name="adieresis" unicode="&#xe4;" horiz-adv-x="0" 
d="M-199 695l-59 62l54 57l60 -63zM-105 570l-61 62l55 56l60 -62zM-289 570l-60 62l54 56l61 -62z" />
    <glyph glyph-name="aring" unicode="&#xe5;" horiz-adv-x="0" 
d="M-105 -419l-61 63l55 56l60 -62zM-289 -419l-60 63l54 56l61 -62zM-196 -544l-60 62l55 57l59 -63z" />
    <glyph glyph-name="ae" unicode="&#xe6;" horiz-adv-x="0" 
d="M-105 695l-61 62l55 57l60 -63zM-289 695l-60 62l54 57l61 -63zM-196 570l-60 62l55 56l59 -62z" />
    <glyph glyph-name="ccedilla" unicode="&#xe7;" horiz-adv-x="0" 
d="M-199 -419l-59 63l54 56l60 -62zM-105 -544l-61 62l55 57l60 -63zM-289 -544l-60 62l54 57l61 -63z" />
    <glyph glyph-name="egrave" unicode="&#xe8;" horiz-adv-x="0" 
d="M45 816q0 -1 -0.5 -2t-0.5 -2v-2q-20 -29 -54 -66t-74 -69.5t-82 -55t-77 -22.5q-32 0 -64.5 10.5t-60.5 28.5t-48 43.5t-28 55.5l72 86q11 -33 36 -55t56 -35.5t64.5 -19.5t63.5 -6q28 0 54.5 10t50.5 26t45.5 35.5t39.5 39.5q4 4 5 4q2 0 2 -4z" />
    <glyph glyph-name="eacute" unicode="&#xe9;" horiz-adv-x="0" 
d="M-28 -475q-11 33 -36 55t-56 35.5t-64.5 19t-63.5 5.5q-28 0 -54.5 -10t-50.5 -26t-45.5 -35.5t-39.5 -38.5q-4 -4 -5 -4q-2 0 -2 3q0 2 0.5 4t0.5 3q19 29 53.5 66t74.5 69.5t82 54.5t77 22q32 0 64.5 -10t60.5 -28.5t48 -44t28 -55.5z" />
    <glyph glyph-name="ecircumflex" unicode="&#xea;" horiz-adv-x="0" 
d="M332 926q0 -20 -12 -41.5t-26 -38.5q-17 -20 -38 -40q-8 31 -24 56q-14 21 -36 38.5t-57 17.5q-63 0 -116 -24.5t-95 -66.5t-73 -97.5t-49 -117.5q-2 -5 -6 -5q-7 0 -7 10q5 27 21 65t42.5 79.5t61.5 82.5t78.5 73.5t94 52.5t106.5 20q34 0 59.5 -8t42 -18.5t25 -21
t8.5 -16.5z" />
    <glyph glyph-name="igrave" unicode="&#xec;" horiz-adv-x="0" 
d="M175 958q0 -74 -33 -137t-84 -114q-17 -17 -50 -43t-70.5 -50.5t-74.5 -42t-63 -17.5q-8 0 -8 7q0 4 5 6q62 18 118 49t98 73t66.5 95t24.5 116q0 35 -18 57t-39 36q-25 16 -56 24q19 18 39 33q17 12 38.5 22.5t41.5 10.5q6 0 16.5 -6.5t21.5 -21.5t19 -39t8 -58z" />
    <glyph glyph-name="icircumflex" unicode="&#xee;" horiz-adv-x="0" 
d="M412 944q0 -15 -6.5 -30.5t-16 -30t-21 -27t-21.5 -21.5q-23 15 -49 26q-23 10 -53 18t-65 8q-61 0 -113 -17.5t-94 -48.5t-75 -72.5t-57 -89.5q22 28 54 56.5t75.5 51.5t100 37.5t126.5 14.5q27 0 51.5 -6t42.5 -15t29 -18.5t12 -16.5q0 -18 -11 -35.5t-27 -33.5
t-34 -28.5t-33 -20.5q-6 28 -19 51q-11 19 -32 35t-56 16q-63 0 -110.5 -8.5t-84 -29t-65 -54.5t-53.5 -84q-1 -5 -7 -5q-7 0 -7 6q0 3 1 4q5 27 25 69t51.5 89t73.5 94t90.5 85t102.5 62t110 24q27 0 56 -4.5t53 -11.5t39.5 -15t16.5 -15v-9z" />
    <glyph glyph-name="idieresis" unicode="&#xef;" horiz-adv-x="0" 
d="M223 1021q0 -87 -37.5 -161.5t-97.5 -134.5q-12 -12 -33.5 -29.5t-48 -36.5t-55.5 -37.5t-57 -33.5t-52.5 -24.5t-41.5 -9.5q-7 0 -7 7q0 5 4 6q55 25 99 63q18 16 36 36.5t32 45.5t22.5 54.5t8.5 64.5q0 53 -25.5 89t-56.5 58q-36 26 -81 40q5 7 20.5 17t35 19.5
t39 17.5t33.5 11q10 -4 28 -16t35 -32.5t30 -49.5t13 -66q0 -58 -15 -105.5t-39 -86t-53.5 -67t-58.5 -47.5q46 27 87 63.5t72 77.5t48.5 83.5t17.5 83.5q0 35 -11.5 62t-25.5 46q-16 22 -36 39q19 4 39 8q17 3 38 5.5t41 2.5q27 0 40 -18.5t13 -44.5z" />
    <glyph glyph-name="ntilde" unicode="&#xf1;" horiz-adv-x="0" 
d="M-100 -238q0 -25 -14 -52.5t-34.5 -55t-45.5 -52.5t-46.5 -44.5t-37 -31t-17.5 -11.5q5 0 22.5 19t37 46.5t35 58t15.5 54.5q0 27 -8.5 53.5t-24 49t-36.5 40t-46 28.5l85 73q25 -7 46 -25t36.5 -42.5t24 -52.5t8.5 -55z" />
    <glyph glyph-name="ograve" unicode="&#xf2;" horiz-adv-x="0" 
d="M-1 -134q0 -41 -24.5 -68.5t-60 -44.5t-76 -24.5t-72.5 -7.5q-43 0 -73 11t-52.5 28t-41 36.5t-37 36.5t-40.5 28t-52 11q-29 0 -47.5 -15.5t-18.5 -44.5q0 -23 20.5 -37.5t42.5 -14.5q4 0 12 2h1q0 -1 1 -1l1 -1q-6 -6 -18 -13t-26 -12.5t-30 -9.5t-29 -4q-19 0 -33 8
t-14 31q0 41 24.5 68.5t60 44.5t76 24.5t72.5 7.5q42 0 72.5 -11t53 -28t41 -36.5t37 -36.5t40.5 -28t52 -11q26 0 46 13t20 47q0 23 -20.5 37t-42.5 14q-3 0 -6 -0.5t-6 -0.5h-1h-1q-1 0 -1 1v1q1 0 1 0.5t1 0.5q16 11 44 24t57 13q19 0 33 -7.5t14 -30.5z" />
    <glyph glyph-name="oacute" unicode="&#xf3;" horiz-adv-x="0" 
d="M9 616q-23 -26 -48.5 -42.5t-54 -25.5t-60 -12t-66.5 -3q-42 0 -83.5 7.5t-82.5 17t-82 17t-83 7.5q-31 0 -58 -7q22 22 46 34.5t49.5 18.5t54 7.5t59.5 1.5q39 0 77.5 -6t76.5 -13t77 -13t78 -6q26 0 51 4t49 13z" />
    <glyph glyph-name="ocircumflex" unicode="&#xf4;" horiz-adv-x="0" 
d="M9 -179q-23 -26 -48.5 -42.5t-54 -25.5t-60 -12t-66.5 -3q-42 0 -83.5 8t-82.5 17t-82 17t-83 8q-15 0 -29.5 -1.5t-28.5 -6.5q22 22 46 34.5t49.5 19t54 8t59.5 1.5q39 0 77.5 -6t76.5 -13t77 -13t78 -6q26 0 51 3.5t49 12.5z" />
    <glyph glyph-name="otilde" unicode="&#xf5;" horiz-adv-x="0" 
d="M127 701q0 -51 -24.5 -87t-62 -59.5t-82 -34t-84.5 -10.5h-341q-27 0 -52.5 6t-45 17.5t-31 28t-11.5 37.5q0 23 9.5 42.5t24 35t32 29t34.5 24.5q7 5 12 5q2 0 3 -1q0 -1 -7 -10t-15 -22t-15 -28t-7 -28q0 -33 29 -51t93 -18h301q17 0 40.5 -1.5t47.5 -1.5q19 0 37 2
t31.5 7t22 15t8.5 25q0 10 -5 21.5t-12.5 22.5t-16 20.5t-15.5 17.5l79 56q7 -11 15 -29t8 -31z" />
    <glyph glyph-name="odieresis" unicode="&#xf6;" horiz-adv-x="0" 
d="M127 -240q0 -23 -9.5 -42.5t-24 -35t-32 -29t-34.5 -24.5q-7 -5 -12 -5q-2 0 -3 1q0 1 7 10t15 22t15 28t7 28q0 33 -29 51t-93 18h-301q-17 0 -40.5 1.5t-47.5 1.5q-19 0 -37 -2t-31.5 -7t-22 -15t-8.5 -25q0 -11 5 -22t12.5 -22t16 -21t15.5 -17l-79 -56
q-7 11 -15 28.5t-8 31.5q0 51 24.5 87t62 59.5t82 34t84.5 10.5h341q27 0 52 -6t44.5 -17.5t31.5 -28t12 -37.5z" />
    <glyph glyph-name="divide" unicode="&#xf7;" horiz-adv-x="0" 
d="M-277 152l-58 58l52 53l58 -59z" />
    <glyph glyph-name="oslash" unicode="&#xf8;" horiz-adv-x="550" 
d="M597 -20l-106 -32q-26 -8 -70.5 -21t-88 -33.5t-75 -50t-31.5 -69.5q0 -21 10.5 -35.5t26.5 -24t36 -14t38 -4.5q23 0 42 15t21 40l88 32q-3 -29 -30.5 -52.5t-64 -40.5t-75 -26.5t-62.5 -9.5q-18 0 -37 7t-34.5 22t-25 37.5t-9.5 53.5q0 27 16.5 53t41 48.5t53.5 38.5
t53 24l367 113z" />
    <glyph glyph-name="ugrave" unicode="&#xf9;" horiz-adv-x="550" 
d="M453 -143q0 -35 -20.5 -70.5t-52 -64.5t-69.5 -47.5t-73 -18.5q-21 0 -43 6t-40 17.5t-30 29t-13 41.5l88 25q1 -15 7.5 -29t17 -25t24.5 -17.5t29 -6.5q45 0 70.5 27.5t25.5 71.5q0 36 -23 58.5t-56 36t-69.5 20.5t-63.5 11l-432 69l98 64l513 -80q30 -5 51.5 -17.5
t35 -29.5t19.5 -35.5t6 -35.5z" />
    <glyph glyph-name="ucircumflex" unicode="&#xfb;" horiz-adv-x="550" 
d="M682 58q0 -4 -9 -13.5t-22 -20.5t-28 -23t-26 -21q-27 -23 -64 -52.5t-78.5 -59.5t-84.5 -59t-82.5 -51.5t-72.5 -36t-55 -13.5q-21 0 -40.5 6t-34.5 18t-24 29.5t-9 40.5q0 34 9.5 58t26 42t40 32t51.5 30q40 23 85 23q29 0 60.5 -12t49.5 -36l-90 -26q-11 15 -26.5 24
t-34.5 9q-45 0 -70.5 -17.5t-25.5 -61.5q0 -32 9.5 -49t26 -25t38.5 -9.5t48 -1.5q19 0 51.5 16.5t72.5 42t84 57.5t84.5 62.5t75 56.5t55.5 41q5 4 8 4q2 0 2 -4z" />
    <glyph glyph-name="udieresis" unicode="&#xfc;" horiz-adv-x="550" 
d="M796 425q0 -3 -9.5 -11t-23.5 -17.5t-31 -20t-32 -19.5t-26.5 -14.5t-14.5 -5.5h-450q-21 0 -41 7.5t-35 21t-24 33t-9 42.5q0 39 23 81.5t58 77.5t78 58t83 23q20 0 42 -7t40 -20.5t30 -32.5t13 -43l-108 -35q-2 30 -24.5 49t-53.5 19q-37 0 -61.5 -23t-24.5 -67
t30.5 -69.5t81.5 -25.5l485 1q4 0 4 -2z" />
    <glyph glyph-name="yacute" unicode="&#xfd;" horiz-adv-x="550" 
d="M796 425q0 -3 -9.5 -11t-23.5 -17.5t-31 -20t-32 -19.5t-26.5 -14.5t-14.5 -5.5h-335q-106 0 -153.5 -20t-47.5 -64q0 -28 10.5 -48.5t26.5 -33.5t36 -19.5t38 -6.5q39 0 50.5 15t12.5 41l88 31q-2 -19 -15 -36t-33.5 -31.5t-45.5 -25.5t-50.5 -19t-48.5 -12.5t-39 -4.5
q-18 0 -38 5t-37.5 18.5t-28.5 37t-11 59.5q0 24 21 48.5t55 47t77 42t88 34t87.5 23t75.5 8.5l350 1q4 0 4 -2z" />
    <glyph glyph-name="thorn" unicode="&#xfe;" horiz-adv-x="488" 
d="M569 244q0 -3 -1 -4q-53 -80 -101 -131t-91 -79.5t-81.5 -39t-72.5 -10.5q-41 0 -80.5 8.5t-71 28t-51 51t-19.5 78.5q0 48 16.5 88.5t43.5 72.5t60 56t66 40t62 24t48 8q36 0 69.5 -13.5t62.5 -34.5l-71 -83q-13 9 -30 18t-35 16t-36 11.5t-34 4.5q-44 0 -73.5 -10.5
t-46.5 -29.5t-24 -44t-7 -53q0 -43 21.5 -74t55 -51.5t74 -30t78.5 -9.5q44 0 80.5 20t67.5 50t58.5 64.5t54.5 63.5q2 2 3 2q5 0 5 -8z" />
    <glyph glyph-name="ydieresis" unicode="&#xff;" horiz-adv-x="488" 
d="M428 269q0 -49 -16.5 -89t-43.5 -72t-60 -56t-66 -40t-62 -24t-48 -8q-36 0 -69.5 13.5t-62.5 33.5l71 84q13 -9 29.5 -18t34.5 -16t36.5 -11.5t34.5 -4.5q44 0 73 10.5t46.5 29.5t24.5 43.5t7 53.5q0 43 -21.5 74t-55 51.5t-74 30t-78.5 9.5q-45 0 -81 -20t-68 -50
q-2 -2 -14 -15t-25.5 -27t-25 -25.5l-11.5 -11.5q-5 0 -5 8q0 6 9.5 20t22.5 29t25 28t18 19q34 35 65 57.5t60.5 36t56 18.5t51.5 5q40 0 80 -8.5t71.5 -28t51 -51t19.5 -78.5z" />
    <glyph glyph-name="Oslash" unicode="&#xd8;" horiz-adv-x="600" 
d="M572 38q-19 -15 -29 -25t-19 -16.5t-21.5 -9.5t-37.5 -3q-27 0 -51.5 20t-46 51.5t-39.5 71t-32.5 78t-24 72.5t-13.5 54q-9 -30 -21 -67.5t-28 -76t-36 -75t-45.5 -65t-57 -46t-70.5 -17.5l86 74q27 0 50.5 33t43 84t34 111t23.5 114q-8 47 -21.5 109t-34.5 127.5
t-50 129t-68.5 113.5t-90 80.5t-113.5 30.5q-18 0 -38.5 -6.5t-37.5 -19t-28.5 -29.5t-11.5 -38q0 -20 9 -44t22 -40l-66 -37q-5 3 -13 10t-15 15t-12 17t-5 16q0 39 25 78t62.5 70t80.5 50.5t79 19.5q70 0 126 -33t100 -86.5t77 -121.5t57 -137.5t40.5 -135t26.5 -113.5
q13 -60 32.5 -128t47.5 -125.5t66 -95.5t89 -38z" />
    <glyph glyph-name="Ugrave" unicode="&#xd9;" horiz-adv-x="600" 
d="M828 926q0 -20 -12 -41.5t-26 -38.5q-17 -20 -38 -40q-8 31 -24 56q-14 21 -36 38.5t-57 17.5q-75 0 -133.5 -36t-101.5 -91.5t-70 -124t-38 -132.5q10 -32 22.5 -81.5t28 -104.5t36.5 -110.5t48.5 -99.5t63 -72t81.5 -28q-19 -15 -29 -25t-19 -16.5t-21.5 -9.5t-37.5 -3
q-27 0 -51.5 20t-46 51.5t-39.5 71t-32.5 78t-24 72.5t-13.5 54q-9 -30 -21 -67.5t-28 -76t-36 -75t-45.5 -65t-57 -46t-70.5 -17.5l86 74q27 0 49.5 33.5t41.5 84t34 110.5t26 114q12 58 28.5 124.5t41 132t58.5 126t80.5 106.5t107.5 73.5t140 27.5q34 0 59.5 -8t42 -18.5
t25 -21t8.5 -16.5z" />
    <glyph glyph-name="Uacute" unicode="&#xda;" horiz-adv-x="600" 
d="M592 38q-19 -15 -29 -25t-19 -16.5t-21.5 -9.5t-37.5 -3q-27 0 -54 22t-52 56t-47.5 75t-40 80t-29 70t-14.5 44q0 -15 -8 -47t-22.5 -70.5t-36 -79t-49 -74t-61 -55t-71.5 -21.5l86 74q18 0 35 16t32.5 42.5t29 61.5t23 73t15.5 76.5t6 72.5q-16 38 -39.5 87t-45 102.5
t-36.5 107.5t-15 103q0 54 16 100.5t46.5 81t73.5 54.5t97 20q32 0 63 -15t39 -46l-64 -47q-15 21 -36.5 37.5t-48.5 16.5q-70 0 -97 -26t-27 -67q0 -71 28 -159t69.5 -183.5t87.5 -192.5t82 -186q10 -26 26.5 -53t38 -48.5t48.5 -35t59 -13.5z" />
    <glyph glyph-name="Ucircumflex" unicode="&#xdb;" horiz-adv-x="600" 
d="M572 38q-19 -15 -29 -25t-19 -16.5t-21.5 -9.5t-37.5 -3q-27 0 -50.5 17t-44 44.5t-37.5 61.5t-30 68t-22 65t-13 51q-13 -38 -35 -91t-54.5 -101t-76.5 -81.5t-102 -33.5l86 74q25 0 52 30.5t53 81t51.5 116.5t48 137t41 143t32.5 134t21.5 109.5t7.5 70.5q0 24 -7.5 42
t-19.5 31.5t-27.5 22.5t-31.5 15q-38 14 -86 16q27 18 51 33q20 12 41 22.5t33 10.5q2 0 21 -2.5t40.5 -14.5t39.5 -37.5t18 -70.5q0 -15 -7 -50t-18.5 -82t-26.5 -101.5t-31 -108.5t-33 -103t-31 -85l19 7q6 -40 16.5 -84.5t25.5 -87.5t34.5 -82t43.5 -68.5t52.5 -47
t62.5 -17.5z" />
    <glyph glyph-name="Udieresis" unicode="&#xdc;" horiz-adv-x="507" 
d="M1092 926q0 -20 -12 -41.5t-26 -38.5q-17 -20 -38 -40q-8 31 -24 56q-14 21 -36 38.5t-57 17.5q-71 0 -135.5 -29t-105.5 -83l-266 -354l15 3v-397q-25 -21 -56.5 -43t-60.5 -33q5 22 8.5 40t5 36.5t2 41t0.5 52.5q0 13 1.5 37t1.5 50q0 25 -2.5 48.5t-9.5 38.5
l-242 -323q-5 -7 -12 -9.5t-14 -2.5q-10 0 -16 3q-4 1 -6 3l99 143q1 -1 3 -1q2 -1 7 -1t13 3.5t16 14.5l499 659q26 35 60.5 66.5t75 55.5t85.5 38.5t92 14.5q34 0 59.5 -8t42 -18.5t25 -21t8.5 -16.5z" />
    <glyph glyph-name="Yacute" unicode="&#xdd;" horiz-adv-x="507" 
d="M700 958q0 -37 -8 -67.5t-23 -59t-37 -59t-50 -67.5l-190 -253l15 3v-397q-25 -21 -56.5 -43t-60.5 -33q5 22 8.5 40t5 36.5t2 41t0.5 52.5q0 13 1.5 37t1.5 50q0 25 -2.5 48.5t-9.5 38.5l-242 -323q-5 -7 -12 -9.5t-14 -2.5q-10 0 -16 3q-4 1 -6 3l99 143q1 -1 3 -1
q2 -1 7 -1q6 0 13.5 3.5t15.5 14.5l419 563q29 39 47 84t18 97q0 35 -18 57t-39 36q-25 16 -56 24q19 18 39 33q17 12 38.5 22.5t41.5 10.5q6 0 16.5 -6.5t21.5 -21.5t19 -39t8 -58z" />
    <glyph glyph-name="Oacute" unicode="&#xd3;" horiz-adv-x="202" 
d="M524 656q0 -38 -15.5 -65.5t-39 -45.5t-51.5 -29t-53 -16l-4 3q21 8 39 22q14 12 26.5 30.5t12.5 46.5q0 176 -188 176q-29 0 -49 -14t-32.5 -36t-18.5 -49t-6 -52q-1 -25 -2 -61t-2 -78.5t-1.5 -89.5t-0.5 -94q0 -75 2.5 -140.5t10.5 -105.5l-18 -22.5t-21.5 -24.5
t-25.5 -22t-29 -16q2 29 3 67t2 81.5t1 89v89.5q0 48 -0.5 91t-0.5 75v71q0 54 21 107.5t58 96.5t85.5 70t104.5 27q55 0 92 -13t59 -36.5t31.5 -57t9.5 -75.5z" />
    <glyph glyph-name="Ocircumflex" unicode="&#xd4;" horiz-adv-x="202" 
d="M152 58l-18 -22.5t-21.5 -24.5t-25.5 -22t-29 -16q2 29 3 72.5t2 95.5t1 109.5v113.5q0 60 -0.5 115.5t-0.5 98.5v93q0 24 -15 43.5t-40 33t-58 21t-70 7.5q-36 0 -60 -15t-39 -39t-21.5 -54.5t-6.5 -62.5q0 -31 6 -60.5t15 -53.5t19 -41t18 -23l-89 -67q-7 8 -16 26
t-16.5 41.5t-12.5 50.5t-5 53q0 57 24.5 113.5t66 101.5t95.5 73t114 28q48 0 81.5 -12t53.5 -32t29 -45.5t9 -53.5v-2q0 -26 -1 -67t-1.5 -91t-1.5 -106.5t-1 -111.5q0 -42 0.5 -82t2 -75t3.5 -63.5t6 -47.5z" />
    <glyph glyph-name="cedilla" unicode="&#xb8;" horiz-adv-x="460" 
d="M430 97q0 -1 -2 -5q-14 -18 -34.5 -38t-47.5 -36.5t-58.5 -27t-65.5 -10.5q-41 0 -80.5 8.5t-71 28t-51 51t-19.5 78.5q0 48 16.5 88.5t43.5 72.5t60 56t66 40t62 24t48 8q36 0 69.5 -13.5t62.5 -34.5l-71 -83q-13 9 -30 18t-35 16t-36 11.5t-34 4.5q-44 0 -73.5 -10.5
t-46.5 -29.5t-24 -44t-7 -53q0 -43 21.5 -74t55 -51.5t74 -30t78.5 -9.5q28 0 47 5t33 12t24 15t19 15q2 2 4 2q3 0 3 -4z" />
    <glyph glyph-name="onesuperior" unicode="&#xb9;" horiz-adv-x="458" 
d="M428 269q0 -49 -16.5 -89t-43.5 -72t-60 -56t-66 -40t-62 -24t-48 -8q-36 0 -69.5 13.5t-62.5 33.5l71 84q13 -9 29.5 -18t34.5 -16t36.5 -11.5t34.5 -4.5q44 0 73 10.5t46.5 29.5t24.5 43.5t7 53.5q0 43 -21.5 74t-55 51.5t-74 30t-78.5 9.5q-28 0 -47 -5t-33 -12
t-24 -15t-19 -15q-2 -2 -4 -2q-3 0 -3 4q0 1 2 5q13 18 34 37.5t48 36t58 27.5t66 11q40 0 80 -8.5t71.5 -28t51 -51t19.5 -78.5z" />
    <glyph glyph-name="ordmasculine" unicode="&#xba;" horiz-adv-x="460" 
d="M430 97q0 -1 -2 -5q-14 -18 -34.5 -38t-47.5 -36.5t-58.5 -27t-65.5 -10.5q-41 0 -80.5 8.5t-71 28t-51 51t-19.5 78.5q0 48 16.5 88.5t43.5 72.5t60 56t66 40t62 24t48 8q36 0 69.5 -13.5t62.5 -34.5l-71 -83q-13 9 -30 18t-35 16t-36 11.5t-34 4.5q-42 0 -70.5 -9.5
t-46 -26.5t-25.5 -40t-9 -49q81 2 164.5 6.5t162.5 21.5q-5 -20 -11.5 -39t-17.5 -33.5t-27.5 -23t-40.5 -8.5q-56 0 -110.5 3.5t-109.5 6.5q13 -29 37 -50t54 -34.5t63.5 -20t64.5 -6.5q28 0 47 5t33 12t24 15t19 15q2 2 4 2q3 0 3 -4z" />
    <glyph glyph-name="guillemotright" unicode="&#xbb;" horiz-adv-x="458" 
d="M428 269q0 -49 -16.5 -89t-43.5 -72t-60 -56t-66 -40t-62 -24t-48 -8q-36 0 -69.5 13.5t-62.5 33.5l71 84q13 -9 29.5 -18t34.5 -16t36.5 -11.5t34.5 -4.5q42 0 70.5 9.5t46 26.5t25.5 40t9 49q-81 -2 -164.5 -7t-162.5 -22q5 21 11.5 40t17.5 33.5t27.5 23t40.5 8.5
q56 0 110.5 -3.5t109.5 -6.5q-13 29 -37 50t-54 34.5t-63.5 20t-64.5 6.5q-28 0 -47 -5t-33 -12t-24 -15t-19 -15q-2 -2 -4 -2q-3 0 -3 4q0 1 2 5q13 18 34 37.5t48 36t58 27.5t66 11q40 0 80 -8.5t71.5 -28t51 -51t19.5 -78.5z" />
    <glyph glyph-name="onequarter" unicode="&#xbc;" horiz-adv-x="458" 
d="M784 270q-5 -21 -11.5 -40.5t-17.5 -33.5t-27 -22.5t-40 -8.5h-2q-142 2 -282 9.5t-283 7.5q-14 0 -27 -2.5t-13 -10.5q0 -29 25.5 -50.5t61 -36.5t72 -22.5t58.5 -7.5q28 0 47.5 4.5t33.5 11.5t24 15.5t20 15.5q2 2 4 2q3 0 3 -4q0 -1 -2 -5q-14 -18 -34.5 -38
t-47.5 -36.5t-58.5 -27t-65.5 -10.5q-41 0 -80.5 8.5t-71 28t-51 51t-19.5 78.5q0 48 16.5 88.5t43.5 72.5t60 56t66 40t62 24t48 8q36 0 69.5 -13.5t62.5 -34.5l-71 -83q-13 9 -30 18t-35 16t-36 11.5t-34 4.5q-66 0 -104.5 -25.5t-45.5 -85.5q8 2 27 2h45q85 0 168 -2
t168 -2q87 0 166.5 6t137.5 23z" />
    <glyph glyph-name="onehalf" unicode="&#xbd;" horiz-adv-x="458" 
d="M428 269q0 -49 -16.5 -89t-43.5 -72t-60 -56t-66 -40t-62 -24t-48 -8q-36 0 -69.5 13.5t-62.5 33.5l71 84q13 -9 29.5 -18t34.5 -16t36.5 -11.5t34.5 -4.5q66 0 104.5 25.5t45.5 85.5q-17 -3 -72 -3q-32 0 -72 1t-84.5 1.5t-91 1.5t-89.5 1q-75 0 -152.5 -4.5
t-150.5 -24.5q5 21 11.5 40.5t17.5 33.5t27.5 22.5t40.5 8.5h1q142 -1 282 -9t283 -8q14 0 27 2.5t13 10.5q0 28 -25.5 50t-61 37t-72 22.5t-58.5 7.5q-29 0 -48.5 -5t-33.5 -12t-24 -15t-19 -15q-2 -2 -4 -2q-3 0 -3 4q0 1 2 5q13 18 34 37.5t48 36t58 27.5t66 11
q40 0 80 -8.5t71.5 -28t51 -51t19.5 -78.5z" />
    <glyph glyph-name="threequarters" unicode="&#xbe;" horiz-adv-x="333" 
d="M303 98q0 -4 -1 -5q-14 -18 -33 -38t-41 -36.5t-46.5 -27.5t-48.5 -11q-21 0 -44.5 2.5t-43 11.5t-32.5 25.5t-13 44.5q0 34 20.5 66.5t48.5 58.5q-29 11 -49 26.5t-20 44.5q0 24 20.5 54.5t48.5 58.5t57 47t45 19q19 0 36 -6t30 -14q15 -9 28 -20l-59 -70q-8 9 -19 16
q-9 6 -23 11t-32 5q-32 0 -46.5 -15.5t-14.5 -38.5q0 -33 28.5 -51t93.5 -18l-60 -62q-38 0 -49.5 -15.5t-11.5 -38.5q0 -17 8.5 -30t23 -22t32.5 -13.5t37 -4.5q28 0 47.5 5t33 12t23.5 15.5t19 15.5l4 2q3 0 3 -4z" />
    <glyph glyph-name="questiondown" unicode="&#xbf;" horiz-adv-x="333" 
d="M295 139q0 -24 -22 -51.5t-52 -51.5t-60.5 -40t-46.5 -16q-20 0 -39.5 7.5t-36.5 16.5q-19 11 -38 25l59 70q15 -15 33 -26q15 -10 33.5 -18t36.5 -8q32 0 51.5 17.5t19.5 46.5q0 33 -33.5 51.5t-97.5 18.5l60 62q38 0 49.5 15.5t11.5 38.5q0 33 -26.5 51t-65.5 18
q-41 0 -62 -6.5t-41 -20.5q-2 -2 -4 -2q-3 0 -3 4q0 1 2 5q13 18 29 34.5t34.5 29.5t40 21t45.5 8q21 0 43 -7t39.5 -18.5t28.5 -27t11 -32.5q0 -33 -20 -65.5t-48 -58.5q14 -6 26.5 -11.5t22 -14.5t15 -24.5t5.5 -40.5z" />
    <glyph glyph-name="period" unicode="." horiz-adv-x="906" 
d="M1182 596q-13 57 -53 83.5t-97 26.5q-34 0 -62.5 -32t-49.5 -88t-32.5 -132.5t-11.5 -164.5q0 -40 -27 -92.5t-68 -102.5q51 2 91 4.5t57 6.5q-5 -14 -18 -32.5t-27 -34.5q-16 -19 -35 -38h-849q5 23 19 47.5t30 45.5q1 17 1 35.5v42.5v119q0 30 -11 52t-39 33
q15 13 33 28t38 27.5t40.5 22t40.5 12.5v-153q25 26 49 49t50 40t57 26.5t70 9.5q23 0 44 -9t39 -23t33 -32.5t26 -37.5q24 23 46 42t45.5 32.5t51 20.5t62.5 7q23 0 46 -9t43 -25q20 79 53 148t74 120t86.5 80t90.5 29q27 0 51.5 -10t42.5 -27t29.5 -40t13.5 -50zM804 182
q0 30 -11.5 62.5t-32.5 59.5t-49.5 44.5t-61.5 17.5q-12 0 -32.5 -6.5t-40 -17t-34 -24t-14.5 -27.5q0 -41 -28 -95.5t-70 -105.5q82 0 163 0.5t163 2.5q23 17 35.5 40t12.5 49zM456 182q0 30 -11.5 62.5t-32 59.5t-48.5 44.5t-62 17.5q-20 0 -40.5 -8.5t-40.5 -21.5
t-37.5 -27.5t-31.5 -27.5v-190l251 -1q25 16 39 40.5t14 51.5z" />
    <glyph glyph-name="slash" unicode="/" 
d="M582 -288q0 49 -25 82.5t-66 58t-93 44t-107 40t-107 45.5t-93 61.5t-66 87t-25 121.5q0 24 11 47.5t28.5 44.5t38 39t39.5 30q-14 -20 -23 -41.5t-9 -44.5q0 -63 18.5 -109.5t49.5 -81.5t72.5 -60t86.5 -44q23 18 48 40t45.5 48t33.5 54t13 58q0 16 -4.5 34t-11.5 36
t-16 35t-18 30l83 71q21 -29 34.5 -62.5t13.5 -69.5q0 -17 -14.5 -53t-40 -78.5t-60.5 -85t-76 -70.5q58 -23 115 -43.5t102.5 -47t73.5 -63.5t28 -93z" />
    <glyph glyph-name="asterisk" unicode="*" horiz-adv-x="548" 
d="M518 269q0 -52 -26.5 -103.5t-69 -93t-95 -67t-104.5 -25.5q-40 0 -79.5 8t-71.5 27.5t-52 51t-20 79.5q0 52 26.5 103.5t69 92.5t95.5 67t105 26q40 0 80 -8.5t71.5 -28t51 -51t19.5 -78.5zM233 181v181q-4 0 -7.5 0.5t-7.5 0.5q-72 0 -109.5 -37t-37.5 -109
q0 -43 21.5 -74t55 -51.5t74 -30t78.5 -9.5q72 0 110 37t38 109q0 33 -13 58.5t-34.5 45t-49.5 32.5t-58 20v-118z" />
    <glyph glyph-name="ordfeminine" unicode="&#xaa;" horiz-adv-x="725" 
d="M763 443q-6 -15 -19 -33t-27 -35q-16 -19 -34 -38h-77q2 -1 7 -6.5t5 -26.5q0 -57 -24 -114.5t-65 -104t-95 -76t-113 -29.5q-62 0 -106 21.5t-72.5 58t-42 86t-13.5 106.5q0 23 9.5 44t25.5 41h-160q4 20 16 42t26 41.5t28.5 34.5t24.5 22q11 -27 27 -38t43 -11h355
q105 0 178.5 4t102.5 11zM321 180v157h-148q-2 -11 -2 -21v-21q0 -54 15.5 -99t45.5 -77.5t75 -50.5t105 -18q37 0 61 16t38.5 41.5t20.5 58t6 64.5q0 35 -15 63t-29 44h-113v-102z" />
    <glyph glyph-name="guillemotleft" unicode="&#xab;" horiz-adv-x="715" 
d="M753 105q-6 -14 -19 -32.5t-27 -34.5q-16 -19 -34 -38h-260v-17q0 -53 0.5 -103.5t2 -93.5t4 -76.5t5.5 -52.5q-8 -10 -17.5 -22t-21.5 -24t-26 -22t-29 -16q5 81 7.5 163t2.5 165q0 25 -0.5 49.5t-0.5 49.5h-108q-72 0 -140 -2.5t-113 -13.5q5 14 18 32.5t27 35.5
q16 19 35 38h54q0 5 -0.5 8.5t-0.5 8.5q0 57 24.5 115t66 105t95.5 76.5t114 29.5q62 0 106 -21.5t72.5 -58.5t41.5 -86.5t13 -106.5q0 -17 -10.5 -33.5t-21.5 -32.5q100 3 140 11zM560 92q-1 98 -32 165t-110 92q-2 -42 -2.5 -111t-1.5 -148q38 0 74.5 0.5t71.5 1.5z
M339 90q-1 69 -2 136.5t-1 135.5q-42 0 -69.5 -14.5t-43.5 -39t-22.5 -57.5t-6.5 -70q0 -21 7 -44.5t18 -46.5h120z" />
    <glyph glyph-name="logicalnot" unicode="&#xac;" horiz-adv-x="725" 
d="M538 230q0 35 -15 63t-29 44h-87q-1 -48 -2 -125t-1 -162h8q37 0 61 16t38.5 41.5t20.5 57.5t6 65zM329 61q-1 69 -1.5 138t-1.5 138h-153q-2 -11 -2 -21v-21q0 -88 39.5 -150t118.5 -84zM763 443q-6 -15 -19 -33t-27 -35q-16 -19 -34 -38h-78q3 0 6 -4q2 -3 4.5 -10
t2.5 -19q0 -47 -16.5 -94t-45.5 -89t-68.5 -75t-84.5 -50v-13q0 -53 0.5 -103.5t2 -93.5t4 -76.5t5.5 -52.5q-8 -10 -17.5 -22t-21.5 -24t-26 -22t-29 -16q5 81 7.5 163t2.5 165q0 20 -0.5 39.5t-0.5 39.5q-65 0 -111 20.5t-75 56.5t-43 86t-14 109q0 23 9.5 44t25.5 41
h-160q4 20 16 42t26 41.5t28.5 34.5t24.5 22q11 -27 27 -38t43 -11h355q105 0 178.5 4t102.5 11z" />
    <glyph glyph-name="x" unicode="x" horiz-adv-x="830" 
d="M800 225q0 -31 -7.5 -53.5t-21 -41.5t-32.5 -35t-42 -33q-19 -14 -41 -28.5t-46 -26.5t-48.5 -19.5t-49.5 -7.5q-26 0 -50.5 11.5t-45 30t-36 41t-24.5 44.5q-21 -28 -42 -51.5t-45.5 -40t-54 -26t-66.5 -9.5q-28 0 -54.5 13.5t-47.5 35.5t-33.5 49.5t-12.5 54.5
q0 23 7.5 44.5t18.5 42.5q19 38 45.5 74t60.5 64t74 45t85 17h63q0 61 -0.5 108t-1 82t-1 60t-0.5 42q-2 40 -3 49q7 10 17 22t22 24t25.5 22t29.5 16q-2 -12 -3 -61q0 -21 -0.5 -52t-1 -75t-0.5 -102.5v-134.5h189q38 0 70 -17t55 -45t36 -62.5t13 -70.5zM722 151
q0 37 -8.5 74.5t-27.5 67.5t-49.5 49t-73.5 19h-128v-137q0 -33 17 -63.5t43.5 -54.5t59 -38.5t64.5 -14.5q43 0 73 26.5t30 71.5zM354 361q-35 0 -64.5 2.5t-64.5 2.5q-154 0 -154 -157q0 -33 17 -61.5t44 -49.5t59.5 -33t63.5 -12q15 0 32.5 10t32 26t24.5 34t10 35v203z
" />
    <glyph glyph-name="y" unicode="y" horiz-adv-x="995" 
d="M965 306q0 -57 -24 -115t-65 -105t-95 -76.5t-114 -29.5q-82 0 -137 42q-2 2 -2.5 7.5t-2.5 6.5v-17q0 -31 -0.5 -63.5t-0.5 -64.5q0 -70 2.5 -132t9.5 -102q-8 -10 -17.5 -22.5t-21.5 -24.5t-25.5 -22t-29.5 -16q2 29 3.5 66t2 78t1 84.5t0.5 85.5q0 64 -1 117.5
t-1 80.5v21q-2 -2 -3 -8.5t-3 -8.5q-40 -45 -93.5 -76.5t-115.5 -31.5t-106 21.5t-72 58.5t-41 86.5t-13 105.5q0 25 14 52.5t35 53.5t44.5 48t42.5 36q-8 -12 -17.5 -27.5t-17 -32.5t-12.5 -34t-5 -32q0 -63 11.5 -114t39.5 -87t74 -55.5t114 -19.5q29 0 52 14t39 36
t24.5 48.5t9.5 52.5q0 25 1.5 61t2.5 78.5t2 89.5t1 94q0 75 -2.5 141t-10.5 106q7 10 17 22t22 24t26 22t29 16q-2 -29 -3 -67t-2 -81t-1 -89v-90v-166q0 -38 1 -71v-4q0 -51 11 -94t37 -75t69.5 -50t109.5 -18q39 0 63.5 20.5t38.5 50.5t19 65t5 65q0 16 -6 34t-15 36
t-19.5 35t-19.5 30l93 61q21 -29 34.5 -62t13.5 -69z" />
    <glyph glyph-name="z" unicode="z" horiz-adv-x="830" 
d="M800 225q0 -31 -7.5 -53.5t-21 -41.5t-32.5 -35t-42 -33q-19 -14 -41 -28.5t-46 -26.5t-48.5 -19.5t-49.5 -7.5q-22 0 -42.5 8t-38.5 22q-1 -29 -1.5 -59t-0.5 -60q0 -70 2.5 -132t10.5 -102q-8 -10 -17.5 -22.5t-21.5 -24.5t-26 -22t-29 -16q2 28 3 65t2 77.5t1 83.5v84
q0 66 -0.5 120t-0.5 82v18q-21 -27 -41.5 -49.5t-44.5 -38.5t-53 -25t-66 -9q-28 0 -54.5 13.5t-47.5 35.5t-33.5 49.5t-12.5 54.5q0 23 7.5 44.5t18.5 42.5q19 38 45.5 74t60.5 64t74 45t85 17h63q0 20 1 44q0 20 0.5 46t0.5 55q0 28 -0.5 57.5t-1.5 56t-2.5 48t-3.5 34.5
q7 10 17 22t22 24t25.5 22t29.5 16q-2 -25 -3 -60.5t-2 -75t-1 -80.5v-78v-93q0 -21 1 -38h189q38 0 70 -17t55 -45t36 -62.5t13 -70.5zM722 151q0 37 -8.5 74.5t-27.5 67.5t-49.5 49t-73.5 19h-128v-137q0 -33 17 -63.5t43.5 -54.5t59 -38.5t64.5 -14.5q43 0 73 26.5
t30 71.5zM354 361q-35 0 -64.5 2.5t-64.5 2.5q-154 0 -154 -157q0 -33 17 -61.5t44 -49.5t59.5 -33t63.5 -12q15 0 32.5 10t32 26t24.5 34t10 35v203z" />
    <glyph glyph-name="plus" unicode="+" horiz-adv-x="548" 
d="M411 -362q-31 0 -63.5 12t-59.5 33t-44 50t-17 63q0 35 0.5 81.5t2.5 103.5q-2 0 -3.5 -0.5t-3.5 -0.5q-40 0 -79.5 8t-71.5 27.5t-52 51t-20 79.5q0 52 26.5 103.5t69 92.5t95.5 67t105 26q40 0 80 -8.5t71.5 -28t51 -51t19.5 -78.5q0 -43 -18.5 -86t-50 -80.5
t-72 -66.5t-83.5 -43l1 -137q0 -34 17 -63t43.5 -50t59 -33t64.5 -12q18 0 35 8t30 22t21 32.5t8 39.5t-9.5 43.5t-21.5 38.5l75 37q10 -11 18 -22q7 -9 12.5 -19.5t5.5 -17.5q0 -39 -24.5 -78.5t-60.5 -71.5t-78.5 -52t-78.5 -20zM233 362q-4 0 -7.5 0.5t-7.5 0.5
q-72 0 -109.5 -37t-37.5 -109q0 -34 13.5 -60.5t36 -46t51 -32t59.5 -19.5q1 47 1.5 96t0.5 103v104zM300 52q72 0 110 37t38 109q0 33 -13 58.5t-34.5 45t-49.5 32.5t-58 20l1 -302h6z" />
    <glyph glyph-name="Agrave" unicode="&#xc0;" horiz-adv-x="600" 
d="M0 337q4 20 15.5 42t26 41.5t28.5 34.5t24 22q11 -28 28 -39t47 -11h152q89 0 157 2.5t112 13.5q-5 -15 -18 -33t-27 -35q-16 -19 -35 -38h-358v-90q38 10 80 19t82.5 16.5t77.5 12t66 4.5q30 0 50.5 -8t33.5 -22t19 -32t6 -37q0 -35 -23 -72.5t-58 -68t-78 -50
t-83 -19.5q-20 0 -42 7t-40 20.5t-30 32.5t-13 43l108 35q2 -30 24.5 -49t53.5 -19q37 0 61.5 14.5t24.5 50.5q0 18 -4.5 34.5t-17 28.5t-34.5 19.5t-56 7.5q-38 0 -93 -5t-115 -16v-136q-25 -21 -56.5 -43t-60.5 -33q5 22 8 40t4.5 36.5t2 41t0.5 52.5v128q0 35 -14 57h-36
z" />
    <glyph glyph-name="Aacute" unicode="&#xc1;" horiz-adv-x="600" 
d="M0 337q4 20 15.5 42t26 41.5t28.5 34.5t24 22q11 -28 28 -39t47 -11h152q89 0 157 2.5t112 13.5q-5 -15 -18 -33t-27 -35q-16 -19 -35 -38h-358v-90q38 10 80 19t82.5 16.5t77.5 12t66 4.5q30 0 50.5 -8t33.5 -22t19 -32t6 -37q0 -27 -15.5 -53.5t-40.5 -52.5
q30 2 47.5 5t31.5 6q-5 -14 -18 -32.5t-27 -34.5q-16 -19 -35 -38h-510q5 23 19 48t31 46v186q0 35 -14 57h-36zM472 125q0 18 -4.5 34.5t-17 28.5t-34.5 19.5t-56 7.5q-38 0 -93.5 -9t-114.5 -21v-94q51 -1 96 -1.5t89 -0.5q64 0 126 3q9 12 9 33z" />
    <glyph glyph-name="Atilde" unicode="&#xc3;" horiz-adv-x="600" 
d="M139 0q-26 0 -50.5 2t-50.5 2q-10 0 -23 -1t-25 -5t-20 -12t-8 -22q0 -22 12.5 -45t26.5 -38l-88 -66q-13 23 -13 50q0 52 20 88.5t51.5 61.5t71 39.5t78 22t73 9.5t56.5 2q-8 35 -10 84t-2 110v52l7 3h-240q4 20 15.5 42t26 41.5t28.5 34.5t24 22q11 -28 28 -39t47 -11
h152q89 0 157 2.5t112 13.5q-5 -15 -18 -33t-27 -35q-16 -19 -35 -38h-199l-2 -47q28 0 67.5 -3t75 -14t60.5 -33t25 -60q0 -39 -18 -72t-47.5 -57t-67.5 -37.5t-78 -13.5h-192zM457 130q0 50 -36.5 73t-106.5 29v-32q0 -26 1.5 -54t8.5 -51.5t20 -38.5t37 -15q76 0 76 89z
" />
    <glyph glyph-name="AE" unicode="&#xc6;" horiz-adv-x="995" 
d="M965 166q0 -25 -14 -52.5t-35 -53.5t-44.5 -48.5t-42.5 -35.5q8 12 17 27.5t16.5 32.5t12.5 34t5 31q0 63 -11.5 114t-39 87t-73.5 55.5t-114 19.5q-29 0 -52 -14t-39.5 -35.5t-25.5 -48.5t-9 -52v-367h20h63t43.5 1.5t40 5t52.5 9.5q-6 -15 -19 -33t-27 -35
q-16 -19 -34 -38h-453q4 20 16 42t26 41.5t28.5 34.5t23.5 22q11 -28 28.5 -39t46.5 -11h64v49t0.5 55t0.5 50v33q0 67 -6 127t-29 105t-69 71.5t-126 26.5q-39 0 -63 -20t-38 -50t-19 -65t-5 -65q0 -16 6 -34.5t14.5 -36.5t19 -34.5t19.5 -29.5l-93 -62q-21 29 -34 62.5
t-13 69.5q0 57 24 115t65 105t95 76.5t114 29.5q71 0 124 -33.5t81 -99.5q20 27 45.5 51t55 42t62 29t67.5 11q61 0 105 -21.5t72.5 -58.5t41.5 -86.5t13 -105.5z" />
    <glyph glyph-name="Acircumflex" unicode="&#xc2;" horiz-adv-x="600" 
d="M567 105q-6 -14 -19 -32.5t-27 -34.5q-16 -19 -34 -38h-298q-60 0 -117 -3.5t-93 -12.5q5 14 18 32.5t27 35.5q16 19 35 38h326v72q-36 -9 -74 -17t-74.5 -14t-69.5 -9.5t-58 -3.5q-30 0 -50.5 8t-33.5 22t-19 31.5t-6 37.5q0 35 23 72.5t58 68t78 50t83 19.5q20 0 42 -7
t40 -20.5t30 -32.5t13 -43l-108 -35q-2 30 -24.5 49t-53.5 19q-37 0 -61.5 -14.5t-24.5 -50.5q0 -18 4.5 -34.5t17 -28.5t34 -19.5t56.5 -7.5q33 0 80 6.5t98 16.5v134q25 20 56.5 42.5t60.5 33.5q-5 -22 -8 -39t-4.5 -34.5t-2 -38.5t-0.5 -51v-126q0 -31 13 -50z" />
    <glyph glyph-name="Aring" unicode="&#xc5;" horiz-adv-x="600" 
d="M595 443q-5 -15 -18 -33t-27 -35q-16 -19 -35 -38h-199l-2 -47q28 0 67.5 -3t75 -14t60.5 -33t25 -60q0 -39 -18 -72t-47.5 -57t-67.5 -37.5t-78 -13.5q-58 0 -80 47q-37 -22 -79.5 -34.5t-70.5 -12.5q-18 0 -35.5 3.5t-31 15.5t-21.5 34t-8 58q0 29 20.5 56t53.5 49.5
t74.5 39.5t84.5 26v52l7 3h-240q4 20 15.5 42t26 41.5t28.5 34.5t24 22q11 -28 28 -39t47 -11h152q89 0 157 2.5t112 13.5zM457 130q0 50 -36.5 73t-106.5 29v-32q0 -26 1.5 -54t8.5 -51.5t20 -38.5t37 -15q76 0 76 89zM239 235q-27 0 -53.5 -7t-47.5 -19t-34 -29.5
t-13 -39.5q0 -97 71 -97q32 0 55 14.5t23 40.5z" />
    <glyph glyph-name="Adieresis" unicode="&#xc4;" horiz-adv-x="600" 
d="M595 443q-5 -15 -18 -33t-27 -35q-16 -19 -35 -38h-199v-287q64 3 94.5 5t45 2.5t23 1t28.5 0.5q31 0 60 -5t51 -18.5t35 -37.5t13 -63q0 -18 -12.5 -35t-29.5 -33t-36.5 -28.5t-32.5 -21.5q12 28 12 60q0 54 -26 88.5t-84 34.5h-356q-18 0 -35.5 3.5t-31 15.5t-21.5 34
t-8 58q0 29 20.5 56t53.5 49.5t74.5 39.5t84.5 26v52l7 3h-240q4 20 15.5 42t26 41.5t28.5 34.5t24 22q11 -28 28 -39t47 -11h152q89 0 157 2.5t112 13.5zM239 235q-27 0 -53.5 -7t-47.5 -19t-34 -29.5t-13 -39.5q0 -97 71 -97h30.5t24.5 1q12 0 23 1z" />
    <glyph glyph-name="Icircumflex" unicode="&#xce;" horiz-adv-x="926" 
d="M356 59q-31 -28 -52 -43.5t-36 -23.5t-25.5 -10t-20.5 -2q-41 0 -80.5 8.5t-71 28t-51 51t-19.5 78.5q0 68 22.5 115t59 79t82 52t91 34t86.5 24.5t68 23.5v196q0 49 19 93t49.5 77t70.5 52t82 19q18 0 30 -15t20 -35.5t11.5 -41.5t3.5 -33q0 -46 -15.5 -88.5t-41 -78.5
t-58.5 -65.5t-69 -50.5v-191q26 26 50.5 49t51.5 40t58 26.5t71 9.5q27 0 54.5 -12.5t49.5 -33.5t36 -47.5t14 -54.5q0 -24 -10.5 -55.5t-29 -64.5t-42.5 -65.5t-51 -57.5t-55 -40.5t-54 -15.5q-8 0 -18 7t-19 15q-11 10 -22 22l57 65q17 -13 36 -22t40 -9t38.5 11
t29.5 27.5t19 37t7 38.5q0 31 -12 63.5t-33 59.5t-50 44t-63 17q-20 0 -41 -8.5t-41.5 -21t-38.5 -27.5t-32 -28v-223q-25 -21 -56.5 -43t-60.5 -33q4 21 7 70t5 114t2.5 139.5t0.5 146.5q-26 -14 -61 -23.5t-72.5 -20t-74 -24t-65.5 -35t-47 -53.5t-18 -79q0 -43 21.5 -74
t55 -51.5t74 -30t78.5 -9.5q17 0 31 2t25 5zM622 728q0 26 -4.5 50t-13.5 42.5t-22.5 29.5t-32.5 11q-14 0 -22 -11t-11.5 -26.5t-4 -32t-0.5 -26.5v-237q51 35 81 84t30 116z" />
    <glyph glyph-name="Eth" unicode="&#xd0;" horiz-adv-x="252" 
d="M152 58q-25 -21 -56.5 -43t-60.5 -33q5 23 8 41.5t4.5 39t2 45t0.5 58.5v114q0 30 -11 52t-39 33q15 13 33 28t38 27.5t40.5 22t40.5 12.5v-397z" />
    <glyph glyph-name="iacute" unicode="&#xed;" horiz-adv-x="0" 
d="M-727 -616q0 20 12 41.5t26 38.5q17 20 38 40q8 -31 24 -56q14 -21 36 -38.5t57 -17.5q63 0 116 24.5t95 66.5t73 97.5t49 117.5q2 5 6 5q7 0 7 -10q-5 -27 -21 -65t-42.5 -79.5t-61.5 -82.5t-78.5 -73.5t-94 -52.5t-106.5 -20q-34 0 -59.5 7.5t-42 18t-25 21.5t-8.5 17z
" />
    <glyph glyph-name="eth" unicode="&#xf0;" horiz-adv-x="0" 
d="M15 808q-2 -51 -16.5 -90t-37 -66t-50.5 -41t-56 -14q-29 0 -53.5 9.5t-37.5 37.5q-24 -24 -52.5 -35.5t-55.5 -11.5q-45 0 -68.5 33t-23.5 105l73 73q2 -52 23.5 -78.5t53.5 -26.5t61 21.5t45 75.5q1 3 3 3q2 -30 9.5 -49t19.5 -30.5t28 -16t34 -4.5q32 0 58 25.5
t41 79.5h2z" />
    <glyph glyph-name="edieresis" unicode="&#xeb;" horiz-adv-x="0" 
d="M-566 -698q0 74 33 137t84 114q17 17 50 43t70.5 50.5t74.5 42t63 17.5q8 0 8 -7q0 -4 -5 -6q-62 -18 -118 -49t-98 -73t-66.5 -95t-24.5 -116q0 -35 17.5 -57t38.5 -36q25 -16 57 -24q-19 -19 -39 -33q-17 -13 -38.5 -23t-41.5 -10q-6 0 -16.5 6.5t-21.5 21.5t-19 38.5
t-8 58.5z" />
    <glyph glyph-name="uacute" unicode="&#xfa;" horiz-adv-x="550" 
d="M453 -143q0 -35 -20.5 -70.5t-52 -64.5t-69.5 -47.5t-73 -18.5q-21 0 -43 6t-40 17.5t-30 29t-13 41.5l88 25q1 -15 7.5 -29t17 -25t24.5 -17.5t29 -6.5q45 0 70.5 27.5t25.5 71.5q0 36 -23 58.5t-56 36t-69.5 20.5t-63.5 11l-432 69l98 64l513 -80q30 -5 51.5 -17.5
t35 -29.5t19.5 -35.5t6 -35.5zM78 -224l-61 69l55 62l60 -69zM-88 -194l-60 69l54 62l61 -69z" />
    <glyph glyph-name="Euro" unicode="&#x20ac;" 
d="M385 359q25 20 56.5 42.5t60.5 33.5q-5 -22 -8 -39t-4.5 -34.5t-2 -38.5t-0.5 -51v-126q0 -29 11 -46.5t39 -28.5q-15 -13 -33 -27.5t-38 -27.5t-40.5 -22t-40.5 -12v70q-38 -32 -89 -52t-108 -20q-35 0 -62 16t-48 42.5t-36 60.5t-24 70.5t-13.5 72.5t-4.5 65
q0 93 29.5 173t76.5 138.5t104.5 92t114.5 33.5q24 0 49 -10t45.5 -26.5t33.5 -39t13 -47.5v-16t-2 -17l-77 -89l-3 2q1 8 3 15q2 6 3 12t1 9q0 28 -13.5 51.5t-34.5 40t-48 25.5t-55 9q-32 0 -62.5 -9.5t-54.5 -38t-38.5 -80.5t-14.5 -137q0 -60 7.5 -121.5t29 -111.5
t59.5 -81.5t100 -31.5q24 0 45.5 4t38 14t26 28t9.5 47v214z" />
    <glyph glyph-name="hyphen" unicode="-" 
d="M590 443q-5 -15 -18 -33t-27 -35q-16 -19 -35 -38h-19q21 -35 30.5 -78.5t9.5 -92.5q0 -25 -14 -52.5t-34.5 -53.5t-44 -48.5t-42.5 -35.5q8 12 17 27.5t16.5 32.5t12.5 34t5 31q0 81 -19.5 141t-67.5 95l-49 -1q0 -20 -0.5 -46.5t-0.5 -57.5q0 -40 2 -82.5t10 -83.5
q-8 -10 -17.5 -22t-21.5 -24t-26 -22t-29 -16q4 57 5 116.5t1 110.5q0 27 -0.5 50t-0.5 40v35v3h-111q-23 -29 -32 -70t-9 -81q0 -16 4.5 -34.5t11.5 -36.5t16 -34.5t18 -29.5l-84 -71q-20 29 -33.5 62.5t-13.5 69.5q0 59 25.5 118t69.5 107h-95q4 20 15.5 42t26 41.5
t28.5 34.5t24 22q7 -17 16 -27t21 -15t27 -6.5t34 -1.5h41q0 34 0.5 61t1 53t1 56.5t0.5 72.5q0 30 -11 52t-39 33q21 23 43 42q19 16 40.5 30.5t41.5 17.5v-418q89 0 162 2.5t117 13.5z" />
    <glyph glyph-name="l" unicode="l" 
d="M533 306q0 -54 -22 -109t-60 -101q27 2 47.5 4.5t31.5 4.5q-5 -15 -18 -33t-27 -34q-16 -18 -35 -38h-362q-51 0 -91 -3.5t-57 -8.5q5 14 18 32.5t27 35.5q16 19 35 38h14q-17 33 -25 73t-8 85q0 25 14 52.5t35 53.5t44.5 48t42.5 36q-8 -12 -17 -27.5t-16.5 -32.5
t-12.5 -34t-5 -32q0 -73 16 -129.5t55 -92.5h82v91q0 30 -0.5 75.5t-2 95.5t-5 100t-10.5 88q7 10 17 22t22 24t25.5 22t29.5 16q-3 -49 -5.5 -113t-5 -127t-3.5 -118t-1 -85v-91h120q17 29 24.5 66t7.5 72q0 16 -4.5 34t-11.5 36t-16 35t-18 30l83 71q21 -29 34.5 -62.5
t13.5 -69.5z" />
    <glyph glyph-name="comma" unicode="," horiz-adv-x="563" 
d="M533 306q0 -57 -24.5 -115t-66 -105t-95.5 -76.5t-114 -29.5q-62 0 -105.5 21.5t-72 58.5t-41.5 86.5t-13 105.5q0 25 14 52.5t35 53.5t44.5 48t42.5 36q-8 -12 -17 -27.5t-16.5 -32.5t-12.5 -34t-5 -32q0 -52 7.5 -95.5t25.5 -78t47.5 -58t72.5 -35.5v136
q0 30 -0.5 75.5t-2 95.5t-5 100t-10.5 88q7 10 17 22t22 24t25.5 22t29.5 16q-3 -49 -5.5 -113t-5 -127t-3.5 -118t-1 -85v-144q5 -1 11.5 -1h12.5q37 0 62 18t39.5 45.5t20.5 61.5t6 67q0 16 -4.5 34t-11.5 36t-16 35t-18 30l83 71q21 -29 34.5 -62.5t13.5 -69.5z" />
    <glyph glyph-name="zcaron" unicode="&#x17e;" horiz-adv-x="1159" 
d="M1196 443q-5 -15 -18 -33t-27 -35q-16 -19 -35 -38h-75q3 -1 7 -7t4 -24q0 -57 -24 -115t-65 -105t-95 -76.5t-114 -29.5q-71 0 -124 33.5t-81 99.5q-30 -39 -69.5 -71.5t-87.5 -48.5v-100q0 -27 -10.5 -51.5t-27.5 -46.5t-37.5 -41.5t-39.5 -35.5q-20 -17 -46 -22.5
t-52 -5.5q-14 0 -31.5 2t-33 8t-27.5 16.5t-15 27.5l72 55q11 -34 37.5 -50.5t61.5 -16.5q29 0 46 17.5t25.5 42.5t11 53t2.5 49q0 22 -1.5 43t-3.5 43h-4q-62 0 -105.5 21.5t-72 58.5t-41.5 86.5t-13 105.5q0 20 9.5 41.5t24.5 43.5h-159q4 20 16 42t26 41.5t28.5 34.5
t24.5 22q11 -28 28 -39t46 -11h609q130 0 242.5 2.5t213.5 13.5zM174 337q-6 -32 -6 -62q0 -51 17.5 -94t49 -74.5t76 -49t99.5 -17.5q28 0 51.5 14t40 36t25.5 48.5t9 52.5v146h-362zM971 241q0 23 -10 48t-24 48h-321q1 -61 9 -115t32 -94.5t69 -64t120 -23.5
q39 0 63 20.5t38 50.5t19 65t5 65z" />
  </font>
</defs>
</svg>
